<?xml version="1.0" encoding="utf-8"?>
<!-- Generator: Adobe Illustrator 24.0.3, SVG Export Plug-In . SVG Version: 6.00 Build 0)  -->
<svg version="1.1" id="Layer_1" xmlns="http://www.w3.org/2000/svg" xmlns:xlink="http://www.w3.org/1999/xlink" x="0px" y="0px"
	 viewBox="0 0 534 273" style="enable-background:new 0 0 534 273;" xml:space="preserve">
<style type="text/css">
	.st0{enable-background:new    ;}
	.st1{fill:#37B34A;}
	.st2{fill:#22205F;}
	.st3{fill:#FCB614;}
</style>
<g class="st0">
	<path d="M192.7,244.8h5.6v6h-0.5c0-0.2-0.1-1-0.1-2.3c-0.6,1.4-2,2.4-4.1,2.4c-3.3,0-5.5-2.7-5.5-6.7s2.3-6.7,5.6-6.7
		c3.7,0,4.6,2.8,4.7,3.9l-0.7,0.1c0-0.8-0.8-3.3-4-3.3c-2.9,0-4.8,2.3-4.8,6c0,3.6,1.8,6,4.8,6s4.1-2.2,4.1-3.5v-1.4h-5L192.7,244.8
		L192.7,244.8z"/>
	<path d="M219.6,250.9c0,0-0.2,0-0.5,0c-3,0-2.3-5.4-6.1-5.4h-2v5.3h-0.8v-13h3.7c2.7,0,4.4,1.5,4.4,3.9c0,2.1-1.4,3.3-3.5,3.7
		c2.3,0.6,2.5,4.8,4.5,4.8c0.1,0,0.2,0,0.2,0L219.6,250.9z M213.6,244.9c2.2,0,3.8-1.2,3.8-3.2s-1.5-3.2-3.7-3.2h-3v6.5h2.9V244.9z"
		/>
	<path d="M237.4,247H231l-1.5,3.8h-0.8l5-13h0.8l5,13h-0.8L237.4,247z M237.1,246.4l-2.8-7c0-0.1-0.1-0.5-0.2-0.7l0,0
		c0,0.2-0.1,0.5-0.2,0.7l-2.8,7H237.1z"/>
	<path d="M259.1,242c0,2.4-1.7,4-4.5,4h-3.3v4.8h-0.8v-13h4.1C257.3,237.9,259.1,239.5,259.1,242z M258.3,242c0-2.1-1.5-3.5-3.9-3.5
		h-3.3v6.8h3.3C256.8,245.4,258.3,244,258.3,242z"/>
	<path d="M280.2,237.9v13h-0.8v-6.5h-8.5v6.5h-0.8v-13h0.8v5.9h8.5v-5.9H280.2L280.2,237.9z"/>
	<path d="M292.6,237.9h0.8v13h-0.8V237.9z"/>
	<path d="M315.4,241.7l-0.7,0.1c0-0.8-0.8-3.5-4-3.5c-2.9,0-5,2.2-5,6s2.2,6,5.2,6c2.3,0,3.6-1.4,4-2.1l0.5,0.5
		c-0.5,0.6-1.8,2.3-4.6,2.3c-3.6,0-6-2.4-6-6.7c0-4.1,2.4-6.7,5.8-6.7C314.2,237.7,315.3,240.5,315.4,241.7z"/>
	<path d="M330.1,238.3c-2,0-3.3,1-3.3,2.7c0,3.9,7.7,1.7,7.7,6.7c0,2-1.7,3.2-4.4,3.2c-2.5,0-3.9-0.9-4.6-1.5l0.5-0.6
		c0.7,0.6,1.8,1.5,4.3,1.5c2.2,0,3.6-1,3.6-2.7c0-4.3-7.7-2-7.7-6.7c0-2,1.6-3.2,4.1-3.2c2.9,0,3.8,1.7,4.1,2.8l-0.7,0.1
		C333.4,239.9,332.4,238.3,330.1,238.3z"/>
</g>
<g class="st0">
	<path d="M170.5,201.5l-0.7-2.5c-0.1-0.6-0.6-0.9-1.5-0.9h-7.7v10h6.9c0.9,0,1.2,0,1.4-0.6l0.8-2.1h0.9v7.4h-0.9l-0.8-2.4
		c-0.1-0.5-0.5-0.6-1.4-0.6h-6.9v8.9c0,0.9,0,1.3,0.6,1.4l3.3,0.9v0.6H153V221l2.7-0.8c0.5-0.1,0.6-0.5,0.6-1.4v-20.1
		c0-0.9,0-1.3-0.6-1.4l-2.7-0.8v-0.6h18.6v5.2L170.5,201.5L170.5,201.5z"/>
	<path d="M173.9,221.7v-0.6l2.4-0.8c0.5-0.1,0.5-0.3,0.5-1.3v-22.2c0-0.8-0.1-1-0.7-1.2l-2.4-0.5v-0.6l6.7-1l0.2,0.1V219
		c0,0.8,0,1,0.5,1.2l2.4,0.8v0.6L173.9,221.7L173.9,221.7z"/>
	<path d="M200,222l-0.2-0.2l-0.3-2.3H199c-2.3,2-4.1,2.8-6.3,2.8c-3.7,0-5.3-2.9-5.3-5.9v-10.9c0-0.8-0.1-1.2-0.7-1.3l-2.5-0.5v-0.6
		l6.7-1l0.2,0.1v13c0,2.7,1.5,4.4,4,4.4c1.4,0,2.7-0.7,3.8-1.5v-12.7c0-0.8,0-1.2-0.7-1.3l-2.5-0.5V203l6.7-1l0.2,0.1V217l0.1,1.5
		c0.1,0.8,0.1,1.2,0.7,1.3l2.3,0.5v0.6L200,222z"/>
	<path d="M214.1,222.2c-3,0-4.7-2.4-4.7-5.8v-11.5h-3v-1.8h3.1v-3.9l3.6-1.8v5.9h5.3v2h-5.3V216c0,2.4,1.2,3.8,3.1,3.8
		c1.2,0,2.1-0.5,2.8-1l0.6,0.8C218.2,220.6,216.5,222.2,214.1,222.2z"/>
	<path d="M226.9,222.2c-3,0-4.7-2.4-4.7-5.8v-11.5h-3v-1.8h3.1v-3.9l3.6-1.8v5.9h5.3v2h-5.3V216c0,2.4,1.2,3.8,3.1,3.8
		c1.2,0,2.1-0.5,2.8-1l0.6,0.8C231,220.6,229.2,222.2,226.9,222.2z"/>
	<path d="M241.6,222.3c-5.4,0-8.3-4.5-8.3-9.6c0-5.5,3.1-10.8,9.2-10.8c4.8,0,7,3.9,7,8c0,0.2,0,0.5,0,0.7h-12.9
		c0.1,6.2,4,8.2,7.3,8.2c2.2,0,4-0.7,5.4-1.6l0.5,0.7C247.4,220.3,245.3,222.3,241.6,222.3z M241.1,203.5c-2.7,0-4.4,2.7-4.5,5.4
		h4.7l4.1-0.2C245.7,205.9,243.9,203.5,241.1,203.5z"/>
	<path d="M265.6,204.8l-0.8,2.2h-0.6c-0.5-1.2-1.6-1.7-2.7-1.7c-0.8,0-1.7,0.3-2.9,1.3v12.7c0,0.8,0,1.2,0.6,1.3l3.3,0.8v0.6H252
		v-0.6l2.4-0.8c0.5-0.1,0.6-0.3,0.6-1.3v-12.1l-0.2-1.7c0-0.8-0.1-1.2-0.7-1.3l-2.3-0.5v-0.6l6-1l0.2,0.1l0.2,2.8h0.2
		c1.6-1.5,3.1-3.1,5.5-3.1c1,0,1.8,0.3,1.8,1.5C265.9,203.9,265.8,204.2,265.6,204.8z"/>
	<path d="M289.1,221.7h-12.2v-0.6l2.7-0.8c0.5-0.1,0.6-0.5,0.6-1.4v-20.1c0-0.9,0-1.3-0.6-1.4l-2.7-0.8V196H290
		c8,0,13.8,3.2,13.8,12.1C303.9,216.4,297.8,221.7,289.1,221.7z M289.5,198.1h-5v20.6c0,1,0.6,1.3,1.3,1.3h3.1
		c5.1,0,10.1-2.9,10.1-11.1C298.9,202.4,296,198.1,289.5,198.1z"/>
	<path d="M318.7,222l-0.2-0.2l-0.2-2.5H318c-1.8,1.5-3.5,3-6.2,3s-5-2-5-4.6c0-4.4,3.5-5.9,10.9-7.4v-2.1c0-3-2.1-4-4.5-4
		c-1.8,0-2.4,0.6-2.4,1.7v1.8l-0.2,0.1h-1.5c-0.8,0-1.2-0.5-1.2-1.2c0-1.2,1.3-2.3,2.1-3c1.4-1.2,3.2-1.7,5.3-1.7
		c4.5,0,6.1,2.7,6.1,7v8.3l0.1,1.5c0.1,0.8,0.1,1.2,0.7,1.3l2.5,0.5v0.6L318.7,222z M317.7,211.6c-5.6,1-7,2.7-7,4.5
		s1.5,3.1,3.3,3.1c1.4,0,2.9-0.3,3.7-1.2V211.6L317.7,211.6z"/>
	<path d="M337.3,221.7v-0.6l2.4-0.8c0.5-0.1,0.5-0.3,0.5-1.3v-10.4c0-2.7-1.6-4.4-4.1-4.4c-1.4,0-2.9,0.6-4,1.5v13.4
		c0,0.8,0,1,0.5,1.2l2.4,0.8v0.6h-9.6v-0.6l2.4-0.8c0.5-0.1,0.5-0.3,0.5-1.3v-12.3l-0.1-1.4c-0.1-0.8-0.1-1.2-0.7-1.3l-2.3-0.5v-0.6
		l6-1l0.2,0.1l0.3,2.3h0.2c2.3-2,4.4-2.7,6.6-2.7c3.9,0,5.5,2.8,5.5,5.9V219c0,0.8,0,1,0.5,1.2l2.4,0.8v0.6L337.3,221.7L337.3,221.7
		z"/>
	<path d="M355.7,222.3c-5,0-7.6-5.1-7.6-9.8c0-5.5,3.7-10.6,9.4-10.6c1.3,0,4.7,0.3,4.7,2c0,0.3-0.1,1-0.3,1.4l-0.9,2h-0.6
		c-0.7-1.8-2-3.3-4.3-3.3c-2.8,0-4.5,3-4.5,6.6c0,5.3,2.7,8.3,6.2,8.3c2,0,3.6-0.9,4.5-1.6l0.6,0.7
		C361.1,220.1,359.2,222.3,355.7,222.3z"/>
	<path d="M373,222.3c-5.4,0-8.3-4.5-8.3-9.6c0-5.5,3.1-10.8,9.2-10.8c4.8,0,7,3.9,7,8c0,0.2,0,0.5,0,0.7H368c0.1,6.2,4,8.2,7.3,8.2
		c2.2,0,4-0.7,5.4-1.6l0.5,0.7C378.6,220.3,376.6,222.3,373,222.3z M372.3,203.5c-2.7,0-4.4,2.7-4.5,5.4h4.7l4.1-0.2
		C376.9,205.9,375.2,203.5,372.3,203.5z"/>
</g>
<g>
	<path id="body_1_" class="st1" d="M293.2,129c4,15.4,50.1,43,49.1,47.1c-2.5,9.9-41.4-31.2-51.2-30.9c-25.5,0.8-47.4-6.5-55-22.1
		c-7.6-15.6,1.2-32.1,4.9-43.7c1-3.2,1.7-3.8,1.1-7.5c0.4-0.7-31.2-21.8-30.6-22.3c19,10.2,31.4,19.5,32.1,19.1
		c5.2-3.1,14.3-3,20.4,1.5c7.8,5.6,9.1,15.8,5.8,21.8C267.4,96.2,286.5,105.8,293.2,129z"/>
	<path id="back_1_" class="st2" d="M293.2,129c4,15.4,50.1,43,49.1,47.1c-2.5,9.9-41.9-30.6-50.8-30.9
		c-31.9-17.5-10.9-55.8-49.4-73.3c0.4-0.7-31.2-21.8-30.6-22.3c19,10.2,31.4,19.5,32.1,19.1c5.2-3.1,14.3-3,20.4,1.5
		c7.8,5.6,9.1,15.8,5.8,21.8C267.4,96.2,286.5,105.8,293.2,129z"/>
	<path id="feather_1_" class="st2" d="M298,99.4l-7.7,3.4c-0.6,0.3-1.1,0.2-1.4-0.3l0,0c-0.3-0.6-0.1-1,0.5-1.2l7.5-4.3
		c0.6-0.3,1.3,0.2,1.6,0.7l0,0C298.6,98.2,298.5,99.1,298,99.4z"/>
	<g id="wings_2_">
		<path class="st2" d="M286.8,75.8c-0.7,1.7-2,2.9-2.9,2.6c-1-0.3-1.2-2-0.7-3.8l15.7-50c0.6-1.8,2.5-2.7,4.4-2.1
			c1.9,0.7,2.9,2.6,2.2,4.3L286.8,75.8z"/>
		<path class="st2" d="M305.5,68.9c-0.8,1.2-1.7,2.1-2.6,2.6c-0.4,0.3-0.8,0.4-1.2,0.5c-0.4,0.1-0.7,0.1-1-0.1
			c-1.1-0.6-0.8-3.1,0.6-5.6l4.9-8.6c1.4-2.5,3.7-3.8,5.2-2.9c0.4,0.2,0.6,0.6,0.8,1c0.2,0.4,0.2,1,0.2,1.5
			c-0.1,1.1-0.5,2.4-1.3,3.5L305.5,68.9z"/>
		<path class="st2" d="M309.3,110.1c-0.8,0.1-1.5-0.2-2.1-0.4c-0.5-0.3-0.8-0.7-0.9-1.2c-0.1-1,1.2-1.9,2.7-2l5.5-0.6
			c1.6-0.2,2.9,0.6,3,1.8c0.1,0.6-0.2,1.1-0.7,1.6c-0.5,0.4-1.2,0.7-2,0.7L309.3,110.1z"/>
		<path class="st2" d="M311.3,120.1c-2.1-0.3-3.6-1.3-3.5-2.4c0.1-1.1,1.9-1.8,3.9-1.7l7.2,0.4c2.1,0.1,3.7,1.3,3.6,2.6
			s-1.9,2.1-4,1.9L311.3,120.1z"/>
		<path class="st2" d="M327,117.1c-1.6-0.1-2.8-1.3-2.7-2.6c0.1-0.7,0.3-1.2,0.9-1.7c0.5-0.4,1.2-0.7,2-0.7h5.5c0.8,0,1.5,0.3,2,0.8
			c0.5,0.5,0.8,1.2,0.8,2c-0.1,1.5-1.4,2.7-3,2.6L327,117.1z"/>
		<path class="st2" d="M306.8,51.3c-0.7,1.3-2.4,1.9-3.8,1.2c-0.3-0.2-0.7-0.4-0.9-0.7s-0.4-0.6-0.6-0.9c-0.3-0.7-0.3-1.4,0-2.1
			l8-18.5c0.3-0.7,1-1.2,1.7-1.3c0.4-0.1,0.8-0.1,1.3-0.1s1,0.2,1.4,0.4c1.9,1,2.8,2.8,2.1,4.2L306.8,51.3z"/>
		<path class="st2" d="M279.2,95.9c-0.6,1.4-1.5,2.4-2.1,2.2s-0.7-1.6-0.3-3l3.5-11.2c0.4-1.5,1.6-2.4,2.5-2.1
			c0.9,0.3,1.2,1.7,0.6,3.1L279.2,95.9z"/>
		<path class="st2" d="M291.6,77.8c-0.3,0.7-0.8,1.2-1.3,1.5c-0.5,0.3-1,0.4-1.5,0.2c-0.9-0.4-1.2-1.8-0.6-3.2l6.8-16.8
			c0.6-1.4,2.1-2.1,3.4-1.5c0.7,0.3,1.1,0.8,1.3,1.5c0.2,0.7,0.2,1.4-0.2,2.1L291.6,77.8z"/>
		<path class="st2" d="M329.3,126.1c-0.5-0.1-1-0.4-1.2-1c-0.3-0.5-0.4-1.1-0.3-1.8c0.2-1.3,1.1-2.4,2.2-2.2L347,123
			c1,0.1,1.8,1.6,1.5,3.2c-0.1,0.8-0.4,1.6-0.8,2c-0.4,0.5-1,0.7-1.5,0.7L329.3,126.1z"/>
		<path class="st2" d="M319.4,51.9c-1,1.3-2.9,1.5-4.3,0.5c-0.2-0.1-0.3-0.3-0.5-0.4c-0.2-0.1-0.3-0.3-0.4-0.4
			c-0.2-0.3-0.4-0.7-0.5-1.1c-0.2-0.7-0.2-1.5,0.3-2.2l5.9-9.9c0.4-0.7,1.1-1.1,2-1.2c0.4-0.1,0.9,0,1.3,0.1
			c0.2,0.1,0.4,0.1,0.7,0.2c0.2,0.1,0.4,0.2,0.7,0.4c1.8,1.2,2.5,3.3,1.5,4.6L319.4,51.9z"/>
		<path class="st2" d="M307.7,79.8c-1,1-2.3,1.2-2.9,0.6l-0.2-0.2c-0.3-0.3-0.4-0.8-0.4-1.3c0.1-0.5,0.3-1.1,0.7-1.6l24.7-29.5
			c0.4-0.5,1.1-0.7,1.9-0.7c0.8,0.1,1.6,0.4,2.3,1.1l0.4,0.4c1.4,1.3,1.8,3.3,0.8,4.2L307.7,79.8z"/>
		<path class="st2" d="M341.1,118.9c-1.6-0.1-2.7-1.5-2.7-3c0.1-0.8,0.4-1.5,0.9-2c0.5-0.5,1.2-0.8,2-0.8l4.8,0.1
			c1.6,0,2.9,1.5,2.8,3.2c-0.1,1.7-1.5,3.1-3,2.9L341.1,118.9z"/>
		<path class="st2" d="M328.9,109.5c-0.8,0-1.5-0.2-2.1-0.7c-0.6-0.4-0.9-1-1-1.7c-0.1-1.3,1.1-2.6,2.6-2.7l21.2-2.3
			c1.6-0.2,3,1.2,3.1,3.1c0.1,1-0.2,1.8-0.7,2.5c-0.5,0.6-1.2,1-2,1.1L328.9,109.5z"/>
		<path class="st2" d="M307,94.7c-0.7,0.3-1.3,0.4-1.9,0.4c-0.3,0-0.5-0.1-0.7-0.2c-0.2-0.1-0.3-0.2-0.4-0.3
			c-0.3-0.6,0.4-1.7,1.6-2.5l18.8-11c1.2-0.7,2.9-0.3,3.5,1c0.2,0.3,0.3,0.7,0.3,1c0,0.3-0.1,0.7-0.2,1c-0.2,0.6-0.7,1.2-1.4,1.5
			L307,94.7z"/>
		<path class="st2" d="M326.3,74.6c-1.3,0.9-3.1,0.7-4-0.5c-0.4-0.6-0.6-1.3-0.6-2c0.1-0.7,0.4-1.4,1-1.9l14-12.1
			c1.2-1,3.4-0.6,4.7,1.1c1.3,1.7,1.3,3.9,0,4.8L326.3,74.6z"/>
		<path class="st2" d="M308.2,87.5c-1.2,0.8-2.7,1-3.2,0.3c-0.5-0.7-0.1-2,1.1-3l5.6-4.8c1.1-1,2.7-1.1,3.5-0.1
			c0.7,1,0.3,2.5-0.9,3.3L308.2,87.5z"/>
		<path class="st2" d="M335,81.5c-0.7,0.3-1.5,0.3-2.2,0.1c-0.7-0.3-1.3-0.8-1.7-1.5c-0.8-1.5-0.3-3.3,1-4l10.9-6.5
			c1.3-0.8,3.3,0.1,4.3,2c0.5,1,0.7,2,0.5,2.8s-0.6,1.5-1.3,1.9L335,81.5z"/>
		<path class="st2" d="M290.9,114.6c-1.2-0.1-2.1-0.7-2.1-1.3c0-0.7,1-1.2,2.1-1.2l13.4-0.1c1.2,0,2.1,0.8,2.1,1.7
			c-0.1,1-1,1.7-2.2,1.7L290.9,114.6z"/>
		<path class="st2" d="M292.8,89.8c-0.9,1.2-2.1,1.9-2.6,1.5c-0.3-0.2-0.3-0.6-0.2-1.1c0.1-0.6,0.3-1.2,0.7-1.8l7-10.9
			c0.4-0.6,1-1.1,1.5-1.3c0.6-0.2,1.1-0.2,1.5,0.1c0.9,0.6,0.8,2.1-0.1,3.3L292.8,89.8z"/>
		<path class="st2" d="M294.5,94.2c-0.6,0.5-1.1,0.8-1.6,1.1c-0.4,0.2-0.8,0.2-1,0.1c-0.3-0.3,0.2-1.5,1.2-2.6l6.8-7.4
			c1-1.1,2.4-1.5,3-0.8c0.3,0.3,0.4,0.8,0.2,1.3c-0.2,0.6-0.6,1.1-1.1,1.6L294.5,94.2z"/>
		<path class="st2" d="M322.8,95.1c-1.5,0.4-3,0-3.3-1c-0.1-0.2-0.1-0.3-0.2-0.4c-0.4-1,0.5-2.2,2-2.9l24.7-9.9
			c1.5-0.6,3.2,0.3,3.8,2c0.1,0.3,0.2,0.5,0.3,0.8c0.6,1.7-0.3,3.4-1.8,3.9L322.8,95.1z"/>
		<path class="st2" d="M304.2,101.1c-1.5,0.4-2.9,0.2-3.1-0.4c-0.1-0.2,0-0.3,0.1-0.5c0.1-0.2,0.2-0.3,0.4-0.6c0.4-0.4,1-0.7,1.7-1
			l7.5-2.8c0.7-0.3,1.5-0.3,2-0.2c0.6,0.1,1.1,0.4,1.2,0.9c0.3,1-0.7,2.1-2.2,2.5L304.2,101.1z"/>
		<path class="st2" d="M334.3,100.4c-1.9,0.3-3.6-0.6-3.9-2c-0.1-0.7,0.1-1.4,0.6-2c0.5-0.6,1.2-1.1,2.2-1.3l14.8-3.6
			c0.9-0.2,1.9-0.1,2.6,0.4c0.7,0.5,1.3,1.3,1.5,2.2c0.3,1.9-0.9,3.7-2.7,4L334.3,100.4z"/>
		<path class="st2" d="M314.7,103.8c-1,0.1-1.9-0.6-2-1.6s0.3-2,1.3-2.2l13.1-3.1c0.9-0.2,2,0.7,2.2,2.1s-0.3,2.6-1.3,2.7
			L314.7,103.8z"/>
		<path class="st2" d="M322.6,139.9c-1.6-0.6-2.4-1.9-2.1-3c0.3-1.2,1.7-1.8,3.1-1.4l15,4.1c1.4,0.4,2.2,1.9,1.8,3.3
			c-0.4,1.5-2,2.2-3.1,1.9L322.6,139.9z"/>
		<path class="st2" d="M330.4,134.5c-1.5-0.4-2.4-1.7-2.1-3.1c0.3-1.3,1.7-2.2,3.3-1.9l11.2,2.1c1.5,0.3,2.5,1.8,2.2,3.4
			c-0.3,1.6-1.9,2.5-3.4,2.2L330.4,134.5z"/>
		<path class="st2" d="M303.1,127.2c-1.2-0.3-2.1-1.3-1.9-2.3c0.2-1,1.3-1.6,2.6-1.3l17.4,3.2c1.2,0.2,2.1,1.5,1.8,2.7
			s-1.5,2.1-2.7,1.8L303.1,127.2z"/>
		<path class="st2" d="M303,133.6c-1.5-0.5-2.4-1.6-2.1-2.5c0.3-1,1.7-1.4,3.2-1l9.1,2.5c1.5,0.4,2.5,1.7,2.1,2.9
			c-0.3,1.2-1.9,1.7-3.3,1.2L303,133.6z"/>
		<path class="st2" d="M284.9,95.7c-0.5,0.8-1,1.5-1.5,2c-0.2,0.2-0.4,0.4-0.6,0.5c-0.2,0.1-0.4,0.1-0.5,0.1
			c-0.5-0.2-0.2-1.9,0.6-3.6L288,84c0.8-1.7,2.2-2.8,3.1-2.4c0.2,0.1,0.4,0.3,0.5,0.6c0.1,0.2,0.1,0.6,0.1,0.9
			c-0.1,0.7-0.3,1.6-0.8,2.4L284.9,95.7z"/>
		<path class="st2" d="M296.8,120.9c-0.7-0.1-1.3-0.4-1.8-0.7c-0.4-0.3-0.7-0.8-0.6-1.2c0.1-0.8,1.4-1.3,2.9-1.2l6.5,0.7
			c1.5,0.2,2.6,1.1,2.5,2.1c-0.1,1-1.5,1.6-2.9,1.3L296.8,120.9z"/>
		<path class="st2" d="M291.7,101.8c-0.7,0.3-1.3,0.5-1.8,0.6c-0.2,0.1-0.4,0.1-0.6,0.1c-0.2,0-0.3,0-0.3-0.1
			c-0.2-0.2,0.8-1.1,2.1-1.9l4-2.4c1.3-0.8,2.5-1,2.8-0.4c0.1,0.1,0.1,0.3,0,0.4c-0.1,0.2-0.2,0.4-0.4,0.6c-0.4,0.4-1,0.8-1.6,1.1
			L291.7,101.8z"/>
		<path class="st2" d="M295.2,107.5c-1.5,0.2-2.7-0.2-2.8-0.7c-0.1-0.5,1-1.2,2.5-1.5l4.2-0.8c1.5-0.3,2.7,0.1,2.9,0.8
			c0.1,0.7-1,1.6-2.5,1.7L295.2,107.5z"/>
	</g>
	<path class="st3" d="M252.9,163.5c-40.1,0-72.7-32.7-72.7-72.7S212.8,18,252.9,18c15.3,0,25.5,2.7,36.2,9.7
		c1.1,0.7,1.5,2.2,0.7,3.3c-0.7,1.1-2.2,1.5-3.3,0.7c-10-6.5-19.1-8.9-33.6-8.9c-37.5,0-67.9,30.5-67.9,67.9s30.5,67.9,67.9,67.9
		c12.7,0,20.5-2.5,29.7-6.8c1.2-0.6,2.6-0.1,3.2,1.1c0.6,1.2,0.1,2.6-1.1,3.2C274.8,160.8,266.5,163.5,252.9,163.5z"/>
</g>
</svg>
