<?xml version="1.0" encoding="utf-8"?>
<!-- Generator: Adobe Illustrator 24.0.3, SVG Export Plug-In . SVG Version: 6.00 Build 0)  -->
<svg version="1.1" id="Layer_1" xmlns="http://www.w3.org/2000/svg" xmlns:xlink="http://www.w3.org/1999/xlink" x="0px" y="0px"
	 viewBox="0 0 331.3 79.9" style="enable-background:new 0 0 331.3 79.9;" xml:space="preserve">
<style type="text/css">
	.st0{fill:#0A0345;}
	.st1{fill:#FCB614;}
	.st2{fill:#37B34A;}
	.st3{fill:#22205F;}
</style>
<g>
	<path class="st0" d="M17.6,30.6H0v-0.5l2.6-0.8C3,29.2,3,28.9,3,28V8.9c0-0.8,0-1.2-0.5-1.3L0,6.9V6.3h10.7v0.5L7.8,7.6
		C7.3,7.7,7.2,8.1,7.2,8.9v18.8c0,0.9,0.5,1.2,1.2,1.2h6.2c0.8,0,1.3-0.4,1.5-0.9l1.7-3.3l1,0.3L17.6,30.6z"/>
	<path class="st0" d="M26.9,31.1c-5.1,0-7.9-4.3-7.9-9.2c0-5.3,3-10.3,8.8-10.3c4.7,0,6.7,3.7,6.7,7.6c0,0.2,0,0.4,0,0.7H22
		c0.1,6,3.9,7.8,6.9,7.8c2.1,0,3.9-0.6,5.1-1.5l0.5,0.7C32.3,29.3,30.4,31.1,26.9,31.1z M26.3,13.3c-2.5,0-4.2,2.5-4.3,5.1h4.6
		l4-0.3C30.7,15.6,29.1,13.3,26.3,13.3z"/>
	<path class="st0" d="M66.1,30.6v-0.5l2.5-0.8c0.5-0.1,0.5-0.5,0.5-1.3V12.7c0-0.9,0-2,0-3h-0.2c-0.1,0.5-0.6,1.5-1.2,3l-7.2,17.9
		h-1.8l-7.2-17.9c-0.4-0.9-0.8-1.8-1-2.8h-0.2c0,0.5,0,1.2,0,2.8V28c0,0.8,0.1,1.2,0.6,1.3l2.8,0.8v0.5h-8.9v-0.5l2.5-0.8
		c0.5-0.1,0.5-0.5,0.5-1.3v-19c0-0.8-0.1-1.2-0.5-1.3l-2.8-0.9V6.3h8.6l6.3,16.2c0.5,1.2,0.8,1.9,0.9,3.1h0.1c0.1-0.9,0.5-1.7,1-3
		l6.6-16.3h8.1v0.5l-2.5,0.8c-0.5,0.1-0.5,0.5-0.5,1.3V28c0,0.8,0.1,1.2,0.5,1.3l2.5,0.8v0.5H66.1z"/>
	<path class="st0" d="M85.5,31.2c-5.4,0-8.7-3.7-8.7-9.3c0-5.5,3.6-10.3,9.4-10.3c5.5,0,8.7,3.8,8.7,9.4
		C94.9,26.6,91.2,31.2,85.5,31.2z M85.2,13.1c-3.3,0-4.4,3.3-4.4,6.7c0,3.5,1.4,10,5.5,10c3.5,0,4.6-3.5,4.6-6.8
		C90.8,19.6,89.3,13.1,85.2,13.1z"/>
	<path class="st0" d="M107,30.6v-0.5l2.3-0.7c0.4-0.1,0.5-0.4,0.5-1.2v-9.9c0-2.5-1.5-4.1-4-4.1c-1.3,0-2.8,0.5-3.9,1.4v12.7
		c0,0.8,0,1,0.5,1.1l2.3,0.7v0.5h-9.2v-0.5l2.3-0.7c0.4-0.1,0.5-0.4,0.5-1.2V16.4L98.1,15c-0.1-0.8-0.1-1-0.6-1.2l-2.2-0.4v-0.6
		l5.7-0.9l0.3,0.2l0.4,2.2h0.3c2.2-1.9,4.1-2.6,6.3-2.6c3.7,0,5.3,2.6,5.3,5.5v11c0,0.8,0,1,0.5,1.1l2.3,0.7v0.5H107z"/>
	<path class="st0" d="M129.8,30.9l-0.3-0.2l-0.3-2.2H129c-1.8,1.5-3.5,2.6-6,2.6c-4.7,0-6.7-4.9-6.7-8.6c0-5.5,3.1-10.4,9.1-10.4
		c1.1,0,2.4,0.2,3.4,0.6V7c0-0.8-0.1-1-0.6-1.1l-2.4-0.4V4.9l6.5-0.9l0.3,0.2v22.2l0.1,1.4c0.1,0.8,0.1,1,0.6,1.2l2.2,0.5V30
		L129.8,30.9z M128.9,15.6c-0.5-0.8-1.9-1.7-4-1.7c-3.6,0-4.9,3.1-4.9,6.3c0,3.4,1.4,8.1,5.6,8.1c1.3,0,2.4-0.5,3.3-1.2V15.6z"/>
	<path class="st0" d="M143.6,31.1c-5.1,0-7.9-4.3-7.9-9.2c0-5.3,3-10.3,8.8-10.3c4.7,0,6.7,3.7,6.7,7.6c0,0.2,0,0.4,0,0.7h-12.3
		c0.1,6,3.9,7.8,6.9,7.8c2.1,0,3.9-0.6,5.1-1.5l0.5,0.7C149,29.3,147.1,31.1,143.6,31.1z M143,13.3c-2.5,0-4.2,2.5-4.3,5.1h4.6
		l4-0.3C147.4,15.6,145.8,13.3,143,13.3z"/>
	<path class="st0" d="M169.4,7.6c-0.5,0.1-0.5,0.5-0.5,1.3v15.9c0,7.2-2.8,9.9-9,13.2l-0.8-1.3c4.5-2.8,5.5-5.8,5.5-11.9V8.9
		c0-0.8-0.1-1.2-0.5-1.3l-2.5-0.8V6.3h10.2v0.5L169.4,7.6z"/>
	<path class="st0" d="M181.7,31.2c-5.4,0-8.7-3.7-8.7-9.3c0-5.5,3.6-10.3,9.4-10.3c5.5,0,8.7,3.8,8.7,9.4
		C191.1,26.6,187.4,31.2,181.7,31.2z M181.4,13.1c-3.3,0-4.4,3.3-4.4,6.7c0,3.5,1.4,10,5.5,10c3.5,0,4.6-3.5,4.6-6.8
		C187,19.6,185.5,13.1,181.4,13.1z"/>
	<path class="st0" d="M206.3,30.9l-0.3-0.2l-0.4-2.2h-0.3c-2.2,1.9-4,2.6-6.1,2.6c-3.5,0-5-2.7-5-5.6V15c0-0.8-0.1-1-0.6-1.2
		l-2.4-0.4v-0.6l6.4-0.9l0.3,0.2v12.4c0,2.5,1.4,4.1,3.8,4.1c1.3,0,2.6-0.6,3.6-1.5V15c0-0.8-0.1-1-0.6-1.2l-2.4-0.4v-0.6l6.4-0.9
		l0.3,0.2v14.2l0.2,1.5c0.1,0.8,0.1,1,0.6,1.2l2.2,0.5V30L206.3,30.9z"/>
	<path class="st0" d="M225.1,14.4l-0.8,2.1h-0.5c-0.5-1.1-1.5-1.7-2.6-1.7c-0.8,0-1.7,0.3-2.7,1.2v12.2c0,0.8,0,1,0.5,1.2l3.2,0.8
		v0.5h-10.2v-0.5l2.3-0.7c0.4-0.1,0.5-0.4,0.5-1.2V16.7l-0.2-1.6c-0.1-0.8-0.1-1-0.6-1.2l-2.2-0.4v-0.6l5.8-0.9l0.3,0.2l0.3,2.6h0.2
		c1.5-1.5,3-3,5.3-3c1,0,1.8,0.4,1.8,1.4C225.4,13.5,225.2,14,225.1,14.4z"/>
	<path class="st0" d="M236.8,30.6v-0.5l2.3-0.7c0.4-0.1,0.5-0.4,0.5-1.2v-9.9c0-2.5-1.5-4.1-4-4.1c-1.3,0-2.8,0.5-3.9,1.4v12.7
		c0,0.8,0,1,0.5,1.1l2.3,0.7v0.5h-9.2v-0.5l2.3-0.7c0.4-0.1,0.5-0.4,0.5-1.2V16.4l-0.2-1.4c-0.1-0.8-0.1-1-0.6-1.2l-2.2-0.4v-0.6
		l5.7-0.9l0.3,0.2l0.4,2.2h0.3c2.2-1.9,4.1-2.6,6.3-2.6c3.7,0,5.3,2.6,5.3,5.5v11c0,0.8,0,1,0.5,1.1l2.3,0.7v0.5H236.8z"/>
	<path class="st0" d="M258.1,30.9l-0.2-0.2l-0.3-2.4h-0.2c-1.8,1.5-3.3,2.8-5.9,2.8c-2.7,0-4.7-1.9-4.7-4.5c0-4.2,3.3-5.5,10.4-7.1
		v-2c0-2.8-2-3.8-4.4-3.8c-1.8,0-2.3,0.5-2.3,1.6v1.8l-0.2,0.2h-1.4c-0.8,0-1-0.5-1-1c0-1,1.2-2.2,2-2.8c1.3-1,3.1-1.7,5.1-1.7
		c4.3,0,5.9,2.6,5.9,6.7v8l0.2,1.4c0.1,0.8,0.1,1.1,0.6,1.2l2.4,0.5V30L258.1,30.9z M257.2,21c-5.4,0.9-6.7,2.5-6.7,4.4
		c0,1.8,1.4,3,3.2,3c1.3,0,2.7-0.4,3.5-1.1V21z"/>
	<path class="st0" d="M263.7,30.6v-0.5l2.3-0.7c0.4-0.1,0.5-0.4,0.5-1.2V7c0-0.8-0.1-1-0.6-1.1l-2.3-0.4V4.9l6.4-0.9l0.3,0.2v24.2
		c0,0.8,0,1,0.5,1.1l2.3,0.7v0.5H263.7z"/>
	<path class="st0" d="M289.2,31.2c-2,0-4.6-0.5-6.2-1.3v-5.3h1.1l0.6,2.6c0.1,0.5,0.4,0.8,1,1.2c0.8,0.5,2.3,0.9,3.9,0.9
		c2.6,0,5.1-1.4,5.1-4.4c0-2.5-2.2-3.8-4.1-4.7l-2.3-1.1c-2.8-1.4-5.5-3-5.5-6.5c0-3.9,3.3-6.9,8.1-6.9c0.8,0,3.7,0,6.1,1.1v5.1
		h-1.1l-0.6-2.4c-0.2-0.5-0.5-0.9-1.1-1.2c-1.1-0.5-2.2-0.8-3.5-0.8c-2.1,0-4.5,1-4.5,3.6c0,2.2,1.7,3.2,4.2,4.4l2.3,1
		c3,1.4,5.5,3.2,5.5,6.7C298.5,28.6,294,31.2,289.2,31.2z"/>
	<path class="st0" d="M306.8,31c-2.9,0-4.6-2.3-4.6-5.4V14.6h-2.8v-1.9h3V9l3.5-1.8v5.5h5v1.9h-5V25c0,2.3,1.1,3.6,3,3.6
		c1,0,2-0.5,2.6-0.9l0.5,0.7C310.8,29.6,309.1,31,306.8,31z"/>
	<path class="st0" d="M325.6,30.9l-0.3-0.2l-0.3-2.2h-0.3c-1.8,1.5-3.5,2.6-6,2.6c-4.7,0-6.7-4.9-6.7-8.6c0-5.5,3.1-10.4,9.1-10.4
		c1.1,0,2.4,0.2,3.4,0.6V7c0-0.8-0.1-1-0.6-1.1l-2.4-0.4V4.9l6.5-0.9l0.3,0.2v22.2l0.1,1.4c0.1,0.8,0.1,1,0.6,1.2l2.2,0.5V30
		L325.6,30.9z M324.7,15.6c-0.5-0.8-1.9-1.7-4-1.7c-3.6,0-4.9,3.1-4.9,6.3c0,3.4,1.4,8.1,5.6,8.1c1.3,0,2.4-0.5,3.3-1.2V15.6z"/>
</g>
<g>
	<path d="M16.2,66.5c0,4-2.9,6.2-8.1,6.2H0V49.1h7.9c4.6,0,7.5,2.1,7.5,6.2c0,3.6-2.8,4.8-4.2,5v0.1C13.2,60.7,16.2,62.1,16.2,66.5z
		 M7.7,50.3H1.3v9.5h7.3c3.5,0,5.3-2.1,5.3-4.5C13.9,52.4,12.1,50.3,7.7,50.3z M14.8,66.4c0-3.4-2.3-5.5-6.1-5.5H1.3v10.5H8
		C12.3,71.4,14.8,69.7,14.8,66.4z"/>
	<path d="M43.8,65.7H32.4l-2.6,6.9h-1.4l9-23.5h1.4l9,23.5h-1.4L43.8,65.7z M43.3,64.6l-4.9-12.7c-0.1-0.3-0.3-0.8-0.4-1.2H38
		c-0.1,0.4-0.2,0.9-0.4,1.2l-4.9,12.7H43.3z"/>
	<path d="M68.1,50.1c-3.5,0-6,1.9-6,4.7C62.1,61.9,76,58,76,66.9c0,3.5-3.1,5.9-7.8,5.9c-4.5,0-7.1-1.6-8.4-2.7l0.8-1
		c1.3,1,3.4,2.6,7.6,2.6c4,0,6.5-1.9,6.5-4.8c0-7.6-13.9-3.6-13.9-12c0-3.5,3-5.9,7.4-5.9c5.2,0,6.9,3.1,7.5,5l-1.3,0.3
		C73.9,53,72.3,50.1,68.1,50.1z"/>
	<path d="M91,49.1h1.4v23.5H91V49.1z"/>
	<path d="M126.4,56l-1.3,0.3c-0.1-1.4-1.5-6.2-7.2-6.2c-5.1,0-9,4-9,10.8c0,6.9,4,10.8,9.4,10.8c4.1,0,6.5-2.5,7.3-3.7l0.9,0.8
		c-0.8,1.1-3.4,4.1-8.3,4.1c-6.4,0-10.8-4.4-10.8-12c0-7.5,4.3-12,10.4-12C124.4,48.9,126.3,53.9,126.4,56z"/>
	<path d="M165.9,50.1c-3.5,0-6,1.9-6,4.7c0,7.1,13.9,3.2,13.9,12.1c0,3.5-3.1,5.9-7.8,5.9c-4.5,0-7.1-1.6-8.4-2.7l0.8-1
		c1.3,1,3.4,2.6,7.6,2.6c4,0,6.5-1.9,6.5-4.8c0-7.6-13.9-3.6-13.9-12c0-3.5,3-5.9,7.4-5.9c5.2,0,6.9,3.1,7.5,5l-1.3,0.3
		C171.8,53,170.2,50.1,165.9,50.1z"/>
	<path d="M201.2,65.7h-11.4l-2.6,6.9h-1.4l9-23.5h1.4l9,23.5h-1.4L201.2,65.7z M200.8,64.6l-4.9-12.7c-0.1-0.3-0.3-0.8-0.4-1.2h-0.1
		c-0.1,0.4-0.2,0.9-0.4,1.2l-4.9,12.7H200.8z"/>
	<path d="M236.8,72.6H235l-12.8-19.1c-0.6-0.9-1.5-2.4-1.6-2.7l-0.1,0c0,0.2,0.1,1.2,0.1,2.3v19.5h-1.4V49.1h1.7l12.8,19.3
		c0.7,1.1,1.3,2,1.7,2.7l0.1,0c0-0.3-0.1-1.3-0.1-2.3V49.1h1.4V72.6z"/>
	<path d="M259.7,50.1c-3.5,0-6,1.9-6,4.7c0,7.1,13.9,3.2,13.9,12.1c0,3.5-3.1,5.9-7.8,5.9c-4.5,0-7.1-1.6-8.4-2.7l0.8-1
		c1.3,1,3.4,2.6,7.6,2.6c4,0,6.5-1.9,6.5-4.8c0-7.6-13.9-3.6-13.9-12c0-3.5,3-5.9,7.4-5.9c5.2,0,6.9,3.1,7.5,5l-1.3,0.3
		C265.5,53,263.9,50.1,259.7,50.1z"/>
</g>
</svg>
