<?xml version="1.0" encoding="utf-8"?>
<!-- Generator: Adobe Illustrator 24.0.3, SVG Export Plug-In . SVG Version: 6.00 Build 0)  -->
<svg version="1.1" xmlns="http://www.w3.org/2000/svg" xmlns:xlink="http://www.w3.org/1999/xlink" x="0px" y="0px"
	 viewBox="0 0 416 428.1" style="enable-background:new 0 0 416 428.1;" xml:space="preserve">
<style type="text/css">
	.st0{enable-background:new    ;}
	.st1{fill:#37B34A;}
	.st2{fill:#22205F;}
	.st3{fill:#FCB614;}
</style>
<g id="Layer_1">
	<g class="st0">
		<path d="M73.4,408.9h10.2v10.9h-0.9c-0.1-0.5-0.3-1.9-0.3-4.2c-1.1,2.5-3.6,4.4-7.5,4.4c-6.1,0-10-4.8-10-12s4.1-12,10.2-12
			c6.6,0,8.4,4.9,8.6,7l-1.3,0.3c0-1.4-1.4-6-7.3-6c-5.2,0-8.8,4.2-8.8,10.8c0,6.4,3.4,10.8,8.8,10.8c5.3,0,7.4-3.9,7.4-6.3v-2.5h-9
			L73.4,408.9L73.4,408.9z"/>
		<path d="M121.9,420c0,0-0.4,0.1-0.9,0.1c-5.5,0-4.2-9.7-11.1-9.7h-3.8v9.5h-1.4v-23.5h6.7c4.8,0,7.9,2.7,7.9,7.1
			c0,3.8-2.5,6.1-6.2,6.7c4.1,1,4.5,8.7,8.1,8.7c0.3,0,0.5-0.1,0.5-0.1L121.9,420z M111.2,409.2c3.9,0,6.8-2.1,6.8-5.8
			c0-3.6-2.6-5.9-6.6-5.9h-5.3v11.7L111.2,409.2L111.2,409.2z"/>
		<path d="M153.9,413h-11.4l-2.6,6.9h-1.4l9-23.5h1.4l9,23.5h-1.4L153.9,413z M153.5,411.9l-4.9-12.7c-0.1-0.3-0.3-0.8-0.4-1.2h-0.1
			c-0.1,0.4-0.2,0.9-0.4,1.2l-4.9,12.7H153.5z"/>
		<path d="M193.2,403.9c0,4.4-3.2,7.2-8.2,7.2h-6.1v8.8h-1.4v-23.5h7.4C190,396.4,193.2,399.3,193.2,403.9z M191.9,403.9
			c0-3.8-2.8-6.3-7-6.3h-6v12.3h6C189.2,409.9,191.9,407.6,191.9,403.9z"/>
		<path d="M231.4,396.4v23.5H230v-11.7h-15.3v11.7h-1.4v-23.5h1.4V407H230v-10.7h1.4V396.4z"/>
		<path d="M253.6,396.4h1.4v23.5h-1.4V396.4z"/>
		<path d="M294.6,403.3l-1.3,0.3c-0.1-1.4-1.5-6.2-7.2-6.2c-5.1,0-9,4-9,10.8c0,6.9,4,10.8,9.4,10.8c4.1,0,6.5-2.5,7.3-3.7l0.9,0.8
			c-0.8,1.1-3.4,4.1-8.3,4.1c-6.4,0-10.8-4.4-10.8-12c0-7.5,4.3-12,10.4-12C292.6,396.2,294.5,401.2,294.6,403.3z"/>
		<path d="M321.3,397.3c-3.5,0-6,1.9-6,4.7c0,7.1,13.9,3.2,13.9,12.1c0,3.5-3.1,5.9-7.8,5.9c-4.5,0-7.1-1.6-8.4-2.7l0.8-1
			c1.3,1,3.4,2.6,7.6,2.6c4,0,6.5-1.9,6.5-4.8c0-7.6-13.9-3.6-13.9-12c0-3.5,3-5.9,7.4-5.9c5.2,0,6.9,3.1,7.5,5l-1.3,0.3
			C327.1,400.3,325.5,397.3,321.3,397.3z"/>
	</g>
	<g class="st0">
		<path d="M33.5,330.9l-1.3-4.5c-0.3-1-1.1-1.6-2.7-1.6h-14v18h12.4c1.6,0,2-0.1,2.4-1l1.5-3.7h1.6v13.4h-1.6l-1.5-4.4
			c-0.3-0.9-0.8-1-2.4-1H15.5v16.1c0,1.6,0.1,2.2,1,2.5l6,1.6v1H1.8v-1l4.8-1.4c0.9-0.3,1-0.9,1-2.4v-36.1c0-1.6-0.1-2.2-1-2.4
			l-4.7-1.4v-1h33.5v9.4h-1.9V330.9z"/>
		<path d="M39.5,367.4v-1l4.4-1.4c0.8-0.3,0.9-0.7,0.9-2.2v-40.1c0-1.4-0.2-1.9-1.2-2.1l-4.4-0.8v-1.1l12.1-1.8l0.5,0.3V363
			c0,1.4,0.1,1.8,0.9,2.1l4.3,1.4v1H39.5V367.4z"/>
		<path d="M86.6,367.9l-0.5-0.4l-0.7-4.2h-0.5c-4.2,3.6-7.5,5-11.5,5c-6.6,0-9.5-5.1-9.5-10.5V338c0-1.4-0.2-2-1.2-2.2l-4.5-0.8
			v-1.1l12.1-1.8l0.5,0.3v23.4c0,4.8,2.7,7.8,7.2,7.8c2.4,0,4.8-1.2,6.8-2.8V338c0-1.4-0.1-2-1.2-2.2l-4.5-0.8v-1.1l12.1-1.8
			l0.5,0.3v26.9L92,362c0.2,1.4,0.2,2,1.2,2.2l4.2,0.9v1.1L86.6,367.9z"/>
		<path d="M112,368.2c-5.5,0-8.6-4.4-8.6-10.3v-20.7h-5.3v-3.5h5.6v-7.1l6.5-3.3v10.5h9.5v3.5h-9.5v19.5c0,4.4,2,6.8,5.6,6.8
			c2,0,3.8-0.9,4.9-1.8l1,1.4C119.5,365.4,116.3,368.2,112,368.2z"/>
		<path d="M135,368.2c-5.5,0-8.6-4.4-8.6-10.3v-20.7h-5.3v-3.5h5.6v-7.1l6.5-3.3v10.5h9.5v3.5h-9.5v19.5c0,4.4,2,6.8,5.6,6.8
			c2,0,3.8-0.9,4.9-1.8l1,1.4C142.5,365.4,139.3,368.2,135,368.2z"/>
		<path d="M161.7,368.4c-9.7,0-15-8.2-15-17.3c0-9.9,5.7-19.5,16.6-19.5c8.8,0,12.6,7.1,12.6,14.4c0,0.4-0.1,0.8-0.1,1.3h-23.3
			c0.2,11.3,7.3,14.8,13.1,14.8c4,0,7.3-1.2,9.7-2.9l0.9,1.3C172,364.9,168.4,368.4,161.7,368.4z M160.6,334.6
			c-4.8,0-7.9,4.8-8.1,9.7h8.6l7.5-0.5C168.9,339,165.8,334.6,160.6,334.6z"/>
		<path d="M204.9,336.8l-1.5,4h-1c-0.9-2.1-2.9-3.1-4.8-3.1c-1.5,0-3.2,0.6-5.1,2.2v23c0,1.5,0.1,2,1,2.2l6.1,1.4v1h-19.2v-1
			l4.3-1.4c0.8-0.3,1-0.7,1-2.2V341l-0.4-3.1c-0.1-1.4-0.2-2-1.2-2.2l-4.2-0.8v-1.1l10.9-1.8l0.5,0.3l0.5,5h0.4
			c2.9-2.8,5.6-5.6,9.9-5.6c1.8,0,3.4,0.7,3.4,2.7C205.6,335.1,205.3,335.9,204.9,336.8z"/>
		<path d="M247.2,367.4h-22v-1l4.8-1.4c0.9-0.3,1-0.9,1-2.4v-36.1c0-1.6-0.1-2.2-1-2.4l-4.7-1.4v-1h23.6c14.4,0,25,5.8,25,21.8
			C273.9,357.8,262.8,367.4,247.2,367.4z M248,324.8h-9v37.1c0,1.8,1,2.2,2.2,2.2h5.7c9.1,0,18.2-5.1,18.2-19.9
			C265,332.4,259.8,324.8,248,324.8z"/>
		<path d="M300.7,367.9l-0.4-0.4l-0.5-4.6h-0.4c-3.4,2.8-6.2,5.3-11.2,5.3s-8.9-3.5-8.9-8.4c0-8,6.3-10.5,19.7-13.3v-3.8
			c0-5.3-3.8-7.2-8.2-7.2c-3.3,0-4.4,1-4.4,3.1v3.3l-0.4,0.3h-2.7c-1.4,0-2-0.9-2-2c0-2,2.2-4.1,3.7-5.4c2.5-2,5.8-3.1,9.6-3.1
			c8.1,0,11.1,4.8,11.1,12.6v15l0.3,2.6c0.2,1.4,0.2,2,1.2,2.2l4.5,0.9v1.1L300.7,367.9z M298.9,349.2c-10.2,1.8-12.6,4.8-12.6,8.2
			s2.7,5.7,6.1,5.7c2.4,0,5.2-0.7,6.6-2.1v-11.8L298.9,349.2L298.9,349.2z"/>
		<path d="M334.2,367.4v-1l4.4-1.4c0.8-0.3,0.9-0.7,0.9-2.2V344c0-4.8-2.9-7.8-7.5-7.8c-2.5,0-5.2,1-7.3,2.7V363
			c0,1.4,0.1,1.8,0.9,2.1l4.3,1.4v1h-17.3v-1l4.4-1.4c0.8-0.3,0.9-0.7,0.9-2.2v-22.3l-0.3-2.7c-0.2-1.4-0.2-2-1.2-2.2l-4.1-0.8v-1.1
			l10.8-1.8l0.5,0.3l0.7,4.2h0.5c4.2-3.6,7.8-4.8,11.8-4.8c7,0,10,5,10,10.5V363c0,1.4,0.1,1.8,0.9,2.1l4.3,1.4v1h-17.6L334.2,367.4
			L334.2,367.4z"/>
		<path d="M367.4,368.4c-8.9,0-13.7-9.1-13.7-17.6c0-9.9,6.7-19.1,17-19.1c2.2,0,8.6,0.7,8.6,3.5c0,0.7-0.3,1.8-0.7,2.5l-1.7,3.6h-1
			c-1.2-3.3-3.6-6-7.6-6c-5,0-8.2,5.4-8.2,11.8c0,9.6,4.8,14.9,11.2,14.9c3.6,0,6.5-1.6,8.2-2.9l1.1,1.3
			C377.1,364.4,373.6,368.4,367.4,368.4z"/>
		<path d="M398.5,368.4c-9.7,0-15-8.2-15-17.3c0-9.9,5.7-19.5,16.6-19.5c8.8,0,12.6,7.1,12.6,14.4c0,0.4-0.1,0.8-0.1,1.3h-23.3
			c0.2,11.3,7.3,14.8,13.1,14.8c4,0,7.3-1.2,9.7-2.9l0.9,1.3C408.7,364.9,405.1,368.4,398.5,368.4z M397.4,334.6
			c-4.8,0-7.9,4.8-8.1,9.7h8.6l7.5-0.5C405.7,339,402.6,334.6,397.4,334.6z"/>
	</g>
</g>
<g id="Layer_2">
	<g>
		<path id="body_1_" class="st1" d="M255.6,198.9c7.2,27.5,89.3,76.6,87.5,83.9c-4.4,17.7-73.8-55.6-91.3-55
			c-45.5,1.5-84.4-11.6-98.1-39.4c-13.6-27.8,2.1-57.2,8.8-77.9c1.8-5.7,3.1-6.8,1.9-13.3c0.8-1.3-55.6-38.8-54.5-39.8
			c33.9,18.1,55.9,34.8,57.2,34c9.2-5.5,25.4-5.3,36.4,2.6c13.9,10,16.2,28.1,10.4,38.8C209.6,140.3,243.6,157.5,255.6,198.9z"/>
		<path id="back_1_" class="st2" d="M255.6,198.9c7.2,27.5,89.3,76.6,87.5,83.9c-4.4,17.7-74.6-54.6-90.6-55
			c-56.8-31.2-19.4-99.5-88.1-130.6c0.8-1.3-55.6-38.8-54.5-39.8c33.9,18.1,55.9,34.8,57.2,34c9.2-5.5,25.4-5.3,36.4,2.6
			c13.9,10,16.2,28.1,10.4,38.8C209.6,140.3,243.6,157.5,255.6,198.9z"/>
		<path id="feather_1_" class="st2" d="M264,146l-13.8,6c-1,0.5-2,0.4-2.5-0.6l0,0c-0.5-1-0.1-1.7,0.9-2.2l13.3-7.6
			c1-0.5,2.4,0.3,2.8,1.3l0,0C265.2,143.9,265,145.5,264,146z"/>
		<g id="wings_2_">
			<path class="st2" d="M244.1,104c-1.2,3.1-3.5,5.1-5.2,4.6c-1.7-0.6-2.2-3.6-1.3-6.8l27.9-89.1c1-3.2,4.5-4.8,7.8-3.7
				c3.3,1.2,5.1,4.6,3.9,7.7L244.1,104z"/>
			<path class="st2" d="M277.4,91.7c-1.4,2.1-3.1,3.7-4.7,4.7c-0.8,0.5-1.5,0.8-2.1,0.9c-0.7,0.1-1.3,0.1-1.7-0.2
				c-1.9-1.1-1.4-5.6,1.1-10l8.7-15.3c2.5-4.4,6.6-6.8,9.3-5.2c0.7,0.4,1.1,1,1.4,1.7c0.3,0.8,0.4,1.7,0.4,2.6
				c-0.1,1.9-0.9,4.2-2.4,6.3L277.4,91.7z"/>
			<path class="st2" d="M284.2,165.2c-1.4,0.1-2.7-0.3-3.7-0.8c-0.9-0.5-1.5-1.3-1.6-2.1c-0.1-1.7,2.1-3.3,4.8-3.6l9.8-1.1
				c2.8-0.3,5.2,1.1,5.4,3.2c0.1,1-0.4,2-1.3,2.8c-0.9,0.7-2.2,1.2-3.6,1.2L284.2,165.2z"/>
			<path class="st2" d="M287.8,183c-3.7-0.5-6.5-2.4-6.3-4.2c0.1-1.9,3.3-3.2,7-3l12.9,0.8c3.7,0.2,6.6,2.3,6.4,4.6
				s-3.4,3.8-7.1,3.4L287.8,183z"/>
			<path class="st2" d="M315.8,177.7c-2.8-0.2-5-2.3-4.9-4.6c0.1-1.2,0.6-2.2,1.6-3c0.9-0.8,2.2-1.3,3.6-1.3h9.8
				c1.4,0,2.7,0.5,3.6,1.4s1.5,2.1,1.4,3.5c-0.1,2.7-2.5,4.8-5.4,4.6L315.8,177.7z"/>
			<path class="st2" d="M279.7,60.4c-1.3,2.4-4.3,3.3-6.8,2.1c-0.6-0.3-1.2-0.7-1.6-1.2s-0.8-1-1-1.6c-0.5-1.2-0.5-2.5,0-3.8
				l14.3-33c0.5-1.2,1.7-2.1,3.1-2.4c0.7-0.2,1.5-0.2,2.3-0.1s1.7,0.4,2.5,0.8c3.4,1.7,5,5,3.7,7.4L279.7,60.4z"/>
			<path class="st2" d="M230.6,139.9c-1,2.5-2.7,4.3-3.8,3.9c-1.1-0.4-1.3-2.8-0.5-5.4l6.3-20c0.8-2.6,2.8-4.2,4.4-3.7
				c1.6,0.6,2.1,3.1,1.1,5.6L230.6,139.9z"/>
			<path class="st2" d="M252.7,107.6c-0.6,1.2-1.5,2.1-2.3,2.7c-0.9,0.5-1.8,0.7-2.6,0.4c-1.6-0.7-2.1-3.2-1.1-5.7l12.2-30
				c1-2.5,3.7-3.7,6.1-2.7c1.2,0.5,2,1.5,2.3,2.7c0.4,1.2,0.3,2.5-0.3,3.7L252.7,107.6z"/>
			<path class="st2" d="M319.9,193.7c-0.9-0.2-1.7-0.8-2.2-1.7s-0.7-2-0.6-3.2c0.4-2.4,2-4.2,3.9-4l30.4,3.3
				c1.8,0.2,3.2,2.8,2.7,5.7c-0.2,1.5-0.8,2.8-1.5,3.6c-0.8,0.9-1.7,1.3-2.6,1.2L319.9,193.7z"/>
			<path class="st2" d="M302.3,61.5c-1.7,2.3-5.1,2.7-7.7,0.9c-0.3-0.2-0.6-0.5-0.9-0.7s-0.5-0.5-0.7-0.8c-0.4-0.6-0.7-1.2-0.9-1.9
				c-0.4-1.3-0.3-2.7,0.5-4l10.6-17.6c0.7-1.2,2-1.9,3.6-2.1c0.8-0.1,1.6,0,2.4,0.2c0.4,0.1,0.8,0.2,1.3,0.4
				c0.4,0.2,0.8,0.4,1.2,0.7c3.2,2.2,4.4,5.9,2.7,8.2L302.3,61.5z"/>
			<path class="st2" d="M281.3,111.1c-1.7,1.7-4.1,2.2-5.2,1l-0.4-0.3c-0.6-0.6-0.8-1.4-0.8-2.4c0.1-0.9,0.5-2,1.3-2.9l44-52.5
				c0.8-0.9,2-1.3,3.4-1.2s2.9,0.7,4.1,1.9l0.8,0.7c2.5,2.4,3.2,5.8,1.4,7.5L281.3,111.1z"/>
			<path class="st2" d="M340.9,180.8c-2.8-0.2-4.9-2.6-4.8-5.4c0.1-1.4,0.7-2.6,1.6-3.5s2.2-1.5,3.6-1.5l8.6,0.1
				c2.8,0,5.1,2.6,5,5.7c-0.1,3.1-2.6,5.5-5.4,5.2L340.9,180.8z"/>
			<path class="st2" d="M319.2,164.1c-1.4,0-2.7-0.4-3.7-1.2s-1.6-1.8-1.7-3c-0.2-2.4,1.9-4.6,4.7-4.9l37.7-4.1
				c2.8-0.3,5.4,2.2,5.6,5.6c0.2,1.7-0.4,3.2-1.3,4.4c-0.9,1.1-2.1,1.8-3.6,1.9L319.2,164.1z"/>
			<path class="st2" d="M280.1,137.7c-1.2,0.5-2.4,0.8-3.3,0.7c-0.5,0-0.9-0.1-1.2-0.3c-0.3-0.1-0.6-0.4-0.8-0.6
				c-0.6-1.1,0.7-3.1,2.9-4.5l33.5-19.6c2.2-1.3,5.1-0.6,6.3,1.8c0.3,0.6,0.5,1.2,0.5,1.8c0,0.6-0.1,1.2-0.3,1.8
				c-0.4,1.1-1.3,2.1-2.5,2.6L280.1,137.7z"/>
			<path class="st2" d="M314.5,101.9c-2.3,1.6-5.5,1.2-7.1-0.9c-0.8-1.1-1.1-2.4-1-3.6c0.1-1.3,0.7-2.5,1.8-3.4l25-21.6
				c2.1-1.8,6-1.1,8.3,2c2.4,3.1,2.3,6.9,0,8.5L314.5,101.9z"/>
			<path class="st2" d="M282.3,124.8c-2.2,1.5-4.8,1.8-5.7,0.5c-0.9-1.3-0.1-3.6,1.9-5.3l9.9-8.6c2-1.8,4.9-1.9,6.2-0.1
				c1.3,1.8,0.6,4.4-1.6,5.9L282.3,124.8z"/>
			<path class="st2" d="M330.1,114.2c-1.3,0.6-2.6,0.5-3.9,0.1c-1.2-0.5-2.3-1.4-3-2.7c-1.4-2.6-0.6-5.8,1.7-7.2l19.4-11.5
				c2.4-1.4,5.8,0.1,7.7,3.6c0.9,1.7,1.2,3.5,0.9,5c-0.3,1.5-1.1,2.7-2.4,3.3L330.1,114.2z"/>
			<path class="st2" d="M251.4,173.1c-2.1-0.1-3.8-1.2-3.7-2.4c0-1.2,1.7-2.1,3.8-2.1l23.8-0.1c2.1,0,3.8,1.4,3.8,3.1
				c-0.1,1.8-1.8,3.1-3.9,3L251.4,173.1z"/>
			<path class="st2" d="M254.8,129c-1.6,2.1-3.7,3.3-4.6,2.7c-0.5-0.3-0.6-1.1-0.4-2c0.2-1,0.6-2.1,1.3-3.2l12.4-19.5
				c0.7-1.1,1.7-2,2.7-2.3c1-0.4,2-0.3,2.7,0.2c1.6,1.1,1.5,3.7-0.1,5.8L254.8,129z"/>
			<path class="st2" d="M257.9,136.8c-1,0.9-2,1.5-2.8,1.9s-1.4,0.4-1.8,0.2c-0.6-0.6,0.3-2.7,2.1-4.6l12.2-13.2
				c1.8-2,4.2-2.6,5.4-1.5c0.6,0.5,0.7,1.5,0.4,2.4c-0.3,1-1,2-2,2.9L257.9,136.8z"/>
			<path class="st2" d="M308.3,138.4c-2.7,0.8-5.4,0-5.9-1.8c-0.1-0.3-0.2-0.5-0.3-0.8c-0.7-1.7,0.9-4,3.6-5.1l44.1-17.6
				c2.6-1.1,5.7,0.5,6.8,3.5c0.2,0.5,0.3,0.9,0.5,1.4c1,3-0.5,6.1-3.2,6.9L308.3,138.4z"/>
			<path class="st2" d="M275.2,149.1c-2.7,0.7-5.1,0.4-5.5-0.7c-0.1-0.3,0-0.6,0.1-0.9c0.1-0.3,0.4-0.6,0.8-1
				c0.7-0.7,1.8-1.3,3.1-1.8l13.4-5c1.3-0.5,2.6-0.6,3.6-0.4c1.1,0.2,1.9,0.8,2.1,1.6c0.5,1.7-1.2,3.7-3.9,4.4L275.2,149.1z"/>
			<path class="st2" d="M328.8,147.8c-3.3,0.5-6.4-1.1-6.9-3.6c-0.2-1.3,0.2-2.5,1-3.6c0.9-1.1,2.2-2,3.9-2.4l26.4-6.5
				c1.6-0.4,3.3-0.1,4.6,0.8c1.3,0.9,2.4,2.3,2.7,4c0.6,3.4-1.6,6.6-4.9,7.1L328.8,147.8z"/>
			<path class="st2" d="M293.8,153.9c-1.7,0.2-3.3-1-3.6-2.8c-0.3-1.8,0.6-3.5,2.3-3.9l23.4-5.6c1.6-0.4,3.5,1.2,4,3.7
				s-0.5,4.7-2.3,4.9L293.8,153.9z"/>
			<path class="st2" d="M307.9,218.3c-2.9-1-4.3-3.3-3.7-5.3c0.6-2.1,3.1-3.2,5.6-2.5l26.7,7.3c2.5,0.7,4,3.3,3.2,5.9
				c-0.8,2.6-3.5,4-5.5,3.4L307.9,218.3z"/>
			<path class="st2" d="M321.9,208.7c-2.7-0.7-4.3-3.1-3.8-5.5s3.1-3.9,5.8-3.4l19.9,3.8c2.7,0.5,4.5,3.2,3.9,6s-3.4,4.5-6,3.9
				L321.9,208.7z"/>
			<path class="st2" d="M273.2,195.6c-2.2-0.5-3.7-2.4-3.3-4.1c0.3-1.7,2.4-2.8,4.7-2.4l31.1,5.7c2.2,0.4,3.7,2.6,3.2,4.9
				c-0.5,2.3-2.7,3.7-4.9,3.2L273.2,195.6z"/>
			<path class="st2" d="M273,207.1c-2.6-0.9-4.3-2.9-3.8-4.5c0.5-1.7,3-2.5,5.7-1.8l16.2,4.4c2.7,0.7,4.4,3,3.7,5.1
				c-0.6,2.1-3.3,3-5.9,2.1L273,207.1z"/>
			<path class="st2" d="M240.7,139.5c-0.9,1.5-1.8,2.7-2.6,3.5c-0.4,0.4-0.7,0.7-1.1,0.9c-0.4,0.2-0.7,0.2-0.9,0.1
				c-0.9-0.4-0.4-3.3,1.1-6.4l9.1-18.9c1.5-3.1,3.9-5,5.5-4.2c0.4,0.2,0.7,0.5,0.9,1c0.2,0.4,0.2,1,0.2,1.6
				c-0.1,1.3-0.6,2.8-1.5,4.2L240.7,139.5z"/>
			<path class="st2" d="M261.9,184.4c-1.3-0.2-2.4-0.7-3.2-1.3c-0.8-0.6-1.2-1.4-1.1-2.1c0.2-1.5,2.5-2.4,5.1-2.1l11.5,1.3
				c2.6,0.3,4.7,1.9,4.4,3.7c-0.2,1.8-2.6,2.9-5.2,2.4L261.9,184.4z"/>
			<path class="st2" d="M252.8,150.3c-1.2,0.6-2.4,0.9-3.2,1.1c-0.4,0.1-0.8,0.1-1,0.1c-0.3,0-0.5,0-0.5-0.1
				c-0.3-0.4,1.5-1.9,3.7-3.3l7.2-4.2c2.3-1.4,4.5-1.7,5-0.8c0.1,0.2,0.1,0.5,0,0.8s-0.4,0.7-0.7,1c-0.7,0.7-1.7,1.4-2.9,1.9
				L252.8,150.3z"/>
			<path class="st2" d="M259.1,160.6c-2.7,0.3-4.9-0.3-5-1.2c-0.2-0.9,1.8-2.1,4.4-2.7l7.5-1.5c2.6-0.6,4.9,0.1,5.2,1.4
				c0.2,1.3-1.8,2.8-4.4,3.1L259.1,160.6z"/>
		</g>
		<path class="st3" d="M183.7,260.3c-71.5,0-129.6-58.2-129.6-129.6S112.2,1,183.7,1c27.3,0,45.4,4.8,64.6,17.2
			c2,1.3,2.6,3.9,1.3,5.9s-3.9,2.6-5.9,1.3c-17.9-11.6-34.1-15.9-59.9-15.9C117,9.5,62.7,63.8,62.7,130.6S117,251.7,183.8,251.7
			c22.7,0,36.6-4.5,52.9-12.2c2.1-1,4.7-0.1,5.7,2s0.1,4.7-2,5.7C222.8,255.5,208,260.3,183.7,260.3z"/>
	</g>
</g>
</svg>
