<?xml version="1.0" encoding="utf-8"?>
<!-- Generator: Adobe Illustrator 25.2.1, SVG Export Plug-In . SVG Version: 6.00 Build 0)  -->
<svg version="1.1" id="Layer_1" xmlns="http://www.w3.org/2000/svg" xmlns:xlink="http://www.w3.org/1999/xlink" x="0px" y="0px"
	 viewBox="0 0 372.6 624.3" style="enable-background:new 0 0 372.6 624.3;" xml:space="preserve">
<style type="text/css">
	.st0{enable-background:new    ;}
	.st1{fill:#DABDA4;}
	.st2{fill:#ADADAD;}
	.st3{fill:#74A2B7;}
	.st4{fill:#A46A41;}
	.st5{fill:#444242;}
	.st6{fill:#B39B6F;}
	.st7{fill:#A98065;}
	.st8{fill:#71CCCC;}
	.st9{fill:#A6D2FE;}
	.st10{fill:#B38058;}
	.st11{fill:#68A3D8;}
	.st12{fill:#03036D;}
	.st13{fill:#FFEF7B;}
	.st14{fill:none;stroke:#000000;stroke-width:0.5;stroke-miterlimit:10;}
	.st15{font-family:'Roboto-Bold';}
	.st16{font-size:17px;}
	.st17{fill:#103480;}
	.st18{font-family:'Roboto-Regular';}
	.st19{font-size:12.0233px;}
	.st20{font-size:13.5262px;}
	.st21{fill:#E1E9F4;}
	.st22{fill:#FFFCBB;}
	.st23{fill:#FFF6CF;}
	.st24{fill:#D7FCFF;}
	.st25{fill:#D9FFE7;}
	.st26{fill:#FFE1C5;}
	.st27{fill:#F2DED1;}
	.st28{fill:#DDDDDD;}
	.st29{fill:#0A4F25;}
	.st30{fill:#C6955A;}
	.st31{fill:#3076BA;}
	.st32{fill:#D17028;}
	.st33{fill:#34A398;}
	.st34{fill:none;stroke:#000000;stroke-width:0.5;stroke-linecap:round;stroke-miterlimit:10;}
</style>
<g>
	<text transform="matrix(1 0 0 1 147.3992 14.6726)" class="st15 st16">Text color</text>
	<g>
		<rect x="23.3" y="28.4" class="st17" width="325.3" height="25.9"/>
		<text transform="matrix(1 0 0 1 162.0088 78.4445)" class="st18 st19">#103480</text>
	</g>
</g>
<g>
	<text transform="matrix(1 0 0 1 113.9 130.9123)" class="st15 st16">Background colors</text>
	<g>
		<text transform="matrix(1 0 0 1 128.2548 341.7021)"><tspan x="0" y="0" class="st15 st20">Sun</tspan><tspan x="-13.3" y="14.4" class="st18 st19">#FFFCBB</tspan></text>
		<text transform="matrix(1 0 0 1 306.0067 341.7021)"><tspan x="0" y="0" class="st15 st20">JWST</tspan><tspan x="-6.2" y="14.4" class="st18 st19">#FFF6CF</tspan></text>
		<text transform="matrix(1 0 0 1 193.3417 341.7021)"><tspan x="0" y="0" class="st15 st20">Astrobiology</tspan><tspan x="14" y="14.4" class="st18 st19">#D7FCFF</tspan></text>
		<g>
			<g>
				<g>
					<rect x="23.3" y="267.2" class="st21" width="48.8" height="48.8"/>
					<text transform="matrix(1 0 0 1 10.3378 341.7021)"><tspan x="0" y="0" class="st15 st20">Atmosphere</tspan><tspan x="13.4" y="14.4" class="st18 st19">#E1E9F4</tspan></text>
				</g>
				<rect x="115.6" y="267.2" class="st22" width="48.8" height="48.8"/>
				<rect x="299.7" y="267.2" class="st23" width="48.8" height="48.8"/>
				<rect x="207.9" y="267.2" class="st24" width="48.8" height="48.7"/>
			</g>
			<g>
				<g>
					<rect x="115.6" y="145.4" class="st25" width="48.8" height="48.8"/>
					<text transform="matrix(1 0 0 1 123.0009 219.851)"><tspan x="0" y="0" class="st15 st20">‘Alala</tspan><tspan x="-7.5" y="14.4" class="st18 st19">#D9FFE7</tspan></text>
				</g>
				<g>
					<rect x="207.9" y="145.4" class="st26" width="48.8" height="48.9"/>
					<text transform="matrix(1 0 0 1 207.4403 219.851)"><tspan x="0" y="0" class="st15 st20">Volcano</tspan><tspan x="0.4" y="14.4" class="st18 st19">#FFE1C5</tspan></text>
				</g>
				<g>
					<rect x="23.3" y="145.4" class="st27" width="48.8" height="48.8"/>
					<text transform="matrix(1 0 0 1 2.1513 219.851)"><tspan x="0" y="0" class="st15 st20">Hawaiian Birds</tspan><tspan x="20.5" y="14.4" class="st18 st19">#F2DED1</tspan></text>
				</g>
				<g>
					<rect x="299.7" y="145.4" class="st28" width="48.8" height="48.8"/>
					<text transform="matrix(1 0 0 1 301.7899 219.851)"><tspan x="0" y="0" class="st15 st20">Whales</tspan><tspan x="-5.1" y="14.4" class="st18 st19">#DDDDDD</tspan></text>
				</g>
			</g>
		</g>
	</g>
</g>
<g>
	<g>
		<text transform="matrix(1 0 0 1 141.1886 408.5976)" class="st15 st16">Logo colors</text>
		<g>
			<g>
				<rect x="251.4" y="423.1" class="st29" width="48.8" height="48.8"/>
				<text transform="matrix(1 0 0 1 251.2929 497.5364)" class="st18 st19">#0A4F25</text>
			</g>
			<g>
				<rect x="162.2" y="423.1" class="st30" width="48.8" height="48.8"/>
				<text transform="matrix(1 0 0 1 161.5224 497.5364)" class="st18 st19">#C6955A</text>
			</g>
			<g>
				<rect x="72.6" y="423.1" class="st31" width="48.8" height="48.8"/>
				<text transform="matrix(1 0 0 1 72.0917 497.5364)" class="st18 st19">#3076BA</text>
			</g>
			<g>
				<rect x="251.2" y="525.1" width="48.8" height="48.8"/>
				<text transform="matrix(1 0 0 1 251.6435 599.6218)" class="st18 st19">#000000</text>
			</g>
			<g>
				<rect x="72.4" y="525.1" class="st32" width="48.8" height="48.8"/>
				<text transform="matrix(1 0 0 1 72.2929 599.6218)" class="st18 st19">#D17028</text>
			</g>
			<g>
				<rect x="161.2" y="525.1" class="st33" width="48.8" height="48.8"/>
				<text transform="matrix(1 0 0 1 161.1044 599.6218)" class="st18 st19">#34A398</text>
			</g>
		</g>
	</g>
	<polyline class="st34" points="243.5,402.9 346.6,402.9 346.6,621.1 24.6,621.1 24.6,402.9 127.8,402.9 	"/>
</g>
</svg>
