<?xml version="1.0" encoding="utf-8"?>
<!-- Generator: Adobe Illustrator 24.0.3, SVG Export Plug-In . SVG Version: 6.00 Build 0)  -->
<svg version="1.1" id="Layer_1" xmlns="http://www.w3.org/2000/svg" xmlns:xlink="http://www.w3.org/1999/xlink" x="0px" y="0px"
	 viewBox="0 0 379 172" style="enable-background:new 0 0 379 172;" xml:space="preserve">
<style type="text/css">
	.st0{fill:#231F20;}
</style>
<g>
	<path class="st0" d="M1.6,51.4h3.5l4.1,11.9l4.2-11.9h3.3v14.4h-2v-13l-4.7,13H8.1L3.5,52.9v12.9H1.6V51.4z"/>
	<path class="st0" d="M25,65.9l-1.4,3.7h-1.9l1.5-3.8l-4.2-10H21l3.1,7.9l3.2-7.9h2L25,65.9z"/>
	<path class="st0" d="M38.6,61.6c0,1,0.2,2.9,3.5,2.9c3,0,3.4-1.9,3.4-2.6c0-1.6-1.3-1.9-3.3-2.4c-2.2-0.5-3.2-0.8-3.9-1.3
		c-1.2-0.8-1.5-1.9-1.5-2.8c0-2.9,2.8-4.2,5.5-4.2c1,0,2.9,0.2,4.1,1.4c0.8,0.9,0.8,1.9,0.9,2.5H45c-0.1-1.8-1.6-2.2-3-2.2
		c-2,0-3.2,0.9-3.2,2.3c0,1.3,0.8,1.7,2.6,2.1c3.4,0.9,3.8,1,4.7,1.5c1.3,0.9,1.4,2.3,1.4,2.9c0,2.6-2,4.5-5.7,4.5
		c-1.1,0-3.3-0.2-4.5-1.6c-0.8-1.1-0.8-2.2-0.8-2.9H38.6z"/>
	<path class="st0" d="M52.2,55.8v6.5c0,1,0.2,2.2,2.1,2.2c0.9,0,1.8-0.3,2.4-1.1c0.4-0.6,0.4-1.4,0.4-1.9v-5.7H59v8.2
		c0,0.2,0,1.3,0.1,1.9h-2l0-1.7c-0.4,0.7-1,1.8-3.2,1.8c-2.5,0-3.6-1.4-3.6-3.4v-6.7H52.2z"/>
	<path class="st0" d="M64.6,57.2c0.3-0.5,1-1.7,3.3-1.7c1,0,2.3,0.2,3.2,1.3c0.5,0.6,1.2,1.6,1.2,3.8c0,1.9-0.5,3-1,3.7
		c-0.8,1.1-2.1,1.7-3.5,1.7c-0.5,0-1.4-0.1-2.2-0.6c-0.6-0.4-0.8-0.7-1-1l0,1.5h-1.8l0-1.8V51.4h1.9V57.2z M67.4,56.8
		c-2.9,0-2.9,3.4-2.9,4c0,0.7,0,3.8,2.8,3.8c2.3,0,2.9-2.3,2.9-3.9C70.2,59.7,70,56.8,67.4,56.8z"/>
	<path class="st0" d="M74.9,51.4h1.9v5.9c0.6-1.1,1.9-1.7,3.3-1.7c1.1,0,2.6,0.4,3.2,1.6c0.2,0.4,0.3,0.9,0.3,2.3v6.3h-1.9v-5.9
		c0-0.9,0-2.8-2.2-2.8c-1.4,0-2.1,0.9-2.4,1.3c-0.3,0.6-0.3,1.5-0.3,2.1v5.3h-1.9V51.4z"/>
	<path class="st0" d="M88.3,61.1c0,2.1,0.8,3.6,2.9,3.6c1.2,0,2.2-0.6,2.4-2.1h1.9c-0.1,0.5-0.1,1.3-0.9,2.1
		c-0.4,0.5-1.4,1.3-3.5,1.3c-3.2,0-4.7-2-4.7-5.1c0-2,0.4-3.6,2-4.7c1-0.7,2.2-0.7,2.7-0.7c4.5,0,4.4,4,4.4,5.6H88.3z M93.6,59.8
		c0-1-0.2-3-2.5-3c-1.2,0-2.7,0.7-2.7,3H93.6z"/>
	<path class="st0" d="M104.4,65.8c-0.1-0.5-0.2-1-0.2-1.5c-0.9,1.7-2.3,1.8-3.1,1.8c-2.3,0-3.5-1.3-3.5-3c0-0.8,0.3-2.1,1.8-2.9
		c1.1-0.6,2.7-0.7,3.5-0.7c0.5,0,0.8,0,1.4,0.1c0-1.2,0-1.8-0.4-2.2c-0.4-0.5-1.2-0.7-1.7-0.7c-1.9,0-2,1.3-2,1.7h-1.9
		c0.1-0.5,0.1-1.2,0.7-1.9c0.8-0.8,2.2-1.1,3.2-1.1c1.5,0,3,0.5,3.6,1.5c0.3,0.6,0.3,1.1,0.3,1.5l-0.1,4.8c0,0.2,0,1.5,0.2,2.5
		H104.4z M103.1,60.9c-0.8,0-3.6,0-3.6,2c0,0.6,0.4,1.7,2.1,1.7c1,0,1.7-0.4,2.1-1.1c0.4-0.7,0.4-1.2,0.5-2.6
		C103.8,60.9,103.5,60.9,103.1,60.9z"/>
	<path class="st0" d="M116.3,51.4h1.9v12.8c0,0.2,0,1.1,0.1,1.6h-1.9l0-1.6c-0.2,0.3-0.4,0.7-0.9,1.1c-0.8,0.6-1.8,0.7-2.5,0.7
		c-1.3,0-4.3-0.7-4.3-5.1c0-3.8,2.2-5.5,4.5-5.5c2.2,0,2.9,1.3,3.1,1.7V51.4z M115.6,57.8c-0.4-0.5-1.1-1-2.2-1
		c-2.8,0-2.8,3.3-2.8,4c0,1.8,0.5,3.8,2.8,3.8c3,0,3-3.3,3-4C116.4,59.2,116,58.4,115.6,57.8z"/>
</g>
<g>
	<g>
		<path class="st0" d="M1.9,90.4h-1.9v-1.1h5.3v1.1H3.3v5.4H1.9V90.4z"/>
		<path class="st0" d="M5.9,89.3h1.3v2.6c0.2-0.2,0.5-0.7,1.3-0.7c0.7,0,1.1,0.3,1.3,0.6c0.2,0.2,0.3,0.6,0.3,1.2v2.8H8.9v-2.7
			c0-0.3,0-1-0.7-1c-0.4,0-0.9,0.2-0.9,0.9l0,2.8H5.9V89.3z"/>
		<path class="st0" d="M11.3,89.3h1.4v1.2h-1.4V89.3z M11.4,91.3h1.3v4.6h-1.3V91.3z"/>
		<path class="st0" d="M14.8,94.5c0,0.3,0.2,0.6,0.8,0.6c0.5,0,0.7-0.3,0.7-0.5c0-0.2-0.1-0.4-0.6-0.5l-0.8-0.2
			c-0.4-0.1-1.2-0.3-1.2-1.3c0-0.9,0.8-1.4,2-1.4c0.9,0,1.7,0.4,1.7,1.3h-1.2c0-0.5-0.4-0.5-0.6-0.5c-0.4,0-0.6,0.2-0.6,0.5
			c0,0.3,0.2,0.4,0.6,0.5l0.8,0.2c0.8,0.2,1.2,0.6,1.2,1.3c0,0.8-0.7,1.6-2.1,1.6c-0.6,0-1.1-0.1-1.6-0.6c-0.3-0.3-0.3-0.7-0.3-0.9
			H14.8z"/>
		<path class="st0" d="M20.8,89.3h1.4v1.2h-1.4V89.3z M20.9,91.3h1.3v4.6h-1.3V91.3z"/>
		<path class="st0" d="M24.3,94.5c0,0.3,0.2,0.6,0.8,0.6c0.5,0,0.7-0.3,0.7-0.5c0-0.2-0.1-0.4-0.6-0.5l-0.8-0.2
			c-0.4-0.1-1.2-0.3-1.2-1.3c0-0.9,0.8-1.4,2-1.4c0.9,0,1.7,0.4,1.7,1.3h-1.2c0-0.5-0.4-0.5-0.6-0.5c-0.4,0-0.6,0.2-0.6,0.5
			c0,0.3,0.2,0.4,0.6,0.5l0.8,0.2c0.8,0.2,1.2,0.6,1.2,1.3c0,0.8-0.7,1.6-2.1,1.6c-0.6,0-1.1-0.1-1.6-0.6c-0.3-0.3-0.3-0.7-0.3-0.9
			H24.3z"/>
		<path class="st0" d="M30.4,92.2c0-0.3,0-0.6,0-0.9h1.3l0,0.6c0.1-0.2,0.5-0.7,1.4-0.7c1,0,1.3,0.6,1.4,0.9c0.4-0.7,1-0.8,1.5-0.8
			c0.9,0,1.3,0.5,1.4,0.7c0.2,0.4,0.2,0.9,0.2,1.3v2.6h-1.3v-2.7c0-0.5-0.1-1-0.8-1c-0.8,0-0.8,0.7-0.8,1.4v2.3h-1.3v-2.7
			c0-0.4,0-1-0.7-1c-0.8,0-0.8,0.7-0.8,1v2.7h-1.3V92.2z"/>
		<path class="st0" d="M39.5,91.3l1,3.2l1-3.2h1.3l-1.7,4.5l-0.5,1.8h-1.3l0.6-1.7l-1.7-4.6H39.5z"/>
		<path class="st0" d="M46,89.4h1.3v2.5c0.5-0.6,1.1-0.6,1.3-0.6c1.1,0,2,0.9,2,2.4c0,1.7-1,2.3-1.9,2.3c-0.2,0-1,0-1.4-0.7
			c0,0.1,0,0.4,0,0.6H46V89.4z M48.3,92.1c-1,0-1,1.1-1,1.4c0,1,0.4,1.5,1,1.5c0.9,0,0.9-1.1,0.9-1.4C49.2,93.3,49.2,92.1,48.3,92.1
			z"/>
		<path class="st0" d="M53.7,91.2c1.6,0,2.4,1.1,2.4,2.4c0,1.3-0.7,2.4-2.4,2.4c-1.3,0-2.3-0.8-2.3-2.4
			C51.3,92.5,51.9,91.2,53.7,91.2z M53.7,95.1c0.6,0,1-0.4,1-1.6c0-0.6-0.1-1.4-1-1.4c-1,0-1,1.1-1,1.5C52.7,94.6,53,95.1,53.7,95.1
			z"/>
		<path class="st0" d="M60,89.3h1.3v5.8c0,0.3,0,0.6,0,0.7h-1.4l0-0.7c-0.1,0.2-0.2,0.3-0.5,0.5c-0.3,0.2-0.7,0.2-0.9,0.2
			c-1.2,0-1.9-0.8-1.9-2.3c0-1.5,0.8-2.4,2-2.4c0.8,0,1.2,0.5,1.3,0.6V89.3z M59,95.1c0.4,0,0.7-0.2,0.8-0.5
			c0.2-0.4,0.2-0.8,0.2-1.1c0-0.9-0.4-1.4-1-1.4c-0.9,0-1,1.1-1,1.5C58.1,94.4,58.4,95.1,59,95.1z"/>
		<path class="st0" d="M63.5,91.3l1,3.2l1-3.2h1.3l-1.7,4.5l-0.5,1.8h-1.3l0.6-1.7l-1.7-4.6H63.5z"/>
		<path class="st0" d="M72.4,92.9c0-0.2-0.1-0.8-0.6-0.8c-0.6,0-0.7,1-0.7,1.5c0,0.3,0,1.1,0.3,1.4c0.1,0.1,0.3,0.2,0.4,0.2
			c0.1,0,0.6-0.1,0.6-0.9h1.3c0,0.4-0.1,0.9-0.6,1.3c-0.3,0.3-0.7,0.4-1.3,0.4c-0.6,0-1.1-0.1-1.5-0.6c-0.4-0.5-0.6-1.1-0.6-1.8
			c0-2.1,1.5-2.4,2.1-2.4c0.8,0,1.8,0.5,1.9,1.7H72.4z"/>
		<path class="st0" d="M76.7,91.2c1.6,0,2.4,1.1,2.4,2.4c0,1.3-0.7,2.4-2.4,2.4c-1.3,0-2.3-0.8-2.3-2.4
			C74.3,92.5,74.9,91.2,76.7,91.2z M76.7,95.1c0.6,0,1-0.4,1-1.6c0-0.6-0.1-1.4-1-1.4c-1,0-1,1.1-1,1.5C75.7,94.6,76,95.1,76.7,95.1
			z"/>
		<path class="st0" d="M81.3,91.3l0,0.6c0.4-0.7,1.2-0.7,1.4-0.7c1.2,0,1.9,0.9,1.9,2.3c0,1.3-0.7,2.4-2,2.4c-0.8,0-1.2-0.4-1.3-0.6
			v2.3H80v-6.3H81.3z M83.3,93.5c0-0.5-0.1-1.5-0.9-1.5c-0.4,0-1,0.3-1,1.5c0,0.3,0,1.4,1,1.4C82.9,95,83.3,94.4,83.3,93.5z"/>
		<path class="st0" d="M86.4,91.3l1,3.2l1-3.2h1.3L88,95.8l-0.5,1.8h-1.3l0.6-1.7l-1.7-4.6H86.4z"/>
		<path class="st0" d="M89.6,94.6h1.1v1.2h-1.1V94.6z"/>
		<path class="st0" d="M94.3,89.3h1.4v6.5h-1.4V89.3z"/>
		<path class="st0" d="M100.2,94.5c0,0.3,0.2,0.6,0.8,0.6c0.5,0,0.7-0.3,0.7-0.5c0-0.2-0.1-0.4-0.6-0.5l-0.8-0.2
			c-0.4-0.1-1.2-0.3-1.2-1.3c0-0.9,0.8-1.4,2-1.4c0.9,0,1.7,0.4,1.7,1.3h-1.2c0-0.5-0.4-0.5-0.6-0.5c-0.4,0-0.6,0.2-0.6,0.5
			c0,0.3,0.2,0.4,0.6,0.5l0.8,0.2c0.8,0.2,1.2,0.6,1.2,1.3c0,0.8-0.7,1.6-2.1,1.6c-0.6,0-1.1-0.1-1.6-0.6C99,95.1,99,94.7,99,94.5
			H100.2z"/>
		<path class="st0" d="M106,91.2c1.6,0,2.4,1.1,2.4,2.4c0,1.3-0.7,2.4-2.4,2.4c-1.3,0-2.3-0.8-2.3-2.4
			C103.6,92.5,104.2,91.2,106,91.2z M106,95.1c0.6,0,1-0.4,1-1.6c0-0.6-0.1-1.4-1-1.4c-1,0-1,1.1-1,1.5
			C105,94.6,105.3,95.1,106,95.1z"/>
		<path class="st0" d="M109.3,92.2c0-0.3,0-0.6,0-0.9h1.3l0,0.6c0.1-0.2,0.5-0.7,1.4-0.7c1,0,1.3,0.6,1.4,0.9c0.4-0.7,1-0.8,1.5-0.8
			c0.9,0,1.3,0.5,1.4,0.7c0.2,0.4,0.2,0.9,0.2,1.3v2.6h-1.3v-2.7c0-0.5-0.1-1-0.8-1c-0.8,0-0.8,0.7-0.8,1.4v2.3h-1.3v-2.7
			c0-0.4,0-1-0.7-1c-0.8,0-0.8,0.7-0.8,1v2.7h-1.3V92.2z"/>
		<path class="st0" d="M118.9,93.9c0,0.3,0,1.2,0.9,1.2c0.3,0,0.7-0.1,0.8-0.6h1.2c0,0.2-0.1,0.6-0.4,1c-0.3,0.4-0.9,0.5-1.6,0.5
			c-0.4,0-1.1-0.1-1.6-0.6c-0.4-0.4-0.6-1-0.6-1.8c0-0.7,0.2-1.6,0.9-2.2c0.4-0.2,0.8-0.4,1.3-0.4c0.6,0,1.4,0.3,1.8,1.1
			c0.3,0.6,0.3,1.3,0.3,1.7H118.9z M120.6,93.1c0-0.2,0-1-0.8-1c-0.6,0-0.8,0.5-0.9,1H120.6z"/>
		<path class="st0" d="M125.5,95.8c-0.4,0.1-0.8,0.1-1,0.1c-1.3,0-1.3-0.8-1.3-1.2v-2.5h-0.9v-0.9h0.9v-0.9l1.3-0.5v1.4h1.1v0.9
			h-1.1v2.1c0,0.4,0,0.7,0.6,0.7c0.2,0,0.3,0,0.4,0V95.8z"/>
		<path class="st0" d="M126.3,89.3h1.4v1.2h-1.4V89.3z M126.3,91.3h1.3v4.6h-1.3V91.3z"/>
		<path class="st0" d="M128.8,92.2c0-0.3,0-0.6,0-0.9h1.3l0,0.6c0.1-0.2,0.5-0.7,1.4-0.7c1,0,1.3,0.6,1.4,0.9c0.4-0.7,1-0.8,1.5-0.8
			c0.9,0,1.3,0.5,1.4,0.7c0.2,0.4,0.2,0.9,0.2,1.3v2.6h-1.3v-2.7c0-0.5-0.1-1-0.8-1c-0.8,0-0.8,0.7-0.8,1.4v2.3h-1.3v-2.7
			c0-0.4,0-1-0.7-1c-0.8,0-0.8,0.7-0.8,1v2.7h-1.3V92.2z"/>
		<path class="st0" d="M138.4,93.9c0,0.3,0,1.2,0.9,1.2c0.3,0,0.7-0.1,0.8-0.6h1.2c0,0.2-0.1,0.6-0.4,1c-0.3,0.4-0.9,0.5-1.6,0.5
			c-0.4,0-1.1-0.1-1.6-0.6c-0.4-0.4-0.6-1-0.6-1.8c0-0.7,0.2-1.6,0.9-2.2c0.4-0.2,0.8-0.4,1.3-0.4c0.6,0,1.4,0.3,1.8,1.1
			c0.3,0.6,0.3,1.3,0.3,1.7H138.4z M140.1,93.1c0-0.2,0-1-0.8-1c-0.6,0-0.8,0.5-0.9,1H140.1z"/>
		<path class="st0" d="M143.2,94.5c0,0.3,0.2,0.6,0.8,0.6c0.5,0,0.7-0.3,0.7-0.5c0-0.2-0.1-0.4-0.6-0.5l-0.8-0.2
			c-0.4-0.1-1.2-0.3-1.2-1.3c0-0.9,0.8-1.4,2-1.4c0.9,0,1.7,0.4,1.7,1.3h-1.2c0-0.5-0.4-0.5-0.6-0.5c-0.4,0-0.6,0.2-0.6,0.5
			c0,0.3,0.2,0.4,0.6,0.5l0.8,0.2c0.8,0.2,1.2,0.6,1.2,1.3c0,0.8-0.7,1.6-2.1,1.6c-0.6,0-1.1-0.1-1.6-0.6c-0.3-0.3-0.3-0.7-0.3-0.9
			H143.2z"/>
		<path class="st0" d="M150.6,91.3V94c0,0.4,0,1,0.7,1c0.9,0,0.9-0.6,0.9-1.4v-2.3h1.4v3c0,1,0,1.1,0,1.2c0,0.1,0,0.2,0,0.3h-1.3
			l0-0.6c-0.1,0.2-0.5,0.7-1.3,0.7c-0.6,0-1.1-0.3-1.4-0.6c-0.3-0.4-0.3-1-0.3-1.2v-2.8H150.6z"/>
		<path class="st0" d="M155.7,94.5c0,0.3,0.2,0.6,0.8,0.6c0.5,0,0.7-0.3,0.7-0.5c0-0.2-0.1-0.4-0.6-0.5l-0.8-0.2
			c-0.4-0.1-1.2-0.3-1.2-1.3c0-0.9,0.8-1.4,2-1.4c0.9,0,1.7,0.4,1.7,1.3h-1.2c0-0.5-0.4-0.5-0.6-0.5c-0.4,0-0.6,0.2-0.6,0.5
			c0,0.3,0.2,0.4,0.6,0.5l0.8,0.2c0.8,0.2,1.2,0.6,1.2,1.3c0,0.8-0.7,1.6-2.1,1.6c-0.6,0-1.1-0.1-1.6-0.6c-0.3-0.3-0.3-0.7-0.3-0.9
			H155.7z"/>
		<path class="st0" d="M160.4,93.9c0,0.3,0,1.2,0.9,1.2c0.3,0,0.7-0.1,0.8-0.6h1.2c0,0.2-0.1,0.6-0.4,1c-0.3,0.4-0.9,0.5-1.6,0.5
			c-0.4,0-1.1-0.1-1.6-0.6c-0.4-0.4-0.6-1-0.6-1.8c0-0.7,0.2-1.6,0.9-2.2c0.4-0.2,0.8-0.4,1.3-0.4c0.6,0,1.4,0.3,1.8,1.1
			c0.3,0.6,0.3,1.3,0.3,1.7H160.4z M162.1,93.1c0-0.2,0-1-0.8-1c-0.6,0-0.8,0.5-0.9,1H162.1z"/>
		<path class="st0" d="M167.3,89.3h1.3v5.8c0,0.3,0,0.6,0,0.7h-1.4l0-0.7c-0.1,0.2-0.2,0.3-0.5,0.5c-0.3,0.2-0.7,0.2-0.9,0.2
			c-1.2,0-1.9-0.8-1.9-2.3c0-1.5,0.8-2.4,2-2.4c0.8,0,1.2,0.5,1.3,0.6V89.3z M166.3,95.1c0.4,0,0.7-0.2,0.8-0.5
			c0.2-0.4,0.2-0.8,0.2-1.1c0-0.9-0.4-1.4-1-1.4c-0.9,0-1,1.1-1,1.5C165.4,94.4,165.6,95.1,166.3,95.1z"/>
		<path class="st0" d="M172.3,89.4h1.3v2.5c0.5-0.6,1.1-0.6,1.3-0.6c1.1,0,2,0.9,2,2.4c0,1.7-1,2.3-1.9,2.3c-0.2,0-1,0-1.4-0.7
			c0,0.1,0,0.4,0,0.6h-1.3V89.4z M174.5,92.1c-1,0-1,1.1-1,1.4c0,1,0.4,1.5,1,1.5c0.9,0,0.9-1.1,0.9-1.4
			C175.5,93.3,175.5,92.1,174.5,92.1z"/>
		<path class="st0" d="M180,91.2c1.6,0,2.4,1.1,2.4,2.4c0,1.3-0.7,2.4-2.4,2.4c-1.3,0-2.3-0.8-2.3-2.4
			C177.6,92.5,178.2,91.2,180,91.2z M180,95.1c0.6,0,1-0.4,1-1.6c0-0.6-0.1-1.4-1-1.4c-1,0-1,1.1-1,1.5
			C179,94.6,179.3,95.1,180,95.1z"/>
		<path class="st0" d="M183.3,89.3h1.3v6.5h-1.3V89.3z"/>
		<path class="st0" d="M188.8,89.3h1.3v5.8c0,0.3,0,0.6,0,0.7h-1.4l0-0.7c-0.1,0.2-0.2,0.3-0.5,0.5c-0.3,0.2-0.7,0.2-0.9,0.2
			c-1.2,0-1.9-0.8-1.9-2.3c0-1.5,0.8-2.4,2-2.4c0.8,0,1.2,0.5,1.3,0.6V89.3z M187.8,95.1c0.4,0,0.7-0.2,0.8-0.5
			c0.2-0.4,0.2-0.8,0.2-1.1c0-0.9-0.4-1.4-1-1.4c-0.9,0-1,1.1-1,1.5C186.9,94.4,187.1,95.1,187.8,95.1z"/>
		<path class="st0" d="M193.9,92.2h-0.7v-0.9h0.7v-0.6c0-0.8,0.3-1.4,1.6-1.4c0.1,0,0.3,0,0.7,0v0.9c-0.1,0-0.2,0-0.3,0
			c-0.7,0-0.7,0.4-0.7,0.6v0.5h0.8v0.9h-0.8v3.6h-1.3V92.2z"/>
		<path class="st0" d="M198.8,91.2c1.6,0,2.4,1.1,2.4,2.4c0,1.3-0.7,2.4-2.4,2.4c-1.3,0-2.3-0.8-2.3-2.4
			C196.4,92.5,197,91.2,198.8,91.2z M198.8,95.1c0.6,0,1-0.4,1-1.6c0-0.6-0.1-1.4-1-1.4c-1,0-1,1.1-1,1.5
			C197.8,94.6,198.1,95.1,198.8,95.1z"/>
		<path class="st0" d="M202.1,92.4c0-0.2,0-0.9-0.1-1.1h1.3l0,0.9c0.2-0.4,0.5-0.9,1.5-0.9v1.2c-1.4-0.1-1.4,0.6-1.4,1.1v2.2h-1.3
			V92.4z"/>
	</g>
	<g>
		<path class="st0" d="M3.1,106.5c-0.4,0.1-0.8,0.1-1,0.1c-1.3,0-1.3-0.8-1.3-1.2V103h-0.9v-0.9h0.9v-0.9l1.3-0.5v1.4h1.1v0.9H2v2.1
			c0,0.4,0,0.7,0.6,0.7c0.2,0,0.3,0,0.5,0V106.5z"/>
		<path class="st0" d="M4.9,102l1,3.2l1-3.2h1.3l-1.7,4.5l-0.5,1.8H4.6l0.6-1.7L3.4,102H4.9z"/>
		<path class="st0" d="M10.1,102l0,0.6c0.4-0.7,1.2-0.7,1.4-0.7c1.2,0,1.9,0.9,1.9,2.3c0,1.3-0.7,2.4-2,2.4c-0.8,0-1.2-0.4-1.3-0.6
			v2.3H8.8V102H10.1z M12.1,104.3c0-0.5-0.1-1.5-0.9-1.5c-0.4,0-1,0.3-1,1.5c0,0.3,0,1.4,1,1.4C11.8,105.8,12.1,105.2,12.1,104.3z"
			/>
		<path class="st0" d="M16.5,101.9c1.6,0,2.4,1.1,2.4,2.4c0,1.3-0.7,2.4-2.4,2.4c-1.3,0-2.3-0.8-2.3-2.4
			C14.2,103.3,14.7,101.9,16.5,101.9z M16.6,105.8c0.6,0,1-0.4,1-1.6c0-0.6-0.1-1.4-1-1.4c-1,0-1,1.1-1,1.5
			C15.6,105.4,15.9,105.8,16.6,105.8z"/>
		<path class="st0" d="M24.2,102.1c0,0.4-0.1,0.7-0.1,1.1v3.4c0,1.7-1.4,1.8-2.3,1.8c-0.6,0-1.9-0.1-2-1.5h1.3
			c0,0.1,0.1,0.6,0.8,0.6c0.4,0,0.7-0.2,0.8-0.6c0.1-0.2,0.1-0.4,0.1-1.1c-0.4,0.6-0.9,0.6-1.2,0.6c-1.3,0-1.9-1.1-1.9-2.2
			c0-1.2,0.6-2.3,1.9-2.3c0.8,0,1.1,0.5,1.3,0.6l0-0.6H24.2z M21.9,105.6c0.9,0,0.9-1.1,0.9-1.3c0-0.5-0.1-1.4-0.9-1.4
			c-0.5,0-0.9,0.4-0.9,1.4C21,104.5,21,105.6,21.9,105.6z"/>
		<path class="st0" d="M25.4,103.2c0-0.2,0-0.9-0.1-1.1h1.3l0,0.9c0.2-0.4,0.5-0.9,1.5-0.9v1.2c-1.4-0.1-1.4,0.6-1.4,1.1v2.2h-1.3
			V103.2z"/>
		<path class="st0" d="M31.4,106.6c0-0.3,0-0.5,0-0.6c-0.5,0.7-1.1,0.7-1.4,0.7c-0.7,0-1-0.2-1.1-0.4c-0.3-0.3-0.4-0.6-0.4-1
			c0-0.4,0.1-1,1-1.4c0.6-0.3,1.4-0.3,1.8-0.3c0-0.3,0-0.4-0.1-0.6c-0.1-0.3-0.5-0.4-0.6-0.4c-0.2,0-0.4,0.1-0.5,0.3
			c-0.1,0.2-0.1,0.3-0.1,0.4h-1.3c0-0.2,0-0.7,0.5-1.1c0.4-0.3,0.9-0.4,1.4-0.4c0.4,0,1.2,0.1,1.6,0.6c0.3,0.4,0.3,0.9,0.3,1.1
			l0,1.8c0,0.4,0,0.8,0.1,1.2H31.4z M29.8,105.2c0,0.3,0.2,0.6,0.6,0.6c0.2,0,0.4-0.1,0.6-0.3c0.2-0.3,0.3-0.6,0.3-1.1
			C30.4,104.4,29.8,104.6,29.8,105.2z"/>
		<path class="st0" d="M35,102l0,0.6c0.4-0.7,1.2-0.7,1.4-0.7c1.2,0,1.9,0.9,1.9,2.3c0,1.3-0.7,2.4-2,2.4c-0.8,0-1.2-0.4-1.3-0.6
			v2.3h-1.4V102H35z M36.9,104.3c0-0.5-0.1-1.5-0.9-1.5c-0.4,0-1,0.3-1,1.5c0,0.3,0,1.4,1,1.4C36.6,105.8,36.9,105.2,36.9,104.3z"/>
		<path class="st0" d="M39.3,100.1h1.3v2.6c0.2-0.2,0.5-0.7,1.3-0.7c0.7,0,1.1,0.3,1.3,0.6c0.2,0.2,0.3,0.6,0.3,1.2v2.8h-1.3v-2.7
			c0-0.3,0-1-0.7-1c-0.4,0-0.9,0.2-0.9,0.9l0,2.8h-1.3V100.1z"/>
		<path class="st0" d="M44.7,100.1h1.4v1.2h-1.4V100.1z M44.7,102h1.3v4.6h-1.3V102z"/>
		<path class="st0" d="M49.6,103.7c0-0.2-0.1-0.8-0.6-0.8c-0.6,0-0.7,1-0.7,1.5c0,0.3,0,1.1,0.3,1.4c0.1,0.1,0.3,0.2,0.4,0.2
			c0.1,0,0.6-0.1,0.6-0.9H51c0,0.4-0.1,0.9-0.6,1.3c-0.3,0.3-0.7,0.4-1.3,0.4c-0.6,0-1.1-0.1-1.5-0.6c-0.4-0.5-0.6-1.1-0.6-1.8
			c0-2.1,1.5-2.4,2.1-2.4c0.8,0,1.8,0.5,1.9,1.7H49.6z"/>
		<path class="st0" d="M56.9,106.5c-0.4,0.1-0.8,0.1-1,0.1c-1.3,0-1.3-0.8-1.3-1.2V103h-0.9v-0.9h0.9v-0.9l1.3-0.5v1.4h1.1v0.9h-1.1
			v2.1c0,0.4,0,0.7,0.6,0.7c0.2,0,0.3,0,0.4,0V106.5z"/>
		<path class="st0" d="M58.6,104.7c0,0.3,0,1.2,0.9,1.2c0.3,0,0.7-0.1,0.8-0.6h1.2c0,0.2-0.1,0.6-0.4,1c-0.3,0.4-0.9,0.5-1.6,0.5
			c-0.4,0-1.1-0.1-1.6-0.6c-0.4-0.4-0.6-1-0.6-1.8c0-0.7,0.2-1.6,0.9-2.2c0.4-0.2,0.8-0.4,1.3-0.4c0.6,0,1.4,0.3,1.8,1.1
			c0.3,0.6,0.3,1.3,0.3,1.7H58.6z M60.3,103.8c0-0.2,0-1-0.8-1c-0.6,0-0.8,0.5-0.9,1H60.3z"/>
		<path class="st0" d="M63.7,102l0.9,1.5l0.9-1.5h1.4l-1.5,2.2l1.5,2.3h-1.6l-0.9-1.7l-0.9,1.7h-1.4l1.5-2.4l-1.5-2.1H63.7z"/>
		<path class="st0" d="M70.2,106.5c-0.4,0.1-0.8,0.1-1,0.1c-1.3,0-1.3-0.8-1.3-1.2V103H67v-0.9h0.9v-0.9l1.3-0.5v1.4h1.1v0.9h-1.1
			v2.1c0,0.4,0,0.7,0.6,0.7c0.2,0,0.3,0,0.4,0V106.5z"/>
		<path class="st0" d="M72.2,102v2.7c0,0.4,0,1,0.7,1c0.9,0,0.9-0.6,0.9-1.4V102h1.4v3c0,1,0,1.1,0,1.2c0,0.1,0,0.2,0,0.3h-1.3
			l0-0.6c-0.1,0.2-0.5,0.7-1.3,0.7c-0.6,0-1.1-0.3-1.4-0.6c-0.3-0.4-0.3-1-0.3-1.2V102H72.2z"/>
		<path class="st0" d="M76.4,103.2c0-0.2,0-0.9-0.1-1.1h1.3l0,0.9c0.2-0.4,0.5-0.9,1.5-0.9v1.2c-1.4-0.1-1.4,0.6-1.4,1.1v2.2h-1.3
			V103.2z"/>
		<path class="st0" d="M80.7,104.7c0,0.3,0,1.2,0.9,1.2c0.3,0,0.7-0.1,0.8-0.6h1.2c0,0.2-0.1,0.6-0.4,1c-0.3,0.4-0.9,0.5-1.6,0.5
			c-0.4,0-1.1-0.1-1.6-0.6c-0.4-0.4-0.6-1-0.6-1.8c0-0.7,0.2-1.6,0.9-2.2c0.4-0.2,0.8-0.4,1.3-0.4c0.6,0,1.4,0.3,1.8,1.1
			c0.3,0.6,0.3,1.3,0.3,1.7H80.7z M82.4,103.8c0-0.2,0-1-0.8-1c-0.6,0-0.8,0.5-0.9,1H82.4z"/>
		<path class="st0" d="M89.9,106.6c0-0.3,0-0.5,0-0.6c-0.5,0.7-1.1,0.7-1.4,0.7c-0.7,0-1-0.2-1.1-0.4c-0.3-0.3-0.4-0.6-0.4-1
			c0-0.4,0.1-1,1-1.4c0.6-0.3,1.4-0.3,1.8-0.3c0-0.3,0-0.4-0.1-0.6c-0.1-0.3-0.5-0.4-0.6-0.4c-0.2,0-0.4,0.1-0.5,0.3
			c-0.1,0.2-0.1,0.3-0.1,0.4h-1.3c0-0.2,0-0.7,0.5-1.1c0.4-0.3,0.9-0.4,1.4-0.4c0.4,0,1.2,0.1,1.6,0.6c0.3,0.4,0.3,0.9,0.3,1.1
			l0,1.8c0,0.4,0,0.8,0.1,1.2H89.9z M88.3,105.2c0,0.3,0.2,0.6,0.6,0.6c0.2,0,0.4-0.1,0.6-0.3c0.2-0.3,0.3-0.6,0.3-1.1
			C88.9,104.4,88.3,104.6,88.3,105.2z"/>
		<path class="st0" d="M92.2,102.9c0,0,0-0.5,0-0.8h1.3l0,0.7c0.1-0.2,0.5-0.8,1.5-0.8c0.9,0,1.3,0.5,1.4,0.9
			c0.1,0.3,0.1,0.5,0.1,1.4v2.5h-1.4v-2.8c0-0.2,0-0.4-0.1-0.5c-0.1-0.2-0.3-0.4-0.6-0.4c-0.3,0-0.5,0.1-0.7,0.4
			c-0.1,0.1-0.2,0.3-0.2,0.7v2.7h-1.3V102.9z"/>
		<path class="st0" d="M100.7,100.1h1.3v5.8c0,0.3,0,0.6,0,0.7h-1.4l0-0.7c-0.1,0.2-0.2,0.3-0.5,0.5c-0.3,0.2-0.7,0.2-0.9,0.2
			c-1.2,0-1.9-0.8-1.9-2.3c0-1.5,0.8-2.4,2-2.4c0.8,0,1.2,0.5,1.3,0.6V100.1z M99.7,105.8c0.4,0,0.7-0.2,0.8-0.5
			c0.2-0.4,0.2-0.8,0.2-1.1c0-0.9-0.4-1.4-1-1.4c-0.9,0-1,1.1-1,1.5C98.7,105.1,99,105.8,99.7,105.8z"/>
		<path class="st0" d="M105.7,100.1h1.3v2.6c0.2-0.2,0.5-0.7,1.3-0.7c0.7,0,1.1,0.3,1.3,0.6c0.2,0.2,0.3,0.6,0.3,1.2v2.8h-1.3v-2.7
			c0-0.3,0-1-0.7-1c-0.4,0-0.9,0.2-0.9,0.9l0,2.8h-1.3V100.1z"/>
		<path class="st0" d="M112.2,104.7c0,0.3,0,1.2,0.9,1.2c0.3,0,0.7-0.1,0.8-0.6h1.2c0,0.2-0.1,0.6-0.4,1c-0.3,0.4-0.9,0.5-1.6,0.5
			c-0.4,0-1.1-0.1-1.6-0.6c-0.4-0.4-0.6-1-0.6-1.8c0-0.7,0.2-1.6,0.9-2.2c0.4-0.2,0.8-0.4,1.3-0.4c0.6,0,1.4,0.3,1.8,1.1
			c0.3,0.6,0.3,1.3,0.3,1.7H112.2z M113.9,103.8c0-0.2,0-1-0.8-1c-0.6,0-0.8,0.5-0.9,1H113.9z"/>
		<path class="st0" d="M116.1,100.1h1.4v1.2h-1.4V100.1z M116.2,102h1.3v4.6h-1.3V102z"/>
		<path class="st0" d="M118.7,103.2c0-0.2,0-0.9-0.1-1.1h1.3l0,0.9c0.2-0.4,0.5-0.9,1.5-0.9v1.2c-1.4-0.1-1.4,0.6-1.4,1.1v2.2h-1.3
			V103.2z"/>
		<path class="st0" d="M124.7,106.6c0-0.3,0-0.5,0-0.6c-0.5,0.7-1.1,0.7-1.4,0.7c-0.7,0-1-0.2-1.1-0.4c-0.3-0.3-0.4-0.6-0.4-1
			c0-0.4,0.1-1,1-1.4c0.6-0.3,1.4-0.3,1.8-0.3c0-0.3,0-0.4-0.1-0.6c-0.1-0.3-0.5-0.4-0.6-0.4c-0.2,0-0.4,0.1-0.5,0.3
			c-0.1,0.2-0.1,0.3-0.1,0.4H122c0-0.2,0-0.7,0.5-1.1c0.4-0.3,0.9-0.4,1.4-0.4c0.4,0,1.2,0.1,1.6,0.6c0.3,0.4,0.3,0.9,0.3,1.1l0,1.8
			c0,0.4,0,0.8,0.1,1.2H124.7z M123.1,105.2c0,0.3,0.2,0.6,0.6,0.6c0.2,0,0.4-0.1,0.6-0.3c0.2-0.3,0.3-0.6,0.3-1.1
			C123.7,104.4,123.1,104.6,123.1,105.2z"/>
		<path class="st0" d="M127,103.2c0-0.2,0-0.9-0.1-1.1h1.3l0,0.9c0.2-0.4,0.5-0.9,1.5-0.9v1.2c-1.4-0.1-1.4,0.6-1.4,1.1v2.2H127
			V103.2z"/>
		<path class="st0" d="M132.7,103.7c0-0.2-0.1-0.8-0.6-0.8c-0.6,0-0.7,1-0.7,1.5c0,0.3,0,1.1,0.3,1.4c0.1,0.1,0.3,0.2,0.4,0.2
			c0.1,0,0.6-0.1,0.6-0.9h1.3c0,0.4-0.1,0.9-0.6,1.3c-0.3,0.3-0.7,0.4-1.3,0.4c-0.6,0-1.1-0.1-1.5-0.6c-0.4-0.5-0.6-1.1-0.6-1.8
			c0-2.1,1.5-2.4,2.1-2.4c0.8,0,1.8,0.5,1.9,1.7H132.7z"/>
		<path class="st0" d="M134.7,100.1h1.3v2.6c0.2-0.2,0.5-0.7,1.3-0.7c0.7,0,1.1,0.3,1.3,0.6c0.2,0.2,0.3,0.6,0.3,1.2v2.8h-1.3v-2.7
			c0-0.3,0-1-0.7-1c-0.4,0-0.9,0.2-0.9,0.9l0,2.8h-1.3V100.1z"/>
		<path class="st0" d="M140.8,102l1,3.2l1-3.2h1.3l-1.7,4.5l-0.5,1.8h-1.3l0.6-1.7l-1.7-4.6H140.8z"/>
		<path class="st0" d="M147.3,100.1h1.3v6.5h-1.3V100.1z"/>
		<path class="st0" d="M149.8,100.1h1.4v1.2h-1.4V100.1z M149.8,102h1.3v4.6h-1.3V102z"/>
		<path class="st0" d="M152.3,100.1h1.3v3.8l1.4-1.9h1.5l-1.6,2l1.7,2.6h-1.6l-1.4-2.5v2.5h-1.3V100.1z"/>
		<path class="st0" d="M158.1,104.7c0,0.3,0,1.2,0.9,1.2c0.3,0,0.7-0.1,0.8-0.6h1.2c0,0.2-0.1,0.6-0.4,1c-0.3,0.4-0.9,0.5-1.6,0.5
			c-0.4,0-1.1-0.1-1.6-0.6c-0.4-0.4-0.6-1-0.6-1.8c0-0.7,0.2-1.6,0.9-2.2c0.4-0.2,0.8-0.4,1.3-0.4c0.6,0,1.4,0.3,1.8,1.1
			c0.3,0.6,0.3,1.3,0.3,1.7H158.1z M159.8,103.8c0-0.2,0-1-0.8-1c-0.6,0-0.8,0.5-0.9,1H159.8z"/>
		<path class="st0" d="M167.2,106.5c-0.4,0.1-0.8,0.1-1,0.1c-1.3,0-1.3-0.8-1.3-1.2V103H164v-0.9h0.9v-0.9l1.3-0.5v1.4h1.1v0.9h-1.1
			v2.1c0,0.4,0,0.7,0.6,0.7c0.2,0,0.3,0,0.5,0V106.5z"/>
		<path class="st0" d="M168.1,100.1h1.3v2.6c0.2-0.2,0.5-0.7,1.3-0.7c0.7,0,1.1,0.3,1.3,0.6c0.2,0.2,0.3,0.6,0.3,1.2v2.8H171v-2.7
			c0-0.3,0-1-0.7-1c-0.4,0-0.9,0.2-0.9,0.9l0,2.8h-1.3V100.1z"/>
		<path class="st0" d="M173.5,100.1h1.4v1.2h-1.4V100.1z M173.5,102h1.3v4.6h-1.3V102z"/>
		<path class="st0" d="M177,105.3c0,0.3,0.2,0.6,0.8,0.6c0.5,0,0.7-0.3,0.7-0.5c0-0.2-0.1-0.4-0.6-0.5l-0.8-0.2
			c-0.4-0.1-1.2-0.3-1.2-1.3c0-0.9,0.8-1.4,2-1.4c0.9,0,1.7,0.4,1.7,1.3h-1.2c0-0.5-0.4-0.5-0.6-0.5c-0.4,0-0.6,0.2-0.6,0.5
			c0,0.3,0.2,0.4,0.6,0.5l0.8,0.2c0.8,0.2,1.2,0.6,1.2,1.3c0,0.8-0.7,1.6-2.1,1.6c-0.6,0-1.1-0.1-1.6-0.6c-0.3-0.3-0.3-0.7-0.3-0.9
			H177z"/>
		<path class="st0" d="M180.6,105.4h1.1v1.2h-1.1V105.4z"/>
	</g>
	<g>
		<path class="st0" d="M0.6,119.8h1.6l1.8,5.4l1.9-5.4h1.5v6.5H6.5v-5.9l-2.1,5.9H3.5l-2.1-5.8v5.8H0.6V119.8z"/>
		<path class="st0" d="M11.1,121.7c1.8,0,2.2,1.4,2.2,2.4c0,1.3-0.7,2.4-2.3,2.4c-1.5,0-2.2-1-2.2-2.4C8.8,123,9.3,121.7,11.1,121.7
			z M11,125.9c0.6,0,1.4-0.5,1.4-1.8c0-1.1-0.5-1.7-1.3-1.7c-0.5,0-1.4,0.3-1.4,1.8C9.6,125,10,125.9,11,125.9z"/>
		<path class="st0" d="M15.1,125c0,0.3,0.2,0.8,1,0.8c0.4,0,0.6-0.1,0.8-0.3c0.1-0.1,0.1-0.3,0.1-0.4c0-0.4-0.3-0.5-1-0.7
			c-0.9-0.2-1.7-0.4-1.7-1.4c0-0.8,0.7-1.4,1.8-1.4c0.6,0,1.4,0.2,1.6,0.7c0.1,0.3,0.1,0.5,0.1,0.7h-0.9c0-0.7-0.6-0.7-0.9-0.7
			c-0.1,0-0.9,0-0.9,0.6c0,0.4,0.4,0.5,0.6,0.6c1.3,0.3,1.5,0.4,1.8,0.6c0.3,0.2,0.3,0.5,0.3,0.8c0,0.5-0.3,0.9-0.6,1.1
			c-0.4,0.2-0.9,0.3-1.3,0.3c-0.9,0-1.8-0.4-1.8-1.5H15.1z"/>
		<path class="st0" d="M18.4,121.8h0.8v-0.9l0.8-0.3v1.2h1v0.6h-1v2.7c0,0.2,0,0.6,0.6,0.6c0.2,0,0.3,0,0.4,0v0.7
			c-0.2,0-0.4,0.1-0.7,0.1c-0.8,0-1.1-0.2-1.1-1v-3h-0.8V121.8z"/>
		<path class="st0" d="M26.5,121.7c1.8,0,2.2,1.4,2.2,2.4c0,1.3-0.7,2.4-2.3,2.4c-1.5,0-2.2-1-2.2-2.4
			C24.3,123,24.8,121.7,26.5,121.7z M26.5,125.9c0.6,0,1.4-0.5,1.4-1.8c0-1.1-0.5-1.7-1.3-1.7c-0.5,0-1.4,0.3-1.4,1.8
			C25.1,125,25.5,125.9,26.5,125.9z"/>
		<path class="st0" d="M32.3,120.5c-0.1,0-0.3,0-0.5,0c-0.7,0-0.7,0.3-0.7,0.7v0.7h1.1v0.6h-1.1v3.9h-0.8v-3.9h-0.9v-0.6h0.9v-0.5
			c0-0.6,0-0.8,0.2-1.1c0.2-0.3,0.5-0.5,1.1-0.5c0.2,0,0.5,0,0.7,0.1V120.5z"/>
		<path class="st0" d="M35.6,122.4l0-0.6h0.9v0.7c0.4-0.7,1-0.8,1.4-0.8c1,0,1.3,0.5,1.5,0.8c0.2-0.3,0.5-0.8,1.5-0.8
			c0.6,0,1.7,0.3,1.7,1.6v3h-0.9v-2.9c0-0.4-0.1-0.6-0.2-0.7c-0.1-0.2-0.4-0.4-0.9-0.4c-0.5,0-0.8,0.3-1,0.5c-0.2,0.3-0.2,0.8-0.2,1
			v2.5h-0.9v-3c0-0.6-0.3-1-1-1c-0.6,0-0.9,0.4-1,0.5c-0.2,0.3-0.2,0.6-0.2,0.9v2.6h-0.9V122.4z"/>
		<path class="st0" d="M45.9,126.4l-0.6,1.7h-0.9l0.7-1.7l-1.9-4.5h1l1.4,3.6l1.4-3.6H48L45.9,126.4z"/>
		<path class="st0" d="M52.3,122.5c0.1-0.2,0.5-0.8,1.5-0.8c0.5,0,1,0.1,1.4,0.6c0.2,0.3,0.5,0.7,0.5,1.7c0,0.9-0.2,1.3-0.4,1.6
			c-0.4,0.5-1,0.8-1.6,0.8c-0.2,0-0.6,0-1-0.3c-0.3-0.2-0.4-0.3-0.4-0.5l0,0.7h-0.8l0-0.8v-5.7h0.8V122.5z M53.5,122.3
			c-1.3,0-1.3,1.5-1.3,1.8c0,0.3,0,1.7,1.3,1.7c1,0,1.3-1,1.3-1.8C54.8,123.6,54.7,122.3,53.5,122.3z"/>
		<path class="st0" d="M58.9,121.7c1.8,0,2.2,1.4,2.2,2.4c0,1.3-0.7,2.4-2.3,2.4c-1.5,0-2.2-1-2.2-2.4
			C56.6,123,57.1,121.7,58.9,121.7z M58.8,125.9c0.6,0,1.4-0.5,1.4-1.8c0-1.1-0.5-1.7-1.3-1.7c-0.5,0-1.4,0.3-1.4,1.8
			C57.5,125,57.9,125.9,58.8,125.9z"/>
		<path class="st0" d="M65.5,119.8h0.8v5.8c0,0.1,0,0.5,0,0.7h-0.8l0-0.7c-0.1,0.1-0.2,0.3-0.4,0.5c-0.4,0.3-0.8,0.3-1.1,0.3
			c-0.6,0-1.9-0.3-1.9-2.3c0-1.7,1-2.5,2-2.5c1,0,1.3,0.6,1.4,0.8V119.8z M65.2,122.8c-0.2-0.2-0.5-0.5-1-0.5
			c-1.2,0-1.2,1.5-1.2,1.8c0,0.8,0.2,1.7,1.2,1.7c1.3,0,1.3-1.5,1.3-1.8C65.6,123.4,65.4,123,65.2,122.8z"/>
		<path class="st0" d="M69.9,126.4l-0.6,1.7h-0.9l0.7-1.7l-1.9-4.5h1l1.4,3.6l1.4-3.6H72L69.9,126.4z"/>
		<path class="st0" d="M78,123.3c0-0.2-0.1-0.9-0.9-0.9c-1.2,0-1.2,1.4-1.2,1.7c0,0.9,0.2,1.8,1.1,1.8c0.7,0,1-0.5,1-1h0.9
			c-0.1,0.9-0.7,1.6-1.8,1.6c-0.3,0-1-0.1-1.5-0.6c-0.3-0.3-0.5-0.8-0.5-1.7c0-1.9,1.2-2.4,2.1-2.4c0.3,0,1,0.1,1.4,0.6
			c0.3,0.4,0.4,0.8,0.4,1H78z"/>
		<path class="st0" d="M81.9,121.7c1.8,0,2.2,1.4,2.2,2.4c0,1.3-0.7,2.4-2.3,2.4c-1.5,0-2.2-1-2.2-2.4
			C79.6,123,80.1,121.7,81.9,121.7z M81.8,125.9c0.6,0,1.4-0.5,1.4-1.8c0-1.1-0.5-1.7-1.3-1.7c-0.5,0-1.4,0.3-1.4,1.8
			C80.5,125,80.9,125.9,81.8,125.9z"/>
		<path class="st0" d="M85.4,122.6c0-0.2,0-0.3,0-0.7h0.9l0,0.7c0.4-0.7,1.2-0.8,1.5-0.8c1,0,1.9,0.7,1.9,2.3c0,1.7-1,2.4-2.1,2.4
			c-0.7,0-1.1-0.3-1.4-0.7v2.2h-0.8V122.6z M87.5,125.9c0.2,0,0.7,0,1-0.4c0.3-0.4,0.4-1.1,0.4-1.4c0-0.8-0.2-1.7-1.2-1.7
			c-1.4,0-1.4,1.4-1.4,1.8C86.2,124.8,86.3,125.9,87.5,125.9z"/>
		<path class="st0" d="M93,126.4l-0.6,1.7h-0.9l0.7-1.7l-1.9-4.5h1l1.4,3.6l1.4-3.6H95L93,126.4z"/>
		<path class="st0" d="M98.3,119.9h1v0.9h-1V119.9z M98.4,121.8h0.8v4.5h-0.8V121.8z"/>
		<path class="st0" d="M101.4,125c0,0.3,0.2,0.8,1,0.8c0.4,0,0.6-0.1,0.8-0.3c0.1-0.1,0.1-0.3,0.1-0.4c0-0.4-0.3-0.5-1-0.7
			c-0.9-0.2-1.7-0.4-1.7-1.4c0-0.8,0.7-1.4,1.8-1.4c0.6,0,1.4,0.2,1.6,0.7c0.1,0.3,0.1,0.5,0.1,0.7h-0.9c0-0.7-0.6-0.7-0.9-0.7
			c-0.1,0-0.9,0-0.9,0.6c0,0.4,0.4,0.5,0.6,0.6c1.3,0.3,1.5,0.4,1.8,0.6c0.3,0.2,0.3,0.5,0.3,0.8c0,0.5-0.3,0.9-0.6,1.1
			c-0.4,0.2-0.9,0.3-1.3,0.3c-0.9,0-1.8-0.4-1.8-1.5H101.4z"/>
		<path class="st0" d="M108.2,121.8l1.1,3.6l1.1-3.6h1.1l1,3.6l1.1-3.6h0.9l-1.6,4.5h-1l-1.1-3.7l-1.2,3.7h-1l-1.5-4.5H108.2z"/>
		<path class="st0" d="M115.5,122.7c0-0.3,0-0.6,0-0.9h0.9l0,0.9c0.2-0.6,0.7-0.8,1.1-0.9c0.3,0,0.4,0,0.6,0v0.8c0,0-0.1,0-0.2,0
			c-0.1,0-0.1,0-0.2,0c-1,0-1.2,0.6-1.2,1.4v2.4h-0.9V122.7z"/>
		<path class="st0" d="M118.8,119.9h1v0.9h-1V119.9z M118.9,121.8h0.8v4.5h-0.8V121.8z"/>
		<path class="st0" d="M120.7,121.8h0.8v-0.9l0.8-0.3v1.2h1v0.6h-1v2.7c0,0.2,0,0.6,0.6,0.6c0.2,0,0.3,0,0.4,0v0.7
			c-0.2,0-0.4,0.1-0.7,0.1c-0.8,0-1.1-0.2-1.1-1v-3h-0.8V121.8z"/>
		<path class="st0" d="M123.5,121.8h0.8v-0.9l0.8-0.3v1.2h1v0.6h-1v2.7c0,0.2,0,0.6,0.6,0.6c0.2,0,0.3,0,0.4,0v0.7
			c-0.2,0-0.4,0.1-0.7,0.1c-0.8,0-1.1-0.2-1.1-1v-3h-0.8V121.8z"/>
		<path class="st0" d="M127.7,124.2c0,0.9,0.4,1.6,1.3,1.6c0.5,0,1-0.3,1.1-0.9h0.8c0,0.2-0.1,0.6-0.4,0.9c-0.2,0.2-0.6,0.6-1.6,0.6
			c-1.4,0-2.1-0.9-2.1-2.3c0-0.9,0.2-1.6,0.9-2.1c0.4-0.3,1-0.3,1.2-0.3c2,0,2,1.8,2,2.5H127.7z M130.1,123.6c0-0.4-0.1-1.3-1.1-1.3
			c-0.5,0-1.2,0.3-1.2,1.3H130.1z"/>
		<path class="st0" d="M132.2,122.3l0-0.5h0.8l0,0.7c0.1-0.2,0.4-0.8,1.4-0.8c0.4,0,1.6,0.2,1.6,1.5v3.1h-0.9v-2.9
			c0-0.3,0-0.6-0.2-0.8c-0.2-0.2-0.5-0.3-0.8-0.3c-0.6,0-1.2,0.4-1.2,1.4v2.6h-0.8V122.3z"/>
		<path class="st0" d="M140.2,119.8h0.8v6.5h-0.8V119.8z"/>
		<path class="st0" d="M142.6,119.9h1v0.9h-1V119.9z M142.7,121.8h0.8v4.5h-0.8V121.8z"/>
		<path class="st0" d="M145.1,119.8h0.8v3.9l1.7-1.8h1.1l-1.9,1.9l2,2.6h-1.1l-1.8-2.4v2.4h-0.8V119.8z"/>
		<path class="st0" d="M150.4,124.2c0,0.9,0.4,1.6,1.3,1.6c0.5,0,1-0.3,1.1-0.9h0.8c0,0.2-0.1,0.6-0.4,0.9c-0.2,0.2-0.6,0.6-1.6,0.6
			c-1.4,0-2.1-0.9-2.1-2.3c0-0.9,0.2-1.6,0.9-2.1c0.4-0.3,1-0.3,1.2-0.3c2,0,2,1.8,2,2.5H150.4z M152.8,123.6c0-0.4-0.1-1.3-1.1-1.3
			c-0.5,0-1.2,0.3-1.2,1.3H152.8z"/>
		<path class="st0" d="M156.7,121.8h0.8v-0.9l0.8-0.3v1.2h1v0.6h-1v2.7c0,0.2,0,0.6,0.6,0.6c0.2,0,0.3,0,0.4,0v0.7
			c-0.2,0-0.4,0.1-0.7,0.1c-0.8,0-1.1-0.2-1.1-1v-3h-0.8V121.8z"/>
		<path class="st0" d="M160.4,119.8h0.9v2.6c0.3-0.5,0.8-0.7,1.5-0.7c0.5,0,1.2,0.2,1.4,0.7c0.1,0.2,0.2,0.4,0.2,1.1v2.8h-0.9v-2.7
			c0-0.4,0-1.3-1-1.3c-0.6,0-0.9,0.4-1.1,0.6c-0.1,0.3-0.1,0.7-0.1,1v2.4h-0.9V119.8z"/>
		<path class="st0" d="M165.8,119.9h1v0.9h-1V119.9z M165.9,121.8h0.8v4.5h-0.8V121.8z"/>
		<path class="st0" d="M168.9,125c0,0.3,0.2,0.8,1,0.8c0.4,0,0.6-0.1,0.8-0.3c0.1-0.1,0.1-0.3,0.1-0.4c0-0.4-0.3-0.5-1-0.7
			c-0.9-0.2-1.7-0.4-1.7-1.4c0-0.8,0.7-1.4,1.8-1.4c0.6,0,1.4,0.2,1.6,0.7c0.1,0.3,0.1,0.5,0.1,0.7h-0.9c0-0.7-0.6-0.7-0.9-0.7
			c-0.1,0-0.9,0-0.9,0.6c0,0.4,0.4,0.5,0.6,0.6c1.3,0.3,1.5,0.4,1.8,0.6c0.3,0.2,0.3,0.5,0.3,0.8c0,0.5-0.3,0.9-0.6,1.1
			c-0.4,0.2-0.9,0.3-1.3,0.3c-0.9,0-1.8-0.4-1.8-1.5H168.9z"/>
		<path class="st0" d="M172.8,125.3h1v1.1h-1V125.3z"/>
		<path class="st0" d="M177.9,119.8h0.9v6.5h-0.9V119.8z"/>
		<path class="st0" d="M182.8,119.9h1v0.9h-1V119.9z M182.9,121.8h0.8v4.5h-0.8V121.8z"/>
		<path class="st0" d="M185.4,122.3l0-0.5h0.8l0,0.7c0.1-0.2,0.4-0.8,1.4-0.8c0.4,0,1.6,0.2,1.6,1.5v3.1h-0.9v-2.9
			c0-0.3,0-0.6-0.2-0.8c-0.2-0.2-0.5-0.3-0.8-0.3c-0.6,0-1.2,0.4-1.2,1.4v2.6h-0.8V122.3z"/>
		<path class="st0" d="M190.9,122.6c0-0.2,0-0.3,0-0.7h0.9l0,0.7c0.4-0.7,1.2-0.8,1.5-0.8c1,0,1.9,0.7,1.9,2.3c0,1.7-1,2.4-2.1,2.4
			c-0.7,0-1.1-0.3-1.4-0.7v2.2h-0.8V122.6z M192.9,125.9c0.2,0,0.7,0,1-0.4c0.3-0.4,0.4-1.1,0.4-1.4c0-0.8-0.2-1.7-1.2-1.7
			c-1.4,0-1.4,1.4-1.4,1.8C191.7,124.8,191.8,125.9,192.9,125.9z"/>
		<path class="st0" d="M197.2,121.8v2.9c0,0.4,0.1,1,1,1c0.4,0,0.8-0.1,1.1-0.5c0.2-0.3,0.2-0.6,0.2-0.8v-2.6h0.9v3.7
			c0,0.1,0,0.6,0,0.8h-0.9l0-0.8c-0.2,0.3-0.5,0.8-1.4,0.8c-1.1,0-1.6-0.6-1.6-1.5v-3H197.2z"/>
		<path class="st0" d="M201.2,121.8h0.8v-0.9l0.8-0.3v1.2h1v0.6h-1v2.7c0,0.2,0,0.6,0.6,0.6c0.2,0,0.3,0,0.4,0v0.7
			c-0.2,0-0.4,0.1-0.7,0.1c-0.8,0-1.1-0.2-1.1-1v-3h-0.8V121.8z"/>
	</g>
	<g>
		<path class="st0" d="M0.5,130.6h1v0.9h-1V130.6z M0.6,132.6h0.8v4.5H0.6V132.6z"/>
		<path class="st0" d="M3.1,133.1l0-0.5H4l0,0.7c0.1-0.2,0.4-0.8,1.4-0.8c0.4,0,1.6,0.2,1.6,1.5v3.1H6.2v-2.9c0-0.3,0-0.6-0.2-0.8
			c-0.2-0.2-0.5-0.3-0.8-0.3c-0.6,0-1.2,0.4-1.2,1.4v2.6H3.1V133.1z"/>
		<path class="st0" d="M10.9,131.2c-0.1,0-0.3,0-0.5,0c-0.7,0-0.7,0.3-0.7,0.7v0.7h1.1v0.6H9.7v3.9H8.8v-3.9H7.9v-0.6h0.9V132
			c0-0.6,0-0.8,0.2-1.1c0.2-0.3,0.5-0.5,1.1-0.5c0.2,0,0.5,0,0.7,0.1V131.2z"/>
		<path class="st0" d="M13.6,132.4c1.8,0,2.2,1.4,2.2,2.4c0,1.3-0.7,2.4-2.3,2.4c-1.5,0-2.2-1-2.2-2.4
			C11.3,133.8,11.8,132.4,13.6,132.4z M13.5,136.6c0.6,0,1.4-0.5,1.4-1.8c0-1.1-0.5-1.7-1.3-1.7c-0.5,0-1.4,0.3-1.4,1.8
			C12.1,135.7,12.5,136.6,13.5,136.6z"/>
		<path class="st0" d="M17.1,133.5c0-0.3,0-0.6,0-0.9h0.9l0,0.9c0.2-0.6,0.7-0.8,1.1-0.9c0.3,0,0.4,0,0.6,0v0.8c0,0-0.1,0-0.2,0
			c-0.1,0-0.1,0-0.2,0c-1,0-1.2,0.6-1.2,1.4v2.4h-0.9V133.5z"/>
		<path class="st0" d="M20.6,133.2l0-0.6h0.9v0.7c0.4-0.7,1-0.8,1.4-0.8c1,0,1.3,0.5,1.5,0.8c0.2-0.3,0.5-0.8,1.5-0.8
			c0.6,0,1.7,0.3,1.7,1.6v3h-0.9v-2.9c0-0.4-0.1-0.6-0.2-0.7c-0.1-0.2-0.4-0.4-0.9-0.4c-0.5,0-0.8,0.3-1,0.5c-0.2,0.3-0.2,0.8-0.2,1
			v2.5h-0.9v-3c0-0.6-0.3-1-1-1c-0.6,0-0.9,0.4-1,0.5c-0.2,0.3-0.2,0.6-0.2,0.9v2.6h-0.9V133.2z"/>
		<path class="st0" d="M31.8,137.1c-0.1-0.2-0.1-0.4-0.1-0.7c-0.4,0.7-1,0.8-1.4,0.8c-1,0-1.6-0.6-1.6-1.3c0-0.4,0.1-0.9,0.8-1.3
			c0.5-0.3,1.2-0.3,1.6-0.3c0.2,0,0.4,0,0.6,0c0-0.6,0-0.8-0.2-1c-0.2-0.2-0.5-0.3-0.8-0.3c-0.9,0-0.9,0.6-0.9,0.8H29
			c0-0.2,0.1-0.5,0.3-0.9c0.3-0.4,1-0.5,1.5-0.5c0.7,0,1.4,0.2,1.6,0.7c0.1,0.3,0.2,0.5,0.2,0.7l0,2.2c0,0.1,0,0.7,0.1,1.1H31.8z
			 M31.3,134.9c-0.3,0-1.6,0-1.6,0.9c0,0.3,0.2,0.8,0.9,0.8c0.4,0,0.8-0.2,1-0.5c0.2-0.3,0.2-0.6,0.2-1.2
			C31.6,134.9,31.5,134.9,31.3,134.9z"/>
		<path class="st0" d="M33.4,132.5h0.8v-0.9l0.8-0.3v1.2h1v0.6h-1v2.7c0,0.2,0,0.6,0.6,0.6c0.2,0,0.3,0,0.4,0v0.7
			c-0.2,0-0.4,0.1-0.7,0.1c-0.8,0-1.1-0.2-1.1-1v-3h-0.8V132.5z"/>
		<path class="st0" d="M37,130.6h1v0.9h-1V130.6z M37.1,132.6h0.8v4.5h-0.8V132.6z"/>
		<path class="st0" d="M41.6,132.4c1.8,0,2.2,1.4,2.2,2.4c0,1.3-0.7,2.4-2.3,2.4c-1.5,0-2.2-1-2.2-2.4
			C39.3,133.8,39.8,132.4,41.6,132.4z M41.5,136.6c0.6,0,1.4-0.5,1.4-1.8c0-1.1-0.5-1.7-1.3-1.7c-0.5,0-1.4,0.3-1.4,1.8
			C40.1,135.7,40.5,136.6,41.5,136.6z"/>
		<path class="st0" d="M45.1,133.1l0-0.5H46l0,0.7c0.1-0.2,0.4-0.8,1.4-0.8c0.4,0,1.6,0.2,1.6,1.5v3.1h-0.9v-2.9
			c0-0.3,0-0.6-0.2-0.8c-0.2-0.2-0.5-0.3-0.8-0.3c-0.6,0-1.2,0.4-1.2,1.4v2.6h-0.8V133.1z"/>
		<path class="st0" d="M55.8,137.1c-0.1-0.2-0.1-0.4-0.1-0.7c-0.4,0.7-1,0.8-1.4,0.8c-1,0-1.6-0.6-1.6-1.3c0-0.4,0.1-0.9,0.8-1.3
			c0.5-0.3,1.2-0.3,1.6-0.3c0.2,0,0.4,0,0.6,0c0-0.6,0-0.8-0.2-1c-0.2-0.2-0.5-0.3-0.8-0.3c-0.9,0-0.9,0.6-0.9,0.8H53
			c0-0.2,0.1-0.5,0.3-0.9c0.3-0.4,1-0.5,1.5-0.5c0.7,0,1.4,0.2,1.6,0.7c0.1,0.3,0.2,0.5,0.2,0.7l0,2.2c0,0.1,0,0.7,0.1,1.1H55.8z
			 M55.3,134.9c-0.3,0-1.6,0-1.6,0.9c0,0.3,0.2,0.8,0.9,0.8c0.4,0,0.8-0.2,1-0.5c0.2-0.3,0.2-0.6,0.2-1.2
			C55.6,134.9,55.5,134.9,55.3,134.9z"/>
		<path class="st0" d="M58.9,133.2c0.1-0.2,0.4-0.8,1.5-0.8c0.5,0,1,0.1,1.4,0.6c0.2,0.3,0.5,0.7,0.5,1.7c0,0.9-0.2,1.3-0.4,1.6
			c-0.4,0.5-1,0.8-1.6,0.8c-0.2,0-0.6,0-1-0.3c-0.3-0.2-0.4-0.3-0.4-0.5l0,0.7h-0.8l0-0.8v-5.7h0.8V133.2z M60.2,133
			c-1.3,0-1.3,1.5-1.3,1.8c0,0.3,0,1.7,1.3,1.7c1,0,1.3-1,1.3-1.8C61.5,134.3,61.4,133,60.2,133z"/>
		<path class="st0" d="M65.6,132.4c1.8,0,2.2,1.4,2.2,2.4c0,1.3-0.7,2.4-2.3,2.4c-1.5,0-2.2-1-2.2-2.4
			C63.3,133.8,63.8,132.4,65.6,132.4z M65.5,136.6c0.6,0,1.4-0.5,1.4-1.8c0-1.1-0.5-1.7-1.3-1.7c-0.5,0-1.4,0.3-1.4,1.8
			C64.1,135.7,64.5,136.6,65.5,136.6z"/>
		<path class="st0" d="M69.9,132.6v2.9c0,0.4,0.1,1,1,1c0.4,0,0.8-0.1,1.1-0.5c0.2-0.3,0.2-0.6,0.2-0.8v-2.6H73v3.7
			c0,0.1,0,0.6,0,0.8h-0.9l0-0.8c-0.2,0.3-0.5,0.8-1.4,0.8c-1.1,0-1.6-0.6-1.6-1.5v-3H69.9z"/>
		<path class="st0" d="M73.9,132.5h0.8v-0.9l0.8-0.3v1.2h1v0.6h-1v2.7c0,0.2,0,0.6,0.6,0.6c0.2,0,0.3,0,0.4,0v0.7
			c-0.2,0-0.4,0.1-0.7,0.1c-0.8,0-1.1-0.2-1.1-1v-3h-0.8V132.5z"/>
		<path class="st0" d="M79.4,132.5h0.8v-0.9l0.8-0.3v1.2h1v0.6h-1v2.7c0,0.2,0,0.6,0.6,0.6c0.2,0,0.3,0,0.4,0v0.7
			c-0.2,0-0.4,0.1-0.7,0.1c-0.8,0-1.1-0.2-1.1-1v-3h-0.8V132.5z"/>
		<path class="st0" d="M83.1,130.6h0.9v2.6c0.3-0.5,0.8-0.7,1.5-0.7c0.5,0,1.2,0.2,1.4,0.7c0.1,0.2,0.2,0.4,0.2,1.1v2.8h-0.9v-2.7
			c0-0.4,0-1.3-1-1.3c-0.6,0-0.9,0.4-1.1,0.6c-0.1,0.3-0.1,0.7-0.1,1v2.4h-0.9V130.6z"/>
		<path class="st0" d="M89.1,135c0,0.9,0.4,1.6,1.3,1.6c0.5,0,1-0.3,1.1-0.9h0.8c0,0.2-0.1,0.6-0.4,0.9c-0.2,0.2-0.6,0.6-1.6,0.6
			c-1.4,0-2.1-0.9-2.1-2.3c0-0.9,0.2-1.6,0.9-2.1c0.4-0.3,1-0.3,1.2-0.3c2,0,2,1.8,2,2.5H89.1z M91.5,134.4c0-0.4-0.1-1.3-1.1-1.3
			c-0.5,0-1.2,0.3-1.2,1.3H91.5z"/>
		<path class="st0" d="M98.8,137.1c-0.1-0.2-0.1-0.4-0.1-0.7c-0.4,0.7-1,0.8-1.4,0.8c-1,0-1.6-0.6-1.6-1.3c0-0.4,0.1-0.9,0.8-1.3
			c0.5-0.3,1.2-0.3,1.6-0.3c0.2,0,0.4,0,0.6,0c0-0.6,0-0.8-0.2-1c-0.2-0.2-0.5-0.3-0.8-0.3c-0.9,0-0.9,0.6-0.9,0.8H96
			c0-0.2,0.1-0.5,0.3-0.9c0.3-0.4,1-0.5,1.5-0.5c0.7,0,1.4,0.2,1.6,0.7c0.1,0.3,0.2,0.5,0.2,0.7l0,2.2c0,0.1,0,0.7,0.1,1.1H98.8z
			 M98.3,134.9c-0.3,0-1.6,0-1.6,0.9c0,0.3,0.2,0.8,0.9,0.8c0.4,0,0.8-0.2,1-0.5c0.2-0.3,0.2-0.6,0.2-1.2
			C98.6,134.9,98.5,134.9,98.3,134.9z"/>
		<path class="st0" d="M101.9,132.6v2.9c0,0.4,0.1,1,1,1c0.4,0,0.8-0.1,1.1-0.5c0.2-0.3,0.2-0.6,0.2-0.8v-2.6h0.9v3.7
			c0,0.1,0,0.6,0,0.8h-0.9l0-0.8c-0.2,0.3-0.5,0.8-1.4,0.8c-1.1,0-1.6-0.6-1.6-1.5v-3H101.9z"/>
		<path class="st0" d="M105.9,132.5h0.8v-0.9l0.8-0.3v1.2h1v0.6h-1v2.7c0,0.2,0,0.6,0.6,0.6c0.2,0,0.3,0,0.4,0v0.7
			c-0.2,0-0.4,0.1-0.7,0.1c-0.8,0-1.1-0.2-1.1-1v-3h-0.8V132.5z"/>
		<path class="st0" d="M109.6,130.6h0.9v2.6c0.3-0.5,0.8-0.7,1.5-0.7c0.5,0,1.2,0.2,1.4,0.7c0.1,0.2,0.2,0.4,0.2,1.1v2.8h-0.9v-2.7
			c0-0.4,0-1.3-1-1.3c-0.6,0-0.9,0.4-1.1,0.6c-0.1,0.3-0.1,0.7-0.1,1v2.4h-0.9V130.6z"/>
		<path class="st0" d="M117.1,132.4c1.8,0,2.2,1.4,2.2,2.4c0,1.3-0.7,2.4-2.3,2.4c-1.5,0-2.2-1-2.2-2.4
			C114.8,133.8,115.3,132.4,117.1,132.4z M117,136.6c0.6,0,1.4-0.5,1.4-1.8c0-1.1-0.5-1.7-1.3-1.7c-0.5,0-1.4,0.3-1.4,1.8
			C115.6,135.7,116,136.6,117,136.6z"/>
		<path class="st0" d="M120.6,133.5c0-0.3,0-0.6,0-0.9h0.9l0,0.9c0.2-0.6,0.7-0.8,1.1-0.9c0.3,0,0.4,0,0.6,0v0.8c0,0-0.1,0-0.2,0
			c-0.1,0-0.1,0-0.2,0c-1,0-1.2,0.6-1.2,1.4v2.4h-0.9V133.5z"/>
		<path class="st0" d="M124.7,135.7c0,0.3,0.2,0.8,1,0.8c0.4,0,0.6-0.1,0.8-0.3c0.1-0.1,0.1-0.3,0.1-0.4c0-0.4-0.3-0.5-1-0.7
			c-0.9-0.2-1.7-0.4-1.7-1.4c0-0.8,0.7-1.4,1.8-1.4c0.6,0,1.4,0.2,1.6,0.7c0.1,0.3,0.1,0.5,0.1,0.7h-0.9c0-0.7-0.6-0.7-0.9-0.7
			c-0.1,0-0.9,0-0.9,0.6c0,0.4,0.4,0.5,0.6,0.6c1.3,0.3,1.5,0.4,1.8,0.6c0.3,0.2,0.3,0.5,0.3,0.8c0,0.5-0.3,0.9-0.6,1.1
			c-0.4,0.2-0.9,0.3-1.3,0.3c-0.9,0-1.8-0.4-1.8-1.5H124.7z"/>
		<path class="st0" d="M134,137.1c-0.1-0.2-0.1-0.4-0.1-0.7c-0.4,0.7-1,0.8-1.4,0.8c-1,0-1.6-0.6-1.6-1.3c0-0.4,0.1-0.9,0.8-1.3
			c0.5-0.3,1.2-0.3,1.6-0.3c0.2,0,0.4,0,0.6,0c0-0.6,0-0.8-0.2-1c-0.2-0.2-0.5-0.3-0.8-0.3c-0.9,0-0.9,0.6-0.9,0.8h-0.8
			c0-0.2,0.1-0.5,0.3-0.9c0.3-0.4,1-0.5,1.5-0.5c0.7,0,1.4,0.2,1.6,0.7c0.1,0.3,0.2,0.5,0.2,0.7l0,2.2c0,0.1,0,0.7,0.1,1.1H134z
			 M133.4,134.9c-0.3,0-1.6,0-1.6,0.9c0,0.3,0.2,0.8,0.9,0.8c0.4,0,0.8-0.2,1-0.5c0.2-0.3,0.2-0.6,0.2-1.2
			C133.8,134.9,133.6,134.9,133.4,134.9z"/>
		<path class="st0" d="M136.3,133.1l0-0.5h0.8l0,0.7c0.1-0.2,0.4-0.8,1.4-0.8c0.4,0,1.6,0.2,1.6,1.5v3.1h-0.9v-2.9
			c0-0.3,0-0.6-0.2-0.8c-0.2-0.2-0.5-0.3-0.8-0.3c-0.6,0-1.2,0.4-1.2,1.4v2.6h-0.8V133.1z"/>
		<path class="st0" d="M144.9,130.6h0.8v5.8c0,0.1,0,0.5,0,0.7h-0.8l0-0.7c-0.1,0.1-0.2,0.3-0.4,0.5c-0.4,0.3-0.8,0.3-1.1,0.3
			c-0.6,0-1.9-0.3-1.9-2.3c0-1.7,1-2.5,2-2.5c1,0,1.3,0.6,1.4,0.8V130.6z M144.6,133.5c-0.2-0.2-0.5-0.5-1-0.5
			c-1.2,0-1.2,1.5-1.2,1.8c0,0.8,0.2,1.7,1.2,1.7c1.3,0,1.3-1.5,1.3-1.8C144.9,134.1,144.8,133.7,144.6,133.5z"/>
		<path class="st0" d="M149.1,132.5h0.8v-0.9l0.8-0.3v1.2h1v0.6h-1v2.7c0,0.2,0,0.6,0.6,0.6c0.2,0,0.3,0,0.4,0v0.7
			c-0.2,0-0.4,0.1-0.7,0.1c-0.8,0-1.1-0.2-1.1-1v-3h-0.8V132.5z"/>
		<path class="st0" d="M152.8,130.6h0.9v2.6c0.3-0.5,0.8-0.7,1.5-0.7c0.5,0,1.2,0.2,1.4,0.7c0.1,0.2,0.2,0.4,0.2,1.1v2.8h-0.9v-2.7
			c0-0.4,0-1.3-1-1.3c-0.6,0-0.9,0.4-1.1,0.6c-0.1,0.3-0.1,0.7-0.1,1v2.4h-0.9V130.6z"/>
		<path class="st0" d="M158.8,135c0,0.9,0.4,1.6,1.3,1.6c0.5,0,1-0.3,1.1-0.9h0.8c0,0.2-0.1,0.6-0.4,0.9c-0.2,0.2-0.6,0.6-1.6,0.6
			c-1.4,0-2.1-0.9-2.1-2.3c0-0.9,0.2-1.6,0.9-2.1c0.4-0.3,1-0.3,1.2-0.3c2,0,2,1.8,2,2.5H158.8z M161.2,134.4c0-0.4-0.1-1.3-1.1-1.3
			c-0.5,0-1.2,0.3-1.2,1.3H161.2z"/>
		<path class="st0" d="M166.3,135.7c0,0.3,0.2,0.8,1,0.8c0.4,0,0.6-0.1,0.8-0.3c0.1-0.1,0.1-0.3,0.1-0.4c0-0.4-0.3-0.5-1-0.7
			c-0.9-0.2-1.7-0.4-1.7-1.4c0-0.8,0.7-1.4,1.8-1.4c0.6,0,1.4,0.2,1.6,0.7c0.1,0.3,0.1,0.5,0.1,0.7h-0.9c0-0.7-0.6-0.7-0.9-0.7
			c-0.1,0-0.9,0-0.9,0.6c0,0.4,0.4,0.5,0.6,0.6c1.3,0.3,1.5,0.4,1.8,0.6c0.3,0.2,0.3,0.5,0.3,0.8c0,0.5-0.3,0.9-0.6,1.1
			c-0.4,0.2-0.9,0.3-1.3,0.3c-0.9,0-1.8-0.4-1.8-1.5H166.3z"/>
		<path class="st0" d="M171,132.6v2.9c0,0.4,0.1,1,1,1c0.4,0,0.8-0.1,1.1-0.5c0.2-0.3,0.2-0.6,0.2-0.8v-2.6h0.9v3.7
			c0,0.1,0,0.6,0,0.8h-0.9l0-0.8c-0.2,0.3-0.5,0.8-1.4,0.8c-1.1,0-1.6-0.6-1.6-1.5v-3H171z"/>
		<path class="st0" d="M175.8,133.2l0-0.6h0.9v0.7c0.4-0.7,1-0.8,1.4-0.8c1,0,1.3,0.5,1.5,0.8c0.2-0.3,0.5-0.8,1.5-0.8
			c0.6,0,1.7,0.3,1.7,1.6v3h-0.9v-2.9c0-0.4-0.1-0.6-0.2-0.7c-0.1-0.2-0.4-0.4-0.9-0.4c-0.5,0-0.8,0.3-1,0.5c-0.2,0.3-0.2,0.8-0.2,1
			v2.5h-0.9v-3c0-0.6-0.3-1-1-1c-0.6,0-0.9,0.4-1,0.5c-0.2,0.3-0.2,0.6-0.2,0.9v2.6h-0.9V133.2z"/>
		<path class="st0" d="M184.3,133.2l0-0.6h0.9v0.7c0.4-0.7,1-0.8,1.4-0.8c1,0,1.3,0.5,1.5,0.8c0.2-0.3,0.5-0.8,1.5-0.8
			c0.6,0,1.7,0.3,1.7,1.6v3h-0.9v-2.9c0-0.4-0.1-0.6-0.2-0.7c-0.1-0.2-0.4-0.4-0.9-0.4c-0.5,0-0.8,0.3-1,0.5c-0.2,0.3-0.2,0.8-0.2,1
			v2.5h-0.9v-3c0-0.6-0.3-1-1-1c-0.6,0-0.9,0.4-1,0.5c-0.2,0.3-0.2,0.6-0.2,0.9v2.6h-0.9V133.2z"/>
		<path class="st0" d="M195.5,137.1c-0.1-0.2-0.1-0.4-0.1-0.7c-0.4,0.7-1,0.8-1.4,0.8c-1,0-1.6-0.6-1.6-1.3c0-0.4,0.1-0.9,0.8-1.3
			c0.5-0.3,1.2-0.3,1.6-0.3c0.2,0,0.4,0,0.6,0c0-0.6,0-0.8-0.2-1c-0.2-0.2-0.5-0.3-0.8-0.3c-0.9,0-0.9,0.6-0.9,0.8h-0.8
			c0-0.2,0.1-0.5,0.3-0.9c0.3-0.4,1-0.5,1.5-0.5c0.7,0,1.4,0.2,1.6,0.7c0.1,0.3,0.2,0.5,0.2,0.7l0,2.2c0,0.1,0,0.7,0.1,1.1H195.5z
			 M194.9,134.9c-0.3,0-1.6,0-1.6,0.9c0,0.3,0.2,0.8,0.9,0.8c0.4,0,0.8-0.2,1-0.5c0.2-0.3,0.2-0.6,0.2-1.2
			C195.3,134.9,195.1,134.9,194.9,134.9z"/>
		<path class="st0" d="M197.8,133.5c0-0.3,0-0.6,0-0.9h0.9l0,0.9c0.2-0.6,0.7-0.8,1.1-0.9c0.3,0,0.4,0,0.6,0v0.8c0,0-0.1,0-0.2,0
			c-0.1,0-0.1,0-0.2,0c-1,0-1.2,0.6-1.2,1.4v2.4h-0.9V133.5z"/>
		<path class="st0" d="M203.3,137.1l-0.6,1.7h-0.9l0.7-1.7l-1.9-4.5h1l1.4,3.6l1.4-3.6h0.9L203.3,137.1z"/>
	</g>
	<g>
		<path class="st0" d="M2.6,143.2c1.8,0,2.2,1.4,2.2,2.4c0,1.3-0.7,2.4-2.3,2.4c-1.5,0-2.2-1-2.2-2.4C0.3,144.5,0.8,143.2,2.6,143.2
			z M2.5,147.3c0.6,0,1.4-0.5,1.4-1.8c0-1.1-0.5-1.7-1.3-1.7c-0.5,0-1.4,0.3-1.4,1.8C1.1,146.5,1.5,147.3,2.5,147.3z"/>
		<path class="st0" d="M8.4,142c-0.1,0-0.3,0-0.5,0c-0.7,0-0.7,0.3-0.7,0.7v0.7h1.1v0.6H7.2v3.9H6.3v-3.9H5.4v-0.6h0.9v-0.5
			c0-0.6,0-0.8,0.2-1.1c0.2-0.3,0.5-0.5,1.1-0.5c0.2,0,0.5,0,0.7,0.1V142z"/>
		<path class="st0" d="M10.9,143.3h0.8v-0.9l0.8-0.3v1.2h1v0.6h-1v2.7c0,0.2,0,0.6,0.6,0.6c0.2,0,0.3,0,0.4,0v0.7
			c-0.2,0-0.4,0.1-0.7,0.1c-0.8,0-1.1-0.2-1.1-1v-3h-0.8V143.3z"/>
		<path class="st0" d="M14.6,141.3h0.9v2.6c0.3-0.5,0.8-0.7,1.5-0.7c0.5,0,1.2,0.2,1.4,0.7c0.1,0.2,0.2,0.4,0.2,1.1v2.8h-0.9v-2.7
			c0-0.4,0-1.3-1-1.3c-0.6,0-0.9,0.4-1.1,0.6c-0.1,0.3-0.1,0.7-0.1,1v2.4h-0.9V141.3z"/>
		<path class="st0" d="M20.6,145.7c0,0.9,0.4,1.6,1.3,1.6c0.5,0,1-0.3,1.1-0.9h0.8c0,0.2-0.1,0.6-0.4,0.9c-0.2,0.2-0.6,0.6-1.6,0.6
			c-1.4,0-2.1-0.9-2.1-2.3c0-0.9,0.2-1.6,0.9-2.1c0.4-0.3,1-0.3,1.2-0.3c2,0,2,1.8,2,2.5H20.6z M23,145.1c0-0.4-0.1-1.3-1.1-1.3
			c-0.5,0-1.2,0.3-1.2,1.3H23z"/>
		<path class="st0" d="M28.1,146.5c0,0.3,0.2,0.8,1,0.8c0.4,0,0.6-0.1,0.8-0.3c0.1-0.1,0.1-0.3,0.1-0.4c0-0.4-0.3-0.5-1-0.7
			c-0.9-0.2-1.7-0.4-1.7-1.4c0-0.8,0.7-1.4,1.8-1.4c0.6,0,1.4,0.2,1.6,0.7c0.1,0.3,0.1,0.5,0.1,0.7h-0.9c0-0.7-0.6-0.7-0.9-0.7
			c-0.1,0-0.9,0-0.9,0.6c0,0.4,0.4,0.5,0.6,0.6c1.3,0.3,1.5,0.4,1.8,0.6c0.3,0.2,0.3,0.5,0.3,0.8c0,0.5-0.3,0.9-0.6,1.1
			c-0.4,0.2-0.9,0.3-1.3,0.3c-0.9,0-1.8-0.4-1.8-1.5H28.1z"/>
		<path class="st0" d="M31.4,143.3h0.8v-0.9l0.8-0.3v1.2h1v0.6h-1v2.7c0,0.2,0,0.6,0.6,0.6c0.2,0,0.3,0,0.4,0v0.7
			c-0.2,0-0.4,0.1-0.7,0.1c-0.8,0-1.1-0.2-1.1-1v-3h-0.8V143.3z"/>
		<path class="st0" d="M37.1,143.2c1.8,0,2.2,1.4,2.2,2.4c0,1.3-0.7,2.4-2.3,2.4c-1.5,0-2.2-1-2.2-2.4
			C34.8,144.5,35.3,143.2,37.1,143.2z M37,147.3c0.6,0,1.4-0.5,1.4-1.8c0-1.1-0.5-1.7-1.3-1.7c-0.5,0-1.4,0.3-1.4,1.8
			C35.6,146.5,36,147.3,37,147.3z"/>
		<path class="st0" d="M40.6,144.2c0-0.3,0-0.6,0-0.9h0.9l0,0.9c0.2-0.6,0.7-0.8,1.1-0.9c0.3,0,0.4,0,0.6,0v0.8c0,0-0.1,0-0.2,0
			c-0.1,0-0.1,0-0.2,0c-1,0-1.2,0.6-1.2,1.4v2.4h-0.9V144.2z"/>
		<path class="st0" d="M46.1,147.9l-0.6,1.7h-0.9l0.7-1.7l-1.9-4.5h1l1.4,3.6l1.4-3.6h0.9L46.1,147.9z"/>
		<path class="st0" d="M52.4,143.3v2.9c0,0.4,0.1,1,1,1c0.4,0,0.8-0.1,1.1-0.5c0.2-0.3,0.2-0.6,0.2-0.8v-2.6h0.9v3.7
			c0,0.1,0,0.6,0,0.8h-0.9l0-0.8c-0.2,0.3-0.5,0.8-1.4,0.8c-1.1,0-1.6-0.6-1.6-1.5v-3H52.4z"/>
		<path class="st0" d="M57.6,146.5c0,0.3,0.2,0.8,1,0.8c0.4,0,0.6-0.1,0.8-0.3c0.1-0.1,0.1-0.3,0.1-0.4c0-0.4-0.3-0.5-1-0.7
			c-0.9-0.2-1.7-0.4-1.7-1.4c0-0.8,0.7-1.4,1.8-1.4c0.6,0,1.4,0.2,1.6,0.7c0.1,0.3,0.1,0.5,0.1,0.7h-0.9c0-0.7-0.6-0.7-0.9-0.7
			c-0.1,0-0.9,0-0.9,0.6c0,0.4,0.4,0.5,0.6,0.6c1.3,0.3,1.5,0.4,1.8,0.6c0.3,0.2,0.3,0.5,0.3,0.8c0,0.5-0.3,0.9-0.6,1.1
			c-0.4,0.2-0.9,0.3-1.3,0.3c-0.9,0-1.8-0.4-1.8-1.5H57.6z"/>
		<path class="st0" d="M61.5,141.3h1v0.9h-1V141.3z M61.6,143.3h0.8v4.5h-0.8V143.3z"/>
		<path class="st0" d="M64.1,143.8l0-0.5H65l0,0.7c0.1-0.2,0.4-0.8,1.4-0.8c0.4,0,1.6,0.2,1.6,1.5v3.1h-0.9V145c0-0.3,0-0.6-0.2-0.8
			c-0.2-0.2-0.5-0.3-0.8-0.3c-0.6,0-1.2,0.4-1.2,1.4v2.6h-0.8V143.8z"/>
		<path class="st0" d="M70.4,148.2c0,0.5,0.3,0.9,1.1,0.9c1.2,0,1.2-0.9,1.2-2.1c-0.4,0.7-1.2,0.8-1.5,0.8c-0.4,0-1-0.1-1.4-0.6
			c-0.4-0.5-0.5-1.1-0.5-1.7c0-1.5,0.9-2.3,2-2.3c0.9,0,1.2,0.5,1.4,0.7l0-0.6h0.8l0,0.8l0,2.8c0,1.1,0,1.5-0.2,1.9
			c-0.4,0.7-1.3,0.8-1.9,0.8c-1.8,0-1.9-0.8-1.9-1.5H70.4z M72.4,146.7c0.2-0.2,0.3-0.5,0.3-1.3c0-0.6-0.1-0.9-0.4-1.1
			c-0.2-0.2-0.6-0.4-1-0.4c-1.1,0-1.2,1.1-1.2,1.7c0,0.7,0.2,1.6,1.2,1.6C71.9,147.1,72.2,146.9,72.4,146.7z"/>
		<path class="st0" d="M76.9,143.3h0.8v-0.9l0.8-0.3v1.2h1v0.6h-1v2.7c0,0.2,0,0.6,0.6,0.6c0.2,0,0.3,0,0.4,0v0.7
			c-0.2,0-0.4,0.1-0.7,0.1c-0.8,0-1.1-0.2-1.1-1v-3h-0.8V143.3z"/>
		<path class="st0" d="M80.6,141.3h0.9v2.6c0.3-0.5,0.8-0.7,1.5-0.7c0.5,0,1.2,0.2,1.4,0.7c0.1,0.2,0.2,0.4,0.2,1.1v2.8h-0.9v-2.7
			c0-0.4,0-1.3-1-1.3c-0.6,0-0.9,0.4-1.1,0.6c-0.1,0.3-0.1,0.7-0.1,1v2.4h-0.9V141.3z"/>
		<path class="st0" d="M86,141.3h1v0.9h-1V141.3z M86.1,143.3h0.8v4.5h-0.8V143.3z"/>
		<path class="st0" d="M89.1,146.5c0,0.3,0.2,0.8,1,0.8c0.4,0,0.6-0.1,0.8-0.3c0.1-0.1,0.1-0.3,0.1-0.4c0-0.4-0.3-0.5-1-0.7
			c-0.9-0.2-1.7-0.4-1.7-1.4c0-0.8,0.7-1.4,1.8-1.4c0.6,0,1.4,0.2,1.6,0.7c0.1,0.3,0.1,0.5,0.1,0.7h-0.9c0-0.7-0.6-0.7-0.9-0.7
			c-0.1,0-0.9,0-0.9,0.6c0,0.4,0.4,0.5,0.6,0.6c1.3,0.3,1.5,0.4,1.8,0.6c0.3,0.2,0.3,0.5,0.3,0.8c0,0.5-0.3,0.9-0.6,1.1
			c-0.4,0.2-0.9,0.3-1.3,0.3c-0.9,0-1.8-0.4-1.8-1.5H89.1z"/>
		<path class="st0" d="M97.9,142c-0.1,0-0.3,0-0.5,0c-0.7,0-0.7,0.3-0.7,0.7v0.7h1.1v0.6h-1.1v3.9h-0.8v-3.9h-0.9v-0.6h0.9v-0.5
			c0-0.6,0-0.8,0.2-1.1c0.2-0.3,0.5-0.5,1.1-0.5c0.2,0,0.5,0,0.7,0.1V142z"/>
		<path class="st0" d="M100.6,143.2c1.8,0,2.2,1.4,2.2,2.4c0,1.3-0.7,2.4-2.3,2.4c-1.5,0-2.2-1-2.2-2.4
			C98.3,144.5,98.8,143.2,100.6,143.2z M100.5,147.3c0.6,0,1.4-0.5,1.4-1.8c0-1.1-0.5-1.7-1.3-1.7c-0.5,0-1.4,0.3-1.4,1.8
			C99.1,146.5,99.5,147.3,100.5,147.3z"/>
		<path class="st0" d="M104.1,143.8l0-0.5h0.8l0,0.7c0.1-0.2,0.4-0.8,1.4-0.8c0.4,0,1.6,0.2,1.6,1.5v3.1h-0.9V145
			c0-0.3,0-0.6-0.2-0.8c-0.2-0.2-0.5-0.3-0.8-0.3c-0.6,0-1.2,0.4-1.2,1.4v2.6h-0.8V143.8z"/>
		<path class="st0" d="M108.9,143.3h0.8v-0.9l0.8-0.3v1.2h1v0.6h-1v2.7c0,0.2,0,0.6,0.6,0.6c0.2,0,0.3,0,0.4,0v0.7
			c-0.2,0-0.4,0.1-0.7,0.1c-0.8,0-1.1-0.2-1.1-1v-3h-0.8V143.3z"/>
		<path class="st0" d="M117.8,147.8c-0.1-0.2-0.1-0.4-0.1-0.7c-0.4,0.7-1,0.8-1.4,0.8c-1,0-1.6-0.6-1.6-1.3c0-0.4,0.1-0.9,0.8-1.3
			c0.5-0.3,1.2-0.3,1.6-0.3c0.2,0,0.4,0,0.6,0c0-0.6,0-0.8-0.2-1c-0.2-0.2-0.5-0.3-0.8-0.3c-0.9,0-0.9,0.6-0.9,0.8H115
			c0-0.2,0.1-0.5,0.3-0.9c0.3-0.4,1-0.5,1.5-0.5c0.7,0,1.4,0.2,1.6,0.7c0.1,0.3,0.2,0.5,0.2,0.7l0,2.2c0,0.1,0,0.7,0.1,1.1H117.8z
			 M117.3,145.6c-0.3,0-1.6,0-1.6,0.9c0,0.3,0.2,0.8,0.9,0.8c0.4,0,0.8-0.2,1-0.5c0.2-0.3,0.2-0.6,0.2-1.2
			C117.6,145.6,117.5,145.6,117.3,145.6z"/>
		<path class="st0" d="M120.1,143.8l0-0.5h0.8l0,0.7c0.1-0.2,0.4-0.8,1.4-0.8c0.4,0,1.6,0.2,1.6,1.5v3.1h-0.9V145
			c0-0.3,0-0.6-0.2-0.8c-0.2-0.2-0.5-0.3-0.8-0.3c-0.6,0-1.2,0.4-1.2,1.4v2.6h-0.8V143.8z"/>
		<path class="st0" d="M128.7,141.3h0.8v5.8c0,0.1,0,0.5,0,0.7h-0.8l0-0.7c-0.1,0.1-0.2,0.3-0.4,0.5c-0.4,0.3-0.8,0.3-1.1,0.3
			c-0.6,0-1.9-0.3-1.9-2.3c0-1.7,1-2.5,2-2.5c1,0,1.3,0.6,1.4,0.8V141.3z M128.4,144.2c-0.2-0.2-0.5-0.5-1-0.5
			c-1.2,0-1.2,1.5-1.2,1.8c0,0.8,0.2,1.7,1.2,1.7c1.3,0,1.3-1.5,1.3-1.8C128.8,144.8,128.6,144.5,128.4,144.2z"/>
		<path class="st0" d="M132.9,143.3h0.8v-0.9l0.8-0.3v1.2h1v0.6h-1v2.7c0,0.2,0,0.6,0.6,0.6c0.2,0,0.3,0,0.4,0v0.7
			c-0.2,0-0.4,0.1-0.7,0.1c-0.8,0-1.1-0.2-1.1-1v-3h-0.8V143.3z"/>
		<path class="st0" d="M138.6,147.9l-0.6,1.7h-0.9l0.7-1.7l-1.9-4.5h1l1.4,3.6l1.4-3.6h0.9L138.6,147.9z"/>
		<path class="st0" d="M141.6,144c0-0.2,0-0.3,0-0.7h0.9l0,0.7c0.4-0.7,1.2-0.8,1.5-0.8c1,0,1.9,0.7,1.9,2.3c0,1.7-1,2.4-2.1,2.4
			c-0.7,0-1.1-0.3-1.4-0.7v2.2h-0.8V144z M143.6,147.4c0.2,0,0.7,0,1-0.4c0.3-0.4,0.4-1.1,0.4-1.4c0-0.8-0.2-1.7-1.2-1.7
			c-1.4,0-1.4,1.4-1.4,1.8C142.4,146.3,142.5,147.4,143.6,147.4z"/>
		<path class="st0" d="M147.6,145.7c0,0.9,0.4,1.6,1.3,1.6c0.5,0,1-0.3,1.1-0.9h0.8c0,0.2-0.1,0.6-0.4,0.9c-0.2,0.2-0.6,0.6-1.6,0.6
			c-1.4,0-2.1-0.9-2.1-2.3c0-0.9,0.2-1.6,0.9-2.1c0.4-0.3,1-0.3,1.2-0.3c2,0,2,1.8,2,2.5H147.6z M150,145.1c0-0.4-0.1-1.3-1.1-1.3
			c-0.5,0-1.2,0.3-1.2,1.3H150z"/>
		<path class="st0" d="M154.4,142c-0.1,0-0.3,0-0.5,0c-0.7,0-0.7,0.3-0.7,0.7v0.7h1.1v0.6h-1.1v3.9h-0.8v-3.9h-0.9v-0.6h0.9v-0.5
			c0-0.6,0-0.8,0.2-1.1c0.2-0.3,0.5-0.5,1.1-0.5c0.2,0,0.5,0,0.7,0.1V142z"/>
		<path class="st0" d="M157.8,147.8c-0.1-0.2-0.1-0.4-0.1-0.7c-0.4,0.7-1,0.8-1.4,0.8c-1,0-1.6-0.6-1.6-1.3c0-0.4,0.1-0.9,0.8-1.3
			c0.5-0.3,1.2-0.3,1.6-0.3c0.2,0,0.4,0,0.6,0c0-0.6,0-0.8-0.2-1c-0.2-0.2-0.5-0.3-0.8-0.3c-0.9,0-0.9,0.6-0.9,0.8H155
			c0-0.2,0.1-0.5,0.3-0.9c0.3-0.4,1-0.5,1.5-0.5c0.7,0,1.4,0.2,1.6,0.7c0.1,0.3,0.2,0.5,0.2,0.7l0,2.2c0,0.1,0,0.7,0.1,1.1H157.8z
			 M157.3,145.6c-0.3,0-1.6,0-1.6,0.9c0,0.3,0.2,0.8,0.9,0.8c0.4,0,0.8-0.2,1-0.5c0.2-0.3,0.2-0.6,0.2-1.2
			C157.6,145.6,157.5,145.6,157.3,145.6z"/>
		<path class="st0" d="M162.7,144.8c0-0.2-0.1-0.9-0.9-0.9c-1.2,0-1.2,1.4-1.2,1.7c0,0.9,0.2,1.8,1.1,1.8c0.7,0,1-0.5,1-1h0.9
			c-0.1,0.9-0.7,1.6-1.8,1.6c-0.3,0-1-0.1-1.5-0.6c-0.3-0.3-0.5-0.8-0.5-1.7c0-1.9,1.2-2.4,2.1-2.4c0.3,0,1,0.1,1.4,0.6
			c0.3,0.4,0.4,0.8,0.4,1H162.7z"/>
		<path class="st0" d="M165.1,145.7c0,0.9,0.4,1.6,1.3,1.6c0.5,0,1-0.3,1.1-0.9h0.8c0,0.2-0.1,0.6-0.4,0.9c-0.2,0.2-0.6,0.6-1.6,0.6
			c-1.4,0-2.1-0.9-2.1-2.3c0-0.9,0.2-1.6,0.9-2.1c0.4-0.3,1-0.3,1.2-0.3c2,0,2,1.8,2,2.5H165.1z M167.5,145.1c0-0.4-0.1-1.3-1.1-1.3
			c-0.5,0-1.2,0.3-1.2,1.3H167.5z"/>
		<path class="st0" d="M169.5,146.7h1v1.1h-1V146.7z"/>
	</g>
	<g>
		<path class="st0" d="M2,161.1h0.9l-1.4,6.5H0.6L2,161.1z"/>
		<path class="st0" d="M8.4,167.6c0-0.2,0-0.4,0.1-0.7c-0.6,0.7-1.2,0.8-1.6,0.8c-1,0-1.5-0.6-1.3-1.3c0.1-0.4,0.3-0.9,1.1-1.3
			c0.5-0.3,1.3-0.3,1.6-0.3c0.2,0,0.4,0,0.6,0c0.1-0.6,0.2-0.8,0-1c-0.1-0.2-0.5-0.3-0.7-0.3c-0.9,0-1,0.6-1.1,0.8H6.3
			c0.1-0.2,0.2-0.5,0.5-0.9c0.4-0.4,1.1-0.5,1.6-0.5c0.7,0,1.3,0.2,1.5,0.7c0.1,0.3,0.1,0.5,0,0.7l-0.5,2.2c0,0.1-0.1,0.7-0.2,1.1
			H8.4z M8.2,165.3c-0.3,0-1.6,0-1.8,0.9c-0.1,0.3,0,0.8,0.8,0.8c0.4,0,0.8-0.2,1.1-0.5c0.3-0.3,0.3-0.6,0.5-1.2
			C8.6,165.4,8.5,165.3,8.2,165.3z"/>
		<path class="st0" d="M12,161.1h0.8l-1.4,6.5h-0.8L12,161.1z"/>
		<path class="st0" d="M13.9,166.2c-0.1,0.3,0,0.8,0.8,0.8c0.4,0,0.6-0.1,0.9-0.3c0.1-0.1,0.2-0.3,0.2-0.4c0.1-0.4-0.2-0.5-0.8-0.7
			c-0.9-0.2-1.6-0.4-1.4-1.4c0.2-0.8,1-1.4,2.1-1.4c0.6,0,1.3,0.2,1.5,0.7c0.1,0.3,0,0.5,0,0.7h-0.9c0.2-0.7-0.4-0.7-0.7-0.7
			c-0.1,0-0.9,0-1.1,0.6c-0.1,0.4,0.3,0.5,0.5,0.6c1.2,0.3,1.4,0.4,1.7,0.6c0.2,0.2,0.2,0.5,0.2,0.8c-0.1,0.5-0.5,0.9-0.9,1.1
			c-0.4,0.2-0.9,0.3-1.4,0.3c-0.9,0-1.7-0.4-1.4-1.5H13.9z"/>
		<path class="st0" d="M20.5,162.9c1.8,0,1.9,1.4,1.7,2.4c-0.3,1.3-1.3,2.4-2.8,2.4c-1.5,0-2-1-1.7-2.4
			C18,164.3,18.8,162.9,20.5,162.9z M19.6,167.1c0.6,0,1.5-0.5,1.8-1.8c0.2-1.1-0.2-1.7-0.9-1.7c-0.5,0-1.5,0.3-1.8,1.8
			C18.4,166.2,18.6,167.1,19.6,167.1z"/>
		<path class="st0" d="M26.4,166.2c-0.1,0.3,0,0.8,0.8,0.8c0.4,0,0.6-0.1,0.9-0.3c0.1-0.1,0.2-0.3,0.2-0.4c0.1-0.4-0.2-0.5-0.8-0.7
			c-0.9-0.2-1.6-0.4-1.4-1.4c0.2-0.8,1-1.4,2.1-1.4c0.6,0,1.3,0.2,1.5,0.7c0.1,0.3,0,0.5,0,0.7h-0.9c0.2-0.7-0.4-0.7-0.7-0.7
			c-0.1,0-0.9,0-1.1,0.6c-0.1,0.4,0.3,0.5,0.5,0.6c1.2,0.3,1.4,0.4,1.7,0.6c0.2,0.2,0.2,0.5,0.2,0.8c-0.1,0.5-0.5,0.9-0.9,1.1
			c-0.4,0.2-0.9,0.3-1.4,0.3c-0.9,0-1.7-0.4-1.4-1.5H26.4z"/>
		<path class="st0" d="M33,162.9c1.8,0,1.9,1.4,1.7,2.4c-0.3,1.3-1.3,2.4-2.8,2.4c-1.5,0-2-1-1.7-2.4
			C30.5,164.3,31.3,162.9,33,162.9z M32.1,167.1c0.6,0,1.5-0.5,1.8-1.8c0.2-1.1-0.2-1.7-0.9-1.7c-0.5,0-1.5,0.3-1.8,1.8
			C30.9,166.2,31.1,167.1,32.1,167.1z"/>
		<path class="st0" d="M36.4,163.7l0.1-0.6h0.9l-0.1,0.7c0.6-0.7,1.2-0.8,1.6-0.8c1,0,1.2,0.5,1.3,0.8c0.2-0.3,0.7-0.8,1.7-0.8
			c0.6,0,1.6,0.3,1.3,1.6l-0.6,3h-0.9l0.6-2.9c0.1-0.4,0.1-0.6,0-0.7c-0.1-0.2-0.4-0.4-0.8-0.4c-0.5,0-0.9,0.3-1.1,0.5
			c-0.3,0.3-0.4,0.8-0.4,1l-0.5,2.5h-0.9l0.6-3c0.1-0.6-0.1-1-0.8-1c-0.6,0-1,0.4-1.1,0.5c-0.2,0.3-0.3,0.6-0.4,0.9l-0.5,2.6h-0.9
			L36.4,163.7z"/>
		<path class="st0" d="M45.1,165.5c-0.2,0.9,0,1.6,0.9,1.6c0.5,0,1.1-0.3,1.3-0.9h0.8c-0.1,0.2-0.2,0.6-0.6,0.9
			c-0.2,0.2-0.8,0.6-1.7,0.6c-1.4,0-1.9-0.9-1.6-2.3c0.2-0.9,0.5-1.6,1.4-2.1c0.5-0.3,1-0.3,1.3-0.3c2,0,1.6,1.8,1.4,2.5H45.1z
			 M47.6,164.9c0.1-0.4,0.2-1.3-0.8-1.3c-0.5,0-1.3,0.3-1.5,1.3H47.6z"/>
		<path class="st0" d="M49.4,163h0.8l0.2-0.9l0.9-0.3L51,163h1l-0.1,0.6h-1l-0.6,2.7c0,0.2-0.1,0.6,0.5,0.6c0.2,0,0.3,0,0.4,0
			l-0.1,0.7c-0.2,0-0.4,0.1-0.7,0.1c-0.8,0-1.1-0.2-0.9-1l0.6-3h-0.8L49.4,163z"/>
		<path class="st0" d="M53.1,163.1h0.8l-1,4.5h-0.8L53.1,163.1z M53.4,161.1h1l-0.2,0.9h-1L53.4,161.1z"/>
		<path class="st0" d="M55.4,163.7l0.1-0.6h0.9l-0.1,0.7c0.6-0.7,1.2-0.8,1.6-0.8c1,0,1.2,0.5,1.3,0.8c0.2-0.3,0.7-0.8,1.7-0.8
			c0.6,0,1.6,0.3,1.3,1.6l-0.6,3h-0.9l0.6-2.9c0.1-0.4,0.1-0.6,0-0.7c-0.1-0.2-0.4-0.4-0.8-0.4c-0.5,0-0.9,0.3-1.1,0.5
			c-0.3,0.3-0.4,0.8-0.4,1l-0.5,2.5h-0.9l0.6-3c0.1-0.6-0.1-1-0.8-1c-0.6,0-1,0.4-1.1,0.5c-0.2,0.3-0.3,0.6-0.4,0.9l-0.5,2.6h-0.9
			L55.4,163.7z"/>
		<path class="st0" d="M64.1,165.5c-0.2,0.9,0,1.6,0.9,1.6c0.5,0,1.1-0.3,1.3-0.9h0.8c-0.1,0.2-0.2,0.6-0.6,0.9
			c-0.2,0.2-0.8,0.6-1.7,0.6c-1.4,0-1.9-0.9-1.6-2.3c0.2-0.9,0.5-1.6,1.4-2.1c0.5-0.3,1-0.3,1.3-0.3c2,0,1.6,1.8,1.4,2.5H64.1z
			 M66.6,164.9c0.1-0.4,0.2-1.3-0.8-1.3c-0.5,0-1.3,0.3-1.5,1.3H66.6z"/>
		<path class="st0" d="M68.9,166.2c-0.1,0.3,0,0.8,0.8,0.8c0.4,0,0.6-0.1,0.9-0.3c0.1-0.1,0.2-0.3,0.2-0.4c0.1-0.4-0.2-0.5-0.8-0.7
			c-0.9-0.2-1.6-0.4-1.4-1.4c0.2-0.8,1-1.4,2.1-1.4c0.6,0,1.3,0.2,1.5,0.7c0.1,0.3,0,0.5,0,0.7h-0.9c0.2-0.7-0.4-0.7-0.7-0.7
			c-0.1,0-0.9,0-1.1,0.6c-0.1,0.4,0.3,0.5,0.5,0.6c1.2,0.3,1.4,0.4,1.7,0.6c0.2,0.2,0.2,0.5,0.2,0.8c-0.1,0.5-0.5,0.9-0.9,1.1
			c-0.4,0.2-0.9,0.3-1.4,0.3c-0.9,0-1.7-0.4-1.4-1.5H68.9z"/>
		<path class="st0" d="M76.8,163.1l-0.6,2.9c-0.1,0.4-0.1,1,0.7,1c0.4,0,0.9-0.1,1.2-0.5c0.3-0.3,0.3-0.6,0.4-0.8l0.5-2.6h0.9
			l-0.8,3.7c0,0.1-0.1,0.6-0.2,0.8h-0.9l0.1-0.8c-0.2,0.3-0.6,0.8-1.6,0.8c-1.1,0-1.5-0.6-1.3-1.5l0.6-3H76.8z"/>
		<path class="st0" d="M81.4,166.2c-0.1,0.3,0,0.8,0.8,0.8c0.4,0,0.6-0.1,0.9-0.3c0.1-0.1,0.2-0.3,0.2-0.4c0.1-0.4-0.2-0.5-0.8-0.7
			c-0.9-0.2-1.6-0.4-1.4-1.4c0.2-0.8,1-1.4,2.1-1.4c0.6,0,1.3,0.2,1.5,0.7c0.1,0.3,0,0.5,0,0.7h-0.9c0.2-0.7-0.4-0.7-0.7-0.7
			c-0.1,0-0.9,0-1.1,0.6c-0.1,0.4,0.3,0.5,0.5,0.6c1.2,0.3,1.4,0.4,1.7,0.6c0.2,0.2,0.2,0.5,0.2,0.8c-0.1,0.5-0.5,0.9-0.9,1.1
			c-0.4,0.2-0.9,0.3-1.4,0.3c-0.9,0-1.7-0.4-1.4-1.5H81.4z"/>
		<path class="st0" d="M86.1,165.5c-0.2,0.9,0,1.6,0.9,1.6c0.5,0,1.1-0.3,1.3-0.9h0.8c-0.1,0.2-0.2,0.6-0.6,0.9
			c-0.2,0.2-0.8,0.6-1.7,0.6c-1.4,0-1.9-0.9-1.6-2.3c0.2-0.9,0.5-1.6,1.4-2.1c0.5-0.3,1-0.3,1.3-0.3c2,0,1.6,1.8,1.4,2.5H86.1z
			 M88.6,164.9c0.1-0.4,0.2-1.3-0.8-1.3c-0.5,0-1.3,0.3-1.5,1.3H88.6z"/>
		<path class="st0" d="M94.6,161.1h0.8l-1.2,5.8c0,0.1-0.1,0.5-0.1,0.7h-0.8l0.1-0.7c-0.1,0.1-0.2,0.3-0.5,0.5
			c-0.4,0.3-0.9,0.3-1.2,0.3c-0.6,0-1.9-0.3-1.5-2.3c0.4-1.7,1.5-2.5,2.6-2.5c1,0,1.2,0.6,1.2,0.8L94.6,161.1z M93.7,164
			c-0.1-0.2-0.4-0.5-0.9-0.5c-1.2,0-1.6,1.5-1.6,1.8c-0.2,0.8-0.2,1.7,0.9,1.7c1.3,0,1.6-1.5,1.7-1.8
			C93.9,164.6,93.8,164.2,93.7,164z"/>
		<path class="st0" d="M99.1,163.1h0.8l-1,4.5h-0.8L99.1,163.1z M99.4,161.1h1l-0.2,0.9h-1L99.4,161.1z"/>
		<path class="st0" d="M100.9,163h0.8l0.2-0.9l0.9-0.3l-0.3,1.2h1l-0.1,0.6h-1l-0.6,2.7c0,0.2-0.1,0.6,0.5,0.6c0.2,0,0.3,0,0.4,0
			l-0.1,0.7c-0.2,0-0.4,0.1-0.7,0.1c-0.8,0-1.1-0.2-0.9-1l0.6-3h-0.8L100.9,163z"/>
		<path class="st0" d="M106.4,167.6c0-0.2,0-0.4,0.1-0.7c-0.6,0.7-1.2,0.8-1.6,0.8c-1,0-1.5-0.6-1.3-1.3c0.1-0.4,0.3-0.9,1.1-1.3
			c0.5-0.3,1.3-0.3,1.6-0.3c0.2,0,0.4,0,0.6,0c0.1-0.6,0.2-0.8,0-1c-0.1-0.2-0.5-0.3-0.7-0.3c-0.9,0-1,0.6-1.1,0.8h-0.8
			c0.1-0.2,0.2-0.5,0.5-0.9c0.4-0.4,1.1-0.5,1.6-0.5c0.7,0,1.3,0.2,1.5,0.7c0.1,0.3,0.1,0.5,0,0.7l-0.5,2.2c0,0.1-0.1,0.7-0.2,1.1
			H106.4z M106.3,165.3c-0.3,0-1.6,0-1.8,0.9c-0.1,0.3,0,0.8,0.8,0.8c0.4,0,0.8-0.2,1.1-0.5c0.3-0.3,0.3-0.6,0.5-1.2
			C106.6,165.4,106.5,165.3,106.3,165.3z"/>
		<path class="st0" d="M110,161.1h0.8l-1.4,6.5h-0.8L110,161.1z"/>
		<path class="st0" d="M112.1,163.1h0.8l-1,4.5h-0.8L112.1,163.1z M112.4,161.1h1l-0.2,0.9h-1L112.4,161.1z"/>
		<path class="st0" d="M116.8,164.5c0-0.2,0.1-0.9-0.7-0.9c-1.2,0-1.5,1.4-1.5,1.7c-0.2,0.9-0.2,1.8,0.7,1.8c0.7,0,1.1-0.5,1.2-1
			h0.9c-0.2,0.9-1.1,1.6-2.2,1.6c-0.3,0-1-0.1-1.4-0.6c-0.2-0.3-0.4-0.8-0.2-1.7c0.4-1.9,1.7-2.4,2.6-2.4c0.3,0,1,0.1,1.3,0.6
			c0.3,0.4,0.2,0.8,0.2,1H116.8z"/>
		<path class="st0" d="M118.9,166.2c-0.1,0.3,0,0.8,0.8,0.8c0.4,0,0.6-0.1,0.9-0.3c0.1-0.1,0.2-0.3,0.2-0.4c0.1-0.4-0.2-0.5-0.8-0.7
			c-0.9-0.2-1.6-0.4-1.4-1.4c0.2-0.8,1-1.4,2.1-1.4c0.6,0,1.3,0.2,1.5,0.7c0.1,0.3,0,0.5,0,0.7h-0.9c0.2-0.7-0.4-0.7-0.7-0.7
			c-0.1,0-0.9,0-1.1,0.6c-0.1,0.4,0.3,0.5,0.5,0.6c1.2,0.3,1.4,0.4,1.7,0.6c0.2,0.2,0.2,0.5,0.2,0.8c-0.1,0.5-0.5,0.9-0.9,1.1
			c-0.4,0.2-0.9,0.3-1.4,0.3c-0.9,0-1.7-0.4-1.4-1.5H118.9z"/>
		<path class="st0" d="M126.1,163.1h0.8l-1,4.5h-0.8L126.1,163.1z M126.4,161.1h1l-0.2,0.9h-1L126.4,161.1z"/>
		<path class="st0" d="M128.5,163.6l0.1-0.5h0.8l-0.2,0.7c0.1-0.2,0.6-0.8,1.6-0.8c0.4,0,1.6,0.2,1.3,1.5l-0.6,3.1h-0.9l0.6-2.9
			c0.1-0.3,0.1-0.6-0.1-0.8c-0.2-0.2-0.5-0.3-0.7-0.3c-0.6,0-1.3,0.4-1.5,1.4l-0.5,2.6h-0.8L128.5,163.6z"/>
		<path class="st0" d="M136.4,163.7l0.1-0.6h0.9l-0.1,0.7c0.6-0.7,1.2-0.8,1.6-0.8c1,0,1.2,0.5,1.3,0.8c0.2-0.3,0.7-0.8,1.7-0.8
			c0.6,0,1.6,0.3,1.3,1.6l-0.6,3h-0.9l0.6-2.9c0.1-0.4,0.1-0.6,0-0.7c-0.1-0.2-0.4-0.4-0.8-0.4c-0.5,0-0.9,0.3-1.1,0.5
			c-0.3,0.3-0.4,0.8-0.4,1l-0.5,2.5h-0.9l0.6-3c0.1-0.6-0.1-1-0.8-1c-0.6,0-1,0.4-1.1,0.5c-0.2,0.3-0.3,0.6-0.4,0.9l-0.5,2.6h-0.9
			L136.4,163.7z"/>
		<path class="st0" d="M146,167.6l-1,1.7h-0.9l1-1.7l-0.9-4.5h1l0.7,3.6l2.2-3.6h0.9L146,167.6z"/>
		<path class="st0" d="M153.1,163.7c0.2-0.2,0.6-0.8,1.6-0.8c0.5,0,1,0.1,1.3,0.6c0.2,0.3,0.4,0.7,0.2,1.7c-0.2,0.9-0.5,1.3-0.8,1.6
			c-0.5,0.5-1.1,0.8-1.7,0.8c-0.2,0-0.6,0-1-0.3c-0.2-0.2-0.3-0.3-0.3-0.5l-0.2,0.7h-0.8l0.2-0.8l1.2-5.7h0.8L153.1,163.7z
			 M154.4,163.5c-1.3,0-1.6,1.5-1.7,1.8c-0.1,0.3-0.4,1.7,0.9,1.7c1,0,1.5-1,1.7-1.8C155.4,164.8,155.6,163.5,154.4,163.5z"/>
		<path class="st0" d="M159.9,162.9c1.8,0,1.9,1.4,1.7,2.4c-0.3,1.3-1.3,2.4-2.8,2.4c-1.5,0-2-1-1.7-2.4
			C157.3,164.3,158.1,162.9,159.9,162.9z M158.9,167.1c0.6,0,1.5-0.5,1.8-1.8c0.2-1.1-0.2-1.7-0.9-1.7c-0.5,0-1.5,0.3-1.8,1.8
			C157.8,166.2,158,167.1,158.9,167.1z"/>
		<path class="st0" d="M166.9,161.1h0.8l-1.2,5.8c0,0.1-0.1,0.5-0.1,0.7h-0.8l0.1-0.7c-0.1,0.1-0.2,0.3-0.5,0.5
			c-0.4,0.3-0.9,0.3-1.2,0.3c-0.6,0-1.9-0.3-1.5-2.3c0.4-1.7,1.5-2.5,2.6-2.5c1,0,1.2,0.6,1.2,0.8L166.9,161.1z M166,164
			c-0.1-0.2-0.4-0.5-0.9-0.5c-1.2,0-1.6,1.5-1.6,1.8c-0.2,0.8-0.2,1.7,0.9,1.7c1.3,0,1.6-1.5,1.7-1.8
			C166.2,164.6,166.2,164.2,166,164z"/>
		<path class="st0" d="M170,167.6l-1,1.7h-0.9l1-1.7l-0.9-4.5h1l0.7,3.6l2.2-3.6h0.9L170,167.6z"/>
		<path class="st0" d="M178.7,164.5c0-0.2,0.1-0.9-0.7-0.9c-1.2,0-1.5,1.4-1.5,1.7c-0.2,0.9-0.2,1.8,0.7,1.8c0.7,0,1.1-0.5,1.2-1
			h0.9c-0.2,0.9-1.1,1.6-2.2,1.6c-0.3,0-1-0.1-1.4-0.6c-0.2-0.3-0.4-0.8-0.2-1.7c0.4-1.9,1.7-2.4,2.6-2.4c0.3,0,1,0.1,1.3,0.6
			c0.3,0.4,0.2,0.8,0.2,1H178.7z"/>
		<path class="st0" d="M182.9,162.9c1.8,0,1.9,1.4,1.7,2.4c-0.3,1.3-1.3,2.4-2.8,2.4c-1.5,0-2-1-1.7-2.4
			C180.3,164.3,181.1,162.9,182.9,162.9z M182,167.1c0.6,0,1.5-0.5,1.8-1.8c0.2-1.1-0.2-1.7-0.9-1.7c-0.5,0-1.5,0.3-1.8,1.8
			C180.8,166.2,181,167.1,182,167.1z"/>
		<path class="st0" d="M186.2,163.8c0-0.2,0.1-0.3,0.1-0.7h0.9l-0.1,0.7c0.6-0.7,1.3-0.8,1.7-0.8c1,0,1.8,0.7,1.4,2.3
			c-0.4,1.7-1.5,2.4-2.6,2.4c-0.7,0-1.1-0.3-1.2-0.7l-0.5,2.2H185L186.2,163.8z M187.6,167.1c0.2,0,0.7,0,1-0.4
			c0.4-0.4,0.6-1.1,0.7-1.4c0.2-0.8,0.1-1.7-0.9-1.7c-1.4,0-1.7,1.4-1.7,1.8C186.6,166,186.4,167.1,187.6,167.1z"/>
		<path class="st0" d="M193,167.6l-1,1.7h-0.9l1-1.7l-0.9-4.5h1l0.7,3.6l2.2-3.6h0.9L193,167.6z"/>
		<path class="st0" d="M195.6,166.5h1l-0.2,1.1h-1L195.6,166.5z"/>
	</g>
</g>
<g>
	<g>
		<path class="st0" d="M251.8,92.7c-0.3,0.9-1,1-1.4,1c-0.3,0-1.1-0.1-1.1-0.8c0-0.2,0.1-0.5,0.7-1l2.8-2.7l0.3,0.1L251.8,92.7z
			 M255.1,92.7c-0.3,0.9-1,1-1.4,1c-0.3,0-1.1-0.1-1.1-0.8c0-0.2,0.1-0.5,0.7-1l2.8-2.7l0.3,0.1L255.1,92.7z"/>
		<path class="st0" d="M256.9,100.8c1.1-0.5,1.7-0.7,1.8-0.9c0.2-0.5,2-8.5,2-9.2c0-0.3-0.7-0.5-1.7-1v-0.3c1.1,0.1,2.1,0.1,3.2,0.1
			c1,0,2-0.1,2.9-0.1v0.3c-1.2,0.5-1.9,0.8-1.9,1.1c-0.4,1.8-1.9,8-1.9,9.1c0,0.2,0.8,0.5,1.7,0.9v0.3c-0.6-0.1-1.6-0.1-2.9-0.1
			c-1,0-2.1,0.1-3.1,0.1V100.8z"/>
		<path class="st0" d="M269.9,93.9c1.8-1,2.9-1.7,3.4-1.7c0.3,0,0.6,0.3,0.6,0.7c0,1.2-1.5,5.1-1.5,6.4c0,0.2,0.1,0.3,0.3,0.3
			c0.7,0,2.7-2.2,3.3-3.3c0.8-1.4,1-2.5,1.2-3.7l2.3-0.5c-1.2,5-1.7,7-1.7,7.2c0,0.2,0.1,0.3,0.2,0.3c0.3,0,0.7-0.2,1.2-0.5l0.2,0.4
			c-1.4,0.9-2.6,1.6-3.2,1.6c-0.4,0-0.7-0.3-0.7-0.7c0-0.4,0.4-2.1,0.8-3.6h0c-0.9,1.3-3.5,4.3-5.1,4.3c-0.6,0-1-0.3-1-1
			c0-1.3,1.2-5.7,1.2-6.1c0-0.2-0.1-0.3-0.3-0.3c-0.2,0-0.6,0.2-1.1,0.5L269.9,93.9z"/>
		<path class="st0" d="M281.3,98.5c-0.1,0.4-0.1,0.8-0.1,1.2c0,0.8,0.6,1,1,1c1.1,0,1.8-0.5,1.8-1.3c0-1.4-2.8-2.8-2.8-4.4
			c0-2,2.5-2.8,4-2.8c1.3,0,1.7,0.2,1.7,0.4c0,0.6-0.2,1.4-0.4,2.1h-0.5c0-1.4-0.5-1.9-1.3-1.9c-1.2,0-1.5,0.8-1.5,1.3
			c0,1.4,2.8,2.9,2.8,4.5c0,1.7-2,2.7-4.1,2.7c-1.2,0-2-0.4-2-0.6s0.6-1.5,0.9-2.2H281.3z"/>
		<path class="st0" d="M294,99.1c-0.9,1-2.4,2.2-3.9,2.2c-1.9,0-2.6-1.4-2.6-2.9c0-3.3,3.2-6.2,5.7-6.2c0.9,0,1.8,0.3,1.8,1.3
			c0,2-3.6,3.3-5.3,4V98c0,0.8,0.2,1.9,1.4,1.9c1,0,1.9-0.7,2.6-1.2L294,99.1z M289.7,96.9c1.4-0.6,3.1-1.5,3.1-2.9
			c0-0.5-0.2-1-0.7-1C290.6,93.1,289.9,95.4,289.7,96.9z"/>
		<path class="st0" d="M301.6,89.2c0.7-0.2,2.7-1.1,3.3-1.1c0.3,0,0.4,0.3,0.4,0.5c0,0.2-0.1,0.7-0.2,0.9l-1.7,7.2
			c-0.3,1.3-0.5,2.1-0.5,2.4c0,0.2,0,0.4,0.3,0.4c0.3,0,0.7-0.3,1.2-0.6l0.2,0.4c-1.5,1-2.8,1.9-3.3,1.9c-0.3,0-0.6-0.2-0.6-0.7
			c0-0.5,0.4-2.1,0.5-2.9h0c-0.8,1.2-2.7,3.5-4.3,3.5c-1.2,0-1.6-1.2-1.6-2.2c0-3,3.6-6.9,6.5-6.9c0.2,0,0.4,0,0.5,0.1
			c0.1-0.6,0.4-2,0.4-2.4c0-0.1,0-0.3-0.3-0.3c-0.3,0-0.5,0.1-0.8,0.2L301.6,89.2z M298.3,99.6c0.9,0,3.1-2.7,3.4-3.9l0.5-2.3
			c-0.3-0.1-0.7-0.2-1-0.2c-2.4,0-3.6,3-3.6,5.3C297.6,99.1,297.8,99.6,298.3,99.6z"/>
		<path class="st0" d="M315.3,99.6c-1.6,1-2.8,1.6-3.4,1.6c-0.4,0-0.8-0.1-0.8-0.9c0-0.7,1.4-5.5,1.4-6.1c0-0.2-0.1-0.4-0.3-0.4
			c-0.3,0-0.8,0.3-1.2,0.5l-0.2-0.4c2.6-1.4,3.2-1.7,3.5-1.7c0.5,0,0.6,0.2,0.6,0.7c0,0.9-1.5,6.3-1.5,6.7c0,0.1,0,0.2,0.2,0.2
			c0.3,0,0.8-0.3,1.4-0.6L315.3,99.6z M314.9,88.1c0.6,0,1.2,0.4,1.2,1.2c0,0.6-0.5,1.4-1.4,1.4c-0.7,0-1.2-0.5-1.2-1.3
			C313.5,88.6,314.2,88.1,314.9,88.1z"/>
		<path class="st0" d="M317.2,92.7c1.7-0.2,2.8-1.2,3.5-2.7h0.8l-0.6,2.6h1.7l-0.1,0.7h-1.7c-0.6,2.8-1.2,5.8-1.2,6.2
			c0,0.2,0.1,0.4,0.3,0.4c0.2,0,0.7-0.3,1.4-0.6l0.2,0.4c-1.6,1-2.6,1.7-3.4,1.7c-0.6,0-0.8-0.5-0.8-0.9c0-0.7,0.5-2.6,1.3-7.1h-1.5
			L317.2,92.7z"/>
		<path class="st0" d="M331.6,99.3c-0.5,0.3-2.5,2-3.2,2c-0.4,0-0.6-0.3-0.6-0.6c0-0.6,0.3-2,0.5-2.9h0c-0.8,1.3-2.5,3.6-4.3,3.6
			c-1,0-1.5-0.9-1.5-2.1c0-2.3,3.1-7,7.3-7c0.8,0,1.4,0.1,2.1,0.3c-0.7,0.7-1.8,5.8-1.8,6.9c0,0.1,0.1,0.3,0.2,0.3
			c0.2,0,0.8-0.5,1.1-0.7L331.6,99.3z M324.7,98.8c0,0.4,0.3,0.8,0.7,0.8c1.3,0,3.4-2.7,3.9-6.1c-0.3-0.1-0.6-0.2-1-0.2
			C325.5,93.3,324.7,97.6,324.7,98.8z"/>
		<path class="st0" d="M336.6,99.7c-1.4,0.8-2.6,1.6-3.2,1.6c-0.5,0-0.7-0.3-0.7-0.8c0-1.7,2.2-9.4,2.2-10.6c0-0.2-0.1-0.3-0.3-0.3
			c-0.3,0-0.5,0.2-1,0.4l-0.2-0.5c2.3-1.1,3.1-1.4,3.4-1.4c0.3,0,0.5,0.2,0.5,0.5c0,0.9-2.3,9.8-2.3,10.8c0,0.3,0.1,0.4,0.3,0.4
			c0.2,0,0.6-0.2,1.2-0.6L336.6,99.7z"/>
		<path class="st0" d="M342.3,99.6c-1.6,1-2.8,1.6-3.4,1.6c-0.4,0-0.8-0.1-0.8-0.9c0-0.7,1.4-5.5,1.4-6.1c0-0.2-0.1-0.4-0.3-0.4
			c-0.3,0-0.8,0.3-1.2,0.5l-0.2-0.4c2.6-1.4,3.2-1.7,3.5-1.7c0.5,0,0.6,0.2,0.6,0.7c0,0.9-1.5,6.3-1.5,6.7c0,0.1,0,0.2,0.2,0.2
			c0.3,0,0.8-0.3,1.4-0.6L342.3,99.6z M341.9,88.1c0.6,0,1.2,0.4,1.2,1.2c0,0.6-0.5,1.4-1.4,1.4c-0.7,0-1.2-0.5-1.2-1.3
			C340.5,88.6,341.2,88.1,341.9,88.1z"/>
		<path class="st0" d="M349.9,98.7c-1.9,1.8-2.7,2.6-4.1,2.6c-1.4,0-2.2-0.9-2.2-2.6c0-3.4,3.3-6.4,5.9-6.4c0.4,0,1,0.1,1,0.4
			c0,0.2-0.3,1.2-0.6,2.3h-0.5c0-0.3,0.1-0.6,0.1-0.8c0-0.6-0.1-0.9-0.7-0.9c-1.8,0-3,2.8-3,5c0,1,0.4,1.7,1.2,1.7
			c0.8,0,1.3-0.5,2.6-1.5L349.9,98.7z"/>
		<path class="st0" d="M351.3,98.5c-0.1,0.4-0.1,0.8-0.1,1.2c0,0.8,0.6,1,1,1c1.1,0,1.8-0.5,1.8-1.3c0-1.4-2.8-2.8-2.8-4.4
			c0-2,2.5-2.8,4-2.8c1.3,0,1.7,0.2,1.7,0.4c0,0.6-0.2,1.4-0.4,2.1h-0.5c0-1.4-0.4-1.9-1.3-1.9c-1.2,0-1.5,0.8-1.5,1.3
			c0,1.4,2.8,2.9,2.8,4.5c0,1.7-2,2.7-4.1,2.7c-1.2,0-2-0.4-2-0.6s0.6-1.5,0.9-2.2H351.3z"/>
	</g>
	<g>
		<path class="st0" d="M252.1,114.3c1.4-1.2,2.7-2.1,3.1-2.1c0.5,0,0.6,0.6,0.6,1.4l0.3,6h0l2.3-4.1c0.3-0.5,0.5-0.8,0.5-1.2
			c0-0.4-0.2-0.7-0.3-1l0.1-0.2l2.2-0.9l0.3,7.5h0l2.6-3.9c0.3-0.4,0.3-0.5,0.3-0.8c0-0.5-0.7-1.1-0.7-1.2c0-0.3,1.3-1.5,1.5-1.5
			c0.3,0,0.8,0.7,0.8,1.3c0,0.6-0.2,1.2-0.7,1.9l-3.7,5.3l-2,0.6l-0.3-5.5h0l-2.3,4.1c-0.4,0.6-0.4,0.7-0.4,0.9l-2,0.5
			c0-0.8-0.1-1.6-0.2-2.8l-0.3-3.4c-0.1-0.8-0.1-1.1-0.3-1.1c-0.2,0-0.6,0.4-1.1,0.7L252.1,114.3z"/>
		<path class="st0" d="M267.4,109.6c1.5-0.7,3.1-1.5,3.5-1.5c0.2,0,0.4,0.2,0.4,0.5c0,0.4-0.9,4-2,8.5h0c1.7-2.6,3.9-4.8,5.4-4.9
			c0.6,0,1,0.3,1,1c0,1-1.5,5.8-1.5,6.2c0,0.2,0.1,0.3,0.3,0.3c0.3,0,0.7-0.1,1.2-0.5l0.2,0.3c-1.3,0.9-2.5,1.7-3.3,1.7
			c-0.4,0-0.7-0.3-0.7-0.8c0-0.7,1.6-5.8,1.6-6.2c0-0.2-0.1-0.3-0.4-0.3c-0.7,0-2.8,2.3-3.8,4.3c-0.4,0.8-0.7,1.7-0.8,2.7
			c-0.8,0.1-1.6,0.2-2.3,0.4c0.6-2.8,1.7-6.4,2.6-11.3c0-0.3-0.1-0.4-0.3-0.4c-0.2,0-0.6,0.2-1.1,0.4L267.4,109.6z"/>
		<path class="st0" d="M283.5,119.1c-0.9,1-2.4,2.2-3.9,2.2c-1.9,0-2.6-1.4-2.6-2.9c0-3.3,3.2-6.2,5.7-6.2c0.9,0,1.8,0.3,1.8,1.3
			c0,2-3.6,3.3-5.3,4v0.4c0,0.8,0.2,1.9,1.4,1.9c1,0,1.9-0.7,2.6-1.2L283.5,119.1z M279.2,116.9c1.4-0.6,3.1-1.5,3.1-2.9
			c0-0.5-0.2-1-0.7-1C280.2,113.1,279.4,115.4,279.2,116.9z"/>
		<path class="st0" d="M285.4,113.9c1.8-1,3.1-1.7,3.5-1.7c0.2,0,0.5,0.1,0.5,0.7c0,0.5-0.4,1.6-1.1,4.1h0c1.7-2.6,3.9-4.8,5.4-4.9
			c0.6,0,1,0.3,1,1c0,1-1.5,5.8-1.5,6.2c0,0.2,0.1,0.3,0.3,0.3c0.3,0,0.7-0.1,1.2-0.5l0.2,0.3c-1.3,0.9-2.5,1.7-3.3,1.7
			c-0.4,0-0.7-0.3-0.7-0.8c0-0.7,1.6-5.8,1.6-6.2c0-0.2-0.1-0.3-0.4-0.3c-0.7,0-2.8,2.3-3.8,4.3c-0.4,0.8-0.7,1.7-0.8,2.7
			c-0.8,0.1-1.6,0.2-2.3,0.4c0.6-2.8,1.7-6.4,1.7-7.1c0-0.1-0.1-0.2-0.2-0.2c-0.3,0-0.6,0.2-1.2,0.5L285.4,113.9z"/>
		<path class="st0" d="M307.1,109.2c0.7-0.2,2.7-1.1,3.3-1.1c0.3,0,0.4,0.3,0.4,0.5c0,0.2-0.1,0.7-0.2,0.9l-1.7,7.2
			c-0.3,1.3-0.5,2.1-0.5,2.4c0,0.2,0,0.4,0.3,0.4c0.3,0,0.7-0.3,1.2-0.6l0.2,0.4c-1.5,1-2.8,1.9-3.3,1.9c-0.3,0-0.6-0.2-0.6-0.7
			c0-0.5,0.4-2.1,0.5-2.9h0c-0.8,1.2-2.7,3.5-4.3,3.5c-1.2,0-1.6-1.2-1.6-2.2c0-3,3.6-6.9,6.5-6.9c0.2,0,0.4,0,0.5,0.1
			c0.1-0.6,0.4-2,0.4-2.4c0-0.1,0-0.3-0.3-0.3c-0.3,0-0.5,0.1-0.8,0.2L307.1,109.2z M303.8,119.6c0.9,0,3.1-2.7,3.4-3.9l0.5-2.3
			c-0.3-0.1-0.7-0.2-1-0.2c-2.4,0-3.6,3-3.6,5.3C303.1,119.1,303.4,119.6,303.8,119.6z"/>
		<path class="st0" d="M317.5,119.1c-0.9,1-2.4,2.2-3.9,2.2c-1.9,0-2.6-1.4-2.6-2.9c0-3.3,3.2-6.2,5.7-6.2c0.9,0,1.8,0.3,1.8,1.3
			c0,2-3.6,3.3-5.3,4v0.4c0,0.8,0.2,1.9,1.4,1.9c1,0,1.9-0.7,2.6-1.2L317.5,119.1z M313.2,116.9c1.4-0.6,3.1-1.5,3.1-2.9
			c0-0.5-0.2-1-0.7-1C314.2,113.1,313.4,115.4,313.2,116.9z"/>
		<path class="st0" d="M319.9,118.5c-0.1,0.4-0.1,0.8-0.1,1.2c0,0.8,0.6,1,1,1c1.1,0,1.8-0.5,1.8-1.3c0-1.4-2.8-2.8-2.8-4.4
			c0-2,2.5-2.8,4-2.8c1.3,0,1.7,0.2,1.7,0.4c0,0.6-0.2,1.4-0.4,2.1h-0.5c0-1.4-0.5-1.9-1.3-1.9c-1.2,0-1.5,0.8-1.5,1.3
			c0,1.4,2.8,2.9,2.8,4.5c0,1.7-2,2.7-4.1,2.7c-1.2,0-2-0.4-2-0.6s0.6-1.5,0.9-2.2H319.9z"/>
		<path class="st0" d="M330.8,119.6c-1.6,1-2.8,1.6-3.4,1.6c-0.4,0-0.8-0.1-0.8-0.9c0-0.7,1.4-5.5,1.4-6.1c0-0.2-0.1-0.4-0.3-0.4
			c-0.3,0-0.8,0.3-1.2,0.5l-0.2-0.4c2.6-1.4,3.2-1.7,3.5-1.7c0.5,0,0.6,0.2,0.6,0.7c0,0.9-1.5,6.3-1.5,6.7c0,0.1,0,0.2,0.2,0.2
			c0.3,0,0.8-0.3,1.4-0.6L330.8,119.6z M330.5,108.1c0.6,0,1.2,0.4,1.2,1.2c0,0.6-0.5,1.4-1.4,1.4c-0.7,0-1.2-0.5-1.2-1.3
			C329.1,108.6,329.8,108.1,330.5,108.1z"/>
		<path class="st0" d="M338.9,119.4c-0.5,3.4-2.2,5.5-6.3,5.5c-1.2,0-2-0.4-2-1.2c0-0.9,1.7-1.9,2.3-2.4l0.3,0.3
			c-0.4,0.4-0.8,0.8-0.8,1.4c0,0.7,0.8,1,1.4,1c2.4,0,2.7-2.4,3-4.1l0.4-2.3h0c-0.6,1.3-2.1,2.7-3.6,2.7c-1,0-1.4-1.1-1.4-2
			c0-3.3,3.3-6.1,6.5-6.1c0.6,0,1.3,0.1,2,0.3c-0.5,0.5-0.9,2-1.1,3.3L338.9,119.4z M338,113.5c-0.4-0.1-0.8-0.1-1.2-0.1
			c-2,0-2.5,2.8-2.5,4.3c0,0.6,0.3,1,0.8,1c1.1,0,2.2-1.6,2.8-4.3L338,113.5z"/>
		<path class="st0" d="M341.4,113.9c1.8-1,3.1-1.7,3.5-1.7c0.2,0,0.5,0.1,0.5,0.7c0,0.5-0.4,1.6-1.1,4.1h0c1.7-2.6,3.9-4.8,5.4-4.9
			c0.6,0,1,0.3,1,1c0,1-1.5,5.8-1.5,6.2c0,0.2,0.1,0.3,0.3,0.3c0.3,0,0.7-0.1,1.2-0.5l0.2,0.3c-1.3,0.9-2.5,1.7-3.3,1.7
			c-0.4,0-0.7-0.3-0.7-0.8c0-0.7,1.6-5.8,1.6-6.2c0-0.2-0.1-0.3-0.4-0.3c-0.7,0-2.8,2.3-3.8,4.3c-0.4,0.8-0.7,1.7-0.8,2.7
			c-0.8,0.1-1.6,0.2-2.3,0.4c0.6-2.8,1.7-6.4,1.7-7.1c0-0.1-0.1-0.2-0.2-0.2c-0.3,0-0.6,0.2-1.2,0.5L341.4,113.9z"/>
		<path class="st0" d="M356.8,119.6c-1.6,1-2.8,1.6-3.4,1.6c-0.4,0-0.8-0.1-0.8-0.9c0-0.7,1.4-5.5,1.4-6.1c0-0.2-0.1-0.4-0.3-0.4
			c-0.3,0-0.8,0.3-1.2,0.5l-0.2-0.4c2.6-1.4,3.2-1.7,3.5-1.7c0.4,0,0.6,0.2,0.6,0.7c0,0.9-1.5,6.3-1.5,6.7c0,0.1,0,0.2,0.2,0.2
			c0.3,0,0.8-0.3,1.4-0.6L356.8,119.6z M356.4,108.1c0.6,0,1.2,0.4,1.2,1.2c0,0.6-0.5,1.4-1.4,1.4c-0.7,0-1.2-0.5-1.2-1.3
			C355.1,108.6,355.7,108.1,356.4,108.1z"/>
		<path class="st0" d="M358.4,113.9c1.8-1,3.1-1.7,3.5-1.7c0.2,0,0.5,0.1,0.5,0.7c0,0.5-0.4,1.6-1.1,4.1h0c1.7-2.6,3.9-4.8,5.4-4.9
			c0.6,0,1,0.3,1,1c0,1-1.5,5.8-1.5,6.2c0,0.2,0.1,0.3,0.3,0.3c0.3,0,0.7-0.1,1.2-0.5l0.2,0.3c-1.3,0.9-2.5,1.7-3.3,1.7
			c-0.4,0-0.7-0.3-0.7-0.8c0-0.7,1.6-5.8,1.6-6.2c0-0.2-0.1-0.3-0.4-0.3c-0.7,0-2.8,2.3-3.8,4.3c-0.4,0.8-0.7,1.7-0.8,2.7
			c-0.8,0.1-1.6,0.2-2.3,0.4c0.6-2.8,1.7-6.4,1.7-7.1c0-0.1-0.1-0.2-0.2-0.2c-0.3,0-0.6,0.2-1.2,0.5L358.4,113.9z"/>
		<path class="st0" d="M375.9,119.4c-0.5,3.4-2.2,5.5-6.3,5.5c-1.2,0-2-0.4-2-1.2c0-0.9,1.7-1.9,2.3-2.4l0.3,0.3
			c-0.4,0.4-0.8,0.8-0.8,1.4c0,0.7,0.8,1,1.4,1c2.4,0,2.7-2.4,3-4.1l0.4-2.3h0c-0.6,1.3-2.1,2.7-3.6,2.7c-1,0-1.4-1.1-1.4-2
			c0-3.3,3.3-6.1,6.5-6.1c0.6,0,1.4,0.1,2,0.3c-0.5,0.5-0.9,2-1.1,3.3L375.9,119.4z M374.9,113.5c-0.4-0.1-0.8-0.1-1.2-0.1
			c-2,0-2.5,2.8-2.5,4.3c0,0.6,0.3,1,0.8,1c1.1,0,2.2-1.6,2.8-4.3L374.9,113.5z"/>
	</g>
	<g>
		<path class="st0" d="M254.1,138.5c-0.1,0.4-0.1,0.8-0.1,1.2c0,0.8,0.6,1,1,1c1.1,0,1.8-0.5,1.8-1.3c0-1.4-2.8-2.8-2.8-4.4
			c0-2,2.5-2.8,4-2.8c1.3,0,1.7,0.2,1.7,0.4c0,0.6-0.2,1.4-0.4,2.1h-0.5c0-1.4-0.5-1.9-1.3-1.9c-1.2,0-1.5,0.8-1.5,1.3
			c0,1.4,2.8,2.9,2.8,4.5c0,1.7-2,2.7-4.1,2.7c-1.2,0-2-0.4-2-0.6s0.6-1.5,0.9-2.2H254.1z"/>
		<path class="st0" d="M265.8,132.2c1.3,0,2.7,0.7,2.7,3c0,2.9-3.2,6.1-5.5,6.1c-2,0-2.8-1.4-2.8-2.7
			C260.2,135.4,263.4,132.2,265.8,132.2z M263.7,140.5c2.2,0,2.6-4.4,2.6-5.6c0-1.5-0.6-1.9-1.2-1.9c-1.9,0-2.7,3.5-2.7,5.3
			C262.4,139.5,262.8,140.5,263.7,140.5z"/>
		<path class="st0" d="M269.6,133.9c1.7-0.9,3.1-1.7,3.4-1.7c0.3,0,0.5,0.1,0.5,0.6c0,0.3-0.3,1.7-1,4h0c2.1-3.5,3.6-4.6,4.7-4.6
			c0.6,0,1,0.3,1,0.9c0,0.9-0.4,1.9-0.8,3.6h0c2.1-3.5,3.6-4.6,4.7-4.6c0.5,0,1,0.4,1,1c0,0.6-1.5,5.7-1.5,6.1
			c0,0.3,0.1,0.3,0.3,0.3c0.4,0,0.9-0.4,1.2-0.5l0.2,0.4c-1.6,1-2.6,1.7-3.2,1.7c-0.5,0-0.8-0.4-0.8-0.8c0-0.8,1.5-5.8,1.5-6.3
			c0-0.1-0.1-0.3-0.3-0.3c-0.3,0-1.6,1.3-2.6,3c-0.8,1.4-1,1.7-1.4,4c-0.8,0.1-1.5,0.2-2.2,0.4c0.5-1.3,1.7-6.4,1.8-7.2
			c0-0.1-0.1-0.3-0.3-0.3c-0.3,0-1.6,1.3-2.6,3c-0.8,1.4-1,1.7-1.4,4c-0.8,0.1-1.5,0.2-2.2,0.4c0.6-1.7,1.8-6.6,1.8-7
			c0-0.3-0.1-0.3-0.3-0.3c-0.3,0-0.9,0.3-1.1,0.4L269.6,133.9z"/>
		<path class="st0" d="M290.7,139c-0.9,1-2.4,2.2-3.9,2.2c-1.9,0-2.6-1.4-2.6-2.9c0-3.3,3.2-6.2,5.7-6.2c0.9,0,1.8,0.3,1.8,1.3
			c0,2-3.6,3.3-5.3,4v0.4c0,0.8,0.2,1.9,1.4,1.9c1,0,1.9-0.7,2.6-1.2L290.7,139z M286.4,136.9c1.4-0.6,3.1-1.5,3.1-2.9
			c0-0.5-0.2-1-0.7-1C287.4,133.1,286.6,135.4,286.4,136.9z"/>
		<path class="st0" d="M302.8,132.2c1.3,0,2.7,0.7,2.7,3c0,2.9-3.2,6.1-5.5,6.1c-2,0-2.8-1.4-2.8-2.7
			C297.2,135.4,300.4,132.2,302.8,132.2z M300.7,140.5c2.2,0,2.6-4.4,2.6-5.6c0-1.5-0.6-1.9-1.2-1.9c-1.9,0-2.7,3.5-2.7,5.3
			C299.4,139.5,299.8,140.5,300.7,140.5z"/>
		<path class="st0" d="M306.9,132.5h1.5l0.2-1c0.4-2.2,2.2-3.4,4.2-3.4c0.9,0,1.4,0.1,1.4,0.3c0,0.1-0.2,1-0.4,1.9h-0.6
			c0-0.1,0-0.2,0-0.3c0-0.7-0.5-1-0.9-1c-0.5,0-1.2,0.2-1.5,1.9l-0.3,1.8h1.7l-0.1,0.7h-1.7l-1,6.4c-0.2,1.6-1.6,5.3-4.1,5.3
			c-0.6,0-0.9-0.1-0.9-0.2c0-0.3,0.1-1,0.3-1.7h0.6v0.2c0,0.5,0.2,0.8,0.7,0.8c0.9,0,1.1-1.3,1.3-3.2l1-7.6h-1.5L306.9,132.5z"/>
		<path class="st0" d="M317.5,133.9c1.7-0.9,3.1-1.7,3.4-1.7c0.3,0,0.5,0.1,0.5,0.6c0,0.3-0.3,1.7-1,4h0c2.1-3.5,3.6-4.6,4.7-4.6
			c0.6,0,1,0.3,1,0.9c0,0.9-0.4,1.9-0.8,3.6h0c2.1-3.5,3.6-4.6,4.7-4.6c0.5,0,1,0.4,1,1c0,0.6-1.5,5.7-1.5,6.1
			c0,0.3,0.1,0.3,0.3,0.3c0.4,0,0.9-0.4,1.2-0.5l0.2,0.4c-1.6,1-2.6,1.7-3.2,1.7c-0.5,0-0.8-0.4-0.8-0.8c0-0.8,1.5-5.8,1.5-6.3
			c0-0.1-0.1-0.3-0.3-0.3c-0.3,0-1.6,1.3-2.6,3c-0.8,1.4-1,1.7-1.4,4c-0.8,0.1-1.5,0.2-2.3,0.4c0.5-1.3,1.7-6.4,1.8-7.2
			c0-0.1-0.1-0.3-0.3-0.3c-0.3,0-1.6,1.3-2.6,3c-0.8,1.4-1,1.7-1.4,4c-0.8,0.1-1.5,0.2-2.3,0.4c0.6-1.7,1.8-6.6,1.8-7
			c0-0.3-0.1-0.3-0.3-0.3c-0.3,0-0.9,0.3-1.1,0.4L317.5,133.9z"/>
		<path class="st0" d="M332.2,134.3c1.5-1.3,2.4-2.1,2.9-2.1c0.6,0,0.7,0.2,1.1,3.2l0.6,4.3h0l1.9-3.1c0.4-0.6,0.6-1.2,0.6-1.6
			c0-0.7-0.8-1-0.8-1.2c0-0.4,1.1-1.5,1.4-1.5c0.3,0,0.9,0.7,0.9,1.3c0,0.6-0.2,1.6-2.4,4.8l-2.3,3.3c-1.3,1.9-2.7,3.3-4.2,3.3
			c-0.5,0-0.6-0.1-0.6-0.3c0-0.3,0.3-1.2,0.4-1.7h0.5c0,0.1-0.1,0.3-0.1,0.5c0,0.3,0.1,0.6,0.4,0.6c1,0,2.3-1.7,2.3-2.3
			c0-0.7-0.1-1.4-0.2-2.2l-0.7-3.7c-0.3-1.5-0.4-1.6-0.6-1.6s-0.5,0.3-0.9,0.6L332.2,134.3z"/>
	</g>
	<g>
		<path class="st0" d="M259,157.8L259,157.8c-0.9,1.4-2.8,3.4-4.2,3.4c-1.2,0-1.6-1.2-1.6-2.1c0-3,3.5-6.9,6.5-6.9
			c0.9,0,1.8,0.1,2.6,0.5c-1.1,4.6-2.4,10-2.4,10.6c0,0.2,0.1,0.3,0.3,0.3c0.1,0,0.2,0,0.4,0l-0.1,0.5c-1.1,0.2-2.1,0.5-3.2,0.8
			L259,157.8z M260,153.4c-0.3-0.1-0.7-0.2-1.3-0.2c-2.2,0-3.3,3.4-3.3,5.1c0,0.8,0.3,1.2,0.8,1.2c0.9,0,3.1-2.4,3.4-4.1L260,153.4z
			"/>
		<path class="st0" d="M263.7,153.9c1.8-1,2.9-1.7,3.4-1.7c0.3,0,0.6,0.3,0.6,0.7c0,1.2-1.5,5.1-1.5,6.4c0,0.2,0.1,0.3,0.3,0.3
			c0.7,0,2.7-2.2,3.3-3.3c0.8-1.4,1-2.5,1.2-3.7l2.2-0.5c-1.2,5-1.7,7-1.7,7.2c0,0.2,0.1,0.3,0.2,0.3c0.3,0,0.7-0.2,1.2-0.5l0.2,0.4
			c-1.4,0.9-2.6,1.6-3.2,1.6c-0.4,0-0.7-0.3-0.7-0.7c0-0.4,0.4-2.1,0.8-3.6h0c-0.9,1.3-3.5,4.3-5.1,4.3c-0.6,0-1-0.3-1-1
			c0-1.3,1.2-5.7,1.2-6.1c0-0.2-0.1-0.3-0.3-0.3c-0.2,0-0.6,0.2-1.1,0.5L263.7,153.9z"/>
		<path class="st0" d="M279.8,152.2c1.3,0,2.7,0.7,2.7,3c0,2.9-3.2,6.1-5.5,6.1c-2,0-2.8-1.4-2.8-2.7
			C274.2,155.4,277.4,152.2,279.8,152.2z M277.7,160.5c2.2,0,2.6-4.4,2.6-5.6c0-1.5-0.6-1.9-1.2-1.9c-1.9,0-2.7,3.5-2.7,5.3
			C276.4,159.5,276.8,160.5,277.7,160.5z"/>
		<path class="st0" d="M284,152.7c1.7-0.2,2.8-1.2,3.5-2.7h0.8l-0.6,2.6h1.7l-0.1,0.7h-1.7c-0.6,2.8-1.2,5.8-1.2,6.2
			c0,0.2,0.1,0.4,0.3,0.4c0.2,0,0.7-0.3,1.4-0.6l0.2,0.4c-1.6,1-2.6,1.7-3.4,1.7c-0.6,0-0.8-0.5-0.8-0.9c0-0.7,0.5-2.6,1.3-7.1h-1.5
			L284,152.7z"/>
		<path class="st0" d="M298.4,159.3c-0.5,0.3-2.5,2-3.2,2c-0.4,0-0.6-0.3-0.6-0.6c0-0.6,0.3-2,0.5-2.9h0c-0.8,1.3-2.5,3.6-4.3,3.6
			c-1,0-1.5-0.9-1.5-2.1c0-2.3,3.1-7,7.3-7c0.8,0,1.4,0.1,2.1,0.3c-0.7,0.7-1.8,5.8-1.8,6.9c0,0.1,0.1,0.3,0.2,0.3
			c0.2,0,0.8-0.5,1.1-0.7L298.4,159.3z M291.4,158.8c0,0.4,0.3,0.8,0.7,0.8c1.3,0,3.4-2.7,3.9-6.1c-0.3-0.1-0.6-0.2-1-0.2
			C292.3,153.3,291.4,157.6,291.4,158.8z"/>
		<path class="st0" d="M300,152.7c1.7-0.2,2.8-1.2,3.5-2.7h0.8l-0.6,2.6h1.7l-0.1,0.7h-1.7c-0.6,2.8-1.2,5.8-1.2,6.2
			c0,0.2,0.1,0.4,0.3,0.4c0.2,0,0.7-0.3,1.4-0.6l0.2,0.4c-1.6,1-2.6,1.7-3.4,1.7c-0.6,0-0.8-0.5-0.8-0.9c0-0.7,0.5-2.6,1.3-7.1h-1.5
			L300,152.7z"/>
		<path class="st0" d="M310.1,159.6c-1.6,1-2.8,1.6-3.4,1.6c-0.4,0-0.8-0.1-0.8-0.9c0-0.7,1.4-5.5,1.4-6.1c0-0.2-0.1-0.4-0.3-0.4
			c-0.3,0-0.8,0.3-1.2,0.5l-0.2-0.4c2.6-1.4,3.2-1.7,3.5-1.7c0.5,0,0.6,0.2,0.6,0.7c0,0.9-1.5,6.3-1.5,6.7c0,0.1,0,0.2,0.2,0.2
			c0.3,0,0.8-0.3,1.4-0.6L310.1,159.6z M309.7,148.1c0.6,0,1.2,0.4,1.2,1.2c0,0.6-0.5,1.4-1.4,1.4c-0.7,0-1.2-0.5-1.2-1.3
			C308.3,148.6,309,148.1,309.7,148.1z"/>
		<path class="st0" d="M316.8,152.2c1.3,0,2.7,0.7,2.7,3c0,2.9-3.2,6.1-5.5,6.1c-2,0-2.8-1.4-2.8-2.7
			C311.2,155.4,314.4,152.2,316.8,152.2z M314.7,160.5c2.2,0,2.6-4.4,2.6-5.6c0-1.5-0.6-1.9-1.2-1.9c-1.9,0-2.7,3.5-2.7,5.3
			C313.4,159.5,313.8,160.5,314.7,160.5z"/>
		<path class="st0" d="M320.6,153.9c1.8-1,3.1-1.7,3.5-1.7c0.2,0,0.5,0.1,0.5,0.7c0,0.5-0.4,1.6-1.1,4.1h0c1.7-2.6,3.9-4.8,5.4-4.9
			c0.6,0,1,0.3,1,1c0,1-1.5,5.8-1.5,6.2c0,0.2,0.1,0.3,0.3,0.3c0.3,0,0.7-0.1,1.2-0.5l0.2,0.3c-1.3,0.9-2.5,1.7-3.3,1.7
			c-0.4,0-0.7-0.3-0.7-0.8c0-0.7,1.6-5.8,1.6-6.2c0-0.2-0.1-0.3-0.4-0.3c-0.7,0-2.8,2.3-3.8,4.3c-0.4,0.8-0.7,1.7-0.8,2.7
			c-0.8,0.1-1.6,0.2-2.3,0.4c0.6-2.8,1.7-6.4,1.7-7.1c0-0.1-0.1-0.2-0.2-0.2c-0.3,0-0.6,0.2-1.2,0.5L320.6,153.9z"/>
		<path class="st0" d="M332.1,158.5c-0.1,0.4-0.1,0.8-0.1,1.2c0,0.8,0.6,1,1,1c1.1,0,1.8-0.5,1.8-1.3c0-1.4-2.8-2.8-2.8-4.4
			c0-2,2.5-2.8,4-2.8c1.3,0,1.7,0.2,1.7,0.4c0,0.6-0.2,1.4-0.4,2.1h-0.5c0-1.4-0.5-1.9-1.3-1.9c-1.2,0-1.5,0.8-1.5,1.3
			c0,1.4,2.8,2.9,2.8,4.5c0,1.7-2,2.7-4.1,2.7c-1.2,0-2-0.4-2-0.6s0.6-1.5,0.9-2.2H332.1z"/>
		<path class="st0" d="M339.8,158.7c0.7,0,1.3,0.6,1.3,1.3s-0.6,1.3-1.3,1.3c-0.7,0-1.3-0.6-1.3-1.3S339.1,158.7,339.8,158.7z"/>
		<path class="st0" d="M346.9,150.2c0.3-0.9,1-1,1.4-1c0.3,0,1.1,0.1,1.1,0.8c0,0.2-0.1,0.5-0.7,1l-2.8,2.7l-0.3-0.1L346.9,150.2z
			 M350.1,150.2c0.3-0.9,1-1,1.4-1c0.3,0,1.1,0.1,1.1,0.8c0,0.2-0.1,0.5-0.7,1l-2.8,2.7l-0.3-0.1L350.1,150.2z"/>
	</g>
</g>
<g>
	<path class="st0" d="M2.8,0.7c3.2,0.2,6.4,0.4,7.8,0.4c2.1,0,4.7-0.2,6.2-0.4c2.9,7.6,6.9,16.2,9.3,21.2c3.4-7.2,6.2-13.5,9.3-21.2
		c1.6,0.2,4.1,0.4,6,0.4c1.9,0,4.9-0.2,7.8-0.4v0.7l-4.5,1.8C44.1,3.6,44,3.8,44,5c0,4,1.3,15.5,3,25c0.3,1.5,0.4,1.9,1.4,2.3
		l3.8,1.6v0.7c-3.3-0.2-6.7-0.4-10.2-0.4c-3,0-5.9,0.2-8.8,0.4V34l4.1-1.7c0.7-0.3,1.2-0.7,1.2-1.2c0-2.8-1.4-15.6-2.2-22h-0.1
		c-3.8,8.5-7.8,17-11.1,25.6h-2.3c-3.2-8.4-7.2-16.5-10.8-24.6h-0.1C11,16.8,9.8,27.3,9.8,30.6c0,1.2,0.3,1.4,1.3,1.9l3.8,1.5v0.7
		c-2.5-0.2-5.1-0.4-7.7-0.4c-2.3,0-4.6,0.2-6.8,0.4V34l3.4-1.5c1-0.5,1.2-0.8,1.6-3.7C7.3,16.6,8.2,8.4,8.2,5.1c0-1-0.1-1.5-1.9-2.2
		L2.8,1.5V0.7z"/>
	<path class="st0" d="M67.9,23.1L59.2,6.9c-1.1-2.1-2.1-3.5-2.9-4l-2.9-1.4V0.7c3.2,0.2,6.6,0.4,9.9,0.4c2.8,0,5.5-0.2,8.3-0.4v0.7
		l-2.8,1.2c-0.7,0.3-1.4,0.7-1.4,1.2c0,0.3,0.2,0.9,0.6,1.7l6.1,12.8l6.2-12.9c0.3-0.7,0.5-1.2,0.5-1.6c0-0.6-0.7-0.9-1.5-1.2
		l-2.9-1.2V0.7c2,0.2,5.5,0.4,7.5,0.4c2.2,0,4.5-0.2,6.6-0.4v0.7l-2.9,1.2c-1,0.4-1.4,0.8-2,1.8L76,22.8v6c0,2,0.2,2.7,1.5,3.2
		l4.4,1.9v0.7c-3.5-0.2-6.9-0.4-10.4-0.4c-3.1,0-6.2,0.2-9.3,0.4V34l4.6-2c1.2-0.5,1.2-0.8,1.2-2.1V23.1z"/>
	<path class="st0" d="M135.6,11.3c0-1.7-0.2-5-0.4-6.7c-0.1-0.7-0.7-1.3-1.2-1.5l-3.9-1.6V0.7c3.2,0.2,6.4,0.4,9.5,0.4
		s6.4-0.2,9.5-0.4v0.7l-3.9,1.6c-1.6,0.7-1.6,1.9-1.6,8.2v12.8c0,6.3,0,7.5,1.6,8.2l3.9,1.6v0.7c-3.2-0.2-6.4-0.4-9.5-0.4
		s-6.4,0.2-9.5,0.4V34l3.9-1.6c0.5-0.2,1.1-0.7,1.2-1.5c0.3-1.7,0.4-5,0.4-6.7v-5.6h-15.4v5.6c0,1.7,0.2,5,0.4,6.7
		c0.1,0.7,0.7,1.3,1.2,1.5l3.9,1.6v0.7c-3.2-0.2-6.4-0.4-9.5-0.4c-3.2,0-6.4,0.2-9.5,0.4V34l3.9-1.6c1.6-0.7,1.6-1.9,1.6-8.2V11.3
		c0-6.3,0-7.5-1.6-8.2l-3.9-1.6V0.7c3.2,0.2,6.4,0.4,9.5,0.4c3.2,0,6.4-0.2,9.5-0.4v0.7l-3.9,1.6c-0.5,0.2-1.1,0.7-1.2,1.5
		c-0.3,1.7-0.4,5-0.4,6.7v3.8h15.4V11.3z"/>
	<path class="st0" d="M156.3,11.3c0-7-0.2-7.8-1.5-8.3l-4-1.5V0.7c4.2,0.3,8.4,0.4,12.6,0.4c5.9,0,11.9-0.2,18.1-0.4v9h-0.7
		l-2.2-4.5c-0.5-1-1.3-1-8.3-1h-5.6c-0.2,3.7-0.2,7.7-0.2,10.9h9.2c2.4,0,2.8-0.4,3.4-1.9l1.2-3h0.7c-0.1,2.2-0.3,4.3-0.3,6.6
		c0,2.3,0.2,4.6,0.3,7H178l-1.6-3.7c-0.3-0.7-1-1.6-2.9-1.6h-9.2c0,3.7,0.1,8.4,0.2,12.5c2.4,0.2,4.8,0.2,7.3,0.2
		c6.5,0,6.7-0.2,7.5-1.9l2.1-4.3h1l-0.4,9.7c-7.1-0.1-14-0.4-20.9-0.4c-3.4,0-6.8,0.2-10.3,0.4V34l4.3-1.8c1.1-0.5,1.2-0.8,1.2-8.1
		V11.3z"/>
	<path class="st0" d="M228.9,34.7c-3.3-0.2-6.6-0.4-9.9-0.4c-3.2,0-6.5,0.2-9.7,0.4V34l4.4-1.7c0.7-0.3,0.9-0.4,0.9-0.7
		c0-0.4-0.5-2.1-0.8-2.9l-1.5-4.5h-13.5l-1.4,3.4c-0.4,0.8-1.4,3.7-1.4,4.1s0.2,0.6,1.2,1l3.6,1.3v0.7c-2.5-0.2-5.1-0.4-7.7-0.4
		c-2.4,0-4.8,0.2-7.2,0.4V34l3.4-1.3c0.9-0.4,1.3-0.6,2.4-3c4.7-9.3,10-20.1,14.4-30.2h4.6c3.7,10.1,9.9,24.1,12.3,29.1
		c1,2.1,1.8,3.7,2.6,4l3.2,1.3V34.7z M205.8,9l-5.5,11.7h10.5L205.8,9z"/>
	<path class="st0" d="M235.8,11.3c0-7-0.2-7.8-1.5-8.3l-4-1.5V0.7c3.2,0.2,6.2,0.4,7.9,0.4c4.2,0,7.5-0.4,10.7-0.4
		c11.8,0,21.8,5,21.4,17.5c-0.5,16.1-14.6,16.4-23.5,16.5c-2.2,0.1-5.1-0.4-8.5-0.4c-2.8,0-4.8,0.2-7.9,0.4V34l4.3-1.8
		c1.1-0.5,1.2-0.8,1.2-8.1V11.3z M243.8,24.7c0,2.3,0.2,4.7,0.2,6.9h3.3c7.8,0,13.6-3.9,13.6-13.3c0-8.6-4.6-14.4-14.1-14.4H244
		c-0.1,2.2-0.2,4.6-0.2,6.8V24.7z"/>
	<path class="st0" d="M279.9,11.3c0-6.3,0-7.5-1.6-8.2l-3.9-1.6V0.7c3.2,0.2,6.4,0.4,9.5,0.4s6.4-0.2,9.5-0.4v0.7l-3.9,1.6
		C288,3.8,288,5,288,11.3v11.9c0,2.4,0.1,5.2,0.4,7.4c0.2,1.1,0.5,1.3,1.4,1.7l3.7,1.6v0.7c-3.2-0.2-6.4-0.4-9.5-0.4
		s-6.4,0.2-9.5,0.4V34l3.9-1.6c1.6-0.7,1.6-1.9,1.6-8.2V11.3z"/>
	<path class="st0" d="M328.2,35.6c-7.7-8.9-15.7-17.3-23.6-26.1v14.7c0,3.4,0.2,5.7,0.4,6.7c0.2,0.9,0.4,1.1,1.7,1.6l3.6,1.5v0.7
		c-2.5-0.2-5.1-0.4-7.6-0.4c-2.4,0-4.9,0.2-7.4,0.4V34l3.9-1.6c1.1-0.5,1.3-0.8,1.4-1.5c0.2-1,0.3-3.1,0.3-6.7V11.3
		c0-2.7-0.1-3.9-0.3-6.3c-0.1-1.1-0.5-1.6-1.4-2l-3.9-1.6V0.7c2.5,0.2,5.1,0.4,7.4,0.4c2.2,0,4-0.2,5.8-0.4
		c6.4,7.8,12.8,15.2,19.8,22.4V11.9c0-3.5-0.2-6.5-0.5-7.7c-0.1-0.5-0.4-0.7-0.9-1l-4-1.7V0.7c2.5,0.2,5.1,0.4,7.7,0.4
		c2.4,0,4.7-0.2,7-0.4v0.7l-4.2,2c-0.4,0.2-0.8,0.5-0.9,1.5c-0.1,0.7-0.3,8.2-0.3,11.4c0,3.1,0,11.1,0.2,19.2H328.2z"/>
	<path class="st0" d="M372.3,9.8h-1.3L369,4.7c-0.6-1.6-4-1.6-5.9-1.6c-8.5,0-12.8,6.9-12.8,14.6c0,8.3,4.8,15,13.7,15
		c0.6,0,1.2,0,1.8-0.2c0.1-1.4,0.2-4.6,0.2-5.7c0-4.6-0.2-5.2-1.2-5.6l-5.2-2.3v-0.7c3.3,0.2,6.5,0.4,9.8,0.4c3.2,0,6.4-0.2,9.5-0.4
		v0.7l-4,2c-0.7,0.4-1,0.7-1.1,1c-0.2,1-0.1,2.2-0.1,4.6c0,3.7,0.1,5.4,0.2,7.6c-3.9,1-8.1,1.5-12,1.5c-11.1,0-21-5.2-21-17.2
		c0-13.2,12.4-18.5,22.3-18.5c3,0,6.9,0.4,9.5,0.8L372.3,9.8z"/>
</g>
</svg>
