<?xml version="1.0" encoding="utf-8"?>
<!-- Generator: Adobe Illustrator 25.2.1, SVG Export Plug-In . SVG Version: 6.00 Build 0)  -->
<svg version="1.1" id="Layer_1" xmlns="http://www.w3.org/2000/svg" xmlns:xlink="http://www.w3.org/1999/xlink" x="0px" y="0px"
	 viewBox="0 0 124.3 95.2" style="enable-background:new 0 0 124.3 95.2;" xml:space="preserve">
<style type="text/css">
	.st0{fill:#757575;}
	.st1{font-family:'CenturyGothicPro-Bold';}
	.st2{font-size:4.8021px;}
	.st3{fill:none;stroke:#000000;stroke-width:0.75;stroke-miterlimit:10;}
	.st4{fill:none;stroke:#000000;stroke-width:0.75;stroke-linecap:round;stroke-miterlimit:10;}
	.st5{fill:#4D9ED7;}
	.st6{fill:#E4F1FB;}
	.st7{fill:#50C3C7;}
	.st8{fill:#273D6E;}
	.st9{fill:#050505;}
	.st10{font-size:4px;}
</style>
<text transform="matrix(1 0 0 1 3.1677 93.9652)" class="st0 st1 st2">#2E3f71</text>
<text transform="matrix(1 0 0 1 68.3074 93.9652)" class="st0 st1 st2">#4D9ED7</text>
<text transform="matrix(1 0 0 1 34.9255 93.9652)" class="st0 st1 st2">#50C3C7</text>
<text transform="matrix(1 0 0 1 103.2919 93.9653)" class="st0 st1 st2">#E4F1FB</text>
<polyline class="st3" points="80.5,19.8 80.5,8.7 112.4,8.7 112.4,19.8 "/>
<polyline class="st3" points="45.5,19.7 45.5,8.5 77.1,8.5 77.1,19.7 "/>
<line class="st4" x1="12" y1="5.2" x2="12" y2="14.9"/>
<path class="st5" d="M67.7,71.3v-46c0-6.2,5-11.2,11.2-11.2h0c6.2,0,11.2,5,11.2,11.2v46c0,6.2-5,11.2-11.2,11.2h0
	C72.7,82.5,67.7,77.5,67.7,71.3z"/>
<path class="st6" d="M101.2,71.3v-46c0-6.2,5-11.2,11.2-11.2h0c6.2,0,11.2,5,11.2,11.2v46c0,6.2-5,11.2-11.2,11.2h0
	C106.2,82.5,101.2,77.5,101.2,71.3z"/>
<path class="st7" d="M34.2,71.5V25.3c0-6.2,5-11.2,11.2-11.2h0c6.2,0,11.2,5,11.2,11.2v46.3c0,6.2-5,11.2-11.2,11.2h0
	C39.2,82.7,34.2,77.7,34.2,71.5z"/>
<path class="st8" d="M0.7,71.5V25.3c0-6.2,5-11.2,11.2-11.2h0c6.2,0,11.2,5,11.2,11.2v46.3c0,6.2-5,11.2-11.2,11.2h0
	C5.7,82.7,0.7,77.7,0.7,71.5z"/>
<text transform="matrix(1 0 0 1 79.4219 3.2799)" class="st9 st1 st10">BACKGROUND</text>
<text transform="matrix(1 0 0 1 53.2125 3.28)" class="st9 st1 st10">ACCENT</text>
<text transform="matrix(1 0 0 1 7.4204 3.2804)" class="st9 st1 st10">TEXT</text>
<line class="st4" x1="61.3" y1="5.2" x2="61.3" y2="8.5"/>
<line class="st4" x1="95.7" y1="5.2" x2="95.7" y2="8.5"/>
</svg>
