<?xml version="1.0" encoding="utf-8"?>
<!-- Generator: Adobe Illustrator 24.0.3, SVG Export Plug-In . SVG Version: 6.00 Build 0)  -->
<svg version="1.1" id="Layer_1" xmlns="http://www.w3.org/2000/svg" xmlns:xlink="http://www.w3.org/1999/xlink" x="0px" y="0px"
	 viewBox="0 0 457 94" style="enable-background:new 0 0 457 94;" xml:space="preserve">
<style type="text/css">
	.st0{fill:#8DC6E8;}
	.st1{fill:#0082CA;}
	.st2{fill:#612166;}
	.st3{fill:#70D44B;}
	.st4{fill:#0E7772;}
	.st5{fill:#099BDB;}
	.st6{fill:#A2C900;}
	.st7{fill:#994D30;}
	.st8{fill:#AF7C58;}
	.st9{fill:#3953A3;}
	.st10{fill:#71A850;}
	.st11{fill:#FF6C37;}
	.st12{fill:#E86258;}
	.st13{fill:#4B775A;}
	.st14{fill:#75D3C1;}
	.st15{fill:#7B7BAD;}
	.st16{fill:#B21B31;}
	.st17{fill:#00AE42;}
	.st18{fill:#6BC6C4;}
	.st19{fill:#FF9015;}
	.st20{fill:#67BF95;}
	.st21{fill:#413AA0;}
	.st22{fill:#8E1630;}
	.st23{fill:#FF8300;}
</style>
<g>
	<circle class="st0" cx="-1763.7" cy="1886.2" r="60.5"/>
	<circle class="st1" cx="-1910.6" cy="1886.2" r="60.5"/>
	<circle class="st2" cx="-1763.3" cy="2034.4" r="60.5"/>
	<circle class="st3" cx="-1907.6" cy="2034.4" r="60.5"/>
</g>
<g>
	<circle class="st4" cx="-1763.7" cy="1418" r="60.5"/>
	<circle class="st5" cx="-1910.6" cy="1418.1" r="60.5"/>
	<circle class="st6" cx="-1763.3" cy="1566.2" r="60.5"/>
	<circle class="st7" cx="-1907.6" cy="1566.2" r="60.5"/>
</g>
<g>
	<circle class="st8" cx="-1763.7" cy="949.8" r="60.5"/>
	<circle class="st9" cx="-1910.6" cy="949.8" r="60.5"/>
	<circle class="st10" cx="-1763.3" cy="1097.8" r="60.5"/>
	<circle class="st11" cx="-1907.6" cy="1097.8" r="60.5"/>
</g>
<g>
	<g>
		<circle class="st12" cx="-1341" cy="1902.1" r="60.5"/>
		<circle class="st13" cx="-1488" cy="1902.1" r="60.5"/>
		<circle class="st14" cx="-1340.7" cy="2050.2" r="60.5"/>
		<circle class="st15" cx="-1485" cy="2050.2" r="60.5"/>
	</g>
	<g>
		<circle class="st16" cx="-1341" cy="952.2" r="60.5"/>
		<circle class="st17" cx="-1488" cy="952.2" r="60.5"/>
		<circle class="st18" cx="-1340.7" cy="1100.3" r="60.5"/>
		<circle class="st19" cx="-1485" cy="1100.3" r="60.5"/>
	</g>
	<g>
		<circle class="st20" cx="-1341" cy="1427.2" r="60.5"/>
		<circle class="st21" cx="-1488" cy="1427.2" r="60.5"/>
		<circle class="st22" cx="-1340.7" cy="1575.3" r="60.5"/>
		<circle class="st23" cx="-1485" cy="1575.2" r="60.5"/>
	</g>
</g>
<rect class="st9" width="94" height="94"/>
<rect x="121" class="st8" width="94" height="94"/>
<rect x="242" class="st11" width="94" height="94"/>
<rect x="363" class="st10" width="94" height="94"/>
</svg>
