<?xml version="1.0" encoding="utf-8"?>
<!-- Generator: Adobe Illustrator 24.0.3, SVG Export Plug-In . SVG Version: 6.00 Build 0)  -->
<svg version="1.1" id="Layer_1" xmlns="http://www.w3.org/2000/svg" xmlns:xlink="http://www.w3.org/1999/xlink" x="0px" y="0px"
	 viewBox="0 0 332.6 26.3" style="enable-background:new 0 0 332.6 26.3;" xml:space="preserve">
<style type="text/css">
	.st0{enable-background:new    ;}
</style>
<g class="st0">
	<path d="M0.7,11.2V1V0.9c0.7-0.1,2.2-0.2,3.4-0.2c0.9,0,2.2,0,3.1,0.1c1.4,0.1,3,0.4,4.3,1.1c2.2,1.1,4.1,3.4,4.1,6.9
		c0,1.5-0.4,2.9-1,4C13.9,14,13,15,11.9,15.6c-0.8,0.5-1.8,0.9-2.9,1.2c-1.2,0.3-2.5,0.4-3.8,0.4v0.9v7.4v0.1H2.9H0.7v-0.1v-11V11.2
		z M10.9,8.8c0-1.5-0.8-2.8-1.9-3.4C8.3,5,7.3,4.8,6.3,4.8c-0.3,0-0.7,0-1.1,0v8.4h1.1c0.9-0.1,1.8-0.3,2.5-0.6
		c0.5-0.3,1.1-0.8,1.5-1.4S10.9,9.8,10.9,8.8L10.9,8.8z"/>
</g>
<g class="st0">
	<path d="M19,11.2V0.9V0.8h6.4h6v4h-0.1h-3.6h-4V11H28h2.6h0.1v1.9V15h-0.1H28h-4.2v6v0.5h5.5h2.3h0.1v4h-5.8H19v-0.1v-11V11.2z"/>
	<path d="M56.1,25.8h-0.6c-5.6-5.5-8.9-8.8-11.1-11c-1.6-1.6-2.6-2.6-4.4-4.6l0,0c0,1.2,0,2.2,0,4.7v10.5v0.1h-2.3h-2.1v-0.1v-11
		V0.5h0.6c5.8,5.7,9.2,9.1,11.3,11.3c1.4,1.4,2.6,2.7,4.1,4.3h0.1c0-1.5,0-2.5,0-5.3V0.9V0.8H54h2.1v0.1v10.4V25.8z"/>
	<path d="M60.5,11.2V0.9V0.8h2.4h2.4v0.1v10.4v3.1c0,2.3,0.2,3.9,0.9,5c0.9,1.4,2.6,2.2,4.4,2.2c1.9,0,3.4-0.7,4.3-2.1
		c0.8-1.2,1-2.9,1-5.3v-2.9V0.9V0.8h2.3h2.3v0.1v10.4v3c0,3.2-0.3,5.3-1.4,7.1c-1.3,2.5-4.4,4.6-8.6,4.6c-4.3,0-7.5-1.8-9-4.8
		c-0.9-1.7-1.1-3.6-1.1-6.7L60.5,11.2L60.5,11.2z"/>
</g>
<g class="st0">
	<path d="M87.1,0.6h0.6c7.8,13.4,8.7,15,9.6,16.9l0,0c0.9-1.9,1.8-3.4,9.8-16.9h0.6l1.8,13.8c1.2,9.4,1.5,10.8,1.5,11v0.1h-2.3h-2.5
		v-0.1c0-0.2-0.3-1.9-0.9-7.5c-0.3-2.2-0.4-4.1-0.5-6l0,0c-1,2.2-1.7,3.6-2.7,5.4c-1,1.7-2.5,4.4-4.6,7.8h-0.6
		c-2.1-3.5-3.7-6.2-4.7-7.9c-0.9-1.7-1.8-3.4-2.6-5.3l0,0c-0.1,2-0.3,3.9-0.6,6c-0.6,5.6-0.8,7.3-0.9,7.5v0.1h-2.4h-2.2v-0.1
		c0-0.2,0.3-1.6,1.6-11L87.1,0.6z"/>
</g>
<g class="st0">
	<path d="M129.5,18.5c0,2.5-1.5,4.6-3.4,5.7c-1.6,0.9-3.5,1.4-7.2,1.4c-0.9,0-1.5,0-2.4-0.1c-0.3,0-1-0.1-1.7-0.1v-0.1V14.4v-3.2V1
		V0.9c0.4,0,1.1-0.1,1.8-0.1c0.9-0.1,2.2-0.1,3.2-0.1c1.4,0,3.1,0.2,4.2,0.6c1.4,0.4,4.3,1.9,4.3,6c0,2.5-1.5,4.6-3.8,5.3v0.1
		C127.2,13.1,129.5,15.3,129.5,18.5L129.5,18.5z M123.8,7.7c0-2-1.4-3-3.3-3c-0.4,0-1,0-1.3,0.1v6.1c0.3,0,0.6,0,0.9,0
		c0.5,0,1-0.1,1.6-0.3C122.8,10.3,123.8,9.3,123.8,7.7L123.8,7.7z M124.6,18c0-1.6-1.1-2.7-2.3-3.1c-0.6-0.2-1.3-0.3-1.9-0.3
		c-0.2,0-0.8,0-1.1,0v6.7v0.1c0.3,0,0.8,0,1.2,0c0.7,0,1.5-0.1,2.2-0.4C123.5,20.7,124.6,19.8,124.6,18L124.6,18z"/>
</g>
<g class="st0">
	<path d="M132.6,11.2V1V0.9c0.5-0.1,1.2-0.1,1.9-0.1s2-0.1,2.7-0.1c1.8,0,3.4,0.2,4.8,0.6c1.8,0.5,4.7,2.3,4.7,6.6
		c0,3-1.6,4.9-2.7,5.7c-0.6,0.5-1.3,0.9-1.8,1.1v0.1c0.2,0.3,0.6,0.9,5.7,8.1c0.7,1,1.7,2.4,1.9,2.6v0.1h-2.6h-1.9h-0.9
		c-1.8-2.7-4-6-6.6-9.9H137V17v8.6v0.1h-2.2h-2.3v-0.1v-11v-3.4H132.6z M142.2,8.3c0-2.3-1.6-3.6-3.9-3.6c-0.5,0-0.9,0-1.2,0.1v7.5
		c0.2,0,0.5,0,0.9,0c0.9,0,1.7-0.2,2.3-0.6C141.2,11.2,142.2,10.1,142.2,8.3L142.2,8.3z"/>
</g>
<g class="st0">
	<path d="M159.4,20.6c-1.3,3.2-1.9,4.6-2,4.8v0.1h-2.3h-2.5v-0.1c0.1-0.2,0.7-1.6,4.8-11l6-14h0.7l6,14c4,9.4,4.6,10.8,4.7,11v0.1
		h-2.5h-2.8v-0.1c-0.1-0.2-0.6-1.6-1.9-4.8C167.6,20.6,159.4,20.6,159.4,20.6z M166.1,16.8L166.1,16.8c-1.8-4.8-2.3-6.1-2.6-7.1l0,0
		c-0.3,1-0.8,2.3-2.7,7v0.1H166.1z"/>
</g>
<g class="st0">
	<path d="M197.7,19.1c0,3.7-3.1,6.7-8,6.7c-1.5,0-3.4-0.3-4.4-0.7c0-1.6,0.1-2.2,0.1-4.2h0.1c0.4,0.2,0.8,0.3,1.2,0.4
		c0.7,0.2,1.6,0.4,2.7,0.4c1.8,0,3.3-1,3.3-2.8c0-1.1-0.6-2-1.8-3c-1-0.9-1.9-1.6-2.7-2.3c-1.5-1.6-2.7-3.3-2.7-5.9c0-3.6,2.5-7,8-7
		c1.1,0,2.4,0.2,3.2,0.4c-0.1,1.5-0.1,2.1-0.1,4.2h-0.1c-0.3-0.1-0.8-0.3-1.2-0.3c-0.4-0.1-0.9-0.2-1.5-0.2c-2,0-3.5,1-3.5,2.8
		c0,1,0.4,1.7,1.1,2.4c0.7,0.8,1.7,1.6,3.1,2.8C196.5,14.6,197.7,16.3,197.7,19.1L197.7,19.1z"/>
	<path d="M206.6,20.6c-1.3,3.2-1.9,4.6-2,4.8v0.1h-2.3h-2.5v-0.1c0.1-0.2,0.7-1.6,4.8-11l6-14h0.7l6,14c4,9.4,4.6,10.8,4.7,11v0.1
		h-2.5h-2.8v-0.1c-0.1-0.2-0.6-1.6-1.9-4.8C214.8,20.6,206.6,20.6,206.6,20.6z M213.3,16.8L213.3,16.8c-1.8-4.8-2.3-6.1-2.6-7.1l0,0
		c-0.3,1-0.8,2.3-2.7,7v0.1H213.3z"/>
</g>
<g class="st0">
	<path d="M246.3,25.8h-0.6c-5.6-5.5-8.9-8.8-11.1-11c-1.6-1.6-2.6-2.6-4.4-4.6l0,0c0,1.2,0,2.2,0,4.7v10.5v0.1h-2.3h-2.1v-0.1v-11
		V0.5h0.6c5.8,5.7,9.2,9.1,11.3,11.3c1.4,1.4,2.6,2.7,4.1,4.3h0.1c0-1.5,0-2.5,0-5.3V0.9V0.8h2.3h2.1v0.1v10.4L246.3,25.8
		L246.3,25.8z"/>
</g>
<g class="st0">
	<path d="M263.1,19.1c0,3.7-3.1,6.7-8,6.7c-1.5,0-3.4-0.3-4.4-0.7c0-1.6,0.1-2.2,0.1-4.2h0.1c0.4,0.2,0.8,0.3,1.2,0.4
		c0.7,0.2,1.6,0.4,2.7,0.4c1.8,0,3.3-1,3.3-2.8c0-1.1-0.6-2-1.8-3c-1-0.9-1.9-1.6-2.7-2.3c-1.5-1.6-2.7-3.3-2.7-5.9c0-3.6,2.5-7,8-7
		c1.1,0,2.4,0.2,3.2,0.4C262,2.6,262,3.2,262,5.3h-0.1c-0.3-0.1-0.8-0.3-1.2-0.3c-0.4-0.1-0.9-0.2-1.5-0.2c-2,0-3.5,1-3.5,2.8
		c0,1,0.4,1.7,1.1,2.4c0.7,0.8,1.7,1.6,3.1,2.8C261.9,14.6,263.1,16.3,263.1,19.1L263.1,19.1z"/>
</g>
<g class="st0">
	<path d="M287.4,19.1c0,3.7-3.1,6.7-8,6.7c-1.5,0-3.4-0.3-4.4-0.7c0-1.6,0.1-2.2,0.1-4.2h0.1c0.4,0.2,0.8,0.3,1.2,0.4
		c0.7,0.2,1.6,0.4,2.7,0.4c1.8,0,3.3-1,3.3-2.8c0-1.1-0.6-2-1.8-3c-1-0.9-1.9-1.6-2.7-2.3c-1.5-1.6-2.7-3.3-2.7-5.9c0-3.6,2.5-7,8-7
		c1.1,0,2.4,0.2,3.2,0.4c-0.1,1.5-0.1,2.1-0.1,4.2h-0.1C285.9,5.2,285.4,5,285,5c-0.4-0.1-0.9-0.2-1.5-0.2c-2,0-3.5,1-3.5,2.8
		c0,1,0.4,1.7,1.1,2.4c0.7,0.8,1.7,1.6,3.1,2.8C286.2,14.6,287.4,16.3,287.4,19.1L287.4,19.1z"/>
	<path d="M297,4.8h-4.6h-2h-0.2v-4h7.5h3h7.7v4h-0.1h-1.9h-4.7v9.6v11v0.1h-2.3H297v-0.1v-11V4.8z"/>
</g>
<g class="st0">
	<path d="M331.9,12.7c0,4.7-1.9,8.2-5.2,10.5c-2.2,1.6-5.2,2.4-8.6,2.4c-1.4,0-2.8,0-3.7-0.1c-0.7,0-1.6-0.1-2.2-0.1v-0.1V14.4v-3.2
		V1.1V0.9c0.6,0,1.4-0.1,2.7-0.2c1.3,0,2.4-0.1,3.5-0.1c3.5,0,6.3,0.7,8.4,2C330.5,4.9,331.9,8.9,331.9,12.7L331.9,12.7z M327,12.8
		c0-2.6-1-4.9-2.9-6.3c-1.2-1-3.1-1.5-5.2-1.5c-0.7,0-1.4,0-1.9,0.1v16.1c0,0.1,0,0.1,0.1,0.1c0.5,0.1,1.2,0.1,1.8,0.1
		c1.9,0,3.7-0.6,5-1.6C325.8,18.3,327,16,327,12.8L327,12.8z"/>
</g>
</svg>
