<?xml version="1.0" encoding="utf-8"?>
<!-- Generator: Adobe Illustrator 24.0.3, SVG Export Plug-In . SVG Version: 6.00 Build 0)  -->
<svg version="1.0" id="Layer_1" xmlns="http://www.w3.org/2000/svg" xmlns:xlink="http://www.w3.org/1999/xlink" x="0px" y="0px"
	 viewBox="0 0 432 432" style="enable-background:new 0 0 432 432;" xml:space="preserve">
<style type="text/css">
	.st0{fill:#3A53A4;}
	.st1{fill:#AF7C58;}
	.st2{fill:#FF6C37;}
	.st3{fill:#71A850;}
	.st4{fill:#00AE42;}
	.st5{fill:#5C0F8B;}
	.st6{opacity:0.3;}
	.st7{fill:#D50037;}
	.st8{opacity:0.2;}
	.st9{fill:#38D430;}
	.st10{fill:#00A887;}
	.st11{opacity:0.5;}
	.st12{fill:#FFFFFF;}
	.st13{opacity:0.1;}
	.st14{fill:#F93549;}
	.st15{fill:#FF9015;}
	.st16{fill:#008996;}
	.st17{opacity:0.51;}
	.st18{fill:#FF8300;}
	.st19{fill:#0082CA;}
	.st20{fill:#8DC6E8;}
	.st21{fill:#612166;}
	.st22{fill:#70D44B;}
	.st23{fill:#4A9462;}
</style>
<g>
	<g>
		<g>
			<path class="st23" d="M114.06,294.05c-7.84,0-13.77,5.72-13.77,13.28c0,7.36,5.85,13.22,13.2,13.22
				c7.77,0,13.53-5.71,13.53-13.41C127.02,299.67,121.46,294.05,114.06,294.05z M120.21,312.76c-2.81,3.88-8.71,4.36-12.14,1.01
				c-1.84-1.79-2.66-3.99-2.67-6.52c0.01-4,2.33-7.24,5.95-8.31c4.83-1.43,9.74,1.74,10.44,6.72
				C122.14,308.22,121.75,310.63,120.21,312.76z"/>
			<g class="st11">
				<path d="M114.06,294.05c-7.84,0-13.77,5.72-13.77,13.28c0,7.36,5.85,13.22,13.2,13.22c7.77,0,13.53-5.71,13.53-13.41
					C127.02,299.67,121.46,294.05,114.06,294.05z M120.21,312.76c-2.81,3.88-8.71,4.36-12.14,1.01c-1.84-1.79-2.66-3.99-2.67-6.52
					c0.01-4,2.33-7.24,5.95-8.31c4.83-1.43,9.74,1.74,10.44,6.72C122.14,308.22,121.75,310.63,120.21,312.76z"/>
			</g>
		</g>
		<g>
			<path class="st23" d="M182.35,305.66c-0.41-3.42-1.87-6.3-4.57-8.48c-3.11-2.52-6.72-3.27-10.63-2.71
				c-7.77,1.11-12.64,8.18-11.17,15.74c1.41,7.23,8.34,11.8,15.84,10.3c6.44-1.29,10.62-6.54,10.66-13.17
				C182.44,306.78,182.42,306.22,182.35,305.66z M175.19,313.54c-1.54,1.84-3.61,2.66-6,2.69c-4.09,0.05-7.64-2.98-8.24-7.06
				c-0.46-3.12,0.21-5.91,2.54-8.14c3.98-3.81,11.47-2.75,13.4,3.61C177.87,307.86,177.38,310.91,175.19,313.54z"/>
			<g class="st11">
				<path d="M182.35,305.66c-0.41-3.42-1.87-6.3-4.57-8.48c-3.11-2.52-6.72-3.27-10.63-2.71c-7.77,1.11-12.64,8.18-11.17,15.74
					c1.41,7.23,8.34,11.8,15.84,10.3c6.44-1.29,10.62-6.54,10.66-13.17C182.44,306.78,182.42,306.22,182.35,305.66z M175.19,313.54
					c-1.54,1.84-3.61,2.66-6,2.69c-4.09,0.05-7.64-2.98-8.24-7.06c-0.46-3.12,0.21-5.91,2.54-8.14c3.98-3.81,11.47-2.75,13.4,3.61
					C177.87,307.86,177.38,310.91,175.19,313.54z"/>
			</g>
		</g>
		<g>
			<path class="st23" d="M350.04,301.74c-2.43-4.59-6.48-6.6-11.76-6.78c-0.62,0.07-1.44,0.11-2.26,0.25
				c-9.47,1.55-13.68,11.42-9.71,19.2c2.79,5.46,8.78,8.08,14.86,6.77C350.66,319.12,353.81,308.86,350.04,301.74z M342.3,315.89
				c-4.26,2.45-10.59,0.65-12.1-5.37c-0.91-3.64,0.36-7.37,3.16-9.4c4.43-3.22,11.41-1.47,12.86,4.97c0.15,0.69,0.19,1.42,0.26,1.89
				C346.35,311.47,345.23,314.21,342.3,315.89z"/>
			<g class="st11">
				<path d="M350.04,301.74c-2.43-4.59-6.48-6.6-11.76-6.78c-0.62,0.07-1.44,0.11-2.26,0.25c-9.47,1.55-13.68,11.42-9.71,19.2
					c2.79,5.46,8.78,8.08,14.86,6.77C350.66,319.12,353.81,308.86,350.04,301.74z M342.3,315.89c-4.26,2.45-10.59,0.65-12.1-5.37
					c-0.91-3.64,0.36-7.37,3.16-9.4c4.43-3.22,11.41-1.47,12.86,4.97c0.15,0.69,0.19,1.42,0.26,1.89
					C346.35,311.47,345.23,314.21,342.3,315.89z"/>
			</g>
		</g>
		<g>
			<path class="st23" d="M322.09,306.56c-0.33-3.67-1.89-6.73-4.83-8.99c-3.39-2.61-7.26-3.22-11.37-2.34
				c-7.3,1.56-11.59,8.36-10.19,15.51c1.24,6.37,6.55,10.62,14.42,10.62c2.48-0.03,5.82-1.26,8.46-4.09
				C321.39,314.26,322.47,310.62,322.09,306.56z M315.58,313.24c-1.73,2.62-4.25,3.77-7.34,3.54c-3.13-0.24-5.42-1.85-6.82-4.67
				c-0.63-1.26-0.91-2.61-0.87-4.02c0-4.13,2.42-7.42,6.16-8.4c4.86-1.27,9.57,1.91,10.23,6.89
				C317.26,308.96,316.92,311.22,315.58,313.24z"/>
			<g class="st11">
				<path d="M322.09,306.56c-0.33-3.67-1.89-6.73-4.83-8.99c-3.39-2.61-7.26-3.22-11.37-2.34c-7.3,1.56-11.59,8.36-10.19,15.51
					c1.24,6.37,6.55,10.62,14.42,10.62c2.48-0.03,5.82-1.26,8.46-4.09C321.39,314.26,322.47,310.62,322.09,306.56z M315.58,313.24
					c-1.73,2.62-4.25,3.77-7.34,3.54c-3.13-0.24-5.42-1.85-6.82-4.67c-0.63-1.26-0.91-2.61-0.87-4.02c0-4.13,2.42-7.42,6.16-8.4
					c4.86-1.27,9.57,1.91,10.23,6.89C317.26,308.96,316.92,311.22,315.58,313.24z"/>
			</g>
		</g>
		<g>
			<path class="st23" d="M152.04,294.58v26.01c-0.06,0.06-0.12,0.11-0.18,0.17c-0.27-0.14-0.59-0.23-0.8-0.44
				c-5.13-5.15-10.24-10.31-15.36-15.47c-0.11-0.11-0.22-0.21-0.43-0.4v15.77h-4.57v-25.92c0.43-0.2,0.71-0.11,0.99,0.18
				c5.18,5.27,10.36,10.53,15.55,15.8c0.05,0.05,0.1,0.09,0.24,0.22v-15.92H152.04z"/>
			<path class="st11" d="M152.04,294.58v26.01c-0.06,0.06-0.12,0.11-0.18,0.17c-0.27-0.14-0.59-0.23-0.8-0.44
				c-5.13-5.15-10.24-10.31-15.36-15.47c-0.11-0.11-0.22-0.21-0.43-0.4v15.77h-4.57v-25.92c0.43-0.2,0.71-0.11,0.99,0.18
				c5.18,5.27,10.36,10.53,15.55,15.8c0.05,0.05,0.1,0.09,0.24,0.22v-15.92H152.04z"/>
		</g>
		<g>
			<polygon class="st23" points="96.6,294.33 96.6,320.05 91.63,320.05 91.63,309.14 80.72,309.14 80.72,319.97 75.78,319.97 
				75.78,294.27 80.76,294.27 80.76,304.83 91.68,304.83 91.68,294.33 			"/>
			<polygon class="st11" points="96.6,294.33 96.6,320.05 91.63,320.05 91.63,309.14 80.72,309.14 80.72,319.97 75.78,319.97 
				75.78,294.27 80.76,294.27 80.76,304.83 91.68,304.83 91.68,294.33 			"/>
		</g>
		<g>
			<path class="st23" d="M262.97,295.02v0.5c-0.01,4.57,0.02,9.13-0.06,13.69c-0.03,1.66-0.18,3.35-0.56,4.95
				c-0.8,3.37-3.07,5.49-6.33,6.5c-2.98,0.92-5.94,0.73-8.78-0.54c-3.01-1.36-4.65-3.8-5.11-7.03c-0.17-1.18-0.22-2.38-0.22-3.57
				c-0.02-4.67,0.02-9.34,0.01-14.01c0-0.44,0.09-0.61,0.58-0.6c1.32,0.04,2.63,0.04,3.95,0c0.48-0.01,0.58,0.15,0.58,0.6
				c-0.04,4.79-0.07,9.58-0.07,14.37c0,0.92,0.13,1.85,0.29,2.77c0.32,1.91,1.5,3.1,3.32,3.63c2.17,0.63,4.22,0.4,5.9-1.27
				c1.01-1.01,1.31-2.34,1.44-3.7c0.09-0.97,0.11-1.96,0.12-2.94c0.02-3.55,0.02-7.1,0.03-10.64v-2.7H262.97z"/>
			<path class="st11" d="M262.97,295.02v0.5c-0.01,4.57,0.02,9.13-0.06,13.69c-0.03,1.66-0.18,3.35-0.56,4.95
				c-0.8,3.37-3.07,5.49-6.33,6.5c-2.98,0.92-5.94,0.73-8.78-0.54c-3.01-1.36-4.65-3.8-5.11-7.03c-0.17-1.18-0.22-2.38-0.22-3.57
				c-0.02-4.67,0.02-9.34,0.01-14.01c0-0.44,0.09-0.61,0.58-0.6c1.32,0.04,2.63,0.04,3.95,0c0.48-0.01,0.58,0.15,0.58,0.6
				c-0.04,4.79-0.07,9.58-0.07,14.37c0,0.92,0.13,1.85,0.29,2.77c0.32,1.91,1.5,3.1,3.32,3.63c2.17,0.63,4.22,0.4,5.9-1.27
				c1.01-1.01,1.31-2.34,1.44-3.7c0.09-0.97,0.11-1.96,0.12-2.94c0.02-3.55,0.02-7.1,0.03-10.64v-2.7H262.97z"/>
		</g>
		<g>
			<path class="st23" d="M222.49,295.42c0,3.48,0,6.95-0.03,10.43c-0.02,1.96-0.06,3.93-0.18,5.89c-0.32,5.05-3.64,8.55-8.65,9.17
				c-2.81,0.34-5.51-0.01-7.95-1.53c-2.36-1.46-3.63-3.66-4.01-6.36c-0.16-1.14-0.22-2.31-0.22-3.46
				c-0.01-4.74,0.01-9.48,0.02-14.22c0-0.17,0.01-0.34,0.02-0.54h5.01c0,1.39,0,2.73,0,4.08c0,3.88-0.02,7.76,0,11.64
				c0,0.69,0.14,1.39,0.28,2.08c0.36,1.8,1.48,2.97,3.21,3.48c2.2,0.65,4.29,0.46,6-1.25c1.08-1.08,1.39-2.51,1.45-3.96
				c0.1-2.03,0.11-4.07,0.12-6.1c0.02-3.13,0.03-6.25,0.01-9.37c0-0.48,0.14-0.59,0.6-0.58c1.42,0.03,2.84,0.01,4.31,0.01
				C222.49,295.08,222.49,295.25,222.49,295.42z"/>
			<path class="st11" d="M222.49,295.42c0,3.48,0,6.95-0.03,10.43c-0.02,1.96-0.06,3.93-0.18,5.89c-0.32,5.05-3.64,8.55-8.65,9.17
				c-2.81,0.34-5.51-0.01-7.95-1.53c-2.36-1.46-3.63-3.66-4.01-6.36c-0.16-1.14-0.22-2.31-0.22-3.46
				c-0.01-4.74,0.01-9.48,0.02-14.22c0-0.17,0.01-0.34,0.02-0.54h5.01c0,1.39,0,2.73,0,4.08c0,3.88-0.02,7.76,0,11.64
				c0,0.69,0.14,1.39,0.28,2.08c0.36,1.8,1.48,2.97,3.21,3.48c2.2,0.65,4.29,0.46,6-1.25c1.08-1.08,1.39-2.51,1.45-3.96
				c0.1-2.03,0.11-4.07,0.12-6.1c0.02-3.13,0.03-6.25,0.01-9.37c0-0.48,0.14-0.59,0.6-0.58c1.42,0.03,2.84,0.01,4.31,0.01
				C222.49,295.08,222.49,295.25,222.49,295.42z"/>
		</g>
		<g>
			<path class="st23" d="M282.5,316.64h11.55v4.2h-19.5c4.01-7.25,7.96-14.4,11.96-21.62h-10.63v-4.09h18.54
				C290.41,302.36,286.47,309.46,282.5,316.64z"/>
			<path class="st11" d="M282.5,316.64h11.55v4.2h-19.5c4.01-7.25,7.96-14.4,11.96-21.62h-10.63v-4.09h18.54
				C290.41,302.36,286.47,309.46,282.5,316.64z"/>
		</g>
		<g>
			<polygon class="st23" points="240.06,316.42 240.06,320.62 227.05,320.62 227.05,294.9 232.02,294.9 232.02,316.42 			"/>
			<polygon class="st11" points="240.06,316.42 240.06,320.62 227.05,320.62 227.05,294.9 232.02,294.9 232.02,316.42 			"/>
		</g>
		<g>
			<path class="st23" d="M199.14,316.29v4.17h-13v-25.74h4.98v0.7c-0.01,5.7-0.03,11.41-0.04,17.11c0,1.07,0,2.14-0.03,3.21
				c-0.01,0.41,0.11,0.54,0.54,0.54c2.31-0.01,4.63,0,6.95,0H199.14z"/>
			<path class="st11" d="M199.14,316.29v4.17h-13v-25.74h4.98v0.7c-0.01,5.7-0.03,11.41-0.04,17.11c0,1.07,0,2.14-0.03,3.21
				c-0.01,0.41,0.11,0.54,0.54,0.54c2.31-0.01,4.63,0,6.95,0H199.14z"/>
		</g>
	</g>
	<g>
		<circle class="st0" cx="194.84" cy="210.32" r="4.97"/>
		<g>
			<path class="st1" d="M181.83,259.94c8.54-1.65,14.87-9.1,14.73-17.81c-0.01-0.49-0.04-0.92-0.08-1.28
				c-0.45-3.45,1.93-9.7,2.22-10.66c0.29-0.96-2.41-0.73-2.41-0.73c1.28-1.27,2.09-2.72,2.09-2.72
				c-4.23-11.45-19.67-8.39-19.67-8.39s0.61-2.54-0.87-2.24c-1.48,0.3-10.13-0.48-14.82-2.29c-4.69-1.81,3.29-7.55-2.16-13.8
				c-2.65-3.04-6.37,0.57-9.46-1.67c-2.72-1.97-10.4-5.14-10.4-5.14s-15.49,37.65,23.1,63.34c3.83,2.55,8.38,3.85,12.98,3.76
				C178.84,260.28,180.6,260.17,181.83,259.94z M159.21,226.08c-2.74-0.13-4.86-2.46-4.73-5.2c0.13-2.74,2.46-4.86,5.2-4.73
				c2.74,0.13,4.86,2.46,4.73,5.2C164.28,224.09,161.95,226.21,159.21,226.08z"/>
			<g>
				<path class="st1" d="M181.83,259.94c8.54-1.65,14.87-9.1,14.73-17.81c-0.01-0.49-0.04-0.92-0.08-1.28
					c-0.45-3.45,1.93-9.7,2.22-10.66c0.29-0.96-2.41-0.73-2.41-0.73c1.28-1.27,2.09-2.72,2.09-2.72
					c-4.23-11.45-19.67-8.39-19.67-8.39s0.61-2.54-0.87-2.24c-1.48,0.3-10.13-0.48-14.82-2.29c-4.69-1.81,3.29-7.55-2.16-13.8
					c-2.65-3.04-6.37,0.57-9.46-1.67c-2.72-1.97-10.4-5.14-10.4-5.14s-15.49,37.65,23.1,63.34c3.83,2.55,8.38,3.85,12.98,3.76
					C178.84,260.28,180.6,260.17,181.83,259.94z M159.21,226.08c-2.74-0.13-4.86-2.46-4.73-5.2c0.13-2.74,2.46-4.86,5.2-4.73
					c2.74,0.13,4.86,2.46,4.73,5.2C164.28,224.09,161.95,226.21,159.21,226.08z"/>
			</g>
		</g>
		<path class="st2" d="M281.07,113.27c-21.01-26.39-62.27-3.94-70.38,7.1c-5.86,7.98,2.21,15.45,7.13,18.98
			c1.48,1.06,3.55,0.46,4.26-1.21c1.79-4.17,5.9-9.38,11.53-13.02c12.97-8.37,31.57-5.49,31.5,10.26
			c-0.1,22.53-34.09,16.7-40.71,14.59c-5.32-1.69-47.91-12.86-72.49,26.1c0,0,15.66-2.44,11.19,15.14c0,0,19.48,0.02,26.19,0.94
			c4.36,0.62,7.46,4.72,9.33,9.47c0,0,19.72-0.73,31.52,1.11c2.71,0.42,3.38,3.69,3.25,6.77c4.65-11.49,16.15-16.16,27.5-18.17
			C278.41,178.19,302.41,140.08,281.07,113.27z M217.6,177.75c-3.68-0.02-6.65-3.01-6.64-6.68c0.02-3.68,3.02-6.64,6.68-6.63
			c3.68,0.02,6.65,3,6.64,6.68C224.27,174.79,221.28,177.76,217.6,177.75z"/>
		<path class="st3" d="M235.59,218.2c-4.54,34.51-40.75,46.89-56.86,46.15c51.58,19.2,76.98-4.51,80.32-22.29
			c3.16-17.88-3.91-35.27,22.84-47.73C267.5,194.93,238.88,193.21,235.59,218.2z M257.11,209.17c-0.01,2.74-2.25,4.96-4.99,4.95
			c-2.74-0.01-4.96-2.25-4.95-4.99c0.01-2.74,2.25-4.96,4.99-4.95C254.91,204.19,257.12,206.43,257.11,209.17z"/>
	</g>
</g>
</svg>
