<?xml version="1.0" encoding="utf-8"?>
<!-- Generator: Adobe Illustrator 24.0.3, SVG Export Plug-In . SVG Version: 6.00 Build 0)  -->
<svg version="1.1" id="Layer_1" xmlns="http://www.w3.org/2000/svg" xmlns:xlink="http://www.w3.org/1999/xlink" x="0px" y="0px"
	 viewBox="0 0 534 273" style="enable-background:new 0 0 534 273;" xml:space="preserve">
<style type="text/css">
	.st0{fill:#4A9462;}
	.st1{opacity:0.5;}
	.st2{opacity:0.5;enable-background:new    ;}
	.st3{fill:#3A53A4;}
	.st4{fill:#AF7C58;}
	.st5{fill:#FF6C37;}
	.st6{fill:#71A850;}
</style>
<g>
	<g>
		<g>
			<path class="st0" d="M165.1,219c-7.8,0-13.8,5.7-13.8,13.3c0,7.4,5.8,13.2,13.2,13.2c7.8,0,13.5-5.7,13.5-13.4
				C178,224.7,172.5,219,165.1,219z M171.2,237.8c-2.8,3.9-8.7,4.4-12.1,1c-1.8-1.8-2.7-4-2.7-6.5c0-4,2.3-7.2,6-8.3
				c4.8-1.4,9.7,1.7,10.4,6.7C173.1,233.2,172.8,235.6,171.2,237.8z"/>
			<g class="st1">
				<path d="M165.1,219c-7.8,0-13.8,5.7-13.8,13.3c0,7.4,5.8,13.2,13.2,13.2c7.8,0,13.5-5.7,13.5-13.4
					C178,224.7,172.5,219,165.1,219z M171.2,237.8c-2.8,3.9-8.7,4.4-12.1,1c-1.8-1.8-2.7-4-2.7-6.5c0-4,2.3-7.2,6-8.3
					c4.8-1.4,9.7,1.7,10.4,6.7C173.1,233.2,172.8,235.6,171.2,237.8z"/>
			</g>
		</g>
		<g>
			<path class="st0" d="M233.4,230.7c-0.4-3.4-1.9-6.3-4.6-8.5c-3.1-2.5-6.7-3.3-10.6-2.7c-7.8,1.1-12.6,8.2-11.2,15.7
				c1.4,7.2,8.3,11.8,15.8,10.3c6.4-1.3,10.6-6.5,10.7-13.2C233.4,231.8,233.4,231.2,233.4,230.7z M226.2,238.5
				c-1.5,1.8-3.6,2.7-6,2.7c-4.1,0-7.6-3-8.2-7.1c-0.5-3.1,0.2-5.9,2.5-8.1c4-3.8,11.5-2.8,13.4,3.6
				C228.9,232.9,228.4,235.9,226.2,238.5z"/>
			<g class="st1">
				<path d="M233.4,230.7c-0.4-3.4-1.9-6.3-4.6-8.5c-3.1-2.5-6.7-3.3-10.6-2.7c-7.8,1.1-12.6,8.2-11.2,15.7
					c1.4,7.2,8.3,11.8,15.8,10.3c6.4-1.3,10.6-6.5,10.7-13.2C233.4,231.8,233.4,231.2,233.4,230.7z M226.2,238.5
					c-1.5,1.8-3.6,2.7-6,2.7c-4.1,0-7.6-3-8.2-7.1c-0.5-3.1,0.2-5.9,2.5-8.1c4-3.8,11.5-2.8,13.4,3.6
					C228.9,232.9,228.4,235.9,226.2,238.5z"/>
			</g>
		</g>
		<g>
			<path class="st0" d="M401,226.7c-2.4-4.6-6.5-6.6-11.8-6.8c-0.6,0.1-1.4,0.1-2.3,0.2c-9.5,1.5-13.7,11.4-9.7,19.2
				c2.8,5.5,8.8,8.1,14.9,6.8C401.7,244.1,404.8,233.9,401,226.7z M393.3,240.9c-4.3,2.5-10.6,0.6-12.1-5.4
				c-0.9-3.6,0.4-7.4,3.2-9.4c4.4-3.2,11.4-1.5,12.9,5c0.1,0.7,0.2,1.4,0.3,1.9C397.4,236.5,396.2,239.2,393.3,240.9z"/>
			<g class="st1">
				<path d="M401,226.7c-2.4-4.6-6.5-6.6-11.8-6.8c-0.6,0.1-1.4,0.1-2.3,0.2c-9.5,1.5-13.7,11.4-9.7,19.2c2.8,5.5,8.8,8.1,14.9,6.8
					C401.7,244.1,404.8,233.9,401,226.7z M393.3,240.9c-4.3,2.5-10.6,0.6-12.1-5.4c-0.9-3.6,0.4-7.4,3.2-9.4
					c4.4-3.2,11.4-1.5,12.9,5c0.1,0.7,0.2,1.4,0.3,1.9C397.4,236.5,396.2,239.2,393.3,240.9z"/>
			</g>
		</g>
		<g>
			<path class="st0" d="M373.1,231.6c-0.3-3.7-1.9-6.7-4.8-9c-3.4-2.6-7.3-3.2-11.4-2.3c-7.3,1.6-11.6,8.4-10.2,15.5
				c1.2,6.4,6.5,10.6,14.4,10.6c2.5,0,5.8-1.3,8.5-4.1C372.4,239.3,373.5,235.6,373.1,231.6z M366.6,238.2c-1.7,2.6-4.2,3.8-7.3,3.5
				c-3.1-0.2-5.4-1.9-6.8-4.7c-0.6-1.3-0.9-2.6-0.9-4c0-4.1,2.4-7.4,6.2-8.4c4.9-1.3,9.6,1.9,10.2,6.9
				C368.3,234,367.9,236.2,366.6,238.2z"/>
			<g class="st1">
				<path d="M373.1,231.6c-0.3-3.7-1.9-6.7-4.8-9c-3.4-2.6-7.3-3.2-11.4-2.3c-7.3,1.6-11.6,8.4-10.2,15.5
					c1.2,6.4,6.5,10.6,14.4,10.6c2.5,0,5.8-1.3,8.5-4.1C372.4,239.3,373.5,235.6,373.1,231.6z M366.6,238.2
					c-1.7,2.6-4.2,3.8-7.3,3.5c-3.1-0.2-5.4-1.9-6.8-4.7c-0.6-1.3-0.9-2.6-0.9-4c0-4.1,2.4-7.4,6.2-8.4c4.9-1.3,9.6,1.9,10.2,6.9
					C368.3,234,367.9,236.2,366.6,238.2z"/>
			</g>
		</g>
		<g>
			<path class="st0" d="M203,219.6v26c-0.1,0.1-0.1,0.1-0.2,0.2c-0.3-0.1-0.6-0.2-0.8-0.4c-5.1-5.1-10.2-10.3-15.4-15.5
				c-0.1-0.1-0.2-0.2-0.4-0.4v15.8h-4.6v-25.9c0.4-0.2,0.7-0.1,1,0.2c5.2,5.3,10.4,10.5,15.6,15.8c0.1,0,0.1,0.1,0.2,0.2v-15.9
				L203,219.6L203,219.6z"/>
			<path class="st2" d="M203,219.6v26c-0.1,0.1-0.1,0.1-0.2,0.2c-0.3-0.1-0.6-0.2-0.8-0.4c-5.1-5.1-10.2-10.3-15.4-15.5
				c-0.1-0.1-0.2-0.2-0.4-0.4v15.8h-4.6v-25.9c0.4-0.2,0.7-0.1,1,0.2c5.2,5.3,10.4,10.5,15.6,15.8c0.1,0,0.1,0.1,0.2,0.2v-15.9
				L203,219.6L203,219.6z"/>
		</g>
		<g>
			<polygon class="st0" points="147.6,219.3 147.6,245 142.6,245 142.6,234.1 131.7,234.1 131.7,245 126.8,245 126.8,219.3 
				131.8,219.3 131.8,229.8 142.7,229.8 142.7,219.3 			"/>
			<polygon class="st2" points="147.6,219.3 147.6,245 142.6,245 142.6,234.1 131.7,234.1 131.7,245 126.8,245 126.8,219.3 
				131.8,219.3 131.8,229.8 142.7,229.8 142.7,219.3 			"/>
		</g>
		<g>
			<path class="st0" d="M314,220v0.5c0,4.6,0,9.1-0.1,13.7c0,1.7-0.2,3.4-0.6,5c-0.8,3.4-3.1,5.5-6.3,6.5c-3,0.9-5.9,0.7-8.8-0.5
				c-3-1.4-4.6-3.8-5.1-7c-0.2-1.2-0.2-2.4-0.2-3.6c0-4.7,0-9.3,0-14c0-0.4,0.1-0.6,0.6-0.6c1.3,0,2.6,0,4,0c0.5,0,0.6,0.1,0.6,0.6
				c0,4.8-0.1,9.6-0.1,14.4c0,0.9,0.1,1.9,0.3,2.8c0.3,1.9,1.5,3.1,3.3,3.6c2.2,0.6,4.2,0.4,5.9-1.3c1-1,1.3-2.3,1.4-3.7
				c0.1-1,0.1-2,0.1-2.9c0-3.5,0-7.1,0-10.6V220H314L314,220z"/>
			<path class="st2" d="M314,220v0.5c0,4.6,0,9.1-0.1,13.7c0,1.7-0.2,3.4-0.6,5c-0.8,3.4-3.1,5.5-6.3,6.5c-3,0.9-5.9,0.7-8.8-0.5
				c-3-1.4-4.6-3.8-5.1-7c-0.2-1.2-0.2-2.4-0.2-3.6c0-4.7,0-9.3,0-14c0-0.4,0.1-0.6,0.6-0.6c1.3,0,2.6,0,4,0c0.5,0,0.6,0.1,0.6,0.6
				c0,4.8-0.1,9.6-0.1,14.4c0,0.9,0.1,1.9,0.3,2.8c0.3,1.9,1.5,3.1,3.3,3.6c2.2,0.6,4.2,0.4,5.9-1.3c1-1,1.3-2.3,1.4-3.7
				c0.1-1,0.1-2,0.1-2.9c0-3.5,0-7.1,0-10.6V220H314L314,220z"/>
		</g>
		<g>
			<path class="st0" d="M273.5,220.4c0,3.5,0,7,0,10.4c0,2-0.1,3.9-0.2,5.9c-0.3,5-3.6,8.5-8.7,9.2c-2.8,0.3-5.5,0-7.9-1.5
				s-3.6-3.7-4-6.4c-0.2-1.1-0.2-2.3-0.2-3.5c0-4.7,0-9.5,0-14.2c0-0.2,0-0.3,0-0.5h5c0,1.4,0,2.7,0,4.1c0,3.9,0,7.8,0,11.6
				c0,0.7,0.1,1.4,0.3,2.1c0.4,1.8,1.5,3,3.2,3.5c2.2,0.6,4.3,0.5,6-1.2c1.1-1.1,1.4-2.5,1.4-4c0.1-2,0.1-4.1,0.1-6.1
				c0-3.1,0-6.2,0-9.4c0-0.5,0.1-0.6,0.6-0.6c1.4,0,2.8,0,4.3,0C273.5,220.1,273.5,220.2,273.5,220.4z"/>
			<path class="st2" d="M273.5,220.4c0,3.5,0,7,0,10.4c0,2-0.1,3.9-0.2,5.9c-0.3,5-3.6,8.5-8.7,9.2c-2.8,0.3-5.5,0-7.9-1.5
				s-3.6-3.7-4-6.4c-0.2-1.1-0.2-2.3-0.2-3.5c0-4.7,0-9.5,0-14.2c0-0.2,0-0.3,0-0.5h5c0,1.4,0,2.7,0,4.1c0,3.9,0,7.8,0,11.6
				c0,0.7,0.1,1.4,0.3,2.1c0.4,1.8,1.5,3,3.2,3.5c2.2,0.6,4.3,0.5,6-1.2c1.1-1.1,1.4-2.5,1.4-4c0.1-2,0.1-4.1,0.1-6.1
				c0-3.1,0-6.2,0-9.4c0-0.5,0.1-0.6,0.6-0.6c1.4,0,2.8,0,4.3,0C273.5,220.1,273.5,220.2,273.5,220.4z"/>
		</g>
		<g>
			<path class="st0" d="M333.5,241.6H345v4.2h-19.5c4-7.2,8-14.4,12-21.6h-10.6v-4.1h18.5C341.4,227.4,337.5,234.5,333.5,241.6z"/>
			<path class="st2" d="M333.5,241.6H345v4.2h-19.5c4-7.2,8-14.4,12-21.6h-10.6v-4.1h18.5C341.4,227.4,337.5,234.5,333.5,241.6z"/>
		</g>
		<g>
			<polygon class="st0" points="291.1,241.4 291.1,245.6 278,245.6 278,219.9 283,219.9 283,241.4 			"/>
			<polygon class="st2" points="291.1,241.4 291.1,245.6 278,245.6 278,219.9 283,219.9 283,241.4 			"/>
		</g>
		<g>
			<path class="st0" d="M250.1,241.3v4.2h-13v-25.7h5v0.7c0,5.7,0,11.4,0,17.1c0,1.1,0,2.1,0,3.2c0,0.4,0.1,0.5,0.5,0.5
				c2.3,0,4.6,0,6.9,0H250.1L250.1,241.3z"/>
			<path class="st2" d="M250.1,241.3v4.2h-13v-25.7h5v0.7c0,5.7,0,11.4,0,17.1c0,1.1,0,2.1,0,3.2c0,0.4,0.1,0.5,0.5,0.5
				c2.3,0,4.6,0,6.9,0H250.1L250.1,241.3z"/>
		</g>
	</g>
	<g>
		<circle class="st3" cx="245.8" cy="135.3" r="5"/>
		<g>
			<path class="st4" d="M232.8,184.9c8.5-1.6,14.9-9.1,14.7-17.8c0-0.5,0-0.9-0.1-1.3c-0.4-3.4,1.9-9.7,2.2-10.7s-2.4-0.7-2.4-0.7
				c1.3-1.3,2.1-2.7,2.1-2.7c-4.2-11.4-19.7-8.4-19.7-8.4s0.6-2.5-0.9-2.2c-1.5,0.3-10.1-0.5-14.8-2.3c-4.7-1.8,3.3-7.6-2.2-13.8
				c-2.6-3-6.4,0.6-9.5-1.7c-2.7-2-10.4-5.1-10.4-5.1s-15.5,37.7,23.1,63.3c3.8,2.5,8.4,3.9,13,3.8
				C229.8,185.3,231.6,185.2,232.8,184.9z M210.2,151.1c-2.7-0.1-4.9-2.5-4.7-5.2c0.1-2.7,2.5-4.9,5.2-4.7c2.7,0.1,4.9,2.5,4.7,5.2
				S212.9,151.2,210.2,151.1z"/>
			<g>
				<path class="st4" d="M232.8,184.9c8.5-1.6,14.9-9.1,14.7-17.8c0-0.5,0-0.9-0.1-1.3c-0.4-3.4,1.9-9.7,2.2-10.7s-2.4-0.7-2.4-0.7
					c1.3-1.3,2.1-2.7,2.1-2.7c-4.2-11.4-19.7-8.4-19.7-8.4s0.6-2.5-0.9-2.2c-1.5,0.3-10.1-0.5-14.8-2.3c-4.7-1.8,3.3-7.6-2.2-13.8
					c-2.6-3-6.4,0.6-9.5-1.7c-2.7-2-10.4-5.1-10.4-5.1s-15.5,37.7,23.1,63.3c3.8,2.5,8.4,3.9,13,3.8
					C229.8,185.3,231.6,185.2,232.8,184.9z M210.2,151.1c-2.7-0.1-4.9-2.5-4.7-5.2c0.1-2.7,2.5-4.9,5.2-4.7c2.7,0.1,4.9,2.5,4.7,5.2
					S212.9,151.2,210.2,151.1z"/>
			</g>
		</g>
		<path class="st5" d="M332.1,38.3c-21-26.4-62.3-3.9-70.4,7.1c-5.9,8,2.2,15.4,7.1,19c1.5,1.1,3.5,0.5,4.3-1.2
			c1.8-4.2,5.9-9.4,11.5-13c13-8.4,31.6-5.5,31.5,10.3C316,82.9,282,77.1,275.4,75c-5.3-1.7-47.9-12.9-72.5,26.1
			c0,0,15.7-2.4,11.2,15.1c0,0,19.5,0,26.2,0.9c4.4,0.6,7.5,4.7,9.3,9.5c0,0,19.7-0.7,31.5,1.1c2.7,0.4,3.4,3.7,3.2,6.8
			c4.6-11.5,16.1-16.2,27.5-18.2C329.4,103.2,353.4,65.1,332.1,38.3z M268.6,102.8c-3.7,0-6.6-3-6.6-6.7s3-6.6,6.7-6.6
			s6.6,3,6.6,6.7C275.3,99.8,272.3,102.8,268.6,102.8z"/>
		<path class="st6" d="M286.6,143.2c-4.5,34.5-40.8,46.9-56.9,46.2c51.6,19.2,77-4.5,80.3-22.3c3.2-17.9-3.9-35.3,22.8-47.7
			C318.5,119.9,289.9,118.2,286.6,143.2z M308.1,134.2c0,2.7-2.2,5-5,4.9c-2.7,0-5-2.2-5-5c0-2.8,2.2-5,5-4.9
			C305.9,129.2,308.1,131.4,308.1,134.2z"/>
	</g>
</g>
</svg>
