<?xml version="1.0" encoding="utf-8"?>
<!-- Generator: Adobe Illustrator 24.0.3, SVG Export Plug-In . SVG Version: 6.00 Build 0)  -->
<svg version="1.1" id="Layer_1" xmlns="http://www.w3.org/2000/svg" xmlns:xlink="http://www.w3.org/1999/xlink" x="0px" y="0px"
	 viewBox="0 0 213.8 119.3" style="enable-background:new 0 0 213.8 119.3;" xml:space="preserve">
<style type="text/css">
	.st0{display:none;}
	.st1{fill:#231F20;}
	.st2{enable-background:new    ;}
</style>
<g id="Layer_2_1_" class="st0">
</g>
<g>
	<circle class="st1" cx="94.1" cy="55.9" r="2.1"/>
	<path class="st1" d="M85,76.9c1.8,0.2,4.7-0.2,8-1.5c1.7-2.3,2-5.6,1.9-6.7c-0.2-1.4,0.8-4.1,0.9-4.5s-1-0.3-1-0.3
		c0.5-0.5,0.9-1.1,0.9-1.1c-1.8-4.8-8.2-3.5-8.2-3.5s0.2-1.1-0.4-0.9c-0.6,0.1-4.2-0.2-6.2-0.9s1.4-3.2-0.9-5.8
		c-1.1-1.3-2.7,0.2-4-0.7c-1.1-0.8-4.4-2.1-4.4-2.1s-7.1,17.3,12.2,27.9L85,76.9z M79.3,62.5c-1.1-0.1-2-1-2-2.2s1-2,2.2-2
		c1.1,0.1,2,1,2,2.2C81.4,61.7,80.4,62.5,79.3,62.5z"/>
	<path class="st1" d="M95.7,52.2c0,0,8.2-0.3,13.2,0.4c1.6,0.2,1.5,2.9,1.2,4.3c1.5-5.4,6.1-7.8,11.2-8.4c7.3-5.1,19.9-22,10.6-33.3
		c-11-13.4-27.7-1.6-31.1,3c-2.4,3.3,0.9,6.4,3,7.9c0.6,0.4,1.5,0.2,1.8-0.5c0.7-1.7,2.5-3.9,4.8-5.4c5.4-3.5,13.2-2.3,13.2,4.3
		c0,9.4-14.2,7-17,6.1c-2.2-0.7-20-5.3-30.3,11c0,0,6.5-1,4.7,6.3c0,0,8.1,0,10.9,0.4C93.6,48.6,94.9,50.3,95.7,52.2z M103.6,36.7
		c1.5,0,2.8,1.2,2.8,2.8c0,1.5-1.2,2.8-2.8,2.8c-1.5,0-2.8-1.2-2.8-2.8S102.1,36.7,103.6,36.7z"/>
	<path class="st1" d="M110.5,58.1c-3,13.7-16.8,19-23.4,19.6l0,0c3.5,1.1,11,2.5,18.2,2.1c8.1-0.5,14-4.1,15.4-11.5
		c1.3-7.5-1.7-14.7,9.5-20C124.1,48.7,112.5,48.9,110.5,58.1z M119.8,54.7c0,1.2-0.9,2.1-2.1,2.1s-2.1-0.9-2.1-2.1s0.9-2.1,2.1-2.1
		C118.9,52.6,119.8,53.5,119.8,54.7z"/>
</g>
<g class="st2">
	<path class="st1" d="M16.1,109.6l0,8.9v0.1l-1.8,0l-2,0v-0.1l0-7.7l0-0.7l-8.5,0l0,0.7l0,7.7v0.1l-1.9,0l-2,0v-0.1l0-8.9l0-2.6
		l0-8.4v-0.1l1.9,0l1.9,0v0.1l0,7.5l0,0.7l8.5,0l0-0.7l0-7.5v-0.1l2,0l1.8,0v0.1l0,8.4L16.1,109.6z"/>
	<path class="st1" d="M39.6,108.5c0,5.8-4.4,10.4-10.4,10.3c-5.8,0-10.3-4.5-10.3-10.2c0-5.8,4.5-10.3,10.6-10.2
		C35.4,98.4,39.6,102.8,39.6,108.5L39.6,108.5z M35.7,108.6c0-3.8-2.7-6.7-6.3-6.7c-3.7,0-6.5,2.9-6.5,6.7c0,3.7,2.7,6.7,6.5,6.8
		C33.1,115.4,35.7,112.4,35.7,108.6L35.7,108.6z"/>
	<path class="st1" d="M59,118.9l-0.5,0c-4.5-4.4-7.2-7.1-8.9-8.9c-1.2-1.3-2.1-2.1-3.6-3.7h0c0,1,0,1.8,0,3.8l0,8.4v0.1l-1.9,0
		l-1.7,0v-0.1l0-8.9l0-11.2l0.5,0c4.7,4.6,7.4,7.3,9.1,9.1c1.1,1.1,2.1,2.1,3.3,3.5l0.1,0c0-1.2,0-2,0-4.3l0-8v-0.1l1.9,0l1.7,0v0.1
		l0,8.4L59,118.9z"/>
	<path class="st1" d="M82.5,108.6c0,5.8-4.4,10.4-10.4,10.3c-5.8,0-10.3-4.5-10.3-10.2c0-5.8,4.5-10.3,10.6-10.2
		C78.3,98.5,82.5,102.9,82.5,108.6L82.5,108.6z M78.6,108.7c0-3.8-2.7-6.7-6.3-6.7c-3.7,0-6.5,2.9-6.5,6.7c0,3.7,2.7,6.7,6.5,6.8
		C76,115.5,78.5,112.5,78.6,108.7L78.6,108.7z"/>
</g>
<g class="st2">
	<path class="st1" d="M85.3,107.2l0-8.3l0-0.1l2,0l1.9,0l0,0.1l0,8.3l0,2.6l0,5.5c0,0.1,0,0.2,0.1,0.2l4.2,0l1.1,0l0.7,0l0.1,0
		l0,3.2l-4.7,0l-5.4,0v-0.1l0-8.8L85.3,107.2z"/>
</g>
<g class="st2">
	<path class="st1" d="M97.2,107.3l0-8.4v-0.1l1.9,0l2,0v0.1l0,8.4l0,2.5c0,1.9,0.2,3.1,0.7,4c0.7,1.1,2.1,1.8,3.6,1.8
		c1.5,0,2.8-0.6,3.5-1.7c0.6-0.9,0.8-2.3,0.9-4.3l0-2.4l0-8.4v-0.1l1.9,0l1.9,0v0.1l0,8.4l0,2.4c0,2.6-0.3,4.3-1.1,5.7
		c-1.1,2-3.6,3.7-7,3.7c-3.4,0-6-1.4-7.3-3.9c-0.7-1.4-0.9-2.9-0.9-5.4L97.2,107.3z"/>
	<path class="st1" d="M117,107.3l0-8.3l0-0.1l2,0l1.9,0V99l0,8.3l0,2.6l0,5.5c0,0.1,0,0.2,0.1,0.2l4.2,0l1.1,0l0.7,0h0.1l0,3.2
		l-4.7,0l-5.4,0v-0.1l0-8.8L117,107.3z"/>
	<path class="st1" d="M128.5,107.3l0-8.4v-0.1l1.9,0l2,0V99l0,8.4l0,2.5c0,1.9,0.2,3.1,0.7,4c0.7,1.2,2.1,1.8,3.6,1.8
		c1.5,0,2.8-0.6,3.5-1.7c0.6-0.9,0.8-2.3,0.9-4.3l0-2.4l0-8.4v-0.1l1.9,0l1.9,0V99l0,8.4l0,2.4c0,2.6-0.3,4.3-1.1,5.7
		c-1.1,2-3.6,3.7-7,3.7c-3.4,0-6-1.4-7.3-3.9c-0.7-1.4-0.9-2.9-0.9-5.4L128.5,107.3z"/>
	<path class="st1" d="M163.1,110c-0.9,1.7-2.1,3.7-3.2,5.6v0.1l6.6,0l2.4,0l0.1,0l0,3.2l-11.6,0l-1.4,0l-2.1,0v-0.1
		c1.6-3,3.3-5.9,4.9-8.9l1.4-2.5c0.9-1.7,1.9-3.5,2.9-5.2v-0.1l-5.7,0l-2.4,0h-0.1l0-3.2l11.4,0l1.9,0l1,0V99
		c-1.5,2.8-3,5.6-4.5,8.4L163.1,110z"/>
	<path class="st1" d="M190.6,108.9c0,5.8-4.4,10.4-10.4,10.3c-5.8,0-10.3-4.5-10.3-10.2c0-5.8,4.5-10.3,10.6-10.2
		C186.4,98.8,190.6,103.2,190.6,108.9L190.6,108.9z M186.6,109c0-3.8-2.7-6.7-6.3-6.7c-3.7,0-6.5,2.9-6.5,6.7c0,3.7,2.7,6.7,6.5,6.8
		S186.6,112.8,186.6,109L186.6,109z"/>
	<path class="st1" d="M213.3,108.9c0,5.8-4.4,10.4-10.4,10.3c-5.8,0-10.3-4.5-10.3-10.2c0-5.8,4.5-10.3,10.6-10.2
		C209.1,98.8,213.3,103.2,213.3,108.9L213.3,108.9z M209.4,109c0-3.8-2.7-6.7-6.3-6.7c-3.7,0-6.5,2.9-6.5,6.7c0,3.7,2.7,6.7,6.5,6.8
		C206.8,115.8,209.4,112.8,209.4,109L209.4,109z"/>
</g>
</svg>
