<?xml version="1.0" encoding="utf-8"?>
<!-- Generator: Adobe Illustrator 24.0.3, SVG Export Plug-In . SVG Version: 6.00 Build 0)  -->
<svg version="1.1" id="Layer_1" xmlns="http://www.w3.org/2000/svg" xmlns:xlink="http://www.w3.org/1999/xlink" x="0px" y="0px"
	 viewBox="0 0 432 432" style="enable-background:new 0 0 432 432;" xml:space="preserve">
<style type="text/css">
	.st0{opacity:0.5;}
	.st1{opacity:0.5;enable-background:new    ;}
</style>
<g>
	<g>
		<path d="M116.4,292c-7.8,0-13.8,5.7-13.8,13.3c0,7.4,5.8,13.2,13.2,13.2c7.8,0,13.5-5.7,13.5-13.4
			C129.3,297.6,123.8,292,116.4,292z M122.5,310.7c-2.8,3.9-8.7,4.4-12.1,1c-1.8-1.8-2.7-4-2.7-6.5c0-4,2.3-7.2,5.9-8.3
			c4.8-1.4,9.7,1.7,10.4,6.7C124.4,306.2,124.1,308.6,122.5,310.7z"/>
		<g class="st0">
			<path d="M116.4,292c-7.8,0-13.8,5.7-13.8,13.3c0,7.4,5.8,13.2,13.2,13.2c7.8,0,13.5-5.7,13.5-13.4
				C129.3,297.6,123.8,292,116.4,292z M122.5,310.7c-2.8,3.9-8.7,4.4-12.1,1c-1.8-1.8-2.7-4-2.7-6.5c0-4,2.3-7.2,5.9-8.3
				c4.8-1.4,9.7,1.7,10.4,6.7C124.4,306.2,124.1,308.6,122.5,310.7z"/>
		</g>
	</g>
	<g>
		<path d="M184.7,303.6c-0.4-3.4-1.9-6.3-4.6-8.5c-3.1-2.5-6.7-3.3-10.6-2.7c-7.8,1.1-12.6,8.2-11.2,15.7
			c1.4,7.2,8.3,11.8,15.8,10.3c6.4-1.3,10.6-6.5,10.7-13.2C184.8,304.7,184.7,304.2,184.7,303.6z M177.5,311.5
			c-1.5,1.8-3.6,2.7-6,2.7c-4.1,0-7.6-3-8.2-7.1c-0.5-3.1,0.2-5.9,2.5-8.1c4-3.8,11.5-2.8,13.4,3.6
			C180.2,305.8,179.7,308.9,177.5,311.5z"/>
		<g class="st0">
			<path d="M184.7,303.6c-0.4-3.4-1.9-6.3-4.6-8.5c-3.1-2.5-6.7-3.3-10.6-2.7c-7.8,1.1-12.6,8.2-11.2,15.7
				c1.4,7.2,8.3,11.8,15.8,10.3c6.4-1.3,10.6-6.5,10.7-13.2C184.8,304.7,184.7,304.2,184.7,303.6z M177.5,311.5
				c-1.5,1.8-3.6,2.7-6,2.7c-4.1,0-7.6-3-8.2-7.1c-0.5-3.1,0.2-5.9,2.5-8.1c4-3.8,11.5-2.8,13.4,3.6
				C180.2,305.8,179.7,308.9,177.5,311.5z"/>
		</g>
	</g>
	<g>
		<path d="M352.4,299.7c-2.4-4.6-6.5-6.6-11.8-6.8c-0.6,0.1-1.4,0.1-2.3,0.2c-9.5,1.5-13.7,11.4-9.7,19.2c2.8,5.5,8.8,8.1,14.9,6.8
			C353,317.1,356.1,306.8,352.4,299.7z M344.6,313.8c-4.3,2.5-10.6,0.6-12.1-5.4c-0.9-3.6,0.4-7.4,3.2-9.4c4.4-3.2,11.4-1.5,12.9,5
			c0.1,0.7,0.2,1.4,0.3,1.9C348.7,309.4,347.5,312.1,344.6,313.8z"/>
		<g class="st0">
			<path d="M352.4,299.7c-2.4-4.6-6.5-6.6-11.8-6.8c-0.6,0.1-1.4,0.1-2.3,0.2c-9.5,1.5-13.7,11.4-9.7,19.2c2.8,5.5,8.8,8.1,14.9,6.8
				C353,317.1,356.1,306.8,352.4,299.7z M344.6,313.8c-4.3,2.5-10.6,0.6-12.1-5.4c-0.9-3.6,0.4-7.4,3.2-9.4c4.4-3.2,11.4-1.5,12.9,5
				c0.1,0.7,0.2,1.4,0.3,1.9C348.7,309.4,347.5,312.1,344.6,313.8z"/>
		</g>
	</g>
	<g>
		<path d="M324.4,304.5c-0.3-3.7-1.9-6.7-4.8-9c-3.4-2.6-7.3-3.2-11.4-2.3c-7.3,1.6-11.6,8.4-10.2,15.5c1.2,6.4,6.5,10.6,14.4,10.6
			c2.5,0,5.8-1.3,8.5-4.1C323.7,312.2,324.8,308.6,324.4,304.5z M317.9,311.2c-1.7,2.6-4.2,3.8-7.3,3.5c-3.1-0.2-5.4-1.9-6.8-4.7
			c-0.6-1.3-0.9-2.6-0.9-4c0-4.1,2.4-7.4,6.2-8.4c4.9-1.3,9.6,1.9,10.2,6.9C319.6,306.9,319.2,309.2,317.9,311.2z"/>
		<g class="st0">
			<path d="M324.4,304.5c-0.3-3.7-1.9-6.7-4.8-9c-3.4-2.6-7.3-3.2-11.4-2.3c-7.3,1.6-11.6,8.4-10.2,15.5c1.2,6.4,6.5,10.6,14.4,10.6
				c2.5,0,5.8-1.3,8.5-4.1C323.7,312.2,324.8,308.6,324.4,304.5z M317.9,311.2c-1.7,2.6-4.2,3.8-7.3,3.5c-3.1-0.2-5.4-1.9-6.8-4.7
				c-0.6-1.3-0.9-2.6-0.9-4c0-4.1,2.4-7.4,6.2-8.4c4.9-1.3,9.6,1.9,10.2,6.9C319.6,306.9,319.2,309.2,317.9,311.2z"/>
		</g>
	</g>
	<g>
		<path d="M154.4,292.5v26c-0.1,0.1-0.1,0.1-0.2,0.2c-0.3-0.1-0.6-0.2-0.8-0.4c-5.1-5.1-10.2-10.3-15.4-15.5
			c-0.1-0.1-0.2-0.2-0.4-0.4v15.8H133v-25.9c0.4-0.2,0.7-0.1,1,0.2c5.2,5.3,10.4,10.5,15.6,15.8c0.1,0,0.1,0.1,0.2,0.2v-15.9
			L154.4,292.5L154.4,292.5z"/>
		<path class="st1" d="M154.4,292.5v26c-0.1,0.1-0.1,0.1-0.2,0.2c-0.3-0.1-0.6-0.2-0.8-0.4c-5.1-5.1-10.2-10.3-15.4-15.5
			c-0.1-0.1-0.2-0.2-0.4-0.4v15.8H133v-25.9c0.4-0.2,0.7-0.1,1,0.2c5.2,5.3,10.4,10.5,15.6,15.8c0.1,0,0.1,0.1,0.2,0.2v-15.9
			L154.4,292.5L154.4,292.5z"/>
	</g>
	<g>
		<polygon points="98.9,292.3 98.9,318 93.9,318 93.9,307.1 83,307.1 83,317.9 78.1,317.9 78.1,292.2 83.1,292.2 83.1,302.8 
			94,302.8 94,292.3 		"/>
		<polygon class="st1" points="98.9,292.3 98.9,318 93.9,318 93.9,307.1 83,307.1 83,317.9 78.1,317.9 78.1,292.2 83.1,292.2 
			83.1,302.8 94,302.8 94,292.3 		"/>
	</g>
	<g>
		<path d="M265.3,293v0.5c0,4.6,0,9.1-0.1,13.7c0,1.7-0.2,3.4-0.6,5c-0.8,3.4-3.1,5.5-6.3,6.5c-3,0.9-5.9,0.7-8.8-0.5
			c-3-1.4-4.6-3.8-5.1-7c-0.2-1.2-0.2-2.4-0.2-3.6c0-4.7,0-9.3,0-14c0-0.4,0.1-0.6,0.6-0.6c1.3,0,2.6,0,3.9,0c0.5,0,0.6,0.1,0.6,0.6
			c0,4.8-0.1,9.6-0.1,14.4c0,0.9,0.1,1.9,0.3,2.8c0.3,1.9,1.5,3.1,3.3,3.6c2.2,0.6,4.2,0.4,5.9-1.3c1-1,1.3-2.3,1.4-3.7
			c0.1-1,0.1-2,0.1-2.9c0-3.5,0-7.1,0-10.6V293L265.3,293L265.3,293z"/>
		<path class="st1" d="M265.3,293v0.5c0,4.6,0,9.1-0.1,13.7c0,1.7-0.2,3.4-0.6,5c-0.8,3.4-3.1,5.5-6.3,6.5c-3,0.9-5.9,0.7-8.8-0.5
			c-3-1.4-4.6-3.8-5.1-7c-0.2-1.2-0.2-2.4-0.2-3.6c0-4.7,0-9.3,0-14c0-0.4,0.1-0.6,0.6-0.6c1.3,0,2.6,0,3.9,0c0.5,0,0.6,0.1,0.6,0.6
			c0,4.8-0.1,9.6-0.1,14.4c0,0.9,0.1,1.9,0.3,2.8c0.3,1.9,1.5,3.1,3.3,3.6c2.2,0.6,4.2,0.4,5.9-1.3c1-1,1.3-2.3,1.4-3.7
			c0.1-1,0.1-2,0.1-2.9c0-3.5,0-7.1,0-10.6V293L265.3,293L265.3,293z"/>
	</g>
	<g>
		<path d="M224.8,293.4c0,3.5,0,7,0,10.4c0,2-0.1,3.9-0.2,5.9c-0.3,5-3.6,8.5-8.6,9.2c-2.8,0.3-5.5,0-7.9-1.5
			c-2.4-1.5-3.6-3.7-4-6.4c-0.2-1.1-0.2-2.3-0.2-3.5c0-4.7,0-9.5,0-14.2c0-0.2,0-0.3,0-0.5h5c0,1.4,0,2.7,0,4.1c0,3.9,0,7.8,0,11.6
			c0,0.7,0.1,1.4,0.3,2.1c0.4,1.8,1.5,3,3.2,3.5c2.2,0.6,4.3,0.5,6-1.2c1.1-1.1,1.4-2.5,1.4-4c0.1-2,0.1-4.1,0.1-6.1
			c0-3.1,0-6.2,0-9.4c0-0.5,0.1-0.6,0.6-0.6c1.4,0,2.8,0,4.3,0C224.8,293,224.8,293.2,224.8,293.4z"/>
		<path class="st1" d="M224.8,293.4c0,3.5,0,7,0,10.4c0,2-0.1,3.9-0.2,5.9c-0.3,5-3.6,8.5-8.6,9.2c-2.8,0.3-5.5,0-7.9-1.5
			c-2.4-1.5-3.6-3.7-4-6.4c-0.2-1.1-0.2-2.3-0.2-3.5c0-4.7,0-9.5,0-14.2c0-0.2,0-0.3,0-0.5h5c0,1.4,0,2.7,0,4.1c0,3.9,0,7.8,0,11.6
			c0,0.7,0.1,1.4,0.3,2.1c0.4,1.8,1.5,3,3.2,3.5c2.2,0.6,4.3,0.5,6-1.2c1.1-1.1,1.4-2.5,1.4-4c0.1-2,0.1-4.1,0.1-6.1
			c0-3.1,0-6.2,0-9.4c0-0.5,0.1-0.6,0.6-0.6c1.4,0,2.8,0,4.3,0C224.8,293,224.8,293.2,224.8,293.4z"/>
	</g>
	<g>
		<path d="M284.8,314.6h11.5v4.2h-19.5c4-7.2,8-14.4,12-21.6h-10.6v-4.1h18.5C292.7,300.3,288.8,307.4,284.8,314.6z"/>
		<path class="st1" d="M284.8,314.6h11.5v4.2h-19.5c4-7.2,8-14.4,12-21.6h-10.6v-4.1h18.5C292.7,300.3,288.8,307.4,284.8,314.6z"/>
	</g>
	<g>
		<polygon points="242.4,314.4 242.4,318.6 229.4,318.6 229.4,292.8 234.3,292.8 234.3,314.4 		"/>
		<polygon class="st1" points="242.4,314.4 242.4,318.6 229.4,318.6 229.4,292.8 234.3,292.8 234.3,314.4 		"/>
	</g>
	<g>
		<path d="M201.5,314.2v4.2h-13v-25.7h5v0.7c0,5.7,0,11.4,0,17.1c0,1.1,0,2.1,0,3.2c0,0.4,0.1,0.5,0.5,0.5c2.3,0,4.6,0,6.9,0
			L201.5,314.2L201.5,314.2z"/>
		<path class="st1" d="M201.5,314.2v4.2h-13v-25.7h5v0.7c0,5.7,0,11.4,0,17.1c0,1.1,0,2.1,0,3.2c0,0.4,0.1,0.5,0.5,0.5
			c2.3,0,4.6,0,6.9,0L201.5,314.2L201.5,314.2z"/>
	</g>
	<circle cx="197.1" cy="208.3" r="5"/>
	<path d="M184.1,257.9c8.5-1.6,14.9-9.1,14.7-17.8c0-0.5,0-0.9-0.1-1.3c-0.4-3.4,1.9-9.7,2.2-10.7c0.3-1-2.4-0.7-2.4-0.7
		c1.3-1.3,2.1-2.7,2.1-2.7c-4.2-11.4-19.7-8.4-19.7-8.4s0.6-2.5-0.9-2.2c-1.5,0.3-10.1-0.5-14.8-2.3s3.3-7.6-2.2-13.8
		c-2.6-3-6.4,0.6-9.5-1.7c-2.7-2-10.4-5.1-10.4-5.1s-15.5,37.7,23.1,63.3c3.8,2.6,8.4,3.8,13,3.8
		C181.1,258.2,182.9,258.1,184.1,257.9z M161.5,224c-2.7-0.1-4.9-2.5-4.7-5.2c0.1-2.7,2.5-4.9,5.2-4.7c2.7,0.1,4.9,2.5,4.7,5.2
		S164.3,224.1,161.5,224z"/>
	<path d="M283.4,111.2c-21-26.4-62.3-3.9-70.4,7.1c-5.9,8,2.2,15.5,7.1,19c1.5,1.1,3.6,0.5,4.3-1.2c1.8-4.2,5.9-9.4,11.5-13
		c13-8.4,31.6-5.5,31.5,10.3c-0.1,22.5-34.1,16.7-40.7,14.6c-5.3-1.7-47.9-12.9-72.5,26.1c0,0,15.7-2.4,11.2,15.1
		c0,0,19.5,0,26.2,0.9c4.4,0.6,7.5,4.7,9.3,9.5c0,0,19.7-0.7,31.5,1.1c2.7,0.4,3.4,3.7,3.2,6.8c4.6-11.5,16.1-16.2,27.5-18.2
		C280.7,176.1,304.7,138,283.4,111.2z M219.9,175.7c-3.7,0-6.6-3-6.6-6.7c0-3.7,3-6.6,6.7-6.6c3.7,0,6.6,3,6.6,6.7
		C226.6,172.7,223.6,175.7,219.9,175.7z"/>
	<path d="M237.9,216.1c-4.5,34.5-40.8,46.9-56.9,46.2c51.6,19.2,77-4.5,80.3-22.3c3.2-17.9-3.9-35.3,22.8-47.7
		C269.8,192.9,241.2,191.1,237.9,216.1z M259.4,207.1c0,2.7-2.2,5-5,4.9c-2.7,0-5-2.2-4.9-5c0-2.7,2.2-5,5-4.9
		C257.2,202.1,259.4,204.4,259.4,207.1z"/>
</g>
</svg>
