<?xml version="1.0" encoding="utf-8"?>
<!-- Generator: Adobe Illustrator 24.0.3, SVG Export Plug-In . SVG Version: 6.00 Build 0)  -->
<svg version="1.1" id="Layer_1" xmlns="http://www.w3.org/2000/svg" xmlns:xlink="http://www.w3.org/1999/xlink" x="0px" y="0px"
	 viewBox="0 0 213.8 119.4" style="enable-background:new 0 0 213.8 119.4;" xml:space="preserve">
<style type="text/css">
	.st0{display:none;}
	.st1{display:inline;fill:#231F20;}
	.st2{fill:#231F20;}
	.st3{enable-background:new    ;}
	.st4{fill:none;}
	.st5{fill:#FFFFFF;stroke:#FFFFFF;stroke-width:3.7374;stroke-miterlimit:10;}
	.st6{fill:none;stroke:#FFFFFF;stroke-width:1.1876;stroke-miterlimit:10;}
	.st7{fill:none;stroke:#231F20;stroke-width:1.1876;stroke-miterlimit:10;}
	.st8{fill:#231F20;stroke:#231F20;stroke-width:1.1876;stroke-miterlimit:10;}
	.st9{fill:#FFFFFF;}
	.st10{fill:#FCFDFF;stroke:#231F20;stroke-width:0.6221;stroke-miterlimit:10;}
</style>
<g id="Layer_2_1_" class="st0">
	<rect x="561.8" y="-133.2" class="st1" width="252" height="252"/>
</g>
<g>
	<g>
		<circle class="st2" cx="382.1" cy="49.9" r="2.1"/>
		<path class="st2" d="M373,70.9c1.8,0.2,4.7-0.2,8-1.5c1.7-2.3,2-5.6,1.9-6.7c-0.2-1.4,0.8-4.1,0.9-4.5s-1-0.3-1-0.3
			c0.5-0.5,0.9-1.1,0.9-1.1c-1.8-4.8-8.2-3.5-8.2-3.5s0.2-1.1-0.4-0.9c-0.6,0.1-4.2-0.2-6.2-0.9s1.4-3.2-0.9-5.8
			c-1.1-1.3-2.7,0.2-4-0.7c-1.1-0.8-4.4-2.1-4.4-2.1s-7.1,17.3,12.2,27.9L373,70.9z M367.3,56.5c-1.1-0.1-2-1-2-2.2s1-2,2.2-2
			c1.1,0.1,2,1,2,2.2C369.4,55.7,368.4,56.5,367.3,56.5z"/>
		<path class="st2" d="M383.7,46.2c0,0,8.2-0.3,13.2,0.4c1.6,0.2,1.5,2.9,1.2,4.3c1.5-5.4,6.1-7.8,11.2-8.4
			c7.3-5.1,19.9-22,10.6-33.3c-11-13.4-27.7-1.6-31.1,3c-2.4,3.3,0.9,6.4,3,7.9c0.6,0.4,1.5,0.2,1.8-0.5c0.7-1.7,2.5-3.9,4.8-5.4
			c5.4-3.5,13.2-2.3,13.2,4.3c0,9.4-14.2,7-17,6.1c-2.2-0.7-20-5.3-30.3,11c0,0,6.5-1,4.7,6.3c0,0,8.1,0,10.9,0.4
			C381.6,42.6,382.9,44.3,383.7,46.2z M391.6,30.7c1.5,0,2.8,1.2,2.8,2.8c0,1.5-1.2,2.8-2.8,2.8c-1.5,0-2.8-1.2-2.8-2.8
			S390.1,30.7,391.6,30.7z"/>
		<path class="st2" d="M398.5,52.1c-3,13.7-16.8,19-23.4,19.6l0,0c3.5,1.1,11,2.5,18.2,2.1c8.1-0.5,14-4.1,15.4-11.5
			c1.3-7.5-1.7-14.7,9.5-20C412.1,42.7,400.5,42.9,398.5,52.1z M407.8,48.7c0,1.2-0.9,2.1-2.1,2.1s-2.1-0.9-2.1-2.1s0.9-2.1,2.1-2.1
			S407.8,47.5,407.8,48.7z"/>
	</g>
	
		<text transform="matrix(1 2.280000e-03 -2.280000e-03 1 285.9753 112.4537)" class="st2" style="font-family:'PenumbraSansStd-Semibold'; font-size:25.5247px;">Hono</text>
	
		<text transform="matrix(1 2.280000e-03 -2.280000e-03 1 371.3552 112.6482)" class="st2" style="font-family:'PenumbraSansStd-Semibold'; font-size:25.5247px;">l</text>
	
		<text transform="matrix(1 2.280000e-03 -2.280000e-03 1 383.5253 112.6761)" class="st2" style="font-family:'PenumbraSansStd-Semibold'; font-size:25.5247px;">ulu Zoo</text>
</g>
<g class="st3">
	<path class="st2" d="M22.7,98.6l-0.2,1c-2.2,0-2.6,0.6-3,2.8l-0.8,5.1h10.2l0.8-5c0.1-0.5,0.1-0.9,0.1-1.3c0-1.4-1-1.7-2.6-1.7
		l0.2-1h8.4l-0.2,1c-1.9,0-2.6,0.2-3.2,3.7l-1.4,9.3c-0.3,2.1-0.4,2.7-0.4,3.3c0,1.2,0.5,1.7,2.5,1.7l-0.1,1h-8.4l0.2-1
		c2.6,0,2.8-1.2,3.1-3.3l0.8-5.3H18.5l-0.6,4.2c-0.1,0.6-0.4,2-0.4,2.7c0,1.2,0.7,1.7,2.5,1.7l-0.2,1h-8.3l0.2-1
		c2-0.2,2.7-0.6,3-2.7l1.8-11.8c0.1-0.5,0.3-1.5,0.3-1.9c0.1-1-0.5-1.7-2.5-1.7l0.1-1H22.7z"/>
	<path class="st2" d="M43.9,104.2c3.7,0,6.3,2.8,6.3,6.4c0,4.6-3.6,8.1-7.7,8.1c-3.8,0-6.2-2.8-6.2-6.4
		C36.3,108.2,39.2,104.2,43.9,104.2z M44,105.4c-2.9,0-4.7,4.1-4.7,7.7c0,2.9,1.3,4.5,3.3,4.5c2.8,0,4.7-3.4,4.7-7.7
		C47.3,107.1,46,105.4,44,105.4z"/>
	<path class="st2" d="M57.1,109.8L57.1,109.8c2.2-4.2,4.9-5.6,6.7-5.6c1.6,0,2.9,1.2,2.9,3c0,2.1-1.7,7.7-1.7,9.2
		c0,0.4,0.1,0.9,0.6,0.9c0.6,0,1.6-1,2-1.5l0.8,0.6c-0.9,1-2.5,2.3-3.8,2.3c-0.9,0-2.2-0.5-2.2-2.2c0-1.9,1.7-7.5,1.7-9.1
		c0-0.8-0.5-1.2-1.2-1.2c-3,0-5.9,4.2-6.6,8.8l-0.5,3.5h-2.6l1.7-9.7c0.1-0.8,0.3-1.5,0.3-1.9c0-0.9-0.5-1.1-1.9-1.1l0.1-1
		c1.7-0.1,3.7-0.4,4.8-0.6L57.1,109.8z"/>
	<path class="st2" d="M77.8,104.2c3.7,0,6.3,2.8,6.3,6.4c0,4.6-3.6,8.1-7.7,8.1c-3.8,0-6.2-2.8-6.2-6.4
		C70.1,108.2,73.1,104.2,77.8,104.2z M77.8,105.4c-2.9,0-4.7,4.1-4.7,7.7c0,2.9,1.3,4.5,3.3,4.5c2.8,0,4.7-3.4,4.7-7.7
		C81.1,107.1,79.9,105.4,77.8,105.4z"/>
	<path class="st2" d="M88.1,98.1c1.5-0.1,3.2-0.4,5-0.7c-0.3,0.6-0.4,1.5-0.6,2.9l-2.3,14.3c-0.1,0.6-0.2,1.2-0.2,1.7
		c0,0.3,0.2,0.8,0.7,0.8c0.4,0,1.1-0.4,1.8-1.3l0.7,0.6c-0.9,1.1-2.2,2.2-3.8,2.2c-1,0-2.1-0.8-2.1-1.7c0-1.1,0.1-1.6,0.2-2.4
		l2-12.7c0.1-0.8,0.2-1.3,0.2-1.7c0-1-0.5-1.1-1.9-1.1L88.1,98.1z"/>
	<path class="st2" d="M95.3,104.9c1.7-0.1,3.5-0.3,4.9-0.6l-1.5,9.1c-0.1,0.6-0.2,1.2-0.2,2c0,0.9,0.5,1.5,1.4,1.5
		c2.4,0,5.6-4.6,6.2-7.9l0.8-4.4h2.6l-1.8,10.3c-0.1,0.7-0.1,1.3-0.1,1.5c0,0.5,0.3,0.8,0.6,0.8c0.6,0,1.2-0.6,1.9-1.3l0.7,0.7
		c-0.6,0.8-2,2.2-3.9,2.2c-1.1,0-2-0.7-2-2c0-1.2,0.3-2.4,0.5-3.5l-0.1-0.1c-1,2.4-3.7,5.6-6.6,5.6c-1.8,0-2.9-1.2-2.9-3
		c0-2.3,1.3-6.9,1.3-8.9c0-0.9-0.5-1-2-1L95.3,104.9z"/>
	<path class="st2" d="M113.7,98.1c1.5-0.1,3.2-0.4,5-0.7c-0.3,0.6-0.4,1.5-0.6,2.9l-2.3,14.3c-0.1,0.6-0.2,1.2-0.2,1.7
		c0,0.3,0.2,0.8,0.7,0.8c0.4,0,1.1-0.4,1.8-1.3l0.7,0.6c-0.9,1.1-2.2,2.2-3.8,2.2c-1,0-2.1-0.8-2.1-1.7c0-1.1,0.1-1.6,0.2-2.4
		l2-12.7c0.1-0.8,0.2-1.3,0.2-1.7c0-1-0.5-1.1-1.9-1.1L113.7,98.1z"/>
	<path class="st2" d="M120.9,104.9c1.7-0.1,3.5-0.3,4.9-0.6l-1.5,9.1c-0.1,0.6-0.2,1.2-0.2,2c0,0.9,0.5,1.5,1.4,1.5
		c2.4,0,5.6-4.6,6.2-7.9l0.8-4.4h2.6l-1.8,10.3c-0.1,0.7-0.1,1.3-0.1,1.5c0,0.5,0.3,0.8,0.6,0.8c0.6,0,1.2-0.6,1.9-1.3l0.7,0.7
		c-0.6,0.8-2,2.2-3.9,2.2c-1.1,0-2-0.7-2-2c0-1.2,0.3-2.4,0.5-3.5l-0.1-0.1c-1,2.4-3.7,5.6-6.6,5.6c-1.8,0-2.9-1.2-2.9-3
		c0-2.3,1.3-6.9,1.3-8.9c0-0.9-0.5-1-2-1L120.9,104.9z"/>
	<path class="st2" d="M164,98.6v0.8l-14.9,17.8h6.8c3.5,0,4.4-1.4,5.8-3.9h1l-1.2,5.3h-16.4v-1.1l14.8-17.5h-7
		c-2.1,0-2.9,0.6-4.2,3.4h-1l1-4.8H164z"/>
	<path class="st2" d="M173.6,104.2c3.7,0,6.3,2.8,6.3,6.4c0,4.6-3.6,8.1-7.7,8.1c-3.8,0-6.2-2.8-6.2-6.4
		C166,108.2,168.9,104.2,173.6,104.2z M173.6,105.4c-2.9,0-4.7,4.1-4.7,7.7c0,2.9,1.3,4.5,3.3,4.5c2.8,0,4.7-3.4,4.7-7.7
		C176.9,107.1,175.7,105.4,173.6,105.4z"/>
	<path class="st2" d="M190.3,104.2c3.7,0,6.3,2.8,6.3,6.4c0,4.6-3.6,8.1-7.7,8.1c-3.8,0-6.2-2.8-6.2-6.4
		C182.6,108.2,185.5,104.2,190.3,104.2z M190.3,105.4c-2.9,0-4.7,4.1-4.7,7.7c0,2.9,1.3,4.5,3.3,4.5c2.8,0,4.7-3.4,4.7-7.7
		C193.6,107.1,192.3,105.4,190.3,105.4z"/>
</g>
<g>
	<g>
		<g>
			<g>
				<line class="st4" x1="127" y1="44.6" x2="120.8" y2="43.6"/>
				<path class="st2" d="M127,44.8l-6.1-1.2l6.2,0.8c0.1,0,0.1,0.1,0.1,0.2C127.1,44.7,127.1,44.8,127,44.8L127,44.8z"/>
			</g>
			<g>
				<line class="st4" x1="125.3" y1="47.8" x2="120.2" y2="46"/>
				<path class="st2" d="M125.2,47.8l-5-1.9l5,1.7C125.3,47.7,125.3,47.7,125.2,47.8C125.3,47.8,125.3,47.9,125.2,47.8L125.2,47.8z"
					/>
			</g>
		</g>
		<g>
			<g>
				<line class="st4" x1="124.8" y1="51" x2="119.7" y2="48.1"/>
				<path class="st2" d="M124.7,51.1l-5-3l5.2,2.7c0.1,0,0.1,0.1,0.1,0.2C124.9,51.2,124.8,51.2,124.7,51.1
					C124.7,51.2,124.7,51.2,124.7,51.1z"/>
			</g>
			<g>
				<line class="st4" x1="122.1" y1="53.4" x2="118.8" y2="50.6"/>
				<path class="st2" d="M122,53.4l-3.3-2.8L122,53.4L122,53.4C122.1,53.4,122.1,53.5,122,53.4L122,53.4z"/>
			</g>
		</g>
		<g>
			<g>
				<line class="st4" x1="120.5" y1="56.2" x2="116.4" y2="51.5"/>
				<path class="st2" d="M120.4,56.3l-4-4.8l4.2,4.7c0.1,0.1,0.1,0.2,0,0.2S120.4,56.4,120.4,56.3L120.4,56.3z"/>
			</g>
			<g>
				<line class="st4" x1="117.2" y1="57.5" x2="113.9" y2="52"/>
				<path class="st2" d="M117.1,57.6l-3.2-5.6l3.3,5.5v0.1H117.1L117.1,57.6z"/>
			</g>
		</g>
		<g>
			<g>
				<line class="st4" x1="114.7" y1="59.7" x2="111.8" y2="52.2"/>
				<path class="st2" d="M114.6,59.8l-2.7-7.6l3,7.4c0,0.1,0,0.2-0.1,0.2C114.7,59.9,114.6,59.8,114.6,59.8L114.6,59.8z"/>
			</g>
			<g>
				<line class="st4" x1="111.1" y1="59.8" x2="109.8" y2="52.3"/>
				<path class="st2" d="M111,59.8l-1.3-7.5L111,59.8C111.2,59.8,111.2,59.8,111,59.8C111.1,59.9,111,59.8,111,59.8L111,59.8z"/>
			</g>
		</g>
		<g>
			<g>
				<line class="st4" x1="108.1" y1="61" x2="107.9" y2="52.3"/>
				<path class="st2" d="M107.9,61v-8.7l0.3,8.6c0,0.1-0.1,0.2-0.1,0.2C108,61.1,107.9,61.1,107.9,61L107.9,61z"/>
			</g>
			<g>
				<line class="st4" x1="104.7" y1="59.8" x2="105.9" y2="52.3"/>
				<path class="st2" d="M104.6,59.8l1.4-7.5l-1.2,7.5C104.8,59.8,104.7,59.9,104.6,59.8C104.6,59.9,104.6,59.8,104.6,59.8
					L104.6,59.8z"/>
			</g>
		</g>
		<g>
			<g>
				<line class="st4" x1="101.4" y1="59.9" x2="104.1" y2="52.2"/>
				<path class="st2" d="M101.2,59.8l2.8-7.6l-2.5,7.7c0,0.1-0.1,0.1-0.2,0.1C101.3,60,101.2,59.9,101.2,59.8L101.2,59.8z"/>
			</g>
			<g>
				<line class="st4" x1="98.6" y1="57.6" x2="101.8" y2="52"/>
				<path class="st2" d="M98.5,57.6l3.3-5.6l-3.1,5.7c0,0-0.1,0.1-0.1,0S98.5,57.6,98.5,57.6L98.5,57.6z"/>
			</g>
		</g>
		<g>
			<g>
				<line class="st4" x1="95.5" y1="56.6" x2="99.5" y2="51.6"/>
				<path class="st2" d="M95.4,56.5l4.2-4.8l-3.9,5.1c-0.1,0.1-0.1,0.1-0.2,0C95.3,56.7,95.3,56.6,95.4,56.5L95.4,56.5z"/>
			</g>
			<g>
				<line class="st4" x1="93.6" y1="53.5" x2="96.8" y2="50.8"/>
				<path class="st2" d="M93.6,53.5l3.2-2.7L93.6,53.5L93.6,53.5L93.6,53.5L93.6,53.5z"/>
			</g>
		</g>
		<g>
			<g>
				<line class="st4" x1="91.1" y1="51.5" x2="95.6" y2="48.8"/>
				<path class="st2" d="M91,51.3l4.6-2.6l-4.4,2.8c-0.1,0.1-0.2,0-0.2-0.1S90.9,51.4,91,51.3L91,51.3z"/>
			</g>
			<g>
				<line class="st4" x1="90.4" y1="48" x2="95.5" y2="46.1"/>
				<path class="st2" d="M90.4,47.9l5.1-1.8l-5.1,2h-0.1C90.3,47.9,90.3,47.9,90.4,47.9L90.4,47.9z"/>
			</g>
		</g>
		<g>
			<g>
				<line class="st4" x1="88.7" y1="45.2" x2="94.6" y2="44"/>
				<path class="st2" d="M88.7,45l6-1l-5.9,1.3c-0.1,0-0.2,0-0.2-0.1S88.6,45,88.7,45C88.6,45,88.6,45,88.7,45z"/>
			</g>
			<g>
				<line class="st4" x1="89.2" y1="41.6" x2="93.6" y2="41.6"/>
				<path class="st2" d="M89.2,41.5l4.3,0.1l-4.3,0.1C89.2,41.7,89.2,41.7,89.2,41.5C89.2,41.6,89.2,41.5,89.2,41.5L89.2,41.5z"/>
			</g>
		</g>
		<g>
			<g>
				<line class="st4" x1="88.6" y1="38.4" x2="94.4" y2="39.3"/>
				<path class="st2" d="M88.6,38.3l5.7,1.1l-5.8-0.8c-0.1,0-0.1-0.1-0.1-0.2C88.4,38.3,88.5,38.2,88.6,38.3L88.6,38.3z"/>
			</g>
			<g>
				<line class="st4" x1="90.3" y1="35.3" x2="95.6" y2="37.1"/>
				<path class="st2" d="M90.4,35.2l5.2,1.9l-5.3-1.8C90.3,35.3,90.2,35.3,90.4,35.2C90.3,35.2,90.3,35.2,90.4,35.2L90.4,35.2z"/>
			</g>
		</g>
		<g>
			<g>
				<line class="st4" x1="90.8" y1="32" x2="97" y2="35.5"/>
				<path class="st2" d="M90.9,31.9l6.1,3.6l-6.2-3.3c-0.1,0-0.1-0.1-0.1-0.2C90.7,31.9,90.8,31.8,90.9,31.9L90.9,31.9z"/>
			</g>
			<g>
				<line class="st4" x1="93.5" y1="29.7" x2="98.6" y2="33.9"/>
				<path class="st2" d="M93.6,29.6l5.1,4.3L93.6,29.6L93.6,29.6C93.5,29.6,93.5,29.6,93.6,29.6L93.6,29.6z"/>
			</g>
		</g>
		<g>
			<g>
				<line class="st4" x1="92.9" y1="24.3" x2="100.3" y2="32.8"/>
				<path class="st2" d="M93.1,24.2l7.2,8.6l-7.5-8.4c-0.1-0.1-0.1-0.2,0-0.2S93,24.1,93.1,24.2L93.1,24.2z"/>
			</g>
			<g>
				<line class="st4" x1="98.4" y1="25.5" x2="102.2" y2="32"/>
				<path class="st2" d="M98.5,25.5l3.7,6.5l-3.9-6.4v-0.1C98.4,25.4,98.5,25.4,98.5,25.5L98.5,25.5z"/>
			</g>
		</g>
		<g>
			<g>
				<line class="st4" x1="100.9" y1="23.3" x2="104" y2="31.5"/>
				<path class="st2" d="M101,23.3l2.9,8.2l-3.2-8.1c0-0.1,0-0.2,0.1-0.2S101,23.2,101,23.3L101,23.3z"/>
			</g>
			<g>
				<line class="st4" x1="104.5" y1="23.3" x2="105.4" y2="28.2"/>
				<path class="st2" d="M104.6,23.2l0.8,4.9l-1-4.9C104.4,23.2,104.4,23.2,104.6,23.2C104.5,23.2,104.5,23.2,104.6,23.2L104.6,23.2
					z"/>
			</g>
		</g>
		<g>
			<g>
				<line class="st4" x1="107.5" y1="22.1" x2="107.6" y2="27.6"/>
				<path class="st2" d="M107.7,22.1l-0.1,5.5l-0.2-5.5c0-0.1,0.1-0.2,0.1-0.2C107.6,21.9,107.7,22,107.7,22.1L107.7,22.1z"/>
			</g>
			<g>
				<line class="st4" x1="110.9" y1="23.2" x2="110.1" y2="28.3"/>
				<path class="st2" d="M111,23.2l-0.9,5l0.8-5.1C110.8,23.2,110.9,23.2,111,23.2L111,23.2L111,23.2z"/>
			</g>
		</g>
		<g>
			<g>
				<line class="st4" x1="114.2" y1="23.1" x2="111.3" y2="31.5"/>
				<path class="st2" d="M114.3,23.2l-3.1,8.3l2.8-8.4c0-0.1,0.1-0.1,0.2-0.1S114.4,23.1,114.3,23.2L114.3,23.2z"/>
			</g>
			<g>
				<line class="st4" x1="117" y1="25.4" x2="113.2" y2="32"/>
				<path class="st2" d="M117.1,25.4l-3.9,6.6l3.7-6.7c0,0,0.1-0.1,0.1,0C117.1,25.3,117.1,25.4,117.1,25.4L117.1,25.4z"/>
			</g>
		</g>
		<g>
			<g>
				<line class="st4" x1="120.1" y1="26.4" x2="115" y2="32.7"/>
				<path class="st2" d="M120.2,26.5l-5.2,6.2l5-6.4c0.1-0.1,0.1-0.1,0.2,0C120.3,26.4,120.3,26.5,120.2,26.5L120.2,26.5z"/>
			</g>
			<g>
				<line class="st4" x1="121.9" y1="29.5" x2="116.7" y2="34"/>
				<path class="st2" d="M122,29.6l-5.3,4.4l5.2-4.5L122,29.6C122,29.5,122,29.5,122,29.6L122,29.6z"/>
			</g>
		</g>
		<g>
			<g>
				<line class="st4" x1="124.5" y1="31.6" x2="118.2" y2="35.3"/>
				<path class="st2" d="M124.6,31.7l-6.4,3.6l6.2-3.9c0.1-0.1,0.2,0,0.2,0.1C124.7,31.5,124.7,31.6,124.6,31.7L124.6,31.7z"/>
			</g>
			<g>
				<line class="st4" x1="125.2" y1="35.1" x2="119.6" y2="37.1"/>
				<path class="st2" d="M125.2,35.1l-5.6,2L125.2,35.1C125.2,35,125.3,35,125.2,35.1C125.3,35.1,125.3,35.1,125.2,35.1L125.2,35.1z
					"/>
			</g>
		</g>
		<g>
			<g>
				<line class="st4" x1="126.9" y1="37.9" x2="120.7" y2="39"/>
				<path class="st2" d="M126.9,38l-6.2,1l6.1-1.3c0.1,0,0.2,0,0.2,0.1C127.1,37.9,127,38,126.9,38L126.9,38z"/>
			</g>
			<g>
				<line class="st4" x1="126.4" y1="41.4" x2="121.6" y2="41.5"/>
				<path class="st2" d="M126.4,41.5h-4.8H126.4C126.4,41.3,126.4,41.4,126.4,41.5L126.4,41.5L126.4,41.5z"/>
			</g>
		</g>
	</g>
	<g>
		<g>
			<line class="st4" x1="133.1" y1="39" x2="121.3" y2="40.2"/>
			<path class="st2" d="M133.1,39.2l-11.9,1l11.8-1.4c0.1,0,0.2,0.1,0.2,0.2C133.3,39.1,133.3,39.2,133.1,39.2L133.1,39.2z"/>
		</g>
		<g>
			<line class="st4" x1="132" y1="43.6" x2="121.3" y2="42.7"/>
			<path class="st2" d="M132,43.7l-10.7-1l10.7,0.8c0.1,0,0.1,0.1,0.1,0.1L132,43.7L132,43.7z"/>
		</g>
	</g>
	<g>
		<g>
			<line class="st4" x1="132.5" y1="47.9" x2="120.3" y2="44.7"/>
			<path class="st2" d="M132.4,48.1l-12.1-3.3l12.2,2.9c0.1,0,0.2,0.1,0.1,0.2S132.5,48.1,132.4,48.1L132.4,48.1z"/>
		</g>
		<g>
			<line class="st4" x1="129.8" y1="51.7" x2="119.9" y2="47.1"/>
			<path class="st2" d="M129.8,51.8l-9.9-4.7l10,4.5c0.1,0,0.1,0.1,0.1,0.1C129.9,51.8,129.8,51.9,129.8,51.8L129.8,51.8z"/>
		</g>
	</g>
	<g>
		<g>
			<line class="st4" x1="128.8" y1="55.9" x2="119.4" y2="49.4"/>
			<path class="st2" d="M128.7,56.1l-9.3-6.6l9.6,6.3c0.1,0.1,0.1,0.2,0.1,0.3C128.9,56.1,128.8,56.1,128.7,56.1L128.7,56.1z"/>
		</g>
		<g>
			<line class="st4" x1="125" y1="58.6" x2="117.5" y2="51.2"/>
			<path class="st2" d="M124.9,58.7l-7.4-7.5l7.6,7.4c0,0,0,0.1,0,0.2C125,58.8,125,58.8,124.9,58.7L124.9,58.7z"/>
		</g>
	</g>
	<g>
		<g>
			<line class="st4" x1="122.6" y1="62.2" x2="115.2" y2="51.8"/>
			<path class="st2" d="M122.4,62.3l-7.3-10.5l7.6,10.3c0.1,0.1,0.1,0.2,0,0.3C122.6,62.4,122.5,62.4,122.4,62.3L122.4,62.3z"/>
		</g>
		<g>
			<line class="st4" x1="118.1" y1="63.5" x2="112.8" y2="52.1"/>
			<path class="st2" d="M118,63.5l-5.2-11.4l5.4,11.3C118.2,63.5,118.2,63.5,118,63.5C118.1,63.6,118,63.6,118,63.5L118,63.5z"/>
		</g>
	</g>
	<g>
		<g>
			<line class="st4" x1="114.6" y1="66" x2="110.8" y2="52.2"/>
			<path class="st2" d="M114.4,66.1l-3.6-13.9l4,13.8c0,0.1,0,0.2-0.1,0.2S114.5,66.2,114.4,66.1L114.4,66.1z"/>
		</g>
		<g>
			<line class="st4" x1="110" y1="65.7" x2="108.8" y2="52.4"/>
			<path class="st2" d="M109.9,65.7l-1.1-13.3l1.3,13.3c0,0.1,0,0.1-0.1,0.1S109.9,65.8,109.9,65.7L109.9,65.7z"/>
		</g>
	</g>
	<g>
		<g>
			<line class="st4" x1="105.8" y1="66.9" x2="107" y2="52.3"/>
			<path class="st2" d="M105.6,66.9l1.3-14.6L106,66.9c0,0.1-0.1,0.2-0.2,0.2S105.6,67,105.6,66.9L105.6,66.9z"/>
		</g>
		<g>
			<line class="st4" x1="101.5" y1="65" x2="104.9" y2="52.3"/>
			<path class="st2" d="M101.4,65l3.5-12.7L101.6,65C101.6,65.1,101.5,65.1,101.4,65C101.5,65.1,101.4,65,101.4,65L101.4,65z"/>
		</g>
	</g>
	<g>
		<g>
			<line class="st4" x1="97.3" y1="64.7" x2="103" y2="52.1"/>
			<path class="st2" d="M97.1,64.6l5.9-12.5l-5.5,12.6c-0.1,0.1-0.2,0.2-0.3,0.1C97.1,64.8,97,64.7,97.1,64.6L97.1,64.6z"/>
		</g>
		<g>
			<line class="st4" x1="93.9" y1="61.4" x2="100.6" y2="51.8"/>
			<path class="st2" d="M93.8,61.4l6.8-9.5L94,61.5C94,61.6,93.9,61.6,93.8,61.4C93.8,61.5,93.8,61.4,93.8,61.4L93.8,61.4z"/>
		</g>
	</g>
	<g>
		<g>
			<line class="st4" x1="90" y1="59.7" x2="98.2" y2="51.3"/>
			<path class="st2" d="M89.8,59.6l8.3-8.2l-8,8.5c-0.1,0.1-0.2,0.1-0.3,0C89.8,59.8,89.8,59.6,89.8,59.6L89.8,59.6z"/>
		</g>
		<g>
			<line class="st4" x1="87.9" y1="55.5" x2="95.9" y2="49.8"/>
			<path class="st2" d="M87.9,55.4l8.1-5.6l-8,5.7c-0.1,0-0.1,0-0.1,0S87.8,55.4,87.9,55.4L87.9,55.4z"/>
		</g>
	</g>
	<g>
		<g>
			<line class="st4" x1="84.8" y1="52.5" x2="95.3" y2="47.5"/>
			<path class="st2" d="M84.7,52.3l10.6-4.8l-10.4,5.2c-0.1,0.1-0.2,0-0.3-0.1C84.6,52.5,84.6,52.4,84.7,52.3L84.7,52.3z"/>
		</g>
		<g>
			<line class="st4" x1="84.3" y1="47.8" x2="95" y2="45"/>
			<path class="st2" d="M84.3,47.7l10.6-2.8l-10.6,3c-0.1,0-0.1,0-0.1-0.1S84.3,47.8,84.3,47.7L84.3,47.7z"/>
		</g>
	</g>
	<g>
		<g>
			<line class="st4" x1="82.5" y1="44" x2="94.1" y2="42.9"/>
			<path class="st2" d="M82.4,43.8L94,42.9l-11.6,1.3c-0.1,0-0.2-0.1-0.2-0.2C82.2,43.9,82.3,43.8,82.4,43.8L82.4,43.8z"/>
		</g>
		<g>
			<line class="st4" x1="83.6" y1="39.4" x2="93.9" y2="40.3"/>
			<path class="st2" d="M83.6,39.3l10.3,1l-10.4-0.8c-0.1,0-0.1-0.1-0.1-0.1C83.5,39.4,83.6,39.3,83.6,39.3L83.6,39.3z"/>
		</g>
	</g>
	<g>
		<g>
			<line class="st4" x1="83.1" y1="35.2" x2="94.9" y2="38.2"/>
			<path class="st2" d="M83.2,35l11.7,3.2l-11.8-2.8c-0.1,0-0.2-0.1-0.1-0.2C83,35,83.1,34.9,83.2,35L83.2,35z"/>
		</g>
		<g>
			<line class="st4" x1="85.8" y1="31.3" x2="96.3" y2="36.2"/>
			<path class="st2" d="M85.8,31.2l10.5,5l-10.6-4.8c-0.1,0-0.1-0.1-0.1-0.1C85.7,31.2,85.7,31.2,85.8,31.2L85.8,31.2z"/>
		</g>
	</g>
	<g>
		<g>
			<line class="st4" x1="86.8" y1="27.1" x2="97.8" y2="34.6"/>
			<path class="st2" d="M86.9,27l10.9,7.7l-11.1-7.4c-0.1-0.1-0.1-0.2-0.1-0.3S86.8,26.9,86.9,27L86.9,27z"/>
		</g>
		<g>
			<line class="st4" x1="90.6" y1="24.4" x2="99.5" y2="33.3"/>
			<path class="st2" d="M90.7,24.3l8.9,9l-9-8.8C90.6,24.5,90.6,24.4,90.7,24.3C90.6,24.2,90.6,24.3,90.7,24.3L90.7,24.3z"/>
		</g>
	</g>
	<g>
		<g>
			<line class="st4" x1="93" y1="20.8" x2="101.2" y2="32.4"/>
			<path class="st2" d="M93.1,20.7l8.1,11.7L92.8,21c-0.1-0.1-0.1-0.2,0-0.3C92.9,20.6,93.1,20.6,93.1,20.7L93.1,20.7z"/>
		</g>
		<g>
			<line class="st4" x1="97.5" y1="19.5" x2="103.2" y2="31.7"/>
			<path class="st2" d="M97.6,19.5l5.6,12.2l-5.8-12.1c0-0.1,0-0.1,0.1-0.1C97.5,19.4,97.6,19.4,97.6,19.5L97.6,19.5z"/>
		</g>
	</g>
	<g>
		<g>
			<line class="st4" x1="101" y1="17" x2="104.4" y2="29.5"/>
			<path class="st2" d="M101.2,16.9l3.3,12.6L100.8,17c0-0.1,0-0.2,0.1-0.3C101,16.8,101.1,16.8,101.2,16.9L101.2,16.9z"/>
		</g>
		<g>
			<line class="st4" x1="105.6" y1="17.3" x2="106.6" y2="27.7"/>
			<path class="st2" d="M105.7,17.3l0.8,10.4l-1-10.3C105.5,17.3,105.5,17.3,105.7,17.3C105.7,17.2,105.7,17.3,105.7,17.3
				L105.7,17.3z"/>
		</g>
	</g>
	<g>
		<line class="st4" x1="109.8" y1="16.1" x2="108.9" y2="27.7"/>
		<path class="st2" d="M110,16.2l-1.1,11.5l0.7-11.6c0-0.1,0.1-0.2,0.2-0.2C109.9,15.9,110,16,110,16.2C110,16.1,110,16.1,110,16.2z
			"/>
	</g>
	<g>
		<line class="st4" x1="114" y1="18" x2="110.9" y2="30"/>
		<path class="st2" d="M114.1,18.1L110.8,30l3.1-12c0-0.1,0.1-0.1,0.1-0.1C114.1,18,114.2,18,114.1,18.1L114.1,18.1z"/>
	</g>
	<g>
		<g>
			<line class="st4" x1="118.3" y1="18.3" x2="112.2" y2="31.7"/>
			<path class="st2" d="M118.5,18.4l-6.3,13.3l5.9-13.5c0.1-0.1,0.2-0.2,0.3-0.1S118.6,18.3,118.5,18.4L118.5,18.4z"/>
		</g>
		<g>
			<line class="st4" x1="121.7" y1="21.6" x2="114.1" y2="32.4"/>
			<path class="st2" d="M121.8,21.7l-7.7,10.7l7.5-10.9c0-0.1,0.1-0.1,0.1,0C121.8,21.5,121.8,21.6,121.8,21.7L121.8,21.7z"/>
		</g>
	</g>
	<g>
		<g>
			<line class="st4" x1="125.6" y1="23.3" x2="115.9" y2="33.3"/>
			<path class="st2" d="M125.7,23.5l-9.9,9.8l9.6-10.1c0.1-0.1,0.2-0.1,0.3,0S125.8,23.4,125.7,23.5
				C125.8,23.5,125.7,23.5,125.7,23.5z"/>
		</g>
		<g>
			<line class="st4" x1="127.7" y1="27.6" x2="117.5" y2="34.7"/>
			<path class="st2" d="M127.7,27.6l-10.2,7l10.1-7.2c0.1,0,0.1,0,0.1,0C127.8,27.5,127.8,27.6,127.7,27.6L127.7,27.6z"/>
		</g>
	</g>
	<g>
		<g>
			<line class="st4" x1="130.8" y1="30.5" x2="118.9" y2="36.2"/>
			<path class="st2" d="M130.8,30.7l-11.9,5.5l11.8-5.8c0.1-0.1,0.2,0,0.3,0.1C131,30.5,131,30.7,130.8,30.7
				C130.9,30.7,130.9,30.7,130.8,30.7z"/>
		</g>
		<g>
			<line class="st4" x1="131.3" y1="35.2" x2="120.3" y2="38.2"/>
			<path class="st2" d="M131.4,35.3l-11.1,2.9l11-3.1C131.4,35.1,131.4,35.1,131.4,35.3C131.4,35.2,131.4,35.3,131.4,35.3
				L131.4,35.3z"/>
		</g>
	</g>
	<path class="st2" d="M141.3,38.6c-0.8-7.6-5.9-26.7-5.9-26.7c-4.8-2.1-35.1-13-53.2,5.8C74.2,26,71.6,32,69.1,44.4
		c-2.8,14-0.5,33.6-0.5,33.6c12.8-10.3,39.3,10.5,62.7-11.1C139.3,59.4,142.3,48.6,141.3,38.6z M106.7,70.9
		C90.9,70.9,78,58.1,78,42.2s12.8-28.6,28.7-28.6s28.6,12.8,28.6,28.6S122.5,70.9,106.7,70.9z"/>
	<g>
		<g>
			<path class="st5" d="M108.8,33.1c0.2-0.2,0.3-0.5,0.3-0.8s0-1.5-0.1-2.4c-0.1-0.6-2.5-0.6-2.6,0c-0.1,0.9-0.1,2-0.1,2.3
				c0,0.3,0.1,0.6,0.3,0.8c-6.5,0-10.1,5.4-10.9,8.4c0,0,2.2,4.5,2.1,5.5l-0.4,0.3l0.4,1.8c0,0,2.4,1.3,9.8,1.3h0.1
				c7.4,0,9.8-1.3,9.8-1.3l0.4-1.8l-0.4-0.3l0,0c0-0.1,0-0.1,0-0.2l0,0l0,0v-0.1l0,0c0.3-1.4,2.1-5.1,2.1-5.1
				C119.3,39.9,116.4,33.4,108.8,33.1z"/>
		</g>
		<g>
			<g>
				<g>
					<g>
						<g>
							<path d="M117.9,47.4l-0.4,1.8c0,0-2.4,1.3-9.8,1.3h-0.1c-7.4,0-9.8-1.3-9.8-1.3l-0.4-1.8c0,0,4.3,1.3,10.2,1.4h0.1
								C113.6,48.7,117.9,47.4,117.9,47.4z"/>
						</g>
					</g>
				</g>
				<g>
					<path class="st2" d="M120.2,40.4c0-0.3-0.3-0.6-0.6-0.6c-0.2,0-0.4,0.1-0.5,0.3c-0.1-0.2-0.2-0.4-0.3-0.6l0,0
						c0.3,0,0.5-0.2,0.5-0.5s-0.2-0.5-0.5-0.5c-0.2,0-0.3,0.1-0.4,0.2c-0.1-0.2-0.2-0.3-0.3-0.4c0.2,0,0.4-0.2,0.4-0.4
						s-0.2-0.4-0.4-0.4c-0.1,0-0.3,0.1-0.4,0.2c-0.1-0.1-0.2-0.3-0.3-0.4c0.2,0,0.3-0.2,0.3-0.3c0-0.2-0.2-0.3-0.4-0.3
						c-0.1,0-0.3,0.1-0.3,0.2c-0.1-0.1-0.2-0.2-0.3-0.3c0.1,0,0.2-0.2,0.2-0.3c0-0.2-0.2-0.3-0.4-0.3s-0.3,0.1-0.3,0.3
						c-0.1-0.1-0.3-0.2-0.4-0.3c0.1-0.1,0.2-0.2,0.2-0.3c0-0.2-0.1-0.3-0.3-0.3s-0.3,0.1-0.3,0.3c-0.1-0.1-0.2-0.2-0.4-0.3
						c0.1-0.1,0.2-0.2,0.2-0.3c0-0.2-0.1-0.3-0.3-0.3s-0.3,0.1-0.3,0.3c-0.1-0.1-0.3-0.2-0.4-0.2c0.1-0.1,0.1-0.2,0.1-0.3
						c0-0.2-0.1-0.3-0.3-0.3s-0.3,0.1-0.3,0.3l0,0c-0.1-0.1-0.3-0.1-0.4-0.2c0.1-0.1,0.1-0.1,0.1-0.2c0-0.2-0.1-0.3-0.3-0.3
						c-0.1,0-0.3,0.1-0.3,0.3l0,0c-0.1-0.1-0.3-0.1-0.4-0.2c0.1-0.1,0.1-0.1,0.1-0.2c0-0.2-0.1-0.3-0.3-0.3s-0.3,0.1-0.3,0.3
						c0,0,0,0,0,0.1c-0.1,0-0.3-0.1-0.4-0.1c0,0,0.1-0.1,0.1-0.2c0-0.1-0.1-0.2-0.2-0.2s-0.2,0.1-0.2,0.2c0,0,0,0,0,0.1
						c-0.1,0-0.2-0.1-0.3-0.1l0.1-0.1c0-0.1-0.1-0.2-0.2-0.2s-0.2,0.1-0.2,0.2v0.1c-0.1,0-0.2,0-0.4-0.1l0.1-0.1
						c0-0.1-0.1-0.2-0.2-0.2s-0.2,0.1-0.2,0.2v0.1c-0.1,0-0.2,0-0.4,0v-0.1c0-0.1-0.1-0.2-0.2-0.2s-0.2,0.1-0.2,0.2v0.1
						c-0.1,0-0.3,0-0.5,0c0.2-0.2,0.3-0.5,0.3-0.8c0-0.6-0.3-1.1-0.8-1.3h-1.2c-0.5,0.2-0.8,0.7-0.8,1.3c0,0.3,0.1,0.6,0.3,0.8
						c-0.2,0-0.4,0-0.5,0v-0.1c0-0.1-0.1-0.2-0.2-0.2s-0.2,0.1-0.2,0.2v0.1c-0.1,0-0.2,0-0.4,0v-0.1c0-0.1-0.1-0.2-0.2-0.2
						s-0.2,0.1-0.2,0.2c0,0.1,0,0.1,0.1,0.1c-0.1,0-0.2,0-0.4,0.1v-0.1c0-0.1-0.1-0.2-0.2-0.2s-0.2,0.1-0.2,0.2c0,0.1,0,0.1,0.1,0.1
						c-0.1,0-0.2,0-0.3,0.1c0,0,0,0,0-0.1s-0.1-0.2-0.2-0.2s-0.2,0.1-0.2,0.2c0,0.1,0,0.1,0.1,0.2c-0.1,0-0.3,0.1-0.4,0.1
						c0,0,0,0,0-0.1c0-0.2-0.1-0.3-0.3-0.3s-0.3,0.1-0.3,0.3c0,0.1,0,0.1,0.1,0.2c-0.1,0.1-0.3,0.1-0.4,0.2l0,0
						c0-0.2-0.1-0.3-0.3-0.3c-0.2,0-0.3,0.1-0.3,0.3c0,0.1,0,0.2,0.1,0.2c-0.1,0.1-0.3,0.1-0.4,0.2l0,0c0-0.2-0.1-0.3-0.3-0.3
						s-0.3,0.1-0.3,0.3c0,0.1,0.1,0.2,0.1,0.3c-0.1,0.1-0.3,0.2-0.4,0.2c0-0.2-0.1-0.3-0.3-0.3c-0.2,0-0.3,0.2-0.3,0.3
						s0.1,0.2,0.2,0.3c-0.1,0.1-0.2,0.2-0.4,0.3c0-0.2-0.2-0.3-0.3-0.3c-0.2,0-0.3,0.2-0.3,0.3s0.1,0.3,0.2,0.3
						c-0.1,0.1-0.3,0.2-0.4,0.3c0-0.2-0.2-0.3-0.3-0.3c-0.2,0-0.4,0.2-0.4,0.3c0,0.2,0.1,0.3,0.2,0.3c-0.1,0.1-0.2,0.2-0.3,0.3
						c-0.1-0.1-0.2-0.2-0.3-0.2c-0.2,0-0.4,0.2-0.4,0.3c0,0.2,0.1,0.3,0.3,0.3c-0.1,0.1-0.2,0.3-0.3,0.4c-0.1-0.1-0.2-0.2-0.4-0.2
						c-0.2,0-0.4,0.2-0.4,0.4s0.1,0.4,0.4,0.4c-0.1,0.2-0.2,0.3-0.3,0.4c-0.1-0.1-0.2-0.2-0.4-0.2c-0.3,0-0.5,0.2-0.5,0.5
						s0.2,0.5,0.5,0.5l0,0c-0.1,0.2-0.2,0.4-0.3,0.6c-0.1-0.2-0.3-0.3-0.5-0.3c-0.3,0-0.6,0.3-0.6,0.6s0.3,0.6,0.6,0.6
						c0.1,0,0.1,0,0.2,0c-0.1,0.2-0.1,0.4-0.2,0.6c0,0,2.2,4.5,2.1,5.5c0,0,3.9,1.1,9.7,1.1h0.4c5.6-0.1,9.3-1.1,9.7-1.1l0,0
						c0-0.1,0-0.1,0-0.2l0,0l0,0v-0.1l0,0c0.3-1.4,2.1-5.1,2.1-5.1c-0.1-0.2-0.1-0.4-0.2-0.6c0.1,0,0.1,0,0.2,0
						C119.9,41,120.2,40.8,120.2,40.4z M97.8,45.7c0,0,0.7-1.8-1.8-3.9c0,0,1.5-5.7,6.3-7.4c-0.1,0.1-4.2,3-4.7,7l0.8,1.1
						c-0.7,3,0.9,3.3,0.9,3.3C99.3,46.1,98.8,47.2,97.8,45.7z M107.1,46.6c-0.7,0.7-2.6,1.3-4.6-0.6c1.5-1-0.1-3.2-0.2-3.4l-0.1,0.1
						c-1.5,2.4-0.2,3.2,0.1,3.3c-1,1.3-1.7,1-2.9-0.3c0.9-0.9-0.6-2.8-0.9-3.2l1.2-1.1c0,0,1.4-7.5,6.6-7.8
						c-2.2,0.9-4.4,3.7-5.1,7.7l1,1.4c0,0,0-0.1,0.1-0.1l0,0l1.5-1.4c0,0,0.4-5.3,3.1-7.6l-1.2,7.7l1.6,1.1l0.4,1.9L107.1,46.6z
						 M107.5,33.4L107.5,33.4L107.5,33.4L107.5,33.4z M107.6,33.4L107.6,33.4L107.6,33.4L107.6,33.4z M108.2,46.6l-0.4-2.3v-2
						l1.6-1.1l-1-6.5l-0.2-1.2c1.2,1.1,2,2.7,2.5,4.2l0,0c0.6,1.8,0.7,3.4,0.7,3.4l1.5,1.4c-0.2,0.2-1.8,2.4-0.2,3.4
						C110.7,47.9,108.9,47.2,108.2,46.6z M112.8,46c0.4-0.2,1.6-0.9,0.1-3.3l0.7-0.9l0.3-0.5c-0.7-4.1-2.9-6.8-5.1-7.7
						c5.2,0.3,6.6,7.8,6.6,7.8l1.1,1.1c-0.2,0.2-0.8,1-1.1,1.8c-0.2,0.5-0.3,1.1,0.1,1.5C114.5,47,113.8,47.3,112.8,46z M117.4,45.7
						c-0.1,0.2-0.3,0.4-0.4,0.5c-0.8,0.7-1.2-0.2-1.2-0.4c0.1,0,0.4-0.2,0.6-0.4c0.4-0.4,0.7-1.2,0.3-2.9l0.9-1.2
						c-0.4-4-4.6-6.9-4.7-7c4.8,1.7,6.3,7.4,6.3,7.4C116.7,43.9,117.4,45.7,117.4,45.7z"/>
				</g>
				<g>
					<path class="st2" d="M120.2,40.4c0-0.3-0.3-0.6-0.6-0.6c-0.2,0-0.4,0.1-0.5,0.3c-0.1-0.2-0.2-0.4-0.3-0.6l0,0
						c0.3,0,0.5-0.2,0.5-0.5s-0.2-0.5-0.5-0.5c-0.2,0-0.3,0.1-0.4,0.2c-0.1-0.2-0.2-0.3-0.3-0.4c0.2,0,0.4-0.2,0.4-0.4
						s-0.2-0.4-0.4-0.4c-0.1,0-0.3,0.1-0.4,0.2c-0.1-0.1-0.2-0.3-0.3-0.4c0.2,0,0.3-0.2,0.3-0.3c0-0.2-0.2-0.3-0.4-0.3
						c-0.1,0-0.3,0.1-0.3,0.2c-0.1-0.1-0.2-0.2-0.3-0.3c0.1,0,0.2-0.2,0.2-0.3c0-0.2-0.2-0.3-0.4-0.3s-0.3,0.1-0.3,0.3
						c-0.1-0.1-0.3-0.2-0.4-0.3c0.1-0.1,0.2-0.2,0.2-0.3c0-0.2-0.1-0.3-0.3-0.3s-0.3,0.1-0.3,0.3c-0.1-0.1-0.2-0.2-0.4-0.3
						c0.1-0.1,0.2-0.2,0.2-0.3c0-0.2-0.1-0.3-0.3-0.3s-0.3,0.1-0.3,0.3c-0.1-0.1-0.3-0.2-0.4-0.2c0.1-0.1,0.1-0.2,0.1-0.3
						c0-0.2-0.1-0.3-0.3-0.3s-0.3,0.1-0.3,0.3l0,0c-0.1-0.1-0.3-0.1-0.4-0.2c0.1-0.1,0.1-0.1,0.1-0.2c0-0.2-0.1-0.3-0.3-0.3
						c-0.1,0-0.3,0.1-0.3,0.3l0,0c-0.1-0.1-0.3-0.1-0.4-0.2c0.1-0.1,0.1-0.1,0.1-0.2c0-0.2-0.1-0.3-0.3-0.3s-0.3,0.1-0.3,0.3
						c0,0,0,0,0,0.1c-0.1,0-0.3-0.1-0.4-0.1c0,0,0.1-0.1,0.1-0.2c0-0.1-0.1-0.2-0.2-0.2s-0.2,0.1-0.2,0.2c0,0,0,0,0,0.1
						c-0.1,0-0.2-0.1-0.3-0.1l0.1-0.1c0-0.1-0.1-0.2-0.2-0.2s-0.2,0.1-0.2,0.2v0.1c-0.1,0-0.2,0-0.4-0.1l0.1-0.1
						c0-0.1-0.1-0.2-0.2-0.2s-0.2,0.1-0.2,0.2v0.1c-0.1,0-0.2,0-0.4,0v-0.1c0-0.1-0.1-0.2-0.2-0.2s-0.2,0.1-0.2,0.2v0.1
						c-0.1,0-0.3,0-0.5,0c0.2-0.2,0.3-0.5,0.3-0.8c0-0.6-0.3-1.1-0.8-1.3h-1.2c-0.5,0.2-0.8,0.7-0.8,1.3c0,0.3,0.1,0.6,0.3,0.8
						c-0.2,0-0.4,0-0.5,0v-0.1c0-0.1-0.1-0.2-0.2-0.2s-0.2,0.1-0.2,0.2v0.1c-0.1,0-0.2,0-0.4,0v-0.1c0-0.1-0.1-0.2-0.2-0.2
						s-0.2,0.1-0.2,0.2c0,0.1,0,0.1,0.1,0.1c-0.1,0-0.2,0-0.4,0.1v-0.1c0-0.1-0.1-0.2-0.2-0.2s-0.2,0.1-0.2,0.2c0,0.1,0,0.1,0.1,0.1
						c-0.1,0-0.2,0-0.3,0.1c0,0,0,0,0-0.1s-0.1-0.2-0.2-0.2s-0.2,0.1-0.2,0.2c0,0.1,0,0.1,0.1,0.2c-0.1,0-0.3,0.1-0.4,0.1
						c0,0,0,0,0-0.1c0-0.2-0.1-0.3-0.3-0.3s-0.3,0.1-0.3,0.3c0,0.1,0,0.1,0.1,0.2c-0.1,0.1-0.3,0.1-0.4,0.2l0,0
						c0-0.2-0.1-0.3-0.3-0.3c-0.2,0-0.3,0.1-0.3,0.3c0,0.1,0,0.2,0.1,0.2c-0.1,0.1-0.3,0.1-0.4,0.2l0,0c0-0.2-0.1-0.3-0.3-0.3
						s-0.3,0.1-0.3,0.3c0,0.1,0.1,0.2,0.1,0.3c-0.1,0.1-0.3,0.2-0.4,0.2c0-0.2-0.1-0.3-0.3-0.3c-0.2,0-0.3,0.2-0.3,0.3
						s0.1,0.2,0.2,0.3c-0.1,0.1-0.2,0.2-0.4,0.3c0-0.2-0.2-0.3-0.3-0.3c-0.2,0-0.3,0.2-0.3,0.3s0.1,0.3,0.2,0.3
						c-0.1,0.1-0.3,0.2-0.4,0.3c0-0.2-0.2-0.3-0.3-0.3c-0.2,0-0.4,0.2-0.4,0.3c0,0.2,0.1,0.3,0.2,0.3c-0.1,0.1-0.2,0.2-0.3,0.3
						c-0.1-0.1-0.2-0.2-0.3-0.2c-0.2,0-0.4,0.2-0.4,0.3c0,0.2,0.1,0.3,0.3,0.3c-0.1,0.1-0.2,0.3-0.3,0.4c-0.1-0.1-0.2-0.2-0.4-0.2
						c-0.2,0-0.4,0.2-0.4,0.4s0.1,0.4,0.4,0.4c-0.1,0.2-0.2,0.3-0.3,0.4c-0.1-0.1-0.2-0.2-0.4-0.2c-0.3,0-0.5,0.2-0.5,0.5
						s0.2,0.5,0.5,0.5l0,0c-0.1,0.2-0.2,0.4-0.3,0.6c-0.1-0.2-0.3-0.3-0.5-0.3c-0.3,0-0.6,0.3-0.6,0.6s0.3,0.6,0.6,0.6
						c0.1,0,0.1,0,0.2,0c-0.1,0.2-0.1,0.4-0.2,0.6c0,0,2.2,4.5,2.1,5.5c0,0,3.9,1.1,9.7,1.1h0.4c5.6-0.1,9.3-1.1,9.7-1.1l0,0
						c0-0.1,0-0.1,0-0.2l0,0l0,0v-0.1l0,0c0.3-1.4,2.1-5.1,2.1-5.1c-0.1-0.2-0.1-0.4-0.2-0.6c0.1,0,0.1,0,0.2,0
						C119.9,41,120.2,40.8,120.2,40.4z M97.8,45.7c0,0,0.7-1.8-1.8-3.9c0,0,1.5-5.7,6.3-7.4c-0.1,0.1-4.2,3-4.7,7l0.8,1.1
						c-0.7,3,0.9,3.3,0.9,3.3C99.3,46.1,98.8,47.2,97.8,45.7z M107.1,46.6c-0.7,0.7-2.6,1.3-4.6-0.6c1.5-1-0.1-3.2-0.2-3.4l-0.1,0.1
						c-1.5,2.4-0.2,3.2,0.1,3.3c-1,1.3-1.7,1-2.9-0.3c0.9-0.9-0.6-2.8-0.9-3.2l1.2-1.1c0,0,1.4-7.5,6.6-7.8
						c-2.2,0.9-4.4,3.7-5.1,7.7l1,1.4c0,0,0-0.1,0.1-0.1l0,0l1.5-1.4c0,0,0.4-5.3,3.1-7.6l-1.2,7.7l1.6,1.1l0.4,1.9L107.1,46.6z
						 M107.5,33.4L107.5,33.4L107.5,33.4L107.5,33.4z M107.6,33.4L107.6,33.4L107.6,33.4L107.6,33.4z M108.2,46.6l-0.4-2.3v-2
						l1.6-1.1l-1-6.5l-0.2-1.2c1.2,1.1,2,2.7,2.5,4.2l0,0c0.6,1.8,0.7,3.4,0.7,3.4l1.5,1.4c-0.2,0.2-1.8,2.4-0.2,3.4
						C110.7,47.9,108.9,47.2,108.2,46.6z M112.8,46c0.4-0.2,1.6-0.9,0.1-3.3l0.7-0.9l0.3-0.5c-0.7-4.1-2.9-6.8-5.1-7.7
						c5.2,0.3,6.6,7.8,6.6,7.8l1.1,1.1c-0.2,0.2-0.8,1-1.1,1.8c-0.2,0.5-0.3,1.1,0.1,1.5C114.5,47,113.8,47.3,112.8,46z M117.4,45.7
						c-0.1,0.2-0.3,0.4-0.4,0.5c-0.8,0.7-1.2-0.2-1.2-0.4c0.1,0,0.4-0.2,0.6-0.4c0.4-0.4,0.7-1.2,0.3-2.9l0.9-1.2
						c-0.4-4-4.6-6.9-4.7-7c4.8,1.7,6.3,7.4,6.3,7.4C116.7,43.9,117.4,45.7,117.4,45.7z"/>
				</g>
			</g>
			<g>
				<polygon class="st2" points="109,46.7 106.2,46.7 107.4,44.6 106.2,42.4 109,42.4 107.8,44.6 				"/>
				<polygon class="st2" points="105.4,45.9 105.4,43.2 107.5,44.3 109.8,43.2 109.8,45.9 107.5,44.8 				"/>
			</g>
			<g>
				<polygon class="st2" points="108.4,31.1 106.7,31.1 107.5,29.8 106.7,28.4 108.4,28.4 107.7,29.8 				"/>
				<polygon class="st2" points="106.2,30.6 106.2,28.9 107.6,29.6 108.9,28.9 108.9,30.6 107.6,29.8 				"/>
			</g>
		</g>
	</g>
</g>
<g>
	<text transform="matrix(1 0 0 1 597.3141 112.0286)" class="st2" style="font-family:'ITCKabelStd-Medium'; font-size:29.8654px;">Honolulu Zoo</text>
	<g>
		<path class="st6" d="M678.2,19.4c-8,1.4-18,0.7-17.7-8.9"/>
		<path class="st7" d="M707,67.4c0,0.1,2.3,5.9-20.2,0c-4-1.5-9.7-5.1-9.2-12c0.1-2,0.4-3.8,1-5.5c-3-0.8-4.3-4.7-4.3-6.3
			c0-4.4,9.9-2.9,14.9-1.8c12.4,2.7,12,7,12,8c2.4,1,10.1,6.6,10.7,7.6C712.6,58.6,709.3,67.6,707,67.4z"/>
		<path class="st2" d="M698.1,53.1c0,1.1-0.4,1.3-1.5,1.5c-0.3,0-2.8-0.6-2.9-1c-0.3-1.1,1.7-2.2,2.5-2.4c0.4-0.1,4.2-0.9,2.8,2.6
			c0,0.1-1.5-2.2-1.4-2.1C697.9,52.1,698.1,52.6,698.1,53.1z"/>
		<g>
			<path class="st2" d="M670.2,38.6c1.1-0.8,2.3-1.3,3.6-1.7s2.6-0.5,4-0.4c1.3,0.1,2.6,0.4,3.9,0.9c1.2,0.5,2.4,1.1,3.5,1.9
				c0.5,0.4,1,0.8,1.5,1.3c0.2,0.2,0.3,0.3,0.4,0.5c0.8,0.1,1.5,0.3,2.2,0.4c3,0.7,5.2,1.4,6.9,2.2c0.1-0.1,0.1-0.1,0.1-0.1
				c0.4-1.6-3.1-10.4-12.8-10.4c-6.4,0-11,2.4-14.1,6.1C669.6,39.1,669.9,38.8,670.2,38.6z"/>
			<path class="st2" d="M693.1,68.6c-1.8-0.4-3.9-0.9-6.2-1.5c-4-1.5-9.7-5.1-9.2-12c0.1-2,0.4-3.8,1-5.5c-3-0.8-4.3-4.7-4.3-6.3
				c0-3.4,5.9-3.3,10.9-2.5c-0.2-0.2-0.5-0.4-0.8-0.6c-1-0.7-2.1-1.3-3.2-1.7s-2.3-0.7-3.5-0.8s-2.4,0-3.6,0.3
				c-1.2,0.3-2.3,0.8-3.3,1.5S669,41,668.2,42c-0.4,0.5-0.8,1-1.1,1.5c-0.2,0.2-0.3,0.5-0.5,0.8s-0.3,0.5-0.5,0.8s-0.3,0.6-0.4,0.8
				c-0.1,0.2-0.2,0.4-0.3,0.6c-0.3,0.9-0.6,1.9-0.8,2.9c-2.5,11.6,11.6,24.9,20.9,27.4c9.6,2.6,15.8,0.9,15.8,0.9
				C697.6,74.5,694.9,71.5,693.1,68.6z"/>
		</g>
		<path class="st7" d="M671.4,25.3c6.2-8.7,27.8,1.1,34.3-10.5c2.1-3.7,5-2.7,6.9-0.2c1.6,2,3.3,6.6,3.3,6.6c-5.5-4.4-12.5-7-20.1-7
			c-17.8,0-32.2,14.5-32.2,32.3c0,3.6,0.9,7,2,10.3c-1.2-3.3-4.7-22.5,13.7-26.7c11.8-2.7,18.8,4.8,21.5,8.6
			c0.4,0.6,1.3,0.4,1.5-0.3c0.3-1.1,0.1-3-0.5-4.6s-3.1-5.2-6.2-1.9c0,0-0.7-6.7-8-7.8c-11.9-1.7-22.4,11.4-23.5,21.7
			c-0.4,3.6,0.5,7.1,1.6,11"/>
		<path class="st2" d="M715.9,21.3c0,0-3.8-3.6-10-5.7C709.5,6.1,715.9,21.3,715.9,21.3z"/>
		<path class="st8" d="M665.8,56.8c-1.8-5.5-2.5-23.9,13.9-26.6c11.9-2,18.4,4.6,21.1,8.4c0.4,0.6,1.3,0.4,1.5-0.3
			c0.3-1.1,0.1-3-0.5-4.6s-3.1-5.2-6.2-1.9c0,0-0.7-6.7-8-7.8c-11.9-1.7-22.9,11-23.2,21.8C664.4,49.4,664.7,53,665.8,56.8"/>
		<path class="st9" d="M700.3,34.6c-0.4,0.4-1.1,0.4-1.5,0s-0.5-1.1,0-1.5C699.7,32.4,700.9,34.1,700.3,34.6z"/>
		<path class="st9" d="M711,16.5c0,0-1.4-0.2-1.8-0.8s-0.3-1.2,0.2-1.5s1.2-0.2,1.5,0.3C711.4,15.2,711,16.5,711,16.5z"/>
		<path class="st10" d="M691.7,31.2c-1.4-0.5-1.2-1.9-0.7-2.4c1.9-1.9,4.9,1.9,6,4.3c0.2,0.5-0.3,0.9-0.7,0.6
			c-3.4-2.5-7.1-3.9-12.3-3.8c-1.6,0-2.7-1.6-2.2-3.1c0.6-1.6,2.6-2.6,4.6-1.6c2.2,1.1,6.1,5.7,3.3,5.2"/>
		<path class="st2" d="M682.1,16.9c-6.8,3.7-11.4,3.1-14.8,1.9c-8.6-3.2-6.9-15.9-6.9-15.9c2.8,6.1,22.1,6.6,44.9,12.1
			c0,0-16.1-2.8-23,1.9"/>
		<path class="st6" d="M698.4,15.6c-13-1.9-23.3-1.3-28.8-2.9c-12.7-3.7-9.2-9.8-9.2-9.8c2.8,6.1,21.8,5.9,44.6,11.5"/>
		<path class="st6" d="M690.4,15.9c-8.7-0.4-31.5,6.2-30.8-10.4"/>
		<path class="st6" d="M678.8,57.5c0.2,1.8,4.8,18.6,22.9,20.4"/>
		<path class="st9" d="M697.4,78.9L697.4,78.9c-7.6,0-13.7-1.4-18.4-4.1c-4.2-2.4-7.1-5.9-8.6-10.2c-1.4-3.9-1.5-8.5-0.3-12.9
			c1.1-4,3.1-7.4,5.5-9.3l0,0l0.7,0.9l-0.1,0.1c-4.4,3.5-7.4,12.9-4.7,20.8c1.4,4.1,4.2,7.4,8.1,9.7c4.5,2.6,10.5,4,17.8,4
			c0.3,0,0.5,0,0.8,0l4.2-0.1l0,0v1.1C702.1,78.8,697.7,78.9,697.4,78.9z"/>
		<path class="st6" d="M689.4,45c-0.8-3.4-12.8-14.4-21.9-3"/>
	</g>
</g>
</svg>
