<?xml version="1.0" encoding="utf-8"?>
<!-- Generator: Adobe Illustrator 24.0.3, SVG Export Plug-In . SVG Version: 6.00 Build 0)  -->
<svg version="1.1" id="Layer_1" xmlns="http://www.w3.org/2000/svg" xmlns:xlink="http://www.w3.org/1999/xlink" x="0px" y="0px"
	 viewBox="0 0 535.5 545.5" style="enable-background:new 0 0 535.5 545.5;" xml:space="preserve">
<style type="text/css">
	.st0{fill:none;}
	.st1{font-family:'MrEavesModOT-Bold';}
	.st2{font-size:30px;}
	.st3{font-family:'MrEavesModOT-Book';}
	.st4{font-size:20px;}
	.st5{fill:#FFCD00;}
	.st6{fill:#D12A2C;}
	.st7{fill:#29ABE2;}
	.st8{fill:#1F4FAD;}
	.st9{fill:#F49600;}
	.st10{fill:#367ACC;}
	.st11{fill:#B14FC5;}
	.st12{fill:#00AA6D;}
	.st13{fill:#F78B6D;}
	.st14{fill:#28A300;}
	.st15{fill:#6A0080;}
	.st16{fill:#04AFA6;}
</style>
<rect x="-215.2" y="8.5" class="st0" width="139.5" height="21.5"/>
<text transform="matrix(1 0 0 1 0.52 102.6725)" class="st1 st2">Saurischia</text>
<text transform="matrix(1 0 0 1 417.9127 150.8537)" class="st3 st4">Theropoda</text>
<text transform="matrix(1 0 0 1 417.9122 44.639)" class="st3 st4">Sauropoda</text>
<text transform="matrix(1 0 0 1 1.220703e-04 409.7775)" class="st1 st2">Ornithischia</text>
<text transform="matrix(1 0 0 1 415.913 406.65)" class="st3 st4">Marginocephalia</text>
<text transform="matrix(1 0 0 1 417.9124 298.2308)" class="st3 st4">Thyreophora</text>
<circle class="st5" cx="199.2" cy="93.4" r="38.3"/>
<circle class="st6" cx="284.6" cy="146.7" r="22.4"/>
<circle class="st7" cx="284.6" cy="40.1" r="22.4"/>
<circle class="st8" cx="368.8" cy="145.6" r="37.2"/>
<circle class="st9" cx="368.8" cy="40.1" r="37.2"/>
<circle class="st10" cx="199.2" cy="400.2" r="38.3"/>
<circle class="st11" cx="284.6" cy="293.6" r="22.4"/>
<circle class="st12" cx="284.6" cy="400.2" r="22.4"/>
<circle class="st13" cx="284.6" cy="509.7" r="22.4"/>
<circle class="st14" cx="368.8" cy="292.9" r="37.2"/>
<circle class="st15" cx="368.8" cy="401.4" r="37.2"/>
<ellipse transform="matrix(3.327796e-02 -0.9994 0.9994 3.327796e-02 -150.4111 858.881)" class="st16" cx="368.8" cy="507.2" rx="37.2" ry="37.2"/>
<text transform="matrix(1 0 0 1 417.912 512.4917)" class="st3 st4">Ornithopoda</text>
</svg>
