<?xml version="1.0" encoding="utf-8"?>
<!-- Generator: Adobe Illustrator 25.0.1, SVG Export Plug-In . SVG Version: 6.00 Build 0)  -->
<svg version="1.1" id="Layer_1" xmlns="http://www.w3.org/2000/svg" xmlns:xlink="http://www.w3.org/1999/xlink" x="0px" y="0px"
	 viewBox="0 0 915.5 191.3" style="enable-background:new 0 0 915.5 191.3;" xml:space="preserve">
<style type="text/css">
	.st0{fill:#2E3281;}
	.st1{fill:#D23837;}
	.st2{fill:#F79420;}
	.st3{fill:none;stroke:#231F20;stroke-width:4.3555;stroke-linecap:round;stroke-miterlimit:10;}
	.st4{fill:none;stroke:#231F20;stroke-width:5.1067;stroke-linecap:round;stroke-miterlimit:10;}
	.st5{fill:none;stroke:#231F20;stroke-width:5.804;stroke-linecap:round;stroke-miterlimit:10;}
	.st6{fill:#231F20;}
	.st7{fill:#FFFFFF;stroke:#231F20;stroke-width:4.6322;stroke-miterlimit:10;}
	.st8{fill:#FFFFFF;stroke:#231F20;stroke-width:2.7607;stroke-miterlimit:10;}
	.st9{fill:#FFFFFF;stroke:#231F20;stroke-width:3.3592;stroke-miterlimit:10;}
</style>
<g>
	<g>
		<path class="st0" d="M147.6,145.5c7.2,9.5,18.6,14.4,28.8,14.4c10.7,0,18.1-8.2,18.1-19.8c0-14.1-10.4-21.7-22.4-30.7
			c-15.7-11.4-34.1-24.5-34.1-56c0-27.2,18.1-50.5,49.5-50.5c14.9,0,28.8,5.2,38.6,14.7l-13.1,26.4c-6.9-7.3-15.2-10.6-24.2-10.6
			c-9.9,0-16.8,7.3-16.8,18.2c0,12,9.9,19.8,21.3,28.5c16.2,12,35.2,26.4,35.2,57.9c0,30.4-19.4,52.4-49.8,52.4
			c-19.4,0-34.4-6.2-45.8-17.9L147.6,145.5z"/>
		<path class="st0" d="M276,36h-26.9V5.8h87.4V36h-26.9V187H276V36z"/>
		<path class="st0" d="M406.3,120.5h-10.9V187h-33.6V5.8h49.5c28.2,0,48.5,23.1,48.5,56.2c0,30.7-12.8,44.6-22.9,50l24.5,75h-36
			L406.3,120.5z M406.3,36h-10.9v54.3h10.9c12.5,0,19.4-10.9,19.4-27.2C425.7,46.6,418.8,36,406.3,36z"/>
		<path class="st0" d="M540.8,2.8c38.9,0,55.4,40.5,55.4,93.7s-16.5,93.7-55.4,93.7c-39.2,0-55.4-40.5-55.4-93.7
			S501.6,2.8,540.8,2.8z M540.8,33.3c-15.7,0-21,27.2-21,63.3c0,35.6,5.3,63.3,21,63.3s21-27.7,21-63.3
			C561.8,60.4,556.5,33.3,540.8,33.3z"/>
		<path class="st1" d="M629.2,5.8h29c34.6,0,48.5,38.3,48.5,90.7c0,53-13.9,90.5-48.2,90.5h-29.3V5.8z M658.3,173.7
			c24.8,0,33.3-32.9,33.3-77.2c0-44-8.8-77.4-33.3-77.4h-14.9v154.6H658.3z"/>
		<path class="st1" d="M791.2,141.9h-41l-7.7,45.1h-14.4L762.4,5.8h16.5L813.3,187h-14.4L791.2,141.9z M752,128.6h37L770.7,22.9
			L752,128.6z"/>
		<path class="st1" d="M857.8,109.3L818.6,5.8h15.7L865,93.6l30.9-87.8h14.9l-38.9,103.5V187h-14.1V109.3z"/>
	</g>
	<path class="st0" d="M80.3,5.8H41.7L4.6,187h31.7l20.9-71.4c-2.2,0.2-5.2,0.4-5.4-0.2c-0.3-1,0.3-7.9,0.3-7.9H33.2
		c-0.2-6.5,15-19,16.4-21.6c1.7-2.9,4.7-25.3,4.7-25.3c0.7-7.2,3-21.6,6.7-21.6c3.7,0,6,14.4,6.8,21.6c0,0,3.1,22.4,4.7,25.3
		c1.5,2.6,16.6,15.1,16.4,21.6H70c0,0,0.6,6.9,0.3,7.9c-0.2,0.6-3.2,0.5-5.4,0.2L85.9,187h31.7L80.3,5.8z"/>
	<path class="st0" d="M596,91.2c-3.5,3.8-7.5,7.2-11.7,10.4c-7.3,5.5-15.1,10.4-23.3,14.6c-0.1,1.8-0.3,3.6-0.4,5.3
		c-2.2,22.8-8.2,38.3-20,38.3c-9.1,0-14.8-9.4-17.9-24.2c-0.4-1.7-0.7-3.4-1-5.2c-3.2,0.7-6.5,1.3-9.7,1.8c-6.4,0.9-13,1.4-19.2,0.9
		c-1.6-0.1-3.1-0.3-4.7-0.6c0.4,2.4,0.9,4.9,1.5,7.2c7.1,30.5,23.4,50.6,50.9,50.6c37.9,0,54.6-38.5,55.4-89.9c0-1.3,0-2.6,0-3.9
		C596.1,94.8,596.1,93,596,91.2z"/>
	<path class="st2" d="M559.9,65.6c-3.2,0.9-6.3,1.9-9.5,2.9c-6.4,2.1-12.8,4.5-19,7.2c-3.9,1.6-7.7,3.4-11.5,5.2
		c-0.1,1.6-0.2,3.3-0.2,5c4.4-2.3,8.8-4.4,13.3-6.3c8.9-3.7,18.1-6.7,27.5-8.8C560.4,69,560.2,67.3,559.9,65.6z M611.3,71.1
		c-0.9-2.3-2.6-4.2-4.3-5.5c-1.8-1.3-3.6-2.2-5.4-2.9c-2.8-1-5.6-1.5-8.3-1.7c0.4,2.4,0.8,4.9,1.2,7.4c1.7,0.3,3.3,0.7,4.7,1.3
		c2.6,1,4.7,2.5,5.3,4.2c0.8,1.7,0.4,4.2-0.8,6.8c-1.2,2.6-3,5.2-5,7.6c-0.8,1-1.6,1.9-2.5,2.8c-3.5,3.8-7.5,7.2-11.7,10.4
		c-7.3,5.5-15.1,10.4-23.3,14.6c-3.6,1.9-7.3,3.6-11,5.2c-9.1,3.9-18.6,6.9-28.2,9.1c-3.2,0.7-6.5,1.3-9.7,1.8
		c-6.4,0.9-13,1.4-19.2,0.9c-1.6-0.1-3.1-0.3-4.7-0.6c-1.5-0.3-2.9-0.6-4.2-1.1c-2.7-1-4.8-2.5-5.4-4.3c-0.8-1.8-0.4-4.4,0.8-7
		c1.2-2.6,3-5.2,5.1-7.6c0.4-0.5,0.8-0.9,1.2-1.4c-0.2-2.9-0.3-5.7-0.3-8.7c-2,1.7-3.9,3.6-5.8,5.6c-2.4,2.7-4.6,5.6-6.3,9.1
		c-0.8,1.8-1.5,3.7-1.9,5.9c-0.3,2.2-0.2,4.6,0.7,6.9c0.9,2.3,2.5,4.1,4.2,5.4c1.7,1.3,3.6,2.2,5.4,2.8c2.7,0.9,5.4,1.4,8,1.7
		c0.9,0.1,1.9,0.2,2.8,0.2c7.1,0.2,13.9-0.7,20.6-2c3.3-0.7,6.5-1.5,9.7-2.3c3.3-0.9,6.6-1.9,9.9-3c6.4-2.1,12.8-4.5,19-7.1
		c3-1.3,6-2.6,8.9-4c3.2-1.5,6.3-3,9.5-4.6c6-3.1,12-6.5,17.7-10.3c2.8-1.9,5.6-4,8.3-6.2c2.7-2.2,5.3-4.6,7.7-7.2
		c2.4-2.7,4.7-5.6,6.4-9.1c0.8-1.8,1.6-3.7,1.9-5.9C612.4,75.9,612.2,73.4,611.3,71.1z"/>
</g>
</svg>
