<?xml version="1.0" encoding="utf-8"?>
<!-- Generator: Adobe Illustrator 25.0.1, SVG Export Plug-In . SVG Version: 6.00 Build 0)  -->
<svg version="1.1" id="Layer_1" xmlns="http://www.w3.org/2000/svg" xmlns:xlink="http://www.w3.org/1999/xlink" x="0px" y="0px"
	 viewBox="0 0 915.5 196.6" style="enable-background:new 0 0 915.5 196.6;" xml:space="preserve">
<style type="text/css">
	.st0{fill:#2E3281;}
	.st1{fill:#D23837;}
	.st2{fill:#F79420;}
	.st3{fill:none;stroke:#231F20;stroke-width:4.3555;stroke-linecap:round;stroke-miterlimit:10;}
	.st4{fill:none;stroke:#231F20;stroke-width:5.1067;stroke-linecap:round;stroke-miterlimit:10;}
	.st5{fill:none;stroke:#231F20;stroke-width:5.804;stroke-linecap:round;stroke-miterlimit:10;}
	.st6{fill:#231F20;}
	.st7{fill:#FFFFFF;stroke:#231F20;stroke-width:4.6322;stroke-miterlimit:10;}
	.st8{fill:#FFFFFF;stroke:#231F20;stroke-width:2.7607;stroke-miterlimit:10;}
	.st9{fill:#FFFFFF;stroke:#231F20;stroke-width:3.3592;stroke-miterlimit:10;}
</style>
<g>
	<path class="st3" d="M739,66c60.2,10.3,96.8,23.9,96.8,38.9c0,32.1-169.4,58.2-378.3,58.2c-208.9,0-378.3-26-378.3-58.2
		c0-14.2,32.9-27.2,87.7-37.2"/>
	<path class="st4" d="M739,66l7.8-13.4C825.2,65.8,874,84.4,874,104.9c0,40.1-186.5,72.6-416.6,72.6S40.9,145,40.9,104.9
		c0-20.8,49.9-39.5,130-52.7l-4.1,15.5"/>
	<path class="st5" d="M739,66l7.8-13.4l7.6-13c94.3,15.9,153.8,39.2,153.8,65.2c0,47.9-201.8,86.7-450.6,86.7
		c-248.9,0-450.6-38.8-450.6-86.7c0-27.3,65.5-51.7,168-67.5l-3.9,14.8l-4.1,15.5"/>
	<g>
		<path class="st6" d="M161.2,105.6h-21.9L169.7,3.1h24.6l30.4,102.5h-22.2l-5.5-21.5h-30.4L161.2,105.6z M170.5,68H193l-11.2-44.7
			h-0.3L170.5,68z"/>
		<path class="st6" d="M293.5,24.2l-14.7,6.5c-3-8.1-9-11.9-16.4-11.9c-8.5,0-11.6,3.8-11.6,9.8c0,17,43.4,16.1,43.4,48.6
			c0,19.1-12.9,29.8-32.6,29.8c-15.8,0-29.8-9.5-33.8-24.6l16.3-5.7c3,9,10.3,13.3,17.4,13.3c8.6,0,12.4-3.4,12.4-10.3
			c0-19.5-44.4-17.4-44.4-49.9c0-15.7,11.9-28.1,30.8-28.1C277.5,1.7,288.2,10.6,293.5,24.2z"/>
		<path class="st6" d="M366.4,3.1v18.8h-22.9v83.7h-21.6V21.9H299V3.1H366.4z"/>
		<path class="st6" d="M408.5,65.4h-9.5v40.1h-21.8V3.1h33.9c23,0,32.8,11.7,32.8,30.1c0,13.6-5.5,23.6-16.1,27.6l21.6,44.8H426
			L408.5,65.4z M399.1,49.2h11.7c9.3,0,11.7-5.2,11.7-14.6c0-10.2-3-13.9-11.9-13.9h-11.6V49.2z"/>
		<path class="st6" d="M529.5,37.9v32.9c0,22-12.9,36.2-36.5,36.2c-23.6,0-36.5-14.1-36.5-36.2V37.9c0-22,12.9-36.2,36.5-36.2
			C516.6,1.7,529.5,15.8,529.5,37.9z M507.7,37.9c0-13-4.5-18.2-14.7-18.2c-10.2,0-14.8,5.2-14.8,18.2v32.9
			c0,13.3,4.7,18.8,14.8,18.8c10.2,0,14.7-5.5,14.7-18.8V37.9z"/>
		<path class="st6" d="M580.8,3.1c21.8,0,34.1,13,34.1,34.3v34.3c0,20.9-12.3,33.8-34.1,33.8H548V3.1H580.8z M580.8,10.7h-24v87.3
			h24c16.5,0,25.4-9.2,25.4-26.4V37.7C606.3,20.2,597.5,10.7,580.8,10.7z"/>
		<path class="st6" d="M632.8,105.6h-9.2L659.5,3.1h9l35.9,102.5h-9.2L685.7,77h-43.4L632.8,105.6z M644.7,69.8h38.6l-19.2-57.4
			h-0.3L644.7,69.8z"/>
		<path class="st6" d="M741.7,69.2v36.3h-8.8V69.2L700,3.1h10.2l27,58.2h0.3l27.3-58.2h9.9L741.7,69.2z"/>
	</g>
	<circle class="st7" cx="42.9" cy="141.6" r="21.5"/>
	<circle class="st8" cx="584.8" cy="171.7" r="12.8"/>
	<circle class="st9" cx="811.4" cy="120.1" r="15.6"/>
</g>
</svg>
