<?xml version="1.0" encoding="utf-8"?>
<!-- Generator: Adobe Illustrator 24.0.3, SVG Export Plug-In . SVG Version: 6.00 Build 0)  -->
<svg version="1.1" id="Layer_1" xmlns="http://www.w3.org/2000/svg" xmlns:xlink="http://www.w3.org/1999/xlink" x="0px" y="0px"
	 viewBox="0 0 684.4 631" style="enable-background:new 0 0 684.4 631;" xml:space="preserve">
<style type="text/css">
	.st0{fill:#2D2D2D;stroke:#FCBA1F;stroke-width:7.5115;stroke-miterlimit:10;}
	.st1{fill:none;}
	.st2{enable-background:new    ;}
	.st3{fill:#FDBB20;}
	.st4{fill:#DA1F26;}
	.st5{fill:#832F0A;}
	.st6{fill:#A5CF4F;}
	.st7{fill:#FADABA;}
	.st8{fill:#F39F52;}
	.st9{fill:none;stroke:#FDBB20;stroke-width:1.8779;stroke-miterlimit:10;}
</style>
<g id="burger_x5F_DON_x27_T_USE">
</g>
<g id="TYPE">
</g>
<g id="METAL_RED">
</g>
<g id="METAL">
</g>
<g id="FRIES_1_">
</g>
<path class="st0" d="M628.8,51.4v575.1H55.9V51.4h238.8c0-26.3,21.3-47.6,47.6-47.6s47.6,21.3,47.6,47.6H628.8z"/>
<rect x="353.2" y="167.3" class="st1" width="73.9" height="44.8"/>
<g class="st2">
	<path class="st3" d="M365.3,204.1v-31.9H358v-3.3h18.8v3.3h-7.3v31.9H365.3z"/>
</g>
<g class="st2">
	<path class="st3" d="M382.3,204.1v-35.2h4.2v15.9h10.3v-15.9h4.2v35.2h-4.2v-16h-10.3v16H382.3z"/>
</g>
<g class="st2">
	<path class="st3" d="M406.5,204.1v-35.2H421v3.3h-10.3v12.5h9.3v3.2h-9.3v12.9h10.5v3.3H406.5z"/>
</g>
<rect x="300.5" y="393.4" class="st1" width="75" height="41.7"/>
<g class="st2">
	<path class="st3" d="M313.8,430.3v-14.1l-7.9-21.1h4.4l5.8,16.9l5.8-16.9h4l-7.9,21.1v14.1H313.8z"/>
</g>
<g class="st2">
	<path class="st3" d="M331.1,430.3v-35.2h14.5v3.3h-10.3v12.5h9.3v3.2h-9.3V427h10.5v3.3H331.1z"/>
</g>
<g class="st2">
	<path class="st3" d="M358.4,430.3v-31.9h-7.3v-3.3h18.8v3.3h-7.3v31.9H358.4z"/>
</g>
<g>
	<g>
		<path class="st4" d="M197.6,405.1c-10.3,10.5-21.4,16.8-33.3,16.8c-23.8,0-36.8-17.3-36.8-34.1c0-14.6,10.3-28.4,32.2-28.4
			c11.4,0,21.4,8.7,31.6,18.9c19.2-37,39.2-96.5,59.2-149.5c8.1-21.6,23.6-39.3,32.5-34.8c4.1,2.1,6.6,5.3,7.5,7.5
			c-5.4,9.5-22.4,60-36.5,97.3c3.8-1.6,9.7-1.1,16.8,1.4c23.8-21.1,40.6-62.5,40.6-95.2c0-20.8-6.8-38.1-22.7-45.2
			c-3-0.5-4.9-0.5-7.3-0.5c-50,0-84.4,75.7-84.4,127.9c0,14.9,5.2,25.3,11.4,33.9c-1.6,3.8-8.5,8.8-12.8,8.8
			c-14.1,0-32.6-12-32.6-42.3c0-55.7,47.2-140.5,111.5-140.5c47.6,0,65.4,24.3,65.4,57.6c0,33-30.3,83.3-57.3,100.9
			c10.5,7,17,19.2,17,36.5c0,43.5-33.5,79.8-69.8,79.8C218.1,421.9,207.3,414.6,197.6,405.1z M184.6,390.8
			c-9.2-11.1-17-21.4-23.5-23.3c-5.9,2.7-11.1,12.7-11.1,23c0,9.5,4.1,18.7,14.6,22.4C171.1,410,177.8,402.1,184.6,390.8z
			 M279.2,328.6c0-7-1.6-13.5-5.4-18.4c-12.2,5.4-21.1,4.3-24.6,0.8c-1.3,3.5-2.4,6.8-3.8,9.7c-11.6,28.4-24.1,54.3-38.1,73
			c7,6.2,14.6,11.6,23.3,14.3C251.9,400,279.2,357.8,279.2,328.6z"/>
		<path class="st4" d="M438.2,251.3c2.7-0.5,5.7,0.3,5.7,3.2c0,10.8-38.7,121.1-90.6,121.1c-21.1,0-38.4-12.4-38.4-31.1
			c0-27.3,15.4-72.2,36.5-96c7-8.1,17.4-24.3,29.3-20.4c13.9,4.5,28.1,13.4,28.1,33.1c0,22.7-27.6,77.6-60.8,77.6
			c-2.4,0-4.9-0.3-7.6-1.1c-0.3,3-0.5,5.7-0.5,8.1c0,8.7,3.2,14.3,11.6,17.6C376.3,358.1,418,301,438.2,251.3z M342,330.2
			c24.3-4.1,48.1-59.2,48.1-78.9c0-3-0.5-5.1-1.9-6.2C375.5,245.9,349.6,297,342,330.2z"/>
		<path class="st4" d="M423.9,375.6c-20.6,0-37.5-15.9-37.5-26.4c0-6.5,7.5-4.7,13.4-5.3c4.9,8.7,15.7,16.8,20.8,20
			c8.7-8.1,16.5-36.2,18.4-93.5c0.3-6.8-4.1-7.8-4.1-11.1c0-0.5,0.3-1.3,0.5-1.9c17.6-44.6,20.8-67.5,34.9-67.5
			c10,0,21.4,17.8,24.1,29.1c-16,7.3-43,19.2-43,35.1c0,11.1,8.9,39.5,8.7,64.9c0,8.9-2.1,10.2-4.2,17.5
			c15.4-20,31.8-46.4,43.7-74.5c1.9-0.3,2.2,0.3,2.2,1.6C501.8,277.2,465.8,375.6,423.9,375.6z"/>
		<path class="st4" d="M468.5,354.3c0-15.1,19.4-67.7,35.7-107.1c-5.4-0.3-10.1-0.4-14.3-0.7c0,0-7.5-6.7-7.5-7.5
			c0-2.7,1.1-5.4,4.9-5.6c4.3-0.3,16.1,5.3,20.7,5.3c6.5-15.4,13.8-35.1,16.8-41.1c15.1-0.5,19.9,6,19.9,12.2c0,4.3-5,12.5-9.4,21.7
			c6.5,0,8.6-0.3,14.5,0.2c0,0,5.3,1.5,4.4,10.5c-0.5,4.3-7.6,5.9-23.8,6.5c-9.2,22.7-19.7,50.3-32.7,86c-2.7,7.8-4.1,13.8-4.1,18.1
			c-0.3,4.9-1.1,5.7,1.1,7.8c10.8-5.7,18-24.1,25.3-37c2.2-0.3,8.4,1.6,8.5,10c0.1,11.6-21.1,42.2-37.3,42.2
			C480.2,375.6,468.5,366.4,468.5,354.3z"/>
	</g>
	<g>
		<path class="st3" d="M190.1,397.6c-10.3,10.5-21.4,16.8-33.3,16.8c-23.8,0-36.8-17.3-36.8-34.1c0-14.6,10.3-28.4,32.2-28.4
			c11.4,0,21.4,8.7,31.6,18.9c19.2-37,39.2-96.5,59.2-149.5c8.1-21.6,17.6-30.6,28.1-30.6c3.8,0,7.8,1.1,11.9,3.2
			c-5.4,9.5-22.4,60-36.5,97.3c3.8-1.6,9.7-1.1,16.8,1.4c23.8-21.1,40.6-62.5,40.6-95.2c0-20.8-6.8-38.1-22.7-45.2
			c-3-0.5-4.9-0.5-7.3-0.5c-50,0-84.4,75.7-84.4,127.9c0,14.9,3,27.8,9.2,36.5c-1.6,3.8-6.2,6.2-10.5,6.2
			c-14.1,0-25.4-13.5-25.4-43.8c0-55.7,40-139,104.4-139c47.6,0,65.4,24.3,65.4,57.6c0,33-30.3,83.3-57.3,100.9
			c10.5,7,17,19.2,17,36.5c0,43.5-33.5,79.8-69.8,79.8C210.6,414.4,199.8,407.1,190.1,397.6z M177.1,383.3
			c-9.2-11.1-17-21.4-23.5-23.3c-5.9,2.7-11.1,12.7-11.1,23c0,9.5,4.1,18.7,14.6,22.4C163.6,402.4,170.3,394.6,177.1,383.3z
			 M271.7,321.1c0-7-1.6-13.5-5.4-18.4c-12.2,5.4-21.1,4.3-24.6,0.8c-1.3,3.5-2.4,6.8-3.8,9.7c-11.6,28.4-24.1,54.3-38.1,73
			c7,6.2,14.6,11.6,23.3,14.3C244.4,392.4,271.7,350.3,271.7,321.1z"/>
		<path class="st3" d="M430.7,243.8c2.7-0.5,5.7,0.3,5.7,3.2c0,10.8-38.7,121.1-90.6,121.1c-21.1,0-38.4-12.4-38.4-31.1
			c0-27.3,15.4-72.2,36.5-96c7-8.1,15.9-13.8,28.4-13.8c13.8,0,28.9,6.8,28.9,26.5c0,22.7-27.6,77.6-60.8,77.6
			c-2.4,0-4.9-0.3-7.6-1.1c-0.3,3-0.5,5.7-0.5,8.1c0,8.7,3.2,14.3,11.6,17.6C368.8,350.6,410.5,293.4,430.7,243.8z M334.5,322.7
			c24.3-4.1,48.1-59.2,48.1-78.9c0-3-0.5-5.1-1.9-6.2C368,238.3,342,289.4,334.5,322.7z"/>
		<path class="st3" d="M416.4,368.1c-20.6,0-30.3-11.6-30.3-22.2c0-6.5,3.2-11.9,9.2-12.4c4.9,8.7,12.7,19.7,17.8,23
			c8.7-8.1,16.5-36.2,18.4-93.5c0.3-6.8-4.1-7.8-4.1-11.1c0-0.5,0.3-1.3,0.5-1.9c17.6-44.6,25.7-60.3,39.7-60.3
			c10,0,16.5,10.5,19.2,21.9c-16,7.3-43,19.2-43,35.1c0,11.1,8.9,39.5,8.7,64.9c0,8.9-1.1,17.6-3.2,24.9
			c15.4-20,30.8-53.8,42.7-81.9c1.9-0.3,2.2,0.3,2.2,1.6C494.3,269.7,458.3,368.1,416.4,368.1z"/>
		<path class="st3" d="M461,346.8c0-15.1,19.5-67.1,35.7-106.5c-5.4-0.3-10.3-0.8-14.3-1.3c-0.3-1.1-0.3-1.4-0.3-2.2
			c0-2.7,1.1-5.1,4.9-5.4c4.3-0.3,8.9-0.3,13.5-0.3c6.5-15.4,11.9-28.1,14.9-34.1c15.1-0.5,20.3,4.3,20.3,10.5
			c0,4.3-4.3,14.3-8.6,23.5c6.5,0,12.7,0.3,18.7,0.3c0.8,1.4,1.1,2.4,1.1,3.2c0,4.3-7.6,5.9-23.8,6.5c-9.2,22.7-19.7,50.3-32.7,86
			c-2.7,7.8-4.1,13.8-4.1,18.1c-0.3,4.9,1.1,7.8,3.2,10c10.8-5.7,20.6-19.2,27.9-32.2c2.2-0.3,3.8,0.3,3.8,3
			c0,11.6-21.1,42.2-37.3,42.2C472.7,368.1,461,358.9,461,346.8z"/>
	</g>
</g>
<g>
	<g>
		<path class="st5" d="M304.2,515.9c-0.1-1.2,0-3,1.1-5c0.2-0.4,0.5-0.7,0.9-0.8c2.9-1.1,16.8-5.6,37.7-5.6c21,0,35.2,4.7,38.3,5.8
			c0.4,0.2,0.8,0.5,0.9,0.9c0.3,1,0.6,2.8-0.5,4.7l0,0c-1.4,0.3-1.7,0.2-2.6,0.2c-4.6-0.2-2.6-1.2-4.7-1.7c-1.6-0.4-2.4,0.1-4.4,0.1
			c-2.9,0-2.4-1-2.1-2c0.3-1.1-0.5-2-2.9-0.9c-3.2,1.5-5.6,1.5-8.7,1.4c-2-0.1-3.7-1.5-8.1-0.9c-3.8,0.5-5.9,1.5-7.3,1.7
			c-0.3,0-0.7,0-1,0c-1.3-0.2-2.3-1.2-4.7-0.9c-2.6,0.3-3.8,0.7-6,1c-2.7,0.4-5.2-1.7-7.7-1.7c-1.6,0-3.2,0.7-4.9,1.7
			c-1.2,0.7-2.5,1.3-5.2,1.5c-1.5,0.1-2-0.3-3.9,0.1c-1.6,0.3-2.7,0.9-3.5,1.5C304.6,516.9,304.2,516.4,304.2,515.9z M304.1,536.4
			c3.4-0.2,4.7,1.2,6.2,1.5c1.7,0.3,2.1,0.2,3.7,0.2c1.7,0,4.8,0.7,13.5,1c8.8,0.3,12.7-1.5,21.3-2.5c5.3-0.6,9.9,1.1,11.5,1.7
			c0.4,0.2,0.8,0.2,1.2,0c1-0.4,2.9-1.2,4.2-1.5c1.9-0.4,3.4,0.6,4.4,0.8s1.6-0.6,2.7-0.7c2.2-0.2,2.9,1.2,4.7,1.2
			c1.9,0,2.3-0.6,3.1-0.8c0.8-0.2,1.7,0,2.5,0.3c0.5-0.2,0.8-0.7,0.8-1.3c0-2.2-0.7-3.9-1.3-4.8c-0.4-0.6-1-1.1-1.8-1.1
			c-21.4-1.4-66.5-0.5-74-0.3c-0.7,0-1.4,0.4-1.7,1c-1.2,2-1.2,3.8-1.1,4.8C304.1,536.2,304.1,536.4,304.1,536.4z"/>
		<path class="st3" d="M351.2,542.6c-11,0.8-12.9,16.1-16,11s-5.6-8.8-13.7-10.2c-3.8-0.6-5.5-2.1-5.4-2.5c0.1-0.9,2.2-1,5.1-0.5
			c13.7,2.1,19.4-1.1,26-1.7c4.3-0.4,8.3-0.2,11.4,0.6c0.2,0,0.2,0.3,0,0.3C354,540.1,353.6,542.4,351.2,542.6z"/>
		<path class="st6" d="M378.8,543.4L378.8,543.4L378.8,543.4z M302.1,543.2c-0.1,0.3,0.1,0.7,0.4,0.6c3.3-0.6,2.9,1.4,5.1,2
			c1.2,0.3,3.2-0.1,4.5-0.3c4.4-0.8,3.9,1.5,7.2,1.4c1.6,0,3-0.6,3.6-0.9c0.3-0.1,0.3-0.5,0-0.6c-2.3-0.8-9.1-0.9-9.3-4.9
			c0-0.3-0.3-0.5-0.6-0.5c-1.3,0.2-3.3,0.3-6.1-1.5c-2.6-1.6-5-0.2-5.7,0.3c-0.1,0.1-0.1,0.2,0.1,0.2c1.7,0,3.7,1.1,2.3,2.1
			C302.7,541.9,302.3,542.7,302.1,543.2z M367.2,538.6c-2.3-0.4-4.4,1.5-5.5,2c-1,0.5-2.4,0.4-3,0.4c-0.1,0-0.2,0.1-0.1,0.2
			c0.4,0.3,1.1,0.8,2.4,1c1.6,0.2,3.6-0.3,4.4-0.3c2.4-0.1,2.6,3.5,6.3,3.6c3,0.1,3.5-3.5,9-1.1c3.3,1.4,5.8-1.5,6.7-2.8
			c0.1-0.2,0-0.5-0.3-0.4c-3.6,0.9-3.5-1.9-6-1.9c-1.8-0.1-1.9,2.1-6.8-0.1c-1.4-0.6-1.7,0.4-3.6,0.5
			C369.2,539.7,369.5,539,367.2,538.6z M367.2,513c0.1-0.2-0.1-0.3-0.2-0.2c-2,1.1-7.1,2.1-9.8,1.9c-1.6-0.1-3.5-1.4-5.5-1.5
			c-3.5-0.1-6.2,1.2-9,2.3c-0.1,0.1-0.1,0.3,0.1,0.3c0.7,0,1.8,0,2.8,0.4c1.7,0.6,3.9,2.5,6.6,2.7s3.9-0.4,4.8-0.6
			c1.7-0.3,2.5,0.6,3.9,1.4c2.3,1.4,7.1,1.1,9.1,0.1c1.8-0.9,3.3-3.2,4.4-3.9c0.2-0.1,0-0.4-0.1-0.3c-2.3,0.4-4.8,0.5-6.4-0.2
			C366.4,514.7,366.9,513.7,367.2,513z M322,513.4c-1.9,0-3.7,2-4.9,2.5c-0.9,0.4-2.3,0.5-2.9,0.6c-0.1,0-0.1,0.1,0,0.2
			c1.5,1,3.4,2,5,1.7c5-0.9,6.8,1.8,8.8,2c3,0.2,4.2-1.1,6.4-0.3c1.5,0.5,2.4,0.2,3.6-0.8c1.9-1.6,2.6-0.9,4.5-1.7
			c0.2-0.1,0.2-0.5-0.1-0.5c-0.5-0.1-1.1-0.3-1.7-0.6c-1.2-0.8-2.2-1.8-4.4-1.8c-2.5,0-2.2,0.9-7.3,1
			C326.3,515.6,324.9,513.2,322,513.4z M310.6,522c0.7-0.8,1.9-2.2,4.3-2.7c0.2,0,0.3-0.3,0.1-0.4c-1-0.7-3.5-2.4-6.1-2.1
			c-4.1,0.6-3.8,4-7.1,3.7c-0.8,0-1.3-0.2-1.7-0.5c-0.2-0.1-0.4,0.1-0.4,0.3c0.4,1.2,1.3,3.6,3.7,3.4c1.7-0.1,2.1-0.9,3.3-1.1
			C307.9,522.4,308.9,523.7,310.6,522z M373.7,522.7c3.4,0.1,4.7-2.1,9.2-0.3c2.1,0.8,4.7,0,5.5-1.5c0.1-0.1-0.1-0.3-0.2-0.3
			c-1,0.5-3.8,1-3.3-1.2c0.2-0.8,0-1.7-1.8-1.5c-1.5,0.1-2.1,0.4-3.2,0.2c-1-0.2-1.6-1-3.8-1c-3,0-3.5,4-7.6,4
			c-0.2,0-0.2,0.2-0.1,0.3C369.3,521.9,371.1,522.7,373.7,522.7z"/>
		<g>
			<path class="st7" d="M324.4,520.4c0.1,0,0.1,0.1,0,0.2c-1.7,0.5-2.9,2.8-5.5,2.8c-3.2,0-4.1-1.5-6.1-1.8c-0.1,0-0.1-0.1,0-0.2
				c0.6-0.1,1.5-0.4,2.3-0.7c1.2-0.5,2.7-1.4,4.4-1.4C321.4,519.4,323.7,520.2,324.4,520.4z M357.3,519.4c-8.7,2.6-8.3-2.2-13.4-1.4
				c-0.8,0.1-1.9,1.3-3.8,1.4c-0.9,0-1.1,0.6-1.2,0.8c-0.3,0.8,1.5,0.4,4.3,1.9c1.4,0.8,2.1,2.1,3.4,2.2c1.8,0.1,3-1.6,4.2-1.7
				c1.4-0.1,1.9,0.1,3.3-0.1C356.2,522.1,359.1,518.9,357.3,519.4z M347.7,545.4c0.5,0.3,4-0.2,6.1,0.7s2.9,1.9,4.4,2
				c3,0.2,3.2-3.1,5.8-3.7c2.4-0.5,1.4-1.6-1.9-0.8c-3.4,0.9-3.4-1.7-6-1.5c-1.6,0.1-1.7,2-5.6,1.9
				C348.3,544,347.1,545.1,347.7,545.4z"/>
		</g>
		<path class="st8" d="M374.1,489.7c-8.1-5.2-17.9-9.1-30.1-9.1s-22,3.9-30.1,9.1c-9.4,6.1-12.8,15.7-9.6,19.4
			c0.2,0.2,0.5,0.3,0.7,0.2c8.7-3.4,22.7-6.9,39-6.7c16.3-0.2,30.3,3.3,39.1,6.8c0.2,0.1,0.4,0,0.5-0.1
			C387,505.6,383.7,495.7,374.1,489.7z M350.1,484.4c1.4,0.4,0,2.3-0.6,3.1c-0.1,0.1-0.4,0.1-0.4-0.1
			C348.9,486.4,348.6,484,350.1,484.4z M314.9,501.1c-0.2,0.1-0.4,0-0.3-0.2c0.2-1,0.7-3.3,2-2.4
			C317.7,499.2,315.8,500.5,314.9,501.1z M320,492.6c-1-0.1-3.4-0.6-2.5-1.9c0.8-1.3,2.2,0.7,2.7,1.5
			C320.3,492.4,320.2,492.7,320,492.6z M326.4,498.7c-1.5-0.2-0.3-2.3,0.2-3.1c0.1-0.2,0.3-0.1,0.4,0.1
			C327.4,496.7,328,499,326.4,498.7z M328.3,489.1c-1.5,0.1-0.7-2.2-0.3-3.1c0.1-0.2,0.3-0.2,0.4,0
			C328.9,486.9,329.9,489.1,328.3,489.1z M332.3,493.6c-0.1,0.2-0.4,0.1-0.4-0.1c-0.3-1-0.7-3.3,0.8-3S332.9,492.8,332.3,493.6z
			 M338.5,499.2c-1-0.3-3.2-1.1-2.2-2.2s2.1,1,2.5,1.9C338.9,499,338.7,499.2,338.5,499.2z M336.6,486.3c-0.2,0-0.3-0.3-0.1-0.4
			c0.7-0.7,2.5-2.3,3-0.8C340,486.4,337.7,486.4,336.6,486.3z M342.6,493.7c-0.2,0.1-0.4-0.1-0.3-0.3c0.4-1,1.4-3.1,2.5-1.9
			C345.8,492.6,343.6,493.4,342.6,493.7z M351.3,496.9c-0.4,0.9-1.5,3.1-2.5,1.9c-1-1.1,1.3-1.9,2.2-2.2
			C351.2,496.5,351.4,496.7,351.3,496.9z M357,494.3c-0.1,0.2-0.3,0.1-0.4,0c-0.3-1-0.9-3.3,0.6-3.1
			C358.7,491.4,357.5,493.4,357,494.3z M360.8,488.2c-0.9,1.2-2.1-0.8-2.6-1.7c-0.1-0.2,0.1-0.4,0.2-0.3
			C359.4,486.4,361.7,487,360.8,488.2z M363.8,498.9c-1.3,0.6-1.5-1.7-1.5-2.7c0-0.2,0.2-0.3,0.4-0.2
			C363.4,496.5,365.2,498.2,363.8,498.9z M367.9,492.3c-0.8-0.6-2.6-2.2-1.2-2.9c1.3-0.7,1.6,1.7,1.6,2.7
			C368.3,492.3,368.1,492.4,367.9,492.3z M374.8,498c-0.5,0.9-1.9,2.8-2.8,1.5c-0.8-1.3,1.5-1.7,2.5-1.8
			C374.8,497.7,374.9,497.9,374.8,498z M383.3,524.4c0.1,0.5,0.1,1.3-0.2,2.1c-0.3,0.8-0.7,1.5-1,1.9s-0.9,0.7-1.6,0.7
			c-35.3-1.5-68.2-0.4-73.8-0.1c-0.6,0-1.1-0.2-1.4-0.6c-0.3-0.4-0.6-0.8-0.8-1.4c-0.2-0.7-0.3-1.4-0.4-1.9c0.6-0.2,1.5-0.5,2.1-0.7
			c0.8-0.2,1.7,0.1,3-0.1s2.7-1.4,3.7-1.2s2.8,1.9,5.8,1.7s4.8-1.7,5.5-2.2s1.7-0.7,3.5-0.5s3.7-0.7,4.7-0.8s2,0.5,3.1,0.6
			c1,0.1,1.9-0.3,2.6-0.3c0.6,0,3.2,1.3,4.3,1.7s2.3,2.3,4.3,2.4c2,0,3.5-1.1,4.2-1.4c0.8-0.3,1.7,0,3.9-0.5
			c2.2-0.5,3.2-1.5,3.7-2.1c1.2-1.5,2.8,0.6,5.7,0.6c3.2,0,5,1.3,7.5,1.9c2.5,0.6,5.7,0,7.3-0.5S382.2,523.6,383.3,524.4z
			 M334.4,556c-14.6-0.8-23.1-3.3-26.5-4.5c-1.1-0.4-2-1.3-2.4-2.4c-0.3-0.9-0.6-2-0.8-3.3c1,0.7,2.5,1.7,4.6,1.6
			c2.5-0.2,4-0.9,5.5-0.5c1.5,0.5,3.5,2,5.7,1.5c2.1-0.5,3.4-1,5-2.2c0.2-0.2,0.6-0.2,0.8,0c0.9,0.6,3.3,2.3,5.3,5.4
			C333.1,553.9,333.9,555.2,334.4,556z M382.9,546c-0.2,0.8-0.4,1.8-0.7,2.9c-0.3,1.1-1.2,2.1-2.3,2.5c-3.9,1.5-14.8,4.9-35.4,4.9
			c-2.2,0-4.2,0-6.2-0.1c0.3-0.3,0.7-0.7,1-1.2c1.5-2.2,4.1-7.5,6.2-8c2-0.5,6-0.1,8,0.8c2,0.9,3.7,2,5.8,1.7
			c3.2-0.4,3.5-3.7,5.8-3.8c0.9,0,1.4,0,3.2,0.9c1.7,0.7,4.2,0.9,6.1,0c2.4-1.2,2.2-1.6,3.6-1.6C379.4,545.1,380.4,546.1,382.9,546z
			"/>
	</g>
	<line class="st9" x1="564.7" y1="525.9" x2="415.9" y2="525.9"/>
	<line class="st9" x1="272.2" y1="525.9" x2="125.8" y2="525.9"/>
</g>
<g>
	<g>
		<path class="st3" d="M350.2,23c-3.3,0-6.3,4.3-8.2,10.9c-1.9-6.7-4.9-10.9-8.2-10.9c-5.8,0-10.5,14.2-10.5,31.7h4.7
			c0-16.3,2.6-29.4,5.9-29.4c3.2,0,5.9,12.2,5.9,27.2h4.7c0-15,2.6-27.2,5.9-27.2c3.2,0,5.9,13.2,5.9,29.4h4.7
			C360.7,37.2,356,23,350.2,23z"/>
	</g>
</g>
</svg>
