<?xml version="1.0" encoding="utf-8"?>
<!-- Generator: Adobe Illustrator 24.0.3, SVG Export Plug-In . SVG Version: 6.00 Build 0)  -->
<svg version="1.1" id="Layer_1" xmlns="http://www.w3.org/2000/svg" xmlns:xlink="http://www.w3.org/1999/xlink" x="0px" y="0px"
	 viewBox="0 0 685.4 632" style="enable-background:new 0 0 685.4 632;" xml:space="preserve">
<style type="text/css">
	.st0{fill:#FFFFFF;}
	.st1{fill:#FDBB20;}
	.st2{fill:#ED1C29;}
</style>
<g id="burger_x5F_DON_x27_T_USE">
</g>
<g id="TYPE">
</g>
<g id="METAL_RED">
</g>
<g id="METAL">
</g>
<g id="FRIES_1_">
</g>
<g id="FRIES-box">
	<g>
		<g>
			<path class="st0" d="M544.3,624.1H141.1c-18.4,0-33.3-14.9-33.3-33.3v-551c0-18.4,14.9-33.3,33.3-33.3h403.1
				c18.4,0,33.3,14.9,33.3,33.3v551.1C577.6,609.2,562.7,624.1,544.3,624.1z"/>
			<path class="st1" d="M544.3,629.1H141.1c-21.1,0-38.3-17.1-38.3-38.3v-551c0-21.1,17.2-38.3,38.3-38.3h403.1
				c21.1,0,38.3,17.2,38.3,38.3v551.1C582.6,612,565.5,629.1,544.3,629.1z M141.1,11.5c-15.6,0-28.3,12.7-28.3,28.3v551.1
				c0,15.6,12.7,28.3,28.3,28.3h403.1c15.6,0,28.3-12.7,28.3-28.3V39.8c0-15.6-12.7-28.3-28.3-28.3
				C544.2,11.5,141.1,11.5,141.1,11.5z"/>
		</g>
		<g>
			<g>
				<path class="st1" d="M355.7,64.5V290h-26.1V75.2c0-0.2,0-0.4,0-0.6s0-0.3,0-0.5c0.6-5.4,5.1-9.6,10.6-9.6H355.7z"/>
				<path class="st2" d="M342.8,101.4c12.9-6.2,12.9-17.7,12.9-17.7V50.9c0-2-1.6-3.5-3.4-3.2c-12.8,1.8-22.7,13.7-22.7,28v36.8
					C329.7,112.5,333.3,106,342.8,101.4z"/>
			</g>
			<g>
				<path class="st1" d="M401.8,95.6c0.2,1.4,0.3,2.8,0.3,4.2v-1.9C402.1,97.1,401.9,96.4,401.8,95.6z"/>
				<path class="st1" d="M402.1,99.8v177.3H376v-202c0-2,1.6-3.5,3.4-3.2c11.5,1.6,20.7,11.4,22.4,23.9
					C401.9,97,402.1,98.4,402.1,99.8z"/>
			</g>
			<g>
				<path class="st1" d="M448.1,122.4c0.2,1.4,0.3,2.8,0.3,4.2v-1.9C448.5,123.9,448.3,123.1,448.1,122.4z"/>
				<path class="st1" d="M448.5,126.6v149.2h-26.1v-174c0-2,1.6-3.5,3.4-3.2c11.5,1.6,20.7,11.4,22.4,23.9
					C448.3,123.8,448.5,125.1,448.5,126.6z"/>
			</g>
			<g>
				<path class="st1" d="M494.5,149.7c0.2,1.4,0.3,2.8,0.3,4.2V152C494.7,151.2,494.6,150.4,494.5,149.7z"/>
				<path class="st1" d="M494.7,153.9v89.2h-26.1v-114c0-2,1.6-3.5,3.4-3.2c11.5,1.6,20.7,11.4,22.4,23.9
					C494.6,151.1,494.7,152.4,494.7,153.9z"/>
			</g>
			<g>
				<path class="st1" d="M283.6,95.6c-0.2,1.4-0.3,2.8-0.3,4.2v-1.9C283.3,97.1,283.5,96.4,283.6,95.6z"/>
				<path class="st1" d="M283.3,99.8v177.3h26.1v-202c0-2-1.6-3.5-3.4-3.2c-11.5,1.6-20.7,11.4-22.4,23.9
					C283.5,97,283.3,98.4,283.3,99.8z"/>
			</g>
			<g>
				<path class="st1" d="M237.3,122.4c-0.2,1.4-0.3,2.8-0.3,4.2v-1.9C237,123.9,237.1,123.1,237.3,122.4z"/>
				<path class="st1" d="M237,126.6v149.2h26.1v-174c0-2-1.6-3.5-3.4-3.2c-11.5,1.6-20.7,11.4-22.4,23.9
					C237.1,123.8,237,125.1,237,126.6z"/>
			</g>
			<g>
				<path class="st1" d="M191,149.7c-0.2,1.4-0.3,2.8-0.3,4.2V152C190.7,151.2,190.8,150.4,191,149.7z"/>
				<path class="st1" d="M190.7,153.9v89.2h26.1v-114c0-2-1.6-3.5-3.4-3.2c-11.5,1.6-20.7,11.4-22.4,23.9
					C190.8,151.1,190.7,152.4,190.7,153.9z"/>
			</g>
		</g>
		<g>
			<path class="st2" d="M253,477.2c27.8-10.1,48.6-16.3,89.6-16.3s61.8,6.1,89.6,16.3l19.6-16.2c30.1-102.5,52.3-249.1,56.7-279.8
				h-40c-7.2,19.1-40.9,94-125.9,94s-118.7-74.9-125.9-94h-40c4.5,30.7,26.6,177.2,56.7,279.8L253,477.2z"/>
			<g>
				<path class="st1" d="M371.1,305.9c-11.5,0-21.8,15.4-28.5,39.4c-6.7-24-17-39.4-28.5-39.4c-20.3,0-36.7,51.1-36.7,114.2h16.3
					c0-58.5,9.1-106,20.4-106s20.4,43.8,20.4,97.8h16.2c0-54,9.1-97.8,20.4-97.8s20.4,47.5,20.4,106h16.3
					C407.7,357,391.3,305.9,371.1,305.9z"/>
			</g>
		</g>
		<g>
			<path d="M161.5,574.9v-25.1h-9.3v-3.1h22.6v3.1h-9.3v25.1H161.5z"/>
			<path d="M180.1,574.9v-28.1h4v12.4h14.2v-12.4h4v28.1h-4v-12.6h-14.2v12.6H180.1z"/>
			<path d="M209.5,574.9v-28.1h17.6v3.1h-13.6v9.5h12.3v2.9h-12.3v9.6h13.8v3.1L209.5,574.9L209.5,574.9z"/>
			<g>
				<path class="st2" d="M248.1,574.9v-53.6h21.4c4.5,0,8.2,0.6,11,1.8c2.8,1.2,4.9,2.9,6.2,5c1.3,2.1,2,4.4,2,7
					c0,2.2-0.6,4.3-1.8,6.3c-1.2,2-3.4,3.7-6.6,5c3.8,1.1,6.6,2.8,8.4,5.2c1.8,2.3,2.7,4.9,2.7,7.9c0,4.6-1.7,8.4-5.2,11.2
					s-8.5,4.3-15.2,4.3h-22.9L248.1,574.9L248.1,574.9z M267.5,530.6h-6v12.6h6c2,0,3.5-0.3,4.5-1c1-0.6,1.7-1.4,2.1-2.4
					s0.6-1.9,0.6-3C274.6,532.7,272.2,530.6,267.5,530.6z M267.8,551.7h-6.3v14h6.3c3.3,0,5.6-0.6,7-1.9c1.4-1.3,2-3,2-5.1
					c0-2-0.7-3.7-2-5C273.6,552.3,271.2,551.7,267.8,551.7z"/>
				<path class="st2" d="M271.1,575.4h-23.5V521h21.8c4.6,0,8.3,0.6,11.2,1.9c2.9,1.3,5.1,3,6.4,5.1c1.4,2.1,2.1,4.6,2.1,7.2
					c0,2.3-0.6,4.4-1.8,6.5c-1.1,1.9-3,3.4-5.8,4.7c3.3,1.1,5.8,2.8,7.5,5c1.9,2.4,2.8,5.1,2.8,8.1c0,4.8-1.8,8.6-5.3,11.6
					C283,573.9,277.8,575.4,271.1,575.4z M248.5,574.5h22.6c6.5,0,11.5-1.4,14.9-4.2c3.3-2.8,5-6.4,5-10.9c0-2.8-0.9-5.4-2.6-7.6
					c-1.7-2.2-4.5-3.9-8.2-5l-1.2-0.4l1.2-0.5c3.1-1.2,5.3-2.8,6.4-4.8c1.1-2,1.7-4,1.7-6.1c0-2.5-0.6-4.7-1.9-6.7s-3.3-3.6-6-4.8
					c-2.8-1.2-6.4-1.8-10.9-1.8h-20.9v52.8H248.5z M267.8,566.1h-6.7v-14.9h6.7c3.5,0,6,0.7,7.4,2.1c1.4,1.4,2.1,3.2,2.1,5.3
					c0,2.2-0.7,4.1-2.2,5.4C273.7,565.4,271.2,566.1,267.8,566.1z M261.9,565.2h5.9c3.2,0,5.4-0.6,6.7-1.8c1.3-1.2,1.9-2.8,1.9-4.8
					c0-1.9-0.6-3.5-1.8-4.7c-1.2-1.2-3.5-1.8-6.8-1.8h-5.9V565.2L261.9,565.2z M267.5,543.6h-6.4v-13.4h6.4c5,0,7.5,2.2,7.5,6.7
					c0,1.1-0.2,2.1-0.6,3.1c-0.4,1-1.2,1.9-2.3,2.6C271.1,543.3,269.5,543.6,267.5,543.6z M261.9,542.8h5.6c1.9,0,3.3-0.3,4.2-0.9
					c0.9-0.6,1.6-1.3,1.9-2.2c0.4-0.9,0.5-1.9,0.5-2.8c0-3.9-2.2-5.8-6.7-5.8h-5.6v11.7H261.9z"/>
			</g>
			<g>
				<path class="st2" d="M299.9,574.9v-53.6h36.3v10.5h-22.1v11.1h19.6v10h-19.6v11.5h22.4v10.5H299.9z"/>
				<path class="st2" d="M336.9,575.4h-37.5V521h37.3v11.3h-22.1v10.3h19.6v10.9h-19.6v10.7H337L336.9,575.4L336.9,575.4z
					 M300.3,574.5h35.8v-9.6h-22.4v-12.4h19.6v-9.1h-19.6v-12h22.1v-9.6h-35.5V574.5z"/>
			</g>
			<g>
				<path class="st2" d="M366.9,575c-6.8,0-12.1-1.5-16-4.5s-6.2-7.3-6.8-13h14c0.4,3.1,1.5,5.2,3.2,6.4s3.7,1.8,5.8,1.8
					c2.5,0,4.3-0.6,5.5-1.8s1.8-2.5,1.8-3.8c0-1.7-0.4-3.1-1.3-4.2c-0.9-1.2-2.4-2.1-4.7-2.6l-8.9-2.3c-4.6-1.2-8-3-10.3-5.5
					s-3.4-6-3.4-10.5c0-3.5,0.9-6.4,2.8-8.8c1.8-2.4,4.3-4.2,7.4-5.4s6.6-1.8,10.4-1.8c6.3,0,11.3,1.5,14.8,4.5s5.7,7.2,6.4,12.7
					h-13.8c-0.3-2.5-1.1-4.4-2.5-5.8c-1.3-1.4-3.1-2.1-5.4-2.1c-2,0-3.5,0.5-4.6,1.6s-1.7,2.4-1.7,4.1c0,3.1,1.8,5.2,5.4,6.1
					l8.4,2.2c4,1,7.1,2.3,9.3,4c2.2,1.6,3.7,3.5,4.6,5.6s1.3,4.4,1.3,6.9c0,5.2-1.9,9.2-5.6,12.2C379.1,573.6,373.7,575,366.9,575z"
					/>
				<path class="st2" d="M366.9,575.5c-6.8,0-12.3-1.6-16.3-4.6c-4-3.1-6.4-7.5-7-13.3l-0.1-0.5h14.9l0.1,0.4c0.4,3,1.4,5,3,6.1
					s3.5,1.7,5.6,1.7c2.4,0,4.1-0.6,5.2-1.7c1.1-1.1,1.6-2.3,1.6-3.5c0-1.5-0.4-2.9-1.2-4c-0.8-1.1-2.3-1.9-4.4-2.5l-8.9-2.3
					c-4.6-1.2-8.2-3.1-10.5-5.6c-2.4-2.5-3.6-6.2-3.6-10.8c0-3.5,1-6.6,2.8-9c1.9-2.4,4.4-4.3,7.6-5.5c3.1-1.2,6.7-1.9,10.6-1.9
					c6.4,0,11.5,1.5,15.1,4.6c3.6,3,5.8,7.4,6.6,13l0.1,0.5h-14.6v-0.4c-0.3-2.3-1.1-4.2-2.4-5.6c-1.2-1.3-3-2-5.1-2
					c-1.8,0-3.3,0.5-4.3,1.5s-1.5,2.2-1.5,3.8c0,3,1.6,4.8,5,5.7l8.4,2.2c4,1,7.2,2.4,9.4,4c2.2,1.7,3.8,3.6,4.7,5.7
					c0.9,2.1,1.3,4.5,1.3,7c0,5.3-2,9.5-5.8,12.5C379.2,573.9,373.8,575.5,366.9,575.5z M344.5,557.9c0.7,5.3,2.9,9.4,6.6,12.2
					c3.8,2.9,9.1,4.4,15.8,4.4s11.9-1.4,15.6-4.3c3.6-2.8,5.5-6.8,5.5-11.8c0-2.4-0.4-4.7-1.2-6.7c-0.8-2-2.3-3.8-4.4-5.4
					c-2.1-1.6-5.2-2.9-9.1-3.9l-8.4-2.2c-3.8-1-5.7-3.1-5.7-6.5c0-1.8,0.6-3.2,1.8-4.4c1.2-1.1,2.9-1.7,4.9-1.7
					c2.4,0,4.3,0.8,5.8,2.3c1.3,1.4,2.2,3.3,2.5,5.7h12.9c-0.8-5.1-2.9-9.1-6.2-12c-3.5-2.9-8.3-4.4-14.6-4.4
					c-3.8,0-7.2,0.6-10.2,1.8s-5.4,3-7.2,5.3s-2.7,5.1-2.7,8.5c0,4.4,1.1,7.8,3.3,10.2s5.6,4.2,10.1,5.4l8.9,2.3
					c2.3,0.6,4,1.5,4.9,2.8c0.9,1.2,1.4,2.8,1.4,4.5c0,1.4-0.6,2.8-1.9,4.1s-3.2,2-5.8,2c-2.3,0-4.3-0.6-6.1-1.9
					c-1.7-1.2-2.8-3.4-3.3-6.4h-13.2L344.5,557.9L344.5,557.9z"/>
			</g>
			<g>
				<path class="st2" d="M411.7,574.9v-43.1H396v-10.5h45.6v10.5h-15.7v43.1H411.7z"/>
				<path class="st2" d="M426.3,575.4h-15.1v-43.1h-15.7V521h46.4v11.3h-15.7v43.1H426.3z M412.1,574.5h13.4v-43.1h15.7v-9.6h-44.7
					v9.6h15.7v43.1H412.1z"/>
			</g>
			<path d="M454.9,546.8l7.6,14l7.7-14h4l-9.8,16.8v11.3h-4v-11.3l-9.8-16.8H454.9z"/>
			<path d="M478.6,574.9v-28.1h17.6v3.1h-13.6v9.5h12.3v2.9h-12.3v9.6h13.8v3.1L478.6,574.9L478.6,574.9z"/>
			<path d="M510.3,574.9v-25.1H501v-3.1h22.7v3.1h-9.3v25.1H510.3z"/>
		</g>
	</g>
</g>
</svg>
