<?xml version="1.0" encoding="utf-8"?>
<!-- Generator: Adobe Illustrator 24.0.3, SVG Export Plug-In . SVG Version: 6.00 Build 0)  -->
<svg version="1.1" id="Layer_1" xmlns="http://www.w3.org/2000/svg" xmlns:xlink="http://www.w3.org/1999/xlink" x="0px" y="0px"
	 viewBox="0 0 1674 711.3" style="enable-background:new 0 0 1674 711.3;" xml:space="preserve">
<style type="text/css">
	.st0{fill:none;}
	.st1{fill:#FDBB20;}
	.st2{fill:#FFFFFF;}
	.st3{fill:#2D2D2D;}
	.st4{fill:#FCBA1F;}
	.st5{enable-background:new    ;}
	.st6{fill:#DA1F26;}
	.st7{fill:#832F0A;}
	.st8{fill:#A5CF4F;}
	.st9{fill:#FADABA;}
	.st10{fill:#F39F52;}
	.st11{fill:#ED1C29;}
	.st12{fill:#972026;}
	.st13{opacity:0.51;fill:#8CAA45;enable-background:new    ;}
	.st14{fill:url(#SVGID_1_);}
	.st15{opacity:0.5;}
</style>
<pattern  y="673.1" width="208" height="208" patternUnits="userSpaceOnUse" id="SVGID_2_" viewBox="0 -208 208 208" style="overflow:visible;">
	<g>
		<rect y="-208" class="st0" width="208" height="208"/>
		<g>
			<rect y="-208" class="st0" width="208" height="208"/>
			<g>
				<rect y="-208" class="st0" width="208" height="208"/>
				<rect y="-208" class="st1" width="208" height="208"/>
				<path class="st2" d="M25.5-205.9c0.3-0.3,0.8-0.2,0.9,0.2c0.5,2.4,1.2,7.9-2.3,7C20.9-199.6,24-204,25.5-205.9z"/>
				<path class="st2" d="M30.9-155.2c0.4,0.2,0.3,0.8-0.1,1c-2.2,0.9-7.4,2.6-7.1-1C23.9-158.7,28.8-156.3,30.9-155.2z"/>
				<path class="st2" d="M7.5-170.4c0.4-0.2,0.8,0.2,0.7,0.6c-0.5,2.4-2.1,7.7-4.9,5.4C0.7-166.7,5.4-169.4,7.5-170.4z"/>
				<path class="st2" d="M6-188.5c0.1,0.4-0.4,0.8-0.8,0.6c-2.1-1.1-6.7-4.1-3.8-6.2C4.2-196.2,5.6-190.9,6-188.5z"/>
				<path class="st2" d="M14.8-102.1c0.4,0,0.7,0.5,0.4,0.9c-1.5,1.8-5.3,5.8-6.8,2.5C7.1-102,12.5-102.2,14.8-102.1z"/>
				<path class="st2" d="M4.1-132.1c0-0.4,0.5-0.7,0.8-0.5c2,1.4,6.3,4.8,3.1,6.5C5-124.4,4.3-129.7,4.1-132.1z"/>
				<path class="st2" d="M18.9-76.2c0.4,0,0.7,0.5,0.4,0.9c-1.5,1.8-5.3,5.8-6.8,2.5C11.2-76,16.6-76.2,18.9-76.2z"/>
				<path class="st2" d="M45-66.2c0.4-0.3,0.9,0,0.8,0.5c-0.2,2.4-0.9,7.9-4,6.1C38.9-61.3,43.1-64.8,45-66.2z"/>
				<path class="st2" d="M45.8-118.6c0.4-0.2,0.8,0.2,0.7,0.6c-0.5,2.4-2.1,7.7-4.9,5.4C39-114.8,43.7-117.5,45.8-118.6z"/>
				<path class="st2" d="M69.1-107.1c0.1,0.4-0.3,0.8-0.7,0.7c-2.2-0.8-7.2-3.1-4.7-5.6C66.2-114.5,68.3-109.4,69.1-107.1z"/>
				<path class="st2" d="M57.4-182.6c0.4-0.3,0.9,0,0.8,0.5c-0.2,2.4-0.9,7.9-4,6.1C51.2-177.7,55.4-181.2,57.4-182.6z"/>
				<path class="st2" d="M51-198.3c0.3,0.3,0,0.9-0.4,0.9c-2.4,0-7.8-0.4-6.3-3.7C45.8-204.2,49.5-200.2,51-198.3z"/>
				<path class="st2" d="M56.7-154.9c0.1,0.4-0.3,0.8-0.7,0.7c-2.2-0.8-7.2-3.1-4.7-5.6S55.9-157.2,56.7-154.9z"/>
				<path class="st2" d="M36.4-132.3c0.1,0.4-0.3,0.8-0.7,0.7c-2.2-0.8-7.2-3.1-4.7-5.6C33.5-139.7,35.6-134.6,36.4-132.3z"/>
				<path class="st2" d="M31.7-42.2c0.4-0.2,0.8,0.2,0.7,0.6c-0.5,2.4-2.1,7.7-4.9,5.4C24.9-38.4,29.6-41.1,31.7-42.2z"/>
				<path class="st2" d="M35.6-13c0.4,0.2,0.3,0.8-0.1,1c-2.3,0.7-7.5,2.1-7-1.5C28.9-17,33.6-14.3,35.6-13z"/>
				<path class="st2" d="M70.3-1.8C70.4-1.4,70-1,69.6-1.1c-2.2-0.8-7.2-3.1-4.7-5.6C67.4-9.1,69.5-4.1,70.3-1.8z"/>
				<path class="st2" d="M45.2-87.7c0.1,0.4-0.3,0.8-0.7,0.7c-2.2-0.8-7.2-3.1-4.7-5.6S44.4-90,45.2-87.7z"/>
				<path class="st2" d="M62.4-31.5c0.1,0.4-0.3,0.8-0.7,0.7c-2.2-0.8-7.2-3.1-4.7-5.6S61.6-33.8,62.4-31.5z"/>
				<path class="st2" d="M65.6-144.8c0.1-0.4,0.7-0.6,0.9-0.2c1.4,1.9,4.5,6.5,1,7.3C64.2-137.1,65.1-142.5,65.6-144.8z"/>
				<path class="st2" d="M11.5-48.6c0.4,0,0.7,0.5,0.4,0.9c-1.4,1.9-5,6.2-6.6,2.9C3.8-47.9,9.2-48.5,11.5-48.6z"/>
				<path class="st2" d="M14.5-17.5c-0.1,0.4-0.7,0.6-0.9,0.2c-1.4-1.9-4.4-6.6-1-7.3S15.1-19.8,14.5-17.5z"/>
				<path class="st2" d="M109.3-108.4c-0.4,0-0.7-0.5-0.4-0.9c1.5-1.8,5.3-5.8,6.8-2.5C117-108.6,111.6-108.4,109.3-108.4z"/>
				<path class="st2" d="M97.7-93.8c0.1,0.4-0.4,0.8-0.8,0.5c-2.1-1.2-6.7-4.2-3.7-6.2C96.1-101.4,97.3-96.1,97.7-93.8z"/>
				<path class="st2" d="M133.7-95.8c-0.4,0.1-0.8-0.4-0.6-0.8c1-2.2,3.7-7,5.9-4.1C141.2-97.9,136-96.3,133.7-95.8z"/>
				<path class="st2" d="M127.9-129.4c-0.4,0-0.7-0.5-0.4-0.9c1.5-1.8,5.3-5.8,6.8-2.5C135.7-129.6,130.3-129.4,127.9-129.4z"/>
				<path class="st2" d="M88.3-40.2c-0.3,0.3-0.8,0.2-0.9-0.2c-0.5-2.4-1.2-7.9,2.3-7C92.9-46.5,89.8-42,88.3-40.2z"/>
				<path class="st2" d="M70.9-80.2c-0.4,0.1-0.8-0.4-0.5-0.8c1.2-2,4.3-6.6,6.3-3.5C78.6-81.6,73.2-80.5,70.9-80.2z"/>
				<path class="st2" d="M112.3-75.6c-0.4,0.2-0.8-0.2-0.7-0.6c0.5-2.4,2.1-7.7,4.9-5.4C119.1-79.4,114.4-76.7,112.3-75.6z"/>
				<path class="st2" d="M88.1-69.1c-0.1-0.4,0.3-0.8,0.7-0.6c2.2,1,7.2,3.5,4.4,5.8C90.6-61.7,88.7-66.8,88.1-69.1z"/>
				<path class="st2" d="M72.5-54.5c0.2,0.4-0.1,0.9-0.5,0.8c-2.4-0.2-7.9-1.1-6-4.2C67.8-60.8,71.2-56.5,72.5-54.5z"/>
				<path class="st2" d="M145.3-67.7c0.2,0.4-0.1,0.9-0.5,0.8c-2.3-0.4-7.7-1.6-5.6-4.6C141.1-74.4,144.1-69.8,145.3-67.7z"/>
				<path class="st2" d="M156.4-122.3c0.2,0.4-0.1,0.9-0.5,0.8c-2.3-0.4-7.7-1.6-5.6-4.6C152.2-129,155.2-124.4,156.4-122.3z"/>
				<path class="st2" d="M200.5-156.7c0.2,0.4-0.1,0.9-0.5,0.8c-2.3-0.4-7.7-1.6-5.6-4.6C196.3-163.4,199.3-158.8,200.5-156.7z"/>
				<path class="st2" d="M109.4-57.1c-0.1-0.4,0.3-0.8,0.7-0.7c2.2,0.8,7.2,3.1,4.7,5.6C112.3-49.8,110.2-54.9,109.4-57.1z"/>
				<path class="st2" d="M189.5-133.5c-0.3-0.3-0.1-0.9,0.3-0.9c2.4-0.3,7.8-0.5,6.6,2.9C195.3-128.2,191.2-131.8,189.5-133.5z"/>
				<path class="st2" d="M198.6-110.8c-0.3-0.3-0.1-0.9,0.3-0.9c2.4-0.3,7.8-0.5,6.6,2.9C204.4-105.5,200.3-109.2,198.6-110.8z"/>
				<path class="st2" d="M166.3-105.6c-0.4-0.1-0.5-0.7-0.1-1c2-1.3,6.7-4.1,7.2-0.5C173.8-103.6,168.6-104.9,166.3-105.6z"/>
				<path class="st2" d="M189.5-78c-0.1,0.4-0.7,0.6-0.9,0.2c-1.4-1.9-4.5-6.5-1-7.3C190.9-85.8,190-80.4,189.5-78z"/>
				<path class="st2" d="M156.3-89.6c0.2-0.4,0.7-0.4,0.9,0c1.1,2.2,3.2,7.3-0.4,7.3C153.5-82.2,155.4-87.4,156.3-89.6z"/>
				<path class="st2" d="M100.9-7.3c-0.4,0.3-0.9,0-0.8-0.5c0.2-2.4,0.9-7.9,4-6.1C107-12.2,102.8-8.7,100.9-7.3z"/>
				<path class="st2" d="M101.3-141c-0.2,0.4-0.8,0.4-1,0c-1-2.2-2.9-7.4,0.8-7.2C104.6-148,102.4-143.1,101.3-141z"/>
				<path class="st2" d="M128.5-150.2c0.1,0.4-0.4,0.8-0.8,0.6c-2.1-1.1-6.9-3.8-4-6C126.5-157.7,128-152.5,128.5-150.2z"/>
				<path class="st2" d="M85.8-120c-0.4,0-0.7-0.5-0.4-0.9c1.5-1.8,5.3-5.8,6.8-2.5C93.5-120.2,88.1-119.9,85.8-120z"/>
				<path class="st2" d="M93.8-169.9c-0.4,0-0.7-0.5-0.4-0.9c1.5-1.8,5.3-5.8,6.8-2.5C101.6-170,96.2-169.8,93.8-169.9z"/>
				<path class="st2" d="M76.5-164.2c-0.1-0.4,0.4-0.7,0.8-0.5c2.1,1.2,6.6,4.3,3.6,6.3C78-156.6,76.9-161.9,76.5-164.2z"/>
				<path class="st2" d="M183.1-28.5c-0.4,0.2-0.8-0.2-0.7-0.6c0.5-2.4,2.1-7.7,4.9-5.4C189.9-32.3,185.2-29.6,183.1-28.5z"/>
				<path class="st2" d="M167.8-51.9c0.2,0.4-0.1,0.9-0.5,0.8c-2.3-0.4-7.7-1.6-5.6-4.6C163.6-58.6,166.6-54,167.8-51.9z"/>
				<path class="st2" d="M204.6-6.5c0.2,0.4-0.1,0.9-0.5,0.8c-2.3-0.4-7.7-1.6-5.6-4.6C200.4-13.1,203.4-8.5,204.6-6.5z"/>
				<path class="st2" d="M75.4-19.6c-0.4-0.3-0.3-0.8,0.1-0.9c2.3-0.7,7.6-1.9,7.1,1.7C82.1-15.5,77.4-18.3,75.4-19.6z"/>
				<path class="st2" d="M133.2-7.6c-0.1-0.4,0.3-0.8,0.7-0.7c2.2,0.8,7.2,3.1,4.7,5.6C136-0.2,133.9-5.3,133.2-7.6z"/>
				<path class="st2" d="M192.9-56.3c-0.3-0.3-0.1-0.9,0.3-0.9c2.4-0.3,7.8-0.5,6.6,2.9C198.7-51,194.6-54.6,192.9-56.3z"/>
				<path class="st2" d="M138.5-42.8c-0.3-0.3-0.1-0.9,0.3-0.9c2.4-0.3,7.8-0.5,6.6,2.9C144.3-37.5,140.2-41.1,138.5-42.8z"/>
				<path class="st2" d="M120.1-25.2c-0.1,0.4-0.7,0.6-0.9,0.2c-1.4-1.9-4.5-6.5-1-7.3C121.5-33,120.6-27.6,120.1-25.2z"/>
				<path class="st2" d="M79.4-190.3c-0.4,0.2-0.8-0.2-0.7-0.6c0.5-2.4,2.1-7.7,4.9-5.4C86.2-194.1,81.5-191.4,79.4-190.3z"/>
				<path class="st2" d="M163.8-14.7c-0.1,0.4-0.7,0.6-0.9,0.2c-1.4-1.9-4.5-6.5-1-7.3C165.2-22.5,164.3-17,163.8-14.7z"/>
				<path class="st2" d="M168.9-139.7c-0.4,0-0.7-0.5-0.4-0.9c1.5-1.8,5.3-5.8,6.8-2.5C176.7-139.9,171.3-139.7,168.9-139.7z"/>
				<path class="st2" d="M127-174.7c-0.4-0.3-0.3-0.8,0.1-1c2.3-0.7,7.6-2,7,1.6C133.6-170.5,129-173.3,127-174.7z"/>
				<path class="st2" d="M113.3-194.4c-0.4,0-0.7-0.5-0.4-0.9c1.4-1.9,5-6.2,6.6-2.9C121.1-195.1,115.7-194.5,113.3-194.4z"/>
				<path class="st2" d="M27.8-175.1c-0.4,0-0.7-0.5-0.4-0.9c1.4-1.9,5-6.2,6.6-2.9C35.5-175.8,30.2-175.2,27.8-175.1z"/>
				<path class="st2" d="M157.5-157.8c0,0.4-0.5,0.7-0.9,0.4c-1.8-1.6-5.6-5.6-2.3-7C157.6-165.7,157.6-160.2,157.5-157.8z"/>
				<path class="st2" d="M149.5-194.9c0.1-0.4,0.7-0.6,0.9-0.2c1.4,1.9,4.4,6.6,1,7.3C148.1-187.1,149-192.6,149.5-194.9z"/>
				<path class="st2" d="M174.9-175.6c-0.3,0.3-0.8,0.1-0.9-0.3c-0.2-2.4-0.3-8,3-6.7C180.2-181.4,176.6-177.3,174.9-175.6z"/>
				<path class="st2" d="M195.5-195.5c0,0.4-0.5,0.7-0.9,0.4c-1.8-1.6-5.6-5.6-2.3-7C195.5-203.4,195.6-197.9,195.5-195.5z"/>
			</g>
		</g>
	</g>
</pattern>
<g>
	<g>
		<path class="st3" d="M1138.1,89.4v575.1H565.2V89.4H804c0-26.3,21.3-47.6,47.6-47.6s47.6,21.3,47.6,47.6H1138.1z"/>
		<path class="st4" d="M1141.8,668.3H561.4V85.6h238.9C802.2,59,824.5,38,851.5,38s49.3,21,51.2,47.6h239L1141.8,668.3L1141.8,668.3
			z M568.9,660.7h565.4V93.2H895.4v-3.8c0-24.2-19.7-43.8-43.8-43.8c-24.2,0-43.8,19.7-43.8,43.8v3.8H568.9V660.7z"/>
	</g>
	<rect x="862.5" y="205.3" class="st0" width="73.9" height="44.8"/>
	<g class="st5">
		<path class="st1" d="M874.6,242v-31.9h-7.3v-3.3h18.8v3.3h-7.3V242H874.6z"/>
	</g>
	<g class="st5">
		<path class="st1" d="M891.6,242v-35.2h4.2v15.9h10.3v-15.9h4.2V242h-4.2v-16h-10.3v16H891.6z"/>
	</g>
	<g class="st5">
		<path class="st1" d="M915.8,242v-35.2h14.5v3.3H920v12.5h9.3v3.2H920v12.9h10.5v3.3H915.8z"/>
	</g>
	<rect x="809.8" y="431.4" class="st0" width="75" height="41.7"/>
	<g class="st5">
		<path class="st1" d="M823.1,468.3v-14.2l-7.9-21.1h4.4l5.8,16.9l5.8-16.9h4l-7.9,21.1v14.1h-4.2V468.3z"/>
	</g>
	<g class="st5">
		<path class="st1" d="M840.4,468.3v-35.2h14.5v3.3h-10.3v12.5h9.3v3.2h-9.3V465h10.5v3.3L840.4,468.3L840.4,468.3z"/>
	</g>
	<g class="st5">
		<path class="st1" d="M867.7,468.3v-31.9h-7.3v-3.3h18.8v3.3h-7.3v31.9H867.7z"/>
	</g>
	<g>
		<g>
			<path class="st6" d="M706.9,443.1c-10.3,10.5-21.4,16.8-33.3,16.8c-23.8,0-36.8-17.3-36.8-34.1c0-14.6,10.3-28.4,32.2-28.4
				c11.4,0,21.4,8.7,31.6,18.9c19.2-37,39.2-96.5,59.2-149.5c8.1-21.6,23.6-39.3,32.5-34.8c4.1,2.1,6.6,5.3,7.5,7.5
				c-5.4,9.5-22.4,60-36.5,97.3c3.8-1.6,9.7-1.1,16.8,1.4c23.8-21.1,40.6-62.5,40.6-95.2c0-20.8-6.8-38.1-22.7-45.2
				c-3-0.5-4.9-0.5-7.3-0.5c-50,0-84.4,75.7-84.4,127.9c0,14.9,5.2,25.3,11.4,33.9c-1.6,3.8-8.5,8.8-12.8,8.8
				c-14.1,0-32.6-12-32.6-42.3c0-55.7,47.2-140.5,111.5-140.5c47.6,0,65.4,24.3,65.4,57.6c0,33-30.3,83.3-57.3,100.9
				c10.5,7,17,19.2,17,36.5c0,43.5-33.5,79.8-69.8,79.8C727.4,459.9,716.6,452.6,706.9,443.1z M693.9,428.8
				c-9.2-11.1-17-21.4-23.5-23.3c-5.9,2.7-11.1,12.7-11.1,23c0,9.5,4.1,18.7,14.6,22.4C680.4,448,687.1,440.1,693.9,428.8z
				 M788.5,366.6c0-7-1.6-13.5-5.4-18.4c-12.2,5.4-21.1,4.3-24.6,0.8c-1.3,3.5-2.4,6.8-3.8,9.7c-11.6,28.4-24.1,54.3-38.1,73
				c7,6.2,14.6,11.6,23.3,14.3C761.2,438,788.5,395.8,788.5,366.6z"/>
			<path class="st6" d="M947.5,289.3c2.7-0.5,5.7,0.3,5.7,3.2c0,10.8-38.7,121.1-90.6,121.1c-21.1,0-38.4-12.4-38.4-31.1
				c0-27.3,15.4-72.2,36.5-96c7-8.1,17.4-24.3,29.3-20.4c13.9,4.5,28.1,13.4,28.1,33.1c0,22.7-27.6,77.6-60.8,77.6
				c-2.4,0-4.9-0.3-7.6-1.1c-0.3,3-0.5,5.7-0.5,8.1c0,8.7,3.2,14.3,11.6,17.6C885.6,396.1,927.3,339,947.5,289.3z M851.3,368.2
				c24.3-4.1,48.1-59.2,48.1-78.9c0-3-0.5-5.1-1.9-6.2C884.8,283.9,858.9,335,851.3,368.2z"/>
			<path class="st6" d="M933.2,413.6c-20.6,0-37.5-15.9-37.5-26.4c0-6.5,7.5-4.7,13.4-5.3c4.9,8.7,15.7,16.8,20.8,20
				c8.7-8.1,16.5-36.2,18.4-93.5c0.3-6.8-4.1-7.8-4.1-11.1c0-0.5,0.3-1.3,0.5-1.9c17.6-44.6,20.8-67.5,34.9-67.5
				c10,0,21.4,17.8,24.1,29.1c-16,7.3-43,19.2-43,35.1c0,11.1,8.9,39.5,8.7,64.9c0,8.9-2.1,10.2-4.2,17.5
				c15.4-20,31.8-46.4,43.7-74.5c1.9-0.3,2.2,0.3,2.2,1.6C1011.1,315.2,975.1,413.6,933.2,413.6z"/>
			<path class="st6" d="M977.8,392.3c0-15.1,19.4-67.7,35.7-107.1c-5.4-0.3-10.1-0.4-14.3-0.7c0,0-7.5-6.7-7.5-7.5
				c0-2.7,1.1-5.4,4.9-5.6c4.3-0.3,16.1,5.3,20.7,5.3c6.5-15.4,13.8-35.1,16.8-41.1c15.1-0.5,19.9,6,19.9,12.2
				c0,4.3-5,12.5-9.4,21.7c6.5,0,8.6-0.3,14.5,0.2c0,0,5.3,1.5,4.4,10.5c-0.5,4.3-7.6,5.9-23.8,6.5c-9.2,22.7-19.7,50.3-32.7,86
				c-2.7,7.8-4.1,13.8-4.1,18.1c-0.3,4.9-1.1,5.7,1.1,7.8c10.8-5.7,18-24.1,25.3-37c2.2-0.3,8.4,1.6,8.5,10
				c0.1,11.6-21.1,42.2-37.3,42.2C989.5,413.6,977.8,404.4,977.8,392.3z"/>
		</g>
		<g>
			<path class="st1" d="M699.4,435.6c-10.3,10.5-21.4,16.8-33.3,16.8c-23.8,0-36.8-17.3-36.8-34.1c0-14.6,10.3-28.4,32.2-28.4
				c11.4,0,21.4,8.7,31.6,18.9c19.2-37,39.2-96.5,59.2-149.5c8.1-21.6,17.6-30.6,28.1-30.6c3.8,0,7.8,1.1,11.9,3.2
				c-5.4,9.5-22.4,60-36.5,97.3c3.8-1.6,9.7-1.1,16.8,1.4c23.8-21.1,40.6-62.5,40.6-95.2c0-20.8-6.8-38.1-22.7-45.2
				c-3-0.5-4.9-0.5-7.3-0.5c-50,0-84.4,75.7-84.4,127.9c0,14.9,3,27.8,9.2,36.5c-1.6,3.8-6.2,6.2-10.5,6.2
				c-14.1,0-25.4-13.5-25.4-43.8c0-55.7,40-139,104.4-139c47.6,0,65.4,24.3,65.4,57.6c0,33-30.3,83.3-57.3,100.9
				c10.5,7,17,19.2,17,36.5c0,43.5-33.5,79.8-69.8,79.8C719.9,452.4,709.1,445.1,699.4,435.6z M686.4,421.3
				c-9.2-11.1-17-21.4-23.5-23.3c-5.9,2.7-11.1,12.7-11.1,23c0,9.5,4.1,18.7,14.6,22.4C672.9,440.4,679.6,432.6,686.4,421.3z
				 M781,359.1c0-7-1.6-13.5-5.4-18.4c-12.2,5.4-21.1,4.3-24.6,0.8c-1.3,3.5-2.4,6.8-3.8,9.7c-11.6,28.4-24.1,54.3-38.1,73
				c7,6.2,14.6,11.6,23.3,14.3C753.7,430.4,781,388.3,781,359.1z"/>
			<path class="st1" d="M940,281.8c2.7-0.5,5.7,0.3,5.7,3.2c0,10.8-38.7,121.1-90.6,121.1c-21.1,0-38.4-12.4-38.4-31.1
				c0-27.3,15.4-72.2,36.5-96c7-8.1,15.9-13.8,28.4-13.8c13.8,0,28.9,6.8,28.9,26.5c0,22.7-27.6,77.6-60.8,77.6
				c-2.4,0-4.9-0.3-7.6-1.1c-0.3,3-0.5,5.7-0.5,8.1c0,8.7,3.2,14.3,11.6,17.6C878.1,388.6,919.8,331.4,940,281.8z M843.8,360.7
				c24.3-4.1,48.1-59.2,48.1-78.9c0-3-0.5-5.1-1.9-6.2C877.3,276.3,851.3,327.4,843.8,360.7z"/>
			<path class="st1" d="M925.7,406.1c-20.6,0-30.3-11.6-30.3-22.2c0-6.5,3.2-11.9,9.2-12.4c4.9,8.7,12.7,19.7,17.8,23
				c8.7-8.1,16.5-36.2,18.4-93.5c0.3-6.8-4.1-7.8-4.1-11.1c0-0.5,0.3-1.3,0.5-1.9c17.6-44.6,25.7-60.3,39.7-60.3
				c10,0,16.5,10.5,19.2,21.9c-16,7.3-43,19.2-43,35.1c0,11.1,8.9,39.5,8.7,64.9c0,8.9-1.1,17.6-3.2,24.9
				c15.4-20,30.8-53.8,42.7-81.9c1.9-0.3,2.2,0.3,2.2,1.6C1003.6,307.7,967.6,406.1,925.7,406.1z"/>
			<path class="st1" d="M970.3,384.8c0-15.1,19.5-67.1,35.7-106.5c-5.4-0.3-10.3-0.8-14.3-1.3c-0.3-1.1-0.3-1.4-0.3-2.2
				c0-2.7,1.1-5.1,4.9-5.4c4.3-0.3,8.9-0.3,13.5-0.3c6.5-15.4,11.9-28.1,14.9-34.1c15.1-0.5,20.3,4.3,20.3,10.5
				c0,4.3-4.3,14.3-8.6,23.5c6.5,0,12.7,0.3,18.7,0.3c0.8,1.4,1.1,2.4,1.1,3.2c0,4.3-7.6,5.9-23.8,6.5c-9.2,22.7-19.7,50.3-32.7,86
				c-2.7,7.8-4.1,13.8-4.1,18.1c-0.3,4.9,1.1,7.8,3.2,10c10.8-5.7,20.6-19.2,27.9-32.2c2.2-0.3,3.8,0.3,3.8,3
				c0,11.6-21.1,42.2-37.3,42.2C982,406.1,970.3,396.9,970.3,384.8z"/>
		</g>
	</g>
	<g>
		<g>
			<path class="st7" d="M813.5,553.9c-0.1-1.2,0-3,1.1-5c0.2-0.4,0.5-0.7,0.9-0.8c2.9-1.1,16.8-5.6,37.7-5.6c21,0,35.2,4.7,38.3,5.8
				c0.4,0.2,0.8,0.5,0.9,0.9c0.3,1,0.6,2.8-0.5,4.7l0,0c-1.4,0.3-1.7,0.2-2.6,0.2c-4.6-0.2-2.6-1.2-4.7-1.7
				c-1.6-0.4-2.4,0.1-4.4,0.1c-2.9,0-2.4-1-2.1-2c0.3-1.1-0.5-2-2.9-0.9c-3.2,1.5-5.6,1.5-8.7,1.4c-2-0.1-3.7-1.5-8.1-0.9
				c-3.8,0.5-5.9,1.5-7.3,1.7c-0.3,0-0.7,0-1,0c-1.3-0.2-2.3-1.2-4.7-0.9c-2.6,0.3-3.8,0.7-6,1c-2.7,0.4-5.2-1.7-7.7-1.7
				c-1.6,0-3.2,0.7-4.9,1.7c-1.2,0.7-2.5,1.3-5.2,1.5c-1.5,0.1-2-0.3-3.9,0.1c-1.6,0.3-2.7,0.9-3.5,1.5
				C813.9,554.9,813.5,554.4,813.5,553.9z M813.4,574.4c3.4-0.2,4.7,1.2,6.2,1.5c1.7,0.3,2.1,0.2,3.7,0.2c1.7,0,4.8,0.7,13.5,1
				c8.8,0.3,12.7-1.5,21.3-2.5c5.3-0.6,9.9,1.1,11.5,1.7c0.4,0.2,0.8,0.2,1.2,0c1-0.4,2.9-1.2,4.2-1.5c1.9-0.4,3.4,0.6,4.4,0.8
				s1.6-0.6,2.7-0.7c2.2-0.2,2.9,1.2,4.7,1.2c1.9,0,2.3-0.6,3.1-0.8s1.7,0,2.5,0.3c0.5-0.2,0.8-0.7,0.8-1.3c0-2.2-0.7-3.9-1.3-4.8
				c-0.4-0.6-1-1.1-1.8-1.1c-21.4-1.4-66.5-0.5-74-0.3c-0.7,0-1.4,0.4-1.7,1c-1.2,2-1.2,3.8-1.1,4.8
				C813.4,574.2,813.4,574.4,813.4,574.4z"/>
			<path class="st1" d="M860.5,580.6c-11,0.8-12.9,16.1-16,11s-5.6-8.8-13.7-10.2c-3.8-0.6-5.5-2.1-5.4-2.5c0.1-0.9,2.2-1,5.1-0.5
				c13.7,2.1,19.4-1.1,26-1.7c4.3-0.4,8.3-0.2,11.4,0.6c0.2,0,0.2,0.3,0,0.3C863.3,578.1,862.9,580.4,860.5,580.6z"/>
			<path class="st8" d="M888.1,581.4L888.1,581.4L888.1,581.4z M811.4,581.2c-0.1,0.3,0.1,0.7,0.4,0.6c3.3-0.6,2.9,1.4,5.1,2
				c1.2,0.3,3.2-0.1,4.5-0.3c4.4-0.8,3.9,1.5,7.2,1.4c1.6,0,3-0.6,3.6-0.9c0.3-0.1,0.3-0.5,0-0.6c-2.3-0.8-9.1-0.9-9.3-4.9
				c0-0.3-0.3-0.5-0.6-0.5c-1.3,0.2-3.3,0.3-6.1-1.5c-2.6-1.6-5-0.2-5.7,0.3c-0.1,0.1-0.1,0.2,0.1,0.2c1.7,0,3.7,1.1,2.3,2.1
				C812,579.9,811.6,580.7,811.4,581.2z M876.5,576.6c-2.3-0.4-4.4,1.5-5.5,2c-1,0.5-2.4,0.4-3,0.4c-0.1,0-0.2,0.1-0.1,0.2
				c0.4,0.3,1.1,0.8,2.4,1c1.6,0.2,3.6-0.3,4.4-0.3c2.4-0.1,2.6,3.5,6.3,3.6c3,0.1,3.5-3.5,9-1.1c3.3,1.4,5.8-1.5,6.7-2.8
				c0.1-0.2,0-0.5-0.3-0.4c-3.6,0.9-3.5-1.9-6-1.9c-1.8-0.1-1.9,2.1-6.8-0.1c-1.4-0.6-1.7,0.4-3.6,0.5
				C878.5,577.7,878.8,577,876.5,576.6z M876.5,551c0.1-0.2-0.1-0.3-0.2-0.2c-2,1.1-7.1,2.1-9.8,1.9c-1.6-0.1-3.5-1.4-5.5-1.5
				c-3.5-0.1-6.2,1.2-9,2.3c-0.1,0.1-0.1,0.3,0.1,0.3c0.7,0,1.8,0,2.8,0.4c1.7,0.6,3.9,2.5,6.6,2.7s3.9-0.4,4.8-0.6
				c1.7-0.3,2.5,0.6,3.9,1.4c2.3,1.4,7.1,1.1,9.1,0.1c1.8-0.9,3.3-3.2,4.4-3.9c0.2-0.1,0-0.4-0.1-0.3c-2.3,0.4-4.8,0.5-6.4-0.2
				C875.7,552.7,876.2,551.7,876.5,551z M831.3,551.4c-1.9,0-3.7,2-4.9,2.5c-0.9,0.4-2.3,0.5-2.9,0.6c-0.1,0-0.1,0.1,0,0.2
				c1.5,1,3.4,2,5,1.7c5-0.9,6.8,1.8,8.8,2c3,0.2,4.2-1.1,6.4-0.3c1.5,0.5,2.4,0.2,3.6-0.8c1.9-1.6,2.6-0.9,4.5-1.7
				c0.2-0.1,0.2-0.5-0.1-0.5c-0.5-0.1-1.1-0.3-1.7-0.6c-1.2-0.8-2.2-1.8-4.4-1.8c-2.5,0-2.2,0.9-7.3,1
				C835.6,553.6,834.2,551.2,831.3,551.4z M819.9,560c0.7-0.8,1.9-2.2,4.3-2.7c0.2,0,0.3-0.3,0.1-0.4c-1-0.7-3.5-2.4-6.1-2.1
				c-4.1,0.6-3.8,4-7.1,3.7c-0.8,0-1.3-0.2-1.7-0.5c-0.2-0.1-0.4,0.1-0.4,0.3c0.4,1.2,1.3,3.6,3.7,3.4c1.7-0.1,2.1-0.9,3.3-1.1
				C817.2,560.4,818.2,561.7,819.9,560z M883,560.7c3.4,0.1,4.7-2.1,9.2-0.3c2.1,0.8,4.7,0,5.5-1.5c0.1-0.1-0.1-0.3-0.2-0.3
				c-1,0.5-3.8,1-3.3-1.2c0.2-0.8,0-1.7-1.8-1.5c-1.5,0.1-2.1,0.4-3.2,0.2c-1-0.2-1.6-1-3.8-1c-3,0-3.5,4-7.6,4
				c-0.2,0-0.2,0.2-0.1,0.3C878.6,559.9,880.4,560.7,883,560.7z"/>
			<g>
				<path class="st9" d="M833.7,558.4c0.1,0,0.1,0.1,0,0.2c-1.7,0.5-2.9,2.8-5.5,2.8c-3.2,0-4.1-1.5-6.1-1.8c-0.1,0-0.1-0.1,0-0.2
					c0.6-0.1,1.5-0.4,2.3-0.7c1.2-0.5,2.7-1.4,4.4-1.4C830.7,557.4,833,558.2,833.7,558.4z M866.6,557.4c-8.7,2.6-8.3-2.2-13.4-1.4
					c-0.8,0.1-1.9,1.3-3.8,1.4c-0.9,0-1.1,0.6-1.2,0.8c-0.3,0.8,1.5,0.4,4.3,1.9c1.4,0.8,2.1,2.1,3.4,2.2c1.8,0.1,3-1.6,4.2-1.7
					c1.4-0.1,1.9,0.1,3.3-0.1C865.5,560.1,868.4,556.9,866.6,557.4z M857,583.4c0.5,0.3,4-0.2,6.1,0.7s2.9,1.9,4.4,2
					c3,0.2,3.2-3.1,5.8-3.7c2.4-0.5,1.4-1.6-1.9-0.8c-3.4,0.9-3.4-1.7-6-1.5c-1.6,0.1-1.7,2-5.6,1.9
					C857.6,582,856.4,583.1,857,583.4z"/>
			</g>
			<path class="st10" d="M883.4,527.7c-8.1-5.2-17.9-9.1-30.1-9.1s-22,3.9-30.1,9.1c-9.4,6.1-12.8,15.7-9.6,19.4
				c0.2,0.2,0.5,0.3,0.7,0.2c8.7-3.4,22.7-6.9,39-6.7c16.3-0.2,30.3,3.3,39.1,6.8c0.2,0.1,0.4,0,0.5-0.1
				C896.3,543.6,893,533.7,883.4,527.7z M859.4,522.4c1.4,0.4,0,2.3-0.6,3.1c-0.1,0.1-0.4,0.1-0.4-0.1
				C858.2,524.4,857.9,522,859.4,522.4z M824.2,539.1c-0.2,0.1-0.4,0-0.3-0.2c0.2-1,0.7-3.3,2-2.4
				C827,537.2,825.1,538.5,824.2,539.1z M829.3,530.6c-1-0.1-3.4-0.6-2.5-1.9c0.8-1.3,2.2,0.7,2.7,1.5
				C829.6,530.4,829.5,530.7,829.3,530.6z M835.7,536.7c-1.5-0.2-0.3-2.3,0.2-3.1c0.1-0.2,0.3-0.1,0.4,0.1
				C836.7,534.7,837.3,537,835.7,536.7z M837.6,527.1c-1.5,0.1-0.7-2.2-0.3-3.1c0.1-0.2,0.3-0.2,0.4,0
				C838.2,524.9,839.2,527.1,837.6,527.1z M841.6,531.6c-0.1,0.2-0.4,0.1-0.4-0.1c-0.3-1-0.7-3.3,0.8-3
				C843.5,528.8,842.2,530.8,841.6,531.6z M847.8,537.2c-1-0.3-3.2-1.1-2.2-2.2c1-1.1,2.1,1,2.5,1.9
				C848.2,537,848,537.2,847.8,537.2z M845.9,524.3c-0.2,0-0.3-0.3-0.1-0.4c0.7-0.7,2.5-2.3,3-0.8
				C849.3,524.4,847,524.4,845.9,524.3z M851.9,531.7c-0.2,0.1-0.4-0.1-0.3-0.3c0.4-1,1.4-3.1,2.5-1.9
				C855.1,530.6,852.9,531.4,851.9,531.7z M860.6,534.9c-0.4,0.9-1.5,3.1-2.5,1.9c-1-1.1,1.3-1.9,2.2-2.2
				C860.5,534.5,860.7,534.7,860.6,534.9z M866.3,532.3c-0.1,0.2-0.3,0.1-0.4,0c-0.3-1-0.9-3.3,0.6-3.1
				C868,529.4,866.8,531.4,866.3,532.3z M870.1,526.2c-0.9,1.2-2.1-0.8-2.6-1.7c-0.1-0.2,0.1-0.4,0.2-0.3
				C868.7,524.4,871,525,870.1,526.2z M873.1,536.9c-1.3,0.6-1.5-1.7-1.5-2.7c0-0.2,0.2-0.3,0.4-0.2
				C872.7,534.5,874.5,536.2,873.1,536.9z M877.2,530.3c-0.8-0.6-2.6-2.2-1.2-2.9c1.3-0.7,1.6,1.7,1.6,2.7
				C877.6,530.3,877.4,530.4,877.2,530.3z M884.1,536c-0.5,0.9-1.9,2.8-2.8,1.5c-0.8-1.3,1.5-1.7,2.5-1.8
				C884.1,535.7,884.2,535.9,884.1,536z M892.6,562.4c0.1,0.5,0.1,1.3-0.2,2.1s-0.7,1.5-1,1.9s-0.9,0.7-1.6,0.7
				c-35.3-1.5-68.2-0.4-73.8-0.1c-0.6,0-1.1-0.2-1.4-0.6c-0.3-0.4-0.6-0.8-0.8-1.4c-0.2-0.7-0.3-1.4-0.4-1.9
				c0.6-0.2,1.5-0.5,2.1-0.7c0.8-0.2,1.7,0.1,3-0.1s2.7-1.4,3.7-1.2s2.8,1.9,5.8,1.7s4.8-1.7,5.5-2.2s1.7-0.7,3.5-0.5
				s3.7-0.7,4.7-0.8s2,0.5,3.1,0.6c1,0.1,1.9-0.3,2.6-0.3c0.6,0,3.2,1.3,4.3,1.7s2.3,2.3,4.3,2.4c2,0,3.5-1.1,4.2-1.4
				c0.8-0.3,1.7,0,3.9-0.5s3.2-1.5,3.7-2.1c1.2-1.5,2.8,0.6,5.7,0.6c3.2,0,5,1.3,7.5,1.9c2.5,0.6,5.7,0,7.3-0.5
				S891.5,561.6,892.6,562.4z M843.7,594c-14.6-0.8-23.1-3.3-26.5-4.5c-1.1-0.4-2-1.3-2.4-2.4c-0.3-0.9-0.6-2-0.8-3.3
				c1,0.7,2.5,1.7,4.6,1.6c2.5-0.2,4-0.9,5.5-0.5c1.5,0.5,3.5,2,5.7,1.5c2.1-0.5,3.4-1,5-2.2c0.2-0.2,0.6-0.2,0.8,0
				c0.9,0.6,3.3,2.3,5.3,5.4C842.4,591.9,843.2,593.2,843.7,594z M892.2,584c-0.2,0.8-0.4,1.8-0.7,2.9c-0.3,1.1-1.2,2.1-2.3,2.5
				c-3.9,1.5-14.8,4.9-35.4,4.9c-2.2,0-4.2,0-6.2-0.1c0.3-0.3,0.7-0.7,1-1.2c1.5-2.2,4.1-7.5,6.2-8c2-0.5,6-0.1,8,0.8
				c2,0.9,3.7,2,5.8,1.7c3.2-0.4,3.5-3.7,5.8-3.8c0.9,0,1.4,0,3.2,0.9c1.7,0.7,4.2,0.9,6.1,0c2.4-1.2,2.2-1.6,3.6-1.6
				C888.7,583.1,889.7,584.1,892.2,584z"/>
		</g>
		<rect x="925.2" y="563" class="st1" width="148.8" height="1.9"/>
		<rect x="635.1" y="563" class="st1" width="146.4" height="1.9"/>
	</g>
	<g>
		<g>
			<path class="st1" d="M859.5,61c-3.3,0-6.3,4.3-8.2,10.9c-1.9-6.7-4.9-10.9-8.2-10.9c-5.8,0-10.5,14.2-10.5,31.7h4.7
				c0-16.3,2.6-29.4,5.9-29.4c3.2,0,5.9,12.2,5.9,27.2h4.7c0-15,2.6-27.2,5.9-27.2c3.2,0,5.9,13.2,5.9,29.4h4.7
				C870,75.2,865.3,61,859.5,61z"/>
		</g>
	</g>
</g>
<g id="FRIES-box">
	<g>
		<g>
			<path class="st2" d="M443.3,663.3H40.1c-18.4,0-33.3-14.9-33.3-33.3V79c0-18.4,14.9-33.3,33.3-33.3h403.1
				c18.4,0,33.3,14.9,33.3,33.3v551.1C476.6,648.4,461.7,663.3,443.3,663.3z"/>
			<path class="st1" d="M443.3,668.3H40.1C19,668.3,1.8,651.2,1.8,630V79c0-21.1,17.2-38.3,38.3-38.3h403.1
				c21.1,0,38.3,17.2,38.3,38.3v551.1C481.6,651.2,464.4,668.3,443.3,668.3z M40.1,50.7c-15.6,0-28.3,12.7-28.3,28.3v551.1
				c0,15.6,12.7,28.3,28.3,28.3h403.1c15.6,0,28.3-12.7,28.3-28.3V79c0-15.6-12.7-28.3-28.3-28.3C443.2,50.7,40.1,50.7,40.1,50.7z"
				/>
		</g>
		<g>
			<g>
				<path class="st1" d="M254.7,103.7v225.5h-26.1V114.4c0-0.2,0-0.4,0-0.6s0-0.3,0-0.5c0.6-5.4,5.1-9.6,10.6-9.6
					C239.2,103.7,254.7,103.7,254.7,103.7z"/>
				<path class="st11" d="M241.8,140.6c12.9-6.2,12.9-17.7,12.9-17.7V90.1c0-2-1.6-3.5-3.4-3.2c-12.8,1.8-22.7,13.7-22.7,28v36.8
					C228.7,151.7,232.3,145.2,241.8,140.6z"/>
			</g>
			<g>
				<path class="st1" d="M300.8,134.8c0.2,1.4,0.3,2.8,0.3,4.2v-1.9C301,136.3,300.9,135.6,300.8,134.8z"/>
				<path class="st1" d="M301,139v177.3h-26.1v-202c0-2,1.6-3.5,3.4-3.2c11.5,1.6,20.7,11.4,22.4,23.9
					C300.9,136.2,301,137.6,301,139z"/>
			</g>
			<g>
				<path class="st1" d="M347.1,161.6c0.2,1.4,0.3,2.8,0.3,4.2v-1.9C347.4,163.1,347.3,162.3,347.1,161.6z"/>
				<path class="st1" d="M347.4,165.8V315h-26.1V141c0-2,1.6-3.5,3.4-3.2c11.5,1.6,20.7,11.4,22.4,23.9
					C347.3,163,347.4,164.3,347.4,165.8z"/>
			</g>
			<g>
				<path class="st1" d="M393.4,188.9c0.2,1.4,0.3,2.8,0.3,4.2v-1.9C393.7,190.4,393.6,189.6,393.4,188.9z"/>
				<path class="st1" d="M393.7,193.1v89.2h-26.1v-114c0-2,1.6-3.5,3.4-3.2c11.5,1.6,20.7,11.4,22.4,23.9
					C393.6,190.3,393.7,191.6,393.7,193.1z"/>
			</g>
			<g>
				<path class="st1" d="M182.6,134.8c-0.2,1.4-0.3,2.8-0.3,4.2v-1.9C182.3,136.3,182.4,135.6,182.6,134.8z"/>
				<path class="st1" d="M182.3,139v177.3h26.1v-202c0-2-1.6-3.5-3.4-3.2c-11.5,1.6-20.7,11.4-22.4,23.9
					C182.4,136.2,182.3,137.6,182.3,139z"/>
			</g>
			<g>
				<path class="st1" d="M136.3,161.6c-0.2,1.4-0.3,2.8-0.3,4.2v-1.9C136,163.1,136.1,162.3,136.3,161.6z"/>
				<path class="st1" d="M136,165.8V315h26.1V141c0-2-1.6-3.5-3.4-3.2c-11.5,1.6-20.7,11.4-22.4,23.9C136.1,163,136,164.3,136,165.8
					z"/>
			</g>
			<g>
				<path class="st1" d="M90,188.9c-0.2,1.4-0.3,2.8-0.3,4.2v-1.9C89.7,190.4,89.8,189.6,90,188.9z"/>
				<path class="st1" d="M89.7,193.1v89.2h26.1v-114c0-2-1.6-3.5-3.4-3.2c-11.5,1.6-20.7,11.4-22.4,23.9
					C89.8,190.3,89.7,191.6,89.7,193.1z"/>
			</g>
		</g>
		<g>
			<path class="st11" d="M152,516.4c27.8-10.1,48.6-16.3,89.6-16.3s61.8,6.1,89.6,16.3l19.6-16.2c30.1-102.5,52.3-249.1,56.7-279.8
				h-40c-7.2,19.1-40.9,94-125.9,94s-118.7-74.9-125.9-94h-40c4.5,30.7,26.6,177.2,56.7,279.8L152,516.4z"/>
			<g>
				<path class="st1" d="M270,345.1c-11.5,0-21.8,15.4-28.5,39.4c-6.7-24-17-39.4-28.5-39.4c-20.3,0-36.7,51.1-36.7,114.2h16.3
					c0-58.5,9.1-106,20.4-106s20.4,43.8,20.4,97.8h16.3c0-54,9.1-97.8,20.4-97.8s20.4,47.5,20.4,106h16.3
					C306.7,396.2,290.3,345.1,270,345.1z"/>
			</g>
		</g>
		<g>
			<path d="M60.5,614.1V589h-9.3v-3.1h22.6v3.1h-9.3v25.1H60.5z"/>
			<path d="M79.1,614.1V586h4v12.4h14.2V586h4v28.1h-4v-12.6H83.1v12.6H79.1z"/>
			<path d="M108.5,614.1V586h17.6v3.1h-13.6v9.5h12.3v2.9h-12.3v9.6h13.8v3.1L108.5,614.1L108.5,614.1z"/>
			<g>
				<path class="st11" d="M147.1,614.1v-53.6h21.4c4.5,0,8.2,0.6,11,1.8s4.9,2.9,6.2,5s2,4.4,2,7c0,2.2-0.6,4.3-1.8,6.3
					s-3.4,3.7-6.6,5c3.8,1.1,6.6,2.8,8.4,5.2c1.8,2.3,2.7,4.9,2.7,7.9c0,4.6-1.7,8.4-5.2,11.2s-8.5,4.3-15.2,4.3h-22.9L147.1,614.1
					L147.1,614.1z M166.5,569.8h-6v12.6h6c2,0,3.5-0.3,4.5-1c1-0.6,1.7-1.4,2.1-2.4c0.4-1,0.6-1.9,0.6-3
					C173.6,571.9,171.2,569.8,166.5,569.8z M166.8,590.9h-6.3v14h6.3c3.3,0,5.6-0.6,7-1.9c1.4-1.3,2-3,2-5.1c0-2-0.7-3.7-2-5
					C172.6,591.5,170.2,590.9,166.8,590.9z"/>
				<path class="st11" d="M170.1,614.6h-23.5v-54.4h21.8c4.6,0,8.3,0.6,11.2,1.9c2.9,1.3,5.1,3,6.4,5.1c1.4,2.1,2.1,4.6,2.1,7.2
					c0,2.3-0.6,4.4-1.8,6.5c-1.1,1.9-3,3.4-5.8,4.7c3.3,1.1,5.8,2.8,7.5,5c1.9,2.4,2.8,5.1,2.8,8.1c0,4.8-1.8,8.6-5.3,11.6
					C182,613.1,176.8,614.6,170.1,614.6z M147.5,613.7h22.6c6.5,0,11.5-1.4,14.9-4.2c3.3-2.8,5-6.4,5-10.9c0-2.8-0.9-5.4-2.6-7.6
					c-1.7-2.2-4.5-3.9-8.2-5l-1.2-0.4l1.2-0.5c3.1-1.2,5.3-2.8,6.4-4.8s1.7-4,1.7-6.1c0-2.5-0.6-4.7-1.9-6.7s-3.3-3.6-6-4.8
					c-2.8-1.2-6.4-1.8-10.9-1.8h-20.9v52.8H147.5z M166.8,605.3h-6.7v-14.9h6.7c3.5,0,6,0.7,7.4,2.1c1.4,1.4,2.1,3.2,2.1,5.3
					c0,2.2-0.7,4.1-2.2,5.4C172.7,604.6,170.2,605.3,166.8,605.3z M160.9,604.4h5.9c3.2,0,5.4-0.6,6.7-1.8s1.9-2.8,1.9-4.8
					c0-1.9-0.6-3.5-1.8-4.7s-3.5-1.8-6.8-1.8h-5.9L160.9,604.4L160.9,604.4z M166.5,582.8h-6.4v-13.4h6.4c5,0,7.5,2.2,7.5,6.7
					c0,1.1-0.2,2.1-0.6,3.1c-0.4,1-1.2,1.9-2.3,2.6C170.1,582.5,168.5,582.8,166.5,582.8z M160.9,582h5.6c1.9,0,3.3-0.3,4.2-0.9
					c0.9-0.6,1.6-1.3,1.9-2.2c0.4-0.9,0.5-1.9,0.5-2.8c0-3.9-2.2-5.8-6.7-5.8h-5.6V582H160.9z"/>
			</g>
			<g>
				<path class="st11" d="M198.9,614.1v-53.6h36.3V571h-22.1v11.1h19.6v10h-19.6v11.5h22.4v10.5H198.9z"/>
				<path class="st11" d="M235.9,614.6h-37.5v-54.4h37.2v11.3h-22.1v10.3h19.6v10.9h-19.6v10.7h22.4L235.9,614.6L235.9,614.6z
					 M199.3,613.7h35.8v-9.6h-22.4v-12.4h19.6v-9.1h-19.6v-12h22.1V561h-35.5L199.3,613.7L199.3,613.7z"/>
			</g>
			<g>
				<path class="st11" d="M265.9,614.2c-6.8,0-12.1-1.5-16-4.5s-6.2-7.3-6.8-13h14c0.4,3.1,1.5,5.2,3.2,6.4s3.7,1.8,5.8,1.8
					c2.5,0,4.3-0.6,5.5-1.8s1.8-2.5,1.8-3.8c0-1.7-0.4-3.1-1.3-4.2c-0.9-1.2-2.4-2.1-4.7-2.6l-8.9-2.3c-4.6-1.2-8-3-10.3-5.5
					s-3.4-6-3.4-10.5c0-3.5,0.9-6.4,2.8-8.8c1.8-2.4,4.3-4.2,7.4-5.4c3.1-1.2,6.6-1.8,10.4-1.8c6.3,0,11.3,1.5,14.8,4.5
					s5.7,7.2,6.4,12.7h-13.8c-0.3-2.5-1.1-4.4-2.5-5.8c-1.3-1.4-3.1-2.1-5.4-2.1c-2,0-3.5,0.5-4.6,1.6s-1.7,2.4-1.7,4.1
					c0,3.1,1.8,5.2,5.4,6.1l8.4,2.2c4,1,7.1,2.3,9.3,4c2.2,1.6,3.7,3.5,4.6,5.6s1.3,4.4,1.3,6.9c0,5.2-1.9,9.2-5.6,12.2
					C278,612.8,272.7,614.2,265.9,614.2z"/>
				<path class="st11" d="M265.9,614.7c-6.8,0-12.3-1.6-16.3-4.6c-4-3.1-6.4-7.5-7-13.3l-0.1-0.5h14.9l0.1,0.4c0.4,3,1.4,5,3,6.1
					s3.5,1.7,5.6,1.7c2.4,0,4.1-0.6,5.2-1.7c1.1-1.1,1.6-2.3,1.6-3.5c0-1.5-0.4-2.9-1.2-4c-0.8-1.1-2.3-1.9-4.4-2.5l-8.9-2.3
					c-4.6-1.2-8.2-3.1-10.5-5.6c-2.4-2.5-3.6-6.2-3.6-10.8c0-3.5,1-6.6,2.8-9c1.9-2.4,4.4-4.3,7.6-5.5c3.1-1.2,6.7-1.9,10.6-1.9
					c6.4,0,11.5,1.5,15.1,4.6c3.6,3,5.8,7.4,6.6,13l0.1,0.5h-14.6v-0.4c-0.3-2.3-1.1-4.2-2.4-5.6c-1.2-1.3-3-2-5.1-2
					c-1.8,0-3.3,0.5-4.3,1.5s-1.5,2.2-1.5,3.8c0,3,1.6,4.8,5,5.7l8.4,2.2c4,1,7.2,2.4,9.4,4c2.2,1.7,3.8,3.6,4.7,5.7
					c0.9,2.1,1.3,4.5,1.3,7c0,5.3-2,9.5-5.8,12.5C278.2,613.1,272.8,614.7,265.9,614.7z M243.5,597.1c0.7,5.3,2.9,9.4,6.6,12.2
					c3.8,2.9,9.1,4.4,15.8,4.4c6.7,0,11.9-1.4,15.6-4.3c3.6-2.8,5.5-6.8,5.5-11.8c0-2.4-0.4-4.7-1.2-6.7c-0.8-2-2.3-3.8-4.4-5.4
					c-2.1-1.6-5.2-2.9-9.1-3.9l-8.4-2.2c-3.8-1-5.7-3.1-5.7-6.5c0-1.8,0.6-3.2,1.8-4.4c1.2-1.1,2.9-1.7,4.9-1.7
					c2.4,0,4.3,0.8,5.8,2.3c1.3,1.4,2.2,3.3,2.5,5.7h12.9c-0.8-5.1-2.9-9.1-6.2-12c-3.5-2.9-8.3-4.4-14.6-4.4
					c-3.8,0-7.2,0.6-10.2,1.8c-3,1.2-5.4,3-7.2,5.3s-2.7,5.1-2.7,8.5c0,4.4,1.1,7.8,3.3,10.2s5.6,4.2,10.1,5.4l8.9,2.3
					c2.3,0.6,4,1.5,4.9,2.8c0.9,1.2,1.4,2.8,1.4,4.5c0,1.4-0.6,2.8-1.9,4.1s-3.2,2-5.8,2c-2.3,0-4.3-0.6-6.1-1.9
					c-1.7-1.2-2.8-3.4-3.3-6.4h-13.2L243.5,597.1L243.5,597.1z"/>
			</g>
			<g>
				<path class="st11" d="M310.7,614.1V571H295v-10.5h45.6V571h-15.7v43.1H310.7z"/>
				<path class="st11" d="M325.3,614.6h-15.1v-43.1h-15.7v-11.3h46.4v11.3h-15.7v43.1H325.3z M311.1,613.7h13.4v-43.1h15.7V561
					h-44.7v9.6h15.7v43.1H311.1z"/>
			</g>
			<path d="M353.9,586l7.6,14l7.7-14h4l-9.8,16.8v11.3h-4v-11.3l-9.8-16.8H353.9z"/>
			<path d="M377.6,614.1V586h17.6v3.1h-13.6v9.5h12.3v2.9h-12.3v9.6h13.8v3.1L377.6,614.1L377.6,614.1z"/>
			<path d="M409.3,614.1V589H400v-3.1h22.6v3.1h-9.3v25.1H409.3z"/>
		</g>
	</g>
</g>
<g>
	<g>
		<path class="st2" d="M1636.7,663.6h-378c-17.9,0-32.3-14.5-32.3-32.3v-553c0-17.9,14.5-32.3,32.3-32.3h378
			c17.9,0,32.3,14.5,32.3,32.3v553C1669.1,649.1,1654.6,663.6,1636.7,663.6z"/>
		<path class="st1" d="M1636.7,668.3h-378c-20.4,0-36.9-16.6-36.9-36.9v-553c0-20.4,16.6-36.9,36.9-36.9h378
			c20.4,0,36.9,16.6,36.9,36.9v553c0.1,9.8-3.7,19-10.7,26C1656,664.4,1646.6,668.3,1636.7,668.3z M1258.7,50.7
			c-15.3,0-27.7,12.4-27.7,27.7v553c0,15.3,12.4,27.7,27.7,27.7h378c7.4,0,14.4-2.9,19.7-8.2c5.2-5.2,8-12.1,8-19.5v-553
			c0-15.3-12.4-27.7-27.7-27.7L1258.7,50.7L1258.7,50.7z"/>
	</g>
	<g>
		<g>
			<polygon class="st12" points="1590,148 1308.1,147.8 1350.5,82.8 1544.9,82.8 			"/>
			<polygon class="st6" points="1304.1,148 1420.5,484.8 1447.7,475.4 1482.1,463.6 1447.7,364.1 1373.1,148 1350.5,82.8 			"/>
			<polygon class="st6" points="1591.3,148 1474.9,484.8 1447.7,475.4 1413.3,463.6 1447.7,364.1 1522.4,148 1544.9,82.8 			"/>
			<g>
				<path class="st1" d="M1457,96.7c-3.8,0-7.1,5-9.3,12.9c-2.2-7.9-5.6-12.9-9.3-12.9c-6.6,0-12,16.7-12,37.4h5.3
					c0-19.2,3-34.7,6.7-34.7s6.7,14.3,6.7,32h5.3c0-17.7,3-32,6.7-32s6.7,15.5,6.7,34.7h5.3C1469.1,113.4,1463.7,96.7,1457,96.7z"/>
			</g>
		</g>
		<g>
			<path class="st8" d="M1470.2,373.9L1470.2,373.9c6,6,14.1,9.3,22.5,9.3l0,0c17.6,0,31.8,14.2,31.8,31.8l0,0
				c0,8.4,3.4,16.5,9.3,22.5l0,0c12.4,12.4,12.4,32.6,0,45l0,0c-6,6-9.3,14.1-9.3,22.5l0,0c0,17.6-14.2,31.8-31.8,31.8l0,0
				c-8.4,0-16.5,3.4-22.5,9.3l0,0c-12.4,12.4-32.6,12.4-45,0l0,0c-6-6-14.1-9.3-22.5-9.3l0,0c-17.6,0-31.8-14.2-31.8-31.8l0,0
				c0-8.4-3.4-16.5-9.3-22.5l0,0c-12.4-12.4-12.4-32.6,0-45l0,0c6-6,9.3-14.1,9.3-22.5l0,0c0-17.6,14.2-31.8,31.8-31.8l0,0
				c8.4,0,16.5-3.4,22.5-9.3l0,0C1437.6,361.5,1457.8,361.5,1470.2,373.9z"/>
			<path class="st13" d="M1470.2,373.9L1470.2,373.9c6,6,14.1,9.3,22.5,9.3l0,0c17.6,0,31.8,14.2,31.8,31.8l0,0
				c0,8.4,3.4,16.5,9.3,22.5l0,0c12.4,12.4,12.4,32.6,0,45l0,0c-6,6-9.3,14.1-9.3,22.5l0,0c0,17.6-14.2,31.8-31.8,31.8l0,0
				c-8.4,0-16.5,3.4-22.5,9.3l0,0c-12.4,12.4-32.6,12.4-45,0l0,0c-6-6-14.1-9.3-22.5-9.3l0,0c-17.6,0-31.8-14.2-31.8-31.8l0,0
				c0-2.4-0.6-9.3-2.9-13.3c76.3,93.8,147.7-44.8,147.7-44.8C1528.1,434.4,1457.8,361.5,1470.2,373.9z"/>
		</g>
		<g>
			<g>
				
					<pattern  id="SVGID_1_" xlink:href="#SVGID_2_" patternTransform="matrix(0.6396 0.4963 -0.4963 0.6396 -14304.6592 6406.1665)">
				</pattern>
				<circle class="st14" cx="1447.7" cy="459.9" r="76.7"/>
			</g>
			<g class="st15">
				<g>
					<path class="st1" d="M1521.9,479.2c-10.7,41-52.5,65.6-93.5,55c-16.2-4.2-29.8-13.3-39.7-25.2c4.9,2.5,10.2,4.5,15.7,6
						c41,10.7,82.9-14,93.5-54.9c6.5-24.9,0-50-15.4-68.4C1513.9,407.6,1531.1,443.7,1521.9,479.2z"/>
				</g>
			</g>
		</g>
	</g>
	<g>
		<path class="st1" d="M1309.5,595v20.4h-3.6V595h-5.5v-3.4h14.5v3.4H1309.5z"/>
		<path class="st1" d="M1322.4,600.9h10.2v-9.3h3.6v23.7h-3.6v-11.1h-10.2v11.1h-3.6v-23.7h3.6V600.9z"/>
		<path class="st1" d="M1353.1,595h-9.5v5.7h9.2v3.4h-9.2v7.9h9.5v3.4H1340v-23.7h13.1V595z"/>
		<path class="st1" d="M1372.2,579.1h18.4c4.4,0,7.7,1,9.9,3.1c2.3,2.1,3.4,5.1,3.4,9.1c0,2.4-0.4,4.4-1.3,5.9
			c-0.9,1.6-2.2,2.9-3.9,4c1.8,0.3,3.3,0.8,4.5,1.5s2.2,1.5,3,2.5s1.3,2.1,1.7,3.4c0.3,1.3,0.5,2.6,0.5,4c0,2.2-0.4,4.2-1.2,5.9
			c-0.8,1.7-1.9,3.2-3.3,4.3c-1.4,1.2-3.1,2.1-5.1,2.6s-4.3,0.9-6.8,0.9h-19.8L1372.2,579.1L1372.2,579.1z M1384.6,597.7h2.3
			c3.9,0,5.8-1.5,5.8-4.6s-1.9-4.6-5.8-4.6h-2.3V597.7z M1384.6,617h2.7c3.1,0,5.3-0.4,6.7-1.2c1.3-0.8,2-2.1,2-3.8
			c0-1.8-0.7-3-2-3.8s-3.6-1.2-6.7-1.2h-2.7V617z"/>
		<path class="st1" d="M1442.8,589.6h-14.7v7.9h13.8v10.4h-13.8v8.2h14.7v10.4h-27V579h27V589.6z"/>
		<path class="st1" d="M1479,591.3c-1.3-1.1-2.7-1.9-4-2.4s-2.6-0.8-3.9-0.8c-1.6,0-2.9,0.4-3.9,1.1s-1.5,1.7-1.5,3
			c0,0.8,0.3,1.5,0.8,2.1c0.5,0.5,1.2,1,2,1.4s1.7,0.7,2.8,1c1,0.3,2,0.6,3.1,0.9c4,1.3,7,3.1,8.8,5.4c1.9,2.2,2.8,5.2,2.8,8.8
			c0,2.4-0.4,4.6-1.2,6.6c-0.8,2-2,3.7-3.6,5.1c-1.6,1.4-3.5,2.5-5.8,3.3s-4.9,1.2-7.8,1.2c-6,0-11.6-1.8-16.7-5.3l5.3-9.9
			c1.8,1.6,3.7,2.9,5.5,3.7s3.6,1.2,5.3,1.2c2,0,3.5-0.5,4.5-1.4s1.5-2,1.5-3.1c0-0.7-0.1-1.3-0.4-1.9c-0.3-0.5-0.7-1-1.3-1.4
			s-1.4-0.8-2.3-1.2s-2.1-0.8-3.4-1.3c-1.6-0.5-3.2-1.1-4.7-1.7c-1.5-0.6-2.9-1.4-4.1-2.4s-2.2-2.3-2.9-3.8
			c-0.7-1.5-1.1-3.5-1.1-5.8s0.4-4.5,1.2-6.4c0.8-1.9,1.9-3.5,3.3-4.9s3.1-2.4,5.2-3.2c2-0.8,4.3-1.1,6.8-1.1c2.3,0,4.8,0.3,7.4,1
			s5,1.6,7.4,2.9L1479,591.3z"/>
		<path class="st1" d="M1515,589.6v37h-12.3v-37h-10.1v-10.4h32.6v10.4H1515z"/>
		<path class="st1" d="M1547.1,605.1l-7.7-13.5h4.1l5.4,9.5l5.4-9.5h4.1l-7.8,13.5v10.2h-3.6L1547.1,605.1L1547.1,605.1z"/>
		<path class="st1" d="M1574.9,595h-9.5v5.7h9.2v3.4h-9.2v7.9h9.5v3.4h-13.1v-23.7h13.1V595z"/>
		<path class="st1" d="M1587.4,595v20.4h-3.6V595h-5.5v-3.4h14.5v3.4H1587.4z"/>
	</g>
</g>
</svg>
