<?xml version="1.0" encoding="utf-8"?>
<!-- Generator: Adobe Illustrator 24.0.3, SVG Export Plug-In . SVG Version: 6.00 Build 0)  -->
<svg version="1.1" id="Layer_1" xmlns="http://www.w3.org/2000/svg" xmlns:xlink="http://www.w3.org/1999/xlink" x="0px" y="0px"
	 viewBox="0 0 800 585.4" style="enable-background:new 0 0 800 585.4;" xml:space="preserve">
<style type="text/css">
	.st0{enable-background:new    ;}
	.st1{fill:none;}
	.st2{font-family:'Speedee-Light';}
	.st3{font-size:97.2887px;}
	.st4{font-family:'Speedee-Bold';}
	.st5{font-family:'SpeedeeCondensed-Light';}
</style>
<g class="st0">
	<path d="M21.5,558c0-7.5,5.6-22.6,11.3-38.1s11.3-30.1,11.3-37.1c0-4.7-0.9-7.5-2.4-8.9c-18.8,1.4-31,31-31,47
		c0,4.7,0.9,8.9,4.2,10.3c5.6-7.5,10.3-24.4,10.3-33.9c0-2.4,0-4.7-0.9-5.6c0.9-0.9,1.4-1.4,3.3-1.4c3.3,0,6.6,3.3,6.6,9.9
		c0,12.2-10.3,35.7-22.1,35.7c-7.5,0-10.3-6.6-10.3-14.6c0-23.5,16-51.7,34.8-51.7c8,0,16,6.6,16,16c0,8-7.5,25.9-13.6,42.8
		c-4.7,13.2-9.9,24.9-9.9,31c0,1.4,0,3.3,1.4,4.2c7.5-6.6,15.5-29.1,24.9-55c10.3-31.5,17.9-39,25.9-39c4.7,0,6.6,2.4,6.6,4.2
		c0,0.9,0,0.9-0.9,1.4c-0.9,0-1.4-0.9-3.3-0.9c-8,0-14.6,17.9-20.2,34.8c-15.5,40.4-24.4,59.2-34.8,59.2
		C24.8,567.9,21.5,562.7,21.5,558z"/>
	<path d="M68.6,551.4c-4.2,0-7.5-2.4-7.5-5.6c0-9.9,14.6-34.8,14.6-41.4c-1.4,0.9-3.3,0.9-4.7,0.9c-1.4,0-2.4-0.9-2.4-1.4
		c0-0.9,0-0.9,0-1.4c3.3,0,5.6-0.9,8-0.9c4.2,0,6.6,1.4,6.6,4.7c0,7.5-13.2,31-14.6,39.5c8-4.7,17.9-22.6,23.5-36.7
		c0.9,0,0.9,0,0.9,0.9C94.4,515.7,77.5,551.4,68.6,551.4z M93.5,484.2c0,3.3-4.7,7.5-8.9,10.3c-1.4,1.4-3.3,2.4-4.2,3.3
		c-0.9,0-1.4-0.9-1.4-1.4c0-0.9,0-1.4,0.9-3.3c0.9-2.4,3.3-5.6,4.7-12.2C90.7,480.9,93.5,480.9,93.5,484.2z"/>
	<path d="M104.3,551.4c-4.2,0-7.5-4.7-10.3-15.5c-2.4,5.6-4.7,10.3-6.6,14.6c-2.4,0-7.5,0.9-7.5-2.4c0-4.2,7.5-23.5,13.2-39
		c7.5-16.9,14.6-33.9,16.9-40.4c4.2,0,8.9,0,8,3.3c-4.2,10.3-13.2,30.1-22.6,54.5c7.5-13.6,13.2-25.9,18.8-25.9c4.2,0,8.9,4.2,8.9,8
		c0,2.4-0.9,8-4.2,14.6c-4.2,7.5-8.9,12.2-16.9,12.2c-2.4,0-4.2-0.9-6.6-1.4c2.4,1.4,8,7.5,13.2,7.5c8,0,18.8-17.9,24.4-31
		c0.9,0,0.9,0,0.9,0.9C133.4,515.7,116.5,551.4,104.3,551.4z M95.4,533.1c9.9,0,18.8-17.9,18.8-25.9c0-0.9,0-1.4-0.9-2.4
		C110.9,504.4,101.9,519,95.4,533.1z"/>
	<path d="M121.2,543.4c0-5.6,7.5-24.4,13.2-38.1c-1.4,0-4.2,0-4.7-0.9v-0.9c0-0.9,0-1.4,1.4-1.4c1.4,0,3.3,0,4.7,0
		c2.4-5.6,4.2-9.9,5.6-12.2c5.6,0,7.5,1.4,7.5,4.2c0,1.4-1.4,4.7-3.3,8c2.4,0,4.7,0,6.6,0c0,0.9,0,0.9,0,0.9c0,1.4-2.4,2.4-8.9,2.4
		c-3.3,8-7.5,17.9-12.2,31c-0.9,2.4-1.4,4.7-1.4,6.6s0,2.4,0.9,3.3c7.5-4.7,16-22.1,22.1-36.7c0.9,0,0.9,0,0.9,0.9
		c0,4.7-14.6,40.4-24.9,40.4C125.5,551.4,121.2,547.7,121.2,543.4z"/>
	<path d="M154.6,551c-6.6,0-11.3-4.2-11.3-12.2c0-8.9,4.2-21.2,10.3-30.1c0.9-1.4,2.4-3.3,4.2-3.3c0,0,0.9,0,1.4,0
		c1.4-3.3,4.7-4.7,8.9-4.7c4.7,0,10.3,4.2,10.3,10.3c0,6.1-4.2,18.8-9.9,28.2c7.5-3.3,14.6-16.9,20.2-33.4c0.9,0,2.4,0,2.4,1.4
		c0,5.6-9.9,33.9-22.6,33.9c-0.9,0-0.9,0-1.4,0c0,0.9-0.9,1.4-1.4,1.4C162.6,549.1,157.9,551,154.6,551z M160.2,538.7
		c-3.3-4.2-4.2-9.9-4.7-16c-2.4,6.6-4.2,13.6-4.2,18.8c0,3.3,0.9,5.6,3.3,6.6C156,545.8,158.4,542.5,160.2,538.7z M161.7,535.4
		c4.2-8,7.5-18.8,7.5-25.9c0-2.4-0.9-4.7-3.3-5.6c-3.3,2.4-6.6,11.3-6.6,19.3C159.3,527.5,160.2,532.2,161.7,535.4z"/>
	<path d="M180.5,543.4c0-4.7,13.6-27.7,13.6-30.1c0-1.4-0.9-1.4-2.4-2.4c-3.3-2.4-4.2-4.2-4.2-8c0-10.3,4.2-14.6,7.5-14.6
		c1.4,0,4.2,0.9,4.7,2.4c-2.4,3.3-4.7,7.5-8,13.2c-0.9,0.9-0.9,1.4-0.9,2.4c0,0.9,0,1.4,0.9,1.4c7.5,2.4,9.9,2.4,9.9,6.6
		c0,3.3-4.2,11.3-7.5,18.8c-2.4,5.6-4.7,10.3-5.6,13.6c4.2-1.4,7.5-7.5,9.9-11.3c0.9,0,1.4,0,1.4,0.9c0,4.2-7.5,15.5-13.6,15.5
		C183.7,551.4,180.5,547.7,180.5,543.4z"/>
	<path d="M237.3,567.9c-16.9,0-23.5-11.3-23.5-23.5c0-13.6,8-27.7,22.1-27.7c8.9,0,13.2,8,13.2,16.9s-4.2,16.9-12.2,16.9
		c-2.4,0-4.2-0.9-4.7-2.4c4.2-4.2,7.5-13.2,7.5-19.3c0-4.2-0.9-6.6-4.2-8c-6.6,1.4-12.2,13.6-12.2,24.9c0,8.9,4.2,17.9,13.6,19.3
		c9.9-2.4,16-15.5,16-24.9c0-21.2-12.2-30.1-12.2-49.4c0-13.2,8.9-20.2,16.9-20.2c11.3,0,16,6.6,17.9,13.6c0-2.4,0-4.7,0-6.6
		c0-8.9,0.9-16.9,7.5-16.9c2.4,0,5.6,1.4,7.5,5.6c-8,4.7-10.3,13.6-13.2,22.1c-0.9,3.3-1.4,5.6-2.4,8.9c-2.4,4.7-5.6,8-8.9,8
		c-1.4,0-3.3-0.9-4.2-1.4c4.2-4.7,6.6-10.3,6.6-16c0-5.6-1.4-10.3-5.6-13.2c-4.7,0-9.9,6.6-9.9,14.6c0,17.9,12.2,28.2,12.2,49.4
		C264.1,553.3,254.3,567.9,237.3,567.9z"/>
	<path d="M312.6,506.3c0.9,0,2.4,0,2.4,0.9c0,4.2-16,43.7-32.4,43.7c-7.5,0-13.6-4.7-13.6-11.3c0-11.3,6.6-31,15.5-37.1
		c1.4-0.9,4.7-1.4,6.6-1.4c5.6,0,11.3,3.3,11.3,10.3c0,6.6-4.2,19.3-11.3,19.3c-1.4,0-3.3-0.9-4.2-2.4c3.3-3.3,8-16,8-22.1
		c0-1.4,0-2.4-0.9-2.4c-4.7,0-15.5,24.4-15.5,35.7c0,3.3,0.9,5.6,3.3,7.5C288.1,545.8,304.6,525.6,312.6,506.3z"/>
	<path d="M303.6,543.4c0-4.7,13.6-27.7,13.6-30.1c0-1.4-0.9-1.4-2.4-2.4c-3.3-2.4-4.2-4.2-4.2-8c0-10.3,4.2-14.6,7.5-14.6
		c1.4,0,4.2,0.9,4.7,2.4c-2.4,3.3-4.7,7.5-8,13.2c-0.9,0.9-0.9,1.4-0.9,2.4c0,0.9,0,1.4,0.9,1.4c7.5,2.4,9.9,2.4,9.9,6.6
		c0,3.3-4.2,11.3-7.5,18.8c-2.4,5.6-5.6,12.2-5.6,14.6c8-4.2,18.8-22.1,24.4-37.1c0.9,0,0.9,0,0.9,0.9c0,4.7-15.5,40.4-27.7,40.4
		C306.9,551.4,303.6,547.7,303.6,543.4z"/>
	<path d="M331.4,551.4c-4.2,0-7.5-2.4-7.5-5.6c0-9.9,14.6-34.8,14.6-41.4c-1.4,0.9-3.3,0.9-4.7,0.9c-1.4,0-2.4-0.9-2.4-1.4
		c0-0.9,0-0.9,0-1.4c3.3,0,5.6-0.9,8-0.9c4.2,0,6.6,1.4,6.6,4.7c0,7.5-13.2,31-14.6,39.5c8-4.7,17.9-22.6,23.5-36.7
		c0.9,0,0.9,0,0.9,0.9C357.2,515.7,340.8,551.4,331.4,551.4z M356.3,484.2c0,3.3-4.7,7.5-8.9,10.3c-1.4,1.4-3.3,2.4-4.2,3.3
		c-0.9,0-1.4-0.9-1.4-1.4c0-0.9,0-1.4,0.9-3.3c0.9-2.4,3.3-5.6,4.7-12.2C353,480.9,356.3,480.9,356.3,484.2z"/>
	<path d="M332.8,577.3c0-6.6,13.2-41.4,16.9-50.3c4.2-9.9,12.2-31.5,13.6-36.7c4.7,0,6.6,0.9,6.6,3.3c0,3.3-5.6,16.9-8,23.5
		c5.6-11.3,10.3-16.9,13.6-16.9s8,3.3,8,8c0,10.3-5.6,28.2-13.2,37.1c8-5.6,18.8-22.1,24.4-35.7c0.9,0,0.9,0,0.9,0.9
		c0,4.7-15.5,40.4-33.4,40.4c-4.2,0-7.5-2.4-8.9-6.6c-4.2,9.9-8,22.1-13.2,37.1C335.1,581.5,332.8,580.6,332.8,577.3z M369.5,525.6
		c3.3-8.9,5.6-16.9,4.7-20.2c-4.7,0.9-11.3,11.3-21.2,35.7c2.4,3.3,3.3,4.2,4.7,4.2C361.5,545.8,363.8,542,369.5,525.6z"/>
	<path d="M383.1,543.4c0-5.6,7.5-24.4,13.2-38.1c-1.4,0-4.2,0-4.7-0.9v-0.9c0-0.9,0-1.4,1.4-1.4c1.4,0,3.3,0,4.7,0
		c2.4-5.6,4.2-9.9,5.6-12.2c5.6,0,7.5,1.4,7.5,4.2c0,1.4-1.4,4.7-3.3,8c2.4,0,4.7,0,6.6,0c0,0.9,0,0.9,0,0.9c0,1.4-2.4,2.4-8.9,2.4
		c-3.3,8-7.5,17.9-12.2,31c-0.9,2.4-1.4,4.7-1.4,6.6c0,1.4,0,2.4,0.9,3.3c4.2-2.4,7.5-7.5,9.9-11.3c0.9,0,1.4,0,1.4,0.9
		c0,4.2-7.5,15.5-13.6,15.5C387.3,551.4,383.1,548.1,383.1,543.4z"/>
</g>
<rect x="-0.2" y="12.6" class="st1" width="639.9" height="70.5"/>
<text transform="matrix(1 0 0 1 -0.2 80.7422)" class="st2 st3">Speedee Light</text>
<rect x="-0.2" y="168.3" class="st1" width="639.9" height="70.5"/>
<text transform="matrix(1 0 0 1 -0.2 236.4043)" class="st4 st3">Speedee Bold</text>
<rect x="-0.2" y="324.3" class="st1" width="800.2" height="70.5"/>
<text transform="matrix(1 0 0 1 -0.2 392.4688)" class="st5 st3">Speedee Condensed Light</text>
</svg>
