<?xml version="1.0" encoding="utf-8"?>
<!-- Generator: Adobe Illustrator 24.0.3, SVG Export Plug-In . SVG Version: 6.00 Build 0)  -->
<svg version="1.1" id="Layer_1" xmlns="http://www.w3.org/2000/svg" xmlns:xlink="http://www.w3.org/1999/xlink" x="0px" y="0px"
	 viewBox="0 0 684.4 631" style="enable-background:new 0 0 684.4 631;" xml:space="preserve">
<style type="text/css">
	.st0{fill:none;}
	.st1{fill:#FDBB20;}
	.st2{fill:#FFFFFF;}
	.st3{fill:#FFFFFF;stroke:#FDBB20;stroke-width:9.2621;stroke-miterlimit:10;}
	.st4{fill:#972026;}
	.st5{fill:#DA1F26;}
	.st6{fill:#A5CF4F;}
	.st7{opacity:0.51;fill:#8CAA45;enable-background:new    ;}
	.st8{fill:url(#SVGID_2_);}
	.st9{opacity:0.5;}
	.st10{fill:#FFFFFF;stroke:#000000;stroke-width:1.0431;stroke-miterlimit:10;}
</style>
<pattern  y="631" width="208" height="208" patternUnits="userSpaceOnUse" id="SVGID_1_" viewBox="0 -208 208 208" style="overflow:visible;">
	<g>
		<rect y="-208" class="st0" width="208" height="208"/>
		<g>
			<rect y="-208" class="st0" width="208" height="208"/>
			<g>
				<rect y="-208" class="st0" width="208" height="208"/>
				<g>
					<rect y="-208" class="st0" width="208" height="208"/>
					<rect y="-208" class="st1" width="208" height="208"/>
					<path class="st2" d="M25.5-2.1c0.3,0.3,0.8,0.2,0.9-0.2c0.5-2.4,1.2-7.9-2.3-7C20.9-8.4,24-4,25.5-2.1z"/>
					<path class="st2" d="M30.9-52.8c0.4-0.2,0.3-0.8-0.1-1c-2.2-0.9-7.4-2.6-7.1,1C23.9-49.3,28.8-51.7,30.9-52.8z"/>
					<path class="st2" d="M7.5-37.6c0.4,0.2,0.8-0.2,0.7-0.6c-0.5-2.4-2.1-7.7-4.9-5.4C0.7-41.3,5.4-38.6,7.5-37.6z"/>
					<path class="st2" d="M6-19.5c0.1-0.4-0.4-0.8-0.8-0.6C3.1-19-1.5-16,1.4-13.9C4.2-11.8,5.6-17.1,6-19.5z"/>
					<path class="st2" d="M14.8-105.9c0.4,0,0.7-0.5,0.4-0.9c-1.5-1.8-5.3-5.8-6.8-2.5C7.1-106,12.5-105.8,14.8-105.9z"/>
					<path class="st2" d="M4.1-75.9c0,0.4,0.5,0.7,0.8,0.5c2-1.4,6.3-4.8,3.1-6.5C5-83.6,4.3-78.3,4.1-75.9z"/>
					<path class="st2" d="M18.9-131.8c0.4,0,0.7-0.5,0.4-0.9c-1.5-1.8-5.3-5.8-6.8-2.5C11.2-132,16.6-131.8,18.9-131.8z"/>
					<path class="st2" d="M45-141.8c0.4,0.3,0.9,0,0.8-0.5c-0.2-2.4-0.9-7.9-4-6.1C38.9-146.7,43.1-143.2,45-141.8z"/>
					<path class="st2" d="M45.8-89.4c0.4,0.2,0.8-0.2,0.7-0.6c-0.5-2.4-2.1-7.7-4.9-5.4C39-93.2,43.7-90.5,45.8-89.4z"/>
					<path class="st2" d="M69.1-100.9c0.1-0.4-0.3-0.8-0.7-0.7c-2.2,0.8-7.2,3.1-4.7,5.6C66.2-93.5,68.3-98.6,69.1-100.9z"/>
					<path class="st2" d="M57.4-25.4c0.4,0.3,0.9,0,0.8-0.5c-0.2-2.4-0.9-7.9-4-6.1C51.2-30.3,55.4-26.8,57.4-25.4z"/>
					<path class="st2" d="M51-9.7c0.3-0.3,0-0.9-0.4-0.9c-2.4,0-7.8,0.4-6.3,3.7C45.8-3.8,49.5-7.8,51-9.7z"/>
					<path class="st2" d="M56.7-53.1c0.1-0.4-0.3-0.8-0.7-0.7c-2.2,0.8-7.2,3.1-4.7,5.6S55.9-50.8,56.7-53.1z"/>
					<path class="st2" d="M36.4-75.7c0.1-0.4-0.3-0.8-0.7-0.7c-2.2,0.8-7.2,3.1-4.7,5.6C33.5-68.3,35.6-73.4,36.4-75.7z"/>
					<path class="st2" d="M31.7-165.8c0.4,0.2,0.8-0.2,0.7-0.6c-0.5-2.4-2.1-7.7-4.9-5.4C24.9-169.6,29.6-166.9,31.7-165.8z"/>
					<path class="st2" d="M35.6-195c0.4-0.2,0.3-0.8-0.1-1c-2.3-0.7-7.5-2.1-7,1.5C28.9-191,33.6-193.7,35.6-195z"/>
					<path class="st2" d="M70.3-206.2c0.1-0.4-0.3-0.8-0.7-0.7c-2.2,0.8-7.2,3.1-4.7,5.6C67.4-198.9,69.5-203.9,70.3-206.2z"/>
					<path class="st2" d="M45.2-120.3c0.1-0.4-0.3-0.8-0.7-0.7c-2.2,0.8-7.2,3.1-4.7,5.6S44.4-118,45.2-120.3z"/>
					<path class="st2" d="M62.4-176.5c0.1-0.4-0.3-0.8-0.7-0.7c-2.2,0.8-7.2,3.1-4.7,5.6S61.6-174.2,62.4-176.5z"/>
					<path class="st2" d="M65.6-63.2c0.1,0.4,0.7,0.6,0.9,0.2c1.4-1.9,4.5-6.5,1-7.3C64.2-70.9,65.1-65.5,65.6-63.2z"/>
					<path class="st2" d="M11.5-159.4c0.4,0,0.7-0.5,0.4-0.9c-1.4-1.9-5-6.2-6.6-2.9C3.8-160.1,9.2-159.5,11.5-159.4z"/>
					<path class="st2" d="M14.5-190.5c-0.1-0.4-0.7-0.6-0.9-0.2c-1.4,1.9-4.4,6.6-1,7.3C16-182.7,15.1-188.2,14.5-190.5z"/>
					<path class="st2" d="M109.3-99.6c-0.4,0-0.7,0.5-0.4,0.9c1.5,1.8,5.3,5.8,6.8,2.5C117-99.4,111.6-99.6,109.3-99.6z"/>
					<path class="st2" d="M97.7-114.2c0.1-0.4-0.4-0.8-0.8-0.5c-2.1,1.2-6.7,4.2-3.7,6.2C96.1-106.6,97.3-111.9,97.7-114.2z"/>
					<path class="st2" d="M133.7-112.2c-0.4-0.1-0.8,0.4-0.6,0.8c1,2.2,3.7,7,5.9,4.1C141.2-110.1,136-111.7,133.7-112.2z"/>
					<path class="st2" d="M127.9-78.6c-0.4,0-0.7,0.5-0.4,0.9c1.5,1.8,5.3,5.8,6.8,2.5C135.7-78.4,130.3-78.6,127.9-78.6z"/>
					<path class="st2" d="M88.3-167.8c-0.3-0.3-0.8-0.2-0.9,0.2c-0.5,2.4-1.2,7.9,2.3,7C92.9-161.5,89.8-166,88.3-167.8z"/>
					<path class="st2" d="M70.9-127.8c-0.4-0.1-0.8,0.4-0.5,0.8c1.2,2,4.3,6.6,6.3,3.5C78.6-126.4,73.2-127.5,70.9-127.8z"/>
					<path class="st2" d="M112.3-132.4c-0.4-0.2-0.8,0.2-0.7,0.6c0.5,2.4,2.1,7.7,4.9,5.4C119.1-128.6,114.4-131.3,112.3-132.4z"/>
					<path class="st2" d="M88.1-138.9c-0.1,0.4,0.3,0.8,0.7,0.6c2.2-1,7.2-3.5,4.4-5.8C90.6-146.3,88.7-141.2,88.1-138.9z"/>
					<path class="st2" d="M72.5-153.5c0.2-0.4-0.1-0.9-0.5-0.8c-2.4,0.2-7.9,1.1-6,4.2C67.8-147.2,71.2-151.5,72.5-153.5z"/>
					<path class="st2" d="M145.3-140.3c0.2-0.4-0.1-0.9-0.5-0.8c-2.3,0.4-7.7,1.6-5.6,4.6C141.1-133.6,144.1-138.2,145.3-140.3z"/>
					<path class="st2" d="M156.4-85.7c0.2-0.4-0.1-0.9-0.5-0.8c-2.3,0.4-7.7,1.6-5.6,4.6C152.2-79,155.2-83.6,156.4-85.7z"/>
					<path class="st2" d="M200.5-51.3c0.2-0.4-0.1-0.9-0.5-0.8c-2.3,0.4-7.7,1.6-5.6,4.6C196.3-44.6,199.3-49.2,200.5-51.3z"/>
					<path class="st2" d="M109.4-150.9c-0.1,0.4,0.3,0.8,0.7,0.7c2.2-0.8,7.2-3.1,4.7-5.6C112.3-158.2,110.2-153.1,109.4-150.9z"/>
					<path class="st2" d="M189.5-74.5c-0.3,0.3-0.1,0.9,0.3,0.9c2.4,0.3,7.8,0.5,6.6-2.9C195.3-79.8,191.2-76.2,189.5-74.5z"/>
					<path class="st2" d="M198.6-97.2c-0.3,0.3-0.1,0.9,0.3,0.9c2.4,0.3,7.8,0.5,6.6-2.9C204.4-102.5,200.3-98.8,198.6-97.2z"/>
					<path class="st2" d="M166.3-102.4c-0.4,0.1-0.5,0.7-0.1,1c2,1.3,6.7,4.1,7.2,0.5C173.8-104.4,168.6-103.1,166.3-102.4z"/>
					<path class="st2" d="M189.5-130c-0.1-0.4-0.7-0.6-0.9-0.2c-1.4,1.9-4.5,6.5-1,7.3C190.9-122.2,190-127.6,189.5-130z"/>
					<path class="st2" d="M156.3-118.4c0.2,0.4,0.7,0.4,0.9,0c1.1-2.2,3.2-7.3-0.4-7.3C153.5-125.8,155.4-120.6,156.3-118.4z"/>
					<path class="st2" d="M100.9-200.7c-0.4-0.3-0.9,0-0.8,0.5c0.2,2.4,0.9,7.9,4,6.1C107-195.8,102.8-199.3,100.9-200.7z"/>
					<path class="st2" d="M101.3-67c-0.2-0.4-0.8-0.4-1,0c-1,2.2-2.9,7.4,0.8,7.2C104.6-60,102.4-64.9,101.3-67z"/>
					<path class="st2" d="M128.5-57.8c0.1-0.4-0.4-0.8-0.8-0.6c-2.1,1.1-6.9,3.8-4,6C126.5-50.3,128-55.5,128.5-57.8z"/>
					<path class="st2" d="M85.8-88c-0.4,0-0.7,0.5-0.4,0.9c1.5,1.8,5.3,5.8,6.8,2.5C93.5-87.8,88.1-88.1,85.8-88z"/>
					<path class="st2" d="M93.8-38.1c-0.4,0-0.7,0.5-0.4,0.9c1.5,1.8,5.3,5.8,6.8,2.5C101.6-38,96.2-38.2,93.8-38.1z"/>
					<path class="st2" d="M76.5-43.8c-0.1,0.4,0.4,0.7,0.8,0.5c2.1-1.2,6.6-4.3,3.6-6.3C78-51.4,76.9-46.1,76.5-43.8z"/>
					<path class="st2" d="M183.1-179.5c-0.4-0.2-0.8,0.2-0.7,0.6c0.5,2.4,2.1,7.7,4.9,5.4C189.9-175.7,185.2-178.4,183.1-179.5z"/>
					<path class="st2" d="M167.8-156.1c0.2-0.4-0.1-0.9-0.5-0.8c-2.3,0.4-7.7,1.6-5.6,4.6C163.6-149.4,166.6-154,167.8-156.1z"/>
					<path class="st2" d="M204.6-201.5c0.2-0.4-0.1-0.9-0.5-0.8c-2.3,0.4-7.7,1.6-5.6,4.6C200.4-194.9,203.4-199.5,204.6-201.5z"/>
					<path class="st2" d="M75.4-188.4c-0.4,0.3-0.3,0.8,0.1,0.9c2.3,0.7,7.6,1.9,7.1-1.7C82.1-192.5,77.4-189.7,75.4-188.4z"/>
					<path class="st2" d="M133.2-200.4c-0.1,0.4,0.3,0.8,0.7,0.7c2.2-0.8,7.2-3.1,4.7-5.6C136-207.8,133.9-202.7,133.2-200.4z"/>
					<path class="st2" d="M192.9-151.7c-0.3,0.3-0.1,0.9,0.3,0.9c2.4,0.3,7.8,0.5,6.6-2.9C198.7-157,194.6-153.4,192.9-151.7z"/>
					<path class="st2" d="M138.5-165.2c-0.3,0.3-0.1,0.9,0.3,0.9c2.4,0.3,7.8,0.5,6.6-2.9C144.3-170.5,140.2-166.9,138.5-165.2z"/>
					<path class="st2" d="M120.1-182.8c-0.1-0.4-0.7-0.6-0.9-0.2c-1.4,1.9-4.5,6.5-1,7.3C121.5-175,120.6-180.4,120.1-182.8z"/>
					<path class="st2" d="M79.4-17.7c-0.4-0.2-0.8,0.2-0.7,0.6c0.5,2.4,2.1,7.7,4.9,5.4C86.2-13.9,81.5-16.6,79.4-17.7z"/>
					<path class="st2" d="M163.8-193.3c-0.1-0.4-0.7-0.6-0.9-0.2c-1.4,1.9-4.5,6.5-1,7.3C165.2-185.5,164.3-191,163.8-193.3z"/>
					<path class="st2" d="M168.9-68.3c-0.4,0-0.7,0.5-0.4,0.9c1.5,1.8,5.3,5.8,6.8,2.5C176.7-68.1,171.3-68.3,168.9-68.3z"/>
					<path class="st2" d="M127-33.3c-0.4,0.3-0.3,0.8,0.1,1c2.3,0.7,7.6,2,7-1.6C133.6-37.5,129-34.7,127-33.3z"/>
					<path class="st2" d="M113.3-13.6c-0.4,0-0.7,0.5-0.4,0.9c1.4,1.9,5,6.2,6.6,2.9C121.1-12.9,115.7-13.5,113.3-13.6z"/>
					<path class="st2" d="M27.8-32.9c-0.4,0-0.7,0.5-0.4,0.9c1.4,1.9,5,6.2,6.6,2.9C35.5-32.2,30.2-32.8,27.8-32.9z"/>
					<path class="st2" d="M157.5-50.2c0-0.4-0.5-0.7-0.9-0.4c-1.8,1.6-5.6,5.6-2.3,7C157.6-42.3,157.6-47.8,157.5-50.2z"/>
					<path class="st2" d="M149.5-13.1c0.1,0.4,0.7,0.6,0.9,0.2c1.4-1.9,4.4-6.6,1-7.3C148.1-20.9,149-15.4,149.5-13.1z"/>
					<path class="st2" d="M174.9-32.4c-0.3-0.3-0.8-0.1-0.9,0.3c-0.2,2.4-0.3,8,3,6.7C180.2-26.6,176.6-30.7,174.9-32.4z"/>
					<path class="st2" d="M195.5-12.5c0-0.4-0.5-0.7-0.9-0.4c-1.8,1.6-5.6,5.6-2.3,7C195.5-4.6,195.6-10.1,195.5-12.5z"/>
				</g>
			</g>
		</g>
	</g>
</pattern>
<g id="burger_x5F_DON_x27_T_USE">
</g>
<g id="TYPE">
</g>
<g id="METAL_RED">
</g>
<g id="METAL">
</g>
<g id="FRIES_1_">
</g>
<g>
	<path class="st3" d="M531.2,624.2h-378c-17.9,0-32.3-14.5-32.3-32.3v-553c0-17.9,14.5-32.3,32.3-32.3h378
		c17.9,0,32.3,14.5,32.3,32.3v553C563.6,609.7,549.1,624.2,531.2,624.2z"/>
	<g>
		<g>
			<polygon class="st4" points="484.5,108.6 202.6,108.4 245,43.4 439.4,43.4 			"/>
			<polygon class="st5" points="198.6,108.6 315,445.4 342.2,436 376.6,424.2 342.2,324.7 267.6,108.6 245,43.4 			"/>
			<polygon class="st5" points="485.8,108.6 369.4,445.4 342.2,436 307.8,424.2 342.2,324.7 416.9,108.6 439.4,43.4 			"/>
			<g>
				<path class="st1" d="M351.5,57.3c-3.8,0-7.1,5-9.3,12.9c-2.2-7.9-5.6-12.9-9.3-12.9c-6.6,0-12,16.7-12,37.4h5.3
					c0-19.2,3-34.7,6.7-34.7s6.7,14.3,6.7,32h5.3c0-17.7,3-32,6.7-32s6.7,15.5,6.7,34.7h5.3C363.6,74,358.2,57.3,351.5,57.3z"/>
			</g>
		</g>
		<g>
			<path class="st6" d="M364.7,334.5L364.7,334.5c6,6,14.1,9.3,22.5,9.3l0,0c17.6,0,31.8,14.2,31.8,31.8l0,0
				c0,8.4,3.4,16.5,9.3,22.5l0,0c12.4,12.4,12.4,32.6,0,45l0,0c-6,6-9.3,14.1-9.3,22.5l0,0c0,17.6-14.2,31.8-31.8,31.8l0,0
				c-8.4,0-16.5,3.4-22.5,9.3l0,0c-12.4,12.4-32.6,12.4-45,0l0,0c-6-6-14.1-9.3-22.5-9.3l0,0c-17.6,0-31.8-14.2-31.8-31.8l0,0
				c0-8.4-3.4-16.5-9.3-22.5l0,0c-12.4-12.4-12.4-32.6,0-45l0,0c6-6,9.3-14.1,9.3-22.5l0,0c0-17.6,14.2-31.8,31.8-31.8l0,0
				c8.4,0,16.5-3.4,22.5-9.3l0,0C332.1,322.1,352.3,322.1,364.7,334.5z"/>
			<path class="st7" d="M364.7,334.5L364.7,334.5c6,6,14.1,9.3,22.5,9.3l0,0c17.6,0,31.8,14.2,31.8,31.8l0,0
				c0,8.4,3.4,16.5,9.3,22.5l0,0c12.4,12.4,12.4,32.6,0,45l0,0c-6,6-9.3,14.1-9.3,22.5l0,0c0,17.6-14.2,31.8-31.8,31.8l0,0
				c-8.4,0-16.5,3.4-22.5,9.3l0,0c-12.4,12.4-32.6,12.4-45,0l0,0c-6-6-14.1-9.3-22.5-9.3l0,0c-17.6,0-31.8-14.2-31.8-31.8l0,0
				c0-2.4-0.6-9.3-2.9-13.3c76.3,93.8,147.7-44.8,147.7-44.8C422.6,395,352.3,322.1,364.7,334.5z"/>
		</g>
		<g>
			<g>
				
					<pattern  id="SVGID_2_" xlink:href="#SVGID_1_" patternTransform="matrix(0.6396 0.4963 0.4963 -0.6396 -11791.0918 -20460.0996)">
				</pattern>
				<circle class="st8" cx="342.2" cy="420.5" r="76.7"/>
			</g>
			<g class="st9">
				<g>
					<path class="st1" d="M416.4,439.8c-10.7,41-52.5,65.6-93.5,55c-16.2-4.2-29.8-13.3-39.7-25.2c4.9,2.5,10.2,4.5,15.7,6
						c41,10.7,82.9-14,93.5-54.9c6.5-24.9,0-50-15.4-68.4C408.4,368.2,425.6,404.3,416.4,439.8z"/>
				</g>
			</g>
		</g>
	</g>
	<g>
		<path class="st1" d="M204,555.6V576h-3.6v-20.4h-5.5v-3.4h14.5v3.4H204z"/>
		<path class="st1" d="M216.9,561.5h10.2v-9.3h3.6v23.7h-3.6v-11.1h-10.2v11.1h-3.6v-23.7h3.6V561.5z"/>
		<path class="st1" d="M247.6,555.6h-9.5v5.7h9.2v3.4h-9.2v7.9h9.5v3.4h-13.1v-23.7h13.1V555.6z"/>
		<path class="st1" d="M266.7,539.7h18.4c4.4,0,7.7,1,9.9,3.1c2.3,2.1,3.4,5.1,3.4,9.1c0,2.4-0.4,4.4-1.3,5.9
			c-0.9,1.6-2.2,2.9-3.9,4c1.8,0.3,3.3,0.8,4.5,1.5c1.2,0.7,2.2,1.5,3,2.5c0.8,1,1.3,2.1,1.7,3.4c0.3,1.3,0.5,2.6,0.5,4
			c0,2.2-0.4,4.2-1.2,5.9c-0.8,1.7-1.9,3.2-3.3,4.3c-1.4,1.2-3.1,2.1-5.1,2.6s-4.3,0.9-6.8,0.9h-19.8L266.7,539.7L266.7,539.7z
			 M279.1,558.3h2.3c3.9,0,5.8-1.5,5.8-4.6s-1.9-4.6-5.8-4.6h-2.3V558.3z M279.1,577.6h2.7c3.1,0,5.3-0.4,6.7-1.2
			c1.3-0.8,2-2.1,2-3.8c0-1.8-0.7-3-2-3.8c-1.3-0.8-3.6-1.2-6.7-1.2h-2.7V577.6z"/>
		<path class="st1" d="M337.3,550.2h-14.7v7.9h13.8v10.4h-13.8v8.2h14.7v10.4h-27v-47.5h27V550.2z"/>
		<path class="st1" d="M373.5,551.9c-1.3-1.1-2.7-1.9-4-2.4s-2.6-0.8-3.9-0.8c-1.6,0-2.9,0.4-3.9,1.1s-1.5,1.7-1.5,3
			c0,0.8,0.3,1.5,0.8,2.1c0.5,0.5,1.2,1,2,1.4s1.7,0.7,2.8,1c1,0.3,2,0.6,3.1,0.9c4,1.3,7,3.1,8.8,5.4c1.9,2.2,2.8,5.2,2.8,8.8
			c0,2.4-0.4,4.6-1.2,6.6c-0.8,2-2,3.7-3.6,5.1c-1.6,1.4-3.5,2.5-5.8,3.3s-4.9,1.2-7.8,1.2c-6,0-11.6-1.8-16.7-5.3l5.3-9.9
			c1.8,1.6,3.7,2.9,5.5,3.7s3.6,1.2,5.3,1.2c2,0,3.5-0.5,4.5-1.4s1.5-2,1.5-3.1c0-0.7-0.1-1.3-0.4-1.9c-0.3-0.5-0.7-1-1.3-1.4
			c-0.6-0.4-1.4-0.8-2.3-1.2s-2.1-0.8-3.4-1.3c-1.6-0.5-3.2-1.1-4.7-1.7c-1.5-0.6-2.9-1.4-4.1-2.4s-2.2-2.3-2.9-3.8
			c-0.7-1.5-1.1-3.5-1.1-5.8s0.4-4.5,1.2-6.4s1.9-3.5,3.3-4.9s3.1-2.4,5.2-3.2c2-0.8,4.3-1.1,6.8-1.1c2.3,0,4.8,0.3,7.4,1
			s5,1.6,7.4,2.9L373.5,551.9z"/>
		<path class="st1" d="M409.5,550.2v37h-12.3v-37h-10.1v-10.4h32.6v10.4H409.5z"/>
		<path class="st1" d="M441.6,565.7l-7.7-13.5h4.1l5.4,9.5l5.4-9.5h4.1l-7.8,13.5v10.2h-3.6v-10.2H441.6z"/>
		<path class="st1" d="M469.4,555.6h-9.5v5.7h9.2v3.4h-9.2v7.9h9.5v3.4h-13.1v-23.7h13.1V555.6z"/>
		<path class="st1" d="M481.9,555.6V576h-3.6v-20.4h-5.5v-3.4h14.5v3.4H481.9z"/>
	</g>
</g>
<rect x="0" y="640.9" class="st10" width="684.4" height="631"/>
</svg>
