<?xml version="1.0" encoding="utf-8"?>
<!-- Generator: Adobe Illustrator 25.0.1, SVG Export Plug-In . SVG Version: 6.00 Build 0)  -->
<svg version="1.1" id="Layer_1" xmlns="http://www.w3.org/2000/svg" xmlns:xlink="http://www.w3.org/1999/xlink" x="0px" y="0px"
	 viewBox="0 0 524.9 95.9" style="enable-background:new 0 0 524.9 95.9;" xml:space="preserve">
<style type="text/css">
	.st0{font-family:'Roboto-Regular';}
	.st1{font-size:13.3107px;}
	.st2{fill:#E83E01;}
	.st3{fill:#FFAA02;}
	.st4{fill:#9FCFFF;}
	.st5{fill:#231F20;}
</style>
<g>
	<text transform="matrix(1 0 0 1 11.1689 91.1522)" class="st0 st1">#E83E01</text>
	<polygon class="st2" points="37.8,3.9 55.5,34.6 73.2,65.3 37.8,65.3 2.3,65.3 20.1,34.6 	"/>
</g>
<g>
	<text transform="matrix(1 0 0 1 160.5724 91.1525)" class="st0 st1">#FFAA02</text>
	<polygon class="st3" points="187.6,3.9 205.4,34.6 223.1,65.3 187.6,65.3 152.2,65.3 169.9,34.6 	"/>
</g>
<g>
	<text transform="matrix(1 0 0 1 310.6028 91.1522)" class="st0 st1">#9FCFFF</text>
	<polygon class="st4" points="337.5,3.9 355.2,34.6 372.9,65.3 337.5,65.3 302,65.3 319.8,34.6 	"/>
</g>
<g>
	<text transform="matrix(1 0 0 1 460.8738 91.1522)" class="st0 st1">#231F20</text>
	<polygon class="st5" points="487.3,3.9 505.1,34.6 522.8,65.3 487.3,65.3 451.9,65.3 469.6,34.6 	"/>
</g>
</svg>
