<?xml version="1.0" encoding="utf-8"?>
<!-- Generator: Adobe Illustrator 24.0.3, SVG Export Plug-In . SVG Version: 6.00 Build 0)  -->
<svg version="1.1" id="Layer_1" xmlns="http://www.w3.org/2000/svg" xmlns:xlink="http://www.w3.org/1999/xlink" x="0px" y="0px"
	 viewBox="0 0 707.9 325" style="enable-background:new 0 0 707.9 325;" xml:space="preserve">
<style type="text/css">
	.st0{fill:#CB7E30;}
	.st1{fill:#E2D5BB;}
	.st2{fill:#2C3334;}
	.st3{fill:#512D1E;}
	.st4{fill:#7A8E93;}
	.st5{fill:#5F6838;}
</style>
<path class="st0" d="M666.5,325l-11.2-31V63h-30c0-5.3,15.6-9.7,35.9-10.4V6c0-1.4,0.6-2.6,1.6-3.5s2.3-1.5,3.8-1.5
	c3,0,5.4,2.2,5.4,5v46.6c20.2,0.7,35.9,5.1,35.9,10.4h-30v231L666.5,325z"/>
<path class="st1" d="M541.5,325l-11.2-31V63h-30c0-5.3,15.6-9.7,35.9-10.4V6c0-1.4,0.6-2.6,1.6-3.5s2.3-1.5,3.8-1.5
	c3,0,5.4,2.2,5.4,5v46.6c20.2,0.7,35.9,5.1,35.9,10.4h-30v231L541.5,325z"/>
<path class="st2" d="M416.4,325l-11.2-31V63h-30c0-5.3,15.6-9.7,35.9-10.4V6c0-1.4,0.6-2.6,1.6-3.5S415,1,416.5,1c3,0,5.4,2.2,5.4,5
	v46.6c20.2,0.7,35.9,5.1,35.9,10.4h-30v231L416.4,325z"/>
<path class="st3" d="M291.3,324l-11.2-31V62h-30c0-5.3,15.6-9.7,35.9-10.4V5c0-1.4,0.6-2.6,1.6-3.5s2.3-1.5,3.8-1.5
	c3,0,5.4,2.2,5.4,5v46.6c20.2,0.7,35.9,5.1,35.9,10.4h-30v231L291.3,324z"/>
<path class="st4" d="M166.3,324l-11.2-31V62h-30c0-5.3,15.6-9.7,35.9-10.4V5c0-1.4,0.6-2.6,1.6-3.5s2.3-1.5,3.8-1.5
	c3,0,5.4,2.2,5.4,5v46.6c20.2,0.7,35.9,5.1,35.9,10.4h-30v231L166.3,324z"/>
<path class="st5" d="M41.2,324L30,293V62H0c0-5.3,15.6-9.7,35.9-10.4V5c0-1.4,0.6-2.6,1.6-3.5S39.8,0,41.3,0c3,0,5.4,2.2,5.4,5v46.6
	c20.2,0.7,35.9,5.1,35.9,10.4h-30v231L41.2,324z"/>
<g>
	<path class="st0" d="M-395.2,23.9l-31,11.2h-231v30c-5.3,0-9.7-15.6-10.4-35.9h-46.6c-1.4,0-2.6-0.6-3.5-1.6s-1.5-2.3-1.5-3.8
		c0-3,2.2-5.4,5-5.4h46.6c0.7-20.2,5.1-35.9,10.4-35.9v30h231L-395.2,23.9z"/>
	<path class="st1" d="M-395.2,152.7l-31,11.2h-231v30c-5.3,0-9.7-15.6-10.4-35.9h-46.6c-1.4,0-2.6-0.6-3.5-1.6s-1.5-2.3-1.5-3.8
		c0-3,2.2-5.4,5-5.4h46.6c0.7-20.2,5.1-35.9,10.4-35.9v30h231L-395.2,152.7z"/>
	<path class="st2" d="M-395.2,281.6l-31,11.2h-231v30c-5.3,0-9.7-15.6-10.4-35.9h-46.6c-1.4,0-2.6-0.6-3.5-1.6s-1.5-2.3-1.5-3.8
		c0-3,2.2-5.4,5-5.4h46.6c0.7-20.2,5.1-35.9,10.4-35.9v30h231L-395.2,281.6z"/>
</g>
<g>
	<path class="st3" d="M-28.7,23.9l-31,11.2h-231v30c-5.3,0-9.7-15.6-10.4-35.9h-46.6c-1.4,0-2.6-0.6-3.5-1.6s-1.5-2.3-1.5-3.8
		c0-3,2.2-5.4,5-5.4h46.6c0.7-20.2,5.1-35.9,10.4-35.9v30h231L-28.7,23.9z"/>
	<path class="st4" d="M-28.7,152.8l-31,11.2h-231v30c-5.3,0-9.7-15.6-10.4-35.9h-46.6c-1.4,0-2.6-0.6-3.5-1.6s-1.5-2.3-1.5-3.8
		c0-3,2.2-5.4,5-5.4h46.6c0.7-20.2,5.1-35.9,10.4-35.9v30h231L-28.7,152.8z"/>
	<path class="st5" d="M-28.7,281.6l-31,11.2h-231v30c-5.3,0-9.7-15.6-10.4-35.9h-46.6c-1.4,0-2.6-0.6-3.5-1.6s-1.5-2.3-1.5-3.8
		c0-3,2.2-5.4,5-5.4h46.6c0.7-20.2,5.1-35.9,10.4-35.9v30h231L-28.7,281.6z"/>
</g>
</svg>
