<?xml version="1.0" encoding="utf-8"?>
<!-- Generator: Adobe Illustrator 24.0.3, SVG Export Plug-In . SVG Version: 6.00 Build 0)  -->
<svg version="1.1" id="Layer_1" xmlns="http://www.w3.org/2000/svg" xmlns:xlink="http://www.w3.org/1999/xlink" x="0px" y="0px"
	 viewBox="0 0 498 440" style="enable-background:new 0 0 498 440;" xml:space="preserve">
<style type="text/css">
	.st0{fill:#FFFFFF;stroke:#000000;stroke-width:1.7209;stroke-miterlimit:10;}
	.st1{fill:none;stroke:#000000;stroke-width:2.3859;stroke-miterlimit:10;}
	.st2{fill:#FFFFFF;stroke:#000000;stroke-width:2.3859;stroke-miterlimit:10;}
	.st3{stroke:#FFFFFF;stroke-width:2.0645;stroke-miterlimit:10;}
	.st4{fill:#FFFFFF;}
	.st5{fill:none;}
	.st6{enable-background:new    ;}
</style>
<g>
	<g>
		<polygon points="146.3,289.4 141.5,284 166.6,257.9 175.1,267.4 		"/>
		<path d="M134.8,285.4l-0.3,8.6c0,1.1,0.8,1.9,1.8,2l8.5,0.3c0.8,0,1.5-0.4,1.8-1.2l7.2-17.3l-17.8,5.9
			C135.3,284,134.8,284.6,134.8,285.4z"/>
		<g>
			<g>
				<g>
					<path class="st0" d="M362.9,147.6L362.9,147.6c0,0.1-0.1,0.4-0.2,0.9c-6.2,2.6-11.4,9.1-13.3,17.5c-1.1,5.1-0.9,10,0.4,14.2
						c-6.1,0.6-12.6,4.3-17.3,10.5c-3.6,4.9-5.5,10.4-5.5,15.5c-0.2,0.1-0.3,0.2-0.5,0.4c-4.8-2.2-11-2.8-17.3-1.2
						c-7.8,2-13.8,6.8-16.5,12.5c-0.4,0-0.8,0-1.2,0.1c-2.5-5.6-8.1-10.5-15.5-12.9c-8.2-2.6-16.4-1.5-21.8,2.5
						c-1.1-7.1-7.3-14-16.3-17.1l0.3-1c0,0,0,0,0.1,0c0.1-0.1,0.3-0.2,0.7-0.3c0.2-0.1,0.6-0.3,0.9-0.5c0.1-0.1,0.3-0.1,0.4-0.2
						c7.3-3.6,31.8-15.8,49.9-23.9C310.2,160,343.1,155.2,362.9,147.6z"/>
					<path d="M365.8,145.5c0.8-0.6,0-1.9-0.9-1.4c-37.1,17-79.1,9.3-82.1,15.6c-4.8,10.3-44.6,29.8-44.6,29.8
						c13.8-0.2,38.9-11,51-19.5c4.6-3.3,10-5.4,15.6-6.1C320.5,162,350.2,157.7,365.8,145.5z"/>
				</g>
				<path class="st1" d="M349.8,180.2c0,0-41.5-11.3-68.9-11.9c0,0,48.7,24,45.6,38.2"/>
				<path class="st1" d="M291.5,217.9c0,0,1.9-42.1-13.8-49.6"/>
			</g>
			<g>
				<g>
					<path class="st0" d="M131.4,147.6L131.4,147.6c0,0.1,0.1,0.4,0.2,0.9c6.2,2.6,11.4,9.1,13.3,17.5c1.1,5.1,0.9,10-0.4,14.2
						c6.1,0.6,12.6,4.3,17.3,10.5c3.6,4.9,5.5,10.4,5.5,15.5c0.2,0.1,0.3,0.2,0.5,0.4c4.8-2.2,11-2.8,17.3-1.2
						c7.8,2,13.8,6.8,16.5,12.5c0.4,0,0.8,0,1.2,0.1c2.5-5.6,8.1-10.5,15.5-12.9c8.2-2.6,16.4-1.5,21.8,2.5
						c1.1-7.1,7.3-14,16.3-17.1l-0.3-1c0,0,0,0-0.1,0c-0.1-0.1-0.3-0.2-0.7-0.3c-0.2-0.1-0.6-0.3-0.9-0.5c-0.1-0.1-0.3-0.1-0.4-0.2
						c-7.3-3.6-31.8-15.8-49.9-23.9C184,160,151.1,155.2,131.4,147.6z"/>
					<path d="M128.4,145.5c-0.8-0.6,0-1.9,0.9-1.4c37.1,17,79.1,9.3,82.1,15.6c4.8,10.3,44.6,29.8,44.6,29.8
						c-13.8-0.2-38.9-11-51-19.5c-4.6-3.3-10-5.4-15.6-6.1C173.7,162,144,157.7,128.4,145.5z"/>
				</g>
				<path class="st1" d="M144.4,180.2c0,0,41.5-11.3,68.9-11.9c0,0-48.7,24-45.6,38.2"/>
				<path class="st1" d="M202.8,217.9c0,0-1.9-42.1,13.8-49.6"/>
			</g>
			<path d="M157.6,248.3c-2-2.3-2.2-5.6-0.6-8c0.5-0.7,1.5-0.8,2.1-0.1l14.5,20.7l18.2,15.9c0.6,0.6,0.4,1.7-0.3,2.1
				c-2.6,1.3-5.8,0.8-7.9-1.5L157.6,248.3z"/>
			<g>
				<polygon class="st2" points="172.8,260.8 176.6,264.7 323.7,129.1 335.9,97.2 304.2,109.5 168.9,257 				"/>
				<line class="st1" x1="172.7" y1="261" x2="335.9" y2="97.2"/>
			</g>
			<g>
				<polygon class="st2" points="316.8,260.6 320.7,256.8 185,109.7 153.2,97.5 165.5,129.2 313,264.5 				"/>
				<line class="st1" x1="316.9" y1="260.7" x2="153.2" y2="97.5"/>
			</g>
			<g>
				<polygon points="342.9,289.4 347.7,284 322.6,257.9 314.1,267.4 				"/>
			</g>
			<g>
				<polygon class="st2" points="245.8,259.8 251.2,259.8 259.6,59.9 245.8,28.8 232,59.9 240.3,259.8 				"/>
				<line class="st1" x1="245.8" y1="260" x2="245.8" y2="28.8"/>
			</g>
			<g>
				<path d="M226.2,267.4c-3.6,0-6.5-2.9-6.5-6.5v-13c0-1.9,1.9-2.4,2.4-0.7l2.1,7.1c0.8,2.8,3.4,4.7,6.3,4.7H261
					c2.9,0,5.4-1.9,6.3-4.7l2.1-7.1c0.5-1.8,2.4-1.2,2.4,0.7v13c0,3.6-2.9,6.5-6.5,6.5H226.2z"/>
				<polygon points="249.4,303.2 242.1,303.2 239.4,267.1 252.1,267.1 				"/>
				<circle cx="245.8" cy="310.7" r="9.2"/>
			</g>
			<path d="M238,215.3c-10.2,0-25.3-9.5-25.3-23.5c0-18.2,13-27.8,23.3-30.9c0,0,1.4,16.3,2,24.3c7.2,0,16.7-4.6,17.8-12.8
				c2.7-20.4-4.3-45.7-27.1-50l6.1-30c13.8,3.8,27.7,17.5,37.5,36c9.2,17.5,10.1,41.6,7,53.6C274.5,200.6,261.9,215.3,238,215.3z"/>
			<path class="st3" d="M228.5,109.1c-0.6-4.8-7.1-2.4-16.1-10.5c-10.2-9.2-19.5-12.7-11.7-20.6c3.5-3.6,4,1.2,6.9,2.7
				c6,3,4.6,3.7,11.1,4.7c0,0,4.3-17.1,19.5,1.2c0,0,16-2.1,25.3,12c9.3,14.1,16.8,8.4,16.8,8.4s-6.9,9-23.5-4.5
				c-5.6-4.6-8.7-2.5-8.7-2.5s3.6,9-1.4,15.6c-2.7,3.6-6.7,7-18,6.7c-32.1-1-36.9-5.3-36.9-10.9c0,0,13.1,4,17.4,2.3
				C213.4,112,221.8,105.9,228.5,109.1z"/>
			<path class="st4" d="M231.9,92.4c0,0-0.8-5.5-3.9-7.3s-4.4,2.3-6.5,1.8c3.4,0.1,5.2,5.1,9.6,3.8"/>
			<path d="M334.1,245l-30.4,35.8c-1.7,2-4.1,2.7-5.4,1.6l0,0c-1.3-1.1-1-3.6,0.7-5.6l12-11.1c3.6-3.4,6.9-7.2,9.6-11.4l8.7-13.3
				c1.7-2,4.1-2.7,5.4-1.6l0,0C336,240.5,335.8,243,334.1,245z"/>
		</g>
		<path d="M339,282.8c-0.5-1.4,1-2.9,2.4-2.4l7.2,2.4l8.5,2.9c1.2,0.4,1.4,1.9,0.5,2.9l-5.1,5.2l-5.1,5.2c-0.9,1-2.5,0.7-2.9-0.4
			l-3-8.4L339,282.8z"/>
	</g>
	<g>
		<rect x="-0.1" y="357.5" class="st5" width="494.5" height="99"/>
		<g class="st6">
			<path d="M30.9,422.2c-5.1,0-9.5-0.8-13.4-2.4c-3.8-1.6-7-3.7-9.5-6.5s-4.4-6-5.6-9.7s-1.9-7.7-1.9-12c0-3.6,0.6-7.2,1.8-10.8
				c1.2-3.6,3.1-6.9,5.7-9.9c2.6-2.9,5.9-5.3,10-7.2c4.1-1.8,8.9-2.8,14.5-2.8c3.1,0,6,0.2,8.7,0.6s5.6,1.1,8.8,1.9
				c0.1,1.6,0.4,3.7,0.7,6.3c0.4,2.5,0.9,5,1.5,7.5c-0.3,0.1-0.7,0.1-1.2,0.2s-0.8,0.1-1.1,0.1c-0.5,0-0.9-0.1-1.2-0.2
				c-0.3-0.2-0.6-0.5-0.7-1c-0.7-2-1.4-3.7-2.3-5c-0.8-1.4-1.9-2.5-3-3.3c-1.2-0.8-2.6-1.4-4.1-1.8c-1.6-0.4-3.4-0.5-5.5-0.5
				c-3.3,0-6.2,0.6-8.7,1.7s-4.6,2.7-6.3,4.8c-1.7,2.1-3,4.6-3.9,7.5s-1.3,6.3-1.3,10c0,3.9,0.5,7.6,1.6,11s2.5,6.3,4.4,8.8
				c1.8,2.5,4,4.4,6.6,5.8c2.5,1.4,5.3,2.1,8.3,2.1c2.4,0,4.5-0.2,6.2-0.7s3.2-1.2,4.5-2.1c1.2-0.9,2.3-2.1,3.2-3.6s1.7-3.2,2.4-5.1
				c0.2-0.5,0.5-0.8,0.9-1s0.8-0.3,1.2-0.3c0.3,0,0.7,0,1.1,0.1c0.5,0.1,0.8,0.2,1.1,0.3c-0.4,1-0.7,2.2-1.1,3.5
				c-0.4,1.3-0.8,2.6-1.2,4s-0.8,2.7-1.1,4.1s-0.6,2.7-0.9,4c-3,0.5-6,0.9-9.1,1.2C38,422.1,34.6,422.2,30.9,422.2z"/>
		</g>
		<g class="st6">
			<path d="M60.8,391.6c0-4.2,0.8-8.2,2.4-11.9c1.6-3.7,3.8-6.9,6.6-9.7c2.8-2.8,6-5,9.8-6.6c3.7-1.6,7.7-2.4,12-2.4
				c4.4,0,8.4,0.8,12.2,2.3c3.8,1.5,7,3.6,9.8,6.4c2.8,2.7,4.9,6,6.5,9.7c1.6,3.8,2.4,7.9,2.4,12.3c0,4.2-0.8,8.2-2.4,12
				c-1.6,3.7-3.8,7-6.6,9.7c-2.8,2.8-6.1,4.9-9.8,6.5c-3.8,1.6-7.8,2.4-12,2.4c-4.4,0-8.4-0.8-12.2-2.3c-3.8-1.5-7-3.6-9.7-6.4
				s-4.9-6-6.5-9.7C61.6,400.2,60.8,396.1,60.8,391.6z M92.9,417.5c2.5,0,4.8-0.6,6.9-1.7s3.8-2.7,5.3-4.6s2.6-4.2,3.5-6.8
				c0.8-2.6,1.2-5.4,1.2-8.4c0-4.3-0.4-8.3-1.2-12c-0.8-3.7-2.1-6.9-3.7-9.6c-1.7-2.7-3.8-4.8-6.3-6.4c-2.5-1.5-5.4-2.3-8.8-2.3
				c-2.1,0-4.2,0.5-6.2,1.4s-3.8,2.3-5.3,4.1c-1.5,1.8-2.7,4-3.6,6.5s-1.4,5.4-1.4,8.6c0,4.5,0.4,8.6,1.3,12.5
				c0.9,3.8,2.2,7.1,3.8,9.9c1.7,2.8,3.7,4.9,6.1,6.5C87,416.7,89.8,417.5,92.9,417.5z"/>
			<path d="M176.1,401.3V369c0-1.3-0.5-2.3-1.4-2.8s-2.5-1-4.8-1.3c-0.8-0.2-1.2-0.8-1.2-1.7c0-0.2,0-0.4,0-0.7
				c0-0.3,0.1-0.6,0.2-0.9c1.5,0.2,3,0.3,4.5,0.4s3.2,0.1,5.1,0.1c1.9,0,3.6,0,5-0.1s2.8-0.2,4.2-0.4c0.1,0.3,0.1,0.6,0.1,0.9
				s0,0.5,0,0.7c0,1-0.4,1.6-1.1,1.7c-2,0.3-3.4,0.7-4.1,1.3c-0.7,0.5-1.1,1.4-1.1,2.6V422c-0.2,0.1-0.7,0.1-1.2,0.1
				c-0.6,0-1,0-1.1,0c-0.4,0-0.9-0.1-1.4-0.3c-0.5-0.2-1-0.7-1.5-1.3L140.5,375v39.3c0,0.6,0,1.1,0.1,1.5s0.3,0.7,0.7,1
				s1,0.5,1.7,0.7c0.8,0.2,1.8,0.4,3,0.7c0.3,0.1,0.6,0.2,0.8,0.4c0.2,0.2,0.3,0.7,0.3,1.3c0,0.4-0.1,0.9-0.2,1.5
				c-1.5-0.1-2.9-0.2-4.3-0.3c-1.3-0.1-2.9-0.1-4.6-0.1c-1.8,0-3.4,0-5,0.1s-3.1,0.2-4.4,0.3c-0.1-0.2-0.2-0.5-0.2-0.8s0-0.5,0-0.7
				c0-0.6,0.1-1,0.3-1.3c0.2-0.2,0.5-0.4,0.8-0.5c2.2-0.4,3.6-0.8,4.4-1.4c0.7-0.5,1.1-1.4,1.1-2.5v-46c0-1-0.3-1.7-1-2.2
				c-0.6-0.5-2.1-0.9-4.3-1.2c-0.7-0.2-1.1-0.8-1.1-1.7c0-0.1,0-0.3,0-0.4c0-0.2,0-0.3,0.1-0.5l0.1-0.7c0.8,0.1,1.7,0.1,2.5,0.1
				s1.6,0.1,2.4,0.1c1.3,0.1,2.7,0.1,4,0.1c1.4,0,2.5,0,3.3,0c1.8,0,2.9,0.1,3.5,0.2c0.5,0.2,1,0.4,1.5,0.9L176.1,401.3z"/>
			<path d="M232.2,421.4c2.1,0.5,3.8,1.3,5.4,2.1c1.5,0.9,2.9,1.8,4.1,2.8c1.2,1,2.4,2,3.5,3s2.3,2,3.7,2.9c1.4,1,2.6,1.6,3.5,1.8
				c0.9,0.2,1.8,0.3,2.6,0.3s1.5-0.1,2-0.3c0.6-0.2,1-0.3,1.3-0.3c0.4,0,0.7,0.1,0.9,0.4c0.2,0.2,0.4,0.5,0.5,0.8
				c-1.3,1.5-2.8,2.7-4.5,3.7c-1.7,0.9-3.5,1.4-5.5,1.4c-3.5,0-6.5-0.7-9-2.2s-4.9-3.2-7.1-5.1c-2.2-2-4.5-4-6.8-6s-5.1-3.7-8.2-4.9
				c-3.9-0.7-7.4-1.9-10.6-3.6c-3.2-1.7-5.9-3.9-8.2-6.5s-4-5.7-5.3-9c-1.2-3.4-1.9-7.1-1.9-11.1c0-4.2,0.8-8.2,2.4-11.9
				c1.6-3.7,3.8-6.9,6.6-9.7c2.8-2.8,6-5,9.8-6.6c3.7-1.6,7.7-2.4,12-2.4c4.4,0,8.4,0.8,12.2,2.3s7,3.6,9.8,6.4
				c2.8,2.7,4.9,6,6.5,9.7c1.6,3.8,2.4,7.9,2.4,12.3c0,3.4-0.5,6.7-1.5,9.8c-1,3.2-2.5,6-4.4,8.6s-4.2,4.8-7,6.8
				c-2.7,1.9-5.8,3.4-9.2,4.3L232.2,421.4L232.2,421.4z M224.9,417.5c2.5,0,4.8-0.6,6.9-1.7c2.1-1.1,3.8-2.7,5.3-4.6
				s2.6-4.2,3.5-6.8c0.8-2.6,1.2-5.4,1.2-8.4c0-4.3-0.4-8.3-1.2-12s-2.1-6.9-3.7-9.6c-1.7-2.7-3.8-4.8-6.3-6.4
				c-2.5-1.5-5.4-2.3-8.8-2.3c-2.1,0-4.2,0.5-6.2,1.4s-3.8,2.3-5.3,4.1c-1.5,1.8-2.7,4-3.6,6.5s-1.4,5.4-1.4,8.6
				c0,4.5,0.4,8.6,1.3,12.5c0.9,3.8,2.2,7.1,3.8,9.9c1.7,2.8,3.7,4.9,6.1,6.5C219,416.7,221.8,417.5,224.9,417.5z"/>
		</g>
		<g class="st6">
			<path d="M318.5,398.7c0,3.5-0.4,6.6-1.1,9.5s-2,5.4-3.8,7.5s-4.2,3.7-7.2,4.9c-3,1.2-6.8,1.7-11.3,1.7c-5.4,0-9.7-0.6-13-1.8
				s-5.8-2.9-7.6-5c-1.8-2.1-3-4.5-3.6-7.4c-0.6-2.8-0.9-5.8-0.9-9v-30.2c0-1.3-0.4-2.2-1.2-2.7c-0.8-0.5-2.4-0.9-4.8-1.2
				c-0.7-0.1-1-0.7-1-1.7c0-0.2,0-0.4,0-0.7c0-0.3,0.1-0.6,0.2-0.9c1.8,0.1,3.6,0.2,5.6,0.3c2,0.1,4.3,0.1,7,0.1
				c2.1,0,4.3,0,6.6-0.1c2.3-0.1,4.4-0.2,6.2-0.3c0.1,0.3,0.1,0.6,0.1,0.9s0,0.5,0,0.7c0,1-0.3,1.6-1,1.7c-2.5,0.3-4.2,0.7-5,1.3
				c-0.9,0.5-1.3,1.4-1.3,2.6v28.2c0,6.3,1.2,11.1,3.5,14.4s6.3,4.9,12,4.9c5.8,0,10-1.5,12.4-4.6c2.5-3.1,3.7-8,3.7-15v-27.9
				c0-1.2-0.4-2.1-1.3-2.6c-0.8-0.5-2.5-1-4.8-1.3c-0.7-0.2-1.1-0.8-1.1-1.7c0-0.2,0-0.4,0-0.7c0-0.3,0.1-0.6,0.1-0.9
				c1.8,0.2,3.4,0.3,4.9,0.4s3.1,0.1,4.8,0.1c1.9,0,3.7,0,5.2-0.1s3-0.2,4.5-0.4c0.1,0.3,0.1,0.6,0.1,0.9s0,0.5,0,0.7
				c0,1-0.4,1.5-1.1,1.7c-2.2,0.2-3.8,0.7-4.6,1.2c-0.8,0.6-1.3,1.5-1.3,2.7L318.5,398.7L318.5,398.7z"/>
		</g>
		<g class="st6">
			<path d="M352.7,366.6v21.9h12.8c1.2,0,1.9-0.5,2.4-1.4c0.4-0.9,0.8-2.5,1.1-4.6c0.1-0.5,0.2-0.8,0.5-1s0.7-0.2,1.2-0.2
				c0.2,0,0.5,0,0.9,0s0.7,0.1,0.9,0.1c-0.1,1.4-0.2,3-0.3,4.9c-0.1,1.8-0.1,3.4-0.1,4.7c0,1.1,0,2.4,0.1,3.9s0.2,3.2,0.4,5
				c-0.2,0.1-0.5,0.2-0.9,0.2s-0.7,0-0.9,0c-1.1,0-1.7-0.4-1.7-1.3c-0.4-2.3-0.8-3.9-1.2-4.7c-0.5-0.8-1.2-1.2-2.2-1.2h-12.8v20.4
				c0,1.3,0.8,2.1,2.4,2.5s4.2,0.6,8,0.6h3.8c1.8,0,3.3-0.2,4.6-0.7c1.2-0.5,2.3-1.2,3.3-2c1-0.9,1.8-1.9,2.5-3.1s1.5-2.5,2.2-4
				c0.2-0.4,0.6-0.6,1.3-0.6c0.3,0,0.7,0.1,1.1,0.3c0.4,0.2,0.8,0.4,1.3,0.5c-0.1,0.5-0.3,0.9-0.4,1.4c-0.2,0.4-0.3,0.8-0.4,1.3
				c-0.3,0.7-0.5,1.4-0.7,2.2c-0.2,0.8-0.4,1.4-0.5,1.9c-0.1,0.6-0.3,1.3-0.4,2c-0.2,0.8-0.3,1.5-0.5,2.2s-0.3,1.3-0.5,1.9
				c-0.2,0.5-0.3,0.9-0.3,1.1c-0.2,0.5-0.7,0.7-1.5,0.7c-0.5,0-1.2,0-2.1-0.1s-1.9-0.1-3-0.1s-2.1-0.1-3.2-0.1
				c-1.1-0.1-2-0.1-2.8-0.1h-20.6c-1.8,0-3.8,0-6,0.1c-2.3,0.1-4.3,0.2-6.1,0.3c-0.1-0.2-0.2-0.6-0.2-1s0-0.7,0-0.9
				c0-0.9,0.3-1.4,0.9-1.5c2.3-0.4,4-0.9,5-1.4s1.5-1.3,1.5-2.5v-45.6c0-0.6-0.1-1.1-0.3-1.5c-0.2-0.4-0.5-0.7-1-1s-1.2-0.5-2-0.7
				s-1.9-0.4-3.1-0.7c-0.6-0.2-0.9-0.7-0.9-1.6c0-0.3,0-0.6,0-0.9s0.1-0.6,0.2-0.9c2.6,0.2,4.9,0.3,6.9,0.4s3.7,0.1,5.2,0.1h18.6
				c2.7,0,5.1-0.1,7-0.3c2-0.2,3.3-0.3,4-0.3s1.2,0.3,1.5,0.8c0.2,0.5,0.3,1.4,0.5,2.7c0.1,1.3,0.3,2.7,0.6,4c0.2,1,0.4,2,0.6,3
				s0.6,2.2,1.1,3.5c-0.3,0.1-0.6,0.2-1,0.4c-0.4,0.1-0.7,0.2-1.1,0.2c-0.7,0-1.2-0.3-1.5-0.8c-0.7-1.6-1.4-2.9-2.1-4
				s-1.5-2-2.4-2.7s-1.9-1.2-3.1-1.5s-2.6-0.5-4.2-0.5h-12.4L352.7,366.6L352.7,366.6z"/>
		</g>
		<g class="st6">
			<path d="M431.7,376.8c-0.5,0.2-1.1,0.3-1.7,0.3c-0.8,0-1.5-0.2-1.8-0.5c-0.4-0.3-0.6-0.7-0.7-1c-1.4-3.5-3.2-5.9-5.4-7.5
				c-2.2-1.5-5.2-2.3-8.9-2.3c-2.9,0-5.4,0.7-7.4,2.1s-3,3.6-3,6.5c0,2.2,0.8,4,2.3,5.4s3.5,2.6,5.8,3.6s4.8,2,7.5,3
				s5.2,2.2,7.5,3.6c2.3,1.5,4.3,3.3,5.8,5.5s2.3,5.1,2.3,8.6c0,2.3-0.4,4.5-1.2,6.7c-0.8,2.2-2,4.1-3.7,5.8c-1.7,1.7-3.8,3-6.5,4
				c-2.6,1-5.7,1.5-9.4,1.5c-4,0-7.6-0.4-10.7-1.3c-3.2-0.9-5.8-1.8-7.8-2.8c-0.2-2.6-0.5-5.2-0.9-7.7s-0.8-5-1.3-7.3
				c0.6-0.2,1.3-0.4,2.1-0.4c0.7,0,1.3,0.1,1.6,0.4c0.4,0.3,0.7,0.7,0.9,1.4c0.8,2.3,1.7,4.3,2.6,6c1,1.7,2.1,3,3.4,4.1
				s2.7,1.8,4.4,2.3c1.7,0.5,3.6,0.7,5.8,0.7c1.9,0,3.5-0.3,4.8-0.8s2.4-1.2,3.3-2c0.8-0.8,1.5-1.9,1.9-3c0.4-1.2,0.6-2.3,0.6-3.6
				c0-2.6-0.7-4.7-2.2-6.1c-1.5-1.5-3.3-2.7-5.5-3.7s-4.6-1.9-7.2-2.8s-5-2-7.2-3.4s-4.1-3.1-5.5-5.3c-1.5-2.2-2.2-5.1-2.2-8.7
				c0-2.4,0.4-4.7,1.3-6.8c0.9-2.1,2.2-3.9,3.9-5.5c1.7-1.5,3.7-2.8,6.1-3.7c2.4-0.9,5.1-1.4,8.2-1.4c2.5,0,5.1,0.3,7.7,0.8
				s5.5,1.5,8.8,2.7c0.1,1.8,0.3,3.9,0.6,6.1C431,372.9,431.4,375,431.7,376.8z"/>
		</g>
		<g class="st6">
			<path d="M474.7,366.6v47.8c0,0.6,0,1.1,0.1,1.5s0.3,0.7,0.7,1c0.4,0.3,0.9,0.6,1.5,0.8c0.7,0.2,1.6,0.4,2.8,0.6
				c0.9,0.2,1.4,0.7,1.4,1.5c0,0.2,0,0.5,0,0.8c0,0.4-0.1,0.7-0.1,0.9c-1.9-0.1-4-0.2-6.2-0.3c-2.2-0.1-4.2-0.1-5.9-0.1
				c-1.8,0-3.7,0-5.9,0.1s-4.2,0.2-6.1,0.3c-0.1-0.2-0.2-0.5-0.2-0.9s0-0.6,0-0.8c0-0.4,0.1-0.8,0.2-1s0.6-0.5,1.2-0.6
				c2.2-0.3,3.7-0.7,4.2-1.2c0.6-0.5,0.9-1.4,0.9-2.6v-47.8h-8c-1.7,0-3.1,0.2-4.3,0.5c-1.2,0.3-2.2,0.8-3.1,1.5s-1.7,1.6-2.4,2.7
				c-0.7,1.1-1.4,2.5-2.1,4c-0.2,0.5-0.7,0.8-1.4,0.8c-0.4,0-0.8-0.1-1.3-0.2c-0.5-0.2-0.8-0.3-1.1-0.4c0.4-1.5,0.8-2.7,1.1-3.9
				c0.3-1.1,0.5-2.2,0.7-3.3c0.2-1.4,0.4-2.6,0.5-3.7s0.3-1.9,0.5-2.4s0.7-0.8,1.5-0.8c0.7,0,2,0.1,4,0.3c2,0.2,4.3,0.3,7.1,0.3h28
				c2.7,0,5.1-0.1,7-0.3c2-0.2,3.3-0.3,4-0.3s1.2,0.3,1.5,0.8c0.2,0.5,0.3,1.3,0.4,2.4s0.3,2.3,0.6,3.7c0.2,1.1,0.4,2.2,0.7,3.3
				c0.3,1.1,0.7,2.4,1.1,3.9c-0.3,0.1-0.7,0.3-1.1,0.4c-0.5,0.2-0.9,0.2-1.2,0.2c-0.7,0-1.2-0.3-1.5-0.8c-0.7-1.6-1.4-2.9-2.1-4
				s-1.5-2-2.4-2.7s-1.9-1.2-3.1-1.5s-2.6-0.5-4.2-0.5L474.7,366.6L474.7,366.6z"/>
		</g>
	</g>
</g>
</svg>
