<?xml version="1.0" encoding="utf-8"?>
<!-- Generator: Adobe Illustrator 24.0.3, SVG Export Plug-In . SVG Version: 6.00 Build 0)  -->
<svg version="1.1" id="Layer_1" xmlns="http://www.w3.org/2000/svg" xmlns:xlink="http://www.w3.org/1999/xlink" x="0px" y="0px"
	 viewBox="0 0 544.4 410.7" style="enable-background:new 0 0 544.4 410.7;" xml:space="preserve">
<style type="text/css">
	.st0{enable-background:new    ;}
	.st1{fill:#2B3233;}
	.st2{fill:#FFFFFF;stroke:#798E93;stroke-width:2.9103;stroke-miterlimit:10;}
	.st3{fill:none;stroke:#798E93;stroke-width:2.9103;stroke-miterlimit:10;}
	.st4{fill:#502C1E;}
	.st5{fill:#C97D31;}
	.st6{fill:#5F6638;stroke:#FFFFFF;stroke-width:2.1828;stroke-miterlimit:10;}
	.st7{fill:none;stroke:#FFFFFF;stroke-width:0.9205;stroke-linecap:round;stroke-miterlimit:10;}
	.st8{fill:#C97D31;stroke:#FFFFFF;stroke-width:1.4552;stroke-miterlimit:10;}
	.st9{fill:none;stroke:#FFFFFF;stroke-width:0.9615;stroke-linecap:round;stroke-miterlimit:10;}
	.st10{fill:#FFFFFF;}
</style>
<g>
	<g>
		<g class="st0">
			<path class="st1" d="M53.2,353.1c-0.4-2.7-1.2-5.3-2.4-7.7c-1.2-2.5-2.7-4.7-4.5-6.5c-1.8-1.9-3.9-3.4-6.2-4.5
				c-2.3-1.1-4.8-1.7-7.5-1.7c-3.5,0-6.4,0.8-8.8,2.4c-2.4,1.6-4.3,3.6-5.8,6c-1.5,2.4-2.5,5.1-3.1,8.1s-0.9,5.8-0.9,8.6
				c0,3.6,0.5,6.9,1.5,10c1,3.1,2.4,5.7,4.4,7.9c1.9,2.2,4.3,4,7.2,5.2c2.9,1.3,6.2,1.9,10.1,1.9c2.7,0,5.2-0.4,7.5-1.2
				c2.2-0.8,4.2-1.9,6-3.1c1.8-1.3,3.3-2.7,4.7-4.3c1.4-1.6,2.6-3.2,3.6-4.8l2.1,2.2c-3.3,5.6-7.4,10-12.3,13
				c-4.9,3-10.6,4.5-17.2,4.5c-4.4,0-8.4-0.7-12-2.1s-6.8-3.4-9.5-6.1c-2.7-2.6-4.8-5.8-6.3-9.5c-1.5-3.7-2.3-7.8-2.3-12.4
				c0-4.5,0.8-8.7,2.4-12.4c1.6-3.7,3.8-6.9,6.5-9.5c2.8-2.6,6.1-4.7,10-6.1c3.9-1.5,8.2-2.2,12.8-2.2c1.6,0,3.5,0.2,5.8,0.5
				c2.2,0.3,4.3,0.7,6.4,1.1c2.1,0.4,3.9,0.8,5.5,1.1c1.6,0.3,2.5,0.5,2.8,0.5c0.5,0,0.8,0,1-0.1c0,1.2,0,2.3-0.1,3.4
				c-0.1,1.1-0.1,2.2-0.1,3.4c0,2.4,0.1,4.9,0.3,7.3c0.2,2.4,0.4,4.8,0.7,7.3H53.2z"/>
		</g>
		<g class="st0">
			<path class="st1" d="M104.9,328.8c4.9,0,9.5,0.7,13.6,2.1c4.1,1.4,7.6,3.3,10.6,5.9c3,2.6,5.3,5.7,6.9,9.5
				c1.6,3.8,2.4,8,2.4,12.7s-0.8,8.9-2.4,12.7c-1.6,3.8-3.9,6.9-6.9,9.5c-3,2.6-6.5,4.5-10.6,5.9s-8.6,2.1-13.6,2.1
				c-4.9,0-9.5-0.7-13.6-2.1c-4.1-1.4-7.6-3.3-10.6-5.9c-3-2.6-5.3-5.7-6.9-9.5c-1.6-3.8-2.4-8-2.4-12.7s0.8-8.9,2.4-12.7
				c1.6-3.8,3.9-6.9,6.9-9.5c3-2.6,6.5-4.5,10.6-5.9C95.4,329.5,99.9,328.8,104.9,328.8z M104.9,331.9c-3.6,0-6.7,0.7-9.4,2.2
				c-2.6,1.5-4.8,3.4-6.5,5.9c-1.7,2.5-3,5.4-3.8,8.6c-0.8,3.2-1.2,6.7-1.2,10.3c0,3.6,0.4,7,1.2,10.2c0.8,3.3,2.1,6.1,3.8,8.6
				c1.7,2.5,3.9,4.5,6.5,5.9c2.6,1.5,5.8,2.2,9.4,2.2c3.6,0,6.7-0.7,9.4-2.2c2.6-1.5,4.8-3.4,6.5-5.9c1.7-2.5,3-5.4,3.8-8.6
				c0.8-3.3,1.2-6.7,1.2-10.2c0-3.6-0.4-7-1.2-10.3c-0.8-3.2-2.1-6.1-3.8-8.6c-1.7-2.5-3.9-4.5-6.5-5.9
				C111.6,332.6,108.5,331.9,104.9,331.9z"/>
			<path class="st1" d="M143.4,385.5c2.7-0.4,4.9-0.8,6.5-1.3c1.6-0.5,2.8-1.2,3.6-2.1c0.8-1,1.3-2.2,1.6-3.8
				c0.2-1.6,0.3-3.7,0.3-6.3l0.3-34c-0.8-0.9-1.6-1.6-2.6-2.3c-1-0.6-2-1.2-3-1.6c-1-0.4-2.1-0.8-3.2-1.1c-1.1-0.3-2.2-0.6-3.3-0.9
				V330c1.5,0.1,3,0.2,4.6,0.3c1.5,0.1,3.1,0.2,4.6,0.2c4,0,8-0.2,11.9-0.5c5.8,7.2,11.7,14.3,17.7,21.1c6,6.9,11.7,14,17.2,21.4
				h0.2c0-1.9,0-4.3,0-7.1c0-2.9,0-5.8-0.1-8.9c-0.1-3.1-0.2-6-0.4-8.9c-0.2-2.9-0.4-5.3-0.8-7.3c-0.2-1.5-0.6-2.8-1.2-3.7
				c-0.6-1-1.3-1.7-2.1-2.4s-1.9-1.1-3-1.4c-1.1-0.3-2.4-0.6-3.8-0.8V330c2,0.1,4.1,0.2,6.2,0.3c2.1,0.1,4.1,0.2,6.2,0.2
				c4.1,0,8.1-0.2,12.1-0.5v2.1c-2.3,0.1-4.1,0.4-5.4,1c-1.3,0.5-2.3,1.4-3,2.6c-0.7,1.2-1.1,2.9-1.3,4.9c-0.2,2.1-0.3,4.7-0.3,7.9
				v40.1h-5.2c-1.7-2.7-3.7-5.5-5.9-8.6c-2.2-3-4.5-6.1-6.9-9.1c-2.4-3.1-4.9-6.1-7.3-9c-2.5-3-4.8-5.8-7.1-8.4s-4.4-5-6.3-7.2
				c-1.9-2.2-3.6-4-4.9-5.4v29.6c0,3,0.1,5.3,0.3,7.1c0.2,1.8,0.7,3.2,1.5,4.2c0.8,1,1.9,1.8,3.4,2.3c1.5,0.5,3.5,0.9,6.1,1.4v2.1
				c-2.2-0.1-4.3-0.2-6.4-0.3c-2.1-0.1-4.2-0.1-6.4-0.1c-2.4,0-4.8,0-7.2,0.1c-2.3,0.1-4.7,0.1-7.2,0.3V385.5z"/>
			<path class="st1" d="M250.7,328.8c4.9,0,9.5,0.7,13.6,2.1c4.1,1.4,7.6,3.3,10.6,5.9c3,2.6,5.3,5.7,6.9,9.5
				c1.6,3.8,2.4,8,2.4,12.7s-0.8,8.9-2.4,12.7c-1.6,3.8-3.9,6.9-6.9,9.5c-3,2.6-6.5,4.5-10.6,5.9s-8.6,2.1-13.6,2.1
				c-4.9,0-9.5-0.7-13.6-2.1c-4.1-1.4-7.6-3.3-10.6-5.9c-3-2.6-5.3-5.7-6.9-9.5c-1.6-3.8-2.4-8-2.4-12.7s0.8-8.9,2.4-12.7
				c1.6-3.8,3.9-6.9,6.9-9.5c3-2.6,6.5-4.5,10.6-5.9C241.2,329.5,245.7,328.8,250.7,328.8z M221.3,393.6c2.2-1.5,4.5-2.4,6.9-2.9
				c2.4-0.5,4.9-0.7,7.4-0.7c2.6,0,5.4,0.5,8.4,1.4c3,1,6,2,9.1,3.1c3.1,1.1,6.1,2.2,9.1,3.1c3,0.9,5.8,1.4,8.3,1.4
				c3.5,0,6.5-0.6,8.9-1.7c2.4-1.2,4.8-3.1,7-5.8l1.7,1.4c-1,1.9-2.3,3.7-3.6,5.5c-1.4,1.8-2.9,3.3-4.7,4.7
				c-1.7,1.4-3.7,2.5-5.8,3.3c-2.1,0.8-4.5,1.3-7,1.3c-2.3,0-4.6-0.3-6.8-1c-2.2-0.7-4.3-1.6-6.3-2.7c-2-1.1-4-2.2-5.9-3.4
				s-3.8-2.4-5.8-3.4c-1.9-1.1-3.8-2-5.8-2.7s-3.9-1-5.9-1c-1.5,0-3,0.2-4.6,0.6c-1.6,0.4-3,0.9-4,1.6L221.3,393.6z M250.7,331.9
				c-3.6,0-6.7,0.7-9.4,2.2c-2.6,1.5-4.8,3.4-6.5,5.9c-1.7,2.5-3,5.4-3.8,8.6c-0.8,3.2-1.2,6.7-1.2,10.3c0,3.6,0.4,7,1.2,10.2
				c0.8,3.3,2.1,6.1,3.8,8.6c1.7,2.5,3.9,4.5,6.5,5.9c2.6,1.5,5.8,2.2,9.4,2.2c3.6,0,6.7-0.7,9.4-2.2c2.6-1.5,4.8-3.4,6.5-5.9
				c1.7-2.5,3-5.4,3.8-8.6c0.8-3.3,1.2-6.7,1.2-10.2c0-3.6-0.4-7-1.2-10.3c-0.8-3.2-2.1-6.1-3.8-8.6c-1.7-2.5-3.9-4.5-6.5-5.9
				C257.4,332.6,254.3,331.9,250.7,331.9z"/>
		</g>
		<g class="st0">
			<path class="st1" d="M292.1,330c5.1,0.3,10.2,0.5,15.3,0.5c5.2,0,10.3-0.2,15.5-0.5l-0.3,2.1c-2.2,0.1-3.9,0.3-5.1,0.7
				c-1.3,0.3-2.2,0.9-2.8,1.6c-0.6,0.7-1,1.7-1.2,3s-0.3,2.9-0.3,4.8v29c0,1.6,0.3,3.1,0.9,4.7c0.6,1.5,1.6,2.9,2.9,4.1
				c1.3,1.2,3,2.2,5.1,3c2.1,0.8,4.6,1.1,7.5,1.1c3.5,0,6.4-0.5,8.7-1.6c2.3-1.1,4.1-2.4,5.4-4c1.3-1.6,2.2-3.3,2.8-5.2
				c0.5-1.9,0.8-3.6,0.8-5.2v-21.5c0-2.9-0.1-5.3-0.4-7.2c-0.3-1.9-0.8-3.3-1.6-4.5c-0.8-1.1-1.8-1.9-3.1-2.4
				c-1.3-0.5-2.9-0.7-5-0.7V330c1.3,0.1,3,0.2,5,0.3c2,0.1,4.1,0.2,6.3,0.2c1.8,0,3.6-0.1,5.4-0.2c1.8-0.1,3.5-0.2,5.3-0.3v2.1
				c-1.9,0.1-3.4,0.3-4.5,0.7c-1.1,0.3-1.9,0.9-2.5,1.6c-0.6,0.7-0.9,1.7-1.1,3c-0.1,1.3-0.2,2.9-0.2,4.8v23.9
				c0,7.3-2.1,12.9-6.2,16.9s-9.9,6-17.2,6c-4.4,0-8.2-0.5-11.4-1.6c-3.2-1.1-5.8-2.5-7.9-4.2s-3.7-3.7-4.7-5.8
				c-1-2.2-1.5-4.3-1.5-6.5v-28.6c0-1.6-0.1-3-0.3-4.1s-0.6-2.2-1.2-3.1c-0.6-0.8-1.6-1.5-2.9-2s-3.1-0.8-5.4-0.9V330z"/>
			<path class="st1" d="M367.5,385.5c2-0.1,3.6-0.4,4.8-0.7c1.2-0.4,2.1-1,2.8-1.7c0.6-0.8,1.1-1.8,1.3-3c0.2-1.2,0.3-2.7,0.3-4.5
				v-33.2c0-1.6-0.1-3.1-0.3-4.3s-0.6-2.2-1.3-3.1c-0.6-0.8-1.6-1.4-2.8-1.9c-1.2-0.4-2.8-0.7-4.8-0.7V330c3,0.1,6,0.2,8.9,0.3
				c3,0.1,6,0.2,8.9,0.2c5.6,0,11.3-0.1,16.9-0.2c5.6-0.1,11.3-0.2,17.1-0.3c-0.1,1-0.1,2.1-0.1,3.1c0,1,0,2.1,0,3.1
				c0,1.8,0,3.6,0.1,5.3c0.1,1.7,0.3,3.3,0.6,4.8l-1.9,0.3c-1.4-4.4-3.6-7.8-6.7-10c-3.1-2.2-7.5-3.4-13.3-3.4h-9.8v21.2h4.5
				c1.5,0,3-0.2,4.5-0.6c1.5-0.4,2.8-1,4.1-1.8c1.3-0.8,2.3-2,3.3-3.4c0.9-1.4,1.6-3.1,2.1-5.2h1.7c-0.1,2-0.1,4.1-0.2,6.2
				s-0.1,4.2-0.1,6.2c0,2.1,0,4.2,0.1,6.2c0.1,2.1,0.2,4.1,0.2,6.2h-1.7c-0.5-2.2-1.1-4-2-5.4s-1.9-2.6-3.1-3.5
				c-1.2-0.9-2.5-1.5-4-1.9s-3.1-0.6-4.8-0.6h-4.5v25.9c1.4,0.4,3,0.7,4.7,0.9c1.7,0.2,3.6,0.3,5.7,0.3c5.7,0,10.9-1.4,15.5-4.1
				c4.6-2.7,8.5-6.9,11.7-12.6l1.7,1.2c-1.5,3.1-2.8,6.2-4.1,9.3c-1.3,3.1-2.5,6.3-3.4,9.5c-4.5-0.1-9.1-0.2-13.5-0.3
				c-4.5-0.1-9-0.1-13.5-0.1c-2.8,0-5.5,0-8.1,0c-2.6,0-4.9,0-7.1,0c-2.2,0-4.1,0.1-5.9,0.1c-1.7,0.1-3.1,0.1-4.2,0.2V385.5z"/>
		</g>
		<g class="st0">
			<path class="st1" d="M477,347.4c-0.6-2.2-1.5-4.2-2.8-6c-1.3-1.9-2.8-3.5-4.5-4.9c-1.7-1.4-3.6-2.5-5.6-3.3
				c-2-0.8-4.1-1.2-6.2-1.2c-2.6,0-4.8,0.7-6.7,2.1c-1.8,1.4-2.8,3.4-2.8,6.2c0,2.1,0.8,3.9,2.5,5.3c1.7,1.5,3.7,2.8,6.2,4
				c2.5,1.2,5.2,2.4,8.1,3.6c2.9,1.2,5.6,2.7,8.1,4.4c2.5,1.7,4.6,3.8,6.2,6.2c1.7,2.4,2.5,5.4,2.5,8.9c0,2.5-0.5,4.8-1.5,6.8
				c-1,2-2.4,3.8-4.2,5.2c-1.8,1.4-4,2.5-6.5,3.3c-2.6,0.8-5.4,1.2-8.6,1.2c-1.5,0-2.9-0.1-4.4-0.4c-1.5-0.3-2.9-0.6-4.3-0.9
				c-1.4-0.3-2.9-0.6-4.3-0.9c-1.5-0.3-2.9-0.4-4.4-0.4c-0.2,0-0.5,0-0.9,0.1c-0.4,0.1-0.8,0.2-1.2,0.3c-0.4,0.1-0.9,0.2-1.3,0.3
				c-0.4,0.1-0.7,0.2-1,0.3c-0.5-3.3-1-6.5-1.5-9.9c-0.5-3.3-1.2-6.7-2-10h1.9c0.6,2.2,1.7,4.3,3.1,6.4c1.5,2.1,3.2,4,5.1,5.6
				s4.1,3,6.3,4c2.3,1,4.5,1.5,6.7,1.5c1.9,0,3.7-0.1,5.2-0.4c1.6-0.3,2.9-0.8,4.1-1.4c1.1-0.7,2-1.6,2.6-2.7
				c0.6-1.1,0.9-2.6,0.9-4.3c0-2.4-0.8-4.4-2.5-6c-1.7-1.6-3.8-3.1-6.3-4.4c-2.5-1.3-5.3-2.6-8.2-3.8c-2.9-1.2-5.7-2.6-8.2-4.2
				c-2.5-1.6-4.6-3.4-6.3-5.6c-1.7-2.2-2.5-4.8-2.5-7.9c0-5.5,1.7-9.4,5-11.9c3.3-2.5,8.4-3.7,15.1-3.7c1.7,0,3.4,0.1,5.1,0.4
				c1.6,0.3,3.2,0.6,4.6,0.9c1.5,0.3,2.8,0.7,4.1,0.9c1.3,0.3,2.5,0.4,3.6,0.4h3.1c-0.1,1-0.1,1.9-0.2,2.8c-0.1,0.9-0.1,1.8-0.1,2.7
				c0,1.7,0.1,3.4,0.2,5.2c0.1,1.8,0.3,3.6,0.4,5.2H477z"/>
		</g>
		<g class="st0">
			<path class="st1" d="M541,348.2c-0.6-3.3-1.5-5.8-2.6-7.7c-1.1-1.9-2.4-3.3-4-4.3c-1.6-1-3.4-1.6-5.4-1.9c-2-0.3-4.4-0.4-7-0.4
				v41.7c0,2,0.1,3.6,0.3,4.8s0.6,2.3,1.2,3c0.6,0.8,1.6,1.3,2.9,1.7s3,0.6,5.2,0.8v1.7c-2.4-0.1-4.9-0.2-7.4-0.3
				c-2.5-0.1-5-0.1-7.5-0.1c-2.7,0-5.3,0-7.9,0.1c-2.6,0.1-5.3,0.1-8.1,0.3v-1.7c2.2-0.2,4-0.4,5.2-0.8c1.3-0.3,2.2-0.9,2.9-1.7
				s1-1.8,1.2-3c0.2-1.3,0.3-2.9,0.3-4.8v-41.7c-2.6,0-4.9,0.1-7,0.4c-2,0.3-3.8,0.9-5.4,1.9s-2.9,2.4-4,4.3
				c-1.1,1.9-1.9,4.5-2.6,7.7h-2.3c0.1-1.1,0.2-2.2,0.3-3.4c0.1-1.1,0.2-2.4,0.3-3.8s0.2-3,0.2-4.8c0.1-1.8,0.1-3.9,0.1-6.3
				c4.4,0.1,8.7,0.2,12.9,0.3c4.2,0.1,8.5,0.2,12.8,0.2c4.4,0,8.7-0.1,13.1-0.2c4.4-0.1,8.8-0.2,13.2-0.3c0,2.4,0,4.5,0.1,6.3
				c0.1,1.8,0.1,3.4,0.2,4.8c0.1,1.4,0.2,2.7,0.3,3.8c0.1,1.1,0.2,2.3,0.3,3.4H541z"/>
		</g>
	</g>
	<g>
		<g>
			<polygon class="st2" points="294.7,38.5 291.3,35.4 169.5,160.4 147.8,199.7 184.8,174.3 298.2,41.6 			"/>
			<line class="st3" x1="306.2" y1="25.7" x2="147.7" y2="199.6"/>
		</g>
		<path class="st4" d="M326.3,15.5c-2.1,2.3-5.4,3.1-8.2,2.2c-4.3,8.3-10.8,16.1-18.5,23.5l4.8,4.4c4.2,3.8,4.5,10.3,0.7,14.5
			l-0.9,1c-1.1,1.2-2.6,0.4-1.9-1c0.2-0.9,0.2-1.8,0.2-2.7c-0.2-2.6-1.4-5-3.3-6.8l-16.9-15.4c-2.7-2.4-6.4-3.3-9.8-2.3
			c-0.2,0.1-0.5,0.2-0.7,0.2c-0.9,0.1-1.4-1.1-0.5-2.1l0.9-1c3.8-4.2,10.3-4.5,14.5-0.7l4.8,4.4c7.1-8.9,14.3-16.5,21.7-20.7
			c-1.1-2.7-0.7-6,1.5-8.4c2.9-3.2,7.9-3.4,11.2-0.5C329.1,7.3,329.3,12.3,326.3,15.5z"/>
		<g>
			<polygon class="st2" points="230.4,38.5 233.8,35.4 355.6,160.4 377.3,199.7 340.4,174.3 227,41.6 			"/>
			<line class="st3" x1="218.9" y1="25.7" x2="377.4" y2="199.6"/>
		</g>
		<path class="st4" d="M198.8,15.5c2.1,2.3,5.4,3.1,8.2,2.2c4.3,8.3,10.8,16.1,18.5,23.5l-4.8,4.4c-4.2,3.8-4.5,10.3-0.7,14.5l0.9,1
			c1.1,1.2,2.6,0.4,1.9-1c-0.2-0.9-0.2-1.8-0.2-2.7c0.2-2.6,1.4-5,3.3-6.8l16.9-15.4c2.7-2.4,6.4-3.3,9.8-2.3
			c0.2,0.1,0.5,0.2,0.7,0.2c0.9,0.1,1.4-1.1,0.5-2.1l-0.9-1c-3.8-4.2-10.3-4.5-14.5-0.7l-4.8,4.4c-7.1-8.9-14.3-16.5-21.7-20.7
			c1.1-2.7,0.7-6-1.5-8.4c-2.9-3.2-7.9-3.4-11.2-0.5C196.1,7.3,195.8,12.3,198.8,15.5z"/>
		<path class="st5" d="M296.8,263.8c-8.4,8.6-19.8,13.7-31.6,13.7c-22.4,0-36.2-18.4-36.2-40.8c0-17.9,13.5-36.6,27.4-36.1
			c8.3,0.3,0.3-14.4,8.8-14.6C299.9,185.2,325.7,234,296.8,263.8z"/>
		<path class="st6" d="M280.7,270.7c-9.8,9.8-23.1,14.4-36.9,14.4c-26.2,0-42.2-19.8-42.2-45.1c0-20.2,15.8-41.4,32-40.9
			c9.7,0.3,0.3-16.3,10.3-16.5C284.4,181.7,314.5,236.9,280.7,270.7z"/>
		<path class="st6" d="M284.1,203.3c-10.3-13.1-17.8-21.8-46.4-27.9c-13.1-2.8-18.4-8.5-19.4-10.3c-5.4-9.6,1.7-24.2,3.4-28.1
			c3-7-8.7-4.5-15.8-7.5c-7-3-8.7-10.3-11.7-3.3c-1.3,3.2-10.7,30.7,2.1,53.4c8.9,15.8,24.4,20.2,37.5,23.1
			c29.7,2.2,28.5,33.1,28.5,33.1"/>
		<g>
			<g>
				<g>
					<g>
						<path class="st7" d="M220.8,272.7c0,0-2.1,2.4-3.8,5.6c-1.6,3.2-2.8,7.3-0.1,10.5"/>
						<path class="st7" d="M228.5,272.3c0,0-2,2.5-3.5,5.8s-2.5,7.4,0.4,10.5"/>
						<path class="st7" d="M236.1,271.5c0,0-0.4,0.7-1.1,1.8c-0.6,1.1-1.4,2.6-2.1,4.2c-1.3,3.3-2.1,7.5,0.9,10.5"/>
						<path class="st7" d="M243.5,270.3c0,0-1.6,2.8-2.6,6.2c-1.1,3.4-1.6,7.6,1.6,10.4"/>
						<path class="st7" d="M250.6,268.4c0,0-0.3,0.7-0.7,1.9c-0.4,1.1-1,2.7-1.3,4.5c-0.7,3.5-1,7.7,2.5,10.2"/>
						<path class="st7" d="M257.4,266c0,0-0.9,2.9-1.3,6.6c-0.4,3.5-0.3,7.7,3.5,9.9"/>
						<path class="st7" d="M263.6,262.7c0,0-0.1,0.8-0.2,2s-0.2,2.9-0.1,4.7c0.1,3.5,0.7,7.7,4.7,9.4"/>
						<path class="st7" d="M268.9,258.7c0,0,0,0.7,0.2,1.9c0.1,1.2,0.4,2.9,0.7,4.6c0.3,1.7,0.8,3.6,1.7,5.2
							c0.9,1.6,2.3,2.9,4.5,3.3"/>
						<path class="st7" d="M273.2,254c0,0,0.2,0.7,0.6,1.8c0.4,1.1,0.9,2.7,1.6,4.3c0.7,1.7,1.5,3.4,2.7,4.8s2.8,2.4,5,2.4"/>
						<path class="st7" d="M276.4,248.5c0,0,0.4,0.6,1,1.6c0.3,0.5,0.7,1.1,1.1,1.8c0.4,0.7,0.9,1.4,1.4,2.1c1,1.5,2.2,3,3.7,4.1
							s3.2,1.7,5.4,1.2"/>
						<path class="st7" d="M278.2,242.4c0,0,0.5,0.5,1.4,1.4c0.8,0.8,1.9,2,3.3,3.2c1.3,1.2,2.8,2.4,4.5,3.2c1.7,0.7,3.5,1,5.6,0"/>
						<path class="st7" d="M278.7,236c0,0,0.6,0.4,1.6,1.1s2.4,1.6,3.9,2.5s3.3,1.8,5,2.2c1.8,0.4,3.6,0.2,5.4-1.2"/>
						<path class="st7" d="M278,229.4c0,0,0.7,0.3,1.8,0.8c0.6,0.2,1.2,0.5,2,0.8c0.7,0.3,1.5,0.6,2.3,0.9c1.7,0.6,3.6,1.1,5.4,1.2
							c1.8,0,3.6-0.5,5.1-2.2"/>
						<path class="st7" d="M276.1,222.9c0,0,2.9,0.9,6.4,1.6c1.8,0.3,3.7,0.5,5.5,0.2s3.5-1.1,4.6-3"/>
					</g>
					<g>
						<path class="st7" d="M273.9,218c0,0,0.2,0,0.5,0.1c0.3,0,0.8,0.1,1.4,0.2c1.2,0.1,2.9,0.3,4.6,0.4c1.8,0.1,3.7,0,5.5-0.5
							c1.7-0.5,3.3-1.6,4.2-3.6"/>
						<path class="st7" d="M270,212.4c0,0,0.8,0,2,0s2.9-0.2,4.7-0.4c1.8-0.3,3.7-0.7,5.3-1.5c1.6-0.8,3-2.1,3.5-4.3"/>
						<path class="st7" d="M265.3,207.1c0,0,0.8-0.1,2-0.3c1.2-0.2,2.8-0.5,4.6-1c3.4-1,7.4-2.7,7.9-6.9"/>
						<path class="st7" d="M260,202.6c0,0,3-0.7,6.4-2.1c3.2-1.4,6.9-3.5,6.9-7.9"/>
						<path class="st7" d="M254,198.7c0,0,0.7-0.3,1.8-0.8c1.1-0.5,2.7-1.3,4.2-2.1c3-1.8,6.4-4.4,5.8-8.7"/>
						<path class="st7" d="M247.6,195.6c0,0,0.7-0.4,1.8-1c1.1-0.6,2.5-1.6,3.9-2.6c2.8-2.2,5.8-5.2,4.7-9.4"/>
						<path class="st7" d="M240.7,193.1c0,0,0.7-0.4,1.7-1.2c1-0.7,2.3-1.8,3.6-3c2.5-2.5,5.2-5.8,3.6-9.9"/>
						<path class="st7" d="M233.4,191.3c0,0,0.7-0.5,1.6-1.3c1-0.8,2.2-2,3.4-3.3c2.3-2.7,4.5-6.3,2.7-10.2"/>
						<path class="st7" d="M224.2,188.7c0,0,0.9-0.3,2.1-0.9s2.8-1.6,4.1-2.9c1.3-1.3,2.3-3,2.8-4.7c0.3-0.9,0.4-1.8,0.4-2.7
							c0-0.5-0.1-0.9-0.2-1.4c0-0.2-0.1-0.5-0.2-0.7l-0.1-0.3v-0.3"/>
						<path class="st7" d="M215.7,184.1c0,0,0.9-0.1,2.2-0.5c1.3-0.4,3-1,4.5-2c1.6-1,3-2.3,3.9-3.9s1.4-3.4,1.3-5.3"/>
						<path class="st7" d="M207.6,176.8c0,0,0.2,0.1,0.6,0.2s0.9,0.2,1.5,0.4c0.6,0.2,1.3,0.3,2,0.3s1.3-0.1,2-0.3
							c1.3-0.3,2.7-0.9,3.9-1.7c2.4-1.5,4.1-4,4.5-6.9"/>
						<path class="st7" d="M202.9,167.1c0,0,0.2,0.1,0.5,0.3c0.3,0.2,0.9,0.5,1.5,0.7c0.6,0.3,1.4,0.6,2.2,0.8
							c0.8,0.2,1.7,0.4,2.7,0.5c1.8,0.2,3.8-0.1,5.4-0.9c1.7-0.8,3.1-2,4.2-3.4"/>
						<path class="st7" d="M201,157.7c0,0,0.7,0.6,1.8,1.3c1.1,0.7,2.7,1.6,4.4,2.1c1.8,0.6,3.7,0.8,5.5,0.5s3.5-1.1,4.9-2.4"/>
						<path class="st7" d="M200.5,148.7c0,0,2.4,2.6,5.7,4.1c3.3,1.6,7.4,2,10.5-0.4"/>
					</g>
				</g>
			</g>
		</g>
		<path class="st8" d="M230.3,245c-3.2-16.1,1-32.8,8.7-43.7c9.6-13.6,26.7-22.1,52.5-25.9c13.3-2,18.4-8.5,19.4-10.3
			c5.4-9.6-1.7-24.2-3.4-28.1c-3-7,7.6-5.4,14.6-8.4c7-3,9.9-9.4,12.9-2.4c1.3,3.2,10.7,30.7-2.1,53.4
			c-8.9,15.8-25.5,20.1-37.5,23.1c-18.2,4.5-25,6.5-29.8,13.4c-2,2.9-4.4,8-2.2,19.3c1.5,7.5-6.4,15.9-13.9,17.3
			C239.8,254.6,231.6,251.5,230.3,245z"/>
		<g>
			<path class="st9" d="M247.1,239.8c0,0-0.5,0.7-1.4,1.8c-0.8,1.1-2,2.6-3.4,4c-2.7,2.8-6.2,5.9-10.6,2.9"/>
			<path class="st9" d="M246.6,230.7c0,0-2.7,2.4-5.9,4.8c-1.6,1.1-3.5,2.2-5.3,2.6c-1.9,0.4-3.9,0-5.6-1.9"/>
			<path class="st9" d="M248,221.7c0,0-0.8,0.4-2,1.1c-1.2,0.6-2.9,1.5-4.7,2.3c-1.9,0.8-3.8,1.5-5.7,1.4c-1.9,0-3.8-0.8-5.2-3"/>
			<path class="st9" d="M251.3,213.5c0,0-0.8,0.2-2.2,0.5c-0.7,0.2-1.5,0.3-2.3,0.6c-0.9,0.2-1.8,0.4-2.8,0.6c-2,0.3-4,0.6-5.9,0.2
				c-1.8-0.4-3.5-1.6-4.4-4.1"/>
			<path class="st9" d="M256.4,206.9c0,0-0.8-0.1-2.2-0.2c-1.3-0.1-3.1-0.3-5.1-0.4c-2-0.2-4.1-0.5-5.8-1.4
				c-1.7-0.9-3.1-2.4-3.1-5.1"/>
			<path class="st9" d="M263.5,201.8c0,0-0.9-0.3-2.2-0.7c-1.3-0.4-3.1-1-4.9-1.8c-1.8-0.7-3.7-1.7-5.1-3c-1.3-1.4-2.1-3.2-1.4-5.8"
				/>
			<path class="st9" d="M272.3,197.8c0,0-0.9-0.4-2.2-1c-1.3-0.6-3-1.5-4.7-2.6c-3.3-2.2-6.7-5.2-4.6-9.9"/>
			<path class="st9" d="M281.9,194.8c0,0-3.4-1.6-6.5-4.2c-3-2.5-5.9-6-3.4-10.4"/>
			<path class="st9" d="M292.1,192.4c0,0-3.4-1.8-6.4-4.6c-2.9-2.8-5.4-6.5-2.7-10.6"/>
			<path class="st9" d="M302.6,190.4c0,0-3.4-1.9-6.2-4.8c-2.8-2.9-5-6.7-2.2-10.8"/>
			<path class="st9" d="M316.1,184.6c0,0-0.3,0-0.8,0.1c-0.5,0-1.3,0-2.1,0c-1.7-0.1-3.9-0.6-5.7-1.7c-1.8-1-3.2-2.6-3.9-4.4
				c-0.7-1.8-0.8-3.7-0.5-5.7"/>
			<path class="st9" d="M325.4,173.8c0,0-0.2,0.1-0.7,0.3c-0.5,0.2-1.1,0.5-1.9,0.8c-1.6,0.5-3.7,1-5.8,0.8
				c-2.1-0.1-4.1-0.9-5.5-2.1c-1.5-1.2-2.4-2.9-3-4.9"/>
			<path class="st9" d="M329.2,160c0,0-0.7,0.9-1.9,1.9c-1.2,1.1-2.9,2.3-4.8,3.1c-1.9,0.8-4,1.1-5.9,0.6c-1.9-0.4-3.5-1.5-4.9-3"/>
			<path class="st9" d="M328.9,146.9c0,0-0.1,0.3-0.3,0.8c-0.2,0.5-0.6,1.1-1,1.8c-0.9,1.4-2.3,3-4,4.2s-3.6,2-5.5,2.2
				c-1.9,0.1-3.8-0.5-5.5-1.9"/>
		</g>
		<path class="st8" d="M314.5,127.9c2-4.3-4.7-5.7-8-17.3c-3.8-13.1-9.7-20.9,1-23.5c4.9-1.2,2.7,3.1,4.4,5.9
			c3.4,5.7,1.9,5.5,6.9,9.8c0,0,12.6-12.1,15.7,11.2c0,0,14.6,6.6,14.9,23.4c0.4,16.7,9.7,15.8,9.7,15.8s-10.5,4-17.4-16.1
			c-2.3-6.8-6-6.6-6-6.6s-0.6,11.1-8.4,14c-4.2,1.6-10.4,0.7-19.6-5.4c-26.4-17.6-28.2-23.9-25.3-28.5c0,0,8.9,10.3,13.4,11
			C300.3,122.4,310.5,121.7,314.5,127.9z"/>
		<path class="st6" d="M211.7,127.9c-2-4.3,4.7-5.7,8-17.3c3.8-13.1,9.7-20.9-1-23.5c-4.9-1.2-2.7,3.1-4.4,5.9
			c-3.4,5.7-1.9,5.5-6.9,9.8c0,0-12.6-12.1-15.7,11.2c0,0-14.6,6.6-14.9,23.4c-0.4,16.7-9.7,15.8-9.7,15.8s10.5,4,17.4-16.1
			c2.3-6.8,6-6.6,6-6.6s0.6,11.1,8.4,14c4.2,1.6,10.4,0.7,19.6-5.4c26.4-17.6,28.2-23.9,25.3-28.5c0,0-8.9,10.3-13.4,11
			S215.7,121.7,211.7,127.9z"/>
		<path class="st10" d="M200.1,115.7c0,0-2.2-5-0.6-8.1c1.7-3.1,4.9-0.4,6.4-1.9c-2.8,1.8-1.7,7-6.1,8.2"/>
		<path class="st10" d="M325.7,115.9c0,0,2.2-5,0.6-8.1c-1.7-3.1-4.9-0.4-6.4-1.9c2.8,1.8,1.7,7,6.1,8.2"/>
	</g>
</g>
</svg>
