<?xml version="1.0" encoding="utf-8"?>
<!-- Generator: Adobe Illustrator 24.0.3, SVG Export Plug-In . SVG Version: 6.00 Build 0)  -->
<svg version="1.1" id="Layer_1" xmlns="http://www.w3.org/2000/svg" xmlns:xlink="http://www.w3.org/1999/xlink" x="0px" y="0px"
	 viewBox="0 0 498.4 440" style="enable-background:new 0 0 498.4 440;" xml:space="preserve">
<style type="text/css">
	.st0{fill:none;}
	.st1{enable-background:new    ;}
	.st2{fill:#F0FF85;}
	.st3{fill:#FFFFFF;stroke:#000000;stroke-width:1.7209;stroke-miterlimit:10;}
	.st4{fill:none;stroke:#000000;stroke-width:2.3859;stroke-miterlimit:10;}
	.st5{fill:#FFFFFF;stroke:#000000;stroke-width:2.3859;stroke-miterlimit:10;}
	.st6{stroke:#FFFFFF;stroke-width:2.0645;stroke-miterlimit:10;}
	.st7{fill:#FFFFFF;}
</style>
<g>
	<g>
		<g>
			<g>
				<path d="M276.2,67.9l-0.8,0.9l1.9,1.8l0.8-0.9L276.2,67.9z"/>
				<path d="M222.1,67.9L222.1,67.9l0.8,0.9l0,0L222.1,67.9z M243.9,102.3l-2-2.2l0,0"/>
				<path d="M375.7,233.2l-5.3-3.9l-0.3-0.2l-35.6-26.2l-5.6-6.2c0.1-0.5,0.3-1.1,0.4-1.6c0.1-0.4,0.2-0.8,0.3-1.3l6.7,7.4l25,18.3
					l-30.8-32.7c0-0.7,0.1-1.4,0.1-2.2c0-0.5,0-0.9,0-1.4l32.7,34.8l-16.9-26.5l-16.1-16.4c-0.1-0.9-0.2-1.9-0.3-2.8
					c0-0.3-0.1-0.6-0.1-0.9l18.4,18.7l0.1,0.1l23.6,37.1l0.2,0.3L375.7,233.2z"/>
				<path d="M169,197.2l-5.2,5.8l-0.1,0.1l-35.4,26l0,0l-0.3,0.3l-5.3,3.9l3.5-5.5l0.2-0.3l23.8-37.3l17.6-17.9c0,0.3-0.1,0.7-0.1,1
					c-0.1,0.9-0.2,1.9-0.3,2.8l-15.5,15.7l-16.8,26.4l32.1-34.2c0,0.5,0,0.9,0.1,1.4c0,0.7,0.1,1.4,0.2,2.1l-30.3,32.2l25-18.4
					l6.2-6.9c0.1,0.5,0.2,0.9,0.3,1.3C168.7,196.2,168.8,196.7,169,197.2z"/>
				<polygon points="126.1,227.6 126.3,227.4 126.1,227.7 				"/>
				<polygon points="128.2,229.1 128,229.4 127.9,229.3 				"/>
				<polygon points="278.1,69.6 277.3,70.5 275.4,68.8 276.2,67.9 				"/>
			</g>
			<g>
				<path d="M222.1,67.9l-1.9,1.8l0.8,0.9l1.9-1.8L222.1,67.9z"/>
				<path d="M302,152.9c0,0.1,0.1,0.1,0.1,0.2c-0.1-0.1-0.2-0.2-0.3-0.2v-0.1l-0.9-0.5c0,0-0.1-0.1-0.2-0.1l-0.6-0.4l0,0
					c-1.2-0.7-2.7-1.3-4.3-1.7l-43.1-45.9l-1.6-1.7l-1.9-2l-1.8-1.9l-1.9-2l-1.6-1.7L221,70.5l1.9-1.8l22.8,24.2l1.6,1.7l1.9,2
					L302,152.9z"/>
				<polygon points="222.9,68.8 221,70.5 220.2,69.6 222.1,67.9 				"/>
				<polygon points="370.1,229.1 370.4,229.3 370.4,229.4 				"/>
				<polygon points="372.2,227.6 372.2,227.7 372,227.4 				"/>
			</g>
		</g>
		<g>
			<g>
				<path d="M249.2,104.6l-1.9-2.1l-1.7-1.9l-1.9-2.1l-1.6-1.8l-22.4-24.8l1.4-1.3l-0.8-0.9l1.9-1.8l0,0l0.8,0.9l1.3-1.3l23.2,23.6
					l1.7,1.7l1.9,1.9l1.8,1.8l1.9,1.9l1.7,1.7l37.4,38c-0.1-0.3-0.2-0.5-0.2-0.8c-0.4-1.5-0.9-2.9-1.4-4.3l-34.2-34.7l23.3-25.8
					l0.8-0.9l-8-7.5l-24.8,25.3l-24-24.4l-0.8-0.8l-8,7.5l0.8,0.9l23.3,25.8l-35.1,35.7c-0.5,1.3-1.5,4.7-1.6,5l38.2-38.9l0,0
					l1.9,2.2l0,0l-47.6,50.6c0,0.1-0.1,0.1-0.1,0.2c0.1-0.1,0.2-0.2,0.3-0.2v-0.1l0.9-0.5c0,0,0.1-0.1,0.2-0.1l0.6-0.4l0,0
					c1.2-0.7,2.7-1.3,4.3-1.7l43.1-45.9l1.9,2.2l0,0l-38.4,42.7c0.3,0,0.7-0.1,1.1-0.1h0.4c0.7-0.1,1.3-0.1,1.9-0.2l36.6-40.7
					l36.6,40.7c0.6,0.1,1.2,0.1,1.9,0.2h0.4c0.4,0,0.7,0,1.1,0.1l-38.4-42.7L249.2,104.6z M274.1,67.5l1.4,1.3l0.8-0.9l1.9,1.8
					l-0.8,0.9l1.4,1.3l-22.4,24.9l-1.8-1.9l22.8-24.3l-1.9-1.8L252.7,93l-1.8-1.9L274.1,67.5z"/>
				<polygon points="222.9,68.8 222.9,68.8 221,70.5 220.2,69.6 222.1,67.9 222.1,67.9 				"/>
			</g>
		</g>
		<path d="M306.4,48.6c-2,2.1-4.9,2.7-7.5,1.8c-4.1,7.4-10.1,14.3-17.3,20.9l4.3,4.1c3.7,3.6,3.8,9.4,0.3,13.1l-0.8,0.9
			c-1,1.1-2.4,0.3-1.7-0.9c0.2-0.8,0.3-1.6,0.2-2.5c-0.1-2.3-1.1-4.6-2.9-6.3l-14.9-14.2c-2.4-2.2-5.7-3.1-8.8-2.3
			c-0.2,0.1-0.4,0.2-0.6,0.2c-0.8,0-1.2-1-0.4-1.9l0.8-0.9c3.5-3.7,9.4-3.8,13.1-0.3l4.3,4.1c6.7-7.9,13.4-14.6,20.1-18.3
			c-1-2.5-0.5-5.5,1.5-7.5c2.7-2.9,7.3-2.9,10.1-0.2C309.1,41.2,309.2,45.7,306.4,48.6z"/>
		<path d="M191.9,48.6c2,2.1,4.9,2.7,7.5,1.8c4.1,7.4,10.1,14.3,17.3,20.9l-4.3,4.1c-3.7,3.6-3.8,9.4-0.3,13.1l0.8,0.9
			c1,1.1,2.4,0.3,1.7-0.9c-0.2-0.8-0.3-1.6-0.2-2.5c0.1-2.3,1.1-4.6,2.9-6.3l14.9-14.3c2.4-2.2,5.7-3.1,8.8-2.3
			c0.2,0.1,0.4,0.2,0.6,0.2c0.8,0,1.2-1,0.4-1.9l-0.8-0.9c-3.5-3.7-9.4-3.8-13.1-0.3l-4.3,4.1c-6.7-7.9-13.4-14.6-20.1-18.3
			c1-2.5,0.5-5.5-1.5-7.5c-2.7-2.9-7.3-2.9-10.1-0.2C189.2,41.2,189.1,45.7,191.9,48.6z"/>
		<path d="M216,268.5c-0.1-3.8,0.1-7.6,0.6-11.4c1.2,1.4,2.9,2.1,4.8,2.1h0.1c2.1,0,4.1-0.7,6.1-1.6c1.6-0.7,3.2-1.5,4.4-2.1
			l2.6-1.4c0.2-0.1,0.3-0.4,0.2-0.7c-0.1-0.2-0.4-0.3-0.7-0.2l-2.6,1.4c-1.2,0.6-2.7,1.4-4.3,2.1c-1.8,0.8-3.8,1.5-5.7,1.5l0,0
			c-1.9,0-3.4-0.8-4.5-2.3c1.1-3.4,2.7-6.6,4.5-9.6c0.7,0.6,1.6,1,2.6,1.2c0.8,0.2,1.6,0.2,2.4,0.2c1.3,0,2.7-0.2,4-0.4
			c0.9-0.2,1.9-0.4,2.9-0.6l4.7-1.1c0.3-0.1,0.4-0.3,0.4-0.6c-0.1-0.3-0.3-0.4-0.6-0.4l-4.7,1.1c-1,0.2-1.9,0.4-2.8,0.6
			c-2,0.3-4,0.6-5.9,0.2c-0.9-0.2-1.6-0.5-2.3-1.1c1.7-2.6,3.6-5,5.7-7l0,0c0.4-0.4,0.8-0.8,1.3-1.1c0.2-0.2,0.4-0.4,0.6-0.5
			c0.3,0.1,0.6,0.3,0.9,0.4c0.8,0.3,1.6,0.4,2.4,0.6l0,0c0.8,0.1,1.5,0.2,2.3,0.3l7.6,0.6l0,0c0.3,0,0.5-0.2,0.5-0.5
			s-0.2-0.5-0.5-0.5l-7.6-0.6c-0.1,0-0.2,0-0.3,0l0,0c-0.8-0.1-1.7-0.2-2.5-0.4s-1.5-0.3-2.2-0.6l0.1-0.1l0,0
			c3.2-2.4,6.7-3.9,10.2-4.2l0,0l0,0c0.7-0.1,1.4-0.1,2.2-0.1h0.1c0.6,0,1,0,1.5-0.2c0.2,0.1,0.3,0.1,0.5,0.2c0.7,0.3,1.4,0.5,2,0.7
			l0,0l0,0c0.3,0.1,0.6,0.2,0.8,0.3c0.3,0.1,0.6,0.2,0.8,0.3l0,0c0.9,0.3,1.5,0.4,1.5,0.4h0.1c0.2,0,0.4-0.1,0.5-0.4
			s-0.1-0.5-0.3-0.6l0,0c-0.1,0-0.8-0.2-1.7-0.5l0,0c-0.2-0.1-0.4-0.1-0.6-0.2c-0.7-0.2-1.4-0.5-2.2-0.7c-0.1,0-0.2-0.1-0.3-0.1
			c0.6-0.5,1-1.2,1.3-2.1c0.2-0.5,0.3-1.1,0.3-1.7c0.1-1,0.1-2,0.2-3v-1.4c0-0.4,0.1-0.9,0.1-1.3c0.2,0.2,0.3,0.5,0.5,0.7
			c0.2,0.3,0.4,0.5,0.7,0.7c0.5,0.5,1,0.9,1.5,1.4c0.3,0.2,0.6,0.5,0.9,0.7s0.6,0.4,0.9,0.6c0,0,0,0,0.1,0c1.4,0.9,3.1,1.8,4.9,2.7
			c0.2,0.1,0.3,0.1,0.4,0.2c0.4,0.2,0.8,0.4,1.1,0.5c0.5,0.2,0.8,0.3,0.8,0.3c0.1,0,0.1,0,0.2,0c0.2,0,0.4-0.1,0.5-0.3
			c0.1-0.3,0-0.5-0.3-0.6c0,0-0.1,0-0.2-0.1c-0.2-0.1-0.6-0.2-1-0.5c-0.3-0.1-0.6-0.3-1-0.5c-1.7-0.8-3.2-1.7-4.6-2.6
			c-0.1,0-0.1-0.1-0.2-0.1c-0.3-0.2-0.5-0.3-0.8-0.5s-0.6-0.5-0.9-0.7c-0.5-0.4-1.1-0.9-1.5-1.4c-0.2-0.3-0.5-0.5-0.7-0.8
			c-0.4-0.5-0.7-1-0.9-1.5l0,0c0.3-1.3,1-2.4,2.2-2.9c0.3-0.1,0.6-0.2,1-0.3c0.3-0.1,0.6-0.1,0.9-0.1l0,0h0.1c0.6,0,1.3,0,1.9,0
			c0.4,0,0.8,0,1.2,0.1c0.1,0,0.2,0,0.2,0c0.7,0,1.5,0.1,2.2,0.2c0.2,0,0.5,0.1,0.7,0.1c0.1,0.2,0.2,0.4,0.3,0.5l0,0
			c0.7,1.3,1.7,2.4,2.6,3.2l0,0c0.2,0.2,0.4,0.4,0.6,0.6s0.3,0.3,0.5,0.4c1.7,1.4,3.4,2.5,4.8,3.3l0,0c1.2,0.7,2.1,1.1,2.1,1.1
			c0.1,0,0.2,0,0.2,0c0.1,0,0.2,0,0.2-0.1c0.1,0,0.2-0.1,0.2-0.2c0.1-0.3,0-0.6-0.2-0.7c0,0-0.6-0.3-1.5-0.8l0,0
			c-1.3-0.7-3.3-2-5.2-3.5c-1.6-1.3-2.7-2.6-3.4-3.8c0.2,0,0.5,0.1,0.7,0.1c9.7,1.9,18.4,7.5,24.9,15.1c-0.7,0.2-1.3,0.3-1.9,0.5
			c-2.7,0.7-5.2,1.3-7.5,1.9c-0.4,0.1-0.8,0.2-1.1,0.3l0,0c-0.4,0.1-0.8,0.2-1.1,0.3c-11.7,3.2-17.6,5.8-21.9,11.9
			c-2.2,3.1-4.9,8.7-2.4,20.9c0.5,2.7-0.2,5.8-2.2,8.8c-2.7,4-7.1,7.1-11.3,7.9c-2,0.4-3.9,0.6-5.6,0.6c-3.4,0-6.4-0.7-8.7-2
			c3.3-0.2,5.8-2.9,7.3-4.4c1.5-1.6,2.7-3.2,3.6-4.2c0.9-1.2,1.5-1.9,1.5-1.9c0.2-0.2,0.1-0.5-0.1-0.7s-0.5-0.1-0.7,0.1
			c0,0-0.5,0.8-1.4,1.9c-0.8,1-2,2.6-3.5,4.2c-2.3,2.4-5,4.8-8.2,4l0,0c-1.4-1.2-2.4-2.8-2.8-4.6c-0.5-2.5-0.8-5.1-1-7.7
			c1.1,0.9,2.4,1.3,3.9,1.3c0.5,0,1,0,1.5-0.2c2.2-0.4,4.2-1.7,5.7-2.8c3.3-2.4,6.1-5,6.1-5c0.2-0.2,0.2-0.5,0-0.7s-0.5-0.2-0.7,0
			c0,0-2.8,2.5-6,4.9c-1.5,1-3.4,2.2-5.3,2.6C219.2,270.5,217.5,270,216,268.5z"/>
		<path d="M285,297.4c-5.9,6.1-13.3,10.5-21.4,12.7c1.9-1.4,3.8-3,5.5-4.7c7.3-7.3,11.7-15.5,14-23.8c0.1-0.1,0.2-0.3,0.1-0.4l0,0
			c1.3-4.7,1.8-9.4,1.8-14.1c0-0.4,0-0.8,0-1.3c-0.1-5.1-0.9-10.1-2.1-14.8c0-0.2,0-0.3-0.1-0.5c-0.8-2.8-1.7-5.6-2.8-8.1
			c-0.8-1.9-1.8-3.8-2.7-5.6c2.1-0.5,4.4-1.1,6.8-1.7c1-0.2,2-0.5,3-0.7C300.4,251.7,303.5,278.3,285,297.4z"/>
		<path d="M282.8,251c0-0.2-0.1-0.3-0.1-0.5C282.8,250.6,282.8,250.8,282.8,251z"/>
		<path d="M283,281.5c0-0.1,0.1-0.3,0.1-0.4C283.2,281.2,283.1,281.4,283,281.5z"/>
		<g>
			<path d="M267.4,260.9c-0.2,0.2-0.1,0.5,0.1,0.7c0,0,0.7,0.6,1.9,1.5l0.8,0.6c1,0.8,2.2,1.8,3.6,2.8c1.6,1.2,3.5,2.4,5.5,2.8
				c0.4,0.1,0.8,0.1,1.1,0.1c0.8,0,1.5-0.2,2.1-0.5c-0.1,2.2-0.2,4.1-0.2,4.1l-0.1,1.1c-0.3,2.6-0.9,5.2-1.6,7.8
				c-1.3,0.5-2.5,0.4-3.7-0.3c-1.6-0.8-2.9-2.4-4.2-4c-1.1-1.4-2-2.8-2.8-4l-0.4-0.6c-0.8-1.2-1.3-2-1.3-2c-0.2-0.2-0.5-0.3-0.7-0.2
				c-0.2,0.1-0.3,0.4-0.2,0.6c0,0,0.5,0.8,1.4,2.1l0.3,0.5c0.7,1.2,1.7,2.6,2.8,4.1c1.3,1.7,2.7,3.4,4.5,4.3
				c0.9,0.4,1.7,0.6,2.6,0.6c0.4,0,0.9-0.1,1.3-0.2l-0.3,0.8c-0.9,2.7-2.1,5.4-3.5,8.1l-0.5,1c-0.4,0.7-0.8,1.3-1.2,2
				c-1.5,0.2-2.8-0.1-3.9-1.1c-1.4-1.3-2.4-3.3-3-5c-0.5-1.2-0.9-2.4-1.2-3.4c-0.2-0.7-0.4-1.3-0.6-1.8c-0.5-1.4-0.7-2.3-0.7-2.3
				c-0.1-0.3-0.3-0.4-0.6-0.3c-0.3,0.1-0.4,0.3-0.3,0.6c0,0,0.2,0.9,0.7,2.4c0.2,0.5,0.4,1.1,0.6,1.8c0.3,1.1,0.7,2.3,1.2,3.5
				c0.7,1.8,1.8,3.9,3.3,5.3c0.8,0.7,2.1,1.5,3.7,1.5h0.2c-1,1.4-2,2.8-3.1,4.1l-0.7,0.9c-0.8,1-1.8,2-2.7,2.9
				c-0.7,0.7-1.4,1.4-2.2,2c-3.5-0.5-4.5-3.8-5-7.4c-0.3-2.5-0.5-4.3-0.5-5.6l-0.1-2.5c0-0.3-0.2-0.5-0.5-0.5s-0.5,0.2-0.5,0.5
				l0.1,2.5c0,1.3,0.2,3.2,0.5,5.7c0.3,2.3,1,7,5.1,8.1c-0.1,0-0.1,0.1-0.2,0.2l-0.9,0.8c-1.8,1.4-3.6,2.6-5.5,3.8l0,0l0,0
				c-0.5,0.3-1,0.6-1.5,0.8l-1,0.5c-0.8,0.4-1.6,0.8-2.4,1.1c-2-1.5-2.2-4.5-2.1-7.6c0.1-1.4,0.3-2.7,0.5-3.9
				c0.1-0.6,0.2-1.1,0.2-1.6c0.2-1.5,0.5-2.4,0.5-2.4c0.1-0.3-0.1-0.5-0.4-0.6c-0.2,0-0.5,0.1-0.6,0.4c0,0-0.2,1-0.5,2.5
				c-0.1,0.5-0.2,1-0.2,1.6c-0.2,1.2-0.4,2.6-0.5,4c-0.2,2.9,0,6.2,2,8.1c-1.5,0.6-2.9,1.2-4.5,1.6l0,0c-0.1,0-1.2,0.4-1.2,0.4
				c-2.2,0.6-4.4,1.1-6.7,1.5c-0.4-1.7-0.1-3.8,0.4-5.7c0.5-1.9,1.1-3.6,1.7-5l0.1-0.3c0.5-1.4,0.9-2.4,0.9-2.4
				c0.1-0.2,0-0.5-0.2-0.6s-0.5,0-0.6,0.2c0,0-0.4,1-0.9,2.4l-0.1,0.2c-0.6,1.4-1.2,3.2-1.7,5.2c-0.3,1.3-0.9,3.8-0.4,6.1
				c-0.3,0-0.5,0.1-0.8,0.1l-1.2,0.1c-2.2,0.2-4.4,0.4-6.6,0.4c-0.7,0-1.3,0-2,0h-0.7c0.2-0.8,0.5-1.6,0.9-2.5
				c0.7-1.7,1.7-3.3,2.4-4.5l0.2-0.4c0.8-1.3,1.3-2.2,1.3-2.2c0.1-0.2,0.1-0.5-0.1-0.7s-0.5-0.1-0.7,0.1c0,0-0.6,0.9-1.4,2.2
				l-0.2,0.4c-0.8,1.3-1.7,2.9-2.5,4.7c-0.4,0.9-0.7,1.8-1,2.8c-2.6-0.2-5.2-0.6-7.6-1.2l-1-0.3c-0.3-0.1-0.6-0.2-0.8-0.3
				c0.2-0.3,0.5-0.6,0.7-0.9c0.6-0.8,1.1-1.5,1.6-2.1c1-1.2,1.6-1.9,1.6-1.9c0.2-0.2,0.2-0.5,0-0.7s-0.5-0.2-0.7,0
				c0,0-0.7,0.8-1.7,2c-0.5,0.6-1,1.4-1.6,2.1c-0.3,0.4-0.6,0.8-0.9,1.2c-1.8-0.6-3.6-1.3-5.2-2.1l-0.8-0.4c-2-1-3.8-2.2-5.6-3.5
				l-0.8-0.6c-10.2-8-16.3-21.1-16.3-36.9c0-11.9,5.6-25,14.2-33.3c2.4-2.3,5-4.2,7.6-5.5c1.7,0.4,3.3,0.8,4.8,1.2
				c2.6,0.6,5,1.2,7.1,1.8c-4.7,8.7-7.3,19-7.3,29.3c0,4,0.4,8,1.2,11.9c0.2,1.1,0.6,2.1,1.1,3c2.3,4.1,7.6,6.5,14.3,6.5
				c1.9,0,3.9-0.2,6-0.6c4.7-0.9,9.7-4.4,12.8-8.8c2.3-3.4,3.2-7.2,2.6-10.5c-2.3-11.3,0.1-16.3,2.1-19.1c3.7-5.3,8.6-7.7,20.1-10.9
				c0.1,1.1,0,2.1-0.4,2.9s-1,1.4-1.8,1.9c-0.7,0.4-1.5,0.7-2.6,1c-0.9,0.2-6.1,0.9-6.1,0.9c-0.3,0-0.5,0.3-0.4,0.5
				c0,0.2,0.2,0.4,0.5,0.4c0,0,2.1-0.2,3.1-0.4c1.2-0.2,2.2-0.3,3.1-0.6c1.2-0.3,2.1-0.6,2.9-1.1c1-0.6,1.7-1.3,2.1-2.3
				c0.5-1,0.7-2.2,0.5-3.6c0.1,0,0.1,0,0.2,0c1.1,1.9,2.1,3.9,3,6l0.2,0.5l0.4,1.1c1,2.5,1.9,5.2,2.5,7.9c-0.7,1-1.7,1.7-3.1,1.9
				c-1.7,0.2-3.5-0.2-5.4-0.7l-0.4-0.1c-1-0.3-2-0.6-2.8-0.8l-4.6-1.3c-0.3-0.1-0.5,0.1-0.6,0.3c-0.1,0.2,0.1,0.5,0.3,0.6l2.3,0.6
				l2.4,0.7c0.9,0.3,1.8,0.6,2.9,0.9l0.4,0.1c1.6,0.4,3.1,0.8,4.6,0.8c0.4,0,0.8,0,1.2-0.1c1-0.2,2.2-0.6,3.2-1.6l0.1,0.2
				c0.6,2.8,1,5.7,1.3,8.6l0.1,1.1c0,1,0,2.4,0,3.7c-1,0.5-2,0.7-3.1,0.5c-1.8-0.3-3.6-1.6-5.1-2.7c-1.4-0.9-2.6-1.9-3.5-2.7
				l-0.8-0.6c-1.2-0.9-1.9-1.4-1.9-1.5C267.8,260.7,267.5,260.7,267.4,260.9z"/>
			<path d="M260.4,217.3c-0.3-0.3-0.7-0.5-1-0.7c0.1,0.2,0.2,0.4,0.3,0.6c0.7,1.2,1.9,2.5,3.4,3.8c1.9,1.5,3.9,2.8,5.2,3.5
				C265.9,221.7,263.2,219.4,260.4,217.3z M225.6,217.7L225.6,217.7c-0.3,0.4-0.7,0.7-1.1,1.1c-0.1,0.1-0.2,0.1-0.2,0.2
				c0,0.2,0,0.5-0.1,0.7c-0.6,5.8-1.2,9.3-4.7,9.3h-0.2c-3.5-0.1-7.1,0.7-10.6,2.4c0.6,0.2,1.2,0.3,1.7,0.5c0.7,0.2,1.3,0.3,1.9,0.5
				c2.1-0.7,4.2-1.1,6.2-1.1c0.2,0,0.4,0,0.6,0c6.1,0.2,6.7-6,7.2-11.4c0.1-1.5,0.3-2.8,0.5-4C226.6,216.5,226.1,217.1,225.6,217.7z
				 M230.5,209L230.5,209c-0.7-0.1-1.3-0.3-2-0.4c-0.1,0-0.2,0.1-0.2,0.1c0.2,0.4,0.3,0.8,0.3,1.2c0.1,0.5,0.1,1,0.1,1.5
				c0.7-0.8,1.6-1.3,3-1.3c1,0,2.1,0,3.1,0.1C233.4,209.7,232,209.3,230.5,209z M227.4,209.3c-1.9,1.8-2.5,4.9-2.9,8.1
				c0.5-0.5,1-1.1,1.4-1.6c1.3-1.8,1.9-3.4,1.8-5.1C227.6,210.3,227.6,209.8,227.4,209.3z M269.8,226.1c-0.1,0-0.1,0.1-0.2,0.1
				s-0.2,0-0.2,0c-0.1,0-0.9-0.4-2.1-1.1l0,0c-1.3-0.8-3.1-1.9-4.8-3.3c-0.1-0.1-0.3-0.3-0.5-0.4c-0.2-0.2-0.4-0.3-0.6-0.6l0,0
				c-0.9-0.8-1.9-1.9-2.6-3.2l0,0c-0.1-0.2-0.2-0.3-0.3-0.5c-0.2-0.4-0.4-0.9-0.5-1.4l0,0c-1.4-0.9-2.8-1.8-4.3-2.5
				c-0.5,0.2-0.9,0.4-1.4,0.5l0,0c-0.2,0.1-0.4,0.2-0.6,0.2c-0.3,0.1-0.6,0.2-0.8,0.3c1.5,0.7,3.1,1.5,4.5,2.4
				c0.1,0,0.2,0.1,0.3,0.2c1.9,1.2,3.7,2.5,5.5,4l0,0c0.3,0.2,0.6,0.5,0.8,0.7c3.3,2.8,6.3,6.1,8.9,9.8c0.3,0.4,0.6,0.8,0.8,1.2
				c0.6,0.9,1.2,1.9,1.8,2.8c0.4-0.1,0.7-0.2,1.1-0.3l0,0c0.4-0.1,0.8-0.2,1.1-0.3C274.1,231.6,272,228.7,269.8,226.1z"/>
		</g>
		<g>
			<g>
				<g>
					<path d="M246.1,213.8c-1.3,0.6-2.6,1.3-3.8,1.9c-0.5,0.3-1,0.6-1.5,0.9c-0.7,0.4-1.3,0.8-2,1.2c1.1-1.7,1.7-3.9,0.8-6.4
						c0.5,0.2,1,0.3,1.5,0.5c0.7,0.2,1.3,0.5,2,0.7c0.5,0.2,1,0.3,1.5,0.5C245,213.4,245.6,213.6,246.1,213.8z"/>
				</g>
				<g>
					<path d="M235.7,220C235.7,220,235.6,220,235.7,220C235.6,220,235.6,220,235.7,220C235.6,220.1,235.6,220.1,235.7,220
						c-0.6,0.4-1.1,0.8-1.6,1.2c-4,3.1-7.3,6.6-10.1,10.5c-0.7,1-1.3,2-1.9,3c-2.3-0.6-4.8-1.2-7.7-1.9c-0.6-0.2-1.2-0.3-1.9-0.5
						c-0.6-0.2-1.3-0.3-1.9-0.5c-0.6-0.1-1.1-0.3-1.7-0.5c-11.1-3-24.8-8.2-32.6-22c-2.6-4.6-4.3-9.5-5.3-14.2c-0.2-1-0.4-2-0.6-2.9
						c-0.4-2.4-0.6-4.7-0.7-7c-0.1-1.2-0.1-2.5-0.1-3.7c0-2.9,0.2-5.6,0.5-8.2c0.1-1.4,0.3-2.7,0.5-3.9c0.4-2.6,0.9-4.9,1.4-6.9
						c0.3,1.2,0.7,2.7,1.3,4.1c0.3,0.7,0.7,1.5,1.1,2.2c0.8,1.4,1.9,2.8,3.4,3.9c0.7,0.5,1.4,1,2.2,1.4c0.3,0.2,0.6,0.3,0.9,0.4
						c1.4,0.5,3,0.8,4.6,0.8h0.1c1.1,0,2.3-0.2,3.6-0.5c2.7-0.6,5.7-1.8,8.9-3.6c-1.3,3.4-2.6,7.8-3,12.2l0,0
						c-1.2,0.8-2.6,1.1-3.9,1.1c-0.2,0-0.3,0-0.5,0c-1.8-0.1-3.7-0.9-5.4-2.2c-0.6-0.4-1.2-0.9-1.6-1.4c-0.6-0.6-1.2-1.2-1.6-1.8
						c-0.3-0.4-0.6-0.7-0.7-1c-0.4-0.7-0.5-0.9-0.8-1.3c-0.1-0.2-0.3-0.3-0.5-0.3c-0.1,0-0.2,0-0.2,0.1c-0.2,0.1-0.3,0.4-0.2,0.7
						c0.3,0.5,0.4,0.7,0.8,1.4c0.2,0.3,0.5,0.7,0.9,1.2s1,1.2,1.6,1.8c0.5,0.5,1.1,1,1.7,1.5c1.9,1.4,4,2.2,6,2.3c0.2,0,0.4,0,0.6,0
						c1.3,0,2.6-0.3,3.8-1c-0.2,2.8,0.1,5.6,1,8.2c-1.1,1-2.5,1.8-3.9,2.1c-0.6,0.1-1.2,0.2-1.8,0.2c-1.3,0-2.6-0.3-4-0.8
						c-2.2-0.9-4-2.4-4.9-3.1c-1.2-1.1-1.9-1.9-1.9-1.9c-0.1-0.1-0.2-0.2-0.4-0.2c-0.1,0-0.2,0-0.3,0.1c-0.2,0.2-0.2,0.5-0.1,0.7
						c0,0,0.8,0.9,2,2.1c0.9,0.8,2.8,2.4,5.2,3.3c1.5,0.6,2.9,0.9,4.4,0.9c0.7,0,1.4-0.1,2-0.2c1.5-0.4,2.9-1.1,4.1-2.1
						c0.2,0.5,0.5,1,0.8,1.5c0.2,0.3,1,1.7,2.9,3.4c-0.6,1.9-1.5,3.4-2.8,4.5c-1.4,1.2-3.3,1.9-5.4,2c-0.3,0-0.6,0-0.9,0
						c-1.6,0-3.4-0.3-5-0.9c-0.8-0.3-1.5-0.6-1.9-0.8l-0.7-0.3c-0.1,0-0.1,0-0.2,0c-0.2,0-0.4,0.1-0.5,0.3s0,0.5,0.2,0.6l0.7,0.3
						c0.4,0.2,1.1,0.5,2,0.8c1.7,0.6,3.6,0.9,5.3,0.9c0.3,0,0.6,0,0.9,0c2.3-0.2,4.4-1,6-2.3c1.4-1.1,2.4-2.7,3-4.5
						c1.3,1.1,2.9,2.2,5,3.3v0.1c0.3,2.3,0.2,4.1-0.4,5.6c-0.7,1.7-2.1,3.3-3.9,4.3c-1.6,0.9-3.6,1.6-5.7,1.7
						c-0.5,0-0.9,0.1-1.3,0.1c-0.3,0-0.6,0-0.8,0l-0.9-0.1c-0.3,0-0.5,0.2-0.5,0.5s0.2,0.5,0.5,0.5l0.9,0.1c0.3,0,0.6,0,0.9,0
						c0.4,0,0.9,0,1.4-0.1c2.2-0.2,4.5-0.8,6.1-1.9c2-1.1,3.5-2.9,4.3-4.8c0.6-1.6,0.8-3.4,0.6-5.6c2.4,1.1,5.4,2.2,9,2.9
						c1.4,2.9,0.5,6-2.9,9.5c-2.8,2.9-6.3,4.9-6.4,4.9c-0.2,0.1-0.3,0.5-0.2,0.7s0.3,0.3,0.4,0.3s0.2,0,0.2-0.1
						c0.2-0.1,3.7-2.1,6.6-5.1c3.4-3.5,4.5-6.8,3.4-9.9c0.4,0.1,0.8,0.1,1.2,0.2c3.1,0.5,6,1,8.8,1.5c0.2,0.4,0.4,0.7,0.5,1.1
						c0.2,0.5,0.3,0.9,0.3,1.4c0.1,1.6-0.5,3.3-1.8,5.1c-0.4,0.5-0.8,1-1.4,1.6l0,0c-0.2,0.2-0.4,0.4-0.6,0.6
						c-2.9,2.8-6.5,4.7-6.5,4.7c-0.2,0.1-0.3,0.4-0.2,0.7c0.1,0.2,0.3,0.3,0.4,0.3s0.2,0,0.2-0.1c0.2-0.1,3.5-1.9,6.5-4.6
						c0.1-0.1,0.2-0.1,0.2-0.2c0.4-0.4,0.7-0.7,1.1-1.1l0,0c0.5-0.6,1-1.2,1.4-1.7c1.1-1.6,1.6-3.1,1.7-4.6l0,0c0-0.5,0-1-0.1-1.5
						c-0.1-0.4-0.2-0.8-0.3-1.2c0-0.1,0-0.1-0.1-0.2c0.1,0,0.2,0,0.3,0.1c0.7,0.2,1.4,0.3,2,0.4l0,0c1.5,0.3,2.9,0.7,4.3,1.1
						c0.7,0.2,1.4,0.4,2,0.6c0.1,0,0.3,0.1,0.4,0.1c0.4,0.1,0.7,0.2,1.1,0.3C239.8,214.1,238.9,216.9,235.7,220z"/>
				</g>
			</g>
		</g>
		<g>
			<g>
				<path d="M328.3,180.9c0,1.2,0,2.4,0,3.7c-0.1,2.3-0.3,4.7-0.7,7.1c-0.2,1-0.3,2-0.5,3c-1,4.9-2.7,9.9-5.4,14.8
					c-8.6,15.4-24.7,20.1-36.2,23c-0.7,0.2-1.3,0.3-1.9,0.5c-2.7,0.7-5.2,1.3-7.5,1.9c-0.4,0.1-0.8,0.2-1.1,0.3l0,0
					c-0.4,0.1-0.8,0.2-1.1,0.3c-11.7,3.2-17.6,5.8-21.9,11.9c-2.2,3.1-4.9,8.7-2.4,20.9c0.5,2.7-0.2,5.8-2.2,8.8
					c-2.7,4-7.1,7.1-11.3,7.9c-2,0.4-3.9,0.6-5.6,0.6c-3.4,0-6.4-0.7-8.7-2c3.3-0.2,5.8-2.9,7.3-4.4c1.5-1.6,2.7-3.2,3.6-4.2
					c0.9-1.2,1.5-1.9,1.5-1.9c0.2-0.2,0.1-0.5-0.1-0.7c-0.1-0.1-0.2-0.1-0.3-0.1c-0.2,0-0.3,0.1-0.4,0.2c0,0-0.5,0.8-1.4,1.9
					c-0.8,1-2,2.6-3.5,4.2c-0.4,0.4-0.8,0.8-1.1,1.1c-0.2,0.2-0.4,0.4-0.6,0.6c-1.5,1.4-3.2,2.4-5.1,2.4c-0.4,0-0.9,0-1.3-0.2l0,0
					c-1.4-1.2-2.4-2.8-2.8-4.6c-0.5-2.5-0.8-5.1-1-7.7c1.1,0.9,2.4,1.3,3.9,1.3c0.5,0,1,0,1.5-0.2c2.2-0.4,4.2-1.7,5.7-2.8
					c3.3-2.4,6.1-5,6.1-5c0.2-0.2,0.2-0.5,0-0.7c-0.1-0.1-0.2-0.2-0.4-0.2c-0.1,0-0.2,0-0.3,0.1c0,0-2.8,2.5-6,4.9
					c-1.5,1-3.4,2.2-5.3,2.6c-0.4,0.1-0.8,0.1-1.2,0.1c-1.5,0-2.8-0.6-3.9-1.7c-0.1-3.8,0.1-7.6,0.6-11.4c1.2,1.4,2.9,2.1,4.8,2.1
					h0.1c2.1,0,4.1-0.7,6.1-1.6c1.6-0.7,3.2-1.5,4.4-2.1l2.6-1.4c0.2-0.1,0.3-0.4,0.2-0.7c-0.1-0.2-0.3-0.3-0.4-0.3s-0.2,0-0.3,0.1
					l-2.6,1.4c-1.2,0.6-2.7,1.4-4.3,2.1c-1.8,0.8-3.8,1.5-5.7,1.5h-0.7c-1.9,0-3.4-0.8-4.5-2.3c0,0.1-0.1,0.2-0.1,0.3
					c0-0.1,0-0.3,0.1-0.4l0,0c0.7-3.9,1.7-7.6,3-11.2c0.4,0.7,0.9,1.3,1.5,1.7c0.7,0.6,1.6,1,2.6,1.2c0.8,0.2,1.6,0.2,2.4,0.2
					c1.3,0,2.7-0.2,4-0.4c0.9-0.2,1.9-0.4,2.9-0.6l4.7-1.1c0.3-0.1,0.4-0.3,0.4-0.6c-0.1-0.2-0.3-0.4-0.5-0.4h-0.1l-4.7,1.1
					c-1,0.2-1.9,0.4-2.8,0.6c-1.2,0.2-2.5,0.4-3.8,0.4c-0.7,0-1.5-0.1-2.2-0.2c-0.9-0.2-1.6-0.5-2.3-1.1c-0.7-0.5-1.2-1.2-1.6-2.1
					c0.8-2.1,1.8-4.1,2.8-5.9c0.2-0.3,0.4-0.7,0.6-1s0.4-0.7,0.6-1c0.5-0.8,1-1.6,1.5-2.3c0-0.1,0.1-0.1,0.2-0.2
					c0.4,1.4,1.3,2.5,2.6,3.4l0,0c0.2,0.2,0.4,0.3,0.6,0.4c0.1,0.1,0.3,0.1,0.4,0.2c0.3,0.1,0.6,0.3,0.9,0.4
					c0.8,0.3,1.6,0.4,2.4,0.6l0,0c0.8,0.1,1.5,0.2,2.3,0.3l7.6,0.6l0,0c0.3,0,0.5-0.2,0.5-0.5s-0.2-0.5-0.5-0.5l-7.6-0.6
					c-0.1,0-0.2,0-0.3,0l0,0l0,0c-0.8-0.1-1.7-0.2-2.5-0.4s-1.5-0.3-2.2-0.6h-0.1c-0.3-0.1-0.5-0.2-0.7-0.3
					c-1.7-0.9-2.6-2.2-2.9-3.9c2.4-3.2,5.3-6.2,8.7-8.8c0,1.8,0.6,3.3,1.9,4.6c0.2,0.2,0.5,0.5,0.8,0.7s0.6,0.5,0.9,0.7
					c1.1,0.8,2.3,1.3,3.4,1.8l0,0c0.1,0,0.2,0.1,0.3,0.1c0.3,0.1,0.6,0.3,1,0.4c0.3,0.1,0.5,0.2,0.8,0.3c0.2,0.1,0.3,0.1,0.5,0.2
					c0.7,0.3,1.4,0.5,2,0.7l0,0l0,0c0.3,0.1,0.6,0.2,0.8,0.3c0.3,0.1,0.6,0.2,0.8,0.3l0,0c0.9,0.3,1.5,0.4,1.5,0.4h0.1
					c0.2,0,0.4-0.1,0.5-0.4s-0.1-0.5-0.3-0.6l0,0c-0.1,0-0.8-0.2-1.7-0.5l0,0c-0.2-0.1-0.4-0.1-0.6-0.2c-0.7-0.2-1.4-0.5-2.2-0.7
					c-0.1,0-0.2-0.1-0.3-0.1l0,0c-0.3-0.1-0.7-0.2-1-0.4c-0.4-0.2-0.8-0.3-1.3-0.5c-0.1,0-0.2-0.1-0.3-0.1c-0.9-0.4-2-0.8-3-1.5
					c-0.3-0.2-0.7-0.4-1-0.6c-0.4-0.3-0.8-0.6-1.1-0.9c-1.3-1.4-1.8-2.9-1.5-4.8c3-2.3,6.4-4.3,10.1-6.1c-0.5,2.1,0,3.9,1,5.4l0,0
					c0.2,0.2,0.3,0.5,0.5,0.7c0.2,0.3,0.4,0.5,0.7,0.7c0.5,0.5,1,0.9,1.5,1.4c0.3,0.2,0.6,0.5,0.9,0.7s0.6,0.4,0.9,0.6
					c0,0,0,0,0.1,0c1.4,0.9,3.1,1.8,4.9,2.7c0.2,0.1,0.3,0.1,0.4,0.2c0.4,0.2,0.8,0.4,1.1,0.5c0.5,0.2,0.8,0.3,0.8,0.3
					c0.1,0,0.1,0,0.2,0c0.2,0,0.4-0.1,0.5-0.3c0.1-0.3,0-0.5-0.3-0.6c0,0-0.1,0-0.2-0.1c-0.2-0.1-0.6-0.2-1-0.5
					c-0.3-0.1-0.6-0.3-1-0.5c-1.7-0.8-3.2-1.7-4.6-2.6c-0.1,0-0.1-0.1-0.2-0.1c-0.3-0.2-0.5-0.3-0.8-0.5s-0.6-0.5-0.9-0.7
					c-0.5-0.4-1.1-0.9-1.5-1.4c-0.2-0.3-0.5-0.5-0.7-0.8c-0.4-0.5-0.7-1-0.9-1.5l0,0c-0.6-1.3-0.7-2.8-0.1-4.4
					c0.3-0.2,0.6-0.3,1-0.4c0.2-0.1,0.5-0.2,0.7-0.3s0.4-0.2,0.6-0.3l0,0h0.1l0,0c0.2-0.1,0.3-0.1,0.5-0.2c0.3-0.1,0.6-0.2,0.8-0.3
					c0.2-0.1,0.4-0.2,0.6-0.2l0,0c0.5-0.2,0.9-0.4,1.4-0.5c1.5-0.5,3-1.1,4.5-1.6c-0.6,1.5-0.6,2.9-0.3,4.1l0,0
					c0.1,0.5,0.3,0.9,0.5,1.4c0.1,0.2,0.2,0.4,0.3,0.5l0,0c0.7,1.3,1.7,2.4,2.6,3.2l0,0c0.2,0.2,0.4,0.4,0.6,0.6s0.3,0.3,0.5,0.4
					c1.7,1.4,3.4,2.5,4.8,3.3l0,0c1.2,0.7,2.1,1.1,2.1,1.1c0.1,0,0.2,0,0.2,0c0.1,0,0.2,0,0.2-0.1c0.1,0,0.2-0.1,0.2-0.2
					c0.1-0.3,0-0.6-0.2-0.7c0,0-0.6-0.3-1.5-0.8l0,0c-1.3-0.7-3.3-2-5.2-3.5c-1.6-1.3-2.7-2.6-3.4-3.8c-0.1-0.2-0.2-0.4-0.3-0.6l0,0
					c-0.9-1.8-0.8-3.6,0.1-5.4c3.2-1,6.6-1.8,10.1-2.6c-1.3,3.3-0.1,6.7,3.6,10.3c3,2.9,6.6,4.8,6.7,4.9c0.1,0,0.2,0.1,0.2,0.1
					c0.2,0,0.3-0.1,0.4-0.3s0-0.5-0.2-0.7c0,0-3.6-1.9-6.5-4.7c-3.7-3.5-4.7-6.7-3.1-9.8c2.8-0.6,5.8-1.1,8.8-1.5
					c0.4-0.1,0.8-0.1,1.2-0.2c-1.2,3.1-0.1,6.4,3.4,9.9c2.9,3,6.4,5,6.6,5.1c0.1,0,0.2,0.1,0.3,0.1c0.2,0,0.3-0.1,0.4-0.3
					s0.1-0.5-0.2-0.7c0,0-3.5-2-6.4-4.9c-3.3-3.5-4.3-6.6-2.9-9.5c3.6-0.7,6.5-1.7,9-2.9c-0.3,2.2-0.1,4,0.6,5.6
					c0.8,1.9,2.3,3.7,4.3,4.8c1.7,1,3.9,1.7,6.2,1.9c0.5,0.1,1,0.1,1.4,0.1c0.3,0,0.6,0,0.9,0l0.9-0.1c0.3,0,0.5-0.3,0.5-0.5
					s-0.2-0.5-0.5-0.5l-0.9,0.1c-0.3,0-0.5,0-0.8,0c-0.4,0-0.8,0-1.3-0.1c-2.1-0.2-4.2-0.8-5.7-1.7c-1.8-1-3.2-2.6-3.9-4.3
					c-0.6-1.6-0.8-3.4-0.4-5.6v-0.1c2.1-1.1,3.7-2.2,5-3.3c0.6,1.9,1.6,3.4,3,4.5c1.6,1.3,3.7,2.1,6,2.3c0.3,0,0.6,0,0.9,0
					c1.7,0,3.6-0.3,5.3-0.9c0.9-0.3,1.6-0.6,2-0.8l0.7-0.3c0.3-0.1,0.4-0.4,0.3-0.6s-0.3-0.3-0.5-0.3c-0.1,0-0.1,0-0.2,0l-0.7,0.3
					c-0.4,0.2-1.1,0.5-1.9,0.8c-1.6,0.6-3.4,0.9-5,0.9c-0.3,0-0.6,0-0.9,0c-2.1-0.1-4-0.8-5.4-2c-1.3-1.1-2.3-2.6-2.8-4.5
					c1.8-1.7,2.7-3.1,2.9-3.4c0.3-0.5,0.5-1,0.8-1.6c1.2,1,2.6,1.7,4.1,2.1c0.6,0.2,1.3,0.2,2,0.2c1.4,0,2.9-0.3,4.4-0.9
					c2.3-1,4.2-2.5,5.2-3.3c1.3-1.1,2-2,2-2.1c0.2-0.2,0.1-0.5-0.1-0.7c-0.1-0.1-0.2-0.1-0.3-0.1c-0.2,0-0.3,0.1-0.4,0.2
					c0,0-0.7,0.9-1.9,1.9c-0.9,0.8-2.7,2.2-4.9,3.1c-1.3,0.6-2.7,0.8-4,0.8c-0.6,0-1.2-0.1-1.8-0.2c-1.5-0.3-2.8-1.1-3.9-2.1
					c0.9-2.6,1.2-5.4,1-8.2c1.2,0.6,2.5,1,3.8,1c0.2,0,0.4,0,0.6,0c2-0.1,4-0.9,6-2.3c0.8-0.6,1.5-1.2,2-1.8
					c0.6-0.6,1.2-1.3,1.6-1.8c0.3-0.3,0.5-0.6,0.6-0.9c0.5-0.7,0.6-0.9,0.8-1.4c0.1-0.3,0-0.5-0.2-0.7c-0.1,0-0.2-0.1-0.2-0.1
					c-0.2,0-0.3,0.1-0.4,0.3c-0.2,0.5-0.3,0.6-0.8,1.3c-0.1,0.2-0.3,0.4-0.5,0.7c-0.4,0.5-0.9,1.2-1.6,1.8c-0.6,0.6-1.2,1.2-2,1.7
					c-1.8,1.3-3.7,2-5.4,2.2c-0.2,0-0.3,0-0.5,0c-1.4,0-2.7-0.4-3.9-1.1l0,0c-0.4-4.4-1.7-8.7-3-12.2c3.5,1.9,6.7,3.2,9.6,3.7
					c1.1,0.2,2.1,0.3,3.1,0.3h0.4c1.5,0,2.9-0.3,4.2-0.8c0.4-0.2,0.9-0.3,1.3-0.6c0.8-0.4,1.5-0.9,2.1-1.4c1.4-1.1,2.4-2.5,3.2-4
					c0.4-0.8,0.8-1.5,1.1-2.3c0.5-1.3,0.9-2.6,1.2-3.7c0.4,1.8,0.9,3.9,1.3,6.2c0.2,1.3,0.4,2.6,0.6,3.9
					C328.1,175.3,328.3,178,328.3,180.9z"/>
				<path d="M308.3,172.5c0.4,0.1,0.8,0.2,1.2,0.3C309.1,172.7,308.7,172.6,308.3,172.5z M310.4,172.9c-0.3,0-0.6-0.1-0.9-0.2
					c0.1,0,0.2,0,0.3,0.1C310,172.9,310.2,172.9,310.4,172.9z M308.3,172.5c-0.5-0.1-1.1-0.3-1.6-0.5
					C307.2,172.2,307.8,172.4,308.3,172.5z"/>
			</g>
		</g>
		<g>
			<path d="M308.3,172.5c-0.2,0-0.4-0.1-0.6-0.2c0.4,0.1,0.8,0.2,1.2,0.3C308.7,172.6,308.5,172.5,308.3,172.5z"/>
		</g>
		<g>
			<g>
				<path d="M308.3,172.5c-0.2,0-0.4-0.1-0.6-0.2c0.4,0.1,0.8,0.2,1.2,0.3C308.7,172.6,308.5,172.5,308.3,172.5z"/>
				<path d="M308.9,172.6c-0.4-0.1-0.8-0.2-1.2-0.3 M308.3,172.5c-0.2,0-0.4-0.1-0.6-0.2c0.4,0.1,0.8,0.2,1.2,0.3
					C308.7,172.6,308.5,172.5,308.3,172.5z M308.3,172.5c-0.2,0-0.4-0.1-0.6-0.2c0.4,0.1,0.8,0.2,1.2,0.3
					C308.7,172.6,308.5,172.5,308.3,172.5z"/>
				<path d="M338.4,166.2c-0.4-16.4-14.7-23.2-14.9-23.3l-0.6-0.3l-0.1-0.6c-1-7.8-3.2-12.6-6.4-13.7c-0.5-0.2-1.1-0.3-1.6-0.3
					c-0.6,0-1.2,0.1-1.8,0.3c-0.4,0.1-0.8,0.3-1.1,0.4c-0.3,0.2-0.7,0.3-1,0.5c-1.5,0.8-2.4,1.8-2.5,1.8l-0.8,0.7l-0.8-0.7
					c-3.5-3-4.1-4.1-5.1-6.3c-0.5-1-1.1-2.3-2.2-4.2c-0.7-1.2-0.9-2.5-1-3.7c-0.1-0.8-0.2-1.7-0.5-2c-0.1,0-0.2-0.1-0.6-0.1
					c-0.3,0-0.7,0-1.2,0.2c-2.6,0.6-4.2,1.6-4.9,2.9c-1.3,2.4,0.2,6.7,2,12c0.7,2.1,1.6,4.4,2.3,6.9c0.1,0.4,0.2,0.8,0.4,1.2
					c0.4,1.5,0.9,2.8,1.5,4c1.5,3.5,3.3,5.7,4.7,7.5c1.7,2.2,3.1,4,2.5,6.4c-0.1,0.3-0.2,0.6-0.3,0.9l-0.5,1l-0.3,0.6l0,0l-0.1,0.2
					l-0.4-0.7l-0.2-0.3l-0.5-0.8c-0.7-1.2-1.7-2.1-2.8-2.8l0,0l0,0c-2.3-1.4-5.2-2.1-8.1-2.4c-1.2-0.2-2.4-0.3-3.5-0.3
					c-0.2,0-0.3,0-0.5,0c-1.4-0.1-2.6-0.2-3.7-0.4c-4.1-0.7-10.8-7.6-13.5-10.6c-1.1,3,0.4,8.9,24.7,25.4c0.6,0.4,1.1,0.8,1.7,1.2
					c0.1,0.1,0.2,0.1,0.3,0.2c0.5,0.3,1,0.6,1.4,0.9c3,1.9,5.7,3.2,8.2,4.1l0,0c0.3,0.1,0.7,0.2,1,0.3c0,0,0,0,0.1,0
					c0.2,0,0.4,0.1,0.6,0.2s0.4,0.1,0.6,0.2l0,0c0.2,0,0.4,0.1,0.6,0.1c0.1,0,0.2,0,0.3,0.1c0.1,0,0.3,0,0.4,0.1
					c0.2,0,0.4,0.1,0.5,0.1c0.6,0.1,1.2,0.1,1.8,0.1c1.4,0,2.6-0.2,3.7-0.6c0.1,0,0.3-0.1,0.4-0.2c0.2-0.1,0.4-0.2,0.6-0.3
					s0.4-0.2,0.6-0.3s0.3-0.2,0.5-0.3s0.4-0.3,0.5-0.4c1.4-1.1,2.4-2.5,3.1-4c0.4-0.8,0.7-1.6,1-2.4c1-2.9,1.2-5.5,1.2-5.6l0.1-1
					h0.4h0.6l0,0c0.1,0,0.3,0,0.5,0c0.3,0.1,0.7,0.2,1.2,0.4c1.6,0.7,3.9,2.5,5.5,7.2c2.6,7.6,6,12.7,10,15
					C340,177.5,338.6,172.7,338.4,166.2z M315,143.8l0.2-1.9c-4.3-1.2-3.5-6.2-6-8.3c0.4,0.2,0.8,0.3,1.2,0.3c0.7,0,1.5-0.2,2.3-0.2
					c1.1,0,2.1,0.3,2.8,1.6C317.3,138.5,315,143.8,315,143.8z"/>
			</g>
			<g>
				<path d="M302.9,157.6l0.2,0.3l0.4,0.7l0.1-0.2l0,0L302.9,157.6z M302.9,157.6l0.2,0.3l0.4,0.7l0.1-0.2l0,0L302.9,157.6z
					 M308.3,172.5c-0.2,0-0.4-0.1-0.6-0.2c0.4,0.1,0.8,0.2,1.2,0.3C308.7,172.6,308.5,172.5,308.3,172.5z"/>
			</g>
		</g>
		<g>
			<path d="M227.5,140.2c-2.7,3-9.4,9.9-13.5,10.6c-1,0.2-2.2,0.3-3.6,0.4h-0.1c-1.1,0.1-2.2,0.2-3.4,0.3c-2.6,0.3-5.2,0.8-7.5,1.9
				c-1.6,0.8-3.1,1.9-4,3.4l-0.7,1.1l-0.4,0.7l-0.4-0.8l-0.5-1c-0.1-0.2-0.1-0.3-0.2-0.5c-1-2.6,0.5-4.5,2.3-6.8
				c1.3-1.6,2.8-3.5,4.2-6.4c0.7-1.5,1.4-3.1,1.9-5.1c0-0.1,0.1-0.3,0.1-0.4c0.8-2.8,1.7-5.4,2.5-7.7c1.9-5.3,3.4-9.6,2.1-12
				c-0.7-1.3-2.3-2.3-4.9-2.9c-1.3-0.3-1.7-0.1-1.8,0c-0.3,0.2-0.4,1.1-0.5,2c-0.1,1.2-0.3,2.5-1,3.7c-1.2,1.9-1.8,3.2-2.2,4.2
				c-1.1,2.3-1.6,3.3-5.1,6.3l-0.8,0.7l-0.7-0.7c0,0-3.1-2.9-6.4-2.9c-0.5,0-1.1,0.1-1.6,0.3c-3.2,1.1-5.4,5.9-6.4,13.7l-0.1,0.6
				l-0.6,0.3c-0.1,0.1-14.5,6.8-14.9,23.3c-0.2,6.5-1.6,11.3-4.3,14.3c4-2.3,7.4-7.4,10-15c1.6-4.7,3.9-6.5,5.5-7.2
				c0.5-0.2,0.9-0.3,1.2-0.4c0.3-0.1,0.5-0.1,0.6-0.1h0.7h0.4l0.1,1c0,0.1,0.2,2.9,1.3,6c0.3,0.8,0.6,1.6,1.1,2.3
				c0.8,1.5,1.9,2.9,3.3,3.9c0.7,0.5,1.4,1,2.3,1.3l0,0c1.8,0.7,3.9,0.8,6.2,0.4c1.3-0.2,2.8-0.6,4.3-1.2c2.3-0.9,4.7-2.1,7.4-3.8
				c0.5-0.3,1-0.6,1.4-0.9c0.1-0.1,0.2-0.1,0.3-0.2c0.6-0.4,1.2-0.8,1.7-1.2C227.1,149.2,228.6,143.2,227.5,140.2z M184.3,141.6
				l0.3,1.9c0,0-2.3-5.2-0.6-8.5c1.6-3,4.6-0.8,6.3-1.8C187.8,135.3,188.7,140.3,184.3,141.6z"/>
		</g>
	</g>
	<g>
		<rect x="0" y="356.8" class="st0" width="494.5" height="99"/>
		<g class="st1">
			<path d="M31,421.5c-5.1,0-9.5-0.8-13.4-2.4c-3.8-1.6-7-3.7-9.5-6.5s-4.4-6-5.6-9.7s-1.9-7.7-1.9-12c0-3.6,0.6-7.2,1.8-10.8
				c1.2-3.6,3.1-6.9,5.7-9.9c2.6-2.9,5.9-5.3,10-7.2c4.1-1.8,8.9-2.8,14.5-2.8c3.1,0,6,0.2,8.7,0.6s5.6,1.1,8.8,1.9
				c0.1,1.6,0.4,3.7,0.7,6.3c0.4,2.5,0.9,5,1.5,7.5c-0.3,0.1-0.7,0.1-1.2,0.2s-0.8,0.1-1.1,0.1c-0.5,0-0.9-0.1-1.2-0.2
				c-0.3-0.2-0.6-0.5-0.7-1c-0.7-2-1.4-3.7-2.3-5c-0.8-1.4-1.9-2.5-3-3.3c-1.2-0.8-2.6-1.4-4.1-1.8c-1.6-0.4-3.4-0.5-5.5-0.5
				c-3.3,0-6.2,0.6-8.7,1.7s-4.6,2.7-6.3,4.8c-1.7,2.1-3,4.6-3.9,7.5s-1.3,6.3-1.3,10c0,3.9,0.5,7.6,1.6,11s2.5,6.3,4.4,8.8
				c1.8,2.5,4,4.4,6.6,5.8c2.5,1.4,5.3,2.1,8.3,2.1c2.4,0,4.5-0.2,6.2-0.7s3.2-1.2,4.5-2.1c1.2-0.9,2.3-2.1,3.2-3.6s1.7-3.2,2.4-5.1
				c0.2-0.5,0.5-0.8,0.9-1s0.8-0.3,1.2-0.3c0.3,0,0.7,0,1.1,0.1c0.5,0.1,0.8,0.2,1.1,0.3c-0.4,1-0.7,2.2-1.1,3.5
				c-0.4,1.3-0.8,2.6-1.2,4s-0.8,2.7-1.1,4.1s-0.6,2.7-0.9,4c-3,0.5-6,0.9-9.1,1.2C38.1,421.4,34.7,421.5,31,421.5z"/>
		</g>
		<g class="st1">
			<path d="M60.9,390.9c0-4.2,0.8-8.2,2.4-11.9c1.6-3.7,3.8-6.9,6.6-9.7c2.8-2.8,6-5,9.8-6.6c3.7-1.6,7.7-2.4,12-2.4
				c4.4,0,8.4,0.8,12.2,2.3c3.8,1.5,7,3.6,9.8,6.4c2.8,2.7,4.9,6,6.5,9.7c1.6,3.8,2.4,7.9,2.4,12.3c0,4.2-0.8,8.2-2.4,12
				c-1.6,3.7-3.8,7-6.6,9.7c-2.8,2.8-6.1,4.9-9.8,6.5c-3.8,1.6-7.8,2.4-12,2.4c-4.4,0-8.4-0.8-12.2-2.3c-3.8-1.5-7-3.6-9.7-6.4
				s-4.9-6-6.5-9.7C61.7,399.5,60.9,395.4,60.9,390.9z M93,416.8c2.5,0,4.8-0.6,6.9-1.7s3.8-2.7,5.3-4.6s2.6-4.2,3.5-6.8
				c0.8-2.6,1.2-5.4,1.2-8.4c0-4.3-0.4-8.3-1.2-12c-0.8-3.7-2.1-6.9-3.7-9.6c-1.7-2.7-3.8-4.8-6.3-6.4c-2.5-1.5-5.4-2.3-8.8-2.3
				c-2.1,0-4.2,0.5-6.2,1.4s-3.8,2.3-5.3,4.1c-1.5,1.8-2.7,4-3.6,6.5s-1.4,5.4-1.4,8.6c0,4.5,0.4,8.6,1.3,12.5
				c0.9,3.8,2.2,7.1,3.8,9.9c1.7,2.8,3.7,4.9,6.1,6.5C87.1,416,89.9,416.8,93,416.8z"/>
			<path d="M176.2,400.6v-32.3c0-1.3-0.5-2.3-1.4-2.8s-2.5-1-4.8-1.3c-0.8-0.2-1.2-0.8-1.2-1.7c0-0.2,0-0.4,0-0.7
				c0-0.3,0.1-0.6,0.2-0.9c1.5,0.2,3,0.3,4.5,0.4s3.2,0.1,5.1,0.1c1.9,0,3.6,0,5-0.1s2.8-0.2,4.2-0.4c0.1,0.3,0.1,0.6,0.1,0.9
				s0,0.5,0,0.7c0,1-0.4,1.6-1.1,1.7c-2,0.3-3.4,0.7-4.1,1.3c-0.7,0.5-1.1,1.4-1.1,2.6v53.2c-0.2,0.1-0.7,0.1-1.2,0.1
				c-0.6,0-1,0-1.1,0c-0.4,0-0.9-0.1-1.4-0.3c-0.5-0.2-1-0.7-1.5-1.3l-35.8-45.5v39.3c0,0.6,0,1.1,0.1,1.5s0.3,0.7,0.7,1
				s1,0.5,1.7,0.7c0.8,0.2,1.8,0.4,3,0.7c0.3,0.1,0.6,0.2,0.8,0.4c0.2,0.2,0.3,0.7,0.3,1.3c0,0.4-0.1,0.9-0.2,1.5
				c-1.5-0.1-2.9-0.2-4.3-0.3c-1.3-0.1-2.9-0.1-4.6-0.1c-1.8,0-3.4,0-5,0.1s-3.1,0.2-4.4,0.3c-0.1-0.2-0.2-0.5-0.2-0.8s0-0.5,0-0.7
				c0-0.6,0.1-1,0.3-1.3c0.2-0.2,0.5-0.4,0.8-0.5c2.2-0.4,3.6-0.8,4.4-1.4c0.7-0.5,1.1-1.4,1.1-2.5v-46c0-1-0.3-1.7-1-2.2
				c-0.6-0.5-2.1-0.9-4.3-1.2c-0.7-0.2-1.1-0.8-1.1-1.7c0-0.1,0-0.3,0-0.4c0-0.2,0-0.3,0.1-0.5l0.1-0.7c0.8,0.1,1.7,0.1,2.5,0.1
				s1.6,0.1,2.4,0.1c1.3,0.1,2.7,0.1,4,0.1c1.4,0,2.5,0,3.3,0c1.8,0,2.9,0.1,3.5,0.2c0.5,0.2,1,0.4,1.5,0.9L176.2,400.6z"/>
			<path d="M232.3,420.7c2.1,0.5,3.8,1.3,5.4,2.1c1.5,0.9,2.9,1.8,4.1,2.8c1.2,1,2.4,2,3.5,3s2.3,2,3.7,2.9c1.4,1,2.6,1.6,3.5,1.8
				c0.9,0.2,1.8,0.3,2.6,0.3s1.5-0.1,2-0.3c0.6-0.2,1-0.3,1.3-0.3c0.4,0,0.7,0.1,0.9,0.4c0.2,0.2,0.4,0.5,0.5,0.8
				c-1.3,1.5-2.8,2.7-4.5,3.7c-1.7,0.9-3.5,1.4-5.5,1.4c-3.5,0-6.5-0.7-9-2.2s-4.9-3.2-7.1-5.1c-2.2-2-4.5-4-6.8-6s-5.1-3.7-8.2-4.9
				c-3.9-0.7-7.4-1.9-10.6-3.6c-3.2-1.7-5.9-3.9-8.2-6.5s-4-5.7-5.3-9c-1.2-3.4-1.9-7.1-1.9-11.1c0-4.2,0.8-8.2,2.4-11.9
				c1.6-3.7,3.8-6.9,6.6-9.7c2.8-2.8,6-5,9.8-6.6c3.7-1.6,7.7-2.4,12-2.4c4.4,0,8.4,0.8,12.2,2.3s7,3.6,9.8,6.4
				c2.8,2.7,4.9,6,6.5,9.7c1.6,3.8,2.4,7.9,2.4,12.3c0,3.4-0.5,6.7-1.5,9.8c-1,3.2-2.5,6-4.4,8.6s-4.2,4.8-7,6.8
				c-2.7,1.9-5.8,3.4-9.2,4.3L232.3,420.7L232.3,420.7z M225,416.8c2.5,0,4.8-0.6,6.9-1.7c2.1-1.1,3.8-2.7,5.3-4.6s2.6-4.2,3.5-6.8
				c0.8-2.6,1.2-5.4,1.2-8.4c0-4.3-0.4-8.3-1.2-12s-2.1-6.9-3.7-9.6c-1.7-2.7-3.8-4.8-6.3-6.4c-2.5-1.5-5.4-2.3-8.8-2.3
				c-2.1,0-4.2,0.5-6.2,1.4s-3.8,2.3-5.3,4.1c-1.5,1.8-2.7,4-3.6,6.5s-1.4,5.4-1.4,8.6c0,4.5,0.4,8.6,1.3,12.5
				c0.9,3.8,2.2,7.1,3.8,9.9c1.7,2.8,3.7,4.9,6.1,6.5C219.1,416,221.9,416.8,225,416.8z"/>
		</g>
		<g class="st1">
			<path d="M318.6,398c0,3.5-0.4,6.6-1.1,9.5s-2,5.4-3.8,7.5s-4.2,3.7-7.2,4.9c-3,1.2-6.8,1.7-11.3,1.7c-5.4,0-9.7-0.6-13-1.8
				s-5.8-2.9-7.6-5c-1.8-2.1-3-4.5-3.6-7.4c-0.6-2.8-0.9-5.8-0.9-9v-30.2c0-1.3-0.4-2.2-1.2-2.7c-0.8-0.5-2.4-0.9-4.8-1.2
				c-0.7-0.1-1-0.7-1-1.7c0-0.2,0-0.4,0-0.7c0-0.3,0.1-0.6,0.2-0.9c1.8,0.1,3.6,0.2,5.6,0.3c2,0.1,4.3,0.1,7,0.1
				c2.1,0,4.3,0,6.6-0.1c2.3-0.1,4.4-0.2,6.2-0.3c0.1,0.3,0.1,0.6,0.1,0.9s0,0.5,0,0.7c0,1-0.3,1.6-1,1.7c-2.5,0.3-4.2,0.7-5,1.3
				c-0.9,0.5-1.3,1.4-1.3,2.6v28.2c0,6.3,1.2,11.1,3.5,14.4s6.3,4.9,12,4.9c5.8,0,10-1.5,12.4-4.6c2.5-3.1,3.7-8,3.7-15v-27.9
				c0-1.2-0.4-2.1-1.3-2.6c-0.8-0.5-2.5-1-4.8-1.3c-0.7-0.2-1.1-0.8-1.1-1.7c0-0.2,0-0.4,0-0.7c0-0.3,0.1-0.6,0.1-0.9
				c1.8,0.2,3.4,0.3,4.9,0.4s3.1,0.1,4.8,0.1c1.9,0,3.7,0,5.2-0.1s3-0.2,4.5-0.4c0.1,0.3,0.1,0.6,0.1,0.9s0,0.5,0,0.7
				c0,1-0.4,1.5-1.1,1.7c-2.2,0.2-3.8,0.7-4.6,1.2c-0.8,0.6-1.3,1.5-1.3,2.7L318.6,398L318.6,398z"/>
		</g>
		<g class="st1">
			<path d="M352.8,365.9v21.9h12.8c1.2,0,1.9-0.5,2.4-1.4c0.4-0.9,0.8-2.5,1.1-4.6c0.1-0.5,0.2-0.8,0.5-1s0.7-0.2,1.2-0.2
				c0.2,0,0.5,0,0.9,0s0.7,0.1,0.9,0.1c-0.1,1.4-0.2,3-0.3,4.9c-0.1,1.8-0.1,3.4-0.1,4.7c0,1.1,0,2.4,0.1,3.9s0.2,3.2,0.4,5
				c-0.2,0.1-0.5,0.2-0.9,0.2s-0.7,0-0.9,0c-1.1,0-1.7-0.4-1.7-1.3c-0.4-2.3-0.8-3.9-1.2-4.7c-0.5-0.8-1.2-1.2-2.2-1.2H353v20.4
				c0,1.3,0.8,2.1,2.4,2.5s4.2,0.6,8,0.6h3.8c1.8,0,3.3-0.2,4.6-0.7c1.2-0.5,2.3-1.2,3.3-2c1-0.9,1.8-1.9,2.5-3.1s1.5-2.5,2.2-4
				c0.2-0.4,0.6-0.6,1.3-0.6c0.3,0,0.7,0.1,1.1,0.3c0.4,0.2,0.8,0.4,1.3,0.5c-0.1,0.5-0.3,0.9-0.4,1.4c-0.2,0.4-0.3,0.8-0.4,1.3
				c-0.3,0.7-0.5,1.4-0.7,2.2c-0.2,0.8-0.4,1.4-0.5,1.9c-0.1,0.6-0.3,1.3-0.4,2c-0.2,0.8-0.3,1.5-0.5,2.2s-0.3,1.3-0.5,1.9
				c-0.2,0.5-0.3,0.9-0.3,1.1c-0.2,0.5-0.7,0.7-1.5,0.7c-0.5,0-1.2,0-2.1-0.1s-1.9-0.1-3-0.1s-2.1-0.1-3.2-0.1
				c-1.1-0.1-2-0.1-2.8-0.1h-20.6c-1.8,0-3.8,0-6,0.1c-2.3,0.1-4.3,0.2-6.1,0.3c-0.1-0.2-0.2-0.6-0.2-1s0-0.7,0-0.9
				c0-0.9,0.3-1.4,0.9-1.5c2.3-0.4,4-0.9,5-1.4s1.5-1.3,1.5-2.5v-45.6c0-0.6-0.1-1.1-0.3-1.5c-0.2-0.4-0.5-0.7-1-1s-1.2-0.5-2-0.7
				s-1.9-0.4-3.1-0.7c-0.6-0.2-0.9-0.7-0.9-1.6c0-0.3,0-0.6,0-0.9s0.1-0.6,0.2-0.9c2.6,0.2,4.9,0.3,6.9,0.4s3.7,0.1,5.2,0.1h18.6
				c2.7,0,5.1-0.1,7-0.3c2-0.2,3.3-0.3,4-0.3s1.2,0.3,1.5,0.8c0.2,0.5,0.3,1.4,0.5,2.7c0.1,1.3,0.3,2.7,0.6,4c0.2,1,0.4,2,0.6,3
				s0.6,2.2,1.1,3.5c-0.3,0.1-0.6,0.2-1,0.4c-0.4,0.1-0.7,0.2-1.1,0.2c-0.7,0-1.2-0.3-1.5-0.8c-0.7-1.6-1.4-2.9-2.1-4
				s-1.5-2-2.4-2.7s-1.9-1.2-3.1-1.5s-2.6-0.5-4.2-0.5h-12.4V365.9z"/>
		</g>
		<g class="st1">
			<path d="M431.8,376.1c-0.5,0.2-1.1,0.3-1.7,0.3c-0.8,0-1.5-0.2-1.8-0.5c-0.4-0.3-0.6-0.7-0.7-1c-1.4-3.5-3.2-5.9-5.4-7.5
				c-2.2-1.5-5.2-2.3-8.9-2.3c-2.9,0-5.4,0.7-7.4,2.1s-3,3.6-3,6.5c0,2.2,0.8,4,2.3,5.4s3.5,2.6,5.8,3.6s4.8,2,7.5,3
				s5.2,2.2,7.5,3.6c2.3,1.5,4.3,3.3,5.8,5.5s2.3,5.1,2.3,8.6c0,2.3-0.4,4.5-1.2,6.7c-0.8,2.2-2,4.1-3.7,5.8c-1.7,1.7-3.8,3-6.5,4
				c-2.6,1-5.7,1.5-9.4,1.5c-4,0-7.6-0.4-10.7-1.3c-3.2-0.9-5.8-1.8-7.8-2.8c-0.2-2.6-0.5-5.2-0.9-7.7s-0.8-5-1.3-7.3
				c0.6-0.2,1.3-0.4,2.1-0.4c0.7,0,1.3,0.1,1.6,0.4c0.4,0.3,0.7,0.7,0.9,1.4c0.8,2.3,1.7,4.3,2.6,6c1,1.7,2.1,3,3.4,4.1
				s2.7,1.8,4.4,2.3c1.7,0.5,3.6,0.7,5.8,0.7c1.9,0,3.5-0.3,4.8-0.8s2.4-1.2,3.3-2c0.8-0.8,1.5-1.9,1.9-3c0.4-1.2,0.6-2.3,0.6-3.6
				c0-2.6-0.7-4.7-2.2-6.1c-1.5-1.5-3.3-2.7-5.5-3.7s-4.6-1.9-7.2-2.8s-5-2-7.2-3.4s-4.1-3.1-5.5-5.3c-1.5-2.2-2.2-5.1-2.2-8.7
				c0-2.4,0.4-4.7,1.3-6.8c0.9-2.1,2.2-3.9,3.9-5.5c1.7-1.5,3.7-2.8,6.1-3.7c2.4-0.9,5.1-1.4,8.2-1.4c2.5,0,5.1,0.3,7.7,0.8
				s5.5,1.5,8.8,2.7c0.1,1.8,0.3,3.9,0.6,6.1C431.1,372.2,431.5,374.3,431.8,376.1z"/>
		</g>
		<g class="st1">
			<path d="M474.8,365.9v47.8c0,0.6,0,1.1,0.1,1.5s0.3,0.7,0.7,1c0.4,0.3,0.9,0.6,1.5,0.8c0.7,0.2,1.6,0.4,2.8,0.6
				c0.9,0.2,1.4,0.7,1.4,1.5c0,0.2,0,0.5,0,0.8c0,0.4-0.1,0.7-0.1,0.9c-1.9-0.1-4-0.2-6.2-0.3c-2.2-0.1-4.2-0.1-5.9-0.1
				c-1.8,0-3.7,0-5.9,0.1s-4.2,0.2-6.1,0.3c-0.1-0.2-0.2-0.5-0.2-0.9s0-0.6,0-0.8c0-0.4,0.1-0.8,0.2-1s0.6-0.5,1.2-0.6
				c2.2-0.3,3.7-0.7,4.2-1.2c0.6-0.5,0.9-1.4,0.9-2.6v-47.8h-8c-1.7,0-3.1,0.2-4.3,0.5c-1.2,0.3-2.2,0.8-3.1,1.5s-1.7,1.6-2.4,2.7
				c-0.7,1.1-1.4,2.5-2.1,4c-0.2,0.5-0.7,0.8-1.4,0.8c-0.4,0-0.8-0.1-1.3-0.2c-0.5-0.2-0.8-0.3-1.1-0.4c0.4-1.5,0.8-2.7,1.1-3.9
				c0.3-1.1,0.5-2.2,0.7-3.3c0.2-1.4,0.4-2.6,0.5-3.7s0.3-1.9,0.5-2.4s0.7-0.8,1.5-0.8c0.7,0,2,0.1,4,0.3c2,0.2,4.3,0.3,7.1,0.3h28
				c2.7,0,5.1-0.1,7-0.3c2-0.2,3.3-0.3,4-0.3s1.2,0.3,1.5,0.8c0.2,0.5,0.3,1.3,0.4,2.4s0.3,2.3,0.6,3.7c0.2,1.1,0.4,2.2,0.7,3.3
				c0.3,1.1,0.7,2.4,1.1,3.9c-0.3,0.1-0.7,0.3-1.1,0.4c-0.5,0.2-0.9,0.2-1.2,0.2c-0.7,0-1.2-0.3-1.5-0.8c-0.7-1.6-1.4-2.9-2.1-4
				s-1.5-2-2.4-2.7s-1.9-1.2-3.1-1.5s-2.6-0.5-4.2-0.5L474.8,365.9L474.8,365.9z"/>
		</g>
	</g>
</g>
<g>
	<rect x="-575.8" y="32.8" class="st2" width="498.1" height="440"/>
	<g>
		<g>
			<polygon points="-429.4,322.1 -434.2,316.8 -409.1,290.6 -400.6,300.1 			"/>
			<path d="M-440.9,318.1l-0.3,8.6c0,1.1,0.8,1.9,1.8,2l8.5,0.3c0.8,0,1.5-0.4,1.8-1.2l7.2-17.3l-17.8,5.9
				C-440.4,316.8-440.9,317.4-440.9,318.1z"/>
			<g>
				<g>
					<g>
						<path class="st3" d="M-212.8,180.4L-212.8,180.4c0,0.1-0.1,0.4-0.2,0.9c-6.2,2.6-11.4,9.1-13.3,17.5c-1.1,5.1-0.9,10,0.4,14.2
							c-6.1,0.6-12.6,4.3-17.3,10.5c-3.6,4.9-5.5,10.4-5.5,15.5c-0.2,0.1-0.3,0.2-0.5,0.4c-4.8-2.2-11-2.8-17.3-1.2
							c-7.8,2-13.8,6.8-16.5,12.5c-0.4,0-0.8,0-1.2,0.1c-2.5-5.6-8.1-10.5-15.5-12.9c-8.2-2.6-16.4-1.5-21.8,2.5
							c-1.1-7.1-7.3-14-16.3-17.1l0.3-1c0,0,0,0,0.1,0c0.1-0.1,0.3-0.2,0.7-0.3c0.2-0.1,0.6-0.3,0.9-0.5c0.1-0.1,0.3-0.1,0.4-0.2
							c7.3-3.6,31.8-15.8,49.9-23.9C-265.5,192.8-232.6,187.9-212.8,180.4z"/>
						<path d="M-209.9,178.2c0.8-0.6,0-1.9-0.9-1.4c-37.1,17-79.1,9.3-82.1,15.6c-4.8,10.3-44.6,29.8-44.6,29.8
							c13.8-0.2,38.9-11,51-19.5c4.6-3.3,10-5.4,15.6-6.1C-255.2,194.8-225.5,190.4-209.9,178.2z"/>
					</g>
					<path class="st4" d="M-225.9,212.9c0,0-41.5-11.3-68.9-11.9c0,0,48.7,24,45.6,38.2"/>
					<path class="st4" d="M-284.2,250.6c0,0,1.9-42.1-13.8-49.6"/>
				</g>
				<g>
					<g>
						<path class="st3" d="M-444.3,180.4L-444.3,180.4c0,0.1,0.1,0.4,0.2,0.9c6.2,2.6,11.4,9.1,13.3,17.5c1.1,5.1,0.9,10-0.4,14.2
							c6.1,0.6,12.6,4.3,17.3,10.5c3.6,4.9,5.5,10.4,5.5,15.5c0.2,0.1,0.3,0.2,0.5,0.4c4.8-2.2,11-2.8,17.3-1.2
							c7.8,2,13.8,6.8,16.5,12.5c0.4,0,0.8,0,1.2,0.1c2.5-5.6,8.1-10.5,15.5-12.9c8.2-2.6,16.4-1.5,21.8,2.5
							c1.1-7.1,7.3-14,16.3-17.1l-0.3-1c0,0,0,0-0.1,0c-0.1-0.1-0.3-0.2-0.7-0.3c-0.2-0.1-0.6-0.3-0.9-0.5c-0.1-0.1-0.3-0.1-0.4-0.2
							c-7.3-3.6-31.8-15.8-49.9-23.9C-391.7,192.8-424.6,187.9-444.3,180.4z"/>
						<path d="M-447.3,178.2c-0.8-0.6,0-1.9,0.9-1.4c37.1,17,79.1,9.3,82.1,15.6c4.8,10.3,44.6,29.8,44.6,29.8
							c-13.8-0.2-38.9-11-51-19.5c-4.6-3.3-10-5.4-15.6-6.1C-402,194.8-431.7,190.4-447.3,178.2z"/>
					</g>
					<path class="st4" d="M-431.3,212.9c0,0,41.5-11.3,68.9-11.9c0,0-48.7,24-45.6,38.2"/>
					<path class="st4" d="M-372.9,250.6c0,0-1.9-42.1,13.8-49.6"/>
				</g>
				<path d="M-418.1,281c-2-2.3-2.2-5.6-0.6-8c0.5-0.7,1.5-0.8,2.1-0.1l14.5,20.7l18.2,15.9c0.6,0.6,0.4,1.7-0.3,2.1
					c-2.6,1.3-5.8,0.8-7.9-1.5L-418.1,281z"/>
				<g>
					<polygon class="st5" points="-402.9,293.5 -399.1,297.5 -252,161.9 -239.8,129.9 -271.5,142.2 -406.8,289.8 					"/>
					<line class="st4" x1="-403" y1="293.8" x2="-239.8" y2="129.9"/>
				</g>
				<g>
					<polygon class="st5" points="-258.9,293.4 -255,289.5 -390.7,142.4 -422.5,130.2 -410.2,161.9 -262.7,297.2 					"/>
					<line class="st4" x1="-258.8" y1="293.5" x2="-422.5" y2="130.2"/>
				</g>
				<g>
					<polygon points="-232.8,322.1 -228,316.8 -253.1,290.6 -261.6,300.1 					"/>
				</g>
				<g>
					<polygon class="st5" points="-329.9,292.5 -324.5,292.5 -316.1,92.7 -329.9,61.5 -343.7,92.7 -335.4,292.5 					"/>
					<line class="st4" x1="-329.9" y1="292.8" x2="-329.9" y2="61.5"/>
				</g>
				<g>
					<path d="M-349.5,300.1c-3.6,0-6.5-2.9-6.5-6.5v-13c0-1.9,1.9-2.4,2.4-0.7l2.1,7.1c0.8,2.8,3.4,4.7,6.3,4.7h30.5
						c2.9,0,5.4-1.9,6.3-4.7l2.1-7.1c0.5-1.8,2.4-1.2,2.4,0.7v13c0,3.6-2.9,6.5-6.5,6.5H-349.5z"/>
					<polygon points="-326.3,336 -333.6,336 -336.3,299.9 -323.6,299.9 					"/>
					<circle cx="-329.9" cy="343.5" r="9.2"/>
				</g>
				<path d="M-337.7,248.1c-10.2,0-25.3-9.5-25.3-23.5c0-18.2,13-27.8,23.3-30.9c0,0,1.4,16.3,2,24.3c7.2,0,16.7-4.6,17.8-12.8
					c2.7-20.4-4.3-45.7-27.1-50l6.1-30c13.8,3.8,27.7,17.5,37.5,36c9.2,17.5,10.1,41.6,7,53.6C-301.2,233.4-313.8,248.1-337.7,248.1
					z"/>
				<path class="st6" d="M-347.2,141.9c-0.6-4.8-7.1-2.4-16.1-10.5c-10.2-9.2-19.5-12.7-11.7-20.6c3.5-3.6,4,1.2,6.9,2.7
					c6,3,4.6,3.7,11.1,4.7c0,0,4.3-17.1,19.5,1.2c0,0,16-2.1,25.3,12c9.3,14.1,16.8,8.4,16.8,8.4s-6.9,9-23.5-4.5
					c-5.6-4.6-8.7-2.5-8.7-2.5s3.6,9-1.4,15.6c-2.7,3.6-6.7,7-18,6.7c-32.1-1-36.9-5.3-36.9-10.9c0,0,13.1,4,17.4,2.3
					C-362.3,144.8-353.9,138.6-347.2,141.9z"/>
				<path class="st7" d="M-343.8,125.2c0,0-0.8-5.5-3.9-7.3c-3.1-1.8-4.4,2.3-6.5,1.8c3.4,0.1,5.2,5.1,9.6,3.8"/>
				<path d="M-241.6,277.8l-30.4,35.8c-1.7,2-4.1,2.7-5.4,1.6l0,0c-1.3-1.1-1-3.6,0.7-5.6l12-11.1c3.6-3.4,6.9-7.2,9.6-11.4
					l8.7-13.3c1.7-2,4.1-2.7,5.4-1.6l0,0C-239.7,273.2-239.9,275.8-241.6,277.8z"/>
			</g>
			<path d="M-236.7,315.5c-0.5-1.4,1-2.9,2.4-2.4l7.2,2.4l8.5,2.9c1.2,0.4,1.4,1.9,0.5,2.9l-5.1,5.2l-5.1,5.2
				c-0.9,1-2.5,0.7-2.9-0.4l-3-8.4L-236.7,315.5z"/>
		</g>
		<g>
			<rect x="-575.8" y="390.2" class="st0" width="494.5" height="99"/>
			<g class="st1">
				<path d="M-544.8,455c-5.1,0-9.5-0.8-13.4-2.4c-3.8-1.6-7-3.7-9.5-6.5s-4.4-6-5.6-9.7s-1.9-7.7-1.9-12c0-3.6,0.6-7.2,1.8-10.8
					c1.2-3.6,3.1-6.9,5.7-9.9c2.6-2.9,5.9-5.3,10-7.2c4.1-1.8,8.9-2.8,14.5-2.8c3.1,0,6,0.2,8.7,0.6s5.6,1.1,8.8,1.9
					c0.1,1.6,0.4,3.7,0.7,6.3c0.4,2.5,0.9,5,1.5,7.5c-0.3,0.1-0.7,0.1-1.2,0.2s-0.8,0.1-1.1,0.1c-0.5,0-0.9-0.1-1.2-0.2
					c-0.3-0.2-0.6-0.5-0.7-1c-0.7-2-1.4-3.7-2.3-5c-0.8-1.4-1.9-2.5-3-3.3c-1.2-0.8-2.6-1.4-4.1-1.8c-1.6-0.4-3.4-0.5-5.5-0.5
					c-3.3,0-6.2,0.6-8.7,1.7s-4.6,2.7-6.3,4.8c-1.7,2.1-3,4.6-3.9,7.5c-0.9,2.9-1.3,6.3-1.3,10c0,3.9,0.5,7.6,1.6,11
					c1.1,3.4,2.5,6.3,4.4,8.8c1.8,2.5,4,4.4,6.6,5.8c2.5,1.4,5.3,2.1,8.3,2.1c2.4,0,4.5-0.2,6.2-0.7c1.7-0.5,3.2-1.2,4.5-2.1
					c1.2-0.9,2.3-2.1,3.2-3.6c0.9-1.5,1.7-3.2,2.4-5.1c0.2-0.5,0.5-0.8,0.9-1c0.4-0.2,0.8-0.3,1.2-0.3c0.3,0,0.7,0,1.1,0.1
					c0.5,0.1,0.8,0.2,1.1,0.3c-0.4,1-0.7,2.2-1.1,3.5c-0.4,1.3-0.8,2.6-1.2,4c-0.4,1.4-0.8,2.7-1.1,4.1c-0.3,1.4-0.6,2.7-0.9,4
					c-3,0.5-6,0.9-9.1,1.2C-537.7,454.9-541.1,455-544.8,455z"/>
			</g>
			<g class="st1">
				<path d="M-514.9,424.4c0-4.2,0.8-8.2,2.4-11.9c1.6-3.7,3.8-6.9,6.6-9.7c2.8-2.8,6-5,9.8-6.6c3.7-1.6,7.7-2.4,12-2.4
					c4.4,0,8.4,0.8,12.2,2.3c3.8,1.5,7,3.6,9.8,6.4c2.8,2.7,4.9,6,6.5,9.7c1.6,3.8,2.4,7.9,2.4,12.3c0,4.2-0.8,8.2-2.4,12
					c-1.6,3.7-3.8,7-6.6,9.7c-2.8,2.8-6.1,4.9-9.8,6.5c-3.8,1.6-7.8,2.4-12,2.4c-4.4,0-8.4-0.8-12.2-2.3c-3.8-1.5-7-3.6-9.7-6.4
					c-2.7-2.8-4.9-6-6.5-9.7C-514.1,433-514.9,428.9-514.9,424.4z M-482.8,450.2c2.5,0,4.8-0.6,6.9-1.7s3.8-2.7,5.3-4.6
					s2.6-4.2,3.5-6.8c0.8-2.6,1.2-5.4,1.2-8.4c0-4.3-0.4-8.3-1.2-12c-0.8-3.7-2.1-6.9-3.7-9.6c-1.7-2.7-3.8-4.8-6.3-6.4
					c-2.5-1.5-5.4-2.3-8.8-2.3c-2.1,0-4.2,0.5-6.2,1.4s-3.8,2.3-5.3,4.1c-1.5,1.8-2.7,4-3.6,6.5c-0.9,2.5-1.4,5.4-1.4,8.6
					c0,4.5,0.4,8.6,1.3,12.5c0.9,3.8,2.2,7.1,3.8,9.9c1.7,2.8,3.7,4.9,6.1,6.5C-488.7,449.5-485.9,450.2-482.8,450.2z"/>
				<path d="M-399.6,434v-32.3c0-1.3-0.5-2.3-1.4-2.8s-2.5-1-4.8-1.3c-0.8-0.2-1.2-0.8-1.2-1.7c0-0.2,0-0.4,0-0.7
					c0-0.3,0.1-0.6,0.2-0.9c1.5,0.2,3,0.3,4.5,0.4s3.2,0.1,5.1,0.1s3.6,0,5-0.1s2.8-0.2,4.2-0.4c0.1,0.3,0.1,0.6,0.1,0.9
					s0,0.5,0,0.7c0,1-0.4,1.6-1.1,1.7c-2,0.3-3.4,0.7-4.1,1.3c-0.7,0.5-1.1,1.4-1.1,2.6v53.2c-0.2,0.1-0.7,0.1-1.2,0.1
					c-0.6,0-1,0-1.1,0c-0.4,0-0.9-0.1-1.4-0.3c-0.5-0.2-1-0.7-1.5-1.3l-35.8-45.5v39.3c0,0.6,0,1.1,0.1,1.5s0.3,0.7,0.7,1
					s1,0.5,1.7,0.7c0.8,0.2,1.8,0.4,3,0.7c0.3,0.1,0.6,0.2,0.8,0.4c0.2,0.2,0.3,0.7,0.3,1.3c0,0.4-0.1,0.9-0.2,1.5
					c-1.5-0.1-2.9-0.2-4.3-0.3c-1.3-0.1-2.9-0.1-4.6-0.1c-1.8,0-3.4,0-5,0.1s-3.1,0.2-4.4,0.3c-0.1-0.2-0.2-0.5-0.2-0.8s0-0.5,0-0.7
					c0-0.6,0.1-1,0.3-1.3c0.2-0.2,0.5-0.4,0.8-0.5c2.2-0.4,3.6-0.8,4.4-1.4c0.7-0.5,1.1-1.4,1.1-2.5v-46c0-1-0.3-1.7-1-2.2
					c-0.6-0.5-2.1-0.9-4.3-1.2c-0.7-0.2-1.1-0.8-1.1-1.7c0-0.1,0-0.3,0-0.4c0-0.2,0-0.3,0.1-0.5l0.1-0.7c0.8,0.1,1.7,0.1,2.5,0.1
					c0.8,0,1.6,0.1,2.4,0.1c1.3,0.1,2.7,0.1,4,0.1c1.4,0,2.5,0,3.3,0c1.8,0,2.9,0.1,3.5,0.2c0.5,0.2,1,0.4,1.5,0.9L-399.6,434z"/>
				<path d="M-343.5,454.1c2.1,0.5,3.8,1.3,5.4,2.1c1.5,0.9,2.9,1.8,4.1,2.8s2.4,2,3.5,3s2.3,2,3.7,2.9c1.4,1,2.6,1.6,3.5,1.8
					c0.9,0.2,1.8,0.3,2.6,0.3c0.8,0,1.5-0.1,2-0.3c0.6-0.2,1-0.3,1.3-0.3c0.4,0,0.7,0.1,0.9,0.4c0.2,0.2,0.4,0.5,0.5,0.8
					c-1.3,1.5-2.8,2.7-4.5,3.7c-1.7,0.9-3.5,1.4-5.5,1.4c-3.5,0-6.5-0.7-9-2.2s-4.9-3.2-7.1-5.1c-2.2-2-4.5-4-6.8-6
					c-2.3-2-5.1-3.7-8.2-4.9c-3.9-0.7-7.4-1.9-10.6-3.6s-5.9-3.9-8.2-6.5c-2.3-2.6-4-5.7-5.3-9c-1.2-3.4-1.9-7.1-1.9-11.1
					c0-4.2,0.8-8.2,2.4-11.9c1.6-3.7,3.8-6.9,6.6-9.7c2.8-2.8,6-5,9.8-6.6c3.7-1.6,7.7-2.4,12-2.4c4.4,0,8.4,0.8,12.2,2.3
					c3.8,1.5,7,3.6,9.8,6.4c2.8,2.7,4.9,6,6.5,9.7c1.6,3.8,2.4,7.9,2.4,12.3c0,3.4-0.5,6.7-1.5,9.8c-1,3.2-2.5,6-4.4,8.6
					s-4.2,4.8-7,6.8c-2.7,1.9-5.8,3.4-9.2,4.3V454.1L-343.5,454.1z M-350.8,450.2c2.5,0,4.8-0.6,6.9-1.7s3.8-2.7,5.3-4.6
					s2.6-4.2,3.5-6.8c0.8-2.6,1.2-5.4,1.2-8.4c0-4.3-0.4-8.3-1.2-12c-0.8-3.7-2.1-6.9-3.7-9.6c-1.7-2.7-3.8-4.8-6.3-6.4
					c-2.5-1.5-5.4-2.3-8.8-2.3c-2.1,0-4.2,0.5-6.2,1.4s-3.8,2.3-5.3,4.1c-1.5,1.8-2.7,4-3.6,6.5c-0.9,2.5-1.4,5.4-1.4,8.6
					c0,4.5,0.4,8.6,1.3,12.5c0.9,3.8,2.2,7.1,3.8,9.9c1.7,2.8,3.7,4.9,6.1,6.5C-356.7,449.5-353.9,450.2-350.8,450.2z"/>
			</g>
			<g class="st1">
				<path d="M-257.2,431.5c0,3.5-0.4,6.6-1.1,9.5s-2,5.4-3.8,7.5s-4.2,3.7-7.2,4.9c-3,1.2-6.8,1.7-11.3,1.7c-5.4,0-9.7-0.6-13-1.8
					s-5.8-2.9-7.6-5c-1.8-2.1-3-4.5-3.6-7.4c-0.6-2.8-0.9-5.8-0.9-9v-30.2c0-1.3-0.4-2.2-1.2-2.7c-0.8-0.5-2.4-0.9-4.8-1.2
					c-0.7-0.1-1-0.7-1-1.7c0-0.2,0-0.4,0-0.7c0-0.3,0.1-0.6,0.2-0.9c1.8,0.1,3.6,0.2,5.6,0.3c2,0.1,4.3,0.1,7,0.1
					c2.1,0,4.3,0,6.6-0.1c2.3-0.1,4.4-0.2,6.2-0.3c0.1,0.3,0.1,0.6,0.1,0.9s0,0.5,0,0.7c0,1-0.3,1.6-1,1.7c-2.5,0.3-4.2,0.7-5,1.3
					c-0.9,0.5-1.3,1.4-1.3,2.6v28.2c0,6.3,1.2,11.1,3.5,14.4s6.3,4.9,12,4.9c5.8,0,10-1.5,12.4-4.6c2.5-3.1,3.7-8,3.7-15v-27.9
					c0-1.2-0.4-2.1-1.3-2.6c-0.8-0.5-2.5-1-4.8-1.3c-0.7-0.2-1.1-0.8-1.1-1.7c0-0.2,0-0.4,0-0.7c0-0.3,0.1-0.6,0.1-0.9
					c1.8,0.2,3.4,0.3,4.9,0.4s3.1,0.1,4.8,0.1c1.9,0,3.7,0,5.2-0.1c1.5-0.1,3-0.2,4.5-0.4c0.1,0.3,0.1,0.6,0.1,0.9s0,0.5,0,0.7
					c0,1-0.4,1.5-1.1,1.7c-2.2,0.2-3.8,0.7-4.6,1.2c-0.8,0.6-1.3,1.5-1.3,2.7L-257.2,431.5L-257.2,431.5z"/>
			</g>
			<g class="st1">
				<path d="M-223,399.4v21.9h12.8c1.2,0,1.9-0.5,2.4-1.4c0.4-0.9,0.8-2.5,1.1-4.6c0.1-0.5,0.2-0.8,0.5-1s0.7-0.2,1.2-0.2
					c0.2,0,0.5,0,0.9,0s0.7,0.1,0.9,0.1c-0.1,1.4-0.2,3-0.3,4.9c-0.1,1.8-0.1,3.4-0.1,4.7c0,1.1,0,2.4,0.1,3.9s0.2,3.2,0.4,5
					c-0.2,0.1-0.5,0.2-0.9,0.2s-0.7,0-0.9,0c-1.1,0-1.7-0.4-1.7-1.3c-0.4-2.3-0.8-3.9-1.2-4.7c-0.5-0.8-1.2-1.2-2.2-1.2h-12.8V446
					c0,1.3,0.8,2.1,2.4,2.5s4.2,0.6,8,0.6h3.8c1.8,0,3.3-0.2,4.6-0.7c1.2-0.5,2.3-1.2,3.3-2c1-0.9,1.8-1.9,2.5-3.1s1.5-2.5,2.2-4
					c0.2-0.4,0.6-0.6,1.3-0.6c0.3,0,0.7,0.1,1.1,0.3c0.4,0.2,0.8,0.4,1.3,0.5c-0.1,0.5-0.3,0.9-0.4,1.4c-0.2,0.4-0.3,0.8-0.4,1.3
					c-0.3,0.7-0.5,1.4-0.7,2.2c-0.2,0.8-0.4,1.4-0.5,1.9c-0.1,0.6-0.3,1.3-0.4,2c-0.2,0.8-0.3,1.5-0.5,2.2s-0.3,1.3-0.5,1.9
					c-0.2,0.5-0.3,0.9-0.3,1.1c-0.2,0.5-0.7,0.7-1.5,0.7c-0.5,0-1.2,0-2.1-0.1s-1.9-0.1-3-0.1s-2.1-0.1-3.2-0.1
					c-1.1-0.1-2-0.1-2.8-0.1h-20.6c-1.8,0-3.8,0-6,0.1c-2.3,0.1-4.3,0.2-6.1,0.3c-0.1-0.2-0.2-0.6-0.2-1s0-0.7,0-0.9
					c0-0.9,0.3-1.4,0.9-1.5c2.3-0.4,4-0.9,5-1.4s1.5-1.3,1.5-2.5v-45.6c0-0.6-0.1-1.1-0.3-1.5c-0.2-0.4-0.5-0.7-1-1s-1.2-0.5-2-0.7
					s-1.9-0.4-3.1-0.7c-0.6-0.2-0.9-0.7-0.9-1.6c0-0.3,0-0.6,0-0.9s0.1-0.6,0.2-0.9c2.6,0.2,4.9,0.3,6.9,0.4s3.7,0.1,5.2,0.1h18.6
					c2.7,0,5.1-0.1,7-0.3c2-0.2,3.3-0.3,4-0.3s1.2,0.3,1.5,0.8c0.2,0.5,0.3,1.4,0.5,2.7c0.1,1.3,0.3,2.7,0.6,4c0.2,1,0.4,2,0.6,3
					s0.6,2.2,1.1,3.5c-0.3,0.1-0.6,0.2-1,0.4c-0.4,0.1-0.7,0.2-1.1,0.2c-0.7,0-1.2-0.3-1.5-0.8c-0.7-1.6-1.4-2.9-2.1-4
					s-1.5-2-2.4-2.7s-1.9-1.2-3.1-1.5s-2.6-0.5-4.2-0.5H-223V399.4z"/>
			</g>
			<g class="st1">
				<path d="M-144,409.5c-0.5,0.2-1.1,0.3-1.7,0.3c-0.8,0-1.5-0.2-1.8-0.5c-0.4-0.3-0.6-0.7-0.7-1c-1.4-3.5-3.2-5.9-5.4-7.5
					c-2.2-1.5-5.2-2.3-8.9-2.3c-2.9,0-5.4,0.7-7.4,2.1s-3,3.6-3,6.5c0,2.2,0.8,4,2.3,5.4s3.5,2.6,5.8,3.6s4.8,2,7.5,3
					s5.2,2.2,7.5,3.6c2.3,1.5,4.3,3.3,5.8,5.5s2.3,5.1,2.3,8.6c0,2.3-0.4,4.5-1.2,6.7c-0.8,2.2-2,4.1-3.7,5.8c-1.7,1.7-3.8,3-6.5,4
					c-2.6,1-5.7,1.5-9.4,1.5c-4,0-7.6-0.4-10.7-1.3c-3.2-0.9-5.8-1.8-7.8-2.8c-0.2-2.6-0.5-5.2-0.9-7.7s-0.8-5-1.3-7.3
					c0.6-0.2,1.3-0.4,2.1-0.4c0.7,0,1.3,0.1,1.6,0.4c0.4,0.3,0.7,0.7,0.9,1.4c0.8,2.3,1.7,4.3,2.6,6c1,1.7,2.1,3,3.4,4.1
					s2.7,1.8,4.4,2.3c1.7,0.5,3.6,0.7,5.8,0.7c1.9,0,3.5-0.3,4.8-0.8s2.4-1.2,3.3-2c0.8-0.8,1.5-1.9,1.9-3c0.4-1.2,0.6-2.3,0.6-3.6
					c0-2.6-0.7-4.7-2.2-6.1c-1.5-1.5-3.3-2.7-5.5-3.7s-4.6-1.9-7.2-2.8s-5-2-7.2-3.4s-4.1-3.1-5.5-5.3c-1.5-2.2-2.2-5.1-2.2-8.7
					c0-2.4,0.4-4.7,1.3-6.8c0.9-2.1,2.2-3.9,3.9-5.5c1.7-1.5,3.7-2.8,6.1-3.7c2.4-0.9,5.1-1.4,8.2-1.4c2.5,0,5.1,0.3,7.7,0.8
					s5.5,1.5,8.8,2.7c0.1,1.8,0.3,3.9,0.6,6.1C-144.7,405.6-144.3,407.8-144,409.5z"/>
			</g>
			<g class="st1">
				<path d="M-101,399.4v47.8c0,0.6,0,1.1,0.1,1.5s0.3,0.7,0.7,1c0.4,0.3,0.9,0.6,1.5,0.8c0.7,0.2,1.6,0.4,2.8,0.6
					c0.9,0.2,1.4,0.7,1.4,1.5c0,0.2,0,0.5,0,0.8c0,0.4-0.1,0.7-0.1,0.9c-1.9-0.1-4-0.2-6.2-0.3c-2.2-0.1-4.2-0.1-5.9-0.1
					c-1.8,0-3.7,0-5.9,0.1s-4.2,0.2-6.1,0.3c-0.1-0.2-0.2-0.5-0.2-0.9s0-0.6,0-0.8c0-0.4,0.1-0.8,0.2-1s0.6-0.5,1.2-0.6
					c2.2-0.3,3.7-0.7,4.2-1.2c0.6-0.5,0.9-1.4,0.9-2.6v-47.8h-8c-1.7,0-3.1,0.2-4.3,0.5c-1.2,0.3-2.2,0.8-3.1,1.5s-1.7,1.6-2.4,2.7
					c-0.7,1.1-1.4,2.5-2.1,4c-0.2,0.5-0.7,0.8-1.4,0.8c-0.4,0-0.8-0.1-1.3-0.2c-0.5-0.2-0.8-0.3-1.1-0.4c0.4-1.5,0.8-2.7,1.1-3.9
					c0.3-1.1,0.5-2.2,0.7-3.3c0.2-1.4,0.4-2.6,0.5-3.7s0.3-1.9,0.5-2.4s0.7-0.8,1.5-0.8c0.7,0,2,0.1,4,0.3c2,0.2,4.3,0.3,7.1,0.3h28
					c2.7,0,5.1-0.1,7-0.3c2-0.2,3.3-0.3,4-0.3s1.2,0.3,1.5,0.8c0.2,0.5,0.3,1.3,0.4,2.4s0.3,2.3,0.6,3.7c0.2,1.1,0.4,2.2,0.7,3.3
					c0.3,1.1,0.7,2.4,1.1,3.9c-0.3,0.1-0.7,0.3-1.1,0.4c-0.5,0.2-0.9,0.2-1.2,0.2c-0.7,0-1.2-0.3-1.5-0.8c-0.7-1.6-1.4-2.9-2.1-4
					s-1.5-2-2.4-2.7s-1.9-1.2-3.1-1.5s-2.6-0.5-4.2-0.5L-101,399.4L-101,399.4z"/>
			</g>
		</g>
	</g>
</g>
</svg>
