<?xml version="1.0" encoding="utf-8"?>
<!-- Generator: Adobe Illustrator 24.0.3, SVG Export Plug-In . SVG Version: 6.00 Build 0)  -->
<svg version="1.1" id="Layer_1" xmlns="http://www.w3.org/2000/svg" xmlns:xlink="http://www.w3.org/1999/xlink" x="0px" y="0px"
	 viewBox="0 0 498 441.5" style="enable-background:new 0 0 498 441.5;" xml:space="preserve">
<style type="text/css">
	.st0{fill:#FFFFFF;}
	.st1{stroke:#FFFFFF;stroke-width:2.2753;stroke-miterlimit:10;}
	.st2{fill:#FFFFFF;stroke:#000000;stroke-width:2.2753;stroke-miterlimit:10;}
	.st3{fill:#FFFFFF;stroke:#000000;stroke-width:2.7303;stroke-miterlimit:10;}
	.st4{fill:none;stroke:#000000;stroke-width:2.7303;stroke-miterlimit:10;}
	.st5{fill:#FFFFFF;stroke:#000000;stroke-width:1.7209;stroke-miterlimit:10;}
	.st6{fill:none;stroke:#000000;stroke-width:2.3859;stroke-miterlimit:10;}
	.st7{fill:#FFFFFF;stroke:#000000;stroke-width:2.3859;stroke-miterlimit:10;}
	.st8{stroke:#FFFFFF;stroke-width:2.0645;stroke-miterlimit:10;}
	.st9{fill:none;}
	.st10{enable-background:new    ;}
</style>
<g>
	<g>
		<path d="M109.4,400.5c-1.1,13.7-9,22.1-21.1,22.1c-14.5,0-22.8-11.3-22.8-31.1c0-20,8.2-31.2,22.9-31.2c7.6,0,13.2,3,16.8,8.8
			c2.4,3.8,3.4,7.7,3.9,14.6l-12.1,1c-0.3-5.3-0.7-7.3-1.9-9.4c-1.6-2.7-3.7-4.1-6.5-4.1c-6.4,0-9,6.2-9,21.4
			c0,13.7,2.6,19.3,9,19.3c4.8,0,7.6-3.8,8.5-12.2L109.4,400.5z"/>
		<path d="M152.1,366.2c4.9,5.3,7.2,13.5,7.2,25.4c0,20.5-7.6,31.1-21.9,31.1s-21.9-10.6-21.9-30.9c0-20.9,7.5-31.4,22.2-31.4
			C143.4,360.4,148.6,362.4,152.1,366.2z M129.4,391.4c0,15.4,2,20.5,8,20.5c6,0,8-5.2,8-20.4c0-15-2.1-20.3-7.9-20.3
			C131.5,371.1,129.4,376.2,129.4,391.4z"/>
		<path d="M182.8,361.3l15.4,37.5v-37.5h10.4v60.5h-11.9l-18.3-43.8v43.8H168v-60.5L182.8,361.3L182.8,361.3z"/>
		<path d="M259.1,433.5c-2.4,0.7-3.7,0.8-5.6,0.8c-7.8,0-11.4-3.5-12.1-11.7c-1.1,0.1-1.9,0.1-2.5,0.1c-5.6,0-10.8-2.1-14.2-5.8
			c-4.9-5.3-7.2-13.5-7.2-25.4c0-20.5,7.6-31.1,21.9-31.1c14.4,0,21.9,10.6,21.9,30.9c0,12.1-2.3,20-7.2,25.5
			c-0.9,1.1-1.8,1.8-3.8,3.2c0.2,3.5,1.2,4.5,4.4,4.5c1.5,0,2.6-0.2,4.5-0.7L259.1,433.5L259.1,433.5z M231.3,391.4
			c0,15.4,2,20.5,8,20.5s8-5.2,8-20.4c0-15-2.1-20.3-7.9-20.3C233.4,371.1,231.3,376.2,231.3,391.4z"/>
		<path d="M283.6,361.3v34.5c0,6.7,0.2,9.6,1.1,11.5c1.2,3,3.8,4.5,7.6,4.5c3.6,0,6.1-1.6,7.1-4.5c0.8-2,0.9-3.6,0.9-11.5v-34.5
			h11.2v34c0,13.3-0.9,17.6-4.6,21.6c-3.5,3.8-8.9,5.8-15.8,5.8c-7.6,0-13.4-2.1-16.6-6.2c-3.1-4.1-4.1-9-4.1-20.7v-34.5
			L283.6,361.3L283.6,361.3z"/>
		<path d="M359.5,361.3v10.4h-23.4v14h18.3v10.4h-18.3V411h23.5v10.8h-36.7v-60.5H359.5z"/>
		<path d="M393.5,378.7c-1.6-5.3-4.3-7.6-8.5-7.6c-3.7,0-6.3,2.3-6.3,5.5c0,3.5,1.7,4.8,10.4,8.1c5.9,2.3,8.1,3.4,10.7,5.5
			c3.9,3.2,6,7.6,6,13.1c0,11.6-8.6,19.3-21.4,19.3c-11.2,0-18-5.3-21-16.6l11.6-3.3c1.7,6.3,4.6,9,9.7,9c4.6,0,7.7-2.6,7.7-6.5
			c0-3.5-2.1-5.3-8.4-7.6c-7.6-2.7-9.6-3.7-12.6-6.2c-3.6-3.2-5.6-7.6-5.6-12.7c0-11.1,7.7-18.5,19.4-18.5c5.3,0,9.9,1.5,13.4,4.3
			c2.9,2.3,4.4,4.7,6,9.8L393.5,378.7z"/>
		<path d="M446.8,361.3v11.3h-12.3v49.1h-13.3v-49.1h-12.1v-11.3H446.8z"/>
	</g>
	<g>
		<path class="st0" d="M187,87.4c0,0-2.8-6.4-0.7-10.3s6.2-0.5,8.1-2.5c-3.5,2.3-2.2,8.8-7.7,10.4"/>
		<g>
			<g>
				<g>
					<path class="st1" d="M331.1,223.8c10.8-16.7,20.6-34.1,29.3-52.1c0.4-46.8,2.6-84.9-13.4-101.6c-13-4.2-30.1,93.1-30.1,93.1
						l11.7,64.5"/>
					<path class="st1" d="M331.1,223.8c-1.9-28.6-2.9-62.9,0.3-89.2c6.7-54.9,15.6-64.5,15.6-64.5L325.9,63L301,54.6
						c-0.4,2.8-0.8,5.6-1.3,8.4c-13.6,90.5-24.6,174.3-28.9,241h0.3c0.7-0.9,1.4-1.8,2-2.8l34-43.6c7.5-9.7,14.7-19.6,21.4-29.8
						L331.1,223.8z"/>
					<path class="st1" d="M301,52.4c0,0-10.8,79.3-21,149c0,0,37.3-66.7,39.6-77.6l-11.9-18.2c0,0,22.9-3,23.3-6.9
						c0,0-12.9-33.5-16.9-40.7L301,52.4z"/>
				</g>
				<g>
					<path class="st1" d="M183.7,227.9l11.7-64.5c0,0-17.1-97.3-30.1-93.1c-16,16.7-13.8,54.8-13.4,101.6
						c8.7,18,18.5,35.4,29.3,52.1"/>
					<path class="st1" d="M183.7,227.9c6.7,10.2,13.9,20.1,21.4,29.8l34,43.6c0.6,1,1.3,2,2,2.8h0.3c-4.3-66.7-15.3-150.5-28.9-241
						c-0.4-2.8-0.8-5.6-1.3-8.4l-24.9,8.4l-21.1,7.1c0,0,8.9,9.6,15.6,64.5c3.2,26.3,2.2,60.6,0.3,89.2L183.7,227.9z"/>
					<path class="st1" d="M211.2,52.6c0,0,10.8,79.3,21,149c0,0-37.3-66.7-39.6-77.6l11.9-18.2c0,0-22.9-3-23.3-6.9
						c0,0,12.9-33.5,16.9-40.7L211.2,52.6z"/>
				</g>
			</g>
			<g>
				<path class="st2" d="M270.8,86.8c14.5-8.4,28.3-17.2,36.7-28.7c-1-6.1-4.6-10.9-9.9-14.7c-8.3,11.4-23.2,18.2-40.3,23.3
					C264.3,73.1,268.4,79.8,270.8,86.8z"/>
				<path class="st2" d="M241.4,86.8c-14.5-8.4-28.3-17.2-36.7-28.7c1-6.1,4.6-10.9,9.9-14.7c8.3,11.4,23.2,18.2,40.3,23.3
					C247.9,73.1,243.8,79.8,241.4,86.8z"/>
			</g>
			<g>
				<polygon class="st3" points="256.1,111.6 251.6,111.6 245.9,279.5 256,314.6 265.8,279.5 260.6,111.6 				"/>
				<line class="st4" x1="256" y1="95.1" x2="255.8" y2="314.6"/>
			</g>
			<path d="M263.7,74.8c0,3.1-1.8,5.7-4.4,6.9c2.3,8.7,2.7,18.4,2,28.8h6.3c5.5,0,9.9,4.4,9.9,9.9v1.3c0,1.6-1.6,2-2,0.5
				c-0.5-0.8-1-1.4-1.6-2c-1.8-1.7-4.2-2.7-6.8-2.7h-21.9c-3.4,0-6.6,1.8-8.4,4.7c-0.1,0.3-0.2,0.5-0.3,0.6
				c-0.6,0.7-1.7,0.1-1.7-1.1v-1.3c0-5.4,4.4-9.9,9.9-9.9h6.3c-0.7-10.9-0.5-21,2-28.8c-2.6-1.2-4.4-3.8-4.4-6.9
				c0-4.2,3.4-7.6,7.6-7.6C260.3,67.2,263.7,70.6,263.7,74.8z"/>
		</g>
	</g>
</g>
<g>
	<g>
		<polygon points="756,286.6 751.2,281.2 776.3,255.1 784.8,264.6 		"/>
		<path d="M744.5,282.6l-0.3,8.6c0,1.1,0.8,1.9,1.8,2l8.5,0.3c0.8,0,1.5-0.4,1.8-1.2l7.2-17.3l-17.8,5.9
			C745,281.2,744.5,281.8,744.5,282.6z"/>
		<g>
			<g>
				<g>
					<path class="st5" d="M972.6,144.8L972.6,144.8c0,0.1-0.1,0.4-0.2,0.9c-6.2,2.6-11.4,9.1-13.3,17.5c-1.1,5.1-0.9,10,0.4,14.2
						c-6.1,0.6-12.6,4.3-17.3,10.5c-3.6,4.9-5.5,10.4-5.5,15.5c-0.2,0.1-0.3,0.2-0.5,0.4c-4.8-2.2-11-2.8-17.3-1.2
						c-7.8,2-13.8,6.8-16.5,12.5c-0.4,0-0.8,0-1.2,0.1c-2.5-5.6-8.1-10.5-15.5-12.9c-8.2-2.6-16.4-1.5-21.8,2.5
						c-1.1-7.1-7.3-14-16.3-17.1l0.3-1c0,0,0,0,0.1,0c0.1-0.1,0.3-0.2,0.7-0.3c0.2-0.1,0.6-0.3,0.9-0.5c0.1-0.1,0.3-0.1,0.4-0.2
						c7.3-3.6,31.8-15.8,49.9-23.9C919.9,157.2,952.8,152.4,972.6,144.8z"/>
					<path d="M975.5,142.7c0.8-0.6,0-1.9-0.9-1.4c-37.1,17-79.1,9.3-82.1,15.6c-4.8,10.3-44.6,29.8-44.6,29.8
						c13.8-0.2,38.9-11,51-19.5c4.6-3.3,10-5.4,15.6-6.1C930.2,159.2,959.9,154.9,975.5,142.7z"/>
				</g>
				<path class="st6" d="M959.5,177.4c0,0-41.5-11.3-68.9-11.9c0,0,48.7,24,45.6,38.2"/>
				<path class="st6" d="M901.2,215.1c0,0,1.9-42.1-13.8-49.6"/>
			</g>
			<g>
				<g>
					<path class="st5" d="M741.1,144.8L741.1,144.8c0,0.1,0.1,0.4,0.2,0.9c6.2,2.6,11.4,9.1,13.3,17.5c1.1,5.1,0.9,10-0.4,14.2
						c6.1,0.6,12.6,4.3,17.3,10.5c3.6,4.9,5.5,10.4,5.5,15.5c0.2,0.1,0.3,0.2,0.5,0.4c4.8-2.2,11-2.8,17.3-1.2
						c7.8,2,13.8,6.8,16.5,12.5c0.4,0,0.8,0,1.2,0.1c2.5-5.6,8.1-10.5,15.5-12.9c8.2-2.6,16.4-1.5,21.8,2.5
						c1.1-7.1,7.3-14,16.3-17.1l-0.3-1c0,0,0,0-0.1,0c-0.1-0.1-0.3-0.2-0.7-0.3c-0.2-0.1-0.6-0.3-0.9-0.5c-0.1-0.1-0.3-0.1-0.4-0.2
						c-7.3-3.6-31.8-15.8-49.9-23.9C793.7,157.2,760.8,152.4,741.1,144.8z"/>
					<path d="M738.1,142.7c-0.8-0.6,0-1.9,0.9-1.4c37.1,17,79.1,9.3,82.1,15.6c4.8,10.3,44.6,29.8,44.6,29.8
						c-13.8-0.2-38.9-11-51-19.5c-4.6-3.3-10-5.4-15.6-6.1C783.4,159.2,753.7,154.9,738.1,142.7z"/>
				</g>
				<path class="st6" d="M754.1,177.4c0,0,41.5-11.3,68.9-11.9c0,0-48.7,24-45.6,38.2"/>
				<path class="st6" d="M812.5,215.1c0,0-1.9-42.1,13.8-49.6"/>
			</g>
			<path d="M767.3,245.5c-2-2.3-2.2-5.6-0.6-8c0.5-0.7,1.5-0.8,2.1-0.1l14.5,20.7l18.2,15.9c0.6,0.6,0.4,1.7-0.3,2.1
				c-2.6,1.3-5.8,0.8-7.9-1.5L767.3,245.5z"/>
			<g>
				<polygon class="st7" points="782.5,258 786.3,261.9 933.4,126.3 945.6,94.4 913.9,106.7 778.6,254.2 				"/>
				<line class="st6" x1="782.4" y1="258.2" x2="945.6" y2="94.4"/>
			</g>
			<g>
				<polygon class="st7" points="926.5,257.8 930.4,254 794.7,106.9 762.9,94.7 775.2,126.4 922.7,261.7 				"/>
				<line class="st6" x1="926.6" y1="257.9" x2="762.9" y2="94.7"/>
			</g>
			<g>
				<polygon points="952.6,286.6 957.4,281.2 932.3,255.1 923.8,264.6 				"/>
			</g>
			<g>
				<polygon class="st7" points="855.5,257 860.9,257 869.3,57.1 855.5,26 841.7,57.1 850,257 				"/>
				<line class="st6" x1="855.5" y1="257.2" x2="855.5" y2="26"/>
			</g>
			<g>
				<path d="M835.9,264.6c-3.6,0-6.5-2.9-6.5-6.5v-13c0-1.9,1.9-2.4,2.4-0.7l2.1,7.1c0.8,2.8,3.4,4.7,6.3,4.7h30.5
					c2.9,0,5.4-1.9,6.3-4.7l2.1-7.1c0.5-1.8,2.4-1.2,2.4,0.7v13c0,3.6-2.9,6.5-6.5,6.5H835.9z"/>
				<polygon points="859.1,300.4 851.8,300.4 849.1,264.3 861.8,264.3 				"/>
				<circle cx="855.5" cy="307.9" r="9.2"/>
			</g>
			<path d="M847.7,212.5c-10.2,0-25.3-9.5-25.3-23.5c0-18.2,13-27.8,23.3-30.9c0,0,1.4,16.3,2,24.3c7.2,0,16.7-4.6,17.8-12.8
				c2.7-20.4-4.3-45.7-27.1-50l6.1-30c13.8,3.8,27.7,17.5,37.5,36c9.2,17.5,10.1,41.6,7,53.6C884.2,197.8,871.6,212.5,847.7,212.5z"
				/>
			<path class="st8" d="M838.2,106.3c-0.6-4.8-7.1-2.4-16.1-10.5c-10.2-9.2-19.5-12.7-11.7-20.6c3.5-3.6,4,1.2,6.9,2.7
				c6,3,4.6,3.7,11.1,4.7c0,0,4.3-17.1,19.5,1.2c0,0,16-2.1,25.3,12s16.8,8.4,16.8,8.4s-6.9,9-23.5-4.5c-5.6-4.6-8.7-2.5-8.7-2.5
				s3.6,9-1.4,15.6c-2.7,3.6-6.7,7-18,6.7c-32.1-1-36.9-5.3-36.9-10.9c0,0,13.1,4,17.4,2.3C823.1,109.2,831.5,103.1,838.2,106.3z"/>
			<path class="st0" d="M841.6,89.6c0,0-0.8-5.5-3.9-7.3c-3.1-1.8-4.4,2.3-6.5,1.8c3.4,0.1,5.2,5.1,9.6,3.8"/>
			<path d="M943.8,242.2L913.4,278c-1.7,2-4.1,2.7-5.4,1.6l0,0c-1.3-1.1-1-3.6,0.7-5.6l12-11.1c3.6-3.4,6.9-7.2,9.6-11.4l8.7-13.3
				c1.7-2,4.1-2.7,5.4-1.6l0,0C945.7,237.7,945.5,240.2,943.8,242.2z"/>
		</g>
		<path d="M948.7,280c-0.5-1.4,1-2.9,2.4-2.4l7.2,2.4l8.5,2.9c1.2,0.4,1.4,1.9,0.5,2.9l-5.1,5.2l-5.1,5.2c-0.9,1-2.5,0.7-2.9-0.4
			l-3-8.4L948.7,280z"/>
	</g>
	<g>
		<rect x="609.6" y="354.7" class="st9" width="494.5" height="99"/>
		<g class="st10">
			<path d="M640.6,419.4c-5.1,0-9.5-0.8-13.4-2.4c-3.8-1.6-7-3.7-9.5-6.5s-4.4-6-5.6-9.7s-1.9-7.7-1.9-12c0-3.6,0.6-7.2,1.8-10.8
				c1.2-3.6,3.1-6.9,5.7-9.9c2.6-2.9,5.9-5.3,10-7.2c4.1-1.8,8.9-2.8,14.5-2.8c3.1,0,6,0.2,8.7,0.6s5.6,1.1,8.8,1.9
				c0.1,1.6,0.4,3.7,0.7,6.3c0.4,2.5,0.9,5,1.5,7.5c-0.3,0.1-0.7,0.1-1.2,0.2s-0.8,0.1-1.1,0.1c-0.5,0-0.9-0.1-1.2-0.2
				c-0.3-0.2-0.6-0.5-0.7-1c-0.7-2-1.4-3.7-2.3-5c-0.8-1.4-1.9-2.5-3-3.3c-1.2-0.8-2.6-1.4-4.1-1.8c-1.6-0.4-3.4-0.5-5.5-0.5
				c-3.3,0-6.2,0.6-8.7,1.7s-4.6,2.7-6.3,4.8c-1.7,2.1-3,4.6-3.9,7.5c-0.9,2.9-1.3,6.3-1.3,10c0,3.9,0.5,7.6,1.6,11
				c1.1,3.4,2.5,6.3,4.4,8.8c1.8,2.5,4,4.4,6.6,5.8c2.5,1.4,5.3,2.1,8.3,2.1c2.4,0,4.5-0.2,6.2-0.7c1.7-0.5,3.2-1.2,4.5-2.1
				c1.2-0.9,2.3-2.1,3.2-3.6c0.9-1.5,1.7-3.2,2.4-5.1c0.2-0.5,0.5-0.8,0.9-1c0.4-0.2,0.8-0.3,1.2-0.3c0.3,0,0.7,0,1.1,0.1
				c0.5,0.1,0.8,0.2,1.1,0.3c-0.4,1-0.7,2.2-1.1,3.5c-0.4,1.3-0.8,2.6-1.2,4c-0.4,1.4-0.8,2.7-1.1,4.1c-0.3,1.4-0.6,2.7-0.9,4
				c-3,0.5-6,0.9-9.1,1.2C647.7,419.3,644.3,419.4,640.6,419.4z"/>
		</g>
		<g class="st10">
			<path d="M670.5,388.8c0-4.2,0.8-8.2,2.4-11.9c1.6-3.7,3.8-6.9,6.6-9.7c2.8-2.8,6-5,9.8-6.6c3.7-1.6,7.7-2.4,12-2.4
				c4.4,0,8.4,0.8,12.2,2.3c3.8,1.5,7,3.6,9.8,6.4c2.8,2.7,4.9,6,6.5,9.7c1.6,3.8,2.4,7.9,2.4,12.3c0,4.2-0.8,8.2-2.4,12
				c-1.6,3.7-3.8,7-6.6,9.7c-2.8,2.8-6.1,4.9-9.8,6.5c-3.8,1.6-7.8,2.4-12,2.4c-4.4,0-8.4-0.8-12.2-2.3c-3.8-1.5-7-3.6-9.7-6.4
				c-2.7-2.8-4.9-6-6.5-9.7C671.3,397.4,670.5,393.3,670.5,388.8z M702.6,414.7c2.5,0,4.8-0.6,6.9-1.7c2.1-1.1,3.8-2.7,5.3-4.6
				s2.6-4.2,3.5-6.8c0.8-2.6,1.2-5.4,1.2-8.4c0-4.3-0.4-8.3-1.2-12s-2.1-6.9-3.7-9.6c-1.7-2.7-3.8-4.8-6.3-6.4
				c-2.5-1.5-5.4-2.3-8.8-2.3c-2.1,0-4.2,0.5-6.2,1.4s-3.8,2.3-5.3,4.1c-1.5,1.8-2.7,4-3.6,6.5c-0.9,2.5-1.4,5.4-1.4,8.6
				c0,4.5,0.4,8.6,1.3,12.5c0.9,3.8,2.2,7.1,3.8,9.9c1.7,2.8,3.7,4.9,6.1,6.5C696.7,413.9,699.5,414.7,702.6,414.7z"/>
			<path d="M785.8,398.5v-32.3c0-1.3-0.5-2.3-1.4-2.8c-0.9-0.5-2.5-1-4.8-1.3c-0.8-0.2-1.2-0.8-1.2-1.7c0-0.2,0-0.4,0-0.7
				c0-0.3,0.1-0.6,0.2-0.9c1.5,0.2,3,0.3,4.5,0.4s3.2,0.1,5.1,0.1c1.9,0,3.6,0,5-0.1c1.4-0.1,2.8-0.2,4.2-0.4
				c0.1,0.3,0.1,0.6,0.1,0.9s0,0.5,0,0.7c0,1-0.4,1.6-1.1,1.7c-2,0.3-3.4,0.7-4.1,1.3c-0.7,0.5-1.1,1.4-1.1,2.6v53.2
				c-0.2,0.1-0.7,0.1-1.2,0.1c-0.6,0-1,0-1.1,0c-0.4,0-0.9-0.1-1.4-0.3c-0.5-0.2-1-0.7-1.5-1.3l-35.8-45.5v39.3c0,0.6,0,1.1,0.1,1.5
				c0.1,0.4,0.3,0.7,0.7,1c0.4,0.3,1,0.5,1.7,0.7c0.8,0.2,1.8,0.4,3,0.7c0.3,0.1,0.6,0.2,0.8,0.4c0.2,0.2,0.3,0.7,0.3,1.3
				c0,0.4-0.1,0.9-0.2,1.5c-1.5-0.1-2.9-0.2-4.3-0.3c-1.3-0.1-2.9-0.1-4.6-0.1c-1.8,0-3.4,0-5,0.1c-1.6,0.1-3.1,0.2-4.4,0.3
				c-0.1-0.2-0.2-0.5-0.2-0.8s0-0.5,0-0.7c0-0.6,0.1-1,0.3-1.3c0.2-0.2,0.5-0.4,0.8-0.5c2.2-0.4,3.6-0.8,4.4-1.4
				c0.7-0.5,1.1-1.4,1.1-2.5v-46c0-1-0.3-1.7-1-2.2c-0.6-0.5-2.1-0.9-4.3-1.2c-0.7-0.2-1.1-0.8-1.1-1.7c0-0.1,0-0.3,0-0.4
				c0-0.2,0-0.3,0.1-0.5l0.1-0.7c0.8,0.1,1.7,0.1,2.5,0.1s1.6,0.1,2.4,0.1c1.3,0.1,2.7,0.1,4,0.1c1.4,0,2.5,0,3.3,0
				c1.8,0,2.9,0.1,3.5,0.2c0.5,0.2,1,0.4,1.5,0.9L785.8,398.5z"/>
			<path d="M841.9,418.6c2.1,0.5,3.8,1.3,5.4,2.1c1.5,0.9,2.9,1.8,4.1,2.8s2.4,2,3.5,3c1.1,1,2.3,2,3.7,2.9c1.4,1,2.6,1.6,3.5,1.8
				c0.9,0.2,1.8,0.3,2.6,0.3c0.8,0,1.5-0.1,2-0.3c0.6-0.2,1-0.3,1.3-0.3c0.4,0,0.7,0.1,0.9,0.4c0.2,0.2,0.4,0.5,0.5,0.8
				c-1.3,1.5-2.8,2.7-4.5,3.7c-1.7,0.9-3.5,1.4-5.5,1.4c-3.5,0-6.5-0.7-9-2.2s-4.9-3.2-7.1-5.1c-2.2-2-4.5-4-6.8-6s-5.1-3.7-8.2-4.9
				c-3.9-0.7-7.4-1.9-10.6-3.6s-5.9-3.9-8.2-6.5s-4-5.7-5.3-9c-1.2-3.4-1.9-7.1-1.9-11.1c0-4.2,0.8-8.2,2.4-11.9
				c1.6-3.7,3.8-6.9,6.6-9.7c2.8-2.8,6-5,9.8-6.6c3.7-1.6,7.7-2.4,12-2.4c4.4,0,8.4,0.8,12.2,2.3c3.8,1.5,7,3.6,9.8,6.4
				c2.8,2.7,4.9,6,6.5,9.7c1.6,3.8,2.4,7.9,2.4,12.3c0,3.4-0.5,6.7-1.5,9.8c-1,3.2-2.5,6-4.4,8.6c-1.9,2.6-4.2,4.8-7,6.8
				c-2.7,1.9-5.8,3.4-9.2,4.3V418.6L841.9,418.6z M834.6,414.7c2.5,0,4.8-0.6,6.9-1.7c2.1-1.1,3.8-2.7,5.3-4.6s2.6-4.2,3.5-6.8
				c0.8-2.6,1.2-5.4,1.2-8.4c0-4.3-0.4-8.3-1.2-12c-0.8-3.7-2.1-6.9-3.7-9.6c-1.7-2.7-3.8-4.8-6.3-6.4c-2.5-1.5-5.4-2.3-8.8-2.3
				c-2.1,0-4.2,0.5-6.2,1.4s-3.8,2.3-5.3,4.1c-1.5,1.8-2.7,4-3.6,6.5s-1.4,5.4-1.4,8.6c0,4.5,0.4,8.6,1.3,12.5
				c0.9,3.8,2.2,7.1,3.8,9.9c1.7,2.8,3.7,4.9,6.1,6.5C828.7,413.9,831.5,414.7,834.6,414.7z"/>
		</g>
		<g class="st10">
			<path d="M928.2,395.9c0,3.5-0.4,6.6-1.1,9.5s-2,5.4-3.8,7.5s-4.2,3.7-7.2,4.9c-3,1.2-6.8,1.7-11.3,1.7c-5.4,0-9.7-0.6-13-1.8
				s-5.8-2.9-7.6-5c-1.8-2.1-3-4.5-3.6-7.4c-0.6-2.8-0.9-5.8-0.9-9v-30.2c0-1.3-0.4-2.2-1.2-2.7c-0.8-0.5-2.4-0.9-4.8-1.2
				c-0.7-0.1-1-0.7-1-1.7c0-0.2,0-0.4,0-0.7c0-0.3,0.1-0.6,0.2-0.9c1.8,0.1,3.6,0.2,5.6,0.3c2,0.1,4.3,0.1,7,0.1
				c2.1,0,4.3,0,6.6-0.1s4.4-0.2,6.2-0.3c0.1,0.3,0.1,0.6,0.1,0.9s0,0.5,0,0.7c0,1-0.3,1.6-1,1.7c-2.5,0.3-4.2,0.7-5,1.3
				c-0.9,0.5-1.3,1.4-1.3,2.6v28.2c0,6.3,1.2,11.1,3.5,14.4s6.3,4.9,12,4.9c5.8,0,10-1.5,12.4-4.6c2.5-3.1,3.7-8,3.7-15v-27.9
				c0-1.2-0.4-2.1-1.3-2.6c-0.8-0.5-2.5-1-4.8-1.3c-0.7-0.2-1.1-0.8-1.1-1.7c0-0.2,0-0.4,0-0.7c0-0.3,0.1-0.6,0.1-0.9
				c1.8,0.2,3.4,0.3,4.9,0.4s3.1,0.1,4.8,0.1c1.9,0,3.7,0,5.2-0.1s3-0.2,4.5-0.4c0.1,0.3,0.1,0.6,0.1,0.9s0,0.5,0,0.7
				c0,1-0.4,1.5-1.1,1.7c-2.2,0.2-3.8,0.7-4.6,1.2c-0.8,0.6-1.3,1.5-1.3,2.7L928.2,395.9L928.2,395.9z"/>
		</g>
		<g class="st10">
			<path d="M962.4,363.8v21.9h12.8c1.2,0,1.9-0.5,2.4-1.4c0.4-0.9,0.8-2.5,1.1-4.6c0.1-0.5,0.2-0.8,0.5-1s0.7-0.2,1.2-0.2
				c0.2,0,0.5,0,0.9,0c0.4,0,0.7,0.1,0.9,0.1c-0.1,1.4-0.2,3-0.3,4.9c-0.1,1.8-0.1,3.4-0.1,4.7c0,1.1,0,2.4,0.1,3.9
				c0.1,1.5,0.2,3.2,0.4,5c-0.2,0.1-0.5,0.2-0.9,0.2c-0.4,0-0.7,0-0.9,0c-1.1,0-1.7-0.4-1.7-1.3c-0.4-2.3-0.8-3.9-1.2-4.7
				c-0.5-0.8-1.2-1.2-2.2-1.2h-12.8v20.4c0,1.3,0.8,2.1,2.4,2.5c1.6,0.4,4.2,0.6,8,0.6h3.8c1.8,0,3.3-0.2,4.6-0.7
				c1.2-0.5,2.3-1.2,3.3-2c1-0.9,1.8-1.9,2.5-3.1s1.5-2.5,2.2-4c0.2-0.4,0.6-0.6,1.3-0.6c0.3,0,0.7,0.1,1.1,0.3
				c0.4,0.2,0.8,0.4,1.3,0.5c-0.1,0.5-0.3,0.9-0.4,1.4c-0.2,0.4-0.3,0.8-0.4,1.3c-0.3,0.7-0.5,1.4-0.7,2.2c-0.2,0.8-0.4,1.4-0.5,1.9
				c-0.1,0.6-0.3,1.3-0.4,2c-0.2,0.8-0.3,1.5-0.5,2.2s-0.3,1.3-0.5,1.9c-0.2,0.5-0.3,0.9-0.3,1.1c-0.2,0.5-0.7,0.7-1.5,0.7
				c-0.5,0-1.2,0-2.1-0.1c-0.9-0.1-1.9-0.1-3-0.1c-1.1,0-2.1-0.1-3.2-0.1c-1.1-0.1-2-0.1-2.8-0.1h-20.6c-1.8,0-3.8,0-6,0.1
				c-2.3,0.1-4.3,0.2-6.1,0.3c-0.1-0.2-0.2-0.6-0.2-1s0-0.7,0-0.9c0-0.9,0.3-1.4,0.9-1.5c2.3-0.4,4-0.9,5-1.4s1.5-1.3,1.5-2.5v-45.6
				c0-0.6-0.1-1.1-0.3-1.5c-0.2-0.4-0.5-0.7-1-1s-1.2-0.5-2-0.7s-1.9-0.4-3.1-0.7c-0.6-0.2-0.9-0.7-0.9-1.6c0-0.3,0-0.6,0-0.9
				s0.1-0.6,0.2-0.9c2.6,0.2,4.9,0.3,6.9,0.4s3.7,0.1,5.2,0.1h18.6c2.7,0,5.1-0.1,7-0.3c2-0.2,3.3-0.3,4-0.3s1.2,0.3,1.5,0.8
				c0.2,0.5,0.3,1.4,0.5,2.7c0.1,1.3,0.3,2.7,0.6,4c0.2,1,0.4,2,0.6,3s0.6,2.2,1.1,3.5c-0.3,0.1-0.6,0.2-1,0.4
				c-0.4,0.1-0.7,0.2-1.1,0.2c-0.7,0-1.2-0.3-1.5-0.8c-0.7-1.6-1.4-2.9-2.1-4s-1.5-2-2.4-2.7c-0.9-0.7-1.9-1.2-3.1-1.5
				s-2.6-0.5-4.2-0.5h-12.4V363.8z"/>
		</g>
		<g class="st10">
			<path d="M1041.4,374c-0.5,0.2-1.1,0.3-1.7,0.3c-0.8,0-1.5-0.2-1.8-0.5c-0.4-0.3-0.6-0.7-0.7-1c-1.4-3.5-3.2-5.9-5.4-7.5
				c-2.2-1.5-5.2-2.3-8.9-2.3c-2.9,0-5.4,0.7-7.4,2.1s-3,3.6-3,6.5c0,2.2,0.8,4,2.3,5.4s3.5,2.6,5.8,3.6s4.8,2,7.5,3
				c2.7,1,5.2,2.2,7.5,3.6c2.3,1.5,4.3,3.3,5.8,5.5s2.3,5.1,2.3,8.6c0,2.3-0.4,4.5-1.2,6.7s-2,4.1-3.7,5.8c-1.7,1.7-3.8,3-6.5,4
				c-2.6,1-5.7,1.5-9.4,1.5c-4,0-7.6-0.4-10.7-1.3c-3.2-0.9-5.8-1.8-7.8-2.8c-0.2-2.6-0.5-5.2-0.9-7.7c-0.4-2.5-0.8-5-1.3-7.3
				c0.6-0.2,1.3-0.4,2.1-0.4c0.7,0,1.3,0.1,1.6,0.4c0.4,0.3,0.7,0.7,0.9,1.4c0.8,2.3,1.7,4.3,2.6,6c1,1.7,2.1,3,3.4,4.1
				s2.7,1.8,4.4,2.3s3.6,0.7,5.8,0.7c1.9,0,3.5-0.3,4.8-0.8c1.3-0.5,2.4-1.2,3.3-2c0.8-0.8,1.5-1.9,1.9-3c0.4-1.2,0.6-2.3,0.6-3.6
				c0-2.6-0.7-4.7-2.2-6.1c-1.5-1.5-3.3-2.7-5.5-3.7c-2.2-1-4.6-1.9-7.2-2.8c-2.6-0.9-5-2-7.2-3.4s-4.1-3.1-5.5-5.3
				c-1.5-2.2-2.2-5.1-2.2-8.7c0-2.4,0.4-4.7,1.3-6.8c0.9-2.1,2.2-3.9,3.9-5.5c1.7-1.5,3.7-2.8,6.1-3.7c2.4-0.9,5.1-1.4,8.2-1.4
				c2.5,0,5.1,0.3,7.7,0.8c2.6,0.5,5.5,1.5,8.8,2.7c0.1,1.8,0.3,3.9,0.6,6.1C1040.7,370.1,1041.1,372.2,1041.4,374z"/>
		</g>
		<g class="st10">
			<path d="M1084.4,363.8v47.8c0,0.6,0,1.1,0.1,1.5c0.1,0.4,0.3,0.7,0.7,1s0.9,0.6,1.5,0.8c0.7,0.2,1.6,0.4,2.8,0.6
				c0.9,0.2,1.4,0.7,1.4,1.5c0,0.2,0,0.5,0,0.8c0,0.4-0.1,0.7-0.1,0.9c-1.9-0.1-4-0.2-6.2-0.3c-2.2-0.1-4.2-0.1-5.9-0.1
				c-1.8,0-3.7,0-5.9,0.1s-4.2,0.2-6.1,0.3c-0.1-0.2-0.2-0.5-0.2-0.9s0-0.6,0-0.8c0-0.4,0.1-0.8,0.2-1c0.1-0.2,0.6-0.5,1.2-0.6
				c2.2-0.3,3.7-0.7,4.2-1.2c0.6-0.5,0.9-1.4,0.9-2.6v-47.8h-8c-1.7,0-3.1,0.2-4.3,0.5c-1.2,0.3-2.2,0.8-3.1,1.5
				c-0.9,0.7-1.7,1.6-2.4,2.7c-0.7,1.1-1.4,2.5-2.1,4c-0.2,0.5-0.7,0.8-1.4,0.8c-0.4,0-0.8-0.1-1.3-0.2c-0.5-0.2-0.8-0.3-1.1-0.4
				c0.4-1.5,0.8-2.7,1.1-3.9c0.3-1.1,0.5-2.2,0.7-3.3c0.2-1.4,0.4-2.6,0.5-3.7s0.3-1.9,0.5-2.4c0.2-0.5,0.7-0.8,1.5-0.8
				c0.7,0,2,0.1,4,0.3c2,0.2,4.3,0.3,7.1,0.3h28c2.7,0,5.1-0.1,7-0.3c2-0.2,3.3-0.3,4-0.3c0.7,0,1.2,0.3,1.5,0.8
				c0.2,0.5,0.3,1.3,0.4,2.4s0.3,2.3,0.6,3.7c0.2,1.1,0.4,2.2,0.7,3.3c0.3,1.1,0.7,2.4,1.1,3.9c-0.3,0.1-0.7,0.3-1.1,0.4
				c-0.5,0.2-0.9,0.2-1.2,0.2c-0.7,0-1.2-0.3-1.5-0.8c-0.7-1.6-1.4-2.9-2.1-4c-0.7-1.1-1.5-2-2.4-2.7s-1.9-1.2-3.1-1.5
				c-1.2-0.3-2.6-0.5-4.2-0.5L1084.4,363.8L1084.4,363.8z"/>
		</g>
	</g>
</g>
</svg>
