<?xml version="1.0" encoding="utf-8"?>
<!-- Generator: Adobe Illustrator 25.0.1, SVG Export Plug-In . SVG Version: 6.00 Build 0)  -->
<svg version="1.1" id="Layer_1" xmlns="http://www.w3.org/2000/svg" xmlns:xlink="http://www.w3.org/1999/xlink" x="0px" y="0px"
	 viewBox="0 0 524.9 497.2" style="enable-background:new 0 0 524.9 497.2;" xml:space="preserve">
<style type="text/css">
	.st0{enable-background:new    ;}
	.st1{fill:#DABDA4;}
	.st2{fill:#ADADAD;}
	.st3{fill:#74A2B7;}
	.st4{fill:#A46A41;}
	.st5{fill:#444242;}
	.st6{fill:#B39B6F;}
	.st7{fill:#A98065;}
	.st8{fill:#71CCCC;}
	.st9{fill:#A6D2FE;}
	.st10{fill:#B38058;}
	.st11{fill:#68A3D8;}
	.st12{fill:#03036D;}
	.st13{fill:#FFEF7B;}
	.st14{fill:none;stroke:#000000;stroke-width:0.5;stroke-miterlimit:10;}
</style>
<g class="st0">
	<path d="M128.9,185.8l2.7-8.9h2.7l-4.1,11.8h-2.5l-4.1-11.8h2.7L128.9,185.8z"/>
	<path d="M138.9,188.9c-1.3,0-2.3-0.4-3.1-1.2c-0.8-0.8-1.2-1.8-1.2-3.2v-0.2c0-0.9,0.2-1.7,0.5-2.4c0.3-0.7,0.8-1.2,1.5-1.6
		c0.6-0.4,1.3-0.6,2.1-0.6c1.2,0,2.1,0.4,2.8,1.1c0.7,0.8,1,1.8,1,3.2v1H137c0.1,0.6,0.3,1,0.7,1.4s0.9,0.5,1.5,0.5
		c0.9,0,1.6-0.3,2.1-1l1.2,1.3c-0.4,0.5-0.8,0.9-1.4,1.2S139.7,188.9,138.9,188.9z M138.7,181.7c-0.5,0-0.8,0.2-1.1,0.5
		c-0.3,0.3-0.5,0.8-0.6,1.4h3.3v-0.2c0-0.5-0.2-0.9-0.4-1.2C139.6,181.8,139.2,181.7,138.7,181.7z"/>
	<path d="M146,180l0.1,1c0.6-0.8,1.5-1.2,2.5-1.2c0.9,0,1.6,0.3,2.1,0.8c0.5,0.5,0.7,1.4,0.7,2.5v5.7h-2.3v-5.6
		c0-0.5-0.1-0.9-0.3-1.1c-0.2-0.2-0.6-0.3-1.1-0.3c-0.7,0-1.2,0.3-1.5,0.8v6.2h-2.3V180H146z"/>
	<path d="M158.5,187.9c-0.6,0.7-1.4,1.1-2.4,1.1c-0.9,0-1.7-0.3-2.2-0.8c-0.5-0.5-0.7-1.3-0.8-2.4V180h2.3v5.7
		c0,0.9,0.4,1.4,1.3,1.4c0.8,0,1.3-0.3,1.6-0.8V180h2.4v8.8h-2.2L158.5,187.9z"/>
	<path d="M167.3,186.3c0-0.3-0.1-0.5-0.4-0.7c-0.3-0.2-0.7-0.3-1.4-0.4c-2.1-0.4-3.1-1.3-3.1-2.7c0-0.8,0.3-1.4,1-2
		c0.6-0.5,1.5-0.8,2.5-0.8c1.1,0,2,0.3,2.7,0.8c0.7,0.5,1,1.2,1,2h-2.3c0-0.3-0.1-0.6-0.3-0.8c-0.2-0.2-0.6-0.3-1-0.3
		c-0.4,0-0.7,0.1-0.9,0.3c-0.2,0.2-0.3,0.4-0.3,0.7c0,0.3,0.1,0.5,0.4,0.6c0.2,0.2,0.7,0.3,1.2,0.4c0.6,0.1,1.1,0.2,1.5,0.4
		c1.2,0.5,1.9,1.2,1.9,2.4c0,0.8-0.3,1.5-1,1.9c-0.7,0.5-1.6,0.7-2.7,0.7c-0.7,0-1.4-0.1-2-0.4c-0.6-0.3-1-0.6-1.3-1.1
		c-0.3-0.5-0.5-1-0.5-1.5h2.2c0,0.4,0.2,0.7,0.5,1s0.7,0.3,1.2,0.3c0.4,0,0.8-0.1,1-0.3C167.2,186.8,167.3,186.6,167.3,186.3z"/>
</g>
<g class="st0">
	<path d="M122.5,204.4h-1.7l-0.5,2.7h-0.9l0.5-2.7h-1.6v-0.9h1.7l0.4-2.3h-1.7v-0.9h1.9l0.5-2.7h0.9l-0.5,2.7h1.7l0.5-2.7h0.9
		l-0.5,2.7h1.3v0.9h-1.5l-0.4,2.3h1.5v0.9h-1.6l-0.5,2.7H122L122.5,204.4z M121,203.5h1.7l0.4-2.3h-1.7L121,203.5z"/>
	<path d="M126.9,207.1v-9.5h2.7c0.8,0,1.6,0.2,2.2,0.5c0.6,0.4,1.1,0.9,1.5,1.6c0.3,0.7,0.5,1.4,0.5,2.3v0.6c0,0.9-0.2,1.7-0.5,2.3
		c-0.3,0.7-0.8,1.2-1.5,1.5c-0.6,0.4-1.4,0.5-2.2,0.6H126.9z M128.1,198.6v7.4h1.3c1,0,1.7-0.3,2.2-0.9s0.8-1.5,0.8-2.6V202
		c0-1.1-0.3-1.9-0.8-2.5s-1.2-0.9-2.1-0.9H128.1z"/>
	<path d="M140.8,204.6h-4l-0.9,2.5h-1.3l3.6-9.5h1.1l3.6,9.5h-1.3L140.8,204.6z M137.2,203.6h3.2l-1.6-4.4L137.2,203.6z"/>
	<path d="M144.3,207.1v-9.5h3.1c1,0,1.8,0.2,2.3,0.6c0.5,0.4,0.8,1.1,0.8,1.9c0,0.4-0.1,0.8-0.4,1.2c-0.3,0.3-0.6,0.6-1,0.8
		c0.5,0.1,0.9,0.4,1.2,0.8c0.3,0.4,0.4,0.9,0.4,1.4c0,0.8-0.3,1.5-0.8,2s-1.3,0.7-2.3,0.7H144.3z M145.5,201.6h1.9
		c0.5,0,1-0.1,1.3-0.4s0.5-0.6,0.5-1.1c0-0.5-0.2-0.9-0.5-1.1c-0.3-0.2-0.8-0.4-1.4-0.4h-1.8V201.6z M145.5,202.6v3.4h2.1
		c0.6,0,1-0.2,1.4-0.5c0.3-0.3,0.5-0.7,0.5-1.2c0-1.1-0.6-1.7-1.9-1.7H145.5z"/>
	<path d="M152.6,207.1v-9.5h2.7c0.8,0,1.6,0.2,2.2,0.5c0.6,0.4,1.1,0.9,1.5,1.6c0.3,0.7,0.5,1.4,0.5,2.3v0.6c0,0.9-0.2,1.7-0.5,2.3
		c-0.3,0.7-0.8,1.2-1.5,1.5c-0.6,0.4-1.4,0.5-2.2,0.6H152.6z M153.8,198.6v7.4h1.3c1,0,1.7-0.3,2.2-0.9s0.8-1.5,0.8-2.6V202
		c0-1.1-0.3-1.9-0.8-2.5s-1.2-0.9-2.1-0.9H153.8z"/>
	<path d="M166.5,204.6h-4l-0.9,2.5h-1.3l3.6-9.5h1.1l3.6,9.5h-1.3L166.5,204.6z M162.9,203.6h3.2l-1.6-4.4L162.9,203.6z"/>
	<path d="M174.7,203.9h1.3v1h-1.3v2.2h-1.2v-2.2h-4.3v-0.7l4.2-6.6h1.3V203.9z M170.6,203.9h2.9v-4.6l-0.1,0.3L170.6,203.9z"/>
</g>
<circle class="st1" cx="147" cy="141" r="22.4"/>
<g class="st0">
	<path d="M5.6,176.9l3,8.6l3-8.6h3.2v11.8h-2.4v-3.2l0.2-5.6l-3.2,8.8H7.8l-3.2-8.8l0.2,5.6v3.2H2.4v-11.8H5.6z"/>
	<path d="M20.8,188.9c-1.3,0-2.3-0.4-3.1-1.2c-0.8-0.8-1.2-1.8-1.2-3.2v-0.2c0-0.9,0.2-1.7,0.5-2.4c0.3-0.7,0.8-1.2,1.5-1.6
		c0.6-0.4,1.3-0.6,2.1-0.6c1.2,0,2.1,0.4,2.8,1.1c0.7,0.8,1,1.8,1,3.2v1h-5.6c0.1,0.6,0.3,1,0.7,1.4s0.9,0.5,1.5,0.5
		c0.9,0,1.6-0.3,2.1-1l1.2,1.3c-0.4,0.5-0.8,0.9-1.4,1.2S21.6,188.9,20.8,188.9z M20.6,181.7c-0.5,0-0.8,0.2-1.1,0.5
		c-0.3,0.3-0.5,0.8-0.6,1.4h3.3v-0.2c0-0.5-0.2-0.9-0.4-1.2C21.5,181.8,21.1,181.7,20.6,181.7z"/>
	<path d="M30.7,182.2c-0.3,0-0.6-0.1-0.8-0.1c-0.9,0-1.5,0.3-1.7,0.9v5.8h-2.3V180H28l0.1,1c0.5-0.8,1.1-1.2,2-1.2
		c0.3,0,0.5,0,0.7,0.1L30.7,182.2z"/>
	<path d="M35.4,187c0.4,0,0.8-0.1,1.1-0.4s0.4-0.6,0.4-1H39c0,0.6-0.2,1.1-0.5,1.6c-0.3,0.5-0.8,0.9-1.3,1.2s-1.2,0.4-1.8,0.4
		c-1.3,0-2.2-0.4-3-1.2c-0.7-0.8-1.1-1.9-1.1-3.3v-0.2c0-1.4,0.4-2.4,1.1-3.2c0.7-0.8,1.7-1.2,3-1.2c1.1,0,2,0.3,2.6,0.9
		c0.7,0.6,1,1.5,1,2.5h-2.2c0-0.5-0.2-0.8-0.4-1.1c-0.3-0.3-0.6-0.4-1.1-0.4c-0.5,0-1,0.2-1.2,0.6c-0.3,0.4-0.4,1-0.4,1.9v0.2
		c0,0.9,0.1,1.6,0.4,2C34.4,186.8,34.8,187,35.4,187z"/>
	<path d="M45.7,187.9c-0.6,0.7-1.4,1.1-2.4,1.1c-0.9,0-1.7-0.3-2.2-0.8c-0.5-0.5-0.7-1.3-0.8-2.4V180h2.3v5.7c0,0.9,0.4,1.4,1.3,1.4
		c0.8,0,1.3-0.3,1.6-0.8V180h2.4v8.8h-2.2L45.7,187.9z"/>
	<path d="M54.6,182.2c-0.3,0-0.6-0.1-0.8-0.1c-0.9,0-1.5,0.3-1.7,0.9v5.8h-2.3V180h2.2l0.1,1c0.5-0.8,1.1-1.2,2-1.2
		c0.3,0,0.5,0,0.7,0.1L54.6,182.2z"/>
	<path d="M59.2,185.4l1.6-5.5h2.5l-3.5,10.2l-0.2,0.5c-0.5,1.1-1.4,1.7-2.6,1.7c-0.3,0-0.7-0.1-1-0.2v-1.8l0.4,0
		c0.4,0,0.8-0.1,1-0.2c0.2-0.1,0.4-0.4,0.5-0.7l0.3-0.7L55,180h2.5L59.2,185.4z"/>
</g>
<g class="st0">
	<path d="M7.1,204.4H5.4l-0.5,2.7H3.9l0.5-2.7H2.9v-0.9h1.7l0.4-2.3H3.4v-0.9h1.9l0.5-2.7h0.9l-0.5,2.7h1.7l0.5-2.7h0.9l-0.5,2.7
		h1.3v0.9H8.7l-0.4,2.3h1.5v0.9H8l-0.5,2.7H6.6L7.1,204.4z M5.6,203.5h1.7l0.4-2.3H6L5.6,203.5z"/>
	<path d="M16.6,204.6h-4l-0.9,2.5h-1.3l3.6-9.5h1.1l3.6,9.5h-1.3L16.6,204.6z M13.1,203.6h3.2l-1.6-4.4L13.1,203.6z"/>
	<path d="M20.1,207.1v-9.5h2.7c0.8,0,1.6,0.2,2.2,0.5c0.6,0.4,1.1,0.9,1.5,1.6c0.3,0.7,0.5,1.4,0.5,2.3v0.6c0,0.9-0.2,1.7-0.5,2.3
		c-0.3,0.7-0.8,1.2-1.5,1.5c-0.6,0.4-1.4,0.5-2.2,0.6H20.1z M21.4,198.6v7.4h1.3c1,0,1.7-0.3,2.2-0.9s0.8-1.5,0.8-2.6V202
		c0-1.1-0.3-1.9-0.8-2.5s-1.2-0.9-2.1-0.9H21.4z"/>
	<path d="M34.1,204.6h-4l-0.9,2.5h-1.3l3.6-9.5h1.1l3.6,9.5H35L34.1,204.6z M30.5,203.6h3.2l-1.6-4.4L30.5,203.6z"/>
	<path d="M37.5,207.1v-9.5h2.7c0.8,0,1.6,0.2,2.2,0.5c0.6,0.4,1.1,0.9,1.5,1.6c0.3,0.7,0.5,1.4,0.5,2.3v0.6c0,0.9-0.2,1.7-0.5,2.3
		c-0.3,0.7-0.8,1.2-1.5,1.5c-0.6,0.4-1.4,0.5-2.2,0.6H37.5z M38.8,198.6v7.4h1.3c1,0,1.7-0.3,2.2-0.9s0.8-1.5,0.8-2.6V202
		c0-1.1-0.3-1.9-0.8-2.5s-1.2-0.9-2.1-0.9H38.8z"/>
	<path d="M51.5,204.6h-4l-0.9,2.5h-1.3l3.6-9.5H50l3.6,9.5h-1.3L51.5,204.6z M47.9,203.6h3.2l-1.6-4.4L47.9,203.6z"/>
	<path d="M54.9,207.1v-9.5h2.7c0.8,0,1.6,0.2,2.2,0.5c0.6,0.4,1.1,0.9,1.5,1.6c0.3,0.7,0.5,1.4,0.5,2.3v0.6c0,0.9-0.2,1.7-0.5,2.3
		c-0.3,0.7-0.8,1.2-1.5,1.5c-0.6,0.4-1.4,0.5-2.2,0.6H54.9z M56.2,198.6v7.4h1.3c1,0,1.7-0.3,2.2-0.9s0.8-1.5,0.8-2.6V202
		c0-1.1-0.3-1.9-0.8-2.5s-1.2-0.9-2.1-0.9H56.2z"/>
</g>
<circle class="st2" cx="32.3" cy="141" r="22.4"/>
<g class="st0">
	<path d="M251.3,183.6h-4.7v3.2h5.5v2h-7.9v-11.8h7.9v2h-5.5v2.8h4.7V183.6z"/>
	<path d="M258.5,188.8c-0.1-0.2-0.2-0.5-0.2-0.8c-0.6,0.6-1.3,1-2.2,1c-0.9,0-1.6-0.2-2.1-0.7s-0.8-1.1-0.8-1.9c0-0.9,0.3-1.6,1-2.1
		c0.7-0.5,1.7-0.8,3-0.8h1.1v-0.5c0-0.4-0.1-0.7-0.3-1c-0.2-0.2-0.5-0.4-1-0.4c-0.4,0-0.7,0.1-0.9,0.3c-0.2,0.2-0.3,0.4-0.3,0.8
		h-2.3c0-0.5,0.2-1,0.5-1.4c0.3-0.4,0.8-0.8,1.3-1c0.6-0.2,1.2-0.4,1.9-0.4c1.1,0,1.9,0.3,2.6,0.8c0.6,0.5,1,1.3,1,2.3v3.8
		c0,0.8,0.1,1.5,0.3,1.9v0.1H258.5z M256.5,187.1c0.3,0,0.7-0.1,1-0.2s0.5-0.4,0.6-0.6v-1.5h-0.9c-1.2,0-1.8,0.4-1.9,1.2l0,0.1
		c0,0.3,0.1,0.5,0.3,0.7S256.2,187.1,256.5,187.1z"/>
	<path d="M267.2,182.2c-0.3,0-0.6-0.1-0.8-0.1c-0.9,0-1.5,0.3-1.7,0.9v5.8h-2.3V180h2.2l0.1,1c0.5-0.8,1.1-1.2,2-1.2
		c0.3,0,0.5,0,0.7,0.1L267.2,182.2z"/>
	<path d="M271.6,177.8v2.2h1.5v1.7h-1.5v4.4c0,0.3,0.1,0.6,0.2,0.7c0.1,0.1,0.4,0.2,0.7,0.2c0.3,0,0.5,0,0.7-0.1v1.8
		c-0.5,0.1-0.9,0.2-1.4,0.2c-1.6,0-2.5-0.8-2.5-2.5v-4.7H268V180h1.3v-2.2H271.6z"/>
	<path d="M276.7,180.9c0.6-0.7,1.4-1.1,2.3-1.1c1.9,0,2.9,1.1,2.9,3.3v5.6h-2.3v-5.6c0-0.5-0.1-0.9-0.3-1.1
		c-0.2-0.2-0.6-0.4-1.1-0.4c-0.7,0-1.2,0.3-1.5,0.8v6.2h-2.3v-12.5h2.3V180.9z"/>
</g>
<g class="st0">
	<path d="M238.8,204.4h-1.7l-0.5,2.7h-0.9l0.5-2.7h-1.6v-0.9h1.7l0.4-2.3h-1.7v-0.9h1.9l0.5-2.7h0.9l-0.5,2.7h1.7l0.5-2.7h0.9
		l-0.5,2.7h1.3v0.9h-1.5l-0.4,2.3h1.5v0.9h-1.6l-0.5,2.7h-0.9L238.8,204.4z M237.2,203.5h1.7l0.4-2.3h-1.7L237.2,203.5z"/>
	<path d="M248.9,198.3l-3.9,8.8h-1.3l3.9-8.5h-5.1v-1h6.4V198.3z"/>
	<path d="M257.5,204c-0.1,1-0.5,1.8-1.1,2.3c-0.6,0.5-1.4,0.8-2.5,0.8c-1.1,0-2-0.4-2.7-1.2s-1-1.9-1-3.2v-0.9
		c0-0.9,0.2-1.7,0.5-2.3s0.8-1.2,1.3-1.5s1.2-0.5,2-0.5c1,0,1.8,0.3,2.4,0.8c0.6,0.6,1,1.3,1.1,2.3h-1.3c-0.1-0.8-0.3-1.3-0.7-1.6
		s-0.9-0.5-1.5-0.5c-0.8,0-1.4,0.3-1.9,0.9s-0.7,1.4-0.7,2.5v0.9c0,1,0.2,1.8,0.6,2.5c0.4,0.6,1,0.9,1.8,0.9c0.7,0,1.2-0.2,1.6-0.5
		c0.4-0.3,0.6-0.9,0.7-1.6H257.5z"/>
	<path d="M263.5,202.9c-0.3,0.3-0.6,0.5-0.9,0.7c-0.3,0.2-0.7,0.3-1.1,0.3c-0.5,0-1-0.1-1.4-0.4s-0.7-0.6-0.9-1.1
		c-0.2-0.5-0.3-1-0.3-1.6c0-0.6,0.1-1.2,0.4-1.7c0.2-0.5,0.6-0.9,1-1.2s1-0.4,1.5-0.4c0.9,0,1.7,0.3,2.2,1c0.5,0.7,0.8,1.7,0.8,2.9
		v0.4c0,1.8-0.4,3.2-1.1,4c-0.7,0.8-1.8,1.3-3.3,1.3h-0.2v-1h0.3c1,0,1.8-0.3,2.3-0.8C263.2,204.8,263.5,204,263.5,202.9z
		 M261.7,202.9c0.4,0,0.8-0.1,1.1-0.4c0.3-0.2,0.6-0.6,0.7-0.9v-0.5c0-0.8-0.2-1.4-0.5-1.9c-0.3-0.5-0.8-0.7-1.3-0.7
		c-0.5,0-1,0.2-1.3,0.6c-0.3,0.4-0.5,0.9-0.5,1.6c0,0.6,0.2,1.2,0.5,1.6C260.8,202.7,261.2,202.9,261.7,202.9z"/>
	<path d="M272,204.6h-4l-0.9,2.5h-1.3l3.6-9.5h1.1l3.6,9.5h-1.3L272,204.6z M268.4,203.6h3.2l-1.6-4.4L268.4,203.6z"/>
	<path d="M280.6,204.6h-4l-0.9,2.5h-1.3l3.6-9.5h1.1l3.6,9.5h-1.3L280.6,204.6z M277,203.6h3.2l-1.6-4.4L277,203.6z"/>
	<path d="M289.3,204.6h-4l-0.9,2.5h-1.3l3.6-9.5h1.1l3.6,9.5h-1.3L289.3,204.6z M285.7,203.6h3.2l-1.6-4.4L285.7,203.6z"/>
</g>
<circle class="st3" cx="262.8" cy="141" r="22.4"/>
<g class="st0">
	<path d="M361.2,176.9l3,8.6l3-8.6h3.2v11.8h-2.4v-3.2l0.2-5.6l-3.2,8.8h-1.7l-3.2-8.8l0.2,5.6v3.2H358v-11.8H361.2z"/>
	<path d="M377.6,188.8c-0.1-0.2-0.2-0.5-0.2-0.8c-0.6,0.6-1.3,1-2.2,1c-0.9,0-1.6-0.2-2.1-0.7c-0.6-0.5-0.8-1.1-0.8-1.9
		c0-0.9,0.3-1.6,1-2.1c0.7-0.5,1.7-0.8,3-0.8h1.1v-0.5c0-0.4-0.1-0.7-0.3-1c-0.2-0.2-0.5-0.4-1-0.4c-0.4,0-0.7,0.1-0.9,0.3
		c-0.2,0.2-0.3,0.4-0.3,0.8h-2.3c0-0.5,0.2-1,0.5-1.4c0.3-0.4,0.8-0.8,1.3-1c0.6-0.2,1.2-0.4,1.9-0.4c1.1,0,1.9,0.3,2.6,0.8
		c0.6,0.5,1,1.3,1,2.3v3.8c0,0.8,0.1,1.5,0.3,1.9v0.1H377.6z M375.6,187.1c0.3,0,0.7-0.1,1-0.2c0.3-0.2,0.5-0.4,0.6-0.6v-1.5h-0.9
		c-1.2,0-1.8,0.4-1.9,1.2l0,0.1c0,0.3,0.1,0.5,0.3,0.7S375.3,187.1,375.6,187.1z"/>
	<path d="M386.3,182.2c-0.3,0-0.6-0.1-0.8-0.1c-0.9,0-1.5,0.3-1.7,0.9v5.8h-2.3V180h2.2l0.1,1c0.5-0.8,1.1-1.2,2-1.2
		c0.3,0,0.5,0,0.7,0.1L386.3,182.2z"/>
	<path d="M392.2,186.3c0-0.3-0.1-0.5-0.4-0.7c-0.3-0.2-0.7-0.3-1.4-0.4c-2.1-0.4-3.1-1.3-3.1-2.7c0-0.8,0.3-1.4,1-2
		c0.6-0.5,1.5-0.8,2.5-0.8c1.1,0,2,0.3,2.7,0.8c0.7,0.5,1,1.2,1,2h-2.3c0-0.3-0.1-0.6-0.3-0.8s-0.6-0.3-1-0.3
		c-0.4,0-0.7,0.1-0.9,0.3s-0.3,0.4-0.3,0.7c0,0.3,0.1,0.5,0.4,0.6c0.2,0.2,0.7,0.3,1.2,0.4c0.6,0.1,1.1,0.2,1.5,0.4
		c1.2,0.5,1.9,1.2,1.9,2.4c0,0.8-0.3,1.5-1,1.9c-0.7,0.5-1.6,0.7-2.7,0.7c-0.7,0-1.4-0.1-2-0.4c-0.6-0.3-1-0.6-1.3-1.1
		c-0.3-0.5-0.5-1-0.5-1.5h2.2c0,0.4,0.2,0.7,0.5,1s0.7,0.3,1.2,0.3c0.4,0,0.8-0.1,1-0.3C392.1,186.8,392.2,186.6,392.2,186.3z"/>
</g>
<g class="st0">
	<path d="M353.3,204.4h-1.7l-0.5,2.7h-0.9l0.5-2.7h-1.6v-0.9h1.7l0.4-2.3h-1.7v-0.9h1.9l0.5-2.7h0.9l-0.5,2.7h1.7l0.5-2.7h0.9
		l-0.5,2.7h1.3v0.9h-1.5l-0.4,2.3h1.5v0.9h-1.6l-0.5,2.7h-0.9L353.3,204.4z M351.7,203.5h1.7l0.4-2.3h-1.7L351.7,203.5z"/>
	<path d="M362.8,204.6h-4l-0.9,2.5h-1.3l3.6-9.5h1.1l3.6,9.5h-1.3L362.8,204.6z M359.2,203.6h3.2l-1.6-4.4L359.2,203.6z"/>
	<path d="M371,203.9h1.3v1H371v2.2h-1.2v-2.2h-4.3v-0.7l4.2-6.6h1.3V203.9z M366.9,203.9h2.9v-4.6l-0.1,0.3L366.9,203.9z"/>
	<path d="M378.2,197.6v1h-0.2c-0.9,0-1.7,0.3-2.2,0.8s-0.9,1.3-1,2.3c0.5-0.6,1.2-0.9,2-0.9c0.8,0,1.5,0.3,2,0.9
		c0.5,0.6,0.7,1.3,0.7,2.2c0,1-0.3,1.8-0.8,2.3c-0.5,0.6-1.2,0.9-2.1,0.9c-0.9,0-1.6-0.3-2.2-1c-0.6-0.7-0.8-1.6-0.8-2.7V203
		c0-1.7,0.4-3.1,1.1-4s1.8-1.4,3.3-1.4H378.2z M376.6,201.8c-0.4,0-0.8,0.1-1.1,0.4c-0.3,0.2-0.6,0.6-0.7,0.9v0.4
		c0,0.8,0.2,1.4,0.5,1.9c0.4,0.5,0.8,0.7,1.3,0.7c0.5,0,1-0.2,1.3-0.6c0.3-0.4,0.5-0.9,0.5-1.6c0-0.7-0.2-1.2-0.5-1.6
		C377.5,202,377.1,201.8,376.6,201.8z"/>
	<path d="M386.4,204.6h-4l-0.9,2.5h-1.3l3.6-9.5h1.1l3.6,9.5h-1.3L386.4,204.6z M382.9,203.6h3.2l-1.6-4.4L382.9,203.6z"/>
	<path d="M394.7,203.9h1.3v1h-1.3v2.2h-1.2v-2.2h-4.3v-0.7l4.2-6.6h1.3V203.9z M390.5,203.9h2.9v-4.6l-0.1,0.3L390.5,203.9z"/>
	<path d="M401,207.1h-1.2v-8l-2.4,0.9v-1.1l3.4-1.3h0.2V207.1z"/>
</g>
<circle class="st4" cx="376.1" cy="141" r="22.4"/>
<g class="st0">
	<path d="M467.2,186.3h-4.3l-0.8,2.4h-2.6l4.4-11.8h2.3l4.4,11.8H468L467.2,186.3z M463.5,184.3h3l-1.5-4.4L463.5,184.3z"/>
	<path d="M476.3,186.3c0-0.3-0.1-0.5-0.4-0.7s-0.7-0.3-1.4-0.4c-2.1-0.4-3.1-1.3-3.1-2.7c0-0.8,0.3-1.4,1-2s1.5-0.8,2.5-0.8
		c1.1,0,2,0.3,2.7,0.8s1,1.2,1,2h-2.3c0-0.3-0.1-0.6-0.3-0.8c-0.2-0.2-0.6-0.3-1-0.3c-0.4,0-0.7,0.1-0.9,0.3
		c-0.2,0.2-0.3,0.4-0.3,0.7c0,0.3,0.1,0.5,0.4,0.6c0.2,0.2,0.7,0.3,1.2,0.4c0.6,0.1,1.1,0.2,1.5,0.4c1.2,0.5,1.9,1.2,1.9,2.4
		c0,0.8-0.3,1.5-1,1.9c-0.7,0.5-1.6,0.7-2.7,0.7c-0.7,0-1.4-0.1-2-0.4s-1-0.6-1.3-1.1c-0.3-0.5-0.5-1-0.5-1.5h2.2
		c0,0.4,0.2,0.7,0.5,1s0.7,0.3,1.2,0.3c0.4,0,0.8-0.1,1-0.3S476.3,186.6,476.3,186.3z"/>
	<path d="M482.9,177.8v2.2h1.5v1.7h-1.5v4.4c0,0.3,0.1,0.6,0.2,0.7c0.1,0.1,0.4,0.2,0.7,0.2c0.3,0,0.5,0,0.7-0.1v1.8
		c-0.5,0.1-0.9,0.2-1.4,0.2c-1.6,0-2.5-0.8-2.5-2.5v-4.7h-1.3V180h1.3v-2.2H482.9z"/>
	<path d="M489.7,188.9c-1.3,0-2.3-0.4-3.1-1.2s-1.2-1.8-1.2-3.2v-0.2c0-0.9,0.2-1.7,0.5-2.4c0.3-0.7,0.8-1.2,1.5-1.6
		c0.6-0.4,1.3-0.6,2.1-0.6c1.2,0,2.1,0.4,2.8,1.1s1,1.8,1,3.2v1h-5.6c0.1,0.6,0.3,1,0.7,1.4s0.9,0.5,1.5,0.5c0.9,0,1.6-0.3,2.1-1
		l1.2,1.3c-0.4,0.5-0.8,0.9-1.4,1.2C491.1,188.8,490.5,188.9,489.7,188.9z M489.5,181.7c-0.5,0-0.8,0.2-1.1,0.5
		c-0.3,0.3-0.5,0.8-0.6,1.4h3.3v-0.2c0-0.5-0.2-0.9-0.4-1.2C490.4,181.8,490,181.7,489.5,181.7z"/>
	<path d="M499.6,182.2c-0.3,0-0.6-0.1-0.8-0.1c-0.9,0-1.5,0.3-1.7,0.9v5.8h-2.3V180h2.2l0.1,1c0.5-0.8,1.1-1.2,2-1.2
		c0.3,0,0.5,0,0.7,0.1L499.6,182.2z"/>
	<path d="M500.1,184.3c0-0.9,0.2-1.6,0.5-2.3c0.3-0.7,0.8-1.2,1.5-1.6c0.6-0.4,1.4-0.6,2.2-0.6c1.2,0,2.2,0.4,2.9,1.1
		c0.8,0.7,1.2,1.7,1.3,3l0,0.6c0,1.3-0.4,2.4-1.1,3.2c-0.8,0.8-1.8,1.2-3,1.2s-2.3-0.4-3-1.2c-0.8-0.8-1.1-1.9-1.1-3.3V184.3z
		 M502.5,184.4c0,0.8,0.2,1.5,0.5,1.9s0.8,0.7,1.3,0.7c0.6,0,1-0.2,1.3-0.7c0.3-0.4,0.5-1.1,0.5-2.1c0-0.8-0.2-1.5-0.5-1.9
		c-0.3-0.5-0.8-0.7-1.3-0.7c-0.6,0-1,0.2-1.3,0.7S502.5,183.5,502.5,184.4z"/>
	<path d="M509.9,177.7c0-0.4,0.1-0.6,0.4-0.9s0.6-0.3,1-0.3c0.4,0,0.7,0.1,1,0.3s0.4,0.5,0.4,0.9c0,0.4-0.1,0.7-0.4,0.9
		s-0.6,0.3-1,0.3s-0.7-0.1-1-0.3S509.9,178,509.9,177.7z M512.4,188.8H510V180h2.4V188.8z"/>
	<path d="M513.9,184.3c0-1.4,0.3-2.5,0.9-3.3c0.6-0.8,1.5-1.2,2.5-1.2c0.9,0,1.6,0.3,2.1,1v-4.5h2.4v12.5h-2.1l-0.1-0.9
		c-0.6,0.7-1.3,1.1-2.3,1.1c-1,0-1.9-0.4-2.5-1.2C514.2,186.9,513.9,185.7,513.9,184.3z M516.3,184.5c0,0.8,0.1,1.5,0.4,1.9
		s0.7,0.7,1.3,0.7c0.7,0,1.2-0.3,1.5-0.9v-3.5c-0.3-0.6-0.8-0.9-1.5-0.9C516.8,181.7,516.3,182.6,516.3,184.5z"/>
</g>
<g class="st0">
	<path d="M469.7,204.4H468l-0.5,2.7h-0.9l0.5-2.7h-1.6v-0.9h1.7l0.4-2.3H466v-0.9h1.9l0.5-2.7h0.9l-0.5,2.7h1.7l0.5-2.7h0.9
		l-0.5,2.7h1.3v0.9h-1.5l-0.4,2.3h1.5v0.9h-1.6l-0.5,2.7h-0.9L469.7,204.4z M468.1,203.5h1.7l0.4-2.3h-1.7L468.1,203.5z"/>
	<path d="M478.8,203.9h1.3v1h-1.3v2.2h-1.2v-2.2h-4.3v-0.7l4.2-6.6h1.3V203.9z M474.6,203.9h2.9v-4.6l-0.1,0.3L474.6,203.9z"/>
	<path d="M486.3,203.9h1.3v1h-1.3v2.2H485v-2.2h-4.3v-0.7l4.2-6.6h1.3V203.9z M482.1,203.9h2.9v-4.6l-0.1,0.3L482.1,203.9z"/>
	<path d="M493.7,203.9h1.3v1h-1.3v2.2h-1.2v-2.2h-4.3v-0.7l4.2-6.6h1.3V203.9z M489.6,203.9h2.9v-4.6l-0.1,0.3L489.6,203.9z"/>
	<path d="M502.3,207.1h-6.2v-0.9l3.3-3.6c0.5-0.6,0.8-1,1-1.3c0.2-0.3,0.3-0.7,0.3-1.1c0-0.5-0.1-0.9-0.4-1.2s-0.7-0.5-1.2-0.5
		c-0.6,0-1.1,0.2-1.4,0.5c-0.3,0.3-0.5,0.8-0.5,1.4h-1.2c0-0.9,0.3-1.6,0.8-2.1c0.6-0.5,1.3-0.8,2.3-0.8c0.9,0,1.6,0.2,2.1,0.7
		c0.5,0.5,0.8,1.1,0.8,1.8c0,0.9-0.6,2-1.8,3.3l-2.5,2.7h4.8V207.1z"/>
	<path d="M508.7,203.9h1.3v1h-1.3v2.2h-1.2v-2.2h-4.3v-0.7l4.2-6.6h1.3V203.9z M504.5,203.9h2.9v-4.6l-0.1,0.3L504.5,203.9z"/>
	<path d="M517.3,207.1h-6.2v-0.9l3.3-3.6c0.5-0.6,0.8-1,1-1.3c0.2-0.3,0.3-0.7,0.3-1.1c0-0.5-0.1-0.9-0.4-1.2s-0.7-0.5-1.2-0.5
		c-0.6,0-1.1,0.2-1.4,0.5c-0.3,0.3-0.5,0.8-0.5,1.4h-1.2c0-0.9,0.3-1.6,0.8-2.1c0.6-0.5,1.3-0.8,2.3-0.8c0.9,0,1.6,0.2,2.1,0.7
		c0.5,0.5,0.8,1.1,0.8,1.8c0,0.9-0.6,2-1.8,3.3l-2.5,2.7h4.8V207.1z"/>
</g>
<ellipse transform="matrix(0.1735 -0.9848 0.9848 0.1735 267.1139 600.2863)" class="st5" cx="491.2" cy="141" rx="22.4" ry="22.4"/>
<g class="st0">
	<path d="M192.6,380.1v-11.8h4.1c1.4,0,2.5,0.3,3.3,0.8s1.1,1.4,1.1,2.4c0,0.6-0.1,1.1-0.4,1.5s-0.7,0.8-1.2,1
		c0.6,0.2,1.1,0.5,1.4,0.9c0.3,0.5,0.5,1,0.5,1.7c0,1.1-0.4,2-1.1,2.6s-1.8,0.9-3.1,0.9H192.6z M195,373.2h1.8
		c1.2,0,1.8-0.5,1.8-1.5c0-0.5-0.2-0.9-0.5-1.2c-0.3-0.2-0.8-0.4-1.5-0.4H195V373.2z M195,374.9v3.2h2.1c0.6,0,1-0.1,1.3-0.4
		s0.5-0.7,0.5-1.1c0-1.1-0.6-1.6-1.7-1.6H195z"/>
	<path d="M208.2,380.1c-0.1-0.2-0.2-0.5-0.2-0.8c-0.6,0.6-1.3,1-2.2,1c-0.9,0-1.6-0.2-2.1-0.7c-0.6-0.5-0.8-1.1-0.8-1.9
		c0-0.9,0.3-1.6,1-2.1c0.7-0.5,1.7-0.8,3-0.8h1.1v-0.5c0-0.4-0.1-0.7-0.3-1c-0.2-0.2-0.5-0.4-1-0.4c-0.4,0-0.7,0.1-0.9,0.3
		s-0.3,0.4-0.3,0.8h-2.3c0-0.5,0.2-1,0.5-1.4s0.8-0.8,1.3-1c0.6-0.2,1.2-0.4,1.9-0.4c1.1,0,1.9,0.3,2.6,0.8c0.6,0.5,1,1.3,1,2.3v3.8
		c0,0.8,0.1,1.5,0.3,1.9v0.1H208.2z M206.2,378.4c0.3,0,0.7-0.1,1-0.2c0.3-0.2,0.5-0.4,0.7-0.6v-1.5H207c-1.2,0-1.8,0.4-1.9,1.2
		l0,0.1c0,0.3,0.1,0.5,0.3,0.7S205.9,378.4,206.2,378.4z"/>
	<path d="M215.6,378.3c0.4,0,0.8-0.1,1.1-0.4c0.3-0.2,0.4-0.6,0.4-1h2.2c0,0.6-0.2,1.1-0.5,1.6c-0.3,0.5-0.8,0.9-1.3,1.2
		c-0.6,0.3-1.2,0.4-1.8,0.4c-1.3,0-2.2-0.4-3-1.2c-0.7-0.8-1.1-1.9-1.1-3.3v-0.2c0-1.4,0.4-2.4,1.1-3.2c0.7-0.8,1.7-1.2,3-1.2
		c1.1,0,2,0.3,2.6,0.9c0.7,0.6,1,1.5,1,2.5h-2.2c0-0.5-0.2-0.8-0.4-1.1c-0.3-0.3-0.6-0.4-1.1-0.4c-0.5,0-1,0.2-1.2,0.6
		c-0.3,0.4-0.4,1-0.4,1.9v0.2c0,0.9,0.1,1.6,0.4,2C214.7,378.1,215.1,378.3,215.6,378.3z"/>
	<path d="M223.9,376.5l-0.8,0.8v2.7h-2.3v-12.5h2.3v6.9l0.5-0.6l2.3-2.6h2.8l-3.2,3.7l3.5,5.1h-2.7L223.9,376.5z"/>
	<path d="M229.1,375.6c0-1.3,0.3-2.4,1-3.3c0.6-0.8,1.5-1.2,2.6-1.2c1,0,1.7,0.3,2.2,1l0.1-0.8h2.1v8.5c0,0.8-0.2,1.4-0.5,2
		c-0.3,0.6-0.8,1-1.5,1.3s-1.4,0.4-2.2,0.4c-0.6,0-1.3-0.1-1.9-0.4c-0.6-0.3-1.1-0.6-1.4-1l1-1.4c0.6,0.7,1.3,1,2.1,1
		c0.6,0,1.1-0.2,1.5-0.5c0.3-0.3,0.5-0.8,0.5-1.4v-0.5c-0.5,0.6-1.3,0.9-2.1,0.9c-1.1,0-1.9-0.4-2.6-1.2
		C229.4,378.2,229.1,377.1,229.1,375.6L229.1,375.6z M231.4,375.8c0,0.8,0.2,1.4,0.5,1.9c0.3,0.5,0.8,0.7,1.3,0.7
		c0.7,0,1.2-0.3,1.5-0.8v-3.7c-0.3-0.5-0.8-0.8-1.5-0.8c-0.6,0-1,0.2-1.3,0.7C231.6,374.2,231.4,374.9,231.4,375.8z"/>
	<path d="M243.8,373.5c-0.3,0-0.6-0.1-0.8-0.1c-0.9,0-1.5,0.3-1.7,0.9v5.8h-2.3v-8.8h2.2l0.1,1c0.5-0.8,1.1-1.2,2-1.2
		c0.3,0,0.5,0,0.7,0.1L243.8,373.5z"/>
	<path d="M244.3,375.6c0-0.9,0.2-1.6,0.5-2.3c0.3-0.7,0.8-1.2,1.5-1.6c0.6-0.4,1.4-0.6,2.2-0.6c1.2,0,2.2,0.4,2.9,1.1s1.2,1.7,1.3,3
		l0,0.6c0,1.3-0.4,2.4-1.1,3.2c-0.8,0.8-1.8,1.2-3,1.2c-1.3,0-2.3-0.4-3-1.2c-0.8-0.8-1.1-1.9-1.1-3.3V375.6z M246.6,375.8
		c0,0.8,0.2,1.5,0.5,1.9c0.3,0.4,0.8,0.7,1.3,0.7c0.6,0,1-0.2,1.3-0.7s0.5-1.1,0.5-2.1c0-0.8-0.2-1.5-0.5-1.9s-0.8-0.7-1.3-0.7
		c-0.6,0-1,0.2-1.3,0.7C246.8,374.1,246.6,374.8,246.6,375.8z"/>
	<path d="M259.3,379.2c-0.6,0.7-1.4,1.1-2.4,1.1c-0.9,0-1.7-0.3-2.2-0.8c-0.5-0.5-0.7-1.3-0.8-2.4v-5.8h2.3v5.7
		c0,0.9,0.4,1.4,1.3,1.4c0.8,0,1.3-0.3,1.6-0.8v-6.2h2.4v8.8h-2.2L259.3,379.2z"/>
	<path d="M265.5,371.3l0.1,1c0.6-0.8,1.5-1.2,2.5-1.2c0.9,0,1.6,0.3,2.1,0.8c0.5,0.5,0.7,1.4,0.7,2.5v5.7h-2.3v-5.6
		c0-0.5-0.1-0.9-0.3-1.1c-0.2-0.2-0.6-0.3-1.1-0.3c-0.7,0-1.2,0.3-1.5,0.8v6.2h-2.3v-8.8H265.5z"/>
	<path d="M272.3,375.6c0-1.4,0.3-2.5,0.9-3.3c0.6-0.8,1.5-1.2,2.5-1.2c0.9,0,1.6,0.3,2.1,1v-4.5h2.4v12.5h-2.1l-0.1-0.9
		c-0.6,0.7-1.3,1.1-2.3,1.1c-1,0-1.9-0.4-2.5-1.2C272.6,378.2,272.3,377.1,272.3,375.6z M274.7,375.8c0,0.8,0.1,1.5,0.4,1.9
		s0.7,0.7,1.3,0.7c0.7,0,1.2-0.3,1.5-0.9v-3.5c-0.3-0.6-0.8-0.9-1.5-0.9C275.2,373,274.7,373.9,274.7,375.8z"/>
	<path d="M289.9,378.3c0.4,0,0.8-0.1,1.1-0.4c0.3-0.2,0.4-0.6,0.4-1h2.2c0,0.6-0.2,1.1-0.5,1.6c-0.3,0.5-0.8,0.9-1.3,1.2
		c-0.6,0.3-1.2,0.4-1.8,0.4c-1.3,0-2.2-0.4-3-1.2s-1.1-1.9-1.1-3.3v-0.2c0-1.4,0.4-2.4,1.1-3.2c0.7-0.8,1.7-1.2,3-1.2
		c1.1,0,2,0.3,2.6,0.9c0.7,0.6,1,1.5,1,2.5h-2.2c0-0.5-0.2-0.8-0.4-1.1c-0.3-0.3-0.6-0.4-1.1-0.4c-0.5,0-1,0.2-1.2,0.6
		s-0.4,1-0.4,1.9v0.2c0,0.9,0.1,1.6,0.4,2C288.9,378.1,289.3,378.3,289.9,378.3z"/>
	<path d="M294.5,375.6c0-0.9,0.2-1.6,0.5-2.3c0.3-0.7,0.8-1.2,1.5-1.6c0.6-0.4,1.4-0.6,2.2-0.6c1.2,0,2.2,0.4,2.9,1.1
		c0.8,0.7,1.2,1.7,1.3,3l0,0.6c0,1.3-0.4,2.4-1.1,3.2c-0.8,0.8-1.8,1.2-3,1.2s-2.3-0.4-3-1.2c-0.8-0.8-1.1-1.9-1.1-3.3V375.6z
		 M296.9,375.8c0,0.8,0.2,1.5,0.5,1.9s0.8,0.7,1.3,0.7c0.6,0,1-0.2,1.3-0.7c0.3-0.4,0.5-1.1,0.5-2.1c0-0.8-0.2-1.5-0.5-1.9
		c-0.3-0.5-0.8-0.7-1.3-0.7c-0.6,0-1,0.2-1.3,0.7S296.9,374.8,296.9,375.8z"/>
	<path d="M306.8,380.1h-2.4v-12.5h2.4V380.1z"/>
	<path d="M308.4,375.6c0-0.9,0.2-1.6,0.5-2.3c0.3-0.7,0.8-1.2,1.5-1.6c0.6-0.4,1.4-0.6,2.2-0.6c1.2,0,2.2,0.4,2.9,1.1
		c0.8,0.7,1.2,1.7,1.3,3l0,0.6c0,1.3-0.4,2.4-1.1,3.2c-0.8,0.8-1.8,1.2-3,1.2s-2.3-0.4-3-1.2c-0.8-0.8-1.1-1.9-1.1-3.3V375.6z
		 M310.7,375.8c0,0.8,0.2,1.5,0.5,1.9s0.8,0.7,1.3,0.7c0.6,0,1-0.2,1.3-0.7c0.3-0.4,0.5-1.1,0.5-2.1c0-0.8-0.2-1.5-0.5-1.9
		c-0.3-0.5-0.8-0.7-1.3-0.7c-0.6,0-1,0.2-1.3,0.7S310.7,374.8,310.7,375.8z"/>
	<path d="M323.1,373.5c-0.3,0-0.6-0.1-0.8-0.1c-0.9,0-1.5,0.3-1.7,0.9v5.8h-2.3v-8.8h2.2l0.1,1c0.5-0.8,1.1-1.2,2-1.2
		c0.3,0,0.5,0,0.7,0.1L323.1,373.5z"/>
	<path d="M329,377.6c0-0.3-0.1-0.5-0.4-0.7s-0.7-0.3-1.4-0.4c-2.1-0.4-3.1-1.3-3.1-2.7c0-0.8,0.3-1.4,1-2s1.5-0.8,2.5-0.8
		c1.1,0,2,0.3,2.7,0.8s1,1.2,1,2h-2.3c0-0.3-0.1-0.6-0.3-0.8c-0.2-0.2-0.6-0.3-1-0.3c-0.4,0-0.7,0.1-0.9,0.3
		c-0.2,0.2-0.3,0.4-0.3,0.7c0,0.3,0.1,0.5,0.4,0.6c0.2,0.2,0.7,0.3,1.2,0.4c0.6,0.1,1.1,0.2,1.5,0.4c1.2,0.5,1.9,1.2,1.9,2.4
		c0,0.8-0.3,1.5-1,1.9c-0.7,0.5-1.6,0.7-2.7,0.7c-0.7,0-1.4-0.1-2-0.4s-1-0.6-1.3-1.1c-0.3-0.5-0.5-1-0.5-1.5h2.2
		c0,0.4,0.2,0.7,0.5,1s0.7,0.3,1.2,0.3c0.4,0,0.8-0.1,1-0.3S329,377.9,329,377.6z"/>
</g>
<g class="st0">
	<path d="M129.6,302.7c0-0.5-0.2-0.8-0.5-1.1c-0.3-0.2-0.9-0.5-1.8-0.8c-0.8-0.3-1.5-0.5-2-0.8c-1.3-0.7-2-1.7-2-2.9
		c0-0.6,0.2-1.2,0.5-1.7s0.9-0.9,1.6-1.2c0.7-0.3,1.4-0.4,2.3-0.4c0.8,0,1.6,0.2,2.3,0.5s1.2,0.7,1.5,1.3s0.5,1.2,0.5,1.9h-2.4
		c0-0.5-0.2-1-0.5-1.3c-0.3-0.3-0.8-0.5-1.4-0.5c-0.6,0-1.1,0.1-1.4,0.4c-0.3,0.3-0.5,0.6-0.5,1c0,0.4,0.2,0.7,0.6,1s1,0.5,1.7,0.7
		c1.4,0.4,2.4,0.9,3,1.6c0.6,0.6,1,1.4,1,2.3c0,1-0.4,1.8-1.2,2.4c-0.8,0.6-1.8,0.9-3.1,0.9c-0.9,0-1.7-0.2-2.5-0.5
		c-0.7-0.3-1.3-0.8-1.7-1.4s-0.6-1.3-0.6-2h2.4c0,1.3,0.8,2,2.3,2c0.6,0,1-0.1,1.4-0.4C129.5,303.4,129.6,303.1,129.6,302.7z"/>
	<path d="M138.7,305.8c-0.1-0.2-0.2-0.5-0.2-0.8c-0.6,0.6-1.3,1-2.2,1c-0.9,0-1.6-0.2-2.1-0.7s-0.8-1.1-0.8-1.9c0-0.9,0.3-1.6,1-2.1
		c0.7-0.5,1.7-0.8,3-0.8h1.1v-0.5c0-0.4-0.1-0.7-0.3-1c-0.2-0.2-0.5-0.4-1-0.4c-0.4,0-0.7,0.1-0.9,0.3c-0.2,0.2-0.3,0.4-0.3,0.8
		h-2.3c0-0.5,0.2-1,0.5-1.4c0.3-0.4,0.8-0.8,1.3-1c0.6-0.2,1.2-0.4,1.9-0.4c1.1,0,1.9,0.3,2.6,0.8c0.6,0.5,1,1.3,1,2.3v3.8
		c0,0.8,0.1,1.5,0.3,1.9v0.1H138.7z M136.7,304.1c0.3,0,0.7-0.1,1-0.2s0.5-0.4,0.6-0.6v-1.5h-0.9c-1.2,0-1.8,0.4-1.9,1.2l0,0.1
		c0,0.3,0.1,0.5,0.3,0.7S136.4,304.1,136.7,304.1z"/>
	<path d="M145.3,294.8v2.2h1.5v1.7h-1.5v4.4c0,0.3,0.1,0.6,0.2,0.7s0.4,0.2,0.7,0.2c0.3,0,0.5,0,0.7-0.1v1.8
		c-0.5,0.1-0.9,0.2-1.4,0.2c-1.6,0-2.5-0.8-2.5-2.5v-4.7h-1.3V297h1.3v-2.2H145.3z"/>
	<path d="M153.4,304.9c-0.6,0.7-1.4,1.1-2.4,1.1c-0.9,0-1.7-0.3-2.2-0.8c-0.5-0.5-0.7-1.3-0.8-2.4V297h2.3v5.7
		c0,0.9,0.4,1.4,1.3,1.4c0.8,0,1.3-0.3,1.6-0.8V297h2.4v8.8h-2.2L153.4,304.9z"/>
	<path d="M162.4,299.2c-0.3,0-0.6-0.1-0.8-0.1c-0.9,0-1.5,0.3-1.7,0.9v5.8h-2.3V297h2.2l0.1,1c0.5-0.8,1.1-1.2,2-1.2
		c0.3,0,0.5,0,0.7,0.1L162.4,299.2z"/>
	<path d="M165.6,297l0.1,1c0.6-0.8,1.5-1.2,2.5-1.2c0.9,0,1.6,0.3,2.1,0.8c0.5,0.5,0.7,1.4,0.7,2.5v5.7h-2.3v-5.6
		c0-0.5-0.1-0.9-0.3-1.1c-0.2-0.2-0.6-0.3-1.1-0.3c-0.7,0-1.2,0.3-1.5,0.8v6.2h-2.3V297H165.6z"/>
</g>
<g class="st0">
	<path d="M124.9,321.4h-1.7l-0.5,2.7h-0.9l0.5-2.7h-1.6v-0.9h1.7l0.4-2.3h-1.7v-0.9h1.9l0.5-2.7h0.9l-0.5,2.7h1.7l0.5-2.7h0.9
		l-0.5,2.7h1.3v0.9h-1.5l-0.4,2.3h1.5v0.9h-1.6l-0.5,2.7h-0.9L124.9,321.4z M123.4,320.5h1.7l0.4-2.3h-1.7L123.4,320.5z"/>
	<path d="M129.2,324.1v-9.5h3.1c1,0,1.8,0.2,2.3,0.6c0.5,0.4,0.8,1.1,0.8,1.9c0,0.4-0.1,0.8-0.4,1.2c-0.3,0.3-0.6,0.6-1,0.8
		c0.5,0.1,0.9,0.4,1.2,0.8c0.3,0.4,0.4,0.9,0.4,1.4c0,0.8-0.3,1.5-0.8,2s-1.3,0.7-2.3,0.7H129.2z M130.5,318.6h1.9
		c0.5,0,1-0.1,1.3-0.4s0.5-0.6,0.5-1.1c0-0.5-0.2-0.9-0.5-1.1c-0.3-0.2-0.8-0.4-1.4-0.4h-1.8V318.6z M130.5,319.6v3.4h2.1
		c0.6,0,1-0.2,1.4-0.5c0.3-0.3,0.5-0.7,0.5-1.2c0-1.1-0.6-1.7-1.9-1.7H130.5z"/>
	<path d="M139,318.7h0.9c0.6,0,1-0.2,1.3-0.4c0.3-0.3,0.5-0.7,0.5-1.2c0-1.1-0.6-1.7-1.7-1.7c-0.5,0-0.9,0.1-1.2,0.4
		c-0.3,0.3-0.5,0.7-0.5,1.2h-1.2c0-0.7,0.3-1.4,0.8-1.9s1.2-0.7,2.1-0.7c0.9,0,1.6,0.2,2.1,0.7c0.5,0.5,0.8,1.1,0.8,2
		c0,0.4-0.1,0.8-0.4,1.2c-0.3,0.4-0.6,0.7-1.1,0.9c0.5,0.2,0.9,0.4,1.2,0.8c0.3,0.4,0.4,0.8,0.4,1.4c0,0.8-0.3,1.5-0.8,2
		s-1.3,0.7-2.2,0.7s-1.6-0.2-2.2-0.7c-0.6-0.5-0.8-1.1-0.8-1.9h1.2c0,0.5,0.2,0.9,0.5,1.2c0.3,0.3,0.8,0.4,1.3,0.4
		c0.6,0,1-0.2,1.3-0.5c0.3-0.3,0.5-0.7,0.5-1.3c0-0.6-0.2-1-0.5-1.3s-0.8-0.4-1.5-0.5H139V318.7z"/>
	<path d="M149.3,319.9c-0.3,0.3-0.6,0.5-0.9,0.7c-0.3,0.2-0.7,0.3-1.1,0.3c-0.5,0-1-0.1-1.4-0.4s-0.7-0.6-0.9-1.1
		c-0.2-0.5-0.3-1-0.3-1.6c0-0.6,0.1-1.2,0.4-1.7c0.2-0.5,0.6-0.9,1-1.2s1-0.4,1.5-0.4c0.9,0,1.7,0.3,2.2,1c0.5,0.7,0.8,1.7,0.8,2.9
		v0.4c0,1.8-0.4,3.2-1.1,4c-0.7,0.8-1.8,1.3-3.3,1.3h-0.2v-1h0.3c1,0,1.8-0.3,2.3-0.8C148.9,321.8,149.2,321,149.3,319.9z
		 M147.4,319.9c0.4,0,0.8-0.1,1.1-0.4s0.6-0.6,0.7-0.9v-0.5c0-0.8-0.2-1.4-0.5-1.9c-0.3-0.5-0.8-0.7-1.3-0.7c-0.5,0-1,0.2-1.3,0.6
		c-0.3,0.4-0.5,0.9-0.5,1.6c0,0.6,0.2,1.2,0.5,1.6C146.5,319.7,146.9,319.9,147.4,319.9z"/>
	<path d="M152.5,324.1v-9.5h3.1c1,0,1.8,0.2,2.3,0.6c0.5,0.4,0.8,1.1,0.8,1.9c0,0.4-0.1,0.8-0.4,1.2c-0.3,0.3-0.6,0.6-1,0.8
		c0.5,0.1,0.9,0.4,1.2,0.8c0.3,0.4,0.4,0.9,0.4,1.4c0,0.8-0.3,1.5-0.8,2s-1.3,0.7-2.3,0.7H152.5z M153.7,318.6h1.9
		c0.5,0,1-0.1,1.3-0.4s0.5-0.6,0.5-1.1c0-0.5-0.2-0.9-0.5-1.1c-0.3-0.2-0.8-0.4-1.4-0.4h-1.8V318.6z M153.7,319.6v3.4h2.1
		c0.6,0,1-0.2,1.4-0.5c0.3-0.3,0.5-0.7,0.5-1.2c0-1.1-0.6-1.7-1.9-1.7H153.7z"/>
	<path d="M165.2,314.6v1h-0.2c-0.9,0-1.7,0.3-2.2,0.8c-0.6,0.5-0.9,1.3-1,2.3c0.5-0.6,1.2-0.9,2-0.9c0.8,0,1.5,0.3,2,0.9
		s0.7,1.3,0.7,2.2c0,1-0.3,1.8-0.8,2.3s-1.2,0.9-2.1,0.9c-0.9,0-1.6-0.3-2.2-1c-0.6-0.7-0.8-1.6-0.8-2.7V320c0-1.7,0.4-3.1,1.1-4
		s1.8-1.4,3.3-1.4H165.2z M163.6,318.9c-0.4,0-0.8,0.1-1.1,0.4c-0.3,0.2-0.6,0.6-0.7,0.9v0.4c0,0.8,0.2,1.4,0.5,1.9s0.8,0.7,1.3,0.7
		c0.5,0,1-0.2,1.3-0.6c0.3-0.4,0.5-0.9,0.5-1.6c0-0.7-0.2-1.2-0.5-1.6C164.5,319.1,164.1,318.9,163.6,318.9z"/>
	<path d="M173.4,319.9h-4v4.2h-1.2v-9.5h5.9v1h-4.6v3.2h4V319.9z"/>
</g>
<circle class="st6" cx="147.2" cy="258" r="22.4"/>
<g class="st0">
	<path d="M12.3,293.9h2.4v8.2c0,0.8-0.2,1.4-0.5,2c-0.3,0.6-0.8,1-1.4,1.3c-0.6,0.3-1.3,0.5-2.1,0.5c-1.3,0-2.2-0.3-2.9-1
		s-1-1.5-1-2.7h2.5c0,0.6,0.1,1,0.4,1.3s0.6,0.4,1.2,0.4c0.5,0,0.8-0.2,1.1-0.5c0.3-0.3,0.4-0.8,0.4-1.4V293.9z"/>
	<path d="M22,304.9c-0.6,0.7-1.4,1.1-2.4,1.1c-0.9,0-1.7-0.3-2.2-0.8c-0.5-0.5-0.7-1.3-0.8-2.4V297H19v5.7c0,0.9,0.4,1.4,1.3,1.4
		c0.8,0,1.3-0.3,1.6-0.8V297h2.4v8.8H22L22,304.9z"/>
	<path d="M33.9,301.4c0,1.4-0.3,2.4-0.9,3.3c-0.6,0.8-1.4,1.2-2.5,1.2c-0.9,0-1.6-0.3-2.2-0.9v4.1H26V297h2.2l0.1,0.9
		c0.6-0.7,1.3-1,2.2-1c1.1,0,1.9,0.4,2.5,1.2c0.6,0.8,0.9,1.9,0.9,3.3V301.4z M31.6,301.3c0-0.8-0.1-1.4-0.4-1.9
		c-0.3-0.4-0.7-0.7-1.3-0.7c-0.7,0-1.2,0.3-1.5,0.8v3.6c0.3,0.6,0.8,0.9,1.5,0.9C31,304,31.6,303.1,31.6,301.3z"/>
	<path d="M35.4,294.7c0-0.4,0.1-0.6,0.4-0.9c0.2-0.2,0.6-0.3,1-0.3c0.4,0,0.7,0.1,1,0.3s0.4,0.5,0.4,0.9c0,0.4-0.1,0.7-0.4,0.9
		c-0.2,0.2-0.6,0.3-1,0.3s-0.7-0.1-1-0.3C35.5,295.3,35.4,295.1,35.4,294.7z M37.8,305.8h-2.4V297h2.4V305.8z"/>
	<path d="M42.6,294.8v2.2h1.5v1.7h-1.5v4.4c0,0.3,0.1,0.6,0.2,0.7s0.4,0.2,0.7,0.2c0.3,0,0.5,0,0.7-0.1v1.8
		c-0.5,0.1-0.9,0.2-1.4,0.2c-1.6,0-2.5-0.8-2.5-2.5v-4.7H39V297h1.3v-2.2H42.6z"/>
	<path d="M49.4,305.9c-1.3,0-2.3-0.4-3.1-1.2c-0.8-0.8-1.2-1.8-1.2-3.2v-0.2c0-0.9,0.2-1.7,0.5-2.4c0.3-0.7,0.8-1.2,1.5-1.6
		c0.6-0.4,1.3-0.6,2.1-0.6c1.2,0,2.1,0.4,2.8,1.1c0.7,0.8,1,1.8,1,3.2v1h-5.6c0.1,0.6,0.3,1,0.7,1.4s0.9,0.5,1.5,0.5
		c0.9,0,1.6-0.3,2.1-1l1.2,1.3c-0.4,0.5-0.8,0.9-1.4,1.2S50.2,305.9,49.4,305.9z M49.2,298.7c-0.5,0-0.8,0.2-1.1,0.5
		c-0.3,0.3-0.5,0.8-0.6,1.4h3.3v-0.2c0-0.5-0.2-0.9-0.4-1.2C50.1,298.8,49.7,298.7,49.2,298.7z"/>
	<path d="M59.3,299.2c-0.3,0-0.6-0.1-0.8-0.1c-0.9,0-1.5,0.3-1.7,0.9v5.8h-2.3V297h2.2l0.1,1c0.5-0.8,1.1-1.2,2-1.2
		c0.3,0,0.5,0,0.7,0.1L59.3,299.2z"/>
</g>
<g class="st0">
	<path d="M10.9,321.4H9.2l-0.5,2.7H7.7l0.5-2.7H6.7v-0.9h1.7l0.4-2.3H7.2v-0.9H9l0.5-2.7h0.9l-0.5,2.7h1.7l0.5-2.7h0.9l-0.5,2.7h1.3
		v0.9h-1.5l-0.4,2.3h1.5v0.9h-1.6l-0.5,2.7h-0.9L10.9,321.4z M9.3,320.5H11l0.4-2.3H9.8L9.3,320.5z"/>
	<path d="M20.4,321.6h-4l-0.9,2.5h-1.3l3.6-9.5H19l3.6,9.5h-1.3L20.4,321.6z M16.8,320.6H20l-1.6-4.4L16.8,320.6z"/>
	<path d="M28.2,319.9c-0.3,0.3-0.6,0.5-0.9,0.7c-0.3,0.2-0.7,0.3-1.1,0.3c-0.5,0-1-0.1-1.4-0.4s-0.7-0.6-0.9-1.1
		c-0.2-0.5-0.3-1-0.3-1.6c0-0.6,0.1-1.2,0.4-1.7c0.2-0.5,0.6-0.9,1-1.2s1-0.4,1.5-0.4c0.9,0,1.7,0.3,2.2,1c0.5,0.7,0.8,1.7,0.8,2.9
		v0.4c0,1.8-0.4,3.2-1.1,4c-0.7,0.8-1.8,1.3-3.3,1.3h-0.2v-1H25c1,0,1.8-0.3,2.3-0.8C27.8,321.8,28.1,321,28.2,319.9z M26.3,319.9
		c0.4,0,0.8-0.1,1.1-0.4s0.6-0.6,0.7-0.9v-0.5c0-0.8-0.2-1.4-0.5-1.9c-0.3-0.5-0.8-0.7-1.3-0.7c-0.5,0-1,0.2-1.3,0.6
		c-0.3,0.4-0.5,0.9-0.5,1.6c0,0.6,0.2,1.2,0.5,1.6C25.4,319.7,25.8,319.9,26.3,319.9z"/>
	<path d="M36.8,317.1c0,0.5-0.1,0.9-0.4,1.3c-0.2,0.4-0.6,0.7-1,0.9c0.5,0.2,0.9,0.5,1.2,0.9s0.4,0.9,0.4,1.4c0,0.8-0.3,1.5-0.8,2
		c-0.6,0.5-1.3,0.7-2.2,0.7c-0.9,0-1.6-0.2-2.2-0.7c-0.5-0.5-0.8-1.1-0.8-2c0-0.5,0.1-1,0.4-1.4c0.3-0.4,0.7-0.7,1.2-0.9
		c-0.4-0.2-0.8-0.5-1-0.9s-0.4-0.8-0.4-1.3c0-0.8,0.3-1.4,0.8-1.9c0.5-0.5,1.2-0.7,2-0.7c0.8,0,1.5,0.2,2,0.7
		C36.5,315.6,36.8,316.3,36.8,317.1z M35.8,321.5c0-0.5-0.2-1-0.5-1.3c-0.3-0.3-0.8-0.5-1.3-0.5s-1,0.2-1.3,0.5s-0.5,0.8-0.5,1.3
		s0.2,1,0.5,1.3c0.3,0.3,0.8,0.5,1.3,0.5c0.6,0,1-0.2,1.3-0.5C35.6,322.4,35.8,322,35.8,321.5z M34,315.5c-0.5,0-0.9,0.1-1.1,0.4
		c-0.3,0.3-0.4,0.7-0.4,1.2c0,0.5,0.1,0.9,0.4,1.2c0.3,0.3,0.7,0.4,1.2,0.4s0.9-0.1,1.2-0.4c0.3-0.3,0.4-0.7,0.4-1.2
		c0-0.5-0.1-0.9-0.4-1.2C34.8,315.6,34.4,315.5,34,315.5z"/>
	<path d="M44.4,320c0,1.4-0.2,2.5-0.7,3.1s-1.2,1-2.3,1c-1,0-1.8-0.3-2.2-1c-0.5-0.7-0.7-1.7-0.8-3v-1.6c0-1.4,0.2-2.4,0.7-3.1
		s1.2-1,2.3-1c1,0,1.8,0.3,2.2,1c0.5,0.7,0.7,1.7,0.7,3V320z M43.2,318.4c0-1-0.1-1.8-0.4-2.2c-0.3-0.5-0.7-0.7-1.4-0.7
		c-0.6,0-1.1,0.2-1.3,0.7c-0.3,0.5-0.4,1.2-0.4,2.1v1.9c0,1,0.1,1.8,0.4,2.3c0.3,0.5,0.7,0.7,1.3,0.7c0.6,0,1-0.2,1.3-0.7
		c0.3-0.5,0.4-1.2,0.5-2.2V318.4z"/>
	<path d="M50.7,314.6v1h-0.2c-0.9,0-1.7,0.3-2.2,0.8c-0.6,0.5-0.9,1.3-1,2.3c0.5-0.6,1.2-0.9,2-0.9c0.8,0,1.5,0.3,2,0.9
		s0.7,1.3,0.7,2.2c0,1-0.3,1.8-0.8,2.3s-1.2,0.9-2.1,0.9c-0.9,0-1.6-0.3-2.2-1c-0.6-0.7-0.8-1.6-0.8-2.7V320c0-1.7,0.4-3.1,1.1-4
		s1.8-1.4,3.3-1.4H50.7z M49.1,318.9c-0.4,0-0.8,0.1-1.1,0.4c-0.3,0.2-0.6,0.6-0.7,0.9v0.4c0,0.8,0.2,1.4,0.5,1.9s0.8,0.7,1.3,0.7
		c0.5,0,1-0.2,1.3-0.6c0.3-0.4,0.5-0.9,0.5-1.6c0-0.7-0.2-1.2-0.5-1.6C50.1,319.1,49.6,318.9,49.1,318.9z"/>
	<path d="M54,319.3l0.5-4.7h4.8v1.1h-3.8l-0.3,2.6c0.5-0.3,1-0.4,1.6-0.4c0.9,0,1.5,0.3,2.1,0.9s0.8,1.3,0.8,2.3
		c0,1-0.3,1.7-0.8,2.3c-0.5,0.6-1.3,0.8-2.2,0.8c-0.8,0-1.5-0.2-2-0.7s-0.8-1.1-0.9-1.9h1.1c0.1,0.5,0.3,1,0.6,1.2
		c0.3,0.3,0.7,0.4,1.2,0.4c0.6,0,1-0.2,1.3-0.6c0.3-0.4,0.5-0.9,0.5-1.6c0-0.6-0.2-1.1-0.5-1.5c-0.3-0.4-0.8-0.6-1.4-0.6
		c-0.5,0-0.9,0.1-1.2,0.3l-0.3,0.3L54,319.3z"/>
</g>
<circle class="st7" cx="33" cy="258" r="22.4"/>
<g class="st0">
	<path d="M246.4,293.9v7.8c0,1.3-0.4,2.3-1.2,3.1s-1.9,1.1-3.3,1.1c-1.4,0-2.5-0.4-3.3-1.1c-0.8-0.7-1.2-1.7-1.2-3v-7.9h2.4v7.8
		c0,0.8,0.2,1.3,0.6,1.7c0.4,0.4,0.9,0.5,1.5,0.5c1.4,0,2.1-0.7,2.1-2.2v-7.9H246.4z"/>
	<path d="M253.2,299.2c-0.3,0-0.6-0.1-0.8-0.1c-0.9,0-1.5,0.3-1.7,0.9v5.8h-2.3V297h2.2l0.1,1c0.5-0.8,1.1-1.2,2-1.2
		c0.3,0,0.5,0,0.7,0.1L253.2,299.2z"/>
	<path d="M259.1,305.8c-0.1-0.2-0.2-0.5-0.2-0.8c-0.6,0.6-1.3,1-2.2,1c-0.9,0-1.6-0.2-2.1-0.7s-0.8-1.1-0.8-1.9c0-0.9,0.3-1.6,1-2.1
		c0.7-0.5,1.7-0.8,3-0.8h1.1v-0.5c0-0.4-0.1-0.7-0.3-1c-0.2-0.2-0.5-0.4-1-0.4c-0.4,0-0.7,0.1-0.9,0.3c-0.2,0.2-0.3,0.4-0.3,0.8
		h-2.3c0-0.5,0.2-1,0.5-1.4c0.3-0.4,0.8-0.8,1.3-1c0.6-0.2,1.2-0.4,1.9-0.4c1.1,0,1.9,0.3,2.6,0.8c0.6,0.5,1,1.3,1,2.3v3.8
		c0,0.8,0.1,1.5,0.3,1.9v0.1H259.1z M257.2,304.1c0.3,0,0.7-0.1,1-0.2s0.5-0.4,0.6-0.6v-1.5h-0.9c-1.2,0-1.8,0.4-1.9,1.2l0,0.1
		c0,0.3,0.1,0.5,0.3,0.7S256.8,304.1,257.2,304.1z"/>
	<path d="M265.1,297l0.1,1c0.6-0.8,1.5-1.2,2.5-1.2c0.9,0,1.6,0.3,2.1,0.8c0.5,0.5,0.7,1.4,0.7,2.5v5.7h-2.3v-5.6
		c0-0.5-0.1-0.9-0.3-1.1c-0.2-0.2-0.6-0.3-1.1-0.3c-0.7,0-1.2,0.3-1.5,0.8v6.2h-2.3V297H265.1z"/>
	<path d="M277.6,304.9c-0.6,0.7-1.4,1.1-2.4,1.1c-0.9,0-1.7-0.3-2.2-0.8c-0.5-0.5-0.7-1.3-0.8-2.4V297h2.3v5.7
		c0,0.9,0.4,1.4,1.3,1.4c0.8,0,1.3-0.3,1.6-0.8V297h2.4v8.8h-2.2L277.6,304.9z"/>
	<path d="M286.4,303.3c0-0.3-0.1-0.5-0.4-0.7s-0.7-0.3-1.4-0.4c-2.1-0.4-3.1-1.3-3.1-2.7c0-0.8,0.3-1.4,1-2s1.5-0.8,2.5-0.8
		c1.1,0,2,0.3,2.7,0.8s1,1.2,1,2h-2.3c0-0.3-0.1-0.6-0.3-0.8c-0.2-0.2-0.6-0.3-1-0.3c-0.4,0-0.7,0.1-0.9,0.3
		c-0.2,0.2-0.3,0.4-0.3,0.7c0,0.3,0.1,0.5,0.4,0.6c0.2,0.2,0.7,0.3,1.2,0.4c0.6,0.1,1.1,0.2,1.5,0.4c1.2,0.5,1.9,1.2,1.9,2.4
		c0,0.8-0.3,1.5-1,1.9c-0.7,0.5-1.6,0.7-2.7,0.7c-0.7,0-1.4-0.1-2-0.4s-1-0.6-1.3-1.1c-0.3-0.5-0.5-1-0.5-1.5h2.2
		c0,0.4,0.2,0.7,0.5,1s0.7,0.3,1.2,0.3c0.4,0,0.8-0.1,1-0.3S286.4,303.6,286.4,303.3z"/>
</g>
<g class="st0">
	<path d="M239.5,321.4h-1.7l-0.5,2.7h-0.9l0.5-2.7h-1.6v-0.9h1.7l0.4-2.3h-1.7v-0.9h1.9l0.5-2.7h0.9l-0.5,2.7h1.7l0.5-2.7h0.9
		l-0.5,2.7h1.3v0.9h-1.5l-0.4,2.3h1.5v0.9h-1.6l-0.5,2.7H239L239.5,321.4z M238,320.5h1.7l0.4-2.3h-1.7L238,320.5z"/>
	<path d="M248.3,314.6v1H248c-0.9,0-1.7,0.3-2.2,0.8c-0.6,0.5-0.9,1.3-1,2.3c0.5-0.6,1.2-0.9,2-0.9c0.8,0,1.5,0.3,2,0.9
		s0.7,1.3,0.7,2.2c0,1-0.3,1.8-0.8,2.3s-1.2,0.9-2.1,0.9c-0.9,0-1.6-0.3-2.2-1c-0.6-0.7-0.8-1.6-0.8-2.7V320c0-1.7,0.4-3.1,1.1-4
		s1.8-1.4,3.3-1.4H248.3z M246.7,318.9c-0.4,0-0.8,0.1-1.1,0.4c-0.3,0.2-0.6,0.6-0.7,0.9v0.4c0,0.8,0.2,1.4,0.5,1.9s0.8,0.7,1.3,0.7
		c0.5,0,1-0.2,1.3-0.6c0.3-0.4,0.5-0.9,0.5-1.6c0-0.7-0.2-1.2-0.5-1.6C247.6,319.1,247.2,318.9,246.7,318.9z"/>
	<path d="M255.6,319.9c-0.3,0.3-0.6,0.5-0.9,0.7c-0.3,0.2-0.7,0.3-1.1,0.3c-0.5,0-1-0.1-1.4-0.4s-0.7-0.6-0.9-1.1
		c-0.2-0.5-0.3-1-0.3-1.6c0-0.6,0.1-1.2,0.4-1.7c0.2-0.5,0.6-0.9,1-1.2s1-0.4,1.5-0.4c0.9,0,1.7,0.3,2.2,1c0.5,0.7,0.8,1.7,0.8,2.9
		v0.4c0,1.8-0.4,3.2-1.1,4c-0.7,0.8-1.8,1.3-3.3,1.3h-0.2v-1h0.3c1,0,1.8-0.3,2.3-0.8C255.3,321.8,255.6,321,255.6,319.9z
		 M253.8,319.9c0.4,0,0.8-0.1,1.1-0.4s0.6-0.6,0.7-0.9v-0.5c0-0.8-0.2-1.4-0.5-1.9c-0.3-0.5-0.8-0.7-1.3-0.7c-0.5,0-1,0.2-1.3,0.6
		c-0.3,0.4-0.5,0.9-0.5,1.6c0,0.6,0.2,1.2,0.5,1.6C252.8,319.7,253.3,319.9,253.8,319.9z"/>
	<path d="M258.8,324.1v-9.5h2.7c0.8,0,1.6,0.2,2.2,0.5s1.1,0.9,1.5,1.6c0.3,0.7,0.5,1.4,0.5,2.3v0.6c0,0.9-0.2,1.7-0.5,2.3
		c-0.3,0.7-0.8,1.2-1.5,1.5c-0.6,0.4-1.4,0.5-2.2,0.6H258.8z M260.1,315.6v7.4h1.3c1,0,1.7-0.3,2.2-0.9s0.8-1.5,0.8-2.6V319
		c0-1.1-0.3-1.9-0.8-2.5s-1.2-0.9-2.1-0.9H260.1z"/>
	<path d="M271.9,314.6v1h-0.2c-0.9,0-1.7,0.3-2.2,0.8c-0.6,0.5-0.9,1.3-1,2.3c0.5-0.6,1.2-0.9,2-0.9c0.8,0,1.5,0.3,2,0.9
		c0.5,0.6,0.7,1.3,0.7,2.2c0,1-0.3,1.8-0.8,2.3c-0.5,0.6-1.2,0.9-2.1,0.9c-0.9,0-1.6-0.3-2.2-1s-0.8-1.6-0.8-2.7V320
		c0-1.7,0.4-3.1,1.1-4s1.8-1.4,3.3-1.4H271.9z M270.4,318.9c-0.4,0-0.8,0.1-1.1,0.4c-0.3,0.2-0.6,0.6-0.7,0.9v0.4
		c0,0.8,0.2,1.4,0.5,1.9c0.4,0.5,0.8,0.7,1.3,0.7c0.5,0,1-0.2,1.3-0.6c0.3-0.4,0.5-0.9,0.5-1.6c0-0.7-0.2-1.2-0.5-1.6
		C271.3,319.1,270.9,318.9,270.4,318.9z"/>
	<path d="M275,324.1v-9.5h2.7c0.8,0,1.6,0.2,2.2,0.5s1.1,0.9,1.5,1.6c0.3,0.7,0.5,1.4,0.5,2.3v0.6c0,0.9-0.2,1.7-0.5,2.3
		c-0.3,0.7-0.8,1.2-1.5,1.5c-0.6,0.4-1.4,0.5-2.2,0.6H275z M276.3,315.6v7.4h1.3c1,0,1.7-0.3,2.2-0.9s0.8-1.5,0.8-2.6V319
		c0-1.1-0.3-1.9-0.8-2.5s-1.2-0.9-2.1-0.9H276.3z"/>
	<path d="M283.7,324.1v-9.5h2.7c0.8,0,1.6,0.2,2.2,0.5s1.1,0.9,1.5,1.6c0.3,0.7,0.5,1.4,0.5,2.3v0.6c0,0.9-0.2,1.7-0.5,2.3
		c-0.3,0.7-0.8,1.2-1.5,1.5c-0.6,0.4-1.4,0.5-2.2,0.6H283.7z M285,315.6v7.4h1.3c1,0,1.7-0.3,2.2-0.9s0.8-1.5,0.8-2.6V319
		c0-1.1-0.3-1.9-0.8-2.5s-1.2-0.9-2.1-0.9H285z"/>
</g>
<circle class="st8" cx="262.9" cy="258" r="22.4"/>
<g class="st0">
	<path d="M355.2,305.8h-2.4L348,298v7.8h-2.4v-11.8h2.4l4.8,7.8v-7.8h2.4V305.8z"/>
	<path d="M361.2,305.9c-1.3,0-2.3-0.4-3.1-1.2c-0.8-0.8-1.2-1.8-1.2-3.2v-0.2c0-0.9,0.2-1.7,0.5-2.4c0.3-0.7,0.8-1.2,1.5-1.6
		c0.6-0.4,1.3-0.6,2.1-0.6c1.2,0,2.1,0.4,2.8,1.1c0.7,0.8,1,1.8,1,3.2v1h-5.6c0.1,0.6,0.3,1,0.7,1.4c0.4,0.3,0.9,0.5,1.5,0.5
		c0.9,0,1.6-0.3,2.1-1l1.2,1.3c-0.4,0.5-0.8,0.9-1.4,1.2S362,305.9,361.2,305.9z M361,298.7c-0.5,0-0.8,0.2-1.1,0.5
		c-0.3,0.3-0.5,0.8-0.6,1.4h3.3v-0.2c0-0.5-0.2-0.9-0.4-1.2C361.9,298.8,361.5,298.7,361,298.7z"/>
	<path d="M374.1,301.4c0,1.4-0.3,2.4-0.9,3.3c-0.6,0.8-1.4,1.2-2.5,1.2c-0.9,0-1.6-0.3-2.2-0.9v4.1h-2.3V297h2.2l0.1,0.9
		c0.6-0.7,1.3-1,2.2-1c1.1,0,1.9,0.4,2.5,1.2c0.6,0.8,0.9,1.9,0.9,3.3V301.4z M371.8,301.3c0-0.8-0.1-1.4-0.4-1.9
		c-0.3-0.4-0.7-0.7-1.3-0.7c-0.7,0-1.2,0.3-1.5,0.8v3.6c0.3,0.6,0.8,0.9,1.5,0.9C371.2,304,371.8,303.1,371.8,301.3z"/>
	<path d="M378.4,294.8v2.2h1.5v1.7h-1.5v4.4c0,0.3,0.1,0.6,0.2,0.7c0.1,0.1,0.4,0.2,0.7,0.2c0.3,0,0.5,0,0.7-0.1v1.8
		c-0.5,0.1-0.9,0.2-1.4,0.2c-1.6,0-2.5-0.8-2.5-2.5v-4.7h-1.3V297h1.3v-2.2H378.4z"/>
	<path d="M386.4,304.9c-0.6,0.7-1.4,1.1-2.4,1.1c-0.9,0-1.7-0.3-2.2-0.8c-0.5-0.5-0.7-1.3-0.8-2.4V297h2.3v5.7
		c0,0.9,0.4,1.4,1.3,1.4c0.8,0,1.3-0.3,1.6-0.8V297h2.4v8.8h-2.2L386.4,304.9z"/>
	<path d="M392.7,297l0.1,1c0.6-0.8,1.5-1.2,2.5-1.2c0.9,0,1.6,0.3,2.1,0.8c0.5,0.5,0.7,1.4,0.7,2.5v5.7h-2.3v-5.6
		c0-0.5-0.1-0.9-0.3-1.1c-0.2-0.2-0.6-0.3-1.1-0.3c-0.7,0-1.2,0.3-1.5,0.8v6.2h-2.3V297H392.7z"/>
	<path d="M403.9,305.9c-1.3,0-2.3-0.4-3.1-1.2c-0.8-0.8-1.2-1.8-1.2-3.2v-0.2c0-0.9,0.2-1.7,0.5-2.4c0.3-0.7,0.8-1.2,1.5-1.6
		c0.6-0.4,1.3-0.6,2.1-0.6c1.2,0,2.1,0.4,2.8,1.1c0.7,0.8,1,1.8,1,3.2v1h-5.6c0.1,0.6,0.3,1,0.7,1.4c0.4,0.3,0.9,0.5,1.5,0.5
		c0.9,0,1.6-0.3,2.1-1l1.2,1.3c-0.4,0.5-0.8,0.9-1.4,1.2S404.6,305.9,403.9,305.9z M403.6,298.7c-0.5,0-0.8,0.2-1.1,0.5
		c-0.3,0.3-0.5,0.8-0.6,1.4h3.3v-0.2c0-0.5-0.2-0.9-0.4-1.2C404.5,298.8,404.1,298.7,403.6,298.7z"/>
</g>
<g class="st0">
	<path d="M353.4,321.4h-1.7l-0.5,2.7h-0.9l0.5-2.7h-1.6v-0.9h1.7l0.4-2.3h-1.7v-0.9h1.9l0.5-2.7h0.9l-0.5,2.7h1.7l0.5-2.7h0.9
		l-0.5,2.7h1.3v0.9H355l-0.4,2.3h1.5v0.9h-1.6l-0.5,2.7h-0.9L353.4,321.4z M351.9,320.5h1.7l0.4-2.3h-1.7L351.9,320.5z"/>
	<path d="M363,321.6h-4l-0.9,2.5h-1.3l3.6-9.5h1.1l3.6,9.5h-1.3L363,321.6z M359.4,320.6h3.2l-1.6-4.4L359.4,320.6z"/>
	<path d="M370.8,314.6v1h-0.2c-0.9,0-1.7,0.3-2.2,0.8c-0.6,0.5-0.9,1.3-1,2.3c0.5-0.6,1.2-0.9,2-0.9c0.8,0,1.5,0.3,2,0.9
		c0.5,0.6,0.7,1.3,0.7,2.2c0,1-0.3,1.8-0.8,2.3c-0.5,0.6-1.2,0.9-2.1,0.9c-0.9,0-1.6-0.3-2.2-1s-0.8-1.6-0.8-2.7V320
		c0-1.7,0.4-3.1,1.1-4s1.8-1.4,3.3-1.4H370.8z M369.3,318.9c-0.4,0-0.8,0.1-1.1,0.4c-0.3,0.2-0.6,0.6-0.7,0.9v0.4
		c0,0.8,0.2,1.4,0.5,1.9c0.4,0.5,0.8,0.7,1.3,0.7c0.5,0,1-0.2,1.3-0.6c0.3-0.4,0.5-0.9,0.5-1.6c0-0.7-0.2-1.2-0.5-1.6
		C370.2,319.1,369.8,318.9,369.3,318.9z"/>
	<path d="M373.9,324.1v-9.5h2.7c0.8,0,1.6,0.2,2.2,0.5s1.1,0.9,1.5,1.6c0.3,0.7,0.5,1.4,0.5,2.3v0.6c0,0.9-0.2,1.7-0.5,2.3
		c-0.3,0.7-0.8,1.2-1.5,1.5c-0.6,0.4-1.4,0.5-2.2,0.6H373.9z M375.1,315.6v7.4h1.3c1,0,1.7-0.3,2.2-0.9s0.8-1.5,0.8-2.6V319
		c0-1.1-0.3-1.9-0.8-2.5s-1.2-0.9-2.1-0.9H375.1z"/>
	<path d="M388.5,324.1h-6.2v-0.9l3.3-3.6c0.5-0.6,0.8-1,1-1.3c0.2-0.3,0.3-0.7,0.3-1.1c0-0.5-0.1-0.9-0.4-1.2s-0.7-0.5-1.2-0.5
		c-0.6,0-1.1,0.2-1.4,0.5c-0.3,0.3-0.5,0.8-0.5,1.4h-1.2c0-0.9,0.3-1.6,0.8-2.1c0.6-0.5,1.3-0.8,2.3-0.8c0.9,0,1.6,0.2,2.1,0.7
		c0.5,0.5,0.8,1.1,0.8,1.8c0,0.9-0.6,2-1.8,3.3l-2.5,2.7h4.8V324.1z"/>
	<path d="M395.3,319.9h-4v4.2h-1.2v-9.5h5.9v1h-4.6v3.2h4V319.9z"/>
	<path d="M402.8,319.7h-4.1v3.4h4.8v1h-6v-9.5h5.9v1h-4.7v3h4.1V319.7z"/>
</g>
<circle class="st9" cx="376.2" cy="258" r="22.4"/>
<g class="st0">
	<path d="M475.2,301.6v4.2h-2.4v-11.8h4.6c0.9,0,1.7,0.2,2.3,0.5c0.7,0.3,1.2,0.8,1.6,1.4c0.4,0.6,0.5,1.3,0.5,2
		c0,1.2-0.4,2.1-1.2,2.7c-0.8,0.7-1.9,1-3.3,1H475.2z M475.2,299.6h2.2c0.6,0,1.1-0.2,1.5-0.5c0.3-0.3,0.5-0.7,0.5-1.3
		c0-0.6-0.2-1-0.5-1.4c-0.3-0.4-0.8-0.5-1.4-0.6h-2.2V299.6z"/>
	<path d="M485.8,305.8h-2.4v-12.5h2.4V305.8z"/>
	<path d="M493,304.9c-0.6,0.7-1.4,1.1-2.4,1.1c-0.9,0-1.7-0.3-2.2-0.8c-0.5-0.5-0.7-1.3-0.8-2.4V297h2.3v5.7c0,0.9,0.4,1.4,1.3,1.4
		c0.8,0,1.3-0.3,1.6-0.8V297h2.4v8.8H493L493,304.9z"/>
	<path d="M499.8,294.8v2.2h1.5v1.7h-1.5v4.4c0,0.3,0.1,0.6,0.2,0.7c0.1,0.1,0.4,0.2,0.7,0.2c0.3,0,0.5,0,0.7-0.1v1.8
		c-0.5,0.1-0.9,0.2-1.4,0.2c-1.6,0-2.5-0.8-2.5-2.5v-4.7h-1.3V297h1.3v-2.2H499.8z"/>
	<path d="M502,301.3c0-0.9,0.2-1.6,0.5-2.3c0.3-0.7,0.8-1.2,1.5-1.6c0.6-0.4,1.4-0.6,2.2-0.6c1.2,0,2.2,0.4,2.9,1.1
		c0.8,0.7,1.2,1.7,1.3,3l0,0.6c0,1.3-0.4,2.4-1.1,3.2c-0.8,0.8-1.8,1.2-3,1.2s-2.3-0.4-3-1.2c-0.8-0.8-1.1-1.9-1.1-3.3V301.3z
		 M504.4,301.5c0,0.8,0.2,1.5,0.5,1.9s0.8,0.7,1.3,0.7c0.6,0,1-0.2,1.3-0.7c0.3-0.4,0.5-1.1,0.5-2.1c0-0.8-0.2-1.5-0.5-1.9
		c-0.3-0.5-0.8-0.7-1.3-0.7c-0.6,0-1,0.2-1.3,0.7S504.4,300.5,504.4,301.5z"/>
</g>
<g class="st0">
	<path d="M469.4,321.4h-1.7l-0.5,2.7h-0.9l0.5-2.7h-1.6v-0.9h1.7l0.4-2.3h-1.7v-0.9h1.9l0.5-2.7h0.9l-0.5,2.7h1.7l0.5-2.7h0.9
		l-0.5,2.7h1.3v0.9H471l-0.4,2.3h1.5v0.9h-1.6l-0.5,2.7h-0.9L469.4,321.4z M467.9,320.5h1.7l0.4-2.3h-1.7L467.9,320.5z"/>
	<path d="M473.8,324.1v-9.5h3.1c1,0,1.8,0.2,2.3,0.6c0.5,0.4,0.8,1.1,0.8,1.9c0,0.4-0.1,0.8-0.4,1.2c-0.2,0.3-0.6,0.6-1,0.8
		c0.5,0.1,0.9,0.4,1.2,0.8c0.3,0.4,0.4,0.9,0.4,1.4c0,0.8-0.3,1.5-0.8,2s-1.3,0.7-2.3,0.7H473.8z M475,318.6h1.9
		c0.5,0,1-0.1,1.3-0.4c0.3-0.3,0.5-0.6,0.5-1.1c0-0.5-0.2-0.9-0.5-1.1c-0.3-0.2-0.8-0.4-1.4-0.4H475V318.6z M475,319.6v3.4h2.1
		c0.6,0,1-0.2,1.4-0.5c0.3-0.3,0.5-0.7,0.5-1.2c0-1.1-0.6-1.7-1.9-1.7H475z"/>
	<path d="M483.5,318.7h0.9c0.6,0,1-0.2,1.3-0.4s0.5-0.7,0.5-1.2c0-1.1-0.6-1.7-1.7-1.7c-0.5,0-0.9,0.1-1.2,0.4
		c-0.3,0.3-0.5,0.7-0.5,1.2h-1.2c0-0.7,0.3-1.4,0.8-1.9c0.5-0.5,1.2-0.7,2.1-0.7c0.9,0,1.6,0.2,2.1,0.7c0.5,0.5,0.8,1.1,0.8,2
		c0,0.4-0.1,0.8-0.4,1.2c-0.3,0.4-0.6,0.7-1.1,0.9c0.5,0.2,0.9,0.4,1.2,0.8c0.3,0.4,0.4,0.8,0.4,1.4c0,0.8-0.3,1.5-0.8,2
		s-1.3,0.7-2.2,0.7s-1.6-0.2-2.2-0.7c-0.6-0.5-0.8-1.1-0.8-1.9h1.2c0,0.5,0.2,0.9,0.5,1.2c0.3,0.3,0.8,0.4,1.3,0.4
		c0.6,0,1-0.2,1.3-0.5c0.3-0.3,0.5-0.7,0.5-1.3c0-0.6-0.2-1-0.5-1.3s-0.8-0.4-1.5-0.5h-0.9V318.7z"/>
	<path d="M494.9,317.1c0,0.5-0.1,0.9-0.4,1.3c-0.2,0.4-0.6,0.7-1,0.9c0.5,0.2,0.9,0.5,1.2,0.9c0.3,0.4,0.4,0.9,0.4,1.4
		c0,0.8-0.3,1.5-0.8,2c-0.6,0.5-1.3,0.7-2.2,0.7c-0.9,0-1.6-0.2-2.2-0.7c-0.5-0.5-0.8-1.1-0.8-2c0-0.5,0.1-1,0.4-1.4
		c0.3-0.4,0.7-0.7,1.2-0.9c-0.4-0.2-0.8-0.5-1-0.9c-0.2-0.4-0.4-0.8-0.4-1.3c0-0.8,0.3-1.4,0.8-1.9c0.5-0.5,1.2-0.7,2-0.7
		c0.8,0,1.5,0.2,2,0.7C494.7,315.6,494.9,316.3,494.9,317.1z M494,321.5c0-0.5-0.2-1-0.5-1.3c-0.3-0.3-0.8-0.5-1.3-0.5
		c-0.5,0-1,0.2-1.3,0.5s-0.5,0.8-0.5,1.3s0.2,1,0.5,1.3c0.3,0.3,0.8,0.5,1.3,0.5c0.6,0,1-0.2,1.3-0.5C493.8,322.4,494,322,494,321.5
		z M492.2,315.5c-0.5,0-0.9,0.1-1.1,0.4c-0.3,0.3-0.4,0.7-0.4,1.2c0,0.5,0.1,0.9,0.4,1.2c0.3,0.3,0.7,0.4,1.2,0.4s0.9-0.1,1.2-0.4
		c0.3-0.3,0.4-0.7,0.4-1.2c0-0.5-0.2-0.9-0.4-1.2C493,315.6,492.6,315.5,492.2,315.5z"/>
	<path d="M502.6,320c0,1.4-0.2,2.5-0.7,3.1c-0.5,0.7-1.2,1-2.3,1c-1,0-1.8-0.3-2.2-1c-0.5-0.7-0.7-1.7-0.8-3v-1.6
		c0-1.4,0.2-2.4,0.7-3.1c0.5-0.7,1.2-1,2.3-1c1,0,1.8,0.3,2.2,1c0.5,0.7,0.7,1.7,0.7,3V320z M501.4,318.4c0-1-0.1-1.8-0.4-2.2
		c-0.3-0.5-0.7-0.7-1.4-0.7c-0.6,0-1.1,0.2-1.3,0.7c-0.3,0.5-0.4,1.2-0.4,2.1v1.9c0,1,0.1,1.8,0.4,2.3c0.3,0.5,0.7,0.7,1.3,0.7
		c0.6,0,1-0.2,1.3-0.7c0.3-0.5,0.4-1.2,0.5-2.2V318.4z"/>
	<path d="M504.7,319.3l0.5-4.7h4.8v1.1h-3.8l-0.3,2.6c0.5-0.3,1-0.4,1.6-0.4c0.9,0,1.5,0.3,2.1,0.9c0.5,0.6,0.8,1.3,0.8,2.3
		c0,1-0.3,1.7-0.8,2.3c-0.5,0.6-1.3,0.8-2.2,0.8c-0.8,0-1.5-0.2-2-0.7c-0.5-0.5-0.8-1.1-0.9-1.9h1.1c0.1,0.5,0.3,1,0.6,1.2
		c0.3,0.3,0.7,0.4,1.2,0.4c0.6,0,1-0.2,1.3-0.6c0.3-0.4,0.5-0.9,0.5-1.6c0-0.6-0.2-1.1-0.5-1.5c-0.3-0.4-0.8-0.6-1.4-0.6
		c-0.5,0-0.9,0.1-1.2,0.3l-0.3,0.3L504.7,319.3z"/>
	<path d="M517.4,317.1c0,0.5-0.1,0.9-0.4,1.3c-0.2,0.4-0.6,0.7-1,0.9c0.5,0.2,0.9,0.5,1.2,0.9c0.3,0.4,0.4,0.9,0.4,1.4
		c0,0.8-0.3,1.5-0.8,2s-1.3,0.7-2.2,0.7c-0.9,0-1.6-0.2-2.2-0.7c-0.5-0.5-0.8-1.1-0.8-2c0-0.5,0.1-1,0.4-1.4
		c0.3-0.4,0.7-0.7,1.2-0.9c-0.4-0.2-0.8-0.5-1-0.9c-0.2-0.4-0.4-0.8-0.4-1.3c0-0.8,0.3-1.4,0.8-1.9c0.5-0.5,1.2-0.7,2-0.7
		c0.8,0,1.5,0.2,2,0.7C517.1,315.6,517.4,316.3,517.4,317.1z M516.4,321.5c0-0.5-0.2-1-0.5-1.3c-0.3-0.3-0.8-0.5-1.3-0.5
		c-0.5,0-1,0.2-1.3,0.5s-0.5,0.8-0.5,1.3s0.2,1,0.5,1.3s0.8,0.5,1.3,0.5c0.6,0,1-0.2,1.3-0.5C516.2,322.4,516.4,322,516.4,321.5z
		 M514.6,315.5c-0.5,0-0.9,0.1-1.1,0.4c-0.3,0.3-0.4,0.7-0.4,1.2c0,0.5,0.1,0.9,0.4,1.2c0.3,0.3,0.7,0.4,1.2,0.4s0.9-0.1,1.2-0.4
		c0.3-0.3,0.4-0.7,0.4-1.2c0-0.5-0.1-0.9-0.4-1.2C515.4,315.6,515,315.5,514.6,315.5z"/>
</g>
<circle class="st10" cx="491.4" cy="258" r="22.4"/>
<circle class="st11" cx="147.6" cy="438.9" r="30"/>
<g class="st0">
	<path d="M124.8,491.5h-1.7l-0.5,2.7h-0.9l0.5-2.7h-1.6v-0.9h1.7l0.4-2.3h-1.7v-0.9h1.9l0.5-2.7h0.9l-0.5,2.7h1.7l0.5-2.7h0.9
		l-0.5,2.7h1.3v0.9h-1.5l-0.4,2.3h1.5v0.9h-1.6l-0.5,2.7h-0.9L124.8,491.5z M123.3,490.6h1.7l0.4-2.3h-1.7L123.3,490.6z"/>
	<path d="M133.6,484.7v1h-0.2c-0.9,0-1.7,0.3-2.2,0.8c-0.6,0.5-0.9,1.3-1,2.3c0.5-0.6,1.2-0.9,2-0.9c0.8,0,1.5,0.3,2,0.9
		s0.7,1.3,0.7,2.2c0,1-0.3,1.8-0.8,2.3s-1.2,0.9-2.1,0.9c-0.9,0-1.6-0.3-2.2-1c-0.6-0.7-0.8-1.6-0.8-2.7v-0.5c0-1.7,0.4-3.1,1.1-4
		s1.8-1.4,3.3-1.4H133.6z M132,488.9c-0.4,0-0.8,0.1-1.1,0.4c-0.3,0.2-0.6,0.6-0.7,0.9v0.4c0,0.8,0.2,1.4,0.5,1.9s0.8,0.7,1.3,0.7
		c0.5,0,1-0.2,1.3-0.6c0.3-0.4,0.5-0.9,0.5-1.6c0-0.7-0.2-1.2-0.5-1.6C132.9,489.1,132.5,488.9,132,488.9z"/>
	<path d="M142.1,487.1c0,0.5-0.1,0.9-0.4,1.3c-0.2,0.4-0.6,0.7-1,0.9c0.5,0.2,0.9,0.5,1.2,0.9s0.4,0.9,0.4,1.4c0,0.8-0.3,1.5-0.8,2
		c-0.6,0.5-1.3,0.7-2.2,0.7c-0.9,0-1.6-0.2-2.2-0.7c-0.5-0.5-0.8-1.1-0.8-2c0-0.5,0.1-1,0.4-1.4c0.3-0.4,0.7-0.7,1.2-0.9
		c-0.4-0.2-0.8-0.5-1-0.9s-0.4-0.8-0.4-1.3c0-0.8,0.3-1.4,0.8-1.9c0.5-0.5,1.2-0.7,2-0.7c0.8,0,1.5,0.2,2,0.7
		C141.8,485.7,142.1,486.3,142.1,487.1z M141.1,491.6c0-0.5-0.2-1-0.5-1.3c-0.3-0.3-0.8-0.5-1.3-0.5s-1,0.2-1.3,0.5
		s-0.5,0.8-0.5,1.3s0.2,1,0.5,1.3c0.3,0.3,0.8,0.5,1.3,0.5c0.6,0,1-0.2,1.3-0.5C140.9,492.5,141.1,492.1,141.1,491.6z M139.3,485.5
		c-0.5,0-0.9,0.1-1.1,0.4c-0.3,0.3-0.4,0.7-0.4,1.2c0,0.5,0.1,0.9,0.4,1.2c0.3,0.3,0.7,0.4,1.2,0.4s0.9-0.1,1.2-0.4
		c0.3-0.3,0.4-0.7,0.4-1.2c0-0.5-0.1-0.9-0.4-1.2C140.1,485.7,139.7,485.5,139.3,485.5z"/>
	<path d="M149.3,491.7h-4l-0.9,2.5h-1.3l3.6-9.5h1.1l3.6,9.5h-1.3L149.3,491.7z M145.8,490.6h3.2l-1.6-4.4L145.8,490.6z"/>
	<path d="M154.2,488.8h0.9c0.6,0,1-0.2,1.3-0.4c0.3-0.3,0.5-0.7,0.5-1.2c0-1.1-0.6-1.7-1.7-1.7c-0.5,0-0.9,0.1-1.2,0.4
		c-0.3,0.3-0.5,0.7-0.5,1.2h-1.2c0-0.7,0.3-1.4,0.8-1.9s1.2-0.7,2.1-0.7c0.9,0,1.6,0.2,2.1,0.7c0.5,0.5,0.8,1.1,0.8,2
		c0,0.4-0.1,0.8-0.4,1.2c-0.3,0.4-0.6,0.7-1.1,0.9c0.5,0.2,0.9,0.4,1.2,0.8c0.3,0.4,0.4,0.8,0.4,1.4c0,0.8-0.3,1.5-0.8,2
		s-1.3,0.7-2.2,0.7s-1.6-0.2-2.2-0.7c-0.6-0.5-0.8-1.1-0.8-1.9h1.2c0,0.5,0.2,0.9,0.5,1.2c0.3,0.3,0.8,0.4,1.3,0.4
		c0.6,0,1-0.2,1.3-0.5c0.3-0.3,0.5-0.7,0.5-1.3c0-0.6-0.2-1-0.5-1.3s-0.8-0.4-1.5-0.5h-0.9V488.8z"/>
	<path d="M160.3,494.1v-9.5h2.7c0.8,0,1.6,0.2,2.2,0.5c0.6,0.4,1.1,0.9,1.5,1.6c0.3,0.7,0.5,1.4,0.5,2.3v0.6c0,0.9-0.2,1.7-0.5,2.3
		c-0.3,0.7-0.8,1.2-1.5,1.5c-0.6,0.4-1.4,0.5-2.2,0.6H160.3z M161.5,485.7v7.4h1.3c1,0,1.7-0.3,2.2-0.9s0.8-1.5,0.8-2.6v-0.6
		c0-1.1-0.3-1.9-0.8-2.5s-1.2-0.9-2.1-0.9H161.5z"/>
	<path d="M174.4,487.1c0,0.5-0.1,0.9-0.4,1.3c-0.2,0.4-0.6,0.7-1,0.9c0.5,0.2,0.9,0.5,1.2,0.9s0.4,0.9,0.4,1.4c0,0.8-0.3,1.5-0.8,2
		c-0.6,0.5-1.3,0.7-2.2,0.7c-0.9,0-1.6-0.2-2.2-0.7c-0.5-0.5-0.8-1.1-0.8-2c0-0.5,0.1-1,0.4-1.4c0.3-0.4,0.7-0.7,1.2-0.9
		c-0.4-0.2-0.8-0.5-1-0.9s-0.4-0.8-0.4-1.3c0-0.8,0.3-1.4,0.8-1.9c0.5-0.5,1.2-0.7,2-0.7c0.8,0,1.5,0.2,2,0.7
		C174.2,485.7,174.4,486.3,174.4,487.1z M173.4,491.6c0-0.5-0.2-1-0.5-1.3c-0.3-0.3-0.8-0.5-1.3-0.5s-1,0.2-1.3,0.5
		s-0.5,0.8-0.5,1.3s0.2,1,0.5,1.3c0.3,0.3,0.8,0.5,1.3,0.5c0.6,0,1-0.2,1.3-0.5C173.3,492.5,173.4,492.1,173.4,491.6z M171.6,485.5
		c-0.5,0-0.9,0.1-1.1,0.4c-0.3,0.3-0.4,0.7-0.4,1.2c0,0.5,0.1,0.9,0.4,1.2c0.3,0.3,0.7,0.4,1.2,0.4s0.9-0.1,1.2-0.4
		c0.3-0.3,0.4-0.7,0.4-1.2c0-0.5-0.1-0.9-0.4-1.2C172.5,485.7,172.1,485.5,171.6,485.5z"/>
</g>
<circle class="st12" cx="262.1" cy="438.9" r="30"/>
<g class="st0">
	<path d="M239.7,491.5h-1.7l-0.5,2.7h-0.9l0.5-2.7h-1.6v-0.9h1.7l0.4-2.3H236v-0.9h1.9l0.5-2.7h0.9l-0.5,2.7h1.7l0.5-2.7h0.9
		l-0.5,2.7h1.3v0.9h-1.5l-0.4,2.3h1.5v0.9h-1.6l-0.5,2.7h-0.9L239.7,491.5z M238.1,490.6h1.7l0.4-2.3h-1.7L238.1,490.6z"/>
	<path d="M249.6,490.1c0,1.4-0.2,2.5-0.7,3.1s-1.2,1-2.3,1c-1,0-1.8-0.3-2.2-1c-0.5-0.7-0.7-1.7-0.8-3v-1.6c0-1.4,0.2-2.4,0.7-3.1
		s1.2-1,2.3-1c1,0,1.8,0.3,2.2,1c0.5,0.7,0.7,1.7,0.7,3V490.1z M248.4,488.5c0-1-0.1-1.8-0.4-2.2c-0.3-0.5-0.7-0.7-1.4-0.7
		c-0.6,0-1.1,0.2-1.3,0.7c-0.3,0.5-0.4,1.2-0.4,2.1v1.9c0,1,0.1,1.8,0.4,2.3c0.3,0.5,0.7,0.7,1.3,0.7c0.6,0,1-0.2,1.3-0.7
		c0.3-0.5,0.4-1.2,0.5-2.2V488.5z"/>
	<path d="M252.9,488.8h0.9c0.6,0,1-0.2,1.3-0.4c0.3-0.3,0.5-0.7,0.5-1.2c0-1.1-0.6-1.7-1.7-1.7c-0.5,0-0.9,0.1-1.2,0.4
		c-0.3,0.3-0.5,0.7-0.5,1.2h-1.2c0-0.7,0.3-1.4,0.8-1.9s1.2-0.7,2.1-0.7c0.9,0,1.6,0.2,2.1,0.7c0.5,0.5,0.8,1.1,0.8,2
		c0,0.4-0.1,0.8-0.4,1.2c-0.3,0.4-0.6,0.7-1.1,0.9c0.5,0.2,0.9,0.4,1.2,0.8c0.3,0.4,0.4,0.8,0.4,1.4c0,0.8-0.3,1.5-0.8,2
		s-1.3,0.7-2.2,0.7s-1.6-0.2-2.2-0.7c-0.6-0.5-0.8-1.1-0.8-1.9h1.2c0,0.5,0.2,0.9,0.5,1.2c0.3,0.3,0.8,0.4,1.3,0.4
		c0.6,0,1-0.2,1.3-0.5c0.3-0.3,0.5-0.7,0.5-1.3c0-0.6-0.2-1-0.5-1.3s-0.8-0.4-1.5-0.5h-0.9V488.8z"/>
	<path d="M264.6,490.1c0,1.4-0.2,2.5-0.7,3.1c-0.5,0.7-1.2,1-2.3,1c-1,0-1.8-0.3-2.2-1c-0.5-0.7-0.7-1.7-0.8-3v-1.6
		c0-1.4,0.2-2.4,0.7-3.1s1.2-1,2.3-1c1,0,1.8,0.3,2.2,1c0.5,0.7,0.7,1.7,0.7,3V490.1z M263.4,488.5c0-1-0.1-1.8-0.4-2.2
		s-0.7-0.7-1.4-0.7c-0.6,0-1.1,0.2-1.3,0.7c-0.3,0.5-0.4,1.2-0.4,2.1v1.9c0,1,0.1,1.8,0.4,2.3c0.3,0.5,0.7,0.7,1.3,0.7
		c0.6,0,1-0.2,1.3-0.7c0.3-0.5,0.4-1.2,0.5-2.2V488.5z"/>
	<path d="M267.8,488.8h0.9c0.6,0,1-0.2,1.3-0.4c0.3-0.3,0.5-0.7,0.5-1.2c0-1.1-0.6-1.7-1.7-1.7c-0.5,0-0.9,0.1-1.2,0.4
		c-0.3,0.3-0.5,0.7-0.5,1.2H266c0-0.7,0.3-1.4,0.8-1.9c0.5-0.5,1.2-0.7,2.1-0.7c0.9,0,1.6,0.2,2.1,0.7c0.5,0.5,0.8,1.1,0.8,2
		c0,0.4-0.1,0.8-0.4,1.2c-0.3,0.4-0.6,0.7-1.1,0.9c0.5,0.2,0.9,0.4,1.2,0.8c0.3,0.4,0.4,0.8,0.4,1.4c0,0.8-0.3,1.5-0.8,2
		s-1.3,0.7-2.2,0.7s-1.6-0.2-2.2-0.7c-0.6-0.5-0.8-1.1-0.8-1.9h1.2c0,0.5,0.2,0.9,0.5,1.2s0.8,0.4,1.3,0.4c0.6,0,1-0.2,1.3-0.5
		c0.3-0.3,0.5-0.7,0.5-1.3c0-0.6-0.2-1-0.5-1.3s-0.8-0.4-1.5-0.5h-0.9V488.8z"/>
	<path d="M278.3,484.7v1h-0.2c-0.9,0-1.7,0.3-2.2,0.8c-0.6,0.5-0.9,1.3-1,2.3c0.5-0.6,1.2-0.9,2-0.9c0.8,0,1.5,0.3,2,0.9
		s0.7,1.3,0.7,2.2c0,1-0.3,1.8-0.8,2.3s-1.2,0.9-2.1,0.9c-0.9,0-1.6-0.3-2.2-1c-0.6-0.7-0.8-1.6-0.8-2.7v-0.5c0-1.7,0.4-3.1,1.1-4
		s1.8-1.4,3.3-1.4H278.3z M276.7,488.9c-0.4,0-0.8,0.1-1.1,0.4c-0.3,0.2-0.6,0.6-0.7,0.9v0.4c0,0.8,0.2,1.4,0.5,1.9
		c0.4,0.5,0.8,0.7,1.3,0.7c0.5,0,1-0.2,1.3-0.6c0.3-0.4,0.5-0.9,0.5-1.6c0-0.7-0.2-1.2-0.5-1.6C277.6,489.1,277.2,488.9,276.7,488.9
		z"/>
	<path d="M281.4,494.1v-9.5h2.7c0.8,0,1.6,0.2,2.2,0.5s1.1,0.9,1.5,1.6c0.3,0.7,0.5,1.4,0.5,2.3v0.6c0,0.9-0.2,1.7-0.5,2.3
		c-0.3,0.7-0.8,1.2-1.5,1.5c-0.6,0.4-1.4,0.5-2.2,0.6H281.4z M282.6,485.7v7.4h1.3c1,0,1.7-0.3,2.2-0.9s0.8-1.5,0.8-2.6v-0.6
		c0-1.1-0.3-1.9-0.8-2.5c-0.5-0.6-1.2-0.9-2.1-0.9H282.6z"/>
</g>
<circle cx="376.6" cy="438.9" r="30"/>
<g class="st0">
	<path d="M355.1,491.5h-1.7l-0.5,2.7h-0.9l0.5-2.7h-1.6v-0.9h1.7l0.4-2.3h-1.7v-0.9h1.9l0.5-2.7h0.9l-0.5,2.7h1.7l0.5-2.7h0.9
		l-0.5,2.7h1.3v0.9h-1.5l-0.4,2.3h1.5v0.9H356l-0.5,2.7h-0.9L355.1,491.5z M353.5,490.6h1.7l0.4-2.3H354L353.5,490.6z"/>
	<path d="M365,490.1c0,1.4-0.2,2.5-0.7,3.1c-0.5,0.7-1.2,1-2.3,1c-1,0-1.8-0.3-2.2-1c-0.5-0.7-0.7-1.7-0.8-3v-1.6
		c0-1.4,0.2-2.4,0.7-3.1c0.5-0.7,1.2-1,2.3-1c1,0,1.8,0.3,2.2,1c0.5,0.7,0.7,1.7,0.7,3V490.1z M363.8,488.5c0-1-0.1-1.8-0.4-2.2
		c-0.3-0.5-0.7-0.7-1.4-0.7c-0.6,0-1.1,0.2-1.3,0.7c-0.3,0.5-0.4,1.2-0.4,2.1v1.9c0,1,0.1,1.8,0.4,2.3c0.3,0.5,0.7,0.7,1.3,0.7
		c0.6,0,1-0.2,1.3-0.7c0.3-0.5,0.4-1.2,0.5-2.2V488.5z"/>
	<path d="M372.5,490.1c0,1.4-0.2,2.5-0.7,3.1c-0.5,0.7-1.2,1-2.3,1c-1,0-1.8-0.3-2.2-1c-0.5-0.7-0.7-1.7-0.8-3v-1.6
		c0-1.4,0.2-2.4,0.7-3.1c0.5-0.7,1.2-1,2.3-1c1,0,1.8,0.3,2.2,1c0.5,0.7,0.7,1.7,0.7,3V490.1z M371.3,488.5c0-1-0.1-1.8-0.4-2.2
		s-0.7-0.7-1.4-0.7c-0.6,0-1.1,0.2-1.3,0.7c-0.3,0.5-0.4,1.2-0.4,2.1v1.9c0,1,0.1,1.8,0.4,2.3c0.3,0.5,0.7,0.7,1.3,0.7
		c0.6,0,1-0.2,1.3-0.7c0.3-0.5,0.4-1.2,0.5-2.2V488.5z"/>
	<path d="M380,490.1c0,1.4-0.2,2.5-0.7,3.1c-0.5,0.7-1.2,1-2.3,1c-1,0-1.8-0.3-2.2-1c-0.5-0.7-0.7-1.7-0.8-3v-1.6
		c0-1.4,0.2-2.4,0.7-3.1c0.5-0.7,1.2-1,2.3-1c1,0,1.8,0.3,2.2,1c0.5,0.7,0.7,1.7,0.7,3V490.1z M378.8,488.5c0-1-0.1-1.8-0.4-2.2
		c-0.3-0.5-0.7-0.7-1.4-0.7c-0.6,0-1.1,0.2-1.3,0.7c-0.3,0.5-0.4,1.2-0.4,2.1v1.9c0,1,0.1,1.8,0.4,2.3c0.3,0.5,0.7,0.7,1.3,0.7
		c0.6,0,1-0.2,1.3-0.7c0.3-0.5,0.4-1.2,0.5-2.2V488.5z"/>
	<path d="M387.4,490.1c0,1.4-0.2,2.5-0.7,3.1c-0.5,0.7-1.2,1-2.3,1c-1,0-1.8-0.3-2.2-1c-0.5-0.7-0.7-1.7-0.8-3v-1.6
		c0-1.4,0.2-2.4,0.7-3.1c0.5-0.7,1.2-1,2.3-1c1,0,1.8,0.3,2.2,1c0.5,0.7,0.7,1.7,0.7,3V490.1z M386.2,488.5c0-1-0.1-1.8-0.4-2.2
		c-0.3-0.5-0.7-0.7-1.4-0.7c-0.6,0-1.1,0.2-1.3,0.7c-0.3,0.5-0.4,1.2-0.4,2.1v1.9c0,1,0.1,1.8,0.4,2.3c0.3,0.5,0.7,0.7,1.3,0.7
		c0.6,0,1-0.2,1.3-0.7c0.3-0.5,0.4-1.2,0.5-2.2V488.5z"/>
	<path d="M394.9,490.1c0,1.4-0.2,2.5-0.7,3.1c-0.5,0.7-1.2,1-2.3,1c-1,0-1.8-0.3-2.2-1c-0.5-0.7-0.7-1.7-0.8-3v-1.6
		c0-1.4,0.2-2.4,0.7-3.1c0.5-0.7,1.2-1,2.3-1c1,0,1.8,0.3,2.2,1c0.5,0.7,0.7,1.7,0.7,3V490.1z M393.7,488.5c0-1-0.1-1.8-0.4-2.2
		s-0.7-0.7-1.4-0.7c-0.6,0-1.1,0.2-1.3,0.7c-0.3,0.5-0.4,1.2-0.4,2.1v1.9c0,1,0.1,1.8,0.4,2.3c0.3,0.5,0.7,0.7,1.3,0.7
		c0.6,0,1-0.2,1.3-0.7c0.3-0.5,0.4-1.2,0.5-2.2V488.5z"/>
	<path d="M402.4,490.1c0,1.4-0.2,2.5-0.7,3.1c-0.5,0.7-1.2,1-2.3,1c-1,0-1.8-0.3-2.2-1c-0.5-0.7-0.7-1.7-0.8-3v-1.6
		c0-1.4,0.2-2.4,0.7-3.1c0.5-0.7,1.2-1,2.3-1c1,0,1.8,0.3,2.2,1c0.5,0.7,0.7,1.7,0.7,3V490.1z M401.2,488.5c0-1-0.1-1.8-0.4-2.2
		c-0.3-0.5-0.7-0.7-1.4-0.7c-0.6,0-1.1,0.2-1.3,0.7c-0.3,0.5-0.4,1.2-0.4,2.1v1.9c0,1,0.1,1.8,0.4,2.3c0.3,0.5,0.7,0.7,1.3,0.7
		c0.6,0,1-0.2,1.3-0.7c0.3-0.5,0.4-1.2,0.5-2.2V488.5z"/>
</g>
<g class="st0">
	<path d="M254.9,68.6c0-0.5-0.2-0.8-0.5-1.1c-0.3-0.2-0.9-0.5-1.8-0.8c-0.8-0.3-1.5-0.5-2-0.8c-1.3-0.7-2-1.7-2-2.9
		c0-0.6,0.2-1.2,0.5-1.7s0.9-0.9,1.6-1.2c0.7-0.3,1.4-0.4,2.3-0.4c0.8,0,1.6,0.2,2.3,0.5s1.2,0.7,1.5,1.3s0.5,1.2,0.5,1.9h-2.4
		c0-0.5-0.2-1-0.5-1.3c-0.3-0.3-0.8-0.5-1.4-0.5c-0.6,0-1.1,0.1-1.4,0.4c-0.3,0.3-0.5,0.6-0.5,1c0,0.4,0.2,0.7,0.6,1s1,0.5,1.7,0.7
		c1.4,0.4,2.4,0.9,3,1.6c0.6,0.6,1,1.4,1,2.3c0,1-0.4,1.8-1.2,2.4c-0.8,0.6-1.8,0.9-3.1,0.9c-0.9,0-1.7-0.2-2.5-0.5
		c-0.7-0.3-1.3-0.8-1.7-1.4s-0.6-1.3-0.6-2h2.4c0,1.3,0.8,2,2.3,2c0.6,0,1-0.1,1.4-0.4C254.7,69.4,254.9,69.1,254.9,68.6z"/>
	<path d="M264.1,70.8c-0.6,0.7-1.4,1.1-2.4,1.1c-0.9,0-1.7-0.3-2.2-0.8c-0.5-0.5-0.7-1.3-0.8-2.4V63h2.3v5.7c0,0.9,0.4,1.4,1.3,1.4
		c0.8,0,1.3-0.3,1.6-0.8V63h2.4v8.8h-2.2L264.1,70.8z"/>
	<path d="M270.3,63l0.1,1c0.6-0.8,1.5-1.2,2.5-1.2c0.9,0,1.6,0.3,2.1,0.8c0.5,0.5,0.7,1.4,0.7,2.5v5.7h-2.3v-5.6
		c0-0.5-0.1-0.9-0.3-1.1c-0.2-0.2-0.6-0.3-1.1-0.3c-0.7,0-1.2,0.3-1.5,0.8v6.2h-2.3V63H270.3z"/>
</g>
<g class="st0">
	<path d="M239.5,87.4h-1.7l-0.5,2.7h-0.9l0.5-2.7h-1.6v-0.9h1.7l0.4-2.3h-1.7v-0.9h1.9l0.5-2.7h0.9l-0.5,2.7h1.7l0.5-2.7h0.9
		l-0.5,2.7h1.3v0.9H241l-0.4,2.3h1.5v0.9h-1.6l-0.5,2.7h-0.9L239.5,87.4z M237.9,86.5h1.7l0.4-2.3h-1.7L237.9,86.5z"/>
	<path d="M249,85.9h-4V90h-1.2v-9.5h5.9v1H245v3.2h4V85.9z"/>
	<path d="M258.1,87c-0.1,1-0.5,1.8-1.1,2.3c-0.6,0.5-1.4,0.8-2.5,0.8c-1.1,0-2-0.4-2.7-1.2s-1-1.9-1-3.2v-0.9c0-0.9,0.2-1.7,0.5-2.3
		s0.8-1.2,1.3-1.5s1.2-0.5,2-0.5c1,0,1.8,0.3,2.4,0.8c0.6,0.6,1,1.3,1.1,2.3h-1.3c-0.1-0.8-0.3-1.3-0.7-1.6s-0.9-0.5-1.5-0.5
		c-0.8,0-1.4,0.3-1.9,0.9s-0.7,1.4-0.7,2.5v0.9c0,1,0.2,1.8,0.6,2.5c0.4,0.6,1,0.9,1.8,0.9c0.7,0,1.2-0.2,1.6-0.5
		c0.4-0.3,0.6-0.9,0.7-1.6H258.1z"/>
	<path d="M265,85.9h-4V90h-1.2v-9.5h5.9v1h-4.6v3.2h4V85.9z"/>
	<path d="M267.2,90v-9.5h2.7c0.8,0,1.6,0.2,2.2,0.5c0.6,0.4,1.1,0.9,1.5,1.6c0.3,0.7,0.5,1.4,0.5,2.3v0.6c0,0.9-0.2,1.7-0.5,2.3
		c-0.3,0.7-0.8,1.2-1.5,1.5c-0.6,0.4-1.4,0.5-2.2,0.6H267.2z M268.4,81.6V89h1.3c1,0,1.7-0.3,2.2-0.9s0.8-1.5,0.8-2.6V85
		c0-1.1-0.3-1.9-0.8-2.5s-1.2-0.9-2.1-0.9H268.4z"/>
	<path d="M281.7,81.3l-3.9,8.8h-1.3l3.9-8.5h-5.1v-1h6.4V81.3z"/>
	<path d="M283.6,85.3l0.5-4.7h4.8v1.1h-3.8l-0.3,2.6c0.5-0.3,1-0.4,1.6-0.4c0.9,0,1.5,0.3,2.1,0.9s0.8,1.3,0.8,2.3
		c0,1-0.3,1.7-0.8,2.3c-0.5,0.6-1.3,0.8-2.2,0.8c-0.8,0-1.5-0.2-2-0.7c-0.5-0.5-0.8-1.1-0.9-1.9h1.1c0.1,0.5,0.3,1,0.6,1.2
		c0.3,0.3,0.7,0.4,1.2,0.4c0.6,0,1-0.2,1.3-0.6c0.3-0.4,0.5-0.9,0.5-1.6c0-0.6-0.2-1.1-0.5-1.5c-0.3-0.4-0.8-0.6-1.4-0.6
		c-0.5,0-0.9,0.1-1.2,0.3l-0.3,0.3L283.6,85.3z"/>
</g>
<circle class="st13" cx="262.1" cy="24.4" r="22.4"/>
<line class="st14" x1="346.7" y1="375.2" x2="406.6" y2="375.2"/>
<line class="st14" x1="117.3" y1="375.2" x2="177.2" y2="375.2"/>
</svg>
