<?xml version="1.0" encoding="utf-8"?>
<!-- Generator: Adobe Illustrator 24.0.3, SVG Export Plug-In . SVG Version: 6.00 Build 0)  -->
<svg version="1.1" id="Layer_1" xmlns="http://www.w3.org/2000/svg" xmlns:xlink="http://www.w3.org/1999/xlink" x="0px" y="0px"
	 viewBox="0 0 302.8 318.8" style="enable-background:new 0 0 302.8 318.8;" xml:space="preserve">
<style type="text/css">
	.st0{fill:none;}
	.st1{enable-background:new    ;}
</style>
<rect x="23.7" y="214.9" class="st0" width="255.5" height="49.2"/>
<g class="st1">
	<path d="M30.6,252.2c1,1.8,2.4,3.1,4,4c1.7,0.9,3.5,1.3,5.6,1.3c1.3,0,2.5-0.2,3.7-0.6c1.2-0.4,2.2-1,3-1.7c0.9-0.7,1.5-1.6,2-2.6
		c0.5-1,0.7-2.2,0.7-3.4c0-1.5-0.3-2.7-0.9-3.6c-0.6-1-1.4-1.7-2.5-2.4c-1-0.6-2.2-1.1-3.5-1.6c-1.3-0.4-2.6-0.9-4-1.3
		c-1.4-0.4-2.7-0.9-4-1.5c-1.3-0.6-2.5-1.3-3.5-2.2c-1-0.9-1.9-2-2.5-3.4c-0.6-1.4-0.9-3-0.9-5c0-1.9,0.4-3.5,1.1-5
		c0.7-1.5,1.7-2.7,3-3.6c1.3-1,2.7-1.7,4.3-2.2c1.6-0.5,3.3-0.7,5.1-0.7c2.3,0,4.4,0.4,6.4,1.2s3.7,2.2,5.1,4.1l-3.4,2.4
		c-1-1.4-2.2-2.4-3.5-3.1c-1.3-0.7-2.9-1-4.7-1c-1.3,0-2.5,0.2-3.6,0.5c-1.2,0.3-2.2,0.8-3,1.5c-0.9,0.7-1.5,1.5-2.1,2.5
		c-0.5,1-0.8,2.2-0.8,3.5c0,2.1,0.5,3.7,1.6,4.9s2.4,2,4,2.7s3.4,1.2,5.3,1.7c1.9,0.5,3.6,1.2,5.3,2c1.6,0.8,3,2,4,3.5
		c1.1,1.5,1.6,3.6,1.6,6.2c0,1.9-0.4,3.6-1.1,5.1c-0.7,1.5-1.7,2.7-2.9,3.7c-1.2,1-2.6,1.8-4.2,2.3c-1.6,0.5-3.2,0.8-5,0.8
		c-2.8,0-5.4-0.5-7.7-1.5c-2.3-1-4.4-2.6-6-4.9L30.6,252.2z"/>
	<path d="M60.1,246.2c0-2.1,0.4-4,1.1-5.8s1.7-3.3,3-4.6c1.3-1.3,2.8-2.3,4.6-3c1.8-0.7,3.7-1.1,5.8-1.1c2.1,0,4,0.4,5.8,1.1
		c1.8,0.7,3.3,1.7,4.6,3c1.3,1.3,2.3,2.8,3,4.6s1.1,3.7,1.1,5.8c0,2.1-0.4,4-1.1,5.8s-1.7,3.3-3,4.6c-1.3,1.3-2.8,2.3-4.6,3
		c-1.8,0.7-3.7,1.1-5.8,1.1c-2.1,0-4.1-0.4-5.8-1.1c-1.8-0.7-3.3-1.7-4.6-3c-1.3-1.3-2.3-2.8-3-4.6S60.1,248.3,60.1,246.2z
		 M63.6,246.2c0,1.6,0.2,3,0.7,4.4c0.5,1.4,1.2,2.6,2.2,3.6c1,1,2.1,1.8,3.5,2.4c1.4,0.6,2.9,0.9,4.5,0.9c1.7,0,3.2-0.3,4.5-0.9
		c1.4-0.6,2.5-1.4,3.5-2.4c1-1,1.7-2.2,2.2-3.6c0.5-1.4,0.7-2.8,0.7-4.4s-0.2-3-0.7-4.4c-0.5-1.4-1.2-2.6-2.2-3.6
		c-1-1-2.1-1.8-3.5-2.4c-1.4-0.6-2.9-0.9-4.5-0.9c-1.7,0-3.2,0.3-4.5,0.9c-1.4,0.6-2.5,1.4-3.5,2.4c-1,1-1.7,2.2-2.2,3.6
		C63.9,243.2,63.6,244.7,63.6,246.2z"/>
	<path d="M95.5,246.2c0-2.1,0.4-4,1.1-5.8s1.7-3.3,3-4.6c1.3-1.3,2.8-2.3,4.6-3c1.8-0.7,3.7-1.1,5.8-1.1c2.1,0,4,0.4,5.8,1.1
		c1.8,0.7,3.3,1.7,4.6,3c1.3,1.3,2.3,2.8,3,4.6s1.1,3.7,1.1,5.8c0,2.1-0.4,4-1.1,5.8s-1.7,3.3-3,4.6c-1.3,1.3-2.8,2.3-4.6,3
		c-1.8,0.7-3.7,1.1-5.8,1.1c-2.1,0-4.1-0.4-5.8-1.1c-1.8-0.7-3.3-1.7-4.6-3c-1.3-1.3-2.3-2.8-3-4.6S95.5,248.3,95.5,246.2z
		 M99.1,246.2c0,1.6,0.2,3,0.7,4.4c0.5,1.4,1.2,2.6,2.2,3.6c1,1,2.1,1.8,3.5,2.4c1.4,0.6,2.9,0.9,4.5,0.9c1.7,0,3.2-0.3,4.5-0.9
		c1.4-0.6,2.5-1.4,3.5-2.4c1-1,1.7-2.2,2.2-3.6c0.5-1.4,0.7-2.8,0.7-4.4s-0.2-3-0.7-4.4c-0.5-1.4-1.2-2.6-2.2-3.6
		c-1-1-2.1-1.8-3.5-2.4c-1.4-0.6-2.9-0.9-4.5-0.9c-1.7,0-3.2,0.3-4.5,0.9c-1.4,0.6-2.5,1.4-3.5,2.4c-1,1-1.7,2.2-2.2,3.6
		C99.3,243.2,99.1,244.7,99.1,246.2z"/>
	<path d="M146,235.6h-7.9v18c0,1.2,0.3,2.2,1,2.9c0.7,0.7,1.6,1,2.8,1c0.7,0,1.4-0.1,2.1-0.3c0.7-0.2,1.4-0.4,2-0.7l0.3,3.2
		c-0.7,0.2-1.5,0.5-2.3,0.7c-0.9,0.2-1.7,0.3-2.3,0.3c-1.3,0-2.4-0.2-3.3-0.6c-0.9-0.4-1.7-0.9-2.2-1.5c-0.6-0.6-1-1.4-1.2-2.2
		c-0.3-0.9-0.4-1.8-0.4-2.8v-18h-6v-3.2h6v-7.9h3.6v7.9h7.9V235.6z"/>
	<path d="M152.4,214.9h3.6v22.4h0.1c0.7-1.5,1.9-2.8,3.6-3.9s3.6-1.6,5.8-1.6c2.1,0,3.9,0.3,5.3,1c1.4,0.7,2.4,1.6,3.2,2.7
		c0.8,1.1,1.3,2.4,1.6,3.8c0.3,1.4,0.4,2.9,0.4,4.4V260h-3.6v-16.2c0-1.1-0.1-2.2-0.3-3.3c-0.2-1.1-0.5-2-1-2.8
		c-0.5-0.8-1.2-1.5-2.1-2c-0.9-0.5-2.1-0.7-3.5-0.7c-1.3,0-2.6,0.2-3.7,0.7c-1.2,0.5-2.2,1.2-3,2.1c-0.9,0.9-1.5,2.1-2,3.5
		c-0.5,1.4-0.7,3.1-0.7,5V260h-3.6V214.9z"/>
	<path d="M210,254.8c-1.4,2.1-3.1,3.6-5.2,4.5c-2,0.9-4.3,1.4-6.8,1.4c-2.1,0-4-0.4-5.7-1.1c-1.7-0.7-3.2-1.7-4.4-3
		c-1.2-1.3-2.2-2.8-2.8-4.6c-0.7-1.8-1-3.7-1-5.9c0-2.1,0.3-4,1-5.7c0.7-1.8,1.6-3.3,2.9-4.6c1.2-1.3,2.7-2.3,4.4-3s3.5-1.1,5.5-1.1
		c2.1,0,4,0.4,5.6,1.1s3,1.7,4.1,2.9c1.1,1.2,1.9,2.6,2.5,4.1c0.6,1.6,0.8,3.1,0.8,4.7v2.5h-23.2c0,0.8,0.1,1.7,0.4,2.9
		c0.3,1.2,0.8,2.3,1.6,3.4c0.8,1.1,1.9,2.1,3.2,2.9c1.3,0.8,3.1,1.2,5.2,1.2c1.8,0,3.6-0.4,5.3-1.3c1.7-0.9,3-2.1,3.9-3.6L210,254.8
		z M207.2,243.9c0-1.2-0.2-2.4-0.7-3.5c-0.5-1.1-1.2-2-2-2.8c-0.9-0.8-1.9-1.5-3-1.9s-2.4-0.7-3.7-0.7c-2,0-3.6,0.4-4.9,1.2
		c-1.3,0.8-2.3,1.7-3.1,2.7c-0.8,1-1.3,2-1.6,3c-0.3,1-0.5,1.6-0.5,2H207.2z"/>
	<path d="M215.6,257.8l16.5-22.2h-15.7v-3.2h20.6v2.1l-16.5,22.2h17.2v3.2h-22.2V257.8z"/>
	<path d="M268.6,254.8c-1.4,2.1-3.1,3.6-5.2,4.5c-2,0.9-4.3,1.4-6.8,1.4c-2.1,0-4-0.4-5.7-1.1c-1.7-0.7-3.2-1.7-4.4-3
		c-1.2-1.3-2.2-2.8-2.8-4.6s-1-3.7-1-5.9c0-2.1,0.3-4,1-5.7c0.7-1.8,1.6-3.3,2.9-4.6c1.2-1.3,2.7-2.3,4.4-3s3.5-1.1,5.6-1.1
		c2.1,0,4,0.4,5.6,1.1s3,1.7,4.1,2.9c1.1,1.2,1.9,2.6,2.5,4.1c0.6,1.6,0.8,3.1,0.8,4.7v2.5h-23.2c0,0.8,0.1,1.7,0.4,2.9
		c0.3,1.2,0.8,2.3,1.6,3.4c0.8,1.1,1.9,2.1,3.2,2.9c1.3,0.8,3.1,1.2,5.2,1.2c1.8,0,3.6-0.4,5.3-1.3c1.7-0.9,3-2.1,3.9-3.6
		L268.6,254.8z M265.8,243.9c0-1.2-0.2-2.4-0.7-3.5c-0.5-1.1-1.2-2-2-2.8c-0.9-0.8-1.9-1.5-3-1.9c-1.2-0.5-2.4-0.7-3.7-0.7
		c-1.9,0-3.6,0.4-4.9,1.2c-1.3,0.8-2.3,1.7-3.1,2.7c-0.8,1-1.3,2-1.6,3s-0.5,1.6-0.5,2H265.8z"/>
</g>
<rect x="26.9" y="278.1" class="st0" width="249.1" height="14.6"/>
<g class="st1">
	<path d="M31.4,279.2c-2.7,0-3.1,0.4-3.4,1.7l-0.2,0.7h-0.6l0.3-3.5h13.6l0.3,3.5h-0.6l-0.2-0.7c-0.3-1.2-0.7-1.7-3.4-1.7h-1.7v7.4
		c0,2.6,0.3,3.1,2.4,3.1v0.7h-7.4v-0.7c2,0,2.4-0.5,2.4-3.1v-7.4H31.4z"/>
	<path d="M48.3,286.6c0,2.6,0.3,3.1,2.4,3.1v0.7h-7.4v-0.7c2.1,0,2.4-0.5,2.4-3.1v-4.7c0-2.6-0.3-3.1-2.4-3.1v-0.7h7.4v0.7
		c-2.1,0-2.4,0.4-2.4,3.1v1.4h6.5v-1.4c0-2.6-0.4-3.1-2.4-3.1v-0.7h7.3v0.7c-2.1,0-2.4,0.4-2.4,3.1v4.7c0,2.6,0.3,3.1,2.4,3.1v0.7
		h-7.3v-0.7c2,0,2.4-0.5,2.4-3.1v-2.1h-6.5V286.6z"/>
	<path d="M74.1,281.6h-0.6l-0.2-0.7c-0.3-1.2-0.7-1.7-3.4-1.7h-2v4.1c2.9,0,3.1-0.3,3.1-2.2h0.7v5.5H71c0-1.9-0.2-2.2-3.1-2.2v1.7
		c0,2.6,0.3,3.1,2.3,3.1h0.5c2.6,0,3-0.4,3.4-1.7l0.2-0.7h0.6l-0.2,3.5H63v-0.7c2.1,0,2.4-0.5,2.4-3.1v-4.7c0-2.6-0.3-3.1-2.4-3.1
		v-0.7h10.9L74.1,281.6z"/>
	<path d="M83,285.3v1.3c0,2.6,0.3,3.1,2.4,3.1v0.7h-7.4v-0.7c2.1,0,2.4-0.5,2.4-3.1v-4.7c0-2.6-0.3-3.1-2.4-3.1v-0.7h6.5
		c3.3,0,5,1.6,5,3.6c0,1.6-1.2,3.1-3.5,3.5l1.7,1.8c1.5,1.6,2.6,2.5,4.1,2.7v0.7h-4.1l-4.1-5.1H83z M84.6,279.2H83v4.9h1.5
		c1.7,0,2.4-1.1,2.4-2.4C87,280.4,86.2,279.2,84.6,279.2z"/>
	<path d="M96.6,287.7c-0.7,1.5-0.7,2.1,1.6,2.1v0.7h-5.9v-0.7c1.9,0,2.2-0.5,3.1-2.5l4.5-9.6h0.7l4.5,9.6c0.9,2,1.3,2.5,3,2.5v0.7
		h-7.1v-0.7c2.1,0,2.3-0.6,1.6-2.1l-0.6-1.2h-4.8L96.6,287.7z M99.6,281.4l-1.9,4h3.7L99.6,281.4z"/>
	<path d="M117.3,289.7v0.7H110v-0.7c2.1,0,2.4-0.5,2.4-3.1v-4.7c0-2.6-0.3-3.1-2.4-3.1v-0.7h6.5c3.3,0,5,1.6,5,3.6
		c0,2-1.7,3.6-5,3.6h-1.5v1.3C114.9,289.3,115.3,289.7,117.3,289.7z M116.4,279.2h-1.5v4.9h1.5c1.6,0,2.4-1.1,2.4-2.4
		C118.8,280.4,118.1,279.2,116.4,279.2z"/>
	<path d="M134.2,281.3l-3,4v1.3c0,2.6,0.3,3.1,2.4,3.1v0.7h-7.3v-0.7c2,0,2.4-0.5,2.4-3.1v-1.2l-3-4.1c-1.4-1.9-2-2.5-3.6-2.5v-0.7
		h7.1v0.7c-1.9,0-2,0.6-0.9,2l2.3,3.1l2.3-3.1c1.1-1.5,1-2-0.9-2v-0.7h5.9v0.7C136.2,278.8,135.6,279.4,134.2,281.3z"/>
	<path d="M155.1,289.7v0.7h-7.4v-0.7c2.1,0,2.4-0.5,2.4-3.1v-4.7c0-2.6-0.3-3.1-2.4-3.1v-0.7h6.5c3.3,0,5,1.6,5,3.6
		c0,2-1.7,3.6-5,3.6h-1.5v1.3C152.7,289.3,153.1,289.7,155.1,289.7z M154.3,279.2h-1.5v4.9h1.5c1.6,0,2.4-1.1,2.4-2.4
		C156.6,280.4,155.9,279.2,154.3,279.2z"/>
	<path d="M166.9,285.3v1.3c0,2.6,0.3,3.1,2.4,3.1v0.7H162v-0.7c2.1,0,2.4-0.5,2.4-3.1v-4.7c0-2.6-0.3-3.1-2.4-3.1v-0.7h6.5
		c3.3,0,5,1.6,5,3.6c0,1.6-1.2,3.1-3.5,3.5l1.7,1.8c1.5,1.6,2.6,2.5,4.1,2.7v0.7h-4.1l-4.1-5.1H166.9z M168.4,279.2h-1.5v4.9h1.5
		c1.7,0,2.4-1.1,2.4-2.4C170.8,280.4,170.1,279.2,168.4,279.2z"/>
	<path d="M185.1,290.9c-4.1,0-7.4-3-7.4-6.7c0-3.6,3.3-6.6,7.4-6.6s7.4,3,7.4,6.6C192.5,287.9,189.1,290.9,185.1,290.9z
		 M185.1,278.8c-3.4,0-4.6,3.1-4.6,5.5c0,2.4,1.2,5.5,4.6,5.5c3.4,0,4.6-3,4.6-5.5C189.7,281.9,188.5,278.8,185.1,278.8z"/>
	<path d="M195.9,289.7c2.1,0,2.4-0.5,2.4-3.1v-4.7c0-2.6-0.3-3.1-2.4-3.1v-0.7h6.6c5.3,0,7.6,2.8,7.6,6.1s-2.3,6.2-7.6,6.2h-6.6
		V289.7z M202.6,279.2c-0.1,0-1.8,0-1.8,0v8c0,1.7,0.2,2,1.5,2h0.3c3.8,0,4.6-2.8,4.6-5.1C207.2,282,206.5,279.2,202.6,279.2z"/>
	<path d="M226.4,281.9v3.6c0,3.5-2.3,5.4-5.4,5.4s-5.6-1.9-5.6-5.4v-3.6c0-2.6-0.3-3.1-2.4-3.1v-0.7h7.3v0.7c-2,0-2.4,0.4-2.4,3.1
		v3.8c0,2.4,1.5,3.6,3.5,3.6s3.6-1.2,3.6-3.6v-3.8c0-2.6-0.3-3.1-2.4-3.1v-0.7h6.2v0.7C226.7,278.8,226.4,279.3,226.4,281.9z"/>
	<path d="M242.9,290.4c-0.1-0.5-0.3-1-0.4-1.3c-1,1-2.6,1.8-4,1.8c-3.9,0-7-3-7-6.7c0-3.6,3.1-6.6,7-6.6c1.4,0,3,0.7,4,1.7
		c0.2-0.3,0.3-0.8,0.5-1.3h0.7v5.1h-0.7c-0.6-2.7-2.1-4.4-4.4-4.4c-3.3,0-4.2,3.1-4.2,5.5s0.9,5.5,4.2,5.5c2.3,0,3.8-1.7,4.4-4.4
		h0.7v5.1H242.9z"/>
	<path d="M250.4,279.2c-2.7,0-3.1,0.4-3.4,1.7l-0.2,0.7h-0.6l0.3-3.5h13.6l0.3,3.5h-0.6l-0.2-0.7c-0.3-1.2-0.7-1.7-3.4-1.7h-1.7v7.4
		c0,2.6,0.3,3.1,2.4,3.1v0.7h-7.4v-0.7c2,0,2.4-0.5,2.4-3.1v-7.4H250.4z"/>
	<path d="M267.7,290.9c-1.5,0-2.8-0.8-3.4-1.3c-0.2,0.2-0.5,0.7-0.6,1.3h-0.7v-5.1h0.8c0.3,2.4,2,3.9,4.1,3.9c1.2,0,2.1-0.7,2.1-1.8
		c0-1-0.9-1.7-2.4-2.4l-2.1-1c-1.5-0.7-2.6-1.9-2.6-3.6c0-1.8,1.7-3.3,3.9-3.3c1.2,0,2.3,0.4,2.9,1c0.1-0.1,0.4-0.6,0.4-1h0.7v4.4
		h-0.8c-0.3-1.7-1.2-3.2-3.1-3.2c-1.1,0-2,0.6-2,1.5c0,1,0.8,1.5,2.6,2.3l2.1,1c1.8,0.9,2.4,2.2,2.4,3.3
		C272.2,289.3,270.2,290.9,267.7,290.9z"/>
</g>
<g>
	<g>
		<path d="M127.3,74c0.9,2.3,1.6,4.4,2.3,6.6s1.4,4.3,2,6.5c1.3,4.4,2.4,8.7,3.3,13.2c1.9,8.8,3.3,17.8,3.9,26.9
			c0.3,4.5,0.4,9.1,0.2,13.6c-0.2,4.6-0.6,9.1-1.3,13.6c-0.8,4.5-1.8,9-3.3,13.3s-3.3,8.6-5.6,12.6c-0.6,1.2-2.1,1.6-3.3,0.9
			c-1.1-0.6-1.6-2-1-3.2v-0.1c1.9-3.8,3.4-7.8,4.6-11.9c1.1-4.1,1.9-8.3,2.4-12.6s0.6-8.6,0.6-12.9c0-4.3-0.4-8.6-0.8-12.9
			c-1-8.6-2.7-17.1-5-25.4c-1.1-4.2-2.4-8.3-3.8-12.4c-0.7-2-1.4-4.1-2.2-6.1c-0.8-2-1.6-4.1-2.4-5.9v-0.1c-1.1-2.6,0-5.6,2.6-6.7
			s5.6,0,6.7,2.6C127.3,73.8,127.3,73.9,127.3,74z"/>
	</g>
	<g>
		<path d="M134.8,117.4c1.7-1.2,3.5-2.2,5.3-3.1s3.7-1.7,5.7-2.3c3.9-1.3,7.8-2.4,11.9-3.2c2-0.4,4.1-0.7,6.2-0.9
			c2.1-0.2,4.3-0.3,6.6,0c0.6,0,1.2,0.2,1.7,0.3c0.6,0.2,1.2,0.2,1.8,0.5c1.2,0.4,2.5,1,3.6,2c1.2,1,2,2.5,2.3,4s0.1,2.8-0.2,4
			c-0.3,1.3-1.5,2.1-2.8,1.9c-1.2-0.2-1.9-1.3-1.9-2.4v-0.3c0-0.8-0.1-1.5-0.2-1.9c-0.2-0.4-0.5-0.7-0.8-0.9
			c-0.4-0.2-0.9-0.5-1.7-0.6c-0.3-0.1-0.7-0.1-1.1-0.2c-0.4,0-0.8-0.1-1.2-0.1c-3.4,0-7.2,0.7-10.9,1.5c-3.7,0.9-7.4,2-11.1,3.2
			c-1.9,0.6-3.7,1.2-5.6,1.6c-1.9,0.5-3.8,1-5.8,1.3l0,0c-1.4,0.2-2.6-0.8-2.8-2.1C133.6,118.8,134,117.9,134.8,117.4z"/>
	</g>
	<g>
		<path d="M168,179.4c-0.9-1.7-1.8-3.5-2.1-5.5c-0.3-1-0.3-2-0.4-3.1c0-1,0-2.1,0.2-3.1c0.3-2,0.9-3.9,1.5-5.6
			c0.6-1.8,1.3-3.3,1.9-4.9c1.3-3.1,2.5-6.2,3.4-9.3l0.6-2.4c0.1-0.4,0.1-0.7,0.2-1.1c0.1-0.4,0.2-0.7,0.2-1.1
			c0.2-1.4,0.1-2.6-0.2-3.6s-0.8-1.7-1.6-2.4c-0.8-0.6-2.1-1.1-3.4-1.5c-1.4-0.3-2.9-0.5-4.5-0.5s-3.2,0-4.8,0.1s-3.3,0.3-5,0.5
			s-3.3,0.5-5,0.8c-3.4,0.6-6.7,1.3-10.2,1.9c-1.3,0.2-2.6-0.6-2.8-2c-0.2-1.2,0.5-2.4,1.7-2.7l0,0c3.2-0.9,6.6-2,10-2.8
			c3.4-0.9,6.9-1.6,10.5-2c1.8-0.2,3.6-0.4,5.5-0.4s3.8,0.1,5.8,0.5s4.1,1.1,6.1,2.5c2,1.3,3.6,3.6,4.3,5.9
			c1.4,4.7,0.2,8.9-0.6,12.3c-1,3.5-2.2,7-3.6,10.2c-1.4,3.2-2.8,6.2-3.5,9c-0.2,0.7-0.3,1.4-0.4,2.1c0,0.7-0.1,1.4-0.1,2.1
			c0,1.4,0.3,2.9,0.6,4.4v0.2c0.3,1.3-0.6,2.6-1.9,2.8C169.6,180.8,168.5,180.3,168,179.4z"/>
	</g>
	<g>
		<path d="M85.7,164.9c10.2,4.9,20.9,8.6,32,10.8l4.1,0.8c1.4,0.2,2.8,0.4,4.2,0.6l2.1,0.3l2.1,0.2c1.4,0.1,2.8,0.3,4.2,0.4
			c5.6,0.4,11.2,0.5,16.9,0.4c11.2-0.4,22.4-2,33.3-4.6c5.5-1.3,10.8-2.9,16.1-4.8c2.6-0.9,5.3-1.9,7.8-3c1.3-0.5,2.6-1.1,3.8-1.6
			c1.2-0.6,2.6-1.2,3.6-1.7h0.1c2.3-1.2,5.1-0.3,6.2,2c1.2,2.3,0.3,5.1-2,6.2l-0.1,0.1c-1.5,0.7-2.8,1.3-4.2,1.8
			c-1.4,0.6-2.8,1.1-4.2,1.6c-2.8,1-5.6,2-8.4,2.8c-5.6,1.7-11.3,3.2-17.1,4.4c-11.5,2.4-23.3,3.6-35,3.6c-5.9,0-11.7-0.4-17.6-1
			c-1.5-0.2-2.9-0.4-4.4-0.6l-2.2-0.3l-2.2-0.4c-1.4-0.3-2.9-0.5-4.3-0.8l-4.3-1c-11.4-2.7-22.4-7-32.8-12.3c-1.1-0.6-1.5-1.9-0.9-3
			C83.3,164.8,84.6,164.4,85.7,164.9L85.7,164.9z"/>
	</g>
</g>
</svg>
