<?xml version="1.0" encoding="utf-8"?>
<!-- Generator: Adobe Illustrator 24.0.3, SVG Export Plug-In . SVG Version: 6.00 Build 0)  -->
<svg version="1.1" id="Layer_1" xmlns="http://www.w3.org/2000/svg" xmlns:xlink="http://www.w3.org/1999/xlink" x="0px" y="0px"
	 viewBox="0 0 302.8 318.8" style="enable-background:new 0 0 302.8 318.8;" xml:space="preserve">
<style type="text/css">
	.st0{fill:none;}
	.st1{enable-background:new    ;}
	.st2{font-family:'MuseoSans-300';}
	.st3{font-size:23.75px;}
</style>
<g>
	<path d="M183,112.7c0,11-14.9,27-33.3,27s-33.3-16-33.3-27s14.9-12.7,33.3-12.7S183,101.7,183,112.7z"/>
	<g>
		<path d="M213.4,134.8c0-0.7-0.1-1.3-0.1-2c0-0.6-0.1-1.3-0.2-1.9c-0.1-0.6-0.2-1.3-0.3-1.9c-0.1-0.6-0.2-1.2-0.3-1.9
			c-0.5-2.5-1.1-4.9-1.8-7.3c-0.8-2.4-1.6-4.7-2.7-7c-1.1-2.3-2.3-4.6-3.8-6.7c-0.4-0.5-0.8-1.1-1.2-1.6s-0.9-1-1.3-1.5
			c-0.9-0.9-1.9-1.8-2.9-2.6c-2-1.7-4.2-3.1-6.4-4.2c-2.3-1.2-4.6-2.1-7-2.9c-4.8-1.5-9.6-2.3-14.4-2.8c-4.8-0.5-9.6-0.6-14.4-0.6
			c-0.2,0-0.4,0-0.5,0c0.7-0.2,1.3-0.4,2-0.6c1.9-0.7,3.8-1.7,5.4-2.9c1.6-1.2,3.1-2.7,4.2-4.4c1.2-1.6,2.2-3.4,2.9-5.2
			c1.5-3.6,2.1-7.5,2.1-11.3c0-3.8-0.5-7.5-1.5-11.1c-0.5-1.8-1.1-3.5-1.8-5.2s-1.5-3.4-2.3-5c-3.5-6.6-9.5-11.7-16.7-14
			c-3.6-1.2-7.4-1.6-11.2-1.1s-7.5,1.8-10.7,3.9s-5.9,5-7.9,8.3s-3.2,7.1-3.7,10.9s-0.1,7.8,1,11.5c0.5,1.9,1.3,3.7,2.1,5.4
			c0.9,1.7,1.8,3.3,2.9,4.9c2.1,3.1,4.7,6,7.6,8.5c2.9,2.5,6.2,4.6,9.8,6c1.7,0.7,3.5,1.2,5.4,1.6c-1.1,0-2.3,0.1-3.4,0.1
			c-4.8,0.3-9.6,0.6-14.3,1.4s-9.5,1.9-14,3.7c-2.3,0.9-4.5,2-6.5,3.3c-2.1,1.3-4,2.9-5.8,4.6c-0.4,0.4-0.9,0.9-1.3,1.3
			c-0.4,0.5-0.8,1-1.2,1.4l-0.5,0.7c-0.5-4-0.1-8.1,1.1-12.1l0,0c0.1-0.4-0.1-0.8-0.5-1s-0.9,0-1.1,0.4c-1.9,4.5-2.8,9.5-2.4,14.4
			c0.1,0.8,0.1,1.6,0.3,2.4c-0.8,1.6-1.6,3.2-2.2,4.8c-1.8,4.5-3.1,9.2-3.9,14c-0.4,2.4-0.6,4.9-0.6,7.4c0,1.3,0.1,2.5,0.2,3.8
			l0.3,1.9c0.1,0.6,0.2,1.2,0.4,1.9c0.6,2.5,1.4,4.9,2.4,7.2c1.1,2.3,2.4,4.5,3.9,6.5c3,4.1,6.7,7.6,10.8,10.5
			c2,1.5,4.2,2.7,6.4,3.9c2.2,1.1,4.5,2.2,6.8,3.1c0.6,0.2,1.2,0.4,1.7,0.6c0.6,0.2,1.2,0.4,1.8,0.6c1.2,0.4,2.4,0.8,3.6,1.1
			l1.8,0.5l1.8,0.4c1.2,0.3,2.4,0.5,3.6,0.7c1.2,0.2,2.4,0.4,3.7,0.6c1.2,0.1,2.4,0.3,3.7,0.4l1.8,0.1c0.6,0,1.2,0.1,1.8,0.1
			s1.2,0.1,1.8,0.1h1.8c2.4,0,4.8-0.1,7.3-0.3c1.2-0.1,2.4-0.2,3.6-0.3l1.8-0.2l1.8-0.2c0.6-0.1,1.2-0.2,1.8-0.3s1.2-0.2,1.8-0.3
			c1.2-0.2,2.4-0.4,3.6-0.7c2.4-0.5,4.7-1.3,7.1-2.1c2.3-0.8,4.6-1.9,6.7-3.1c1.1-0.6,2.1-1.2,3.1-2c1-0.7,2-1.5,2.9-2.2
			c0.3-0.2,0.4-0.6,0.2-1s-0.7-0.6-1.1-0.4H190c-1.1,0.5-2.1,1-3.2,1.5c-1,0.5-2.1,0.9-3.2,1.3c-1.1,0.3-2.2,0.7-3.3,1
			c-0.6,0.1-1.1,0.3-1.7,0.4l-1.7,0.4c-2.2,0.5-4.5,0.9-6.8,1.1c-1.1,0.2-2.3,0.2-3.4,0.4c-1.2,0.1-2.3,0.2-3.4,0.2
			c-2.3,0.1-4.6,0.2-6.9,0.2c-1.2,0-2.3,0-3.5,0h-1.7c-0.6,0-1.2,0-1.7,0l-1.7-0.1c-0.6,0-1.1-0.1-1.7-0.1c-0.6,0-1.1-0.1-1.7-0.1
			l-1.7-0.2c-2.3-0.2-4.5-0.5-6.8-0.9c-4.5-0.8-8.9-1.9-13.1-3.4l-1.6-0.6c-0.5-0.2-1-0.4-1.6-0.6c-1-0.4-2.1-0.9-3.1-1.4
			c-0.5-0.2-1-0.5-1.5-0.8l-0.8-0.4l-0.7-0.4c-0.5-0.3-1-0.5-1.5-0.8l-1.4-0.9c-3.8-2.4-7.2-5.3-10.1-8.6c-1.4-1.7-2.7-3.5-3.8-5.4
			c-1.1-1.9-1.9-4-2.5-6.1c-1.3-4.2-1.4-8.8-1-13.3c0.2-2.3,0.6-4.6,1.1-6.8c0.5-2.3,1.1-4.5,2-6.7c0.2-0.5,0.3-0.9,0.5-1.4
			c0,0.2,0.1,0.3,0.1,0.5c0.7,2.4,1.6,4.7,2.6,6.9l0.8,1.7c0.3,0.6,0.6,1.1,0.9,1.6l0.5,0.8l0.5,0.8c0.3,0.5,0.6,1.1,1,1.6
			c1.4,2.1,2.9,4,4.4,5.9c0.4,0.5,0.8,0.9,1.2,1.4l0.6,0.7l0.6,0.7l1.3,1.3l1.3,1.3l0.7,0.6l0.7,0.6l1.4,1.2l1.4,1.2
			c0.5,0.4,1,0.8,1.4,1.1c3.9,3,8.1,5.6,12.5,7.9c1.1,0.5,2.2,1.1,3.3,1.6l1.7,0.8l1.7,0.7c2.3,0.9,4.6,1.8,6.9,2.5
			c4.6,1.5,9.4,2.7,14.2,3.6s9.7,1.4,14.7,1.5c2.5,0.1,5-0.1,7.5-0.2l1.9-0.2l0.9-0.1l0.9-0.1c0.6-0.1,1.2-0.2,1.9-0.3l1.9-0.4
			c5-1.1,10-3,14.4-6.2c2.2-1.6,4.2-3.6,5.8-5.9c1.6-2.3,2.8-4.8,3.6-7.5c0.4-1.3,0.6-2.6,0.9-4
			C213.3,137.6,213.5,136.2,213.4,134.8z M142.2,83.6c-3.1-1.1-5.9-2.8-8.5-4.9s-4.9-4.6-6.9-7.3c-1-1.4-1.9-2.8-2.7-4.3
			c-0.8-1.5-1.5-3-2-4.5c-1-3.1-1.4-6.5-1.1-9.8s1.2-6.5,2.9-9.4c1.6-2.9,3.9-5.4,6.6-7.3c2.7-1.9,5.9-3.3,9.2-3.8
			c3.3-0.6,6.8-0.4,10.1,0.4c3.3,0.9,6.4,2.5,9.1,4.7c1.3,1.1,2.6,2.3,3.6,3.7c1.1,1.3,2,2.8,2.8,4.3c0.8,1.6,1.5,3.2,2.1,4.8
			s1,3.3,1.4,5c0.3,1.7,0.5,3.4,0.6,5.1c0.1,1.7,0,3.4-0.2,5.1c-0.4,3.4-1.3,6.6-2.8,9.5c-0.8,1.4-1.7,2.8-2.7,3.9
			c-1,1.2-2.2,2.2-3.5,3.1c-2.5,1.7-5.5,2.8-8.5,3.1C148.4,85.3,145.2,84.8,142.2,83.6z M205.8,137.8c-0.2,1-0.4,2-0.7,2.9
			c-0.6,1.9-1.4,3.7-2.6,5.2c-1.2,1.6-2.6,3-4.2,4.2c-3.3,2.4-7.3,4-11.5,4.9l-1.6,0.3c-0.5,0.1-1.1,0.2-1.6,0.3l-0.8,0.1l-0.8,0.1
			l-1.7,0.2l-1.7,0.1l-0.8,0.1H177l-1.7,0.1c-0.6,0-1.1,0-1.7,0c-2.3,0-4.5-0.1-6.8-0.3s-4.5-0.5-6.8-0.9c-4.5-0.7-9-1.7-13.4-3.1
			c-4.4-1.3-8.7-2.9-12.8-4.8c-1-0.5-2-1-3.1-1.5c-1-0.6-2-1.1-3-1.6c-1-0.6-2-1.1-2.9-1.8c-0.5-0.3-1-0.6-1.4-0.9l-1.4-1
			c-3.7-2.6-7.2-5.5-10.4-8.8c-1.6-1.7-3-3.4-4.4-5.2c-1.3-1.8-2.6-3.7-3.7-5.7s-2.1-4-2.8-6.2c-0.5-1.4-0.9-2.8-1.3-4.3l0,0
			l0.9-1.5l1-1.4c0.3-0.4,0.7-0.9,1.1-1.3s0.8-0.8,1.2-1.2c1.6-1.6,3.4-3,5.3-4.2s4-2.2,6.1-3.1s4.4-1.5,6.6-2
			c2.3-0.5,4.5-1,6.9-1.3c4.6-0.6,9.3-0.9,14-1s9.4,0,14.1,0.2c4.7,0.2,9.4,0.6,13.9,1.2c4.6,0.7,9.1,1.7,13.3,3.3
			c4.2,1.6,8.1,3.8,11.2,6.7c0.8,0.7,1.5,1.5,2.2,2.3c0.3,0.4,0.6,0.8,1,1.2c0.3,0.4,0.6,0.9,0.9,1.3c1.1,1.8,2.1,3.7,2.9,5.8
			c0.8,2,1.5,4.2,2.1,6.3c0.6,2.2,1.1,4.4,1.4,6.6c0.1,0.5,0.2,1.1,0.2,1.7c0.1,0.6,0.1,1.1,0.2,1.6c0.1,0.5,0.1,1.1,0.1,1.6
			s0.1,1.1,0.1,1.6C206.1,135.9,205.9,136.9,205.8,137.8z"/>
		<path d="M142.3,28c-1.1,0-2.2,0.1-3.3,0.2c-4,0.5-7.8,1.9-11.1,4.1c-3.3,2.2-6.1,5.2-8.2,8.6c-2,3.4-3.3,7.3-3.8,11.3
			s-0.1,8.1,1,11.9c0.5,1.9,1.3,3.8,2.2,5.6c0.8,1.6,1.8,3.3,2.9,5c2.2,3.2,4.8,6.1,7.7,8.7c3.1,2.6,6.4,4.7,10,6.1
			c-4.7,0.3-8.4,0.7-12,1.3c-5.5,0.9-10.1,2.1-14.2,3.8c-2.4,1-4.7,2.1-6.7,3.4c-2.2,1.4-4.2,3-5.9,4.7c-0.5,0.5-0.9,0.9-1.3,1.4
			l-0.1,0.1c-0.1-3.1,0.3-6.1,1.2-9.1c0.3-0.9-0.2-1.8-1-2.2c-0.2-0.1-0.5-0.2-0.7-0.2c-0.7,0-1.4,0.4-1.7,1.1
			c-2,4.7-2.8,9.8-2.4,14.9c0.1,0.7,0.1,1.4,0.2,2.1c-0.7,1.4-1.4,3-2.1,4.6c-1.8,4.5-3.1,9.3-3.9,14.2c-0.5,2.9-0.7,5.3-0.6,7.5
			c0,1.1,0.1,2.2,0.2,3.3v0.6l0,0l0,0l0.3,1.9c0.1,0.4,0.2,0.9,0.2,1.3c0,0.2,0.1,0.4,0.1,0.6c0.6,2.6,1.4,5.1,2.5,7.4
			c1.1,2.3,2.4,4.5,4,6.7c2.9,3.9,6.6,7.5,11,10.7c2.3,1.6,4.7,3,6.5,4c2.5,1.3,4.7,2.3,6.9,3.1c0.5,0.2,1,0.4,1.4,0.5l0.3,0.1
			c0.2,0.1,0.4,0.1,0.6,0.2c0.4,0.1,0.8,0.3,1.2,0.4c0.4,0.1,0.7,0.2,1.1,0.3c0.8,0.3,1.6,0.5,2.5,0.7l1.8,0.5l1.8,0.4
			c0.8,0.2,1.7,0.4,2.5,0.5c0.4,0.1,0.8,0.1,1.2,0.2c1.4,0.2,2.6,0.4,3.7,0.6c0.4,0,0.7,0.1,1.1,0.1c0.9,0.1,1.8,0.2,2.7,0.3
			l1.8,0.1c0.5,0,0.9,0.1,1.4,0.1h0.5c0.2,0,0.4,0,0.6,0c0.4,0,0.8,0,1.3,0h1.8h0.1c2.4,0,4.8-0.1,7.1-0.3h0.1l0.7-0.1
			c1-0.1,1.9-0.1,2.9-0.2l1.8-0.2l1.8-0.2c0.5-0.1,1.1-0.1,1.8-0.3l0.5-0.1c0.4-0.1,0.9-0.1,1.3-0.2c0.4-0.1,0.8-0.2,1.2-0.2
			c0.8-0.2,1.7-0.3,2.5-0.5c2.2-0.5,4.6-1.2,7.2-2.1c2.3-0.8,4.6-1.9,6.9-3.1l0.6-0.4c0.9-0.5,1.7-1,2.6-1.6
			c0.9-0.6,1.9-1.4,2.7-2.1l0.2-0.2c0.6-0.5,0.8-1.4,0.5-2.2c-0.3-0.7-0.9-1.1-1.7-1.1c-0.3,0-0.5,0.1-0.8,0.2h-0.1
			c-0.4,0.2-0.8,0.4-1.2,0.6c-0.7,0.3-1.3,0.6-1.9,0.9l0,0l0,0c-0.8,0.4-1.6,0.7-2.4,1c-0.2,0.1-0.5,0.2-0.7,0.3
			c-0.4,0.1-0.7,0.2-1.1,0.3c-0.7,0.2-1.4,0.5-2.1,0.6c-0.2,0.1-0.4,0.1-0.6,0.2c-0.3,0.1-0.7,0.2-1,0.3l-1.7,0.4
			c-1.8,0.4-4.2,0.8-6.7,1.1c-0.8,0.1-1.5,0.2-2.3,0.2c-0.4,0-0.8,0.1-1.1,0.1c-0.4,0-0.9,0.1-1.4,0.1c-0.7,0.1-1.4,0.1-2,0.1
			c-2.2,0.1-4.5,0.2-6.9,0.2c-0.5,0-1,0-1.6,0s-1.3,0-1.9,0h-1.7c-0.6,0-1.1,0-1.7,0l-1.7-0.1c-0.4,0-0.7,0-1.1-0.1
			c-0.2,0-0.4,0-0.6,0c-0.2,0-0.5,0-0.7,0c-0.3,0-0.6,0-0.9-0.1l-1.7-0.2c-2.1-0.2-4.3-0.5-6.7-0.9c-4.8-0.9-9.1-2-12.9-3.4
			l-1.6-0.6c-0.3-0.1-0.6-0.2-0.9-0.4c-0.2-0.1-0.4-0.2-0.6-0.3c-0.7-0.3-1.4-0.6-2.1-0.9c-0.3-0.1-0.6-0.3-0.9-0.4
			c-0.3-0.1-0.5-0.3-0.8-0.4l-0.6-0.3l-0.7-0.4l-0.7-0.4c-0.2-0.1-0.4-0.2-0.7-0.4c-0.3-0.1-0.5-0.3-0.8-0.4l-1.4-0.9
			c-3.8-2.4-7.1-5.2-9.8-8.4c-1.4-1.7-2.6-3.5-3.6-5.3s-1.8-3.8-2.5-5.9c-1.2-3.7-1.5-8-0.9-13c0.2-2.1,0.6-4.4,1.1-6.7
			c0.4-1.9,0.9-3.5,1.4-5.1c0.5,1.6,1.2,3.1,1.9,4.7l0.8,1.7c0.2,0.4,0.4,0.7,0.6,1.1c0.1,0.2,0.2,0.4,0.3,0.5l0.5,0.8l0.5,0.8
			l0.2,0.3c0.3,0.4,0.5,0.9,0.8,1.3c1.3,2,2.8,3.9,4.5,6c0.3,0.3,0.5,0.6,0.8,0.9l0.4,0.5l0.6,0.7l0.7,0.7l1.3,1.3l1.4,1.3l0.7,0.6
			l0.7,0.6l1.4,1.2l1.5,1.2l0.2,0.2c0.4,0.3,0.9,0.7,1.3,1c4,3.1,8.3,5.8,12.6,8c0.3,0.1,0.6,0.3,0.8,0.4c0.8,0.4,1.7,0.8,2.5,1.2
			l1.7,0.8l1.7,0.7c2.4,1,4.9,1.9,6.9,2.6c4.4,1.5,9.3,2.7,14.4,3.7c5,0.9,10,1.4,14.9,1.5c0.5,0,1,0,1.5,0c1.8,0,3.7-0.1,6.1-0.3
			l1.9-0.2l0.9-0.1l1-0.2l0.6-0.1c0.4-0.1,0.8-0.1,1.3-0.2l1.9-0.4c5.7-1.3,10.7-3.4,14.8-6.4c2.4-1.8,4.4-3.8,6-6.1
			c1.6-2.2,2.9-4.8,3.8-7.7c0.4-1.1,0.6-2.2,0.8-3.3c0-0.3,0.1-0.5,0.1-0.8l0,0l0,0c0-0.3,0.1-0.6,0.1-0.9c0.1-1.1,0.2-2.3,0.1-3.4
			c0-0.6-0.1-1.1-0.1-1.5v-0.5c0-0.7-0.1-1.3-0.2-2c-0.1-0.7-0.2-1.3-0.3-1.9c0-0.2-0.1-0.4-0.1-0.6c-0.1-0.4-0.1-0.9-0.2-1.3
			c-0.4-2.4-1.1-4.9-1.8-7.4c-0.9-2.7-1.7-5-2.7-7.2c-1.2-2.6-2.5-4.9-3.9-6.9c-0.2-0.2-0.3-0.4-0.4-0.6c-0.3-0.4-0.5-0.7-0.8-1.1
			l-0.4-0.5c-0.3-0.4-0.6-0.7-0.9-1.1c-1.1-1.1-2-2-3-2.7c-2-1.7-4.2-3.1-6.6-4.3c-2.3-1.2-4.7-2.2-7.1-2.9
			c-4.3-1.4-9.1-2.3-14.6-2.8c-3-0.3-6.3-0.5-9.8-0.6c1-0.5,1.9-1.1,2.7-1.8c1.6-1.2,3.1-2.8,4.4-4.6c1.2-1.6,2.2-3.4,3-5.4
			c1.4-3.5,2.2-7.4,2.2-11.6c0-3.7-0.5-7.5-1.5-11.3c-0.5-1.9-1.1-3.7-1.8-5.4s-1.5-3.4-2.4-5.1c-3.7-6.9-10-12.2-17.3-14.5
			C147.9,28.4,145.1,28,142.3,28L142.3,28z M149.9,84.1c-2.4,0-4.9-0.5-7.4-1.4c-2.9-1.1-5.7-2.7-8.3-4.8c-2.5-2.1-4.8-4.5-6.7-7.1
			c-1-1.4-1.9-2.8-2.6-4.2c-0.8-1.4-1.4-2.9-1.9-4.4c-1-3-1.3-6.2-1.1-9.4c0.3-3.2,1.2-6.3,2.7-9c1.5-2.8,3.7-5.2,6.3-7
			c2.6-1.8,5.6-3.1,8.8-3.7c1.3-0.2,2.6-0.3,3.9-0.3c2,0,3.9,0.3,5.8,0.8c3.2,0.8,6.2,2.4,8.7,4.5c1.3,1.1,2.5,2.3,3.5,3.5
			c1,1.3,1.9,2.7,2.7,4.2s1.4,3.1,2,4.7c0.5,1.4,0.9,3,1.3,4.9c0.3,1.6,0.5,3.3,0.6,5s0,3.4-0.2,5c-0.4,3.3-1.3,6.5-2.7,9.2
			c-0.7,1.4-1.6,2.6-2.6,3.8c-1,1.1-2.1,2.1-3.3,2.9c-2.5,1.7-5.2,2.7-8.1,2.9C150.9,84.1,150.4,84.1,149.9,84.1L149.9,84.1z
			 M103,107c0.3-0.4,0.7-0.8,1.1-1.2c1.6-1.6,3.3-2.9,5.2-4.1c1.8-1.1,3.8-2.1,6-3c1.9-0.8,4-1.4,6.5-2c2.2-0.5,4.5-0.9,6.7-1.2
			c4.2-0.6,8.7-0.9,13.9-0.9c1,0,2,0,3,0c3.3,0,6.9,0.1,11,0.3c5.6,0.3,9.9,0.6,13.8,1.2c5,0.8,9.3,1.8,13.1,3.2
			c4.4,1.7,8.1,3.8,10.9,6.5c0.8,0.7,1.5,1.5,2.2,2.2c0.2,0.2,0.3,0.4,0.5,0.6c0.1,0.2,0.3,0.4,0.4,0.5c0.2,0.2,0.3,0.5,0.5,0.7
			c0.1,0.2,0.2,0.3,0.3,0.5c1,1.6,1.9,3.4,2.8,5.6c0.8,1.8,1.4,3.8,2.1,6.2c0.6,2.4,1.1,4.5,1.4,6.4c0.1,0.4,0.1,0.7,0.2,1
			c0,0.2,0.1,0.4,0.1,0.6c0.1,0.5,0.1,0.9,0.2,1.6c0.1,0.5,0.1,1.1,0.1,1.6v0.4c0,0.4,0,0.8,0,1.2l0,0l0,0c0,0.6,0,1.2-0.1,1.8
			c0,0.3-0.1,0.6-0.1,0.8c-0.1,0.3-0.1,0.5-0.2,0.8c-0.1,0.7-0.3,1.4-0.5,1.9l0,0l0,0c-0.6,1.9-1.4,3.6-2.5,4.9
			c-1.1,1.4-2.4,2.8-4,4c-2.9,2.1-6.7,3.7-11.1,4.8l-1.6,0.3c-0.3,0.1-0.6,0.1-1,0.2c-0.2,0-0.4,0.1-0.6,0.1l-0.8,0.1l-0.8,0.1
			l-1.6,0.2l-1.6,0.1l-0.8,0.1h-0.8l-1.7,0.1c-0.2,0-0.5,0-0.7,0H174h-0.5h-0.3c-2.3,0-4.5-0.2-6.4-0.3c-2.1-0.2-4.4-0.5-6.7-0.8
			c-4.4-0.7-8.9-1.7-13.3-3c-4.5-1.3-8.8-2.9-12.7-4.7c-0.7-0.3-1.3-0.6-2-1c-0.3-0.2-0.7-0.3-1-0.5c-0.4-0.2-0.7-0.4-1.1-0.6
			c-0.6-0.3-1.3-0.7-1.9-1l-0.2-0.1c-0.9-0.5-1.8-1-2.7-1.6c-0.2-0.1-0.3-0.2-0.5-0.3c-0.3-0.2-0.6-0.4-0.9-0.6l-1.4-1
			c-3.8-2.6-7.2-5.5-10.2-8.7c-1.6-1.7-3.1-3.4-4.3-5.1c-1.2-1.6-2.5-3.5-3.6-5.6c-1.1-2-2.1-4.1-2.8-6c-0.5-1.3-0.8-2.6-1.1-3.8
			l0.7-1.1l0.9-1.3c0.2-0.2,0.4-0.5,0.6-0.7C102.7,107.3,102.9,107.2,103,107L103,107z"/>
	</g>
</g>
<rect x="20.8" y="208.3" class="st0" width="261.2" height="55.8"/>
<g class="st1">
	<path d="M26.7,251.6l-2.4,2.8H23v-13.9h2.3c0,6.1,4.2,11.7,11.2,11.7c5.8,0,8-3,8-6.9c0-5.7-4.5-6.4-10.2-8.2
		c-5.3-1.7-11.2-4.5-11.2-13.7c0-6.3,4.5-11.6,12.3-11.6c3.4,0,6.7,1,8.8,2.9l2.2-2.7h1.3v13.7h-2.2c0-7.6-4.3-11.4-9.7-11.4
		c-5,0-7.6,2.6-7.6,6.6c0,5.4,4.1,6.3,9.8,8.3c5.9,2,11.6,4.5,11.6,13.3c0,6.1-3.6,12.1-12.8,12.1C31.9,254.6,28.9,253.3,26.7,251.6
		z"/>
	<path d="M70.2,254.6c-8.2,0-15.1-6.1-15.1-15.9c0-9.7,6.9-15.8,15.1-15.8c7.9,0,15.2,6.1,15.2,15.9
		C85.4,248.6,78.1,254.6,70.2,254.6z M70.2,252.2c4.8,0,6.7-5.2,6.7-13.4c0-8.3-1.8-13.6-6.7-13.6c-5.2,0-6.6,5.3-6.6,13.4
		C63.6,247,65,252.2,70.2,252.2z"/>
	<path d="M105.1,254.6c-8.2,0-15.1-6.1-15.1-15.9c0-9.7,6.9-15.8,15.1-15.8c7.9,0,15.2,6.1,15.2,15.9
		C120.3,248.6,113,254.6,105.1,254.6z M105.1,252.2c4.8,0,6.7-5.2,6.7-13.4c0-8.3-1.8-13.6-6.7-13.6c-5.2,0-6.6,5.3-6.6,13.4
		C98.5,247,100,252.2,105.1,252.2z"/>
	<path d="M128,245.9V226h-5.4v-1.7c7.2,0,10.9-5.4,11.2-11.2h1.9v10.6h9.4v2.3h-8.9v20.9c0,3.9,1.2,5.1,3.4,5.1
		c2.8,0,3.8-2.6,3.8-8.7h2.1c0,6.8-1.4,11.3-8.5,11.3C132.1,254.6,128,252.4,128,245.9z"/>
	<path d="M165.2,253.8h-16.4v-2.2h4.4v-40.2h-4.4v-2.2c7.2,0,9.8-0.2,11.2-0.8l1.3,0.5v8.5c0,4.7-0.4,9-0.8,12.7
		c1.2-4.2,4.5-7.2,9.8-7.2c6.8,0,10.6,3.5,10.6,11.8v16.9h4.4v2.2h-16.4v-2.2h3.9v-16.9c0-5.7-2-8-5.6-8c-3.6,0-5.8,2.9-5.8,9.1
		v15.8h3.9V253.8z"/>
	<path d="M189.1,238.6c0-9.7,6.6-15.6,14.4-15.6c8.7,0,13.3,6.3,13.3,13.8c0,0.6-0.1,1.7-0.1,1.7h-19.2v0.7c0.1,8.2,2,12.8,7.9,12.8
		c5.1,0,7.5-3.1,8.7-7.5l2.2,0.4c-1.3,6.2-5.8,9.8-12.1,9.8C195.9,254.6,189.1,248.8,189.1,238.6z M197.5,236.3h11.2
		c0-6.9-1-11.1-5.3-11.1C199.4,225.2,197.8,228.8,197.5,236.3z"/>
	<path d="M220.6,252.2l16.3-26.2h-6.7c-5.5,0-6.4,2.6-6.4,7.2v1.3h-2.2v-10.7h23.6v1.7l-16.3,26.2h7.9c5.5,0,6.4-2.9,6.4-7.4v-1.4
		h2.2v11h-24.8V252.2z"/>
	<path d="M249.3,238.6c0-9.7,6.6-15.6,14.4-15.6c8.7,0,13.3,6.3,13.3,13.8c0,0.6-0.1,1.7-0.1,1.7h-19.2v0.7c0.1,8.2,2,12.8,7.9,12.8
		c5.1,0,7.5-3.1,8.7-7.5l2.2,0.4c-1.3,6.2-5.8,9.8-12.1,9.8C256.2,254.6,249.3,248.8,249.3,238.6z M257.8,236.3H269
		c0-6.9-1-11.1-5.3-11.1C259.7,225.2,258,228.8,257.8,236.3z"/>
</g>
<rect x="23.1" y="275.3" class="st0" width="256.5" height="17.4"/>
<g class="st1">
	<path d="M29.3,276.8h-6v-1.5h13.6v1.5h-6V292h-1.6V276.8z"/>
</g>
<g class="st1">
	<path d="M41,275.3h1.6v7.6h9.7v-7.6h1.6V292h-1.6v-7.6h-9.7v7.6H41V275.3z"/>
</g>
<g class="st1">
	<path d="M58.8,275.3h9.4v1.5h-7.8v6.1h6.3v1.5h-6.3v6.2h8.2v1.5h-9.8V275.3z"/>
</g>
<g class="st1">
	<path d="M73.3,275.3h4.9c1.7,0,2.5,0.2,3.1,0.5c1.6,0.7,2.5,2.3,2.5,4.3c0,2.3-1.3,4-3.2,4.5v0c0,0,0.2,0.2,0.4,0.7l3.6,6.7h-1.9
		l-3.8-7h-4.2v7h-1.6V275.3z M78.9,283.5c2,0,3.3-1.3,3.3-3.4c0-1.4-0.5-2.4-1.5-2.9c-0.5-0.3-1.1-0.4-2.4-0.4h-3.4v6.7H78.9z"/>
</g>
<g class="st1">
	<path d="M99.1,286.7h-6.7l-1.9,5.3h-1.7l6.1-16.7h1.8l6.1,16.7H101L99.1,286.7z M95.7,277c0,0-0.4,1.4-0.6,2.2l-2.2,6.1h5.7
		l-2.2-6.1C96.1,278.4,95.8,277,95.7,277L95.7,277z"/>
</g>
<g class="st1">
	<path d="M107.4,275.3h5.8c3,0,5.2,1.9,5.2,5c0,3.1-2.2,5.1-5.2,5.1H109v6.6h-1.6V275.3z M112.9,284c2.2,0,3.7-1.4,3.7-3.6
		c0-2.3-1.4-3.6-3.7-3.6H109v7.2H112.9z"/>
</g>
<g class="st1">
	<path d="M127.1,284.8l-5.6-9.5h1.9l3.5,6.1c0.5,0.9,1,2,1,2h0c0,0,0.5-1.1,1-2l3.5-6.1h1.9l-5.6,9.5v7.2h-1.7V284.8z"/>
</g>
<text transform="matrix(1 0 0 1 135.3396 291.9775)" class="st2 st3"> </text>
<g class="st1">
	<path d="M145.6,275.3h5.8c3,0,5.2,1.9,5.2,5c0,3.1-2.2,5.1-5.2,5.1h-4.1v6.6h-1.6V275.3z M151.1,284c2.2,0,3.7-1.4,3.7-3.6
		c0-2.3-1.4-3.6-3.7-3.6h-3.9v7.2H151.1z"/>
</g>
<g class="st1">
	<path d="M160.7,275.3h4.9c1.7,0,2.5,0.2,3.1,0.5c1.6,0.7,2.5,2.3,2.5,4.3c0,2.3-1.3,4-3.2,4.5v0c0,0,0.2,0.2,0.4,0.7l3.6,6.7h-1.9
		l-3.8-7h-4.2v7h-1.6V275.3z M166.3,283.5c2,0,3.3-1.3,3.3-3.4c0-1.4-0.5-2.4-1.5-2.9c-0.5-0.3-1.1-0.4-2.4-0.4h-3.4v6.7H166.3z"/>
</g>
<g class="st1">
	<path d="M183.8,275c4.7,0,8.5,3.7,8.5,8.5c0,4.9-3.8,8.7-8.5,8.7c-4.7,0-8.5-3.8-8.5-8.7C175.3,278.7,179.1,275,183.8,275z
		 M183.8,290.7c3.8,0,6.8-3.1,6.8-7.2c0-4-3-7-6.8-7c-3.8,0-6.8,3-6.8,7C177,287.6,180,290.7,183.8,290.7z"/>
</g>
<g class="st1">
	<path d="M197,275.3h5.4c5,0,8.4,3.1,8.4,8.3c0,5.3-3.4,8.4-8.4,8.4H197V275.3z M202.2,290.5c4.1,0,6.8-2.4,6.8-6.9
		c0-4.4-2.8-6.9-6.8-6.9h-3.6v13.7H202.2z"/>
</g>
<g class="st1">
	<path d="M215.7,275.3h1.7v10.9c0,2.9,1.9,4.6,4.7,4.6s4.7-1.7,4.7-4.7v-10.8h1.6v10.9c0,3.7-2.6,6.1-6.4,6.1
		c-3.8,0-6.4-2.4-6.4-6.1V275.3z"/>
</g>
<g class="st1">
	<path d="M241.4,275c4,0,6,2.2,6,2.2l-0.9,1.2c0,0-1.9-1.9-5.1-1.9c-3.9,0-6.7,3-6.7,7c0,4,2.8,7.2,6.8,7.2c3.4,0,5.4-2.2,5.4-2.2
		l1,1.2c0,0-2.3,2.6-6.4,2.6c-4.9,0-8.5-3.9-8.5-8.7C233,278.7,236.7,275,241.4,275z"/>
</g>
<g class="st1">
	<path d="M256.9,276.8h-6v-1.5h13.6v1.5h-6V292h-1.6V276.8z"/>
</g>
<g class="st1">
	<path d="M267.6,288.9c0,0,1.7,1.8,4.4,1.8c1.8,0,3.3-1.1,3.3-2.9c0-4.2-8.3-3.1-8.3-8.3c0-2.4,2.1-4.5,5.2-4.5
		c2.9,0,4.5,1.6,4.5,1.6l-0.8,1.4c0,0-1.5-1.4-3.7-1.4c-2.1,0-3.5,1.4-3.5,2.9c0,4,8.3,2.8,8.3,8.3c0,2.5-1.9,4.5-5.1,4.5
		c-3.4,0-5.3-2.1-5.3-2.1L267.6,288.9z"/>
</g>
</svg>
