<?xml version="1.0" encoding="utf-8"?>
<!-- Generator: Adobe Illustrator 24.0.3, SVG Export Plug-In . SVG Version: 6.00 Build 0)  -->
<svg version="1.1" id="Layer_1" xmlns="http://www.w3.org/2000/svg" xmlns:xlink="http://www.w3.org/1999/xlink" x="0px" y="0px"
	 viewBox="0 0 254 264.7" style="enable-background:new 0 0 254 264.7;" xml:space="preserve">
<style type="text/css">
	.st0{fill:none;stroke:#000000;stroke-width:1.0456;stroke-miterlimit:10;}
	.st1{fill:#FFFFFF;stroke:#000000;stroke-miterlimit:10;}
	.st2{fill:none;stroke:#000000;stroke-width:1.2796;stroke-miterlimit:10;}
	.st3{stroke:#FFFFFF;stroke-width:0.465;stroke-miterlimit:10;}
	.st4{fill:#FFFFFF;}
	.st5{fill:#FFFFFF;stroke:#000000;stroke-width:0.465;stroke-miterlimit:10;}
	.st6{fill:#FFFFFF;stroke:#FFFFFF;stroke-width:0.465;stroke-miterlimit:10;}
	.st7{fill:#FFFFFF;stroke:#000000;stroke-width:0.8711;stroke-miterlimit:10;}
	.st8{fill:none;stroke:#000000;stroke-width:0.8711;stroke-miterlimit:10;}
	.st9{fill:none;}
	.st10{fill:#F9A134;}
	.st11{fill:#6C0E0F;}
	.st12{enable-background:new    ;}
	.st13{font-family:'MuseoSans-300';}
	.st14{font-size:23.75px;}
	.st15{fill:none;stroke:#000000;stroke-width:15;stroke-linecap:round;stroke-miterlimit:10;}
	.st16{fill:none;stroke:#000000;stroke-width:13.9073;stroke-linecap:round;stroke-miterlimit:10;}
	.st17{stroke:#FFFFFF;stroke-width:6;stroke-miterlimit:10;}
	.st18{stroke:#FFFFFF;stroke-width:0.2062;stroke-miterlimit:10;}
	.st19{stroke:#FFFFFF;stroke-width:2.1704;stroke-miterlimit:10;}
	.st20{fill:none;stroke:#FFFFFF;stroke-width:2.1704;stroke-linecap:round;stroke-miterlimit:10;}
	.st21{stroke:#FFFFFF;stroke-width:5;stroke-miterlimit:10;}
	.st22{fill:none;stroke:#000000;stroke-width:20.3102;stroke-miterlimit:10;}
	.st23{stroke:#FFFFFF;stroke-width:5;stroke-linecap:round;stroke-miterlimit:10;}
	.st24{fill:#A3ABAF;}
	.st25{fill:#FFFFFF;stroke:#000000;stroke-width:0.9051;stroke-miterlimit:10;}
	.st26{fill:#FFFFFF;stroke:#000000;stroke-width:1.8102;stroke-miterlimit:10;}
</style>
<path class="st0" d="M-321.2-69c0,66.9-40.9,121.1-91.4,121.1S-504-2-504-69c0-53.2,40.9-96.3,91.4-96.3S-321.2-122.2-321.2-69z"/>
<ellipse class="st1" cx="-412.6" cy="223.1" rx="155.8" ry="110.1"/>
<path class="st2" d="M-213.3,226c0,77.8-89.2,107.8-199.3,107.8S-611.9,303.7-611.9,226s0-173.8,199.3-173.8S-213.3,148.2-213.3,226
	z"/>
<path d="M308-431.3c0,25.9-15.9,46.9-35.4,46.9c-19.6,0-35.4-21-35.4-46.9c0-20.6,15.9-37.3,35.4-37.3
	C292.2-468.6,308-451.9,308-431.3z"/>
<g>
	<path d="M318.4-440.7c-0.4,12.7-3.9,25.4-10.9,36c-3.5,5.3-7.7,10-12.8,13.8c-5.1,3.7-11,6.4-17.2,7.3c-3.1,0.5-6.3,0.5-9.5,0.1
		c-3.1-0.4-6.2-1.2-9.2-2.5c-5.8-2.5-11-6.3-15.3-11c-4.2-4.7-7.7-10.1-10.3-15.8c-2.6-5.8-4.4-11.9-5.4-18.2
		c-0.5-3.1-0.8-6.3-1-9.5c0-1.6,0-3.3,0-4.9c0.1-1.6,0.3-3.3,0.5-4.9c1-6.5,3.3-12.8,6.9-18.5s8.3-10.6,14-14.3
		c5.6-3.8,12.2-6.2,19-7.1s13.8-0.2,20.3,2.2c3.2,1.2,6.3,2.7,9.2,4.6l2.1,1.4c0.7,0.5,1.3,1.1,2,1.6c0.6,0.5,1.3,1.1,1.9,1.6
		l1.8,1.8c4.7,4.9,8.3,10.7,10.6,16.9C317.5-453.9,318.6-447.3,318.4-440.7z M311.8-440.7c-0.2-5.7-1.5-11.3-3.9-16.4
		s-5.7-9.6-9.8-13.2c-8.1-7.3-19-11.1-29.7-10s-20.7,7.2-27.2,16.2c-3.3,4.5-5.6,9.7-6.9,15.2c-0.2,1.4-0.5,2.8-0.8,4.2
		c-0.1,1.4-0.3,2.8-0.4,4.3c-0.1,2.9,0,5.9,0.2,8.8c0.5,5.8,1.8,11.7,3.8,17.2c2.1,5.5,5,10.8,8.7,15.3c3.8,4.5,8.4,8.4,13.8,10.8
		c5.3,2.4,11.4,3.4,17.2,2.5c5.8-0.8,11.4-3.4,16-7.2c4.6-3.7,8.3-8.5,11.1-13.7c2.8-5.2,4.8-10.8,6-16.5
		C311.5-429,312-434.9,311.8-440.7z"/>
</g>
<ellipse class="st3" cx="272.6" cy="-304.9" rx="72.4" ry="51.2"/>
<g>
	<path d="M370-303.6c0.1,6-0.8,12.2-3.2,18c-1.2,2.9-2.7,5.6-4.4,8.2l-1.4,1.9l-0.7,0.9l-0.8,0.9L358-272l-1.6,1.6
		c-0.5,0.6-1.1,1.1-1.7,1.6l-1.7,1.5c-1.2,0.9-2.4,1.9-3.6,2.7c-1.2,0.9-2.5,1.7-3.8,2.4c-1.3,0.8-2.6,1.5-3.9,2.2
		c-5.2,2.8-10.6,4.9-16.1,6.6c-11,3.4-22.3,5.2-33.5,6.1c-11.2,0.8-22.4,0.8-33.6,0.1c-11.2-0.8-22.4-2.2-33.5-5.2
		c-5.5-1.5-11-3.3-16.3-5.6c-5.3-2.3-10.5-5.3-15.2-9c-4.7-3.6-8.9-8.3-12.1-13.6c-3.1-5.4-5-11.4-5.4-17.4
		c-0.1-0.8-0.1-1.5-0.2-2.2v-2.2v-1.1v-1l0.1-2.1c0.1-2.7,0.2-5.5,0.4-8.3c0.3-5.5,0.8-11.1,1.8-16.7s2.6-11.1,4.9-16.3
		c2.3-5.2,5.4-10.2,9.3-14.4c3.9-4.2,8.5-7.7,13.4-10.5s10.1-4.9,15.4-6.6c2.6-0.9,5.3-1.5,8-2.2l4.1-0.8l2-0.4
		c0.7-0.1,1.4-0.2,2-0.3l4.1-0.6c1.4-0.2,2.7-0.3,4.1-0.5c1.4-0.1,2.7-0.3,4.1-0.4l4.1-0.3c5.5-0.4,11-0.5,16.4-0.6
		c2.7-0.1,5.5,0,8.2,0s5.5,0.2,8.2,0.3c10.9,0.5,21.9,1.7,32.7,4.4c2.7,0.6,5.3,1.5,8,2.3l3.9,1.4c1.3,0.5,2.6,1.1,3.9,1.7
		c5.1,2.4,10,5.3,14.4,9.1c4.4,3.7,8.1,8.3,11,13.3s4.9,10.5,6.3,16.1C369.5-325.8,369.7-314.5,370-303.6z M360.6-303.6
		c0.1-5.5,0.3-10.8,0.1-16.1c-0.2-5.3-0.5-10.5-1.5-15.6c-0.9-5.1-2.4-10-4.6-14.7c-2.2-4.6-5.3-8.8-8.9-12.4
		c-3.7-3.6-8-6.7-12.7-9.2c-1.2-0.6-2.3-1.3-3.6-1.8l-3.6-1.6c-1.2-0.5-2.5-0.9-3.8-1.4s-2.5-0.8-3.8-1.2
		c-10.3-3.1-21.1-4.6-31.9-5.3c-10.8-0.6-21.7-0.5-32.5,0.4l-4,0.4c-1.3,0.1-2.7,0.3-4,0.5s-2.7,0.3-4,0.6l-4,0.7
		c-0.7,0.1-1.3,0.2-2,0.4l-2,0.5c-1.3,0.3-2.6,0.6-3.9,0.9c-2.6,0.8-5.2,1.4-7.7,2.4c-10.1,3.5-19.6,8.9-26.2,17
		c-3.3,4-5.9,8.5-7.7,13.4c-1.8,4.8-2.9,10-3.6,15.2c-0.6,5.2-0.8,10.5-0.7,15.9c0,2.7,0.1,5.4,0.2,8.1l0.1,2v1l0.1,0.9l0.1,1.9
		c0.1,0.6,0.2,1.2,0.3,1.8c0.7,4.9,2.5,9.4,5.1,13.3c2.7,3.9,6.1,7.4,10.2,10.1c8.1,5.6,18,9,28.1,11.3c10.2,2.2,20.7,3.3,31.3,3.8
		c5.3,0.2,10.6,0.2,15.9,0.1s10.6-0.3,15.9-0.7c10.5-0.8,21-2.2,31-4.8c5-1.3,9.8-2.9,14.4-5c4.5-2.1,8.9-4.6,12.5-7.8l1.3-1.2
		l1.2-1.3l0.6-0.6l0.6-0.7l1.1-1.4c1.4-1.9,2.7-3.9,3.7-6C359.5-293.9,360.4-298.7,360.6-303.6z"/>
</g>
<g>
	<path d="M-109.7-489.6c-0.4,12.7-3.9,25.4-10.9,36c-3.5,5.3-7.7,10-12.8,13.8c-5.1,3.7-11,6.4-17.2,7.3c-3.1,0.5-6.3,0.5-9.5,0.1
		c-3.1-0.4-6.2-1.2-9.2-2.5c-5.8-2.5-11-6.3-15.3-11c-4.2-4.7-7.7-10.1-10.3-15.8c-2.6-5.8-4.4-11.9-5.4-18.2
		c-0.5-3.1-0.8-6.3-1-9.5c0-1.6,0-3.3,0-4.9c0.1-1.6,0.3-3.3,0.5-4.9c1-6.5,3.3-12.8,6.9-18.5c3.6-5.7,8.3-10.6,14-14.3
		c5.6-3.8,12.2-6.2,19-7.1c6.8-0.9,13.8-0.2,20.3,2.2c3.2,1.2,6.3,2.7,9.2,4.6l2.1,1.4c0.7,0.5,1.3,1.1,2,1.6
		c0.6,0.5,1.3,1.1,1.9,1.6l1.8,1.8c4.7,4.9,8.3,10.7,10.6,16.9C-110.6-502.7-109.5-496.1-109.7-489.6z"/>
	<path class="st4" d="M-120.1-485.2c0,25.9-15.9,46.9-35.4,46.9s-35.4-21-35.4-46.9c0-20.6,15.9-37.3,35.4-37.3
		S-120.1-505.8-120.1-485.2z"/>
	<path d="M-58.1-352.4c0.1,6-0.8,12.2-3.2,18c-1.2,2.9-2.7,5.6-4.4,8.2l-1.4,1.9l-0.7,0.9l-0.8,0.9l-1.5,1.7l-1.6,1.6
		c-0.5,0.6-1.1,1.1-1.7,1.6l-1.7,1.5c-1.2,0.9-2.4,1.9-3.6,2.7c-1.2,0.9-2.5,1.7-3.8,2.4c-1.3,0.8-2.6,1.5-3.9,2.2
		c-5.2,2.8-10.6,4.9-16.1,6.6c-11,3.4-22.3,5.2-33.5,6.1c-11.2,0.8-22.4,0.8-33.6,0.1c-11.2-0.8-22.4-2.2-33.5-5.2
		c-5.5-1.5-11-3.3-16.3-5.6c-5.3-2.3-10.5-5.3-15.2-9c-4.7-3.6-8.9-8.3-12.1-13.6c-3.1-5.4-5-11.4-5.4-17.4
		c-0.1-0.8-0.1-1.5-0.2-2.2v-2.2v-1.1v-1l0.1-2.1c0.1-2.7,0.2-5.5,0.4-8.3c0.3-5.5,0.8-11.1,1.8-16.7s2.6-11.1,4.9-16.3
		c2.3-5.2,5.4-10.2,9.3-14.4c3.9-4.2,8.5-7.7,13.4-10.5s10.1-4.9,15.4-6.6c2.6-0.9,5.3-1.5,8-2.2l4.1-0.8l2-0.4
		c0.7-0.1,1.4-0.2,2-0.3l4.1-0.6c1.4-0.2,2.7-0.3,4.1-0.5c1.4-0.1,2.7-0.3,4.1-0.4l4.1-0.3c5.5-0.4,11-0.5,16.4-0.6
		c2.7-0.1,5.5,0,8.2,0s5.5,0.2,8.2,0.3c10.9,0.5,21.9,1.7,32.7,4.4c2.7,0.6,5.3,1.5,8,2.3l3.9,1.4c1.3,0.5,2.6,1.1,3.9,1.7
		c5.1,2.4,10,5.3,14.4,9.1c4.4,3.7,8.1,8.3,11,13.3c2.9,5,4.9,10.5,6.3,16.1C-58.6-374.7-58.4-363.3-58.1-352.4z"/>
	<ellipse class="st5" cx="-155.5" cy="-360.2" rx="72.4" ry="51.2"/>
</g>
<g>
	<g>
		<path d="M561.9-441.2c0,31.1-19,56.3-42.5,56.3s-42.5-25.2-42.5-56.3c0-24.7,19-44.8,42.5-44.8C542.8-486,561.9-466,561.9-441.2z"
			/>
		<path d="M565.2-441.2c-0.4,12.7-3.9,25.4-10.9,36c-3.5,5.3-7.7,10-12.8,13.8c-5.1,3.7-11,6.4-17.2,7.3c-3.1,0.5-6.3,0.5-9.5,0.1
			c-3.1-0.4-6.2-1.2-9.2-2.5c-5.8-2.5-11-6.3-15.3-11c-4.2-4.7-7.7-10.1-10.3-15.8c-2.6-5.8-4.4-11.9-5.4-18.2
			c-0.5-3.1-0.8-6.3-1-9.5c0-1.6,0-3.3,0-4.9c0.1-1.6,0.3-3.3,0.5-4.9c1-6.5,3.3-12.8,6.9-18.5s8.3-10.6,14-14.3
			c5.6-3.8,12.2-6.2,19-7.1s13.8-0.2,20.3,2.2c3.2,1.2,6.3,2.7,9.2,4.6l2.1,1.4c0.7,0.5,1.3,1.1,2,1.6c0.6,0.5,1.3,1.1,1.9,1.6
			l1.8,1.8c4.7,4.9,8.3,10.7,10.6,16.9C564.3-454.4,565.3-447.8,565.2-441.2z M558.5-441.2c-0.2-5.7-1.5-11.3-3.9-16.4
			s-5.7-9.6-9.8-13.2c-8.1-7.3-19-11.1-29.7-10s-20.7,7.2-27.2,16.2c-3.3,4.5-5.6,9.7-6.9,15.2c-0.2,1.4-0.5,2.8-0.8,4.2
			c-0.1,1.4-0.3,2.8-0.4,4.3c-0.1,2.9,0,5.9,0.2,8.8c0.5,5.8,1.8,11.7,3.8,17.2c2.1,5.5,5,10.8,8.7,15.3c3.8,4.5,8.4,8.4,13.8,10.8
			c5.3,2.4,11.4,3.4,17.2,2.5c5.8-0.8,11.4-3.4,16-7.2c4.6-3.7,8.3-8.5,11.1-13.7s4.8-10.8,6-16.5
			C558.2-429.5,558.7-435.4,558.5-441.2z"/>
	</g>
	<path class="st4" d="M552.4-433.5c0,24.2-14.8,43.8-33,43.8s-33-19.6-33-43.8c0-19.2,14.8-34.8,33-34.8S552.4-452.7,552.4-433.5z"
		/>
	<g>
		<path class="st4" d="M542.3-424.1c0,16.8-10.3,30.3-22.9,30.3c-12.6,0-22.9-13.6-22.9-30.3c0-13.3,10.3-24.1,22.9-24.1
			C532-448.3,542.3-437.5,542.3-424.1z"/>
		<path d="M545.1-424.1c-0.4,7-2.3,14-6.3,19.7c-2,2.9-4.3,5.5-7.1,7.5c-2.8,2.1-6.1,3.5-9.5,4.1c-0.9,0.1-1.7,0.1-2.6,0.2
			c-0.9,0-1.8-0.1-2.6-0.1c-0.9-0.2-1.7-0.3-2.6-0.5c-0.8-0.3-1.7-0.5-2.5-0.8c-3.3-1.4-6.2-3.5-8.6-6c-2.4-2.6-4.4-5.5-5.9-8.7
			s-2.6-6.5-3.2-10c-0.1-0.9-0.3-1.7-0.4-2.6l-0.3-2.6c0-0.9,0-1.8,0-2.8c0-0.9,0.2-1.9,0.2-2.8c0.5-3.7,1.8-7.4,3.8-10.6
			c2-3.3,4.7-6.1,8-8.3c3.2-2.2,7.1-3.6,11-4.2c1-0.1,2-0.2,3-0.2s2,0.1,3,0.2c1,0.2,2,0.3,3,0.5c1,0.3,1.9,0.5,2.9,0.9
			c1.9,0.7,3.7,1.6,5.3,2.7l1.2,0.8c0.4,0.3,0.8,0.6,1.1,0.9l1.1,1l1,1.1C543-439.1,545.4-431.4,545.1-424.1z M539.5-424.1l-0.2-2.2
			l-0.4-2.1c-0.2-0.7-0.4-1.4-0.7-2.1s-0.6-1.3-0.9-2c-1.3-2.5-3.1-4.7-5.2-6.4c-4.2-3.4-9.4-5.1-14.6-4.6c-2.6,0.2-5.1,1.1-7.4,2.4
			c-2.3,1.3-4.4,3.2-6,5.4c-1.7,2.2-2.9,4.8-3.6,7.5c-0.1,0.7-0.3,1.4-0.4,2.1c-0.1,0.7-0.2,1.4-0.2,2.2l-0.1,2.3
			c0,0.8,0.1,1.5,0.1,2.3c0.4,6.1,2.2,12.3,6.1,17.1c1.9,2.4,4.3,4.5,7.1,5.7c2.8,1.3,5.9,1.9,8.9,1.4c3-0.4,5.9-1.8,8.3-3.7
			c2.4-2,4.3-4.5,5.8-7.2c1.4-2.8,2.4-5.7,3-8.8C539.4-418,539.6-421.1,539.5-424.1z"/>
	</g>
	<g>
		<path d="M612-303.1c0,36.2-41.5,50.1-92.7,50.1s-92.7-14-92.7-50.1s0-80.8,92.7-80.8S612-339.3,612-303.1z"/>
		<path d="M616.7-303.1c0.1,6-0.8,12.2-3.2,18c-1.2,2.9-2.7,5.6-4.4,8.2l-1.4,1.9l-0.7,0.9l-0.8,0.9l-1.5,1.7l-1.6,1.6
			c-0.5,0.6-1.1,1.1-1.7,1.6l-1.7,1.5c-1.2,0.9-2.4,1.9-3.6,2.7c-1.2,0.9-2.5,1.7-3.8,2.4c-1.3,0.8-2.6,1.5-3.9,2.2
			c-5.2,2.8-10.6,4.9-16.1,6.6c-11,3.4-22.3,5.2-33.5,6.1c-11.2,0.8-22.4,0.8-33.6,0.1c-11.2-0.8-22.4-2.2-33.5-5.2
			c-5.5-1.5-11-3.3-16.3-5.6c-5.3-2.3-10.5-5.3-15.2-9c-4.7-3.6-8.9-8.3-12.1-13.6c-3.1-5.4-5-11.4-5.4-17.4
			c-0.1-0.8-0.1-1.5-0.2-2.2v-2.2v-1.1v-1l0.1-2.1c0.1-2.7,0.2-5.5,0.4-8.3c0.3-5.5,0.8-11.1,1.8-16.7s2.6-11.1,4.9-16.3
			c2.3-5.2,5.4-10.2,9.3-14.4c3.9-4.2,8.5-7.7,13.4-10.5s10.1-4.9,15.4-6.6c2.6-0.9,5.3-1.5,8-2.2l4.1-0.8l2-0.4
			c0.7-0.1,1.4-0.2,2-0.3l4.1-0.6c1.4-0.2,2.7-0.3,4.1-0.5c1.4-0.1,2.7-0.3,4.1-0.4l4.1-0.3c5.5-0.4,11-0.5,16.4-0.6
			c2.7-0.1,5.5,0,8.2,0s5.5,0.2,8.2,0.3c10.9,0.5,21.9,1.7,32.7,4.4c2.7,0.6,5.3,1.5,8,2.3l3.9,1.4c1.3,0.5,2.6,1.1,3.9,1.7
			c5.1,2.4,10,5.3,14.4,9.1c4.4,3.7,8.1,8.3,11,13.3s4.9,10.5,6.3,16.1C616.2-325.3,616.4-314,616.7-303.1z M607.4-303.1
			c0.1-5.5,0.3-10.8,0.1-16.1c-0.2-5.3-0.5-10.5-1.5-15.6c-0.9-5.1-2.4-10-4.6-14.7c-2.2-4.6-5.3-8.8-8.9-12.4
			c-3.7-3.6-8-6.7-12.7-9.2c-1.2-0.6-2.3-1.3-3.6-1.8l-3.7-1.6c-1.2-0.5-2.5-0.9-3.8-1.4s-2.5-0.8-3.8-1.2
			c-10.3-3.1-21.1-4.6-31.9-5.3c-10.8-0.6-21.7-0.5-32.5,0.4l-4,0.4c-1.3,0.1-2.7,0.3-4,0.5s-2.7,0.3-4,0.6l-4,0.7
			c-0.7,0.1-1.3,0.2-2,0.4l-2,0.5c-1.3,0.3-2.6,0.6-3.9,0.9c-2.6,0.8-5.2,1.4-7.7,2.4c-10.1,3.5-19.6,8.9-26.2,17
			c-3.3,4-5.9,8.5-7.7,13.4c-1.8,4.8-2.9,10-3.6,15.2c-0.6,5.2-0.8,10.5-0.7,15.9c0,2.7,0.1,5.4,0.2,8.1l0.1,2v1l0.1,0.9l0.1,1.9
			c0.1,0.6,0.2,1.2,0.3,1.8c0.7,4.9,2.5,9.4,5.1,13.3c2.7,3.9,6.1,7.4,10.2,10.1c8.1,5.6,18,9,28.1,11.3c10.2,2.2,20.7,3.3,31.3,3.8
			c5.3,0.2,10.6,0.2,15.9,0.1c5.3-0.1,10.6-0.3,15.9-0.7c10.5-0.8,21-2.2,31-4.8c5-1.3,9.8-2.9,14.4-5c4.5-2.1,8.9-4.6,12.5-7.8
			l1.3-1.2l1.2-1.3l0.6-0.6l0.6-0.7l1.1-1.4c1.4-1.9,2.7-3.9,3.7-6C606.2-293.4,607.2-298.2,607.4-303.1z"/>
	</g>
	<ellipse class="st6" cx="519.4" cy="-304.4" rx="72.4" ry="51.2"/>
	<g>
		<ellipse class="st4" cx="519.4" cy="-296.4" rx="52.7" ry="37.2"/>
		<path d="M576-296.4c-0.3,6.8-2.9,13.3-7,18.4c-4,5.1-9.1,9-14.5,11.9c-10.9,5.8-23,8.3-35.1,8.6c-12.1,0.2-24.4-2.1-35.4-8
			c-5.5-3-10.7-6.8-14.7-12c-4.1-5.1-6.9-11.7-7.3-18.7s1.8-14.2,5.5-20c3.8-5.8,8.8-10.6,14.4-14.2c11.3-7.3,24.5-10.6,37.5-10.7
			c6.5,0,13.1,0.8,19.4,2.6c6.3,1.8,12.4,4.6,17.9,8.4s10.3,8.6,13.9,14.4C574.2-310.2,576.2-303.2,576-296.4z M568.1-296.4
			c-0.3-5.1-2.4-9.9-5.7-13.7c-3.3-3.9-7.6-6.9-12.3-9.2c-4.7-2.3-9.8-3.8-14.9-4.9c-5.2-1.1-10.5-1.6-15.8-1.7
			c-10.6-0.1-21.4,2-30.6,6.9c-4.6,2.4-8.7,5.5-11.8,9.4c-3.1,3.8-5.1,8.4-5.5,13.2c-0.3,4.9,0.9,10,3.8,14.5
			c2.8,4.5,6.8,8.5,11.5,11.6c9.4,6.3,21,9.4,32.6,9.6c2.9,0,5.8-0.1,8.7-0.4c2.9-0.3,5.7-0.9,8.5-1.6s5.5-1.7,8.2-2.9
			c2.6-1.2,5.2-2.6,7.5-4.1c4.7-3.2,8.8-7.2,11.7-11.8C566.9-286.2,568.3-291.4,568.1-296.4z"/>
	</g>
</g>
<g>
	<path d="M1390.2,577.4c0,31.1-19,56.3-42.5,56.3s-42.5-25.2-42.5-56.3c0-24.7,19-44.8,42.5-44.8
		C1371.2,532.6,1390.2,552.6,1390.2,577.4z"/>
	<path d="M1393.5,577.4c-0.4,12.7-3.9,25.4-10.9,36c-3.5,5.3-7.7,10-12.8,13.8c-5.1,3.7-11,6.4-17.2,7.3c-3.1,0.5-6.3,0.5-9.5,0.1
		c-3.1-0.4-6.2-1.2-9.2-2.5c-5.8-2.5-11-6.3-15.3-11c-4.2-4.7-7.7-10.1-10.3-15.8c-2.6-5.8-4.4-11.9-5.4-18.2
		c-0.5-3.1-0.8-6.3-1-9.5c0-1.6,0-3.3,0-4.9c0.1-1.6,0.3-3.3,0.5-4.9c1-6.5,3.3-12.8,6.9-18.5s8.3-10.6,14-14.3
		c5.6-3.8,12.2-6.2,19-7.1c6.8-0.9,13.8-0.2,20.3,2.2c3.2,1.2,6.3,2.7,9.2,4.6l2.1,1.4c0.7,0.5,1.3,1.1,2,1.6
		c0.6,0.5,1.3,1.1,1.9,1.6l1.8,1.8c4.7,4.9,8.3,10.7,10.6,16.9C1392.6,564.2,1393.7,570.8,1393.5,577.4z M1386.9,577.4
		c-0.2-5.7-1.5-11.3-3.9-16.4c-2.4-5.1-5.7-9.6-9.8-13.2c-8.1-7.3-19-11.1-29.7-10s-20.7,7.2-27.2,16.2c-3.3,4.5-5.6,9.7-6.9,15.2
		c-0.2,1.4-0.5,2.8-0.8,4.2c-0.1,1.4-0.3,2.8-0.4,4.3c-0.1,2.9,0,5.9,0.2,8.8c0.5,5.8,1.8,11.7,3.8,17.2c2.1,5.5,5,10.8,8.7,15.3
		c3.8,4.5,8.4,8.4,13.8,10.8c5.3,2.4,11.4,3.4,17.2,2.5c5.8-0.8,11.4-3.4,16-7.2c4.6-3.7,8.3-8.5,11.1-13.7c2.8-5.2,4.8-10.8,6-16.5
		C1386.6,589.1,1387.1,583.2,1386.9,577.4z"/>
</g>
<path class="st4" d="M1380.8,585.1c0,24.2-14.8,43.8-33,43.8s-33-19.6-33-43.8c0-19.2,14.8-34.8,33-34.8S1380.8,565.9,1380.8,585.1z
	"/>
<g>
	<path d="M1370.6,594.5c0,16.8-10.3,30.3-22.9,30.3s-22.9-13.6-22.9-30.3c0-13.3,10.3-24.1,22.9-24.1S1370.6,581.1,1370.6,594.5z"/>
	<path class="st4" d="M1373.4,594.5c-0.4,7-2.3,14-6.3,19.7c-2,2.9-4.3,5.5-7.1,7.5c-2.8,2.1-6.1,3.5-9.5,4.1
		c-0.9,0.1-1.7,0.1-2.6,0.2c-0.9,0-1.8-0.1-2.6-0.1c-0.9-0.2-1.7-0.3-2.6-0.5c-0.8-0.3-1.7-0.5-2.5-0.8c-3.3-1.4-6.2-3.5-8.6-6
		c-2.4-2.6-4.4-5.5-5.9-8.7s-2.6-6.5-3.2-10c-0.1-0.9-0.3-1.7-0.4-2.6l-0.3-2.6c0-0.9,0-1.8,0-2.8c0-0.9,0.2-1.9,0.2-2.8
		c0.5-3.7,1.8-7.4,3.8-10.6c2-3.3,4.7-6.1,8-8.3c3.2-2.2,7.1-3.6,11-4.2c1-0.1,2-0.2,3-0.2s2,0.1,3,0.2c1,0.2,2,0.3,3,0.5
		c1,0.3,1.9,0.5,2.9,0.9c1.9,0.7,3.7,1.6,5.3,2.7l1.2,0.8c0.4,0.3,0.8,0.6,1.1,0.9l1.1,1l1,1.1
		C1371.4,579.5,1373.7,587.2,1373.4,594.5z M1367.8,594.5l-0.2-2.2l-0.4-2.1c-0.2-0.7-0.4-1.4-0.7-2.1c-0.3-0.7-0.6-1.3-0.9-2
		c-1.3-2.5-3.1-4.7-5.2-6.4c-4.2-3.4-9.4-5.1-14.6-4.6c-2.6,0.2-5.1,1.1-7.4,2.4c-2.3,1.3-4.4,3.2-6,5.4c-1.7,2.2-2.9,4.8-3.6,7.5
		c-0.1,0.7-0.3,1.4-0.4,2.1c-0.1,0.7-0.2,1.4-0.2,2.2l-0.1,2.3c0,0.8,0.1,1.5,0.1,2.3c0.4,6.1,2.2,12.3,6.1,17.1
		c1.9,2.4,4.3,4.5,7.1,5.7c2.8,1.3,5.9,1.9,8.9,1.4c3-0.4,5.9-1.8,8.3-3.7c2.4-2,4.3-4.5,5.8-7.2c1.4-2.8,2.4-5.7,3-8.8
		C1367.8,600.6,1368,597.5,1367.8,594.5z"/>
</g>
<g>
	<path d="M1440.4,715.5c0,36.2-41.5,50.1-92.7,50.1s-92.7-14-92.7-50.1s0-80.8,92.7-80.8S1440.4,679.3,1440.4,715.5z"/>
	<path d="M1445.1,715.5c0.1,6-0.8,12.2-3.2,18c-1.2,2.9-2.7,5.6-4.4,8.2l-1.4,1.9l-0.7,0.9l-0.8,0.9l-1.5,1.7l-1.6,1.6
		c-0.5,0.6-1.1,1.1-1.7,1.6l-1.7,1.5c-1.2,0.9-2.4,1.9-3.6,2.7c-1.2,0.9-2.5,1.7-3.8,2.4c-1.3,0.8-2.6,1.5-3.9,2.2
		c-5.2,2.8-10.6,4.9-16.1,6.6c-11,3.4-22.3,5.2-33.5,6.1c-11.2,0.8-22.4,0.8-33.6,0.1c-11.2-0.8-22.4-2.2-33.5-5.2
		c-5.5-1.5-11-3.3-16.3-5.6s-10.5-5.3-15.2-9c-4.7-3.6-8.9-8.3-12.1-13.6c-3.1-5.4-5-11.4-5.4-17.4c-0.1-0.8-0.1-1.5-0.2-2.2v-2.2
		v-1.1v-1l0.1-2.1c0.1-2.7,0.2-5.5,0.4-8.3c0.3-5.5,0.8-11.1,1.8-16.7c1-5.6,2.6-11.1,4.9-16.3s5.4-10.2,9.3-14.4s8.5-7.7,13.4-10.5
		s10.1-4.9,15.4-6.6c2.6-0.9,5.3-1.5,8-2.2l4.1-0.8l2-0.4c0.7-0.1,1.4-0.2,2-0.3l4.1-0.6c1.4-0.2,2.7-0.3,4.1-0.5
		c1.4-0.1,2.7-0.3,4.1-0.4l4.1-0.3c5.5-0.4,11-0.5,16.4-0.6c2.7-0.1,5.5,0,8.2,0s5.5,0.2,8.2,0.3c10.9,0.5,21.9,1.7,32.7,4.4
		c2.7,0.6,5.3,1.5,8,2.3l3.9,1.4c1.3,0.5,2.6,1.1,3.9,1.7c5.1,2.4,10,5.3,14.4,9.1c4.4,3.7,8.1,8.3,11,13.3s4.9,10.5,6.3,16.1
		C1444.6,693.3,1444.8,704.6,1445.1,715.5z M1435.7,715.5c0.1-5.5,0.3-10.8,0.1-16.1c-0.2-5.3-0.5-10.5-1.5-15.6
		c-0.9-5.1-2.4-10-4.6-14.7c-2.2-4.6-5.3-8.8-8.9-12.4c-3.7-3.6-8-6.7-12.7-9.2c-1.2-0.6-2.3-1.3-3.6-1.8l-3.7-1.6
		c-1.2-0.5-2.5-0.9-3.8-1.4s-2.5-0.8-3.8-1.2c-10.3-3.1-21.1-4.6-31.9-5.3c-10.8-0.6-21.7-0.5-32.5,0.4l-4,0.4
		c-1.3,0.1-2.7,0.3-4,0.5s-2.7,0.3-4,0.6l-4,0.7c-0.7,0.1-1.3,0.2-2,0.4l-2,0.5c-1.3,0.3-2.6,0.6-3.9,0.9c-2.6,0.8-5.2,1.4-7.7,2.4
		c-10.1,3.5-19.6,8.9-26.2,17c-3.3,4-5.9,8.5-7.7,13.4c-1.8,4.8-2.9,10-3.6,15.2c-0.6,5.2-0.8,10.5-0.7,15.9c0,2.7,0.1,5.4,0.2,8.1
		l0.1,2v1l0.1,0.9l0.1,1.9c0.1,0.6,0.2,1.2,0.3,1.8c0.7,4.9,2.5,9.4,5.1,13.3c2.7,3.9,6.1,7.4,10.2,10.1c8.1,5.6,18,9,28.1,11.3
		c10.2,2.2,20.7,3.3,31.3,3.8c5.3,0.2,10.6,0.2,15.9,0.1c5.3-0.1,10.6-0.3,15.9-0.7c10.5-0.8,21-2.2,31-4.8c5-1.3,9.8-2.9,14.4-5
		c4.5-2.1,8.9-4.6,12.5-7.8l1.3-1.2l1.2-1.3l0.6-0.6l0.6-0.7l1.1-1.4c1.4-1.9,2.7-3.9,3.7-6C1434.6,725.2,1435.5,720.4,1435.7,715.5
		z"/>
</g>
<ellipse class="st6" cx="1347.7" cy="714.2" rx="72.4" ry="51.2"/>
<g>
	<ellipse cx="1347.7" cy="722.2" rx="52.7" ry="37.2"/>
	<path class="st4" d="M1404.3,722.2c-0.3,6.8-2.9,13.3-7,18.4c-4,5.1-9.1,9-14.5,11.9c-10.9,5.8-23,8.3-35.1,8.6
		c-12.1,0.2-24.4-2.1-35.4-8c-5.5-3-10.7-6.8-14.7-12c-4.1-5.1-6.9-11.7-7.3-18.7s1.8-14.2,5.5-20c3.8-5.8,8.8-10.6,14.4-14.2
		c11.3-7.3,24.5-10.6,37.5-10.7c6.5,0,13.1,0.8,19.4,2.6s12.4,4.6,17.9,8.4c5.5,3.8,10.3,8.6,13.9,14.4
		C1402.6,708.4,1404.6,715.4,1404.3,722.2z M1396.4,722.2c-0.3-5.1-2.4-9.9-5.7-13.7c-3.3-3.9-7.6-6.9-12.3-9.2
		c-4.7-2.3-9.8-3.8-14.9-4.9c-5.2-1.1-10.5-1.6-15.8-1.7c-10.6-0.1-21.4,2-30.6,6.9c-4.6,2.4-8.7,5.5-11.8,9.4
		c-3.1,3.8-5.1,8.4-5.5,13.2c-0.3,4.9,0.9,10,3.8,14.5c2.8,4.5,6.8,8.5,11.5,11.6c9.4,6.3,21,9.4,32.6,9.6c2.9,0,5.8-0.1,8.7-0.4
		c2.9-0.3,5.7-0.9,8.5-1.6c2.8-0.7,5.5-1.7,8.2-2.9c2.6-1.2,5.2-2.6,7.5-4.1c4.7-3.2,8.8-7.2,11.7-11.8
		C1395.3,732.4,1396.7,727.2,1396.4,722.2z"/>
</g>
<g>
	<g>
		<path d="M2040,681.8c2.1,3.8,3.9,7.8,5.6,11.9c1.7,4.1,3.1,8.2,4.2,12.5c2.4,8.5,3.7,17.4,3.6,26.4c-0.1,9-1.5,18.2-5.1,26.9
			c-1.8,4.3-4.1,8.5-6.9,12.4c-2.8,3.9-6.2,7.4-10.1,10.4c-3.9,3-8.2,5.3-12.9,7c-4.6,1.6-9.5,2.6-14.3,2.9
			c-9.7,0.6-19.2-1.3-27.9-4.8c-8.7-3.5-16.5-8.5-23.5-14.4c-6.9-5.9-13-12.8-18-20.2c-2.5-3.7-4.8-7.6-6.9-11.6
			c-2.1-4.1-3.8-8.4-5.1-12.8c-2.6-8.9-3.4-18.3-2.3-27.4c1.1-9.1,4-18.1,8.8-26c4.7-7.9,11.2-14.8,18.9-19.8
			c7.6-5.1,16.4-8.3,25.5-9.4c9-1.1,18.2-0.2,26.7,2.6C2017.3,653.8,2031.7,666.2,2040,681.8z M2035.6,684.2
			c-1.9-3.7-4.1-7.1-6.7-10.3c-2.6-3.2-5.5-6.1-8.7-8.8c-6.4-5.2-13.8-9-21.7-11.2c-7.9-2.1-16.1-2.5-24-1.1s-15.4,4.6-21.9,9.2
			c-6.5,4.6-11.8,10.6-15.7,17.5c-3.8,6.9-6.1,14.6-6.8,22.5c-0.7,7.8,0.2,15.8,2.6,23.3c1.2,3.7,2.8,7.3,4.7,10.8
			c2,3.6,4.1,7,6.5,10.3c4.7,6.6,10.2,12.5,16.4,17.5c6.2,5,13.1,9.1,20.4,11.8s15,4,22.3,3.3c7.4-0.6,14.3-3.3,20.4-7.4
			c3-2.1,5.8-4.5,8.3-7.3c2.4-2.8,4.6-6,6.4-9.4c3.6-6.9,5.8-14.6,6.7-22.7c0.5-4,0.6-8.1,0.4-12.2c-0.2-4.1-0.7-8.2-1.5-12.3
			c-0.8-4-1.9-8.1-3.3-12C2039.1,691.7,2037.4,687.9,2035.6,684.2z"/>
	</g>
	<g>
		<path d="M2097.2,980c-2.2,1.8-4.5,3.7-6.9,5.4s-4.9,3.2-7.4,4.7c-5.1,2.8-10.5,5.3-16,7.3s-11.2,3.7-16.9,5
			c-2.8,0.7-5.7,1.2-8.6,1.8c-1.4,0.3-2.9,0.5-4.3,0.7c-1.4,0.2-2.9,0.5-4.3,0.6l-4.3,0.6l-4.3,0.4c-2.9,0.3-5.8,0.5-8.6,0.7
			c-5.8,0.3-11.5,0.6-17.3,0.6h-4.4c-1.5,0-2.9-0.1-4.4-0.1c-1.5-0.1-2.9-0.1-4.4-0.2l-4.4-0.3c-2.9-0.2-5.8-0.6-8.8-0.9
			c-2.9-0.4-5.8-0.8-8.7-1.3c-2.9-0.6-5.8-1-8.7-1.7l-4.3-1l-4.3-1.1c-2.9-0.7-5.7-1.7-8.5-2.5c-1.4-0.4-2.8-1-4.2-1.5
			c-1.4-0.5-2.8-1-4.2-1.5c-5.5-2.1-10.9-4.6-16.2-7.4c-5.2-2.8-10.4-5.8-15.2-9.4c-9.7-6.9-18.6-15.2-25.8-24.9
			c-3.5-4.9-6.7-10.1-9.3-15.6c-2.6-5.5-4.5-11.3-5.8-17.1c-0.3-1.5-0.7-2.9-0.9-4.4l-0.6-4.5c-0.2-3-0.5-6-0.5-9
			c-0.1-6,0.6-11.8,1.5-17.6c1.9-11.5,5-22.7,9.2-33.4c2.2-5.4,4.6-10.6,7.6-15.7l2.3-3.7l2.6-3.6c0.9-1.2,1.9-2.3,2.9-3.5
			c1-1.1,2-2.2,3-3.2c4.2-4.1,8.8-7.8,13.8-10.9c4.9-3.1,10.2-5.8,15.6-7.9c10.8-4.4,22.1-7,33.4-8.9c11.3-1.8,22.8-2.7,34.1-3.3
			c11.4-0.5,22.7-0.8,34.1-0.9c11.4,0,22.9,0.4,34.4,1.5s23.1,3.1,34.5,6.7c5.7,1.8,11.3,4.1,16.7,6.9c5.4,2.8,10.6,6.1,15.4,10.1
			c2.4,1.9,4.7,4.1,6.8,6.3c1.1,1.2,2.1,2.4,3.2,3.6c1,1.2,1.9,2.5,2.9,3.8c3.6,5.1,6.5,10.5,9,16s4.6,11.1,6.4,16.8
			c1.8,5.7,3.2,11.5,4.3,17.4c0.3,1.5,0.5,3,0.8,4.4c0.3,1.5,0.5,3,0.6,4.5c0.2,1.5,0.4,3,0.5,4.5s0.3,3,0.3,4.7
			c0.3,3.3-0.3,6.6-0.6,9.9c-0.6,3.2-1.1,6.4-2.1,9.5c-1.9,6.3-4.7,12.4-8.6,17.8c-3.9,5.4-8.6,10.1-13.8,14
			c-10.5,7.7-22.4,12.3-34.3,14.9l-4.5,0.9c-1.5,0.3-3,0.5-4.5,0.7l-2.2,0.3l-2.2,0.3l-4.5,0.5c-6,0.5-11.9,0.7-17.8,0.6
			c-11.9-0.2-23.6-1.4-35.1-3.6c-11.5-2.1-22.9-4.9-33.9-8.6c-5.5-1.9-11-3.8-16.4-6l-4.1-1.7l-4-1.8c-2.7-1.2-5.3-2.5-7.9-3.8
			c-10.5-5.3-20.4-11.6-29.7-18.8c-1.2-0.9-2.3-1.8-3.5-2.7l-3.4-2.8l-3.3-2.9l-1.6-1.5l-1.6-1.5l-3.2-3.1l-3.1-3.2l-1.5-1.6
			l-1.5-1.6c-1-1.1-2-2.2-2.9-3.3c-3.8-4.5-7.4-9.2-10.6-14.1c-0.8-1.2-1.6-2.5-2.4-3.7l-1.2-1.9l-1.1-1.9c-0.7-1.3-1.4-2.6-2.1-3.9
			l-1.9-4c-2.5-5.4-4.6-10.9-6.2-16.6c-1.6-5.7-2.6-11.6-3-17.4c-0.9-11.8,1-23.8,5.6-34.4c0.4-1,1.6-1.5,2.6-1
			c0.9,0.4,1.4,1.4,1.1,2.4l0,0c-3.2,10.5-3.9,21.6-2.1,32.3c0.9,5.3,2.3,10.6,4.1,15.6c1.9,5.1,4.2,10,6.8,14.7
			c2.6,4.7,5.7,9.2,8.9,13.6c3.2,4.3,6.8,8.5,10.5,12.4c7.5,7.8,15.9,14.9,24.8,21.1l3.4,2.3c1.1,0.8,2.3,1.5,3.4,2.2
			c2.3,1.5,4.6,2.8,7,4.2c2.3,1.4,4.8,2.6,7.1,3.9c2.4,1.2,4.8,2.5,7.3,3.6c9.9,4.6,20.1,8.3,30.6,11.4c10.5,3.1,21.2,5.6,31.9,7.3
			c5.4,0.9,10.8,1.5,16.2,2c5.4,0.4,10.8,0.8,16.2,0.7c1.3,0,2.7,0,4,0l4-0.2l2-0.1l2-0.1l4-0.3l3.9-0.5l2-0.2l1.9-0.3
			c1.3-0.2,2.6-0.4,3.9-0.7l3.8-0.8c10.1-2.3,19.7-6.1,27.5-11.8c3.8-2.9,7.2-6.2,10-9.9s4.8-8,6.2-12.5c0.8-2.2,1.2-4.6,1.7-7
			c0.2-2.3,0.8-4.6,0.6-6.9c0-1.1-0.1-2.5-0.2-3.8c-0.1-1.3-0.2-2.6-0.3-3.9c-0.1-1.3-0.2-2.6-0.4-3.9c-0.2-1.3-0.3-2.6-0.6-3.9
			c-0.8-5.3-2-10.5-3.4-15.7s-3-10.3-5-15.1c-2-4.9-4.3-9.6-7-13.8c-0.7-1-1.4-2.1-2.1-3.1c-0.8-0.9-1.5-1.9-2.3-2.9
			c-1.7-1.9-3.4-3.8-5.3-5.5c-7.5-7-16.8-12.1-26.8-15.9c-10-3.8-20.7-6.2-31.7-7.8c-10.9-1.7-22.1-2.5-33.3-3
			c-11.2-0.5-22.5-0.7-33.7-0.6c-11.2,0.2-22.4,0.8-33.4,2.3c-5.5,0.7-11,1.7-16.3,3c-5.4,1.3-10.7,2.8-15.8,4.9
			c-5.1,2-10,4.4-14.6,7.3c-4.6,2.9-8.9,6.3-12.7,10.1c-0.9,1-1.9,2-2.8,3c-0.8,1-1.7,2-2.5,3.1l-2.3,3.3l-2.1,3.5
			c-2.7,4.7-4.9,9.8-6.8,14.9c-1.9,5.2-3.4,10.5-4.7,15.9c-1.2,5.4-2.2,10.8-2.7,16.3c-1.2,10.9-0.8,21.7,2.3,31.8
			c1.5,5.1,3.5,9.9,6.1,14.6c2.6,4.6,5.6,8.9,9,13c6.8,8,15,14.9,24.1,20.6l3.4,2.1c1.2,0.7,2.3,1.3,3.5,2l1.7,1l1.8,0.9
			c1.2,0.6,2.4,1.2,3.6,1.8c2.5,1.1,4.9,2.3,7.4,3.2c1.2,0.5,2.5,1,3.7,1.5l3.8,1.4c10.1,3.7,20.7,6.2,31.3,8.1
			c5.3,0.9,10.7,1.6,16.1,2.1l4.1,0.4c1.4,0.1,2.7,0.2,4.1,0.3s2.7,0.2,4.1,0.2l4.1,0.1c1.4,0.1,2.7,0.1,4.1,0.1l4.2,0.1
			c2.8,0,5.5,0,8.3,0c5.5,0,11-0.2,16.5-0.5c2.8-0.1,5.5-0.4,8.2-0.5c2.7-0.3,5.5-0.5,8.2-0.8c5.4-0.6,10.8-1.5,16.2-2.6l4-0.9
			c1.3-0.3,2.6-0.7,4-1c2.7-0.6,5.2-1.6,7.8-2.4c2.6-1,5.2-1.8,7.7-3c2.6-1,5-2.3,7.5-3.5l0.1-0.1c1-0.4,2.1,0,2.6,1
			C2098.2,978.5,2097.9,979.5,2097.2,980z"/>
	</g>
</g>
<path d="M1762.4,805.6c0,79.7-56.8,196-126.9,196s-126.9-116.3-126.9-196s56.8-92.5,126.9-92.5S1762.4,726,1762.4,805.6z"/>
<g>
	<g>
		<path d="M1630.4,920.3c-1,0-2.1,0-3.2-0.1c-0.5,0-1.5,0-1.5,0h-1.1c-1.2,0-2.4-0.1-3.5-0.2l-4.4-0.3c-2.3-0.1-4.5-0.4-6.6-0.6
			c-0.8-0.1-1.6-0.2-2.5-0.3h-0.2c-2.8-0.4-5.7-0.8-8.9-1.4h-0.2c-0.9-0.2-1.8-0.3-2.7-0.5c-2-0.4-4.1-0.8-6.2-1.3l-4.4-1l-4.3-1.2
			c-2.2-0.5-4.2-1.2-6.2-1.8c-0.9-0.3-1.7-0.5-2.6-0.8c-1.2-0.4-2.2-0.7-3.3-1.1c-0.4-0.2-2.1-0.7-2.1-0.7c-1.2-0.4-2.4-0.8-3.6-1.4
			c-5.4-2.1-10.9-4.6-16.9-7.7l-0.1-0.1c-4.5-2.4-10.4-5.8-16-9.9c-11-7.8-20.2-16.8-27.4-26.6c-3.9-5.4-7.3-11-10-16.8
			s-4.9-12.1-6.3-18.7v-0.2c-0.1-0.5-0.2-0.9-0.3-1.4c-0.2-1-0.5-2.2-0.7-3.4l-0.7-4.7l-0.1-1.6c-0.2-2.6-0.4-5.4-0.4-8.2
			c-0.1-5.6,0.4-11.5,1.6-18.7c2-12.1,5.3-23.9,9.7-35c1.5-3.7,3-7,4.6-10.2c-0.1-1.2-0.3-2.5-0.3-3.7c-1-12.9,1.1-26,6.2-37.9
			c1.5-3.5,4.9-5.7,8.7-5.7c1.3,0,2.6,0.3,3.8,0.8c4.4,1.9,6.7,6.8,5.3,11.4v0.1c-0.7,2.5-1.3,5-1.8,7.4c2.7-2.2,5.7-4.3,8.7-6.3
			c5.1-3.2,10.8-6.1,16.8-8.6c10.1-4.1,21.6-7.2,35.1-9.3c3.8-0.6,7.6-1.1,11.7-1.6c-3.2-2.1-6.4-4.5-9.4-7.1
			c-7.4-6.4-13.9-13.7-19.4-21.7c-2.8-4.2-5.3-8.3-7.4-12.4c-2.3-4.6-4.2-9.3-5.6-14.2c-2.9-9.8-3.7-20.3-2.5-30.4
			c1.2-10.3,4.6-20.3,9.8-29c5.4-9,12.7-16.7,21.2-22.2c8.5-5.7,18.5-9.3,28.7-10.6c2.8-0.3,5.6-0.5,8.4-0.5
			c7.3,0,14.6,1.1,21.6,3.4c18.7,6,34.8,19.5,44.1,37.1c2.2,4.1,4.2,8.4,5.9,12.6c1.7,4.1,3.2,8.7,4.5,13.3
			c2.6,9.5,3.9,19.1,3.9,28.4c-0.1,10.8-2,20.8-5.7,29.7c-2.1,5.1-4.7,9.8-7.8,14c-2,2.7-4.2,5.3-6.6,7.6c3.2,0.2,6.3,0.4,9.3,0.7
			c13.6,1.3,25.4,3.6,36,7c6.2,1.9,12.2,4.4,17.8,7.3c6,3.1,11.7,6.8,16.7,11c2.3,1.9,4.7,4,7.4,6.8l0.2,0.2
			c0.8,0.9,1.6,1.8,2.4,2.7l1.1,1.3c0.8,1,1.5,1.9,2.2,2.8c0.3,0.4,0.6,0.8,0.9,1.2l0.2,0.2c3.5,5,6.7,10.6,9.7,17.2
			c2.4,5.2,4.6,11,6.7,17.7c1.9,6.1,3.4,12.2,4.5,18.2c0.2,1.2,0.4,2.3,0.6,3.3c0.1,0.4,0.1,0.9,0.2,1.3c0.2,1.4,0.5,3,0.7,4.8
			c0.2,1.5,0.4,3.2,0.5,4.9l0.1,1c0.1,1.1,0.2,2.4,0.2,3.8c0.2,3.2-0.1,6.2-0.4,8.9c-0.1,0.7-0.1,1.4-0.2,2.1v0.4
			c0,0-0.3,1.5-0.4,2.1c-0.5,2.8-1,5.6-2,8.6c-2.2,7.5-5.5,14.2-9.7,20c-4.1,5.8-9.3,11.1-15.4,15.6c-8.8,6.4-19.1,11.3-30.8,14.6
			c2.4,0.9,4.4,2.6,5.4,5c1.8,3.9,0.7,8.5-2.6,11.2l-0.5,0.4c-2.1,1.8-4.4,3.6-6.9,5.3c-2.1,1.5-4.3,2.8-6.4,4.1l-1.6,0.9l-0.1,0.1
			c-5.6,3.1-11.4,5.7-17.1,7.8c-6.4,2.3-12.2,4-17.7,5.2c-2.1,0.5-4.2,0.9-6.1,1.3c-0.9,0.2-1.8,0.3-2.7,0.5h-0.2
			c-1.1,0.2-2.2,0.4-3.3,0.5l-1.2,0.2c-1.2,0.2-2.9,0.5-4.6,0.7l-4.3,0.6l-4.4,0.4c-2.4,0.3-4.8,0.4-7.1,0.6l-1.9,0.1h-0.3
			c-5.6,0.3-11.3,0.6-17.1,0.6L1630.4,920.3z M1627.3,889.1c0.5,0,1,0.1,1.5,0.1c0.8,0.1,1.5,0.1,2.3,0.1l4.1,0.1
			c1.2,0,2.5,0.1,3.9,0.1l4.3,0.1c1.4,0,2.9,0,4.4,0c1.2,0,2.4,0,3.7,0c5.6,0,11-0.2,16.2-0.5h0.1c1.5-0.1,3-0.2,4.6-0.3
			c1.1-0.1,2.2-0.2,3.3-0.2c0.9-0.1,1.7-0.2,2.6-0.2c1.8-0.2,3.5-0.3,5.1-0.6h0.3c5.6-0.6,11.1-1.7,15.4-2.5l3.9-0.9
			c0.7-0.2,1.4-0.3,2.1-0.6c0.5-0.1,1.1-0.3,1.6-0.4c1.6-0.4,3.2-0.9,4.8-1.5c0.8-0.3,1.6-0.5,2.5-0.8c0.5-0.2,1-0.4,1.5-0.6
			c1.9-0.7,3.7-1.4,5.4-2.1l0.2-0.1l0.2-0.1c0.7-0.3,1.4-0.6,2.1-0.9c-0.7,0.1-1.4,0.2-2.1,0.3l-3.8,0.6l-2.4,0.3l-4.7,0.5h-0.1
			c-5.8,0.4-10.5,0.6-14.9,0.6c-1.2,0-2.5,0-3.7-0.1c-11.8-0.2-24-1.4-36.2-3.7c-12.4-2.3-24.1-5.3-34.9-8.9
			c-5.1-1.7-11-3.8-16.9-6.2l-4.2-1.7l-4.1-1.9c-2.2-1-4.2-2-6.2-3c-0.6-0.3-1.3-0.6-1.9-1c-10.6-5.4-21-11.9-30.9-19.5
			c-1.2-0.8-2.2-1.7-3.2-2.5l-4-3.3l-5.2-4.6l-5-4.8l-3.2-3.3l-1.6-1.7c0,0-2.3-2.5-2.6-2.9c-0.7-0.7-1.3-1.5-2-2.2
			c-4.3-5.1-7.9-10-11.2-14.8c-0.7-1.1-1.4-2.2-2-3.2l-1.7-2.8l-1.2-2.2c-0.2-0.4-0.5-0.8-0.7-1.3c-0.5-0.9-1-1.8-1.5-2.8l-0.9-1.8
			c-1,4.5-1.6,8.8-2,12.9c-1.2,11.3-0.5,20.7,2,28.9c1.4,4.8,3.3,9.2,5.5,13.1c2.3,4,5,8,8.2,11.8c6.1,7.2,13.7,13.6,22.3,19l3.3,2
			c0.6,0.3,1.1,0.6,1.7,1c0.6,0.3,1.1,0.6,1.7,0.9l1.6,0.9c0,0,2.7,1.3,3.2,1.6c0.6,0.3,1.2,0.6,1.9,0.9c0.7,0.3,1.4,0.6,2.1,1
			c1.7,0.8,3.2,1.5,4.8,2.1c0.6,0.2,1.1,0.5,1.6,0.7c0.7,0.3,1.3,0.6,2,0.8l3.8,1.4c8.9,3.2,18.7,5.8,30,7.8
			c5.6,0.9,10.7,1.6,15.6,2.1l4,0.4c0.7,0.1,1.4,0.1,2.1,0.1C1626.1,889.1,1626.7,889.1,1627.3,889.1z M1694.5,846.9
			c0.5,0,1,0,1.5,0l5.8-0.2l5.7-0.4l3.8-0.4l1.8-0.2l1.8-0.3c0.5-0.1,1-0.2,1.5-0.2c0.7-0.1,1.4-0.2,2.1-0.4l3.7-0.8
			c9.8-2.3,18.1-5.8,24.6-10.5c3.3-2.5,6.2-5.4,8.4-8.4c2.2-2.9,3.9-6.3,5.1-10.3l0.1-0.2l0.1-0.2c0.4-1,0.7-2.4,1-3.9
			c0.1-0.6,0.2-1.1,0.4-1.7c0.1-0.6,0.2-1.2,0.2-1.9c0.2-1.3,0.3-2.4,0.3-3.2v-0.3v-0.3c0-0.6,0-1.6-0.1-2.4l-0.1-1
			c0-1.1-0.2-2.3-0.3-3.5v-0.1c-0.1-1.4-0.2-2.5-0.4-3.5c-0.1-0.5-0.1-1-0.2-1.5c-0.1-0.8-0.2-1.5-0.3-2.2v-0.2
			c-0.7-4.5-1.7-9.4-3.2-14.8c-1.5-5.4-3-10.1-4.7-14.2c-2-4.9-4.1-9-6.3-12.5c-0.3-0.4-0.5-0.8-0.8-1.1c-0.4-0.5-0.7-1.1-1-1.5
			s-0.7-0.8-1-1.2s-0.7-0.9-1.1-1.3c-1.5-1.6-3-3.3-4.7-4.8l-0.1-0.1c-6.3-5.8-14.5-10.7-24.4-14.4c-8.7-3.2-18.5-5.7-30.1-7.4
			c-9.3-1.4-19.3-2.3-32.5-2.9c-9.6-0.4-18.1-0.6-26-0.6c-2.4,0-4.8,0-7.2,0.1c-12.1,0.2-22.8,0.9-32.5,2.2
			c-5.2,0.7-10.5,1.7-15.6,2.9c-5.6,1.3-10.4,2.8-14.7,4.6c-4.9,2-9.5,4.2-13.5,6.7c-4.1,2.6-7.9,5.6-11.4,9.1
			c-0.8,0.8-1.6,1.7-2.4,2.5c-0.3,0.4-0.6,0.8-1,1.2c-0.4,0.5-0.8,1-1.2,1.5l-2,2.9l-0.4,0.6c0.6,2.1,1.2,4.2,2,6.5
			c1.6,4.4,3.7,9,6.3,13.6c2.6,4.6,5.7,9,8.3,12.7c2.9,3.9,6.1,7.7,9.9,11.7c7,7.2,14.9,14,23.6,20l3.3,2.3c0.7,0.5,1.4,0.9,2.1,1.3
			c0.4,0.2,0.8,0.5,1.2,0.7c2,1.3,4,2.5,6.1,3.7l0.6,0.3c1.4,0.8,2.8,1.6,4.3,2.4c0.9,0.5,1.7,0.9,2.6,1.4c0.8,0.4,1.6,0.8,2.4,1.2
			c1.6,0.8,3,1.5,4.5,2.2c9.2,4.2,19.1,8,29.7,11.1c10.3,3,20.7,5.4,31,7.1c5.3,0.9,10.6,1.5,15.6,2c4.4,0.3,9.7,0.7,14.8,0.7h0.6
			L1694.5,846.9z M1620.7,564.5c-2.8,0-5.6,0.2-8.3,0.7c-6.7,1.2-13.2,3.9-18.8,7.9c-5.5,3.9-10.2,9.1-13.4,15.1
			c-3.3,5.8-5.3,12.6-5.9,19.5c-0.6,6.8,0.2,13.8,2.3,20.3c1.1,3.2,2.4,6.4,4.1,9.5c1.7,3.2,3.8,6.4,6,9.5c4.3,6,9.3,11.4,15.1,16.1
			c5.7,4.7,11.9,8.2,18.2,10.6c5.4,2,10.7,3,15.8,3c1.1,0,2.2,0,3.3-0.1c5.9-0.5,11.7-2.6,16.9-6.1c2.5-1.7,4.8-3.8,6.8-6.1
			c2-2.4,3.9-5.1,5.4-8c3.1-5.8,5.1-12.8,5.9-20c0.4-3.5,0.5-7.2,0.4-11c-0.2-3.7-0.7-7.5-1.4-11.2c-0.9-4.1-1.8-7.7-3-10.9
			c-1.3-3.6-2.8-7.2-4.5-10.6c-1.7-3.2-3.6-6.3-5.9-9.1c-2.1-2.7-4.7-5.2-7.6-7.6c-5.5-4.5-12-7.9-18.8-9.7
			C1629.1,565.1,1625,564.5,1620.7,564.5z"/>
		<path class="st4" d="M1617.5,550.3c6.6,0,13.1,1,19.3,3c17.1,5.5,31.5,17.9,39.8,33.5c2.1,3.9,3.9,7.8,5.6,11.9
			c1.7,4.1,3.1,8.2,4.2,12.5c2.3,8.5,3.7,17.4,3.6,26.4s-1.5,18.2-5.1,26.9c-1.8,4.3-4.1,8.5-6.9,12.4s-6.2,7.4-10.1,10.4
			s-8.2,5.4-12.9,7c-1.5,0.5-3.1,1-4.7,1.4c0.4,0,0.9,0,1.3,0c11.4,0,22.9,0.4,34.4,1.5s23.1,3,34.5,6.6c5.7,1.8,11.3,4.1,16.7,6.9
			c5.4,2.8,10.6,6.1,15.4,10.1c2.4,1.9,4.7,4.1,6.8,6.3c1.1,1.2,2.1,2.4,3.2,3.6c1,1.2,1.9,2.5,2.9,3.8c3.6,5.1,6.5,10.5,9,16
			s4.6,11.1,6.4,16.8s3.2,11.5,4.3,17.4c0.3,1.5,0.5,3,0.8,4.4c0.3,1.5,0.5,3,0.6,4.5c0.2,1.5,0.4,3,0.5,4.5s0.3,3,0.3,4.7
			c0.3,3.3-0.3,6.6-0.6,9.9c-0.6,3.2-1.1,6.4-2.1,9.5c-1.9,6.3-4.7,12.4-8.6,17.8c-3.9,5.4-8.6,10.1-13.8,14
			c-10.5,7.7-22.4,12.3-34.3,14.9l-4.5,0.9c-1.5,0.3-3,0.5-4.5,0.7l-2.2,0.4l-2.2,0.3l-4.5,0.5c-4.8,0.4-9.6,0.6-14.3,0.6
			c-1.2,0-2.3,0-3.5,0c-11.8-0.2-23.6-1.5-35.1-3.6s-22.9-4.9-33.9-8.6c-5.5-1.9-11-3.8-16.4-6.1l-4.1-1.7l-4-1.8
			c-2.7-1.2-5.3-2.5-7.9-3.8c-10.5-5.3-20.4-11.6-29.7-18.8c-1.2-0.9-2.3-1.8-3.5-2.7l-3.4-2.8l-3.3-2.9l-1.6-1.5l-1.6-1.5l-3.2-3
			l-3.1-3.2l-1.5-1.6l-1.5-1.6c-1-1.1-2-2.2-2.9-3.3c-3.8-4.5-7.4-9.2-10.6-14.1c-0.8-1.2-1.6-2.5-2.3-3.7l-1.2-1.9l-1.1-1.9
			c-0.7-1.3-1.4-2.6-2.1-3.9l-2-4c-2.5-5.4-4.6-10.9-6.2-16.6c-0.1-0.4-0.2-0.8-0.3-1.1c-0.4,1.1-0.8,2.2-1.2,3.2
			c-1.9,5.2-3.4,10.5-4.7,15.9c-1.2,5.4-2.2,10.8-2.7,16.3c-1.2,10.9-0.9,21.7,2.3,31.8c1.5,5.1,3.5,10,6.1,14.6s5.6,8.9,9,13
			c6.9,8,15,14.9,24.1,20.6l3.4,2.1c1.2,0.7,2.3,1.3,3.5,1.9l1.7,1l1.8,0.9c1.2,0.6,2.4,1.2,3.6,1.8c2.4,1.1,4.9,2.3,7.4,3.2
			c1.2,0.5,2.5,1,3.7,1.5l3.8,1.4c10.1,3.7,20.7,6.2,31.3,8.2c5.3,0.9,10.7,1.6,16.1,2.1l4.1,0.4c1.3,0.1,2.7,0.2,4.1,0.3
			s2.7,0.2,4.1,0.2l4.1,0.1c1.4,0,2.7,0.1,4.1,0.1l4.2,0.1c1.5,0,3,0,4.6,0c1.3,0,2.5,0,3.7,0c5.5,0,11.1-0.2,16.5-0.5
			c2.8-0.1,5.5-0.4,8.2-0.5c2.7-0.3,5.5-0.5,8.2-0.9c5.5-0.6,10.8-1.5,16.2-2.6l4-0.9c1.3-0.3,2.6-0.7,3.9-1
			c2.7-0.7,5.2-1.6,7.8-2.4c2.6-1,5.2-1.8,7.7-3c2.6-1,5-2.3,7.6-3.5l0.1-0.1c0.3-0.1,0.5-0.2,0.8-0.2c0.7,0,1.5,0.4,1.8,1.1
			c0.4,0.8,0.1,1.8-0.5,2.3c-2.2,1.8-4.5,3.7-6.9,5.4s-4.9,3.2-7.4,4.7c-5.1,2.8-10.5,5.3-16,7.3s-11.2,3.7-16.9,5
			c-2.9,0.7-5.7,1.2-8.6,1.8c-1.4,0.3-2.9,0.5-4.3,0.7s-2.9,0.5-4.3,0.6l-4.3,0.6l-4.3,0.4c-2.9,0.3-5.8,0.5-8.6,0.7
			c-5.7,0.3-11.3,0.6-17,0.6c-0.1,0-0.2,0-0.3,0h-4.4c-1.5,0-2.9-0.1-4.4-0.1c-1.5-0.1-2.9-0.1-4.4-0.2l-4.4-0.3
			c-2.9-0.2-5.8-0.6-8.8-0.9c-2.9-0.4-5.8-0.9-8.7-1.3c-2.9-0.6-5.8-1-8.7-1.7l-4.3-1l-4.3-1.1c-2.9-0.7-5.7-1.7-8.5-2.5
			c-1.4-0.4-2.8-1-4.2-1.5c-1.4-0.5-2.8-1-4.2-1.6c-5.5-2.1-10.9-4.6-16.2-7.4c-5.2-2.8-10.4-5.8-15.2-9.4
			c-9.7-6.9-18.6-15.2-25.8-24.9c-3.5-4.9-6.7-10.1-9.2-15.6c-2.6-5.5-4.5-11.2-5.8-17.1c-0.3-1.5-0.7-2.9-0.9-4.4l-0.6-4.5
			c-0.2-3-0.5-6-0.5-9c-0.1-6,0.6-11.8,1.5-17.6c1.9-11.5,5-22.7,9.2-33.4c1.6-3.9,3.3-7.8,5.3-11.6c-0.3-1.9-0.5-3.8-0.6-5.7
			c-1-11.8,1-23.8,5.6-34.4c0.3-0.7,1-1.2,1.8-1.2c0.3,0,0.5,0.1,0.8,0.2c0.9,0.4,1.4,1.4,1.1,2.4l0,0c-2.8,9.4-3.7,19.2-2.6,28.8
			l1.1-1.6c0.9-1.2,1.9-2.3,2.8-3.4c1-1.1,2-2.2,3.1-3.2c4.2-4.1,8.8-7.8,13.8-10.9c5-3.1,10.2-5.8,15.6-7.9
			c10.8-4.4,22.1-7.1,33.4-8.9c11.3-1.8,22.8-2.7,34.1-3.3c2.7-0.1,5.5-0.2,8.2-0.3c-4.4-0.8-8.8-2.1-12.9-3.8
			c-8.7-3.5-16.5-8.4-23.5-14.4c-6.9-5.9-13-12.8-18.1-20.2c-2.5-3.7-4.8-7.6-6.9-11.6c-2.1-4.1-3.8-8.4-5.1-12.9
			c-2.6-8.9-3.4-18.3-2.3-27.4c1.1-9.1,4-18.1,8.8-26c4.7-7.9,11.2-14.8,18.9-19.8c7.6-5.1,16.4-8.3,25.5-9.4
			C1612.5,550.4,1615,550.3,1617.5,550.3 M1635.7,684.2c1.3,0,2.6-0.1,3.9-0.2c7.4-0.6,14.3-3.3,20.4-7.4c3-2.1,5.8-4.5,8.3-7.3
			c2.4-2.8,4.6-6,6.4-9.4c3.6-6.9,5.8-14.6,6.7-22.7c0.5-4,0.6-8.1,0.4-12.2c-0.2-4.1-0.7-8.2-1.5-12.3c-0.8-4-1.9-8.1-3.3-12
			s-3.1-7.7-4.9-11.5c-1.9-3.7-4.1-7.1-6.7-10.4c-2.6-3.2-5.5-6.1-8.7-8.8c-6.3-5.2-13.8-9.1-21.7-11.2c-4.7-1.3-9.6-1.9-14.4-1.9
			c-3.2,0-6.5,0.3-9.6,0.8c-7.9,1.4-15.4,4.6-21.9,9.2c-6.4,4.6-11.8,10.6-15.7,17.5c-3.8,6.9-6.1,14.6-6.8,22.5
			c-0.7,7.9,0.2,15.8,2.6,23.3c1.2,3.7,2.8,7.3,4.7,10.8c1.9,3.5,4.1,7,6.5,10.3c4.7,6.6,10.2,12.5,16.4,17.5
			c6.2,5,13.1,9.1,20.4,11.8C1623.3,682.9,1629.6,684.2,1635.7,684.2 M1691.5,854.4c0.2,0,0.5,0,0.7,0c0.8,0,1.5,0,2.3,0
			c0.6,0,1.2,0,1.7,0l4-0.2l2-0.1l2-0.2l4-0.3l3.9-0.5l2-0.2l1.9-0.3c1.3-0.2,2.6-0.4,3.9-0.6l3.8-0.8c10.1-2.3,19.7-6.1,27.5-11.8
			c3.8-2.9,7.2-6.2,10-9.9s4.8-8,6.2-12.5c0.8-2.2,1.2-4.6,1.7-7c0.2-2.3,0.8-4.6,0.6-6.9c0-1.1-0.1-2.5-0.2-3.8s-0.2-2.6-0.3-3.9
			c-0.1-1.3-0.2-2.6-0.4-3.9c-0.2-1.3-0.3-2.6-0.6-3.9c-0.8-5.3-2-10.5-3.3-15.7c-1.4-5.2-3-10.3-5-15.1c-2-4.9-4.3-9.6-7-13.8
			c-0.7-1-1.4-2.1-2.1-3.1c-0.8-0.9-1.5-1.9-2.3-2.8c-1.7-1.9-3.4-3.8-5.3-5.5c-7.5-7-16.8-12.1-26.8-15.9
			c-10-3.8-20.8-6.2-31.7-7.8c-10.9-1.7-22.1-2.5-33.3-3c-8.8-0.4-17.6-0.6-26.4-0.6c-2.4,0-4.9,0-7.3,0.1
			c-11.2,0.2-22.4,0.8-33.4,2.3c-5.5,0.7-11,1.7-16.4,3s-10.7,2.8-15.8,4.9c-5.1,2-10,4.4-14.6,7.3c-4.6,2.9-8.9,6.3-12.7,10.1
			c-0.9,1-1.9,2-2.8,3c-0.8,1-1.7,2-2.5,3.1l-2.3,3.3l-2.1,3.5c0,0,0,0,0,0.1c0.8,3.4,1.8,6.8,3,10.2c1.9,5.1,4.2,10,6.8,14.7
			c2.6,4.7,5.7,9.2,8.9,13.6c3.2,4.3,6.8,8.4,10.5,12.4c7.5,7.8,15.9,14.8,24.8,21.1l3.4,2.3c1.1,0.8,2.3,1.5,3.4,2.2
			c2.3,1.5,4.6,2.8,7,4.2c2.3,1.4,4.8,2.6,7.1,3.9c2.4,1.2,4.8,2.5,7.3,3.6c9.9,4.6,20.1,8.3,30.6,11.5c10.5,3.1,21.2,5.6,31.9,7.3
			c5.4,0.9,10.8,1.5,16.2,2C1681.2,854.1,1686.4,854.4,1691.5,854.4 M1617.5,535.3L1617.5,535.3c-3.1,0-6.2,0.2-9.3,0.6
			c-11.4,1.4-22.4,5.5-31.9,11.8c-9.4,6.2-17.5,14.7-23.5,24.6c-5.7,9.5-9.4,20.5-10.8,31.9c-1.3,11.1-0.4,22.7,2.8,33.4
			c1.5,5.3,3.6,10.5,6.2,15.5c2.2,4.3,4.8,8.7,7.8,13.1c4.9,7.2,10.5,13.8,16.9,19.8c-11.8,2.2-22.1,5.1-31.4,8.9
			c-4.9,2-9.5,4.2-13.8,6.6c-1.4-4.6-4.8-8.6-9.5-10.6c-2.1-0.9-4.4-1.4-6.8-1.4c-6.8,0-12.9,4-15.6,10.3c-5.6,13-7.9,27.4-6.8,41.5
			c0,0.6,0.1,1.2,0.1,1.8c-1.3,2.7-2.6,5.6-3.8,8.7v0.1v0.1c-4.6,11.6-8,23.9-10.1,36.5v0.1v0.1c-1.2,7.6-1.7,13.9-1.7,19.9
			c0,3.2,0.2,6.2,0.4,8.8l0.1,1.3v0.5l0.1,0.5l0.6,4.5c0.2,1.6,0.5,2.9,0.8,4c0.1,0.4,0.2,0.8,0.3,1.2v0.2v0.2
			c1.6,7.1,3.9,13.9,6.8,20.2l0,0l0,0c2.9,6.2,6.5,12.2,10.7,17.9l0,0l0,0c7.7,10.4,17.5,20,29.1,28.3c6,4.4,12.1,7.8,16.8,10.4
			l0.1,0.1l0.1,0.1c6.2,3.2,11.9,5.8,17.5,8c1.4,0.6,2.7,1,3.9,1.5l0.7,0.3h0.1h0.1c0.4,0.1,0.8,0.3,1.2,0.4c1,0.4,2.2,0.8,3.5,1.2
			h0.1h0.1c0.8,0.3,1.7,0.5,2.5,0.8c2.1,0.6,4.2,1.3,6.5,1.9l4.2,1.1l0.3,0.1l0.3,0.1l4.2,1c2.3,0.6,4.5,1,6.6,1.3
			c0.9,0.2,1.7,0.3,2.6,0.5h0.2h0.2c3.3,0.5,6.3,1,9.1,1.4h0.2h0.2c0.8,0.1,1.6,0.2,2.4,0.3c2.2,0.3,4.5,0.5,6.9,0.7l4.3,0.3l0,0
			l0,0c1.3,0.1,2.6,0.1,3.7,0.2h1.1h0.1h0.1c0.4,0,0.9,0,1.3,0c1,0,2.2,0.1,3.5,0.1h4.4h0.3c6.1,0,11.9-0.3,17.6-0.6h0.3h0.2h0.2
			l1.7-0.1c2.4-0.2,4.8-0.4,7.3-0.6l4.3-0.4h0.2h0.2l4.2-0.6c1.5-0.2,3-0.4,4.9-0.7l1.1-0.2c1.1-0.2,2.3-0.4,3.5-0.6h0.2h0.2
			c0.9-0.2,1.7-0.3,2.6-0.5c2.1-0.4,4.2-0.8,6.4-1.4c5.8-1.3,11.9-3.1,18.5-5.4l0,0l0,0c6-2.2,12.1-5,18.1-8.3l0.3-0.2l0.3-0.2
			c0.5-0.3,0.9-0.6,1.4-0.8c2.1-1.3,4.5-2.7,6.8-4.4c2.8-1.9,5.2-3.9,7.4-5.7l0.5-0.4c5.4-4.4,7.5-11.8,5.3-18.4
			c8.2-3.2,15.6-7.3,22.3-12.1h0.1h0.1c6.6-5,12.3-10.8,17-17.3c4.7-6.4,8.3-13.8,10.8-22.1c1.1-3.5,1.7-6.7,2.2-9.5
			c0.1-0.6,0.2-1.1,0.3-1.7l0.1-0.7l0.1-0.7c0.1-0.7,0.1-1.3,0.2-2c0.3-2.8,0.7-6.3,0.4-10.1c0-1.5-0.1-2.9-0.2-4
			c0-0.3-0.1-0.6-0.1-1c-0.1-1.9-0.3-3.7-0.5-5.3c-0.2-1.9-0.5-3.7-0.7-5.2c-0.1-0.4-0.1-0.8-0.2-1.2c-0.2-1.1-0.4-2.3-0.6-3.6
			c-1.2-6.2-2.7-12.6-4.7-18.9l0,0l0,0c-2.2-7-4.5-13-7.1-18.6c-3.2-6.9-6.6-12.9-10.4-18.3l-0.2-0.2l-0.2-0.2
			c-0.3-0.4-0.6-0.7-0.8-1.1c-0.7-0.9-1.5-2-2.4-3.2l-0.1-0.2l-0.2-0.2c-0.3-0.4-0.6-0.7-0.9-1.1c-0.8-0.9-1.6-1.9-2.5-2.8l-0.2-0.2
			l-0.2-0.2c-2.9-3-5.5-5.3-8-7.4c-5.5-4.5-11.5-8.5-18-11.8c-6-3.1-12.4-5.7-19-7.8c-9.8-3.1-20.6-5.3-32.7-6.8
			c2.6-3.9,4.8-8.1,6.6-12.6c4-9.8,6.1-20.7,6.2-32.4c0.1-10-1.3-20.2-4.1-30.5c-1.3-4.9-2.9-9.7-4.8-14.2c-1.8-4.5-3.9-9-6.3-13.3
			c-10.3-19.3-28-34.1-48.5-40.7C1633.7,536.5,1625.6,535.3,1617.5,535.3L1617.5,535.3z M1606.5,657.2c-5.2-4.2-9.8-9.2-13.7-14.6
			c-2.1-2.9-3.9-5.9-5.5-8.8c-1.5-2.7-2.7-5.4-3.6-8.2c-1.8-5.5-2.5-11.5-2-17.4s2.2-11.6,5-16.5c2.8-5,6.7-9.3,11.3-12.6
			c4.7-3.3,10.1-5.6,15.8-6.6c2.3-0.4,4.7-0.6,7-0.6c3.6,0,7.1,0.5,10.5,1.4c5.8,1.6,11.4,4.4,16.1,8.3c2.5,2.1,4.7,4.3,6.5,6.5
			c1.9,2.4,3.6,5,5.1,7.8c1.6,3.2,3,6.5,4.2,9.8c1,2.9,1.9,6.1,2.7,9.9c0.6,3.3,1.1,6.7,1.2,10c0.1,3.5,0,6.8-0.3,9.8l0,0l0,0
			c-0.7,6.3-2.5,12.3-5.1,17.4c-1.3,2.4-2.8,4.7-4.5,6.6c-1.6,1.8-3.4,3.4-5.4,4.8c-4.1,2.8-8.6,4.4-13.2,4.8l0,0l0,0
			c-0.8,0.1-1.7,0.1-2.6,0.1c-4.1,0-8.7-0.9-13.2-2.5C1617,664.5,1611.6,661.4,1606.5,657.2L1606.5,657.2z M1535.5,742.5
			c3.1-3,6.5-5.7,10.1-8c3.6-2.2,7.7-4.3,12.2-6.1c4-1.6,8.5-3,13.7-4.2c4.8-1.2,9.8-2.1,14.8-2.7c9.5-1.3,19.8-2,31.6-2.1
			c2.3,0,4.7-0.1,7.1-0.1c7.8,0,16.2,0.2,25.7,0.6c12.9,0.6,22.7,1.5,31.7,2.8c11.1,1.7,20.5,4,28.7,7c8.9,3.4,16.3,7.7,21.9,12.9
			l0.1,0.1l0.1,0.1c1.3,1.2,2.7,2.6,4,4.1c0.2,0.3,0.5,0.6,0.8,1s0.6,0.8,0.9,1.2c0.2,0.3,0.5,0.7,0.7,1.1c0.3,0.4,0.5,0.8,0.8,1.1
			c2,3.1,3.8,6.8,5.6,11.2c1.6,3.9,3,8.2,4.4,13.3s2.4,9.7,3,14v0.2v0.2c0.1,0.5,0.2,1.1,0.2,1.8c0.1,0.5,0.1,1.1,0.2,1.6
			c0.1,0.8,0.2,1.8,0.3,3v0.1v0.1c0.1,1.1,0.2,2.2,0.2,3v0.1v0.1l0.1,0.9c0,0.7,0.1,1.5,0.1,1.9v0.7v0.6c0,0.3-0.1,1.1-0.2,1.7
			c-0.1,0.5-0.1,1.1-0.2,1.7c-0.1,0.5-0.2,0.9-0.3,1.4c-0.2,1-0.5,2.3-0.7,2.8l-0.1,0.4l-0.1,0.4c-1,3.1-2.3,5.8-3.9,7.9l-0.1,0.1
			v0.1c-1.8,2.4-4.1,4.7-6.8,6.8c-5.6,4.1-12.9,7.2-21.8,9.2l-3.5,0.8c-0.6,0.1-1.2,0.2-1.8,0.3c-0.5,0.1-1,0.2-1.6,0.3l-1.6,0.3
			l-1.6,0.2l-3.6,0.4l-3.7,0.3l-1.7,0.1l-1.7,0.1l-3.9,0.1c-0.4,0-0.9,0-1.3,0h-1.1c-0.4,0-0.8,0-1.2,0l0,0l0,0h-0.6
			c-4.9,0-9.9-0.3-14.2-0.7c-4.9-0.5-10-1.1-15-1.9l0,0l0,0c-10-1.6-20.1-3.9-30-6.9c-10.2-3-19.8-6.6-28.6-10.7h-0.1h-0.1
			c-1.3-0.6-2.8-1.3-4.3-2.1c-0.8-0.4-1.5-0.8-2.3-1.2c-0.8-0.5-1.7-0.9-2.5-1.3c-1.4-0.8-2.7-1.5-3.9-2.2h-0.1h-0.1l-0.6-0.3
			c-2-1.2-4-2.3-5.7-3.5h-0.1h-0.1c-0.4-0.3-0.8-0.5-1.2-0.8c-0.7-0.4-1.3-0.8-1.8-1.1l-3.3-2.3c-8.2-5.7-15.8-12.2-22.5-19.1
			c-3.6-3.8-6.6-7.4-9.3-11c-2.6-3.5-5.5-7.6-7.8-11.9c-2.3-4.3-4.3-8.5-5.8-12.5c-0.3-0.9-0.6-1.8-0.9-2.7l0.3-0.4
			c0.3-0.4,0.6-0.8,1-1.2c0.3-0.3,0.6-0.7,0.9-1C1534.1,744,1534.8,743.2,1535.5,742.5L1535.5,742.5z M1529.8,841.6
			c-2.8-3.4-5.3-7-7.3-10.6c-1.9-3.5-3.5-7.4-4.8-11.5v-0.1v-0.1c-1.5-5-2.3-10.5-2.2-16.9c2.6,3.6,5.4,7.2,8.5,10.9l0.1,0.1
			l0.1,0.1c0.7,0.8,1.4,1.6,2.1,2.3c0.3,0.4,0.7,0.7,1,1.1l0,0l0,0l1.5,1.6l0.2,0.2l0.2,0.2l1.5,1.6l0,0l0,0l3.1,3.2l0.2,0.2
			l0.2,0.2l3.2,3l1.6,1.5l0.2,0.2l0.2,0.2l1.6,1.5l3.3,2.9l0.2,0.2l0.3,0.2l3.4,2.8l0.4,0.3c1,0.8,2.2,1.8,3.5,2.8
			c10.3,7.8,21,14.6,31.9,20.2h0.1h0.1c0.6,0.3,1.3,0.6,1.9,0.9c2.1,1,4.2,2.1,6.5,3.1l3.9,1.8l0.3,0.1l0.3,0.1l4.1,1.7
			c6.1,2.5,12.2,4.6,17.3,6.4l0,0l0,0c9.3,3.1,19.3,5.8,29.7,7.9c-0.1,0-0.1,0-0.2,0c-1.5,0-2.9,0-4.4,0l-4.1-0.1h-0.1h-0.1
			c-1.2,0-2.4,0-3.6-0.1l-4.1-0.1l0,0l0,0c-0.6,0-1.3-0.1-2-0.1c-0.5,0-1-0.1-1.5-0.1c-0.6,0-1.3-0.1-1.9-0.1
			c-0.7,0-1.3-0.1-1.8-0.1l-4-0.4c-4.7-0.4-9.6-1.1-15-2c-10.8-1.9-20.2-4.4-28.7-7.5l-3.7-1.4c-0.5-0.2-1.1-0.4-1.7-0.7
			c-0.6-0.2-1.1-0.5-1.7-0.7l0,0l0,0c-1.4-0.5-2.9-1.2-4.4-1.9c-0.7-0.3-1.4-0.6-2-0.9c-0.6-0.3-1.1-0.6-1.7-0.8
			c-0.5-0.3-1.1-0.5-1.6-0.8l-1.4-0.7l-1.4-0.8c-0.6-0.3-1.2-0.6-1.7-1c-0.5-0.3-1-0.5-1.5-0.8l-3.2-2
			C1542.3,854.1,1535.4,848.2,1529.8,841.6L1529.8,841.6z"/>
	</g>
</g>
<path class="st7" d="M1253.5-719c25.9,49.4,16.7,105.2-20.5,124.7c-37.2,19.6-88.4-4.5-114.3-53.9c-20.6-39.2-7.1-86.9,30.1-106.4
	C1186.1-774.2,1232.9-758.2,1253.5-719z"/>
<path class="st8" d="M1328.2-340.8c-32.2,22.1-75.1,27.5-122.3,27.5c-99.9,0-180.9-52.5-180.9-127.1c0-28,11.4-72,30.9-93.5
	c32.5-35.9,87.6-41.6,150-41.6c62.2,0,117.1,5.5,149.7,41.2c19.7,21.6,31.2,65.8,31.2,93.9c-5.5,82.2-119,88.8-212.6,53.9
	s-149.8-115.9-125.6-181"/>
<rect x="928.1" y="499.9" class="st9" width="337" height="72"/>
<text transform="matrix(1 0 0 1 928.1208 557.7839)" style="font-family:'LatiennePro-Medium'; font-size:77px;">Sootheze</text>
<g>
	<g>
		<path d="M1177.3,84.7c0,11-14.9,27-33.3,27s-33.3-16-33.3-27S1125.6,72,1144,72C1162.4,71.9,1177.3,73.7,1177.3,84.7z"/>
		<g>
			<path d="M1207.7,106.8c0-0.7-0.1-1.3-0.1-2c0-0.6-0.1-1.3-0.2-1.9c-0.1-0.6-0.2-1.3-0.3-1.9c-0.1-0.6-0.2-1.2-0.3-1.9
				c-0.5-2.5-1.1-4.9-1.8-7.3c-0.8-2.4-1.6-4.7-2.7-7s-2.3-4.6-3.8-6.7c-0.4-0.5-0.8-1.1-1.2-1.6c-0.4-0.5-0.9-1-1.3-1.5
				c-0.9-0.9-1.9-1.8-2.9-2.6c-2-1.7-4.2-3.1-6.4-4.2c-2.3-1.2-4.6-2.1-7-2.9c-4.8-1.5-9.6-2.3-14.4-2.8s-9.6-0.6-14.4-0.6
				c-0.2,0-0.4,0-0.5,0c0.7-0.2,1.3-0.4,2-0.6c1.9-0.7,3.8-1.7,5.4-2.9c1.6-1.2,3.1-2.7,4.2-4.4c1.2-1.6,2.2-3.4,2.9-5.2
				c1.5-3.6,2.1-7.5,2.1-11.3c0-3.8-0.5-7.5-1.5-11.1c-0.5-1.8-1.1-3.5-1.8-5.2c-0.7-1.7-1.5-3.4-2.3-5c-3.5-6.6-9.5-11.7-16.7-14
				c-3.6-1.2-7.4-1.6-11.2-1.1c-3.8,0.5-7.5,1.8-10.7,3.9s-5.9,5-7.9,8.3s-3.2,7.1-3.7,10.9s-0.1,7.8,1,11.5
				c0.5,1.9,1.3,3.7,2.1,5.4c0.9,1.7,1.8,3.3,2.9,4.9c2.1,3.1,4.7,6,7.6,8.5s6.2,4.6,9.8,6c1.7,0.7,3.5,1.2,5.4,1.6
				c-1.1,0-2.3,0.1-3.4,0.1c-4.8,0.3-9.6,0.6-14.3,1.4c-4.7,0.8-9.5,1.9-14,3.7c-2.3,0.9-4.5,2-6.5,3.3c-2.1,1.3-4,2.9-5.8,4.6
				c-0.4,0.4-0.9,0.9-1.3,1.3c-0.4,0.5-0.8,1-1.2,1.4l-0.5,0.7c-0.5-4-0.1-8.1,1.1-12.1l0,0c0.1-0.4-0.1-0.8-0.5-1s-0.9,0-1.1,0.4
				c-1.9,4.5-2.8,9.5-2.4,14.4c0.1,0.8,0.1,1.6,0.3,2.4c-0.8,1.6-1.6,3.2-2.2,4.8c-1.8,4.5-3.1,9.2-3.9,14c-0.4,2.4-0.6,4.9-0.6,7.4
				c0,1.3,0.1,2.5,0.2,3.8l0.3,1.9c0.1,0.6,0.2,1.2,0.4,1.9c0.6,2.5,1.4,4.9,2.4,7.2c1.1,2.3,2.4,4.5,3.9,6.5
				c3,4.1,6.7,7.6,10.8,10.5c2,1.5,4.2,2.7,6.4,3.9c2.2,1.1,4.5,2.2,6.8,3.1c0.6,0.2,1.2,0.4,1.7,0.6c0.6,0.2,1.2,0.4,1.8,0.6
				c1.2,0.4,2.4,0.8,3.6,1.1l1.8,0.5l1.8,0.4c1.2,0.3,2.4,0.5,3.6,0.7s2.4,0.4,3.7,0.6c1.2,0.1,2.4,0.3,3.7,0.4l1.8,0.1
				c0.6,0,1.2,0.1,1.8,0.1c0.6,0,1.2,0.1,1.8,0.1h1.8c2.4,0,4.8-0.1,7.3-0.3c1.2-0.1,2.4-0.2,3.6-0.3l1.8-0.2l1.8-0.2
				c0.6-0.1,1.2-0.2,1.8-0.3c0.6-0.1,1.2-0.2,1.8-0.3c1.2-0.2,2.4-0.4,3.6-0.7c2.4-0.5,4.7-1.3,7.1-2.1c2.3-0.8,4.6-1.9,6.7-3.1
				c1.1-0.6,2.1-1.2,3.1-2c1-0.7,2-1.5,2.9-2.2c0.3-0.2,0.4-0.6,0.2-1c-0.2-0.4-0.7-0.6-1.1-0.4h-0.1c-1.1,0.5-2.1,1-3.2,1.5
				c-1,0.5-2.1,0.9-3.2,1.3c-1.1,0.3-2.2,0.7-3.3,1c-0.6,0.1-1.1,0.3-1.7,0.4l-1.7,0.4c-2.2,0.5-4.5,0.9-6.8,1.1
				c-1.1,0.2-2.3,0.2-3.4,0.4c-1.2,0.1-2.3,0.2-3.4,0.2c-2.3,0.1-4.6,0.2-6.9,0.2c-1.2,0-2.3,0-3.5,0h-1.7c-0.6,0-1.2,0-1.7,0
				l-1.7-0.1c-0.6,0-1.1-0.1-1.7-0.1s-1.1-0.1-1.7-0.1l-1.7-0.2c-2.3-0.2-4.5-0.5-6.8-0.9c-4.5-0.8-8.9-1.9-13.1-3.4l-1.6-0.6
				c-0.5-0.2-1-0.4-1.6-0.6c-1-0.4-2.1-0.9-3.1-1.4c-0.5-0.2-1-0.5-1.5-0.8l-0.8-0.4l-0.7-0.4c-0.5-0.3-1-0.5-1.5-0.8l-1.4-0.9
				c-3.8-2.4-7.2-5.3-10.1-8.6c-1.4-1.7-2.7-3.5-3.8-5.4c-1.1-1.9-1.9-4-2.5-6.1c-1.3-4.2-1.4-8.8-1-13.3c0.2-2.3,0.6-4.6,1.1-6.8
				c0.5-2.3,1.1-4.5,2-6.7c0.2-0.5,0.3-0.9,0.5-1.4c0,0.2,0.1,0.3,0.1,0.5c0.7,2.4,1.6,4.7,2.6,6.9l0.8,1.7c0.3,0.6,0.6,1.1,0.9,1.6
				l0.5,0.8l0.5,0.8c0.3,0.5,0.6,1.1,1,1.6c1.4,2.1,2.9,4,4.4,5.9c0.4,0.5,0.8,0.9,1.2,1.4l0.6,0.7l0.6,0.7l1.3,1.3l1.3,1.3l0.7,0.6
				l0.7,0.6l1.4,1.2l1.4,1.2c0.5,0.4,1,0.8,1.4,1.1c3.9,3,8.1,5.6,12.5,7.9c1.1,0.5,2.2,1.1,3.3,1.6l1.7,0.8l1.7,0.7
				c2.3,0.9,4.6,1.8,6.9,2.5c4.6,1.5,9.4,2.7,14.2,3.6s9.7,1.4,14.7,1.5c2.5,0.1,5-0.1,7.5-0.2l1.9-0.2l0.9-0.1l0.9-0.1
				c0.6-0.1,1.2-0.2,1.9-0.3l1.9-0.4c5-1.1,10-3,14.4-6.2c2.2-1.6,4.2-3.6,5.8-5.9c1.6-2.3,2.8-4.8,3.6-7.5c0.4-1.3,0.6-2.6,0.9-4
				C1207.5,109.6,1207.8,108.2,1207.7,106.8z M1136.5,55.6c-3.1-1.1-5.9-2.8-8.5-4.9s-4.9-4.6-6.9-7.3c-1-1.4-1.9-2.8-2.7-4.3
				c-0.8-1.5-1.5-3-2-4.5c-1-3.1-1.4-6.5-1.1-9.8s1.2-6.5,2.9-9.4c1.6-2.9,3.9-5.4,6.6-7.3c2.7-1.9,5.9-3.3,9.2-3.8
				c3.3-0.6,6.8-0.4,10.1,0.4c3.3,0.9,6.4,2.5,9.1,4.7c1.3,1.1,2.6,2.3,3.6,3.7c1.1,1.3,2,2.8,2.8,4.3c0.8,1.6,1.5,3.2,2.1,4.8
				s1,3.3,1.4,5c0.3,1.7,0.5,3.4,0.6,5.1c0.1,1.7,0,3.4-0.2,5.1c-0.4,3.4-1.3,6.6-2.8,9.5c-0.8,1.4-1.7,2.8-2.7,3.9
				c-1,1.2-2.2,2.2-3.5,3.1c-2.5,1.7-5.5,2.8-8.5,3.1C1142.7,57.3,1139.5,56.8,1136.5,55.6z M1200.1,109.8c-0.2,1-0.4,2-0.7,2.9
				c-0.6,1.9-1.4,3.7-2.6,5.2c-1.2,1.6-2.6,3-4.2,4.2c-3.3,2.4-7.3,4-11.5,4.9l-1.6,0.3c-0.5,0.1-1.1,0.2-1.6,0.3l-0.8,0.1l-0.8,0.1
				l-1.7,0.2l-1.7,0.1l-0.8,0.1h-0.8l-1.7,0.1c-0.6,0-1.1,0-1.7,0c-2.3,0-4.5-0.1-6.8-0.3s-4.5-0.5-6.8-0.9c-4.5-0.7-9-1.7-13.4-3.1
				c-4.4-1.3-8.7-2.9-12.8-4.8c-1-0.5-2-1-3.1-1.5c-1-0.6-2-1.1-3-1.6c-1-0.6-2-1.1-2.9-1.8c-0.5-0.3-1-0.6-1.4-0.9l-1.4-1
				c-3.7-2.6-7.2-5.5-10.4-8.8c-1.6-1.7-3-3.4-4.4-5.2c-1.3-1.8-2.6-3.7-3.7-5.7s-2.1-4-2.8-6.2c-0.5-1.4-0.9-2.8-1.3-4.3l0,0
				l0.9-1.5l1-1.4c0.3-0.4,0.7-0.9,1.1-1.3s0.8-0.8,1.2-1.2c1.6-1.6,3.4-3,5.3-4.2s4-2.2,6.1-3.1s4.4-1.5,6.6-2
				c2.3-0.5,4.5-1,6.9-1.3c4.6-0.6,9.3-0.9,14-1s9.4,0,14.1,0.2s9.4,0.6,13.9,1.2c4.6,0.7,9.1,1.7,13.3,3.3
				c4.2,1.6,8.1,3.8,11.2,6.7c0.8,0.7,1.5,1.5,2.2,2.3c0.3,0.4,0.6,0.8,1,1.2c0.3,0.4,0.6,0.9,0.9,1.3c1.1,1.8,2.1,3.7,2.9,5.8
				c0.8,2,1.5,4.2,2.1,6.3c0.6,2.2,1.1,4.4,1.4,6.6c0.1,0.5,0.2,1.1,0.2,1.7c0.1,0.6,0.1,1.1,0.2,1.6s0.1,1.1,0.1,1.6
				s0.1,1.1,0.1,1.6C1200.4,107.9,1200.2,108.9,1200.1,109.8z"/>
			<path d="M1136.5,0c-1.1,0-2.2,0.1-3.3,0.2c-4,0.5-7.8,1.9-11.1,4.1c-3.3,2.2-6.1,5.2-8.2,8.6c-2,3.4-3.3,7.3-3.8,11.3
				s-0.1,8.1,1,11.9c0.5,1.9,1.3,3.8,2.2,5.6c0.8,1.6,1.8,3.3,2.9,5c2.2,3.2,4.8,6.1,7.7,8.7c3.1,2.6,6.4,4.7,10,6.1
				c-4.7,0.3-8.4,0.7-12,1.3c-5.5,0.9-10.1,2.1-14.2,3.8c-2.4,1-4.7,2.1-6.7,3.4c-2.2,1.4-4.2,3-5.9,4.7c-0.5,0.5-0.9,0.9-1.3,1.4
				l-0.1,0.1c-0.1-3.1,0.3-6.1,1.2-9.1c0.3-0.9-0.2-1.8-1-2.2c-0.2-0.1-0.5-0.2-0.7-0.2c-0.7,0-1.4,0.4-1.7,1.1
				c-2,4.7-2.8,9.8-2.4,14.9c0.1,0.7,0.1,1.4,0.2,2.1c-0.7,1.4-1.4,3-2.1,4.6c-1.8,4.5-3.1,9.3-3.9,14.2c-0.5,2.9-0.7,5.3-0.6,7.5
				c0,1.1,0.1,2.2,0.2,3.3v0.6l0,0l0,0l0.3,1.9c0.1,0.4,0.2,0.9,0.2,1.3c0,0.2,0.1,0.4,0.1,0.6c0.6,2.6,1.4,5.1,2.5,7.4
				c1.1,2.3,2.4,4.5,4,6.7c2.9,3.9,6.6,7.5,11,10.7c2.3,1.6,4.7,3,6.5,4c2.5,1.3,4.7,2.3,6.9,3.1c0.5,0.2,1,0.4,1.4,0.5l0.3,0.1
				c0.2,0.1,0.4,0.1,0.6,0.2c0.4,0.1,0.8,0.3,1.2,0.4c0.4,0.1,0.7,0.2,1.1,0.3c0.8,0.3,1.6,0.5,2.5,0.7l1.8,0.5l1.8,0.4
				c0.8,0.2,1.7,0.4,2.5,0.5c0.4,0.1,0.8,0.1,1.2,0.2c1.4,0.2,2.6,0.4,3.7,0.6c0.4,0,0.7,0.1,1.1,0.1c0.9,0.1,1.8,0.2,2.7,0.3
				l1.8,0.1c0.5,0,0.9,0.1,1.4,0.1h0.5c0.2,0,0.4,0,0.6,0c0.4,0,0.8,0,1.3,0h1.8h0.1c2.4,0,4.8-0.1,7.1-0.3h0.1l0.7-0.1
				c1-0.1,1.9-0.1,2.9-0.2l1.8-0.2l1.8-0.2c0.5-0.1,1.1-0.1,1.8-0.3l0.5-0.1c0.4-0.1,0.9-0.1,1.3-0.2c0.4-0.1,0.8-0.2,1.2-0.2
				c0.8-0.2,1.7-0.3,2.5-0.5c2.2-0.5,4.6-1.2,7.2-2.1c2.3-0.8,4.6-1.9,6.9-3.1l0.6-0.4c0.9-0.5,1.7-1,2.6-1.6s1.9-1.4,2.7-2.1
				l0.2-0.2c0.6-0.5,0.8-1.4,0.5-2.2c-0.3-0.7-0.9-1.1-1.7-1.1c-0.3,0-0.5,0.1-0.8,0.2h-0.1c-0.4,0.2-0.8,0.4-1.2,0.6
				c-0.7,0.3-1.3,0.6-1.9,0.9l0,0l0,0c-0.8,0.4-1.6,0.7-2.4,1c-0.2,0.1-0.5,0.2-0.7,0.3c-0.4,0.1-0.7,0.2-1.1,0.3
				c-0.7,0.2-1.4,0.5-2.1,0.6c-0.2,0.1-0.4,0.1-0.6,0.2c-0.3,0.1-0.7,0.2-1,0.3l-1.7,0.4c-1.8,0.4-4.2,0.8-6.7,1.1
				c-0.8,0.1-1.5,0.2-2.3,0.2c-0.4,0-0.8,0.1-1.1,0.1c-0.4,0-0.9,0.1-1.4,0.1c-0.7,0.1-1.4,0.1-2,0.1c-2.2,0.1-4.5,0.2-6.9,0.2
				c-0.5,0-1,0-1.6,0s-1.3,0-1.9,0h-1.7c-0.6,0-1.1,0-1.7,0l-1.7-0.1c-0.4,0-0.7,0-1.1-0.1c-0.2,0-0.4,0-0.6,0s-0.5,0-0.7,0
				c-0.3,0-0.6,0-0.9-0.1l-1.7-0.2c-2.1-0.2-4.3-0.5-6.7-0.9c-4.8-0.9-9.1-2-12.9-3.4l-1.6-0.6c-0.3-0.1-0.6-0.2-0.9-0.4
				c-0.2-0.1-0.4-0.2-0.6-0.3c-0.7-0.3-1.4-0.6-2.1-0.9c-0.3-0.1-0.6-0.3-0.9-0.4c-0.3-0.1-0.5-0.3-0.8-0.4l-0.6-0.3l-0.7-0.4
				l-0.7-0.4c-0.2-0.1-0.4-0.2-0.7-0.4c-0.3-0.1-0.5-0.3-0.8-0.4l-1.4-0.9c-3.8-2.4-7.1-5.2-9.8-8.4c-1.4-1.7-2.6-3.5-3.6-5.3
				s-1.8-3.8-2.5-5.9c-1.2-3.7-1.5-8-0.9-13c0.2-2.1,0.6-4.4,1.1-6.7c0.4-1.9,0.9-3.5,1.4-5.1c0.5,1.6,1.2,3.1,1.9,4.7l0.8,1.7
				c0.2,0.4,0.4,0.7,0.6,1.1c0.1,0.2,0.2,0.4,0.3,0.5l0.5,0.8l0.5,0.8l0.2,0.3c0.3,0.4,0.5,0.9,0.8,1.3c1.3,2,2.8,3.9,4.5,6
				c0.3,0.3,0.5,0.6,0.8,0.9l0.4,0.5l0.6,0.7l0.7,0.7l1.3,1.3l1.4,1.3l0.7,0.6l0.7,0.6l1.4,1.2l1.5,1.2l0.2,0.2
				c0.4,0.3,0.9,0.7,1.3,1c4,3.1,8.3,5.8,12.6,8c0.3,0.1,0.6,0.3,0.8,0.4c0.8,0.4,1.7,0.8,2.5,1.2l1.7,0.8l1.7,0.7
				c2.4,1,4.9,1.9,6.9,2.6c4.4,1.5,9.3,2.7,14.4,3.7c5,0.9,10,1.4,14.9,1.5c0.5,0,1,0,1.5,0c1.8,0,3.7-0.1,6.1-0.3l1.9-0.2l0.9-0.1
				l1-0.2l0.6-0.1c0.4-0.1,0.8-0.1,1.3-0.2l1.9-0.4c5.7-1.3,10.7-3.4,14.8-6.4c2.4-1.8,4.4-3.8,6-6.1c1.6-2.2,2.9-4.8,3.8-7.7
				c0.4-1.1,0.6-2.2,0.8-3.3c0-0.3,0.1-0.5,0.1-0.8l0,0l0,0c0-0.3,0.1-0.6,0.1-0.9c0.1-1.1,0.2-2.3,0.1-3.4c0-0.6-0.1-1.1-0.1-1.5
				v-0.5c0-0.7-0.1-1.3-0.2-2s-0.2-1.3-0.3-1.9c0-0.2-0.1-0.4-0.1-0.6c-0.1-0.4-0.1-0.9-0.2-1.3c-0.4-2.4-1.1-4.9-1.8-7.4
				c-0.9-2.7-1.7-5-2.7-7.2c-1.2-2.6-2.5-4.9-3.9-6.9c-0.2-0.2-0.3-0.4-0.4-0.6c-0.3-0.4-0.5-0.7-0.8-1.1l-0.4-0.5
				c-0.3-0.4-0.6-0.7-0.9-1.1c-1.1-1.1-2-2-3-2.7c-2-1.7-4.2-3.1-6.6-4.3c-2.3-1.2-4.7-2.2-7.1-2.9c-4.3-1.4-9.1-2.3-14.6-2.8
				c-3-0.3-6.3-0.5-9.8-0.6c1-0.5,1.9-1.1,2.7-1.8c1.6-1.2,3.1-2.8,4.4-4.6c1.2-1.6,2.2-3.4,3-5.4c1.4-3.5,2.2-7.4,2.2-11.6
				c0-3.7-0.5-7.5-1.5-11.3c-0.5-1.9-1.1-3.7-1.8-5.4c-0.7-1.7-1.5-3.4-2.4-5.1c-3.7-6.9-10-12.2-17.3-14.5
				C1142.2,0.4,1139.4,0,1136.5,0L1136.5,0z M1144.2,56.1c-2.4,0-4.9-0.5-7.4-1.4c-2.9-1.1-5.7-2.7-8.3-4.8
				c-2.5-2.1-4.8-4.5-6.7-7.1c-1-1.4-1.9-2.8-2.6-4.2c-0.8-1.4-1.4-2.9-1.9-4.4c-1-3-1.3-6.2-1.1-9.4c0.3-3.2,1.2-6.3,2.7-9
				c1.5-2.8,3.7-5.2,6.3-7c2.6-1.8,5.6-3.1,8.8-3.7c1.3-0.2,2.6-0.3,3.9-0.3c2,0,3.9,0.3,5.8,0.8c3.2,0.8,6.2,2.4,8.7,4.5
				c1.3,1.1,2.5,2.3,3.5,3.5c1,1.3,1.9,2.7,2.7,4.2c0.8,1.5,1.4,3.1,2,4.7c0.5,1.4,0.9,3,1.3,4.9c0.3,1.6,0.5,3.3,0.6,5s0,3.4-0.2,5
				c-0.4,3.3-1.3,6.5-2.7,9.2c-0.7,1.4-1.6,2.6-2.6,3.8c-0.9,1.1-2.1,2.1-3.3,2.9c-2.5,1.7-5.2,2.7-8.1,2.9
				C1145.2,56.1,1144.7,56.1,1144.2,56.1L1144.2,56.1z M1097.3,79c0.3-0.4,0.7-0.8,1.1-1.2c1.6-1.6,3.3-2.9,5.2-4.1
				c1.8-1.1,3.8-2.1,6-3c1.9-0.8,4-1.4,6.5-2c2.2-0.5,4.5-0.9,6.7-1.2c4.2-0.6,8.7-0.9,13.9-0.9c1,0,2,0,3,0c3.3,0,6.9,0.1,11,0.3
				c5.6,0.3,9.9,0.6,13.8,1.2c5,0.8,9.3,1.8,13.1,3.2c4.4,1.7,8.1,3.8,10.9,6.5c0.8,0.7,1.5,1.5,2.2,2.2c0.2,0.2,0.3,0.4,0.5,0.6
				c0.1,0.2,0.3,0.4,0.4,0.5c0.2,0.2,0.3,0.5,0.5,0.7c0.1,0.2,0.2,0.3,0.3,0.5c1,1.6,1.9,3.4,2.8,5.6c0.8,1.8,1.4,3.8,2.1,6.2
				c0.6,2.4,1.1,4.5,1.4,6.4c0.1,0.4,0.1,0.7,0.2,1c0,0.2,0.1,0.4,0.1,0.6c0.1,0.5,0.1,0.9,0.2,1.6c0.1,0.5,0.1,1.1,0.1,1.6v0.4
				c0,0.4,0,0.8,0,1.2l0,0l0,0c0,0.6,0,1.2-0.1,1.8c0,0.3-0.1,0.6-0.1,0.8c-0.1,0.3-0.1,0.5-0.2,0.8c-0.1,0.7-0.3,1.4-0.5,1.9l0,0
				l0,0c-0.6,1.9-1.4,3.6-2.5,4.9c-1.1,1.4-2.4,2.8-4,4c-2.9,2.1-6.7,3.7-11.1,4.8l-1.6,0.3c-0.3,0.1-0.6,0.1-1,0.2
				c-0.2,0-0.4,0.1-0.6,0.1l-0.8,0.1l-0.8,0.1l-1.6,0.2l-1.6,0.1l-0.8,0.1h-0.8l-1.7,0.1c-0.2,0-0.5,0-0.7,0h-0.5h-0.5h-0.3
				c-2.3,0-4.5-0.2-6.4-0.3c-2.1-0.2-4.4-0.5-6.7-0.8c-4.4-0.7-8.9-1.7-13.3-3c-4.5-1.3-8.8-2.9-12.7-4.7c-0.7-0.3-1.3-0.6-2-1
				c-0.3-0.2-0.7-0.3-1-0.5c-0.4-0.2-0.7-0.4-1.1-0.6c-0.6-0.3-1.3-0.7-1.9-1l-0.2-0.1c-0.9-0.5-1.8-1-2.7-1.6
				c-0.2-0.1-0.3-0.2-0.5-0.3c-0.3-0.2-0.6-0.4-0.9-0.6l-1.4-1c-3.8-2.6-7.2-5.5-10.2-8.7c-1.6-1.7-3.1-3.4-4.3-5.1
				c-1.2-1.6-2.5-3.5-3.6-5.6c-1.1-2-2.1-4.1-2.8-6c-0.5-1.3-0.8-2.6-1.1-3.8l0.7-1.1l0.9-1.3c0.2-0.2,0.4-0.5,0.6-0.7
				C1097,79.3,1097.2,79.2,1097.3,79L1097.3,79z"/>
		</g>
	</g>
	<g>
		<rect x="1015.1" y="180.3" class="st9" width="261.2" height="55.8"/>
		<text transform="matrix(1 0 0 1 1015.103 225.7893)" style="font-family:'Kazimir-Medium'; font-size:59.6796px;">Sootheze</text>
	</g>
	<g>
		<rect x="1017.4" y="247.3" class="st9" width="256.5" height="17.4"/>
		<text transform="matrix(1 0 0 1 1017.4228 263.9775)" class="st13 st14">T</text>
		<text transform="matrix(1 0 0 1 1032.8229 263.9775)" class="st13 st14">H</text>
		<text transform="matrix(1 0 0 1 1050.6228 263.9775)" class="st13 st14">E</text>
		<text transform="matrix(1 0 0 1 1065.1228 263.9775)" class="st13 st14" style="letter-spacing:1;">R</text>
		<text transform="matrix(1 0 0 1 1082.7229 263.9775)" class="st13 st14">A</text>
		<text transform="matrix(1 0 0 1 1099.2229 263.9775)" class="st13 st14">P</text>
		<text transform="matrix(1 0 0 1 1115.4229 263.9775)" class="st13 st14">Y</text>
		<text transform="matrix(1 0 0 1 1129.6228 263.9775)" class="st13 st14"> </text>
		<text transform="matrix(1 0 0 1 1137.4229 263.9775)" class="st13 st14">P</text>
		<text transform="matrix(1 0 0 1 1152.5228 263.9775)" class="st13 st14">R</text>
		<text transform="matrix(1 0 0 1 1168.3229 263.9775)" class="st13 st14">O</text>
		<text transform="matrix(1 0 0 1 1188.8229 263.9775)" class="st13 st14">D</text>
		<text transform="matrix(1 0 0 1 1207.8229 263.9775)" class="st13 st14">U</text>
		<text transform="matrix(1 0 0 1 1226.0228 263.9775)" class="st13 st14">C</text>
		<text transform="matrix(1 0 0 1 1245.0228 263.9775)" class="st13 st14">T</text>
		<text transform="matrix(1 0 0 1 1259.7229 263.9775)" class="st13 st14">S</text>
	</g>
</g>
<path class="st10" d="M159.9,84.7c0,11-14.9,27-33.3,27s-33.3-16-33.3-27S108.2,72,126.6,72S159.9,73.7,159.9,84.7z"/>
<path class="st11" d="M190.3,106.8c0-0.7-0.1-1.3-0.1-2c0-0.6-0.1-1.3-0.2-1.9c-0.1-0.6-0.2-1.3-0.3-1.9c-0.1-0.6-0.2-1.2-0.3-1.9
	c-0.5-2.5-1.1-4.9-1.8-7.3c-0.8-2.4-1.6-4.7-2.7-7c-1.1-2.3-2.3-4.6-3.8-6.7c-0.4-0.5-0.8-1.1-1.2-1.6s-0.9-1-1.3-1.5
	c-0.9-0.9-1.9-1.8-2.9-2.6c-2-1.7-4.2-3.1-6.4-4.2c-2.3-1.2-4.6-2.1-7-2.9c-4.8-1.5-9.6-2.3-14.4-2.8c-4.8-0.5-9.6-0.6-14.4-0.6
	c-0.2,0-0.4,0-0.5,0c0.7-0.2,1.3-0.4,2-0.6c1.9-0.7,3.8-1.7,5.4-2.9c1.6-1.2,3.1-2.7,4.2-4.4c1.2-1.6,2.2-3.4,2.9-5.2
	c1.5-3.6,2.1-7.5,2.1-11.3c0-3.8-0.5-7.5-1.5-11.1c-0.5-1.8-1.1-3.5-1.8-5.2s-1.5-3.4-2.3-5c-3.5-6.6-9.5-11.7-16.7-14
	c-3.6-1.2-7.4-1.6-11.2-1.1s-7.5,1.8-10.7,3.9s-5.9,5-7.9,8.3s-3.2,7.1-3.7,10.9s-0.1,7.8,1,11.5c0.5,1.9,1.3,3.7,2.1,5.4
	c0.9,1.7,1.8,3.3,2.9,4.9c2.1,3.1,4.7,6,7.6,8.5c2.9,2.5,6.2,4.6,9.8,6c1.7,0.7,3.5,1.2,5.4,1.6c-1.1,0-2.3,0.1-3.4,0.1
	c-4.8,0.3-9.6,0.6-14.3,1.4s-9.5,1.9-14,3.7c-2.3,0.9-4.5,2-6.5,3.3c-2.1,1.3-4,2.9-5.8,4.6c-0.4,0.4-0.9,0.9-1.3,1.3
	c-0.4,0.5-0.8,1-1.2,1.4l-0.5,0.7c-0.5-4-0.1-8.1,1.1-12.1l0,0c0.1-0.4-0.1-0.8-0.5-1c-0.4-0.2-0.9,0-1.1,0.4
	c-1.9,4.5-2.8,9.5-2.4,14.4c0.1,0.8,0.1,1.6,0.3,2.4c-0.8,1.6-1.6,3.2-2.2,4.8c-1.8,4.5-3.1,9.2-3.9,14c-0.4,2.4-0.6,4.9-0.6,7.4
	c0,1.3,0.1,2.5,0.2,3.8l0.3,1.9c0.1,0.6,0.2,1.2,0.4,1.9c0.6,2.5,1.4,4.9,2.4,7.2c1.1,2.3,2.4,4.5,3.9,6.5c3,4.1,6.7,7.6,10.8,10.5
	c2,1.5,4.2,2.7,6.4,3.9c2.2,1.1,4.5,2.2,6.8,3.1c0.6,0.2,1.2,0.4,1.7,0.6c0.6,0.2,1.2,0.4,1.8,0.6c1.2,0.4,2.4,0.8,3.6,1.1l1.8,0.5
	l1.8,0.4c1.2,0.3,2.4,0.5,3.6,0.7c1.2,0.2,2.4,0.4,3.7,0.6c1.2,0.1,2.4,0.3,3.7,0.4l1.8,0.1c0.6,0,1.2,0.1,1.8,0.1s1.2,0.1,1.8,0.1
	h1.8c2.4,0,4.8-0.1,7.3-0.3c1.2-0.1,2.4-0.2,3.6-0.3l1.8-0.2l1.8-0.2c0.6-0.1,1.2-0.2,1.8-0.3s1.2-0.2,1.8-0.3
	c1.2-0.2,2.4-0.4,3.6-0.7c2.4-0.5,4.7-1.3,7.1-2.1c2.3-0.8,4.6-1.9,6.7-3.1c1.1-0.6,2.1-1.2,3.1-2c1-0.7,2-1.5,2.9-2.2
	c0.3-0.2,0.4-0.6,0.2-1s-0.7-0.6-1.1-0.4h-0.1c-1.1,0.5-2.1,1-3.2,1.5c-1,0.5-2.1,0.9-3.2,1.3c-1.1,0.3-2.2,0.7-3.3,1
	c-0.6,0.1-1.1,0.3-1.7,0.4l-1.7,0.4c-2.2,0.5-4.5,0.9-6.8,1.1c-1.1,0.2-2.3,0.2-3.4,0.4c-1.2,0.1-2.3,0.2-3.4,0.2
	c-2.3,0.1-4.6,0.2-6.9,0.2c-1.2,0-2.3,0-3.5,0h-1.7c-0.6,0-1.2,0-1.7,0l-1.7-0.1c-0.6,0-1.1-0.1-1.7-0.1c-0.6,0-1.1-0.1-1.7-0.1
	l-1.7-0.2c-2.3-0.2-4.5-0.5-6.8-0.9c-4.5-0.8-8.9-1.9-13.1-3.4l-1.6-0.6c-0.5-0.2-1-0.4-1.6-0.6c-1-0.4-2.1-0.9-3.1-1.4
	c-0.5-0.2-1-0.5-1.5-0.8l-0.8-0.4l-0.7-0.4c-0.5-0.3-1-0.5-1.5-0.8l-1.4-0.9c-3.8-2.4-7.2-5.3-10.1-8.6c-1.4-1.7-2.7-3.5-3.8-5.4
	s-1.9-4-2.5-6.1c-1.3-4.2-1.5-8.8-1-13.3c0.2-2.3,0.6-4.6,1.1-6.8c0.5-2.3,1.1-4.5,2-6.7c0.2-0.5,0.3-0.9,0.5-1.4
	c0,0.2,0.1,0.3,0.1,0.5c0.7,2.4,1.6,4.7,2.6,6.9l0.8,1.7c0.3,0.6,0.6,1.1,0.9,1.6l0.5,0.8l0.5,0.8c0.3,0.5,0.6,1.1,1,1.6
	c1.4,2.1,2.9,4,4.4,5.9c0.4,0.5,0.8,0.9,1.2,1.4l0.6,0.7l0.6,0.7l1.3,1.3l1.3,1.3l0.7,0.6l0.7,0.6l1.4,1.2l1.4,1.2
	c0.5,0.4,1,0.8,1.4,1.1c3.9,3,8.1,5.6,12.5,7.9c1.1,0.5,2.2,1.1,3.3,1.6l1.7,0.8l1.7,0.7c2.3,0.9,4.6,1.8,6.9,2.5
	c4.6,1.5,9.4,2.7,14.2,3.6s9.7,1.4,14.7,1.5c2.5,0.1,5-0.1,7.5-0.2l1.9-0.2l0.9-0.1l0.9-0.1c0.6-0.1,1.2-0.2,1.9-0.3l1.9-0.4
	c5-1.1,10-3,14.4-6.2c2.2-1.6,4.2-3.6,5.8-5.9c1.6-2.3,2.8-4.8,3.6-7.5c0.4-1.3,0.6-2.6,0.9-4C190.1,109.6,190.4,108.2,190.3,106.8z
	 M119.1,55.6c-3.1-1.1-5.9-2.8-8.5-4.9s-4.9-4.6-6.9-7.3c-1-1.4-1.9-2.8-2.7-4.3s-1.5-3-2-4.5c-1-3.1-1.4-6.5-1.1-9.8
	s1.2-6.5,2.9-9.4c1.6-2.9,3.9-5.4,6.6-7.3c2.7-1.9,5.9-3.3,9.2-3.8c3.3-0.6,6.8-0.4,10.1,0.4c3.3,0.9,6.4,2.5,9.1,4.7
	c1.3,1.1,2.6,2.3,3.6,3.7c1.1,1.3,2,2.8,2.8,4.3c0.8,1.6,1.5,3.2,2.1,4.8s1,3.3,1.4,5c0.3,1.7,0.5,3.4,0.6,5.1
	c0.1,1.7,0,3.4-0.2,5.1c-0.4,3.4-1.3,6.6-2.8,9.5c-0.8,1.4-1.7,2.8-2.7,3.9c-1,1.2-2.2,2.2-3.5,3.1c-2.5,1.7-5.5,2.8-8.5,3.1
	C125.3,57.3,122.1,56.8,119.1,55.6z M182.7,109.8c-0.2,1-0.4,2-0.7,2.9c-0.6,1.9-1.4,3.7-2.6,5.2c-1.2,1.6-2.6,3-4.2,4.2
	c-3.3,2.4-7.3,4-11.5,4.9l-1.6,0.3c-0.5,0.1-1.1,0.2-1.6,0.3l-0.8,0.1l-0.8,0.1l-1.7,0.2l-1.7,0.1l-0.8,0.1h-0.8l-1.7,0.1
	c-0.6,0-1.1,0-1.7,0c-2.3,0-4.5-0.1-6.8-0.3s-4.5-0.5-6.8-0.9c-4.5-0.7-9-1.7-13.4-3.1c-4.4-1.3-8.7-2.9-12.8-4.8
	c-1-0.5-2-1-3.1-1.5c-1-0.6-2-1.1-3-1.6c-1-0.6-2-1.1-2.9-1.8c-0.5-0.3-1-0.6-1.4-0.9l-1.4-1c-3.7-2.6-7.2-5.5-10.4-8.8
	c-1.6-1.7-3-3.4-4.4-5.2c-1.3-1.8-2.6-3.7-3.7-5.7c-1.1-2-2.1-4-2.8-6.2c-0.5-1.4-0.9-2.8-1.3-4.3l0,0l0.9-1.5l1-1.4
	c0.3-0.4,0.7-0.9,1.1-1.3c0.4-0.4,0.8-0.8,1.2-1.2c1.6-1.6,3.4-3,5.3-4.2c1.9-1.2,4-2.2,6.1-3.1c2.1-0.9,4.4-1.5,6.6-2
	c2.3-0.5,4.5-1,6.9-1.3c4.6-0.6,9.3-0.9,14-1c4.7-0.1,9.4,0,14.1,0.2c4.7,0.2,9.4,0.6,13.9,1.2c4.6,0.7,9.1,1.7,13.3,3.3
	c4.2,1.6,8.1,3.8,11.2,6.7c0.8,0.7,1.5,1.5,2.2,2.3c0.3,0.4,0.6,0.8,1,1.2c0.3,0.4,0.6,0.9,0.9,1.3c1.1,1.8,2.1,3.7,2.9,5.8
	c0.8,2,1.5,4.2,2.1,6.3c0.6,2.2,1.1,4.4,1.4,6.6c0.1,0.5,0.2,1.1,0.2,1.7c0.1,0.6,0.1,1.1,0.2,1.6c0.1,0.5,0.1,1.1,0.1,1.6
	s0.1,1.1,0.1,1.6C183,107.9,182.8,108.9,182.7,109.8z"/>
<path class="st11" d="M119.1,0c-1.1,0-2.2,0.1-3.3,0.2c-4,0.5-7.8,1.9-11.1,4.1s-6.1,5.2-8.2,8.6c-2,3.4-3.3,7.3-3.8,11.3
	s-0.1,8.1,1,11.9c0.5,1.9,1.3,3.8,2.2,5.6c0.8,1.6,1.8,3.3,2.9,5c2.2,3.2,4.8,6.1,7.7,8.7c3.1,2.6,6.4,4.7,10,6.1
	c-4.7,0.3-8.4,0.7-12,1.3c-5.5,0.9-10.1,2.1-14.2,3.8c-2.4,1-4.7,2.1-6.7,3.4c-2.2,1.4-4.2,3-5.9,4.7c-0.5,0.5-0.9,0.9-1.3,1.4
	l-0.1,0.1c-0.1-3.1,0.3-6.1,1.2-9.1c0.3-0.9-0.2-1.8-1-2.2c-0.2-0.1-0.5-0.2-0.7-0.2c-0.7,0-1.4,0.4-1.7,1.1
	c-2,4.7-2.8,9.8-2.4,14.9c0.1,0.7,0.1,1.4,0.2,2.1c-0.7,1.4-1.4,3-2.1,4.6c-1.8,4.5-3.1,9.3-3.9,14.2c-0.5,2.9-0.7,5.3-0.6,7.5
	c0,1.1,0.1,2.2,0.2,3.3v0.6l0,0l0,0l0.3,1.9c0.1,0.4,0.2,0.9,0.2,1.3c0,0.2,0.1,0.4,0.1,0.6c0.6,2.6,1.4,5.1,2.5,7.4
	c1.1,2.3,2.4,4.5,4,6.7c2.9,3.9,6.6,7.5,11,10.7c2.3,1.6,4.7,3,6.5,4c2.5,1.3,4.7,2.3,6.9,3.1c0.5,0.2,1,0.4,1.4,0.5l0.3,0.1
	c0.2,0.1,0.4,0.1,0.6,0.2c0.4,0.1,0.8,0.3,1.2,0.4c0.4,0.1,0.7,0.2,1.1,0.3c0.8,0.3,1.6,0.5,2.5,0.7l1.8,0.5l1.8,0.4
	c0.8,0.2,1.7,0.4,2.5,0.5c0.4,0.1,0.8,0.1,1.2,0.2c1.4,0.2,2.6,0.4,3.7,0.6c0.4,0,0.7,0.1,1.1,0.1c0.9,0.1,1.8,0.2,2.7,0.3l1.8,0.1
	c0.5,0,0.9,0.1,1.4,0.1h0.5c0.2,0,0.4,0,0.6,0c0.4,0,0.8,0,1.3,0h1.8h0.1c2.4,0,4.8-0.1,7.1-0.3h0.1l0.7-0.1c1-0.1,1.9-0.1,2.9-0.2
	l1.8-0.2l1.8-0.2c0.5-0.1,1.1-0.1,1.8-0.3l0.5-0.1c0.4-0.1,0.9-0.1,1.3-0.2c0.4-0.1,0.8-0.2,1.2-0.2c0.8-0.2,1.7-0.3,2.5-0.5
	c2.2-0.5,4.6-1.2,7.2-2.1c2.3-0.8,4.6-1.9,6.9-3.1l0.6-0.4c0.9-0.5,1.7-1,2.6-1.6c0.9-0.6,1.9-1.4,2.7-2.1l0.2-0.2
	c0.6-0.5,0.8-1.4,0.5-2.2c-0.3-0.7-0.9-1.1-1.7-1.1c-0.3,0-0.5,0.1-0.8,0.2h-0.1c-0.4,0.2-0.8,0.4-1.2,0.6c-0.7,0.3-1.3,0.6-1.9,0.9
	l0,0l0,0c-0.8,0.4-1.6,0.7-2.4,1c-0.2,0.1-0.5,0.2-0.7,0.3c-0.4,0.1-0.7,0.2-1.1,0.3c-0.7,0.2-1.4,0.5-2.1,0.6
	c-0.2,0.1-0.4,0.1-0.6,0.2c-0.3,0.1-0.7,0.2-1,0.3l-1.7,0.4c-1.8,0.4-4.2,0.8-6.7,1.1c-0.8,0.1-1.5,0.2-2.3,0.2
	c-0.4,0-0.8,0.1-1.1,0.1c-0.4,0-0.9,0.1-1.4,0.1c-0.7,0.1-1.4,0.1-2,0.1c-2.2,0.1-4.5,0.2-6.9,0.2c-0.5,0-1,0-1.6,0s-1.3,0-1.9,0
	h-1.7c-0.6,0-1.1,0-1.7,0l-1.7-0.1c-0.4,0-0.7,0-1.1-0.1c-0.2,0-0.4,0-0.6,0c-0.2,0-0.5,0-0.7,0c-0.3,0-0.6,0-0.9-0.1l-1.7-0.2
	c-2.1-0.2-4.3-0.5-6.7-0.9c-4.8-0.9-9.1-2-12.9-3.4l-1.6-0.6c-0.3-0.1-0.6-0.2-0.9-0.4c-0.2-0.1-0.4-0.2-0.6-0.3
	c-0.7-0.3-1.4-0.6-2.1-0.9c-0.3-0.1-0.6-0.3-0.9-0.4c-0.3-0.1-0.5-0.3-0.8-0.4l-0.6-0.3l-0.7-0.4l-0.7-0.4c-0.2-0.1-0.4-0.2-0.7-0.4
	c-0.3-0.1-0.5-0.3-0.8-0.4l-1.4-0.9c-3.8-2.4-7.1-5.2-9.8-8.4c-1.4-1.7-2.6-3.5-3.6-5.3s-1.8-3.8-2.5-5.9c-1.2-3.7-1.5-8-0.9-13
	c0.2-2.1,0.6-4.4,1.1-6.7c0.4-1.9,0.9-3.5,1.4-5.1c0.5,1.6,1.2,3.1,1.9,4.7l0.8,1.7c0.2,0.4,0.4,0.7,0.6,1.1
	c0.1,0.2,0.2,0.4,0.3,0.5l0.5,0.8l0.5,0.8l0.2,0.3c0.3,0.4,0.5,0.9,0.8,1.3c1.3,2,2.8,3.9,4.5,6c0.3,0.3,0.5,0.6,0.8,0.9l0.4,0.5
	l0.6,0.7l0.7,0.7l1.3,1.3l1.4,1.3l0.7,0.6l0.7,0.6l1.4,1.2l1.5,1.2l0.2,0.2c0.4,0.3,0.9,0.7,1.3,1c4,3.1,8.3,5.8,12.6,8
	c0.3,0.1,0.6,0.3,0.8,0.4c0.8,0.4,1.7,0.8,2.5,1.2l1.7,0.8l1.7,0.7c2.4,1,4.9,1.9,6.9,2.6c4.4,1.5,9.3,2.7,14.4,3.7
	c5,0.9,10,1.4,14.9,1.5c0.5,0,1,0,1.5,0c1.8,0,3.7-0.1,6.1-0.3l1.9-0.2l0.9-0.1l1-0.2l0.6-0.1c0.4-0.1,0.8-0.1,1.3-0.2l1.9-0.4
	c5.7-1.3,10.7-3.4,14.8-6.4c2.4-1.8,4.4-3.8,6-6.1c1.6-2.2,2.9-4.8,3.8-7.7c0.4-1.1,0.6-2.2,0.8-3.3c0-0.3,0.1-0.5,0.1-0.8l0,0l0,0
	c0-0.3,0.1-0.6,0.1-0.9c0.1-1.1,0.2-2.3,0.1-3.4c0-0.6-0.1-1.1-0.1-1.5v-0.5c0-0.7-0.1-1.3-0.2-2c-0.1-0.7-0.2-1.3-0.3-1.9
	c0-0.2-0.1-0.4-0.1-0.6c-0.1-0.4-0.1-0.9-0.2-1.3c-0.4-2.4-1.1-4.9-1.8-7.4c-0.9-2.7-1.7-5-2.7-7.2c-1.2-2.6-2.5-4.9-3.9-6.9
	c-0.2-0.2-0.3-0.4-0.4-0.6c-0.3-0.4-0.5-0.7-0.8-1.1l-0.4-0.5c-0.3-0.4-0.6-0.7-0.9-1.1c-1.1-1.1-2-2-3-2.7c-2-1.7-4.2-3.1-6.6-4.3
	c-2.3-1.2-4.7-2.2-7.1-2.9c-4.3-1.4-9.1-2.3-14.6-2.8c-3-0.3-6.3-0.5-9.8-0.6c1-0.5,1.9-1.1,2.7-1.8c1.6-1.2,3.1-2.8,4.4-4.6
	c1.2-1.6,2.2-3.4,3-5.4c1.4-3.5,2.2-7.4,2.2-11.6c0-3.7-0.5-7.5-1.5-11.3c-0.5-1.9-1.1-3.7-1.8-5.4s-1.5-3.4-2.4-5.1
	c-3.7-6.9-10-12.2-17.3-14.5C124.8,0.4,122,0,119.1,0L119.1,0z M126.8,56.1c-2.4,0-4.9-0.5-7.4-1.4c-2.9-1.1-5.7-2.7-8.3-4.8
	c-2.5-2.1-4.8-4.5-6.7-7.1c-1-1.4-1.9-2.8-2.6-4.2c-0.8-1.4-1.4-2.9-1.9-4.4c-1-3-1.3-6.2-1.1-9.4c0.3-3.2,1.2-6.3,2.7-9
	c1.5-2.8,3.7-5.2,6.3-7s5.6-3.1,8.8-3.7c1.3-0.2,2.6-0.3,3.9-0.3c2,0,3.9,0.3,5.8,0.8c3.2,0.8,6.2,2.4,8.7,4.5
	c1.3,1.1,2.5,2.3,3.5,3.5c1,1.3,1.9,2.7,2.7,4.2s1.4,3.1,2,4.7c0.5,1.4,0.9,3,1.3,4.9c0.3,1.6,0.5,3.3,0.6,5s0,3.4-0.2,5
	c-0.4,3.3-1.3,6.5-2.7,9.2c-0.7,1.4-1.6,2.6-2.6,3.8c-1,1.1-2.1,2.1-3.3,2.9c-2.5,1.7-5.2,2.7-8.1,2.9
	C127.8,56.1,127.3,56.1,126.8,56.1L126.8,56.1z M79.9,79c0.3-0.4,0.7-0.8,1.1-1.2c1.6-1.6,3.3-2.9,5.2-4.1c1.8-1.1,3.8-2.1,6-3
	c1.9-0.8,4-1.4,6.5-2c2.2-0.5,4.5-0.9,6.7-1.2c4.2-0.6,8.7-0.9,13.9-0.9c1,0,2,0,3,0c3.3,0,6.9,0.1,11,0.3c5.6,0.3,9.9,0.6,13.8,1.2
	c5,0.8,9.3,1.8,13.1,3.2c4.4,1.7,8.1,3.8,10.9,6.5c0.8,0.7,1.5,1.5,2.2,2.2c0.2,0.2,0.3,0.4,0.5,0.6c0.1,0.2,0.3,0.4,0.4,0.5
	c0.2,0.2,0.3,0.5,0.5,0.7c0.1,0.2,0.2,0.3,0.3,0.5c1,1.6,1.9,3.4,2.8,5.6c0.8,1.8,1.4,3.8,2.1,6.2c0.6,2.4,1.1,4.5,1.4,6.4
	c0.1,0.4,0.1,0.7,0.2,1c0,0.2,0.1,0.4,0.1,0.6c0.1,0.5,0.1,0.9,0.2,1.6c0.1,0.5,0.1,1.1,0.1,1.6v0.4c0,0.4,0,0.8,0,1.2l0,0l0,0
	c0,0.6,0,1.2-0.1,1.8c0,0.3-0.1,0.6-0.1,0.8c-0.1,0.3-0.1,0.5-0.2,0.8c-0.1,0.7-0.3,1.4-0.5,1.9l0,0l0,0c-0.6,1.9-1.4,3.6-2.5,4.9
	c-1.1,1.4-2.4,2.8-4,4c-2.9,2.1-6.7,3.7-11.1,4.8l-1.6,0.3c-0.3,0.1-0.6,0.1-1,0.2c-0.2,0-0.4,0.1-0.6,0.1l-0.8,0.1l-0.8,0.1
	l-1.6,0.2l-1.6,0.1l-0.8,0.1h-0.8l-1.7,0.1c-0.2,0-0.5,0-0.7,0h-0.5h-0.5h-0.3c-2.3,0-4.5-0.2-6.4-0.3c-2.1-0.2-4.4-0.5-6.7-0.8
	c-4.4-0.7-8.9-1.7-13.3-3c-4.5-1.3-8.8-2.9-12.7-4.7c-0.7-0.3-1.3-0.6-2-1c-0.3-0.2-0.7-0.3-1-0.5c-0.4-0.2-0.7-0.4-1.1-0.6
	c-0.6-0.3-1.3-0.7-1.9-1l-0.2-0.1c-0.9-0.5-1.8-1-2.7-1.6c-0.2-0.1-0.3-0.2-0.5-0.3c-0.3-0.2-0.6-0.4-0.9-0.6l-1.4-1
	c-3.8-2.6-7.2-5.5-10.2-8.7c-1.6-1.7-3.1-3.4-4.3-5.1c-1.2-1.6-2.5-3.5-3.6-5.6c-1.1-2-2.1-4.1-2.8-6c-0.5-1.3-0.8-2.6-1.1-3.8
	l0.7-1.1l0.9-1.3c0.2-0.2,0.4-0.5,0.6-0.7C79.6,79.3,79.8,79.2,79.9,79L79.9,79z"/>
<rect x="-2.3" y="180.3" class="st9" width="261.2" height="55.8"/>
<g class="st12">
	<path d="M3.6,223.6l-2.4,2.8h-1.4v-13.9h2.3c0,6.1,4.2,11.7,11.2,11.7c5.8,0,8-3,8-6.9c0-5.7-4.5-6.4-10.2-8.2
		c-5.3-1.7-11.2-4.5-11.2-13.7c0-6.3,4.5-11.6,12.3-11.6c3.4,0,6.7,1,8.8,2.9l2.2-2.7h1.3v13.7h-2.2c0-7.6-4.3-11.4-9.7-11.4
		c-5,0-7.6,2.6-7.6,6.6c0,5.4,4.1,6.3,9.8,8.3c5.9,2,11.6,4.5,11.6,13.3c0,6.1-3.6,12.1-12.8,12.1C8.7,226.6,5.8,225.3,3.6,223.6z"
		/>
	<path d="M47.1,226.6c-8.2,0-15.1-6.1-15.1-15.9c0-9.7,6.9-15.8,15.1-15.8c7.9,0,15.2,6.1,15.2,15.9C62.3,220.6,55,226.6,47.1,226.6
		z M47.1,224.2c4.8,0,6.7-5.2,6.7-13.4c0-8.3-1.8-13.6-6.7-13.6c-5.2,0-6.6,5.3-6.6,13.4C40.5,219,41.9,224.2,47.1,224.2z"/>
	<path d="M82,226.6c-8.2,0-15.1-6.1-15.1-15.9c0-9.7,6.9-15.8,15.1-15.8c7.9,0,15.2,6.1,15.2,15.9C97.2,220.6,89.9,226.6,82,226.6z
		 M82,224.2c4.8,0,6.7-5.2,6.7-13.4c0-8.3-1.8-13.6-6.7-13.6c-5.2,0-6.6,5.3-6.6,13.4C75.4,219,76.8,224.2,82,224.2z"/>
	<path d="M104.9,217.9V198h-5.4v-1.7c7.2,0,10.9-5.4,11.2-11.2h1.9v10.6h9.4v2.3h-8.9v20.9c0,3.9,1.2,5.1,3.4,5.1
		c2.8,0,3.8-2.6,3.8-8.7h2.1c0,6.8-1.4,11.3-8.5,11.3C109,226.6,104.9,224.4,104.9,217.9z"/>
	<path d="M142.1,225.8h-16.4v-2.2h4.4v-40.2h-4.4v-2.2c7.2,0,9.8-0.2,11.2-0.8l1.3,0.5v8.5c0,4.7-0.4,9-0.8,12.7
		c1.2-4.2,4.5-7.2,9.8-7.2c6.8,0,10.6,3.5,10.6,11.8v16.9h4.4v2.2h-16.4v-2.2h3.9v-16.9c0-5.7-2-8-5.6-8c-3.6,0-5.8,2.9-5.8,9.1
		v15.8h3.9V225.8z"/>
	<path d="M165.9,210.6c0-9.7,6.6-15.6,14.4-15.6c8.7,0,13.3,6.3,13.3,13.8c0,0.6-0.1,1.7-0.1,1.7h-19.2v0.7c0.1,8.2,2,12.8,7.9,12.8
		c5.1,0,7.5-3.1,8.7-7.5l2.2,0.4c-1.3,6.2-5.8,9.8-12.1,9.8C172.8,226.6,165.9,220.8,165.9,210.6z M174.4,208.3h11.2
		c0-6.9-1-11.1-5.3-11.1C176.3,197.2,174.7,200.8,174.4,208.3z"/>
	<path d="M197.4,224.2l16.3-26.2h-6.7c-5.5,0-6.4,2.6-6.4,7.2v1.3h-2.2v-10.7H222v1.7l-16.3,26.2h7.9c5.5,0,6.4-2.9,6.4-7.4v-1.4
		h2.2v11h-24.8V224.2z"/>
	<path d="M226.2,210.6c0-9.7,6.6-15.6,14.4-15.6c8.7,0,13.3,6.3,13.3,13.8c0,0.6-0.1,1.7-0.1,1.7h-19.2v0.7c0.1,8.2,2,12.8,7.9,12.8
		c5.1,0,7.5-3.1,8.7-7.5l2.2,0.4c-1.3,6.2-5.8,9.8-12.1,9.8C233.1,226.6,226.2,220.8,226.2,210.6z M234.7,208.3h11.2
		c0-6.9-1-11.1-5.3-11.1C236.6,197.2,234.9,200.8,234.7,208.3z"/>
</g>
<rect y="247.3" class="st9" width="256.5" height="17.4"/>
<g class="st12">
	<path d="M6.2,248.8h-6v-1.5h13.6v1.5h-6V264H6.2V248.8z"/>
</g>
<g class="st12">
	<path d="M17.8,247.3h1.6v7.6h9.7v-7.6h1.6V264h-1.6v-7.6h-9.7v7.6h-1.6V247.3z"/>
</g>
<g class="st12">
	<path d="M35.6,247.3H45v1.5h-7.8v6.1h6.3v1.5h-6.3v6.2h8.2v1.5h-9.8V247.3z"/>
</g>
<g class="st12">
	<path d="M50.1,247.3h4.9c1.7,0,2.5,0.2,3.1,0.5c1.6,0.7,2.5,2.3,2.5,4.3c0,2.3-1.3,4-3.2,4.5v0c0,0,0.2,0.2,0.4,0.7l3.6,6.7h-1.9
		l-3.8-7h-4.2v7h-1.6V247.3z M55.7,255.5c2,0,3.3-1.3,3.3-3.4c0-1.4-0.5-2.4-1.5-2.9c-0.5-0.3-1.1-0.4-2.4-0.4h-3.4v6.7H55.7z"/>
</g>
<g class="st12">
	<path d="M76,258.7h-6.7l-1.9,5.3h-1.7l6.1-16.7h1.8l6.1,16.7h-1.7L76,258.7z M72.6,249c0,0-0.4,1.4-0.6,2.2l-2.2,6.1h5.7l-2.2-6.1
		C73,250.4,72.7,249,72.6,249L72.6,249z"/>
</g>
<g class="st12">
	<path d="M84.2,247.3H90c3,0,5.2,1.9,5.2,5c0,3.1-2.2,5.1-5.2,5.1h-4.1v6.6h-1.6V247.3z M89.8,256c2.2,0,3.7-1.4,3.7-3.6
		c0-2.3-1.4-3.6-3.7-3.6h-3.9v7.2H89.8z"/>
</g>
<g class="st12">
	<path d="M104,256.8l-5.6-9.5h1.9l3.5,6.1c0.5,0.9,1,2,1,2h0c0,0,0.5-1.1,1-2l3.5-6.1h1.9l-5.6,9.5v7.2H104V256.8z"/>
</g>
<text transform="matrix(1 0 0 1 112.2244 263.9775)" class="st13 st14"> </text>
<g class="st12">
	<path d="M122.4,247.3h5.8c3,0,5.2,1.9,5.2,5c0,3.1-2.2,5.1-5.2,5.1h-4.1v6.6h-1.6V247.3z M128,256c2.2,0,3.7-1.4,3.7-3.6
		c0-2.3-1.4-3.6-3.7-3.6h-3.9v7.2H128z"/>
</g>
<g class="st12">
	<path d="M137.5,247.3h4.9c1.7,0,2.5,0.2,3.1,0.5c1.6,0.7,2.5,2.3,2.5,4.3c0,2.3-1.3,4-3.2,4.5v0c0,0,0.2,0.2,0.4,0.7l3.6,6.7h-1.9
		l-3.8-7h-4.2v7h-1.6V247.3z M143.1,255.5c2,0,3.3-1.3,3.3-3.4c0-1.4-0.5-2.4-1.5-2.9c-0.5-0.3-1.1-0.4-2.4-0.4h-3.4v6.7H143.1z"/>
</g>
<g class="st12">
	<path d="M160.7,247c4.7,0,8.5,3.7,8.5,8.5c0,4.9-3.8,8.7-8.5,8.7s-8.5-3.8-8.5-8.7C152.2,250.7,156,247,160.7,247z M160.7,262.7
		c3.8,0,6.8-3.1,6.8-7.2c0-4-3-7-6.8-7c-3.8,0-6.8,3-6.8,7C153.9,259.6,156.9,262.7,160.7,262.7z"/>
</g>
<g class="st12">
	<path d="M173.8,247.3h5.4c5,0,8.4,3.1,8.4,8.3c0,5.3-3.4,8.4-8.4,8.4h-5.4V247.3z M179.1,262.5c4.1,0,6.8-2.4,6.8-6.9
		c0-4.4-2.8-6.9-6.8-6.9h-3.6v13.7H179.1z"/>
</g>
<g class="st12">
	<path d="M192.6,247.3h1.7v10.9c0,2.9,1.9,4.6,4.7,4.6c2.9,0,4.7-1.7,4.7-4.7v-10.8h1.6v10.9c0,3.7-2.6,6.1-6.4,6.1
		c-3.8,0-6.4-2.4-6.4-6.1V247.3z"/>
</g>
<g class="st12">
	<path d="M218.3,247c4,0,6,2.2,6,2.2l-0.9,1.2c0,0-1.9-1.9-5.1-1.9c-3.9,0-6.7,3-6.7,7c0,4,2.8,7.2,6.8,7.2c3.4,0,5.4-2.2,5.4-2.2
		l1,1.2c0,0-2.3,2.6-6.4,2.6c-4.9,0-8.5-3.9-8.5-8.7C209.9,250.7,213.5,247,218.3,247z"/>
</g>
<g class="st12">
	<path d="M233.8,248.8h-6v-1.5h13.6v1.5h-6V264h-1.6V248.8z"/>
</g>
<g class="st12">
	<path d="M244.5,260.9c0,0,1.7,1.8,4.4,1.8c1.8,0,3.3-1.1,3.3-2.9c0-4.2-8.3-3.1-8.3-8.3c0-2.4,2.1-4.5,5.2-4.5
		c2.9,0,4.5,1.6,4.5,1.6l-0.8,1.4c0,0-1.5-1.4-3.7-1.4c-2.1,0-3.5,1.4-3.5,2.9c0,4,8.3,2.8,8.3,8.3c0,2.5-1.9,4.5-5.1,4.5
		c-3.4,0-5.3-2.1-5.3-2.1L244.5,260.9z"/>
</g>
<rect x="708.7" y="-399.7" class="st9" width="81.1" height="30.6"/>
<g>
	<rect x="679.4" y="186.9" class="st9" width="255.5" height="49.2"/>
	<text transform="matrix(1 0 0 1 679.3956 231.9935)" style="font-family:'Avenir-Light'; font-size:59.6796px;">Sootheze</text>
	<rect x="682.6" y="250.1" class="st9" width="249.1" height="14.6"/>
	<text transform="matrix(1 0 0 1 682.6074 262.4354)" style="font-family:'MrsEavesAllPetiteCapsOT'; font-size:37px;">Therapy Products</text>
	<g>
		<g>
			<path d="M783.1,46c0.9,2.3,1.6,4.4,2.3,6.6s1.4,4.3,2,6.5c1.3,4.4,2.4,8.7,3.3,13.2c1.9,8.8,3.3,17.8,3.9,26.9
				c0.3,4.5,0.4,9.1,0.2,13.6c-0.2,4.6-0.6,9.1-1.3,13.6c-0.8,4.5-1.8,9-3.3,13.3s-3.3,8.6-5.6,12.6c-0.6,1.2-2.1,1.6-3.3,0.9
				c-1.1-0.6-1.6-2-1-3.2v-0.1c1.9-3.8,3.4-7.8,4.6-11.9c1.1-4.1,1.9-8.3,2.4-12.6s0.6-8.6,0.6-12.9c0-4.3-0.4-8.6-0.8-12.9
				c-1-8.6-2.7-17.1-5-25.4c-1.1-4.2-2.4-8.3-3.8-12.4c-0.7-2-1.4-4.1-2.2-6.1s-1.6-4.1-2.4-5.9v-0.1c-1.1-2.6,0-5.6,2.6-6.7
				s5.6,0,6.7,2.6C783,45.8,783,45.9,783.1,46z"/>
		</g>
		<g>
			<path d="M790.5,89.4c1.7-1.2,3.5-2.2,5.3-3.1s3.7-1.7,5.7-2.3c3.9-1.3,7.8-2.4,11.9-3.2c2-0.4,4.1-0.7,6.2-0.9
				c2.1-0.2,4.3-0.3,6.6,0c0.6,0,1.2,0.2,1.7,0.3c0.6,0.2,1.2,0.2,1.8,0.5c1.2,0.4,2.5,1,3.6,2c1.2,1,2,2.5,2.3,4s0.1,2.8-0.2,4
				c-0.3,1.3-1.5,2.1-2.8,1.9c-1.2-0.2-1.9-1.3-1.9-2.4v-0.3c0-0.8-0.1-1.5-0.2-1.9c-0.2-0.4-0.5-0.7-0.8-0.9
				c-0.4-0.2-0.9-0.5-1.7-0.6c-0.3-0.1-0.7-0.1-1.1-0.2c-0.4,0-0.8-0.1-1.2-0.1c-3.4,0-7.2,0.7-10.9,1.5c-3.7,0.9-7.4,2-11.1,3.2
				c-1.9,0.6-3.7,1.2-5.6,1.6c-1.9,0.5-3.8,1-5.8,1.3l0,0c-1.4,0.2-2.6-0.8-2.8-2.1C789.4,90.8,789.8,89.9,790.5,89.4z"/>
		</g>
		<g>
			<path d="M823.8,151.4c-0.9-1.7-1.8-3.5-2.1-5.5c-0.3-1-0.3-2-0.4-3.1c0-1,0-2.1,0.2-3.1c0.3-2,0.9-3.9,1.5-5.6
				c0.6-1.8,1.3-3.3,1.9-4.9c1.3-3.1,2.5-6.2,3.4-9.3l0.6-2.4c0.1-0.4,0.1-0.7,0.2-1.1c0.1-0.4,0.2-0.7,0.2-1.1
				c0.2-1.4,0.1-2.6-0.2-3.6s-0.8-1.7-1.6-2.4c-0.8-0.6-2.1-1.1-3.4-1.5c-1.4-0.3-2.9-0.5-4.5-0.5s-3.2,0-4.8,0.1s-3.3,0.3-5,0.5
				s-3.3,0.5-5,0.8c-3.4,0.6-6.7,1.3-10.2,1.9c-1.3,0.2-2.6-0.6-2.8-2c-0.2-1.2,0.5-2.4,1.7-2.7l0,0c3.2-0.9,6.6-2,10-2.8
				c3.4-0.9,6.9-1.6,10.5-2c1.8-0.2,3.6-0.4,5.5-0.4s3.8,0.1,5.8,0.5s4.1,1.1,6.1,2.5c2,1.3,3.6,3.6,4.3,5.9
				c1.4,4.7,0.2,8.9-0.6,12.3c-1,3.5-2.2,7-3.6,10.2c-1.4,3.2-2.8,6.2-3.5,9c-0.2,0.7-0.3,1.4-0.4,2.1c0,0.7-0.1,1.4-0.1,2.1
				c0,1.4,0.3,2.9,0.6,4.4v0.2c0.3,1.3-0.6,2.6-1.9,2.8C825.3,152.8,824.3,152.3,823.8,151.4z"/>
		</g>
		<g>
			<path d="M741.4,136.9c10.2,4.9,20.9,8.6,32,10.8l4.1,0.8c1.4,0.2,2.8,0.4,4.2,0.6l2.1,0.3l2.1,0.2c1.4,0.1,2.8,0.3,4.2,0.4
				c5.6,0.4,11.2,0.5,16.9,0.4c11.2-0.4,22.4-2,33.3-4.6c5.5-1.3,10.8-2.9,16.1-4.8c2.6-0.9,5.3-1.9,7.8-3c1.3-0.5,2.6-1.1,3.8-1.6
				c1.2-0.6,2.6-1.2,3.6-1.7h0.1c2.3-1.2,5.1-0.3,6.2,2c1.2,2.3,0.3,5.1-2,6.2l-0.1,0.1c-1.5,0.7-2.8,1.3-4.2,1.8
				c-1.4,0.6-2.8,1.1-4.2,1.6c-2.8,1-5.6,2-8.4,2.8c-5.6,1.7-11.3,3.2-17.1,4.4c-11.5,2.4-23.3,3.6-35,3.6c-5.9,0-11.7-0.4-17.6-1
				c-1.5-0.2-2.9-0.4-4.4-0.6l-2.2-0.3l-1.9-0.3c-1.4-0.3-2.9-0.5-4.3-0.8l-4.3-1c-11.4-2.7-22.4-7-32.8-12.3
				c-1.1-0.6-1.5-1.9-0.9-3C739,136.8,740.3,136.4,741.4,136.9L741.4,136.9z"/>
		</g>
	</g>
</g>
<path class="st15" d="M2472.2,12.5c0,0,82,193.1,12.8,321.7"/>
<path class="st15" d="M2620.6,331.9c-15-35.4,8.9-52.3,20.2-101.1c15.9-69.1-88.5-37.6-119.7-30.6c-1,0.2-2.1,0.5-3.1,0.7
	c-41.9,9-60.2-50.7-20.6-67c63.5-26.1,145.1-45.9,138.4-7.4"/>
<path class="st16" d="M2353.8,295.8c208,105.5,416,0,416,0"/>
<path class="st17" d="M2194.8,795.9c0,0,45.5-52.6,53.6-63s71.8-45,74.1-48.9c1.4-2.4,14.6-9.9,24-21.4c5.6-6.9,2-17.9,4.3-23.9
	c1.7-4.5,7.2-20.1,9.5-27.9c1.1-3.9-2.7-7.4-6.5-5.8c-5.8,2.3-15.2,14.4-16.1,26.6c-0.1,1.4-0.7,2.7-1.8,3.5
	c-3.4,2.7-10.8,8.5-16.7,16.7c-0.6,0.8-1.4,1.4-2.4,1.6c-5.6,1.5-11.8,8.4-12.4,9.2c-4.4,5.7-25.2,9.1-19.5-1.3
	c5.6-10.4,32.1-24.5,24.2-36.6c-7.8-12.1-34.8,18.1-37.2,20.5c-2.4,2.3-28.1,23.8-30.5,44.5c-1.4,12.2-91.7,42.4-90.6,49.9"/>
<path class="st18" d="M1122.3-203.6L1122.3-203.6c-29,0-52.7-23.7-52.7-52.7v-59.2c0-29,23.7-52.7,52.7-52.7l0,0
	c29,0,52.7,23.7,52.7,52.7v59.2C1174.9-227.3,1151.2-203.6,1122.3-203.6z"/>
<g>
	<path class="st19" d="M1102.4-272.3c-5.3,4-34.3,12.3-34,15.6"/>
	<path class="st4" d="M1166.3-353.3c0,0-21.4,24.1-24.5,28.9s-23.1,15.1-28,18.9c-3.2,2.4-6.9,7.3-10.6,12.7
		c-2.2,3.2-0.4,7.8-1,10.5c-0.9,4.8-3.9,7.7-4.6,11.2c-0.3,1.7,3.4,0.8,4.9,0c2.4-1.2,4.6-4.6,5.6-8.5c2.5-9.4,7.9-8.8,13.3-14.7
		c5.1-5.6,10.5-4.9,8.5-0.2s-12.2,9.8-8.4,14.7c1.6,1.6,4.6-2.2,8.3-4.7c2.9-1.9,6-4,6.5-4.3c2.2-1.5,4.4-3.7,7.4-9.8
		c2.5-5.1,1-5.9,1.9-9.9c1.2-5.2,34.2-18.2,33.5-21.3"/>
	<path class="st20" d="M1073.7-227.9c0,0,28.5-20.6,32.2-25s21.1-13.4,26.5-16.6c3.5-2,7.8-6.4,12.1-11.2c2.6-2.9,1.4-7.7,2.3-10.3
		c1.5-4.6,4.5-7.3,5.9-10.5s-4.2-4.3-6.6-1.4c-1.7,2.1-4,5.9-6.3,8.8"/>
</g>
<path class="st21" d="M1523.7,125.9"/>
<g>
	<path d="M1573.9-261.2L1573.9-261.2c-51,0-92.7-41.7-92.7-92.7V-479c0-51,41.7-92.7,92.7-92.7l0,0c51,0,92.7,41.7,92.7,92.7v125.1
		C1666.6-302.9,1624.9-261.2,1573.9-261.2z"/>
	<polygon points="1487.6,-366.5 1463.3,-360.2 1482.7,-295.8 1504.8,-313.4 	"/>
	<path class="st22" d="M1573.9-241.6L1573.9-241.6c-61.6,0-112-50.4-112-112v-125.8c0-61.6,50.4-112,112-112l0,0
		c61.6,0,112,50.4,112,112v125.8C1685.9-291.9,1635.5-241.6,1573.9-241.6z"/>
	<path class="st23" d="M1470.1-285.8c0,0,57.4-44.6,66-54.6s48.6-30.9,61-38.2c8-4.7,18-14.7,27.8-25.9c5.9-6.7,3.2-17.6,5.2-23.7
		c3.5-10.6,10.3-16.7,13.7-24.2c3.3-7.4-9.6-9.8-15.1-3.2c-4,4.8-9.1,13.7-14.6,20.2"/>
	<path class="st23" d="M1528.2-385.3c-12.2,9.3-74.3,26.2-78.7,31.6"/>
	<path class="st4" d="M1675.4-571.8c0,0-49.2,55.6-56.4,66.6c-7.2,11-53.2,34.9-64.5,43.6c-7.3,5.6-16,16.8-24.4,29.1
		c-5,7.4-1,17.9-2.2,24.2c-2.1,11-8.9,17.7-10.5,25.7c-0.8,4,7.8,1.8,11.4,0c5.6-2.8,10.5-10.6,12.9-19.7
		c5.7-21.7,18.2-20.2,30.6-33.8c11.7-12.8,24.3-11.2,19.6-0.4s-28.2,22.5-19.4,33.9c3.6,3.8,10.5-5.1,19-10.8
		c6.7-4.5,13.8-9.2,15-10c5.1-3.4,10.2-8.5,17-22.5c5.8-11.8,2.4-13.6,4.5-22.8c2.7-12,78.8-41.8,77.1-49.2"/>
</g>
<path class="st24" d="M3587.8,273.2l-44.7-8.6l-90.8-17.5l1.9-7.3l90,17.7l-89.7-20.1l-46-10.3l2.2-5.7l136,29.6l40.5-161.8
	c7.9-9,12.2,2.4,12.2,2.4l-1.6,4.6c9,0.8,35.9-7.1,35.9-7.1l3-10.6c0,0,10.1-10.9,14.1,3.3L3560,439.7c0,0,62-18.2,77-30.7
	c0,0,11.1,0.3,17.9,6c-44.3,36.4-190.8,90.1-252.4,45.4l-5.4-7.1c0,0,1.4-8.2,6-7.6c4.6,0.5,7.1,0.5,7.1,0.5s61.2,23.3,139.8-4.4
	l23.4-107.1c0,0-140.9-23.9-153.7-15.8c-12.8,8.2-16.6-30.2-13.6-29.4c3,0.8,12.5-5.4,17.4-4.9s100.3,16,108,12.2l10.9-28.8
	L3587.8,273.2z"/>
<g>
	<rect x="365.7" y="180.2" class="st9" width="210.3" height="44"/>
	<text transform="matrix(1 0 0 1 365.697 222.3767)" style="font-family:'CorundumTextBook'; font-size:59.6796px;">Sootheze</text>
	<rect x="364.8" y="235.5" class="st9" width="212" height="29.2"/>
	<text transform="matrix(1 0 0 1 364.8103 257.1082)" style="font-family:'MrEavesModOT-Light'; font-size:36px;">Therapy Prod</text>
	<text transform="matrix(1 0 0 1 529.1103 257.1082)" style="font-family:'MrEavesModOT-Light'; font-size:36px;">-</text>
	<g>
		<path d="M474,11.2L474,11.2c26.2,0,47.7,21.4,47.7,47.7v53.6c0,26.2-21.4,47.7-47.7,47.7l0,0c-26.2,0-47.7-21.4-47.7-47.7V58.8
			C426.4,32.6,447.8,11.2,474,11.2z"/>
		<path class="st25" d="M514.4,34.9c0,0-22.1,16.9-25.5,20.8s-19.1,12.2-24,15c-3.1,1.8-7.1,5.8-10.9,10.2c-2.3,2.6-2.4,6.3-3.1,8.6
			c-1.4,4.2-3,7.2-4.3,10.2c-1.3,2.9,3.8,3.9,5.9,1.2c1.6-1.9,2-6.7,4.6-7.5c13.4,9.7,25.2,6.4,34-20.3c4.4-5.4,28.6-8.9,30.6-12.5
			C521.7,60.7,521.5,46.6,514.4,34.9z"/>
		<path class="st26" d="M434.1,146.6c0,0,19.3-21.8,22.2-26.2c2.8-4.3,20.9-13.7,25.4-17.1c2.9-2.2,6.3-6.6,9.6-11.4
			c2-2.9,0.4-7,0.9-9.5c0.8-4.3,3.5-6.9,4.1-10.1c0.3-1.6-3-0.7-4.5,0c-2.2,1.1-4.1,4.2-5.1,7.7c-2.2,8.5-7.1,7.9-12,13.3
			c-4.6,5-9.5,4.4-7.7,0.1s11.1-8.9,7.6-13.3c-1.4-1.5-4.1,2-7.5,4.3c-2.6,1.7-5.4,3.6-5.9,3.9c-2,1.3-4,3.4-6.7,8.8
			c-2.3,4.6-0.9,5.3-1.8,8.9c-1.1,4.7-31,16.4-30.3,19.3L434.1,146.6z"/>
		<path class="st25" d="M491.7,72.3"/>
		<path class="st25" d="M457.2,92.4"/>
		<path class="st25" d="M491.7,72.3"/>
		<path class="st4" d="M518.4,32.6c-2.4,1.2-8.3,6.1-13.3,10l15.5,18.5l1-0.5l0.3,2.6l3.1-4.5L518.4,32.6z"/>
		<polygon class="st4" points="416.7,123.1 427.1,120.8 427.3,122 429.7,123.1 436.6,139.8 437.4,142.8 438.5,144.1 431.9,150 		"/>
	</g>
</g>
<rect x="-227.9" y="-80.1" class="st10" width="59.2" height="59.2"/>
<rect x="-168.7" y="-80.1" class="st11" width="59.2" height="59.2"/>
<rect x="-198.3" y="25.8" width="59.2" height="59.2"/>
</svg>
