<?xml version="1.0" encoding="utf-8"?>
<!-- Generator: Adobe Illustrator 24.0.3, SVG Export Plug-In . SVG Version: 6.00 Build 0)  -->
<svg version="1.1" id="Layer_1" xmlns="http://www.w3.org/2000/svg" xmlns:xlink="http://www.w3.org/1999/xlink" x="0px" y="0px"
	 viewBox="0 0 302.8 318.8" style="enable-background:new 0 0 302.8 318.8;" xml:space="preserve">
<style type="text/css">
	.st0{fill:none;}
	.st1{enable-background:new    ;}
	.st2{fill:#FFFFFF;stroke:#000000;stroke-width:0.9051;stroke-miterlimit:10;}
	.st3{fill:#FFFFFF;stroke:#000000;stroke-width:1.8102;stroke-miterlimit:10;}
	.st4{fill:#FFFFFF;}
</style>
<rect x="46.6" y="208.2" class="st0" width="210.3" height="44"/>
<g class="st1">
	<path d="M48.8,247.8v-8.5l2.7-0.3l0.8,5c1.6,3.8,5.7,4.8,9,4.8c5.7,0,8.4-3.5,8.4-7.3c0-4.7-4.7-7-8.7-9c-4.3-2.2-10-5.1-10-11.8
		c0-6.2,5.1-11.3,11.8-11.3c4.5,0,8.2,1.1,10.4,2.3l0.4,7.9H71c-1-5.4-3.8-7.6-8.2-7.6c-4,0-6.6,2.8-6.6,6.3c0,4.5,4.7,6.8,8.8,8.9
		c4.5,2.4,10.4,5.4,10.4,12.1c0,6.7-5.7,12.1-14.3,12.1C55.7,251.3,51.1,249.5,48.8,247.8z"/>
	<path d="M79.4,238.4c0-7,6-13,12.9-13s12.7,5.5,12.7,12.2c0,7-6.3,13.7-12.9,13.7C85.3,251.3,79.4,245.4,79.4,238.4z M99.4,238.6
		c0-6.6-2.7-11-7.2-11c-4.8,0-7.2,3.6-7.2,10.7c0,6.4,2.9,10.8,7.1,10.8C96.4,249.1,99.4,244.7,99.4,238.6z"/>
	<path d="M108.1,238.4c0-7,6-13,12.9-13s12.7,5.5,12.7,12.2c0,7-6.3,13.7-12.9,13.7C114,251.3,108.1,245.4,108.1,238.4z
		 M128.1,238.6c0-6.6-2.7-11-7.2-11c-4.8,0-7.2,3.6-7.2,10.7c0,6.4,2.9,10.8,7.1,10.8C125.1,249.1,128.1,244.7,128.1,238.6z"/>
	<path d="M139.7,249v-19.7l-3.8,0.3v-1.5l8.1-6.1l1,0.2l-0.2,4.1h8v2.7h-8.1v13.9c0,4.1,1.1,5,4.4,5c1.9,0,2.8-0.4,4.2-0.7l0.4,1.7
		c-2.6,1.4-5.5,2.3-8.3,2.3C141.8,251.3,139.9,250.4,139.7,249z"/>
	<path d="M155.2,248.3l3.2-0.2c0.1-0.2,0.1-2,0.1-4.4v-30.5l-3.9-0.7V211l7.9-2.7h1v22.2c2.1-2.8,4.7-5,8.7-5c4.1,0,6.5,1.8,6.5,6
		v12.3c0,2.4,0.1,4.2,0.1,4.4l3.2,0.2v2.1c-1.3-0.1-3.6-0.1-5.8-0.1c-2.1,0-4.4,0.1-5.7,0.1v-2.1l3.2-0.2c0.1-0.2,0.1-2,0.1-4.4
		v-9.3c0-3.9-1.6-5.5-4.5-5.5c-2.4,0-4.4,2-5.7,3.8v11c0,2.4,0.1,4.4,0.1,4.4l3.2,0.2v2.1c-1.3-0.1-3.5-0.1-5.8-0.1
		c-2.2,0-4.4,0.1-5.7,0.1v-2.2H155.2z"/>
	<path d="M184.5,238.3c0-7.3,5.3-12.8,11.8-12.8c5.7,0,10.1,4.5,10,9.9h-16.6c-0.1,0.6-0.1,1.3-0.1,1.9c0,7,4.2,9.8,7.9,9.8
		c3.2,0,5.4-1.1,7.6-3.6l1.1,0.7c-0.8,3.5-3.8,7.1-9.5,7.1C189.7,251.3,184.5,246,184.5,238.3z M190,233.4h11.6c0.1-3.8-2.4-6-5.4-6
		C193.1,227.4,190.9,229.5,190,233.4z"/>
	<path d="M209.1,248.8l13.8-20.3h-6.1c-3,0-4.3,1.9-4.7,4.9h-2l0.4-7h18.3v1.6L215,248.2h8c3,0,3.6-1.2,4.2-4.4h2.3l-0.4,6.6H209
		v-1.6H209.1z"/>
	<path d="M232.6,238.3c0-7.3,5.3-12.8,11.8-12.8c5.7,0,10.1,4.5,10,9.9h-16.7c-0.1,0.6-0.1,1.3-0.1,1.9c0,7,4.2,9.8,7.9,9.8
		c3.2,0,5.4-1.1,7.6-3.6l1.1,0.7c-0.8,3.5-3.8,7.1-9.5,7.1C237.8,251.3,232.6,246,232.6,238.3z M238.1,233.4h11.6
		c0.1-3.8-2.4-6-5.4-6C241.2,227.4,239,229.5,238.1,233.4z"/>
</g>
<rect x="45.7" y="263.5" class="st0" width="212" height="29.2"/>
<g class="st1">
	<path d="M55.2,264.6v20.5H54v-20.5h-7.7v-1.1h16.6v1.1H55.2z"/>
	<path d="M75.2,285.1V278c0-3.5-1.3-4.5-3.5-4.5s-4.7,2.2-4.7,4.7v6.9h-1.2v-21.6H67v12.1c0.8-1.9,3-3.2,5-3.2
		c2.9,0,4.5,1.6,4.5,5.5v7.2H75.2z"/>
	<path d="M90.9,278.2h-9.4c0,0,0,0.5,0,0.6c0,2.8,1.4,5.6,5.4,5.6c1.5,0,3.1-0.7,4-1.5v1c-1,0.9-2.6,1.4-4.5,1.4
		c-3.6,0-6.1-2.7-6.1-6.6c0-4.1,2.9-6.5,5.7-6.5c2.8,0,5,1.9,5,4.7C91,277.4,91,278,90.9,278.2z M89.9,276.8c0-1.8-1.6-3.4-3.8-3.4
		c-2,0-3.9,1.2-4.5,4h8.3V276.8z"/>
	<path d="M96.2,277.8v7.3H95v-12.3h1.1l0.1,2.7c0.9-2,3-3.1,4.7-3.1v1.3C98.5,273.5,96.2,275.4,96.2,277.8z"/>
	<path d="M109,272.4c2.2,0,4.1,1,5.2,3.1l0.1-2.7h1.1v12.3h-1.1l-0.1-2.7c-1,2.1-3,3.1-5.2,3.1c-3.4,0-6-2.7-6-6.6
		C102.9,275,105.6,272.4,109,272.4z M109.2,284.5c2.7,0,5-2,5-5.5s-2.3-5.5-5-5.5c-2.8,0-5,2-5,5.5S106.4,284.5,109.2,284.5z"/>
	<path d="M126.3,285.5c-2.2,0-4.1-1-5.1-3.1v9.6H120v-19.3h1.1v2.8c1-2.1,3-3.2,5.2-3.2c3.4,0,6,2.6,6,6.6
		C132.3,282.8,129.6,285.5,126.3,285.5z M126.1,273.4c-2.7,0-5,2-5,5.5s2.3,5.5,5,5.5c2.8,0,5-2.1,5-5.5S128.8,273.4,126.1,273.4z"
		/>
	<path d="M137.8,292.1h-1.2l3-7.2l-5-12.1h1.2l4.4,10.8l4.4-10.8h1.2L137.8,292.1z"/>
	<path d="M161.6,276.2h-5.1v8.9h-1.2v-21.6h6.3c4.4,0,6.3,3.1,6.3,6.4C167.9,273.2,166,276.2,161.6,276.2z M156.6,275.1h5.1
		c3.8,0,5.1-2.7,5.1-5.2s-1.3-5.3-5.1-5.3h-5.1V275.1z"/>
	<path d="M171.4,277.8v7.3h-1.2v-12.3h1.1l0.1,2.7c0.9-2,3-3.1,4.7-3.1v1.3C173.6,273.5,171.4,275.4,171.4,277.8z"/>
	<path d="M184.4,285.6c-3.6,0-6.5-2.8-6.5-6.6c0-3.8,2.8-6.6,6.5-6.6s6.5,2.8,6.5,6.6C190.9,282.8,188.1,285.6,184.4,285.6z
		 M184.4,273.4c-2.9,0-5.3,2.2-5.3,5.5c0,3.4,2.4,5.6,5.3,5.6c2.9,0,5.3-2.2,5.3-5.6C189.7,275.6,187.3,273.4,184.4,273.4z"/>
	<path d="M199.9,272.4c2.2,0,4.1,1,5.1,3.1v-12h1.2v21.6h-1.1v-2.8c-1,2.1-3,3.2-5.2,3.2c-3.4,0-6-2.6-6-6.6
		C193.9,275.1,196.6,272.4,199.9,272.4z M200.1,284.5c2.7,0,5-2,5-5.5s-2.3-5.5-5-5.5c-2.8,0-5,2.1-5,5.5S197.4,284.5,200.1,284.5z"
		/>
	<path d="M212,272.8v7.1c0,3.5,1.3,4.5,3.5,4.5s4.7-2.2,4.7-4.7v-6.9h1.2v12.3h-1.1l-0.1-2.8c-0.8,1.9-3,3.3-5,3.3
		c-2.9,0-4.5-1.6-4.5-5.5v-7.2L212,272.8L212,272.8z"/>
	<path d="M231.6,285.5c-3.5,0-6.3-2.6-6.3-6.6s2.8-6.6,6.3-6.6c1.4,0,2.8,0.3,4,1.2v1.1c-1.2-0.8-2.6-1.2-3.8-1.2
		c-3,0-5.3,2.1-5.3,5.5c0,3.5,2.3,5.5,5.3,5.5c1.2,0,2.7-0.4,3.8-1.2v1.1C234.4,285.3,233.1,285.5,231.6,285.5z"/>
	<path d="M242,273.8v11.3h-1.2v-11.3h-2.7v-1h2.7v-4.1h1.2v4.1h2.7v1H242z"/>
	<path d="M251.3,285.5c-1.9,0-3.5-0.8-4.1-1.1l0.2-1c0.9,0.5,2.4,1.1,3.9,1.1c1.9,0,3.2-0.8,3.2-2.6c0-1.4-1-2-3.4-2.7
		c-2.4-0.6-3.6-1.8-3.6-3.5c0-1.9,1.4-3.3,4.1-3.3c1.4,0,2.8,0.6,3.3,0.9l-0.2,1c-0.9-0.5-2.1-0.8-3.1-0.8c-2.1,0-2.9,0.9-2.9,2.2
		c0,1.4,1,2,2.9,2.6c2.6,0.7,4.1,1.8,4.1,3.6C255.7,284.3,253.8,285.5,251.3,285.5z"/>
</g>
<rect x="297.5" y="256.3" class="st0" width="14.5" height="38.5"/>
<g>
	<path d="M154.9,39.2L154.9,39.2c26.2,0,47.7,21.4,47.7,47.7v53.6c0,26.2-21.4,47.7-47.7,47.7l0,0c-26.2,0-47.7-21.4-47.7-47.7V86.8
		C107.3,60.6,128.7,39.2,154.9,39.2z"/>
	<path class="st2" d="M195.3,62.9c0,0-22.1,16.9-25.5,20.8c-3.4,4-19.1,12.2-24,15c-3.1,1.8-7.1,5.8-10.9,10.2
		c-2.3,2.6-2.4,6.3-3.1,8.6c-1.4,4.2-3,7.2-4.3,10.2c-1.3,2.9,3.8,3.9,5.9,1.2c1.6-1.9,2-6.7,4.6-7.5c13.4,9.7,25.2,6.4,34-20.3
		c4.4-5.4,28.6-8.9,30.6-12.5C202.6,88.7,202.4,74.6,195.3,62.9z"/>
	<path class="st3" d="M115,174.6c0,0,19.3-21.8,22.2-26.2c2.8-4.3,20.9-13.7,25.4-17.1c2.9-2.2,6.3-6.6,9.6-11.4
		c2-2.9,0.4-7,0.9-9.5c0.8-4.3,3.5-6.9,4.1-10.1c0.3-1.6-3-0.7-4.5,0c-2.2,1.1-4.1,4.2-5.1,7.7c-2.2,8.5-7.1,7.9-12,13.3
		c-4.6,5-9.5,4.4-7.7,0.1c1.9-4.3,11.1-8.9,7.6-13.3c-1.4-1.5-4.1,2-7.5,4.3c-2.6,1.7-5.4,3.6-5.9,3.9c-2,1.3-4,3.4-6.7,8.8
		c-2.3,4.6-0.9,5.3-1.8,8.9c-1.1,4.7-31,16.4-30.3,19.3L115,174.6z"/>
	<path class="st4" d="M199.3,60.6c-2.4,1.2-8.3,6.1-13.3,10l15.5,18.5l1-0.5l0.3,2.6l3.1-4.5L199.3,60.6z"/>
	<polygon class="st4" points="97.6,151.1 108,148.8 108.3,150 110.6,151.1 117.5,167.8 118.4,170.8 119.4,172.1 112.8,178 	"/>
</g>
</svg>
