<?xml version="1.0" encoding="utf-8"?>
<!-- Generator: Adobe Illustrator 25.2.1, SVG Export Plug-In . SVG Version: 6.00 Build 0)  -->
<svg version="1.1" id="Layer_1" xmlns="http://www.w3.org/2000/svg" xmlns:xlink="http://www.w3.org/1999/xlink" x="0px" y="0px"
	 viewBox="0 0 400 300" style="enable-background:new 0 0 400 300;" xml:space="preserve">
<style type="text/css">
	.st0{fill:none;stroke:#000000;stroke-width:2.3163;stroke-linecap:round;stroke-miterlimit:10;}
	.st1{fill:none;stroke:#000000;stroke-width:1.9589;stroke-linecap:round;stroke-miterlimit:10;}
	.st2{fill:#FFFFFF;}
	.st3{fill:none;stroke:#000000;stroke-width:2.0465;stroke-linecap:round;stroke-miterlimit:10;}
	.st4{fill:#FFFFFF;stroke:#000000;stroke-width:0.9116;stroke-miterlimit:10;}
	.st5{fill:none;stroke:#000000;stroke-width:2.2706;stroke-linecap:round;stroke-miterlimit:10;}
	.st6{fill:none;stroke:#000000;stroke-width:1.6198;stroke-linecap:round;stroke-miterlimit:10;}
	.st7{fill:#FFFFFF;stroke:#000000;stroke-width:2.3163;stroke-linecap:round;stroke-miterlimit:10;}
	.st8{fill:none;stroke:#000000;stroke-width:2.5731;stroke-linecap:round;stroke-linejoin:round;stroke-miterlimit:10;}
	.st9{font-family:'AvenirNextCondensed-Regular';}
	.st10{font-size:63.8141px;}
</style>
<g>
	<g>
		<path d="M17.5,279.8c0,0.9-0.1,1.6-0.3,2.4c-0.2,0.7-0.5,1.4-0.9,2.1c-0.4,0.7-0.8,1.3-1.2,1.9c-0.5,0.6-0.9,1.2-1.4,1.7l-4.8,5.6
			h8.3v5H1.9v-5.2l7.8-9c0.6-0.7,1.1-1.5,1.5-2.2c0.4-0.8,0.5-1.5,0.5-2.2c0-0.8-0.2-1.4-0.5-1.9c-0.4-0.5-0.9-0.8-1.7-0.8
			c-0.7,0-1.3,0.3-1.7,0.9c-0.5,0.6-0.7,1.4-0.8,2.5L1.5,280c0.3-2.6,1.2-4.6,2.7-5.9c1.5-1.3,3.3-2,5.6-2c1.2,0,2.3,0.2,3.2,0.5
			c0.9,0.4,1.8,0.9,2.4,1.5c0.7,0.7,1.2,1.5,1.5,2.4C17.3,277.6,17.5,278.7,17.5,279.8z"/>
		<path d="M37.4,285.6c0,1.5-0.1,3-0.3,4.6c-0.2,1.6-0.7,3-1.3,4.4c-0.6,1.3-1.5,2.4-2.6,3.3c-1.1,0.9-2.5,1.3-4.3,1.3
			c-1.7,0-3.2-0.4-4.3-1.3c-1.1-0.9-2-1.9-2.6-3.3c-0.6-1.3-1-2.8-1.3-4.4c-0.2-1.6-0.3-3.1-0.3-4.6c0-1.5,0.1-3,0.3-4.6
			c0.2-1.6,0.6-3,1.3-4.4c0.6-1.3,1.5-2.4,2.6-3.3c1.1-0.9,2.5-1.3,4.3-1.3c1.8,0,3.2,0.4,4.3,1.3c1.1,0.9,2,1.9,2.6,3.3
			c0.6,1.3,1,2.8,1.3,4.4C37.3,282.7,37.4,284.2,37.4,285.6z M31.5,285.6c0-0.9,0-1.8-0.1-2.7c-0.1-1-0.2-1.9-0.4-2.7
			c-0.2-0.8-0.5-1.5-0.8-2.1c-0.3-0.5-0.8-0.8-1.4-0.8c-0.6,0-1,0.3-1.4,0.8c-0.3,0.5-0.6,1.2-0.8,2.1c-0.2,0.8-0.3,1.7-0.4,2.7
			c-0.1,1-0.1,1.9-0.1,2.7c0,0.9,0,1.8,0.1,2.8c0.1,1,0.2,1.9,0.4,2.7c0.2,0.8,0.5,1.5,0.8,2c0.3,0.5,0.8,0.8,1.4,0.8
			c0.6,0,1-0.3,1.4-0.8c0.3-0.5,0.6-1.2,0.8-2c0.2-0.8,0.3-1.7,0.4-2.7C31.5,287.4,31.5,286.5,31.5,285.6z"/>
		<path d="M55.8,279.8c0,0.9-0.1,1.6-0.3,2.4c-0.2,0.7-0.5,1.4-0.9,2.1c-0.4,0.7-0.8,1.3-1.2,1.9c-0.5,0.6-0.9,1.2-1.4,1.7l-4.8,5.6
			h8.3v5H40.2v-5.2l7.8-9c0.6-0.7,1.1-1.5,1.5-2.2c0.4-0.8,0.5-1.5,0.5-2.2c0-0.8-0.2-1.4-0.5-1.9c-0.4-0.5-0.9-0.8-1.7-0.8
			c-0.7,0-1.3,0.3-1.7,0.9c-0.5,0.6-0.7,1.4-0.8,2.5l-5.5-0.5c0.3-2.6,1.2-4.6,2.7-5.9c1.5-1.3,3.3-2,5.6-2c1.2,0,2.3,0.2,3.2,0.5
			c0.9,0.4,1.8,0.9,2.4,1.5c0.7,0.7,1.2,1.5,1.5,2.4C55.6,277.6,55.8,278.7,55.8,279.8z"/>
		<path d="M75.7,279.8c0,0.9-0.1,1.6-0.3,2.4c-0.2,0.7-0.5,1.4-0.9,2.1c-0.4,0.7-0.8,1.3-1.2,1.9c-0.5,0.6-0.9,1.2-1.4,1.7l-4.8,5.6
			h8.3v5H60.1v-5.2l7.8-9c0.6-0.7,1.1-1.5,1.5-2.2c0.4-0.8,0.5-1.5,0.5-2.2c0-0.8-0.2-1.4-0.5-1.9c-0.4-0.5-0.9-0.8-1.7-0.8
			c-0.7,0-1.3,0.3-1.7,0.9c-0.5,0.6-0.7,1.4-0.8,2.5l-5.5-0.5c0.3-2.6,1.2-4.6,2.7-5.9c1.5-1.3,3.3-2,5.6-2c1.2,0,2.3,0.2,3.2,0.5
			c0.9,0.4,1.8,0.9,2.4,1.5c0.7,0.7,1.2,1.5,1.5,2.4C75.5,277.6,75.7,278.7,75.7,279.8z"/>
		<path d="M100.4,298.2c-1.1,0.7-2.6,1-4.4,1c-1.5,0-2.9-0.3-4.1-1c-1.2-0.7-2.3-1.6-3.2-2.8c-0.9-1.2-1.6-2.6-2-4.3
			c-0.5-1.7-0.7-3.5-0.7-5.5c0-2,0.2-3.9,0.7-5.5c0.5-1.7,1.2-3.1,2-4.3c0.9-1.2,1.9-2.1,3.2-2.8c1.2-0.7,2.6-1,4.1-1
			c1.7,0,3.2,0.3,4.3,0.9c1.2,0.6,2.1,1.4,2.8,2.3l-3.1,4.2c-0.4-0.6-0.9-1-1.5-1.4c-0.5-0.3-1.2-0.5-2.1-0.5c-0.8,0-1.5,0.2-2,0.6
			c-0.6,0.4-1.1,1-1.5,1.7c-0.4,0.7-0.7,1.6-0.9,2.6c-0.2,1-0.3,2-0.3,3.2c0,1.1,0.1,2.2,0.3,3.1c0.2,1,0.5,1.8,0.9,2.6
			c0.4,0.7,0.9,1.3,1.5,1.7c0.6,0.4,1.3,0.6,2,0.6c0.8,0,1.5-0.2,2-0.6c0.6-0.4,1-0.9,1.4-1.4l3.2,4
			C102.5,296.7,101.6,297.6,100.4,298.2z"/>
		<path d="M112.3,278v5.3h6.2v5h-6.1v10.3h-5.9v-25.8H119v5.2H112.3z"/>
		<path d="M134.8,298.5v-10.8h-6v10.8h-5.8v-25.8h5.8v9.8h6v-9.8h5.8v25.8H134.8z"/>
		<path d="M154,277.7v20.9h-5.7v-20.9h-4.7v-5h15.2v5H154z"/>
		<path d="M184,293c-0.3,1.2-0.8,2.3-1.5,3.2c-0.7,0.9-1.6,1.7-2.7,2.2c-1.1,0.5-2.5,0.8-4,0.8c-1.6,0-2.9-0.3-4-0.8
			c-1.1-0.5-2-1.3-2.7-2.2c-0.7-0.9-1.2-2-1.5-3.2c-0.3-1.2-0.5-2.6-0.5-4v-16.3h5.9v15.8c0,0.7,0,1.4,0.1,2
			c0.1,0.6,0.2,1.2,0.5,1.6c0.2,0.5,0.5,0.8,0.9,1.1c0.4,0.3,0.8,0.4,1.4,0.4c0.6,0,1.1-0.1,1.4-0.4c0.4-0.3,0.7-0.6,0.9-1.1
			c0.2-0.4,0.4-1,0.5-1.6c0.1-0.6,0.1-1.3,0.1-2v-15.8h5.8V289C184.5,290.4,184.3,291.8,184,293z"/>
		<path d="M199.3,278.9c-0.4-0.5-0.9-0.9-1.5-1.2c-0.6-0.3-1.2-0.4-1.8-0.4c-0.7,0-1.2,0.2-1.8,0.6c-0.5,0.4-0.8,1.1-0.8,2
			c0,0.8,0.3,1.4,0.8,1.9c0.5,0.5,1.3,0.9,2.4,1.5c0.6,0.3,1.2,0.6,1.9,1c0.6,0.4,1.2,0.9,1.8,1.5c0.5,0.6,1,1.3,1.3,2.1
			c0.4,0.8,0.5,1.8,0.5,2.9c0,1.4-0.2,2.6-0.7,3.7c-0.4,1.1-1,1.9-1.8,2.6c-0.7,0.7-1.6,1.2-2.6,1.6c-1,0.4-2,0.5-3,0.5
			c-1.6,0-3-0.3-4.2-0.9c-1.3-0.6-2.3-1.3-3.1-2l3-4.4c0.6,0.6,1.2,1.1,1.9,1.4c0.7,0.4,1.5,0.5,2.2,0.5c0.7,0,1.3-0.2,1.8-0.7
			c0.5-0.5,0.7-1.1,0.7-1.9c0-0.9-0.3-1.5-0.9-2c-0.6-0.5-1.4-1-2.6-1.6c-0.7-0.3-1.4-0.7-2-1.1c-0.6-0.4-1.2-0.9-1.6-1.5
			c-0.5-0.6-0.8-1.3-1.1-2c-0.3-0.8-0.4-1.7-0.4-2.8c0-1.4,0.2-2.7,0.7-3.7c0.5-1,1.1-1.9,1.9-2.5c0.8-0.7,1.6-1.1,2.6-1.5
			c0.9-0.3,1.9-0.5,2.8-0.5c1.4,0,2.7,0.2,3.8,0.7s2.1,1.1,2.8,1.9L199.3,278.9z"/>
		<path d="M205.4,298.5v-25.8h12.5v5.1H211v5.1h6.3v4.8H211v5.5h7.3v5.2H205.4z"/>
		<path d="M232.5,298.5l-3.5-10.3h-1.7v10.3h-5.6v-25.8h8.3c2.5,0,4.4,0.7,5.8,2c1.4,1.3,2.1,3.2,2.1,5.8c0,0.9-0.1,1.8-0.3,2.6
			c-0.2,0.8-0.5,1.4-0.9,1.9c-0.4,0.5-0.7,1-1.2,1.3c-0.4,0.3-0.9,0.6-1.3,0.7l4.4,11.5H232.5z M232.2,280.8c0-0.7-0.1-1.2-0.3-1.6
			c-0.2-0.4-0.4-0.7-0.7-1c-0.3-0.2-0.6-0.4-1-0.5c-0.4-0.1-0.7-0.1-1-0.1h-1.8v6.5h1.7c0.8,0,1.5-0.3,2.2-0.8
			C231.9,282.8,232.2,282,232.2,280.8z"/>
		<path d="M242.1,272.7h4.3l-2.3,9.4h-3.8L242.1,272.7z"/>
		<path d="M260.5,278.9c-0.4-0.5-0.9-0.9-1.5-1.2c-0.6-0.3-1.2-0.4-1.8-0.4c-0.7,0-1.2,0.2-1.8,0.6c-0.5,0.4-0.8,1.1-0.8,2
			c0,0.8,0.3,1.4,0.8,1.9c0.5,0.5,1.3,0.9,2.4,1.5c0.6,0.3,1.2,0.6,1.9,1c0.6,0.4,1.2,0.9,1.8,1.5c0.5,0.6,1,1.3,1.3,2.1
			c0.4,0.8,0.5,1.8,0.5,2.9c0,1.4-0.2,2.6-0.7,3.7c-0.4,1.1-1,1.9-1.8,2.6c-0.7,0.7-1.6,1.2-2.6,1.6c-1,0.4-2,0.5-3,0.5
			c-1.6,0-3-0.3-4.2-0.9c-1.3-0.6-2.3-1.3-3.1-2l3-4.4c0.6,0.6,1.2,1.1,1.9,1.4c0.7,0.4,1.5,0.5,2.2,0.5c0.7,0,1.3-0.2,1.8-0.7
			c0.5-0.5,0.7-1.1,0.7-1.9c0-0.9-0.3-1.5-0.9-2c-0.6-0.5-1.4-1-2.6-1.6c-0.7-0.3-1.4-0.7-2-1.1c-0.6-0.4-1.2-0.9-1.6-1.5
			c-0.5-0.6-0.8-1.3-1.1-2c-0.3-0.8-0.4-1.7-0.4-2.8c0-1.4,0.2-2.7,0.7-3.7s1.1-1.9,1.9-2.5c0.8-0.7,1.6-1.1,2.6-1.5
			c0.9-0.3,1.9-0.5,2.8-0.5c1.4,0,2.7,0.2,3.8,0.7c1.1,0.5,2.1,1.1,2.8,1.9L260.5,278.9z"/>
		<path d="M291.7,298.5l0.2-17.7h-0.1l-4.3,17.7h-4.1l-4.2-17.7H279l0.2,17.7h-5.3v-25.8h7.4l4.2,16.6h0.1l4-16.6h7.8v25.8H291.7z"
			/>
		<path d="M302,298.5v-25.8h12.5v5.1h-6.9v5.1h6.3v4.8h-6.3v5.5h7.3v5.2H302z"/>
		<path d="M318.4,298.5v-25.8h12.5v5.1h-6.9v5.1h6.3v4.8h-6.3v5.5h7.3v5.2H318.4z"/>
		<path d="M342.8,277.7v20.9h-5.7v-20.9h-4.7v-5h15.2v5H342.8z"/>
		<path d="M349.8,298.5v-25.8h5.9v25.8H349.8z"/>
		<path d="M371.4,298.5l-6-15.7h-0.1l0.1,15.7h-5.2v-25.8h6.4l5.9,15.9h0.1l-0.1-15.9h5v25.8H371.4z"/>
		<path d="M395.7,298.5c-1.2,0.4-2.5,0.6-4.1,0.6c-1.6,0-3.1-0.3-4.4-1c-1.3-0.7-2.4-1.6-3.2-2.8c-0.9-1.2-1.6-2.6-2-4.2
			c-0.5-1.7-0.7-3.5-0.7-5.5c0-2,0.2-3.9,0.7-5.5c0.5-1.7,1.1-3.1,2-4.3c0.9-1.2,1.9-2.1,3.2-2.8c1.2-0.7,2.6-1,4.1-1
			c1.7,0,3.2,0.3,4.4,0.9c1.2,0.6,2.1,1.3,2.8,2.2l-3.2,4.3c-0.9-1.2-2.1-1.8-3.6-1.8c-0.8,0-1.5,0.2-2.1,0.6
			c-0.6,0.4-1.1,1-1.5,1.7c-0.4,0.7-0.7,1.6-0.9,2.6c-0.2,1-0.3,2-0.3,3.1c0,1.1,0.1,2.1,0.3,3.1c0.2,1,0.4,1.8,0.8,2.6
			c0.4,0.7,0.9,1.3,1.4,1.7c0.6,0.4,1.3,0.7,2.1,0.7c0.9,0,1.6-0.2,2.1-0.5v-4.8h-2.8v-5.1h7.9V297
			C397.9,297.6,396.9,298.2,395.7,298.5z"/>
	</g>
	<g>
		<g>
			<path d="M77.7,236.9l0.1,3.5h-2l-0.1-1.8h-2.8v3.3h3.3v1.8h-3.3v3.3h1.3v1.7h-4.9V247h1.1v-8.4h-1.3v-1.7H77.7z"/>
			<path d="M84.4,236.9c2.8,0,3.7,1.6,3.7,3.2c0,1.6-1.3,3-2.8,3.1v0c0.9,0.1,1.1,0.5,2.1,2.2c0.9,1.5,1,1.6,1.5,1.6h0.4v1.7h-1.9
				c-0.6,0-0.8-0.2-1.2-0.6c-0.4-0.4-1.6-2.6-2-3.3c-0.4-0.7-0.7-0.9-1.1-0.9h-0.7v3.1h1.1v1.7H79V247H80v-8.4h-1.2v-1.7H84.4z
				 M83.8,242c1.2,0,1.9-0.6,1.9-1.7c0-1.2-0.6-1.7-2-1.7h-1.2v3.4H83.8z"/>
			<path d="M95.6,248.9c-3.7,0-5.8-2.3-5.8-6.1c0-3.4,2.3-6.1,5.8-6.1c3.6,0,5.8,2.3,5.8,6.1C101.5,246.6,99.4,248.9,95.6,248.9z
				 M98.8,242.8c0-2.6-1.2-4.2-3.2-4.2c-1.9,0-3.2,1.6-3.2,4.2c0,2.7,1.2,4.2,3.2,4.2C97.6,247,98.8,245.5,98.8,242.8z"/>
			<path d="M106.7,236.9l3,7.8c0.2,0.4,0.4,0.9,0.5,1.6h0c0-0.4,0.1-0.8,0.6-2.1l2.7-7.3h4.3v1.7h-1.2v8.4h1.2v1.7h-4.5V247h1v-6.8
				h0c-0.1,0.7-0.4,1.3-0.6,1.9l-2.5,6.6h-2.4l-2.7-6.9c-0.2-0.5-0.5-1.1-0.5-1.7h0v6.9h1.2v1.7h-4.2V247h1v-8.4h-1.2v-1.7H106.7z"
				/>
			<path d="M130.9,236.9l3.9,10.1h0.9v1.7H131V247h1l-0.8-2.3h-4.1l-0.8,2.3h1.1v1.7h-4.4V247h0.9l4.1-10.1H130.9z M129.3,238.7
				c-0.1,0.5-0.2,1-0.4,1.5l-1,2.7h2.7l-0.9-2.6C129.5,239.6,129.4,239.1,129.3,238.7L129.3,238.7z"/>
			<path d="M150.3,240.1h-2.2v-1.4c-0.5-0.2-1-0.3-1.6-0.3c-1.4,0-2.2,0.6-2.2,1.5c0,1,0.5,1.1,2.8,1.7c2.1,0.5,3.7,1.2,3.7,3.5
				c0,2.4-1.7,3.9-4.9,3.9c-1.3,0-2.7-0.1-4.2-0.7v-3.1h2.5v1.6c0.6,0.3,1.3,0.3,2,0.3c1.5,0,2.1-0.7,2.1-1.6c0-0.9-0.7-1.1-2.5-1.6
				c-1.6-0.4-3.9-0.7-3.9-3.5c0-2.1,1.7-3.5,4.7-3.5c1.4,0,2.9,0.2,3.9,0.6V240.1z"/>
			<path d="M162.7,236.9l0.1,3.3h-2l-0.1-1.6h-2.1v8.4h1.1v1.7H155V247h1.1v-8.4H154l-0.1,1.6h-2l0.1-3.3H162.7z"/>
			<path d="M169.2,236.9c2.8,0,3.7,1.6,3.7,3.2c0,1.6-1.3,3-2.8,3.1v0c0.9,0.1,1.1,0.5,2.1,2.2c0.9,1.5,1,1.6,1.5,1.6h0.4v1.7h-1.9
				c-0.6,0-0.8-0.2-1.2-0.6c-0.4-0.4-1.6-2.6-2-3.3c-0.4-0.7-0.7-0.9-1.1-0.9h-0.7v3.1h1.1v1.7h-4.6V247h1.1v-8.4h-1.2v-1.7H169.2z
				 M168.6,242c1.2,0,1.9-0.6,1.9-1.7c0-1.2-0.6-1.7-2-1.7h-1.2v3.4H168.6z"/>
			<path d="M180.4,248.9c-3.7,0-5.8-2.3-5.8-6.1c0-3.4,2.3-6.1,5.8-6.1c3.6,0,5.8,2.3,5.8,6.1C186.3,246.6,184.2,248.9,180.4,248.9z
				 M183.6,242.8c0-2.6-1.2-4.2-3.2-4.2c-1.9,0-3.2,1.6-3.2,4.2c0,2.7,1.2,4.2,3.2,4.2S183.6,245.5,183.6,242.8z"/>
			<path d="M190.5,236.9l4.9,6.2c0.6,0.8,0.9,1.3,1.1,1.7h0v-6.1h-1.1v-1.7h4.3v1.7h-1.2v10.1h-1.8l-5.5-6.9c-0.6-0.8-0.6-1-0.7-1h0
				v6.2h1.1v1.7h-4.2V247h1.1v-8.4h-1.5v-1.7H190.5z"/>
			<path d="M211.3,240.7h-2.1v-1.9c-0.6-0.2-1.2-0.2-1.7-0.2c-2.5,0-4,1.6-4,4.2c0,2.5,1.3,4.2,4,4.2c0.5,0,0.7,0,1.3-0.1v-2.2h-1.2
				v-1.8h4.7v1.8h-1.1v3.7c-1.4,0.4-2.6,0.6-4,0.6c-4,0-6.3-2.3-6.3-6c0-3.7,2.4-6.2,6.5-6.2c1.3,0,2.4,0.2,3.9,0.7V240.7z"/>
			<path d="M226.5,236.9l0.1,3.5h-2l-0.1-1.8h-2.8v3.3h3.3v1.8h-3.3v3.3h1.3v1.7h-4.9V247h1.1v-8.4H218v-1.7H226.5z"/>
			<path d="M233.5,248.9c-3.7,0-5.8-2.3-5.8-6.1c0-3.4,2.3-6.1,5.8-6.1c3.6,0,5.8,2.3,5.8,6.1C239.3,246.6,237.2,248.9,233.5,248.9z
				 M236.7,242.8c0-2.6-1.2-4.2-3.2-4.2c-1.9,0-3.2,1.6-3.2,4.2c0,2.7,1.2,4.2,3.2,4.2C235.5,247,236.7,245.5,236.7,242.8z"/>
			<path d="M245,236.9v1.7h-1.1v5.6c0,1.9,0.7,2.7,2.4,2.7c2,0,2.6-1,2.6-2.7v-5.6h-1.3v-1.7h4.6v1.7h-1.1v5.4c0,3.3-1.2,4.9-5,4.9
				c-3.3,0-4.7-1.2-4.7-4.2v-6h-1.1v-1.7H245z"/>
			<path d="M256.4,236.9l4.9,6.2c0.6,0.8,0.9,1.3,1.1,1.7h0v-6.1h-1.1v-1.7h4.3v1.7h-1.2v10.1h-1.8l-5.5-6.9c-0.6-0.8-0.6-1-0.7-1h0
				v6.2h1.1v1.7h-4.2V247h1.1v-8.4h-1.5v-1.7H256.4z"/>
			<path d="M272.2,236.9c3.8,0,6.3,1.9,6.3,5.6c0,3.7-2.5,6.2-6.1,6.2h-5.7V247h1.3v-8.4h-1.3v-1.7H272.2z M271.8,247
				c2.3,0,4-1.5,4-4.4c0-2.7-1.5-4-4-4h-1.5v8.4H271.8z"/>
			<path d="M286,236.9l3.9,10.1h0.9v1.7h-4.7V247h1l-0.8-2.3h-4.1l-0.8,2.3h1.1v1.7h-4.4V247h0.9l4.1-10.1H286z M284.4,238.7
				c-0.1,0.5-0.2,1-0.4,1.5l-1,2.7h2.7l-0.9-2.6C284.6,239.6,284.5,239.1,284.4,238.7L284.4,238.7z"/>
			<path d="M301,236.9l0.1,3.3h-2l-0.1-1.6h-2.1v8.4h1.1v1.7h-4.6V247h1.1v-8.4h-2.1l-0.1,1.6h-2l0.1-3.3H301z"/>
			<path d="M306.6,236.9v1.7h-1.1v8.4h1.1v1.7h-4.6V247h1.1v-8.4h-1.1v-1.7H306.6z"/>
			<path d="M313.7,248.9c-3.7,0-5.8-2.3-5.8-6.1c0-3.4,2.3-6.1,5.8-6.1c3.6,0,5.8,2.3,5.8,6.1C319.6,246.6,317.4,248.9,313.7,248.9z
				 M316.9,242.8c0-2.6-1.2-4.2-3.2-4.2c-1.9,0-3.2,1.6-3.2,4.2c0,2.7,1.2,4.2,3.2,4.2C315.7,247,316.9,245.5,316.9,242.8z"/>
			<path d="M323.8,236.9l4.9,6.2c0.6,0.8,0.9,1.3,1.1,1.7h0v-6.1h-1.1v-1.7h4.3v1.7h-1.2v10.1H330l-5.5-6.9c-0.6-0.8-0.6-1-0.7-1h0
				v6.2h1.1v1.7h-4.2V247h1.1v-8.4h-1.5v-1.7H323.8z"/>
		</g>
	</g>
	<path class="st8" d="M79.2,180.5c32.6-48.1,30-131.3,32.8-161.1c0.5-5.1,7.9-7.8,7.6-8.9c0-0.1-3.2-0.6-4.4-0.5c-2,0.3-1-5.4,0-5.4
		s1.2,5.2,0,5.4c-0.6,0.1-4,0.1-4.2,0.4c-0.8,1,6.9,3.8,7.2,9c1.4,27.1-4,110.5,27.6,161.1c3.8,6-23.4-51.2-51.9-51.8
		c28.5,0.6,33.5,0.5,37.6,0c-4-2.9-14.2-18.9-32.3-20.6c4.7,0,28.7,1.7,30.7,0c2-1.7-24-6.2-24-6.2l15.4,0l-14.7-6.4l14.3,0.1
		L108,88.4h12.4l-12-7.7l11.3,0.2l-10.8-7.6l10.5,0l-9.7-7.3h9.2l-9-6.1h8.9l-8.7-6.9h8.6l-8.2-6.5l8.1-0.3l-7.8-6.1h7.8l-7.6-6.7
		h7.5l-7-7.4l6.9,0l-6.4-6.7l6.2,0"/>
	<path class="st8" d="M318.5,179c0,0-10.5,2.9-26,0.9c-6.8-0.9-14.2-3.2-21.4-3.8c-6.4-0.5-16.1,2.8-21.6,2.5
		c-8.1-0.5-11.2-2.1-14.3-1.9c-4.5,0.3-8.2,2.9-12.6,3c-5.4,0-5.9-2.8-10.2-2.6c-4.8,0.2-4.7,6.6-10.3,6.8c-5.7,0.2-6.4-8-9.9-8.4
		c-2.3-0.3-5,22.6-6.7,15.3c-1-4.3-5.1-50.3-9.4-50.3c-2.7,0-3.9,48.9-5.9,46.4c-10.6-13.2-14.1-100.1-16.2-81.6
		c0,0-0.5,86.8-8.3,75.3"/>
	<g>
		<path d="M74.2,209.2c4.2,0,4.8,2.7,4.8,4c0,2-1.2,3.5-3.1,3.8v0c2.5,0.1,4.2,1.6,4.2,4.2c0,2.9-2.2,4.5-5.7,4.5h-5.9v-1h1.9
			l0.1-14.4h-2v-1H74.2z M71.8,224.6h2.5c3,0,4.6-1.2,4.6-3.5c0-2.2-1.8-3.4-4.4-3.4h-2.7L71.8,224.6z M71.8,216.7h2
			c2.2,0,3.9-1.3,3.9-3.4c0-1.9-1.1-3-3.5-3h-2.4L71.8,216.7z"/>
		<path d="M96.5,219.4c0,2.8-0.7,4.9-2.4,5.8c-0.9,0.5-2,0.8-3.7,0.8c-1.6,0-2.8-0.2-3.6-0.7c-1.8-0.9-2.4-2.4-2.4-5.9
			c0-1.2,0-4.2,0.1-9.1h-2.1v-1h5.3v1h-1.9c0,1.9-0.1,6.8-0.1,8.9c0,4.3,0.8,5.6,4.8,5.6c3.5,0,4.7-1.1,4.7-6l0.1-8.6h-2.1v-1h5.2v1
			h-1.9L96.5,219.4z"/>
		<path d="M105.9,209.2v1H104l-0.1,14.4h2v1h-5.2v-1h1.9l0.1-14.4h-2v-1H105.9z"/>
		<path d="M113.6,209.2v1h-1.9l-0.1,14.4h6.5l0.2-2.4h1.1l-0.2,3.5h-10.8v-1h1.9l0.1-14.4h-2v-1H113.6z"/>
		<path d="M128.7,209.2c5,0,8.2,2.7,8.2,8.2c0,5.4-3.3,8.3-8.5,8.3h-7v-1h1.9l0.1-14.4h-2v-1H128.7z M124.7,224.6h3.6
			c4.5,0,7.3-2.7,7.3-7.3c0-4.6-2.7-7.1-7.3-7.1h-3.6L124.7,224.6z"/>
		<path d="M144.6,209.2v1h-1.9l-0.1,14.4h2v1h-5.2v-1h1.9l0.1-14.4h-2v-1H144.6z"/>
		<path d="M150.3,209.2l9.9,13.6c0.2,0.3,0.4,0.6,0.6,1h0l0.1-13.6h-2.3v-1h5.4v1h-1.8l-0.1,15.4h-1.3l-10-13.7
			c-0.1-0.2-0.3-0.5-0.5-0.9h0l-0.1,13.6h2.2v1h-5.3v-1h1.9l0.1-14.4h-2.2v-1H150.3z"/>
		<path d="M179.5,209.7v3.2h-1.2v-2.3c-0.8-0.3-2-0.5-3.5-0.5c-4.7,0-7.5,2.9-7.5,7.5c0,4.5,2.8,7.2,7.2,7.2c1.3,0,2.5-0.2,3.3-0.4
			l0.1-4.6h-2.1v-1h5.2v1h-1.9l-0.1,5.5c-2.6,0.5-3.3,0.6-4.7,0.6c-5.2,0-8.3-3.2-8.3-8.5c0-5.2,3.5-8.5,8.7-8.5
			C176.4,208.9,177.8,209.1,179.5,209.7z"/>
		<path d="M202.2,209.2l0.1,3.7h-1.1l-0.1-2.7h-5.2l-0.1,14.4h2.2v1h-5.5v-1h2.1l0.1-14.4h-5.3l-0.1,2.7h-1.1l0.1-3.7H202.2z"/>
		<path d="M209.5,209.2v1h-2l0,6.7h9.5l0-6.7h-2.1v-1h5.3v1h-1.9l-0.1,14.4h2v1h-5.3v-1h2l0-6.6h-9.5l0,6.6h2.1v1h-5.3v-1h1.9
			l0.1-14.4h-2v-1H209.5z"/>
		<path d="M233.1,209.2v3.3h-1v-2.3h-6.3l0,6.6h5.7v1h-5.7l0,6.8h6.5l0.2-2.4h1.1l-0.2,3.5h-10.8v-1h1.9l0.1-14.4h-2v-1H233.1z"/>
		<path d="M253.2,209.2l0,3.4H252l0-2.3h-6.1l0,6.7h6.3v1h-6.3l0,6.6h2.2v1h-5.4v-1h1.9l0.1-14.4h-2v-1H253.2z"/>
		<path d="M269.5,219.4c0,2.8-0.7,4.9-2.4,5.8c-0.9,0.5-2,0.8-3.7,0.8c-1.6,0-2.8-0.2-3.6-0.7c-1.8-0.9-2.4-2.4-2.4-5.9
			c0-1.2,0-4.2,0.1-9.1h-2.1v-1h5.3v1h-1.9c0,1.9-0.1,6.8-0.1,8.9c0,4.3,0.8,5.6,4.8,5.6c3.5,0,4.7-1.1,4.7-6l0.1-8.6h-2.1v-1h5.2v1
			h-1.9L269.5,219.4z"/>
		<path d="M287.2,209.2l0.1,3.7h-1.1l-0.1-2.7h-5.2l-0.1,14.4h2.2v1h-5.5v-1h2.1l0.1-14.4h-5.3l-0.1,2.7h-1.1l0.1-3.7H287.2z"/>
		<path d="M303.1,219.4c0,2.8-0.7,4.9-2.4,5.8c-0.9,0.5-2,0.8-3.7,0.8c-1.6,0-2.8-0.2-3.6-0.7c-1.8-0.9-2.4-2.4-2.4-5.9
			c0-1.2,0-4.2,0.1-9.1h-2.1v-1h5.3v1h-1.9c0,1.9-0.1,6.8-0.1,8.9c0,4.3,0.8,5.6,4.8,5.6c3.5,0,4.7-1.1,4.7-6l0.1-8.6h-2.1v-1h5.2v1
			h-1.9L303.1,219.4z"/>
		<path d="M312.7,209.2c3.6,0,5.3,1.4,5.3,4.2c0,2.6-1.9,4.2-3.8,4.4v0c0.7,0.1,1.2,0.6,2,1.8l1.8,3.1c1,1.7,1.2,1.9,2.1,1.9
			c0.3,0,0.5,0,0.8-0.1v1.1c-0.3,0-0.7,0.1-1.2,0.1c-1,0-1.4-0.2-2.1-1.3l-2.6-4.3c-1.1-1.9-1.8-2-2.8-2h-1.9l0,6.4h2.1v1h-5.3v-1
			h1.9l0.1-14.4h-2v-1H312.7z M310.3,217.1h2.4c2.2,0,4-1.3,4-3.5c0-2.3-1.3-3.3-4-3.3h-2.2L310.3,217.1z"/>
		<path d="M332.9,209.2v3.3h-1v-2.3h-6.3l0,6.6h5.7v1h-5.7l0,6.8h6.5l0.2-2.4h1.1l-0.2,3.5h-10.8v-1h1.9l0.1-14.4h-2v-1H332.9z"/>
	</g>
	<text transform="matrix(1.0097 0 0 1 47.8549 246.9531)" class="st9 st10">[</text>
	<text transform="matrix(1.0097 0 0 1 336.621 246.9531)" class="st9 st10">]</text>
</g>
</svg>
