<?xml version="1.0" encoding="utf-8"?>
<!-- Generator: Adobe Illustrator 25.2.1, SVG Export Plug-In . SVG Version: 6.00 Build 0)  -->
<svg version="1.1" id="Layer_1" xmlns="http://www.w3.org/2000/svg" xmlns:xlink="http://www.w3.org/1999/xlink" x="0px" y="0px"
	 viewBox="0 0 400 300" style="enable-background:new 0 0 400 300;" xml:space="preserve">
<style type="text/css">
	.st0{fill:none;stroke:#000000;stroke-width:2.3163;stroke-linecap:round;stroke-miterlimit:10;}
	.st1{fill:none;stroke:#000000;stroke-width:1.9589;stroke-linecap:round;stroke-miterlimit:10;}
	.st2{fill:#FFFFFF;}
	.st3{fill:none;stroke:#000000;stroke-width:2.0465;stroke-linecap:round;stroke-miterlimit:10;}
	.st4{fill:#FFFFFF;stroke:#000000;stroke-width:0.9116;stroke-miterlimit:10;}
	.st5{fill:none;stroke:#000000;stroke-width:2.2706;stroke-linecap:round;stroke-miterlimit:10;}
	.st6{fill:none;stroke:#000000;stroke-width:1.6198;stroke-linecap:round;stroke-miterlimit:10;}
	.st7{fill:#FFFFFF;stroke:#000000;stroke-width:2.3163;stroke-linecap:round;stroke-miterlimit:10;}
	.st8{fill:none;stroke:#000000;stroke-width:2.5731;stroke-linecap:round;stroke-linejoin:round;stroke-miterlimit:10;}
</style>
<g>
	<g>
		<path d="M108.4,211.3v-19.7h3.5c2.5,0,4,1.9,4,5c0,2.5-0.9,3.9-2.4,4.5c1.6,0.3,2.7,2.5,2.7,4.8c0,3.3-1.3,5.3-4.2,5.3H108.4z
			 M109.9,200.5h1.7c2,0,2.6-1.7,2.6-3.7s-0.6-3.7-2.6-3.7h-1.7V200.5z M109.9,209.9h1.9c2,0,2.7-1.5,2.7-4c0-2.1-0.7-4-2.7-4h-1.9
			V209.9z"/>
		<path d="M119.6,191.7h1.6v14.9c0,2.7,1,3.7,2.6,3.7s2.6-0.9,2.6-3.7v-14.9h1.6v14.9c0,3.6-1.7,5.2-4.2,5.2c-2.4,0-4.1-1.6-4.1-5.2
			V191.7z"/>
		<path d="M131.9,211.3v-19.7h1.6v19.7H131.9z"/>
		<path d="M137.5,211.3v-19.7h1.6v18.2h5.2v1.4H137.5z"/>
		<path d="M146.9,211.3v-19.7h3.2c3.8,0,5.4,4.2,5.4,9.8c0,5.7-1.5,9.8-5.3,9.8H146.9z M148.5,209.9h1.7c2.7,0,3.7-3.6,3.7-8.4
			c0-4.8-1-8.4-3.7-8.4h-1.7V209.9z"/>
		<path d="M158.9,211.3v-19.7h1.6v19.7H158.9z"/>
		<path d="M171.2,211.3l-5.2-15.7v15.7h-1.6v-19.7h1.6l5.1,15.4v-15.4h1.6v19.7H171.2z"/>
		<path d="M180.8,191.3c2.1,0,3.1,1.6,3.7,3.4l-1.4,0.5c-0.5-1.5-1.1-2.5-2.3-2.5c-2.2,0-3,3.7-3,8.7c0,5,0.8,8.7,3,8.7
			c1,0,1.8-0.5,2.2-1.4V203h-2.8v-1.4h4.3v7.8c-0.9,1.5-2.2,2.2-3.7,2.2c-3.3,0-4.7-4.2-4.7-10.2
			C176.1,195.5,177.5,191.3,180.8,191.3z"/>
		<path d="M195.2,211.3v-18.2H192v-1.4h7.9v1.4h-3.2v18.2H195.2z"/>
		<path d="M209.1,211.3v-9.4H204v9.4h-1.6v-19.7h1.6v8.8h5.1v-8.8h1.6v19.7H209.1z"/>
		<path d="M214.7,211.3v-19.7h6.7v1.4h-5.2v7.4h5v1.4h-5v7.9h5.2v1.4H214.7z"/>
		<path d="M230,211.3v-19.7h6.7v1.4h-5.2v7.4h5v1.4h-5v9.4H230z"/>
		<path d="M240,191.7h1.6v14.9c0,2.7,1,3.7,2.6,3.7c1.5,0,2.6-0.9,2.6-3.7v-14.9h1.6v14.9c0,3.6-1.7,5.2-4.2,5.2
			c-2.4,0-4.1-1.6-4.1-5.2V191.7z"/>
		<path d="M254,211.3v-18.2h-3.2v-1.4h7.9v1.4h-3.2v18.2H254z"/>
		<path d="M261.3,191.7h1.6v14.9c0,2.7,1,3.7,2.6,3.7c1.5,0,2.6-0.9,2.6-3.7v-14.9h1.6v14.9c0,3.6-1.7,5.2-4.2,5.2
			c-2.4,0-4.1-1.6-4.1-5.2V191.7z"/>
		<path d="M279.8,211.3l-2.7-8.2h-1.9v8.2h-1.6v-19.7h3.5c2.5,0,4.3,2.1,4.3,5.7c0,3.5-1.6,5-2.8,5.4l3,8.6H279.8z M276.9,193.1
			h-1.8v8.6h1.8c1.9,0,2.8-1.8,2.8-4.3C279.7,194.9,278.8,193.1,276.9,193.1z"/>
		<path d="M285,211.3v-19.7h6.7v1.4h-5.2v7.4h5v1.4h-5v7.9h5.2v1.4H285z"/>
	</g>
	<g>
		<g>
			<path d="M108.4,229.4v-8.5h4.9v1.5h-3.1v1.9h3.1v1.5h-3.1v3.6H108.4z"/>
			<path d="M119.6,229.4l-1.3-3.1h-0.9v3.1h-1.7v-8.5h3.2c1.5,0,2.6,1.1,2.6,2.7c0,1.5-0.8,2.2-1.5,2.4l1.5,3.4H119.6z M118.6,222.4
				h-1.2v2.4h1.2c0.7,0,1.1-0.5,1.1-1.2C119.7,222.9,119.3,222.4,118.6,222.4z"/>
			<path d="M127.2,220.8c2.2,0,3.5,1.9,3.5,4.4c0,2.5-1.3,4.4-3.5,4.4c-2.2,0-3.5-1.9-3.5-4.4C123.6,222.6,125,220.8,127.2,220.8z
				 M127.2,222.3c-1.2,0-1.8,1.2-1.8,2.9c0,1.6,0.6,2.9,1.8,2.9c1.2,0,1.8-1.3,1.8-2.9C129,223.5,128.3,222.3,127.2,222.3z"/>
			<path d="M139.3,229.4v-5.8l-1.9,5.8h-0.7l-1.9-5.8v5.8h-1.7v-8.5h2.3l1.6,5.1l1.7-5.1h2.3v8.5H139.3z"/>
			<path d="M152.2,229.4l-0.4-1.5h-2.8l-0.4,1.5h-1.8l2.5-8.5h2.1l2.5,8.5H152.2z M150.5,222.4l-1,4h2.1L150.5,222.4z"/>
			<path d="M160.2,227.1c0.5,0.5,1.2,0.9,2,0.9c0.8,0,1.2-0.4,1.2-0.9c0-0.6-0.6-0.9-1.4-1.3c-1.1-0.4-2.4-0.9-2.4-2.6
				c0-1.3,1-2.5,2.8-2.5c1,0,1.9,0.3,2.6,0.9l-0.8,1.3c-0.5-0.5-1.2-0.7-1.8-0.7c-0.6,0-1,0.4-1,0.9c0,0.6,0.6,0.8,1.3,1.2
				c1.1,0.4,2.4,1,2.4,2.7c0,1.5-1,2.6-2.9,2.6c-1.3,0-2.2-0.4-2.9-1.1L160.2,227.1z"/>
			<path d="M168.8,229.4v-7h-1.9v-1.5h5.5v1.5h-1.9v7H168.8z"/>
			<path d="M178.6,229.4l-1.3-3.1h-0.9v3.1h-1.7v-8.5h3.2c1.5,0,2.6,1.1,2.6,2.7c0,1.5-0.8,2.2-1.5,2.4l1.5,3.4H178.6z M177.6,222.4
				h-1.2v2.4h1.2c0.7,0,1.1-0.5,1.1-1.2C178.7,222.9,178.3,222.4,177.6,222.4z"/>
			<path d="M186.2,220.8c2.2,0,3.5,1.9,3.5,4.4c0,2.5-1.3,4.4-3.5,4.4c-2.2,0-3.5-1.9-3.5-4.4C182.6,222.6,183.9,220.8,186.2,220.8z
				 M186.2,222.3c-1.2,0-1.8,1.2-1.8,2.9c0,1.6,0.6,2.9,1.8,2.9c1.2,0,1.8-1.3,1.8-2.9C188,223.5,187.3,222.3,186.2,222.3z"/>
			<path d="M196.7,229.4l-2.9-5.4v5.4h-1.7v-8.5h1.7l2.8,5.2v-5.2h1.7v8.5H196.7z"/>
			<path d="M204.3,220.8c1.5,0,2.4,0.9,2.8,1.9l-1.4,0.6c-0.3-0.6-0.7-1.1-1.4-1.1c-1.1,0-1.8,1.1-1.8,2.9c0,1.8,0.7,2.9,1.8,2.9
				c0.6,0,1-0.2,1.3-0.5v-1.3H204v-1.5h3.2v3.4c-0.7,0.8-1.7,1.3-2.9,1.3c-2.1,0-3.6-1.8-3.6-4.4
				C200.8,222.5,202.2,220.8,204.3,220.8z"/>
			<path d="M213.8,229.4v-8.5h4.9v1.5h-3.1v1.9h3.1v1.5h-3.1v3.6H213.8z"/>
			<path d="M224.2,220.8c2.2,0,3.5,1.9,3.5,4.4c0,2.5-1.3,4.4-3.5,4.4c-2.2,0-3.5-1.9-3.5-4.4C220.7,222.6,222,220.8,224.2,220.8z
				 M224.2,222.3c-1.2,0-1.8,1.2-1.8,2.9c0,1.6,0.6,2.9,1.8,2.9c1.2,0,1.8-1.3,1.8-2.9C226,223.5,225.4,222.3,224.2,222.3z"/>
			<path d="M230.2,220.9h1.7v5.6c0,1,0.5,1.6,1.4,1.6c0.9,0,1.4-0.6,1.4-1.6v-5.6h1.7v5.5c0,2-1.2,3.1-3.1,3.1
				c-1.9,0-3.1-1.1-3.1-3.1V220.9z"/>
			<path d="M243.8,229.4l-2.9-5.4v5.4h-1.7v-8.5h1.7l2.8,5.2v-5.2h1.7v8.5H243.8z"/>
			<path d="M248.1,229.4v-8.5h2.7c2.3,0,3.7,1.8,3.7,4.2c0,2.5-1.3,4.2-3.7,4.2H248.1z M249.8,227.9h1c1.3,0,1.9-1.1,1.9-2.7
				c0-1.7-0.7-2.7-1.9-2.7h-1V227.9z"/>
			<path d="M261.3,229.4l-0.4-1.5h-2.8l-0.4,1.5H256l2.5-8.5h2.1l2.5,8.5H261.3z M259.5,222.4l-1,4h2.1L259.5,222.4z"/>
			<path d="M265.8,229.4v-7H264v-1.5h5.5v1.5h-1.9v7H265.8z"/>
			<path d="M271.7,229.4v-8.5h1.7v8.5H271.7z"/>
			<path d="M279.4,220.8c2.2,0,3.5,1.9,3.5,4.4c0,2.5-1.3,4.4-3.5,4.4c-2.2,0-3.5-1.9-3.5-4.4C275.8,222.6,277.2,220.8,279.4,220.8z
				 M279.4,222.3c-1.2,0-1.8,1.2-1.8,2.9c0,1.6,0.6,2.9,1.8,2.9c1.2,0,1.8-1.3,1.8-2.9C281.2,223.5,280.5,222.3,279.4,222.3z"/>
			<path d="M289.9,229.4L287,224v5.4h-1.7v-8.5h1.7l2.8,5.2v-5.2h1.7v8.5H289.9z"/>
		</g>
	</g>
	<path class="st1" d="M80.8,245.2C82.7,235,85.8,42.1,92.8,42.1c7,0,3.9,132,9.3,132s4.3-39.9,5.9-31c0.6,3.1,3,26.8,6.1,26.4
		c3.1-0.4,3.9-19,7.4-19s3.8,17.5,5.4,16.2c1.6-1.3,3.5-2.2,7-3.8c3.5-1.6,12,3.9,14.7,3.7c2.7-0.1,3.9-1.4,7.8-3.4
		s10.6,10.9,10.6,3.4v-22.6"/>
	<path class="st1" d="M318.1,167.7c-2.3-0.1-16.1-7.6-27.4-2.9c-10.6,4.4-18.6-2.5-28.2,1.8c-9.1,4.1-16.3-0.3-18,0
		c-5,0.9-6.6-1.3-9.9-3.3s-8.1,10.8-8.1,3.3v-22.6"/>
	<polyline class="st1" points="317.9,168.1 317.9,247.4 81.1,247.4 	"/>
	<rect x="5.9" y="242.9" width="388.2" height="56.2"/>
	<g>
		<path class="st2" d="M22.5,284.7v-3.5c8.2-11.5,9.1-13.3,9.1-16.2c0-2-1.1-3.6-2.9-3.6c-1.8,0-3.1,1-4.1,3.1l-2.7-2.4
			c1.6-2.7,3.7-4.4,7-4.4c4.2,0,6.9,2.9,6.9,7.2c0,3.5-1.5,6.4-7.9,16.1h8v3.7H22.5z"/>
		<path class="st2" d="M46,257.7c5.4,0,7.2,5.7,7.2,13.7c0,8-1.8,13.7-7.2,13.7c-5.4,0-7.2-5.7-7.2-13.7
			C38.8,263.4,40.6,257.7,46,257.7z M46,261.4c-2.7,0-3,4.7-3,10c0,5.3,0.3,10,3,10s3-4.8,3-10C49,266.1,48.7,261.4,46,261.4z"/>
		<path class="st2" d="M56.5,284.7v-3.5c8.2-11.5,9.1-13.3,9.1-16.2c0-2-1.1-3.6-2.9-3.6c-1.8,0-3.1,1-4.1,3.1l-2.7-2.4
			c1.6-2.7,3.7-4.4,7-4.4c4.2,0,6.9,2.9,6.9,7.2c0,3.5-1.5,6.4-7.9,16.1h8v3.7H56.5z"/>
		<path class="st2" d="M74,284.7v-3.5c8.2-11.5,9.1-13.3,9.1-16.2c0-2-1.1-3.6-2.9-3.6c-1.8,0-3.1,1-4.1,3.1l-2.7-2.4
			c1.6-2.7,3.7-4.4,7-4.4c4.2,0,6.9,2.9,6.9,7.2c0,3.5-1.5,6.4-7.9,16.1h8v3.7H74z"/>
		<path class="st2" d="M96.9,271.4c0-7.8,2.3-13.7,7.7-13.7c3.9,0,5.3,3.1,6.2,5.8l-3.3,1.2c-0.6-2-1.3-3.3-2.8-3.3
			c-2.5,0-3.5,4.3-3.5,10s0.9,10,3.5,10c1.8,0,2.5-1.7,2.9-3.9l3.4,1.2c-0.7,3-2.2,6.4-6.3,6.4C99.2,285.2,96.9,279.2,96.9,271.4z"
			/>
		<path class="st2" d="M114.2,284.7v-26.6H125v3.7h-6.7v7.5h6.4v3.7h-6.4v11.7H114.2z"/>
		<path class="st2" d="M139.3,284.7v-11.8h-5.6v11.8h-4.1v-26.6h4.1v11.1h5.6v-11.1h4.2v26.6H139.3z"/>
		<path class="st2" d="M151.3,284.7v-22.9h-4.1v-3.7h12.3v3.7h-4.1v22.9H151.3z"/>
		<path class="st2" d="M169.1,258.1h4.1v19.4c0,2.9,1.1,3.9,2.8,3.9c1.7,0,2.8-1,2.8-3.9v-19.4h4.1v19.2c0,5.5-3.2,7.8-7,7.8
			s-7-2.3-7-7.8V258.1z"/>
		<path class="st2" d="M187.9,279.4c1,1.4,2.7,2.1,4.2,2.1c1.7,0,3-1.4,3-3.4c0-2.4-1.7-3.7-3.5-5.2c-2.3-1.8-4.8-3.8-4.8-8.1
			c0-3.9,2.6-7,6.8-7c2.1,0,4,0.7,5.3,2l-1.7,3.2c-1-1-2.2-1.5-3.5-1.5c-1.6,0-2.7,1.2-2.7,3.1c0,2,1.6,3.3,3.3,4.7
			c2.3,1.9,5,4.1,5,8.6c0,4.3-2.7,7.4-7,7.4c-2.7,0-4.8-0.9-6.3-2.5L187.9,279.4z"/>
		<path class="st2" d="M203.5,284.7v-26.6h10.9v3.7h-6.7v7.5h6.4v3.7h-6.4v8h6.7v3.7H203.5z"/>
		<path class="st2" d="M228.1,284.7l-3.1-10.2H223v10.2h-4.1v-26.6h6.6c3.9,0,6.8,3.2,6.8,8.1c0,4.6-2,6.6-3.5,7.3l3.8,11.1H228.1z
			 M224.9,261.8H223v9.1h1.9c2.1,0,3.1-1.9,3.1-4.5C228,263.6,226.9,261.8,224.9,261.8z"/>
		<path class="st2" d="M236.1,266.2c1.3-0.8,2.5-2.4,2.7-3.7c-0.1,0-0.4,0.1-0.6,0.1c-1.3,0-2.2-1-2.2-2.3s1.1-2.5,2.5-2.5
			c1.5,0,2.8,1.2,2.8,3.4c0,2.6-1.5,5-3.5,6.4L236.1,266.2z"/>
		<path class="st2" d="M246,279.4c1,1.4,2.7,2.1,4.2,2.1c1.7,0,3-1.4,3-3.4c0-2.4-1.7-3.7-3.5-5.2c-2.3-1.8-4.8-3.8-4.8-8.1
			c0-3.9,2.6-7,6.8-7c2.1,0,4,0.7,5.3,2l-1.7,3.2c-1-1-2.2-1.5-3.5-1.5c-1.6,0-2.7,1.2-2.7,3.1c0,2,1.6,3.3,3.3,4.7
			c2.3,1.9,5,4.1,5,8.6c0,4.3-2.7,7.4-7,7.4c-2.7,0-4.8-0.9-6.3-2.5L246,279.4z"/>
		<path class="st2" d="M282.4,284.7v-18.5l-4.7,18.5h-1.5l-4.6-18.5v18.5h-4.1v-26.6h5.4l4.1,16.4l4.2-16.4h5.3v26.6H282.4z"/>
		<path class="st2" d="M291,284.7v-26.6h10.9v3.7h-6.7v7.5h6.4v3.7h-6.4v8h6.7v3.7H291z"/>
		<path class="st2" d="M306.4,284.7v-26.6h10.9v3.7h-6.7v7.5h6.4v3.7h-6.4v8h6.7v3.7H306.4z"/>
		<path class="st2" d="M325.1,284.7v-22.9H321v-3.7h12.3v3.7h-4.1v22.9H325.1z"/>
		<path class="st2" d="M337.1,284.7v-26.6h4.1v26.6H337.1z"/>
		<path class="st2" d="M355.8,284.7l-5.9-17.4v17.4h-4.1v-26.6h4.1l5.6,16.5v-16.5h4.2v26.6H355.8z"/>
		<path class="st2" d="M371.1,257.7c3.5,0,5.3,2.6,6.2,5.8l-3.3,1.2c-0.5-1.9-1.2-3.3-2.8-3.3c-2.3,0-3.5,3.5-3.5,10
			c0,6.4,1.2,10,3.5,10c1.2,0,2-0.5,2.6-1.4v-5.7h-3.2v-3.7h6.9v11.1c-1.6,2.1-3.6,3.3-6.3,3.3c-5.3,0-7.7-5.6-7.7-13.7
			C363.4,263.3,365.8,257.7,371.1,257.7z"/>
	</g>
	<g>
		<g>
			<g>
				<path d="M215.5,107.7c0.7,2.2,1.3,4.4,1.7,6.7c1.4,6.8,1.6,13.5,0.6,20.2h-0.1l-14.6,0.3l-0.4,0c0.7-5.9,0.8-11.7,0.1-17.5
					c-0.2-2.2-0.6-4.4-1-6.6c-0.1-0.3-0.1-0.5-0.2-0.8c-1.1-5-2.7-10-4.9-14.9c0,0,0,0,0,0c-0.3-0.7-0.7-1.5-1-2.2
					c5.8,0,11.1,0.6,15,3.3c1.1,2.2,2.1,4.4,3,6.5"/>
			</g>
			<g>
				<path d="M196.9,93.8c6.2,0,12.2,1.7,17.4,4.9l8.5,7.5c4.7,5.9,7.3,13.3,7.3,20.8c0,6-1.6,11.9-4.7,17.1
					c-0.1,0.2-0.3,0.5-0.4,0.7c-2.3,1.6-12.2,3.8-28,3.8c-15.9,0-25.7-2.2-28-3.8c0-0.1-0.1-0.1-0.1-0.2c-0.1-0.2-0.2-0.4-0.3-0.6
					c-3.1-5.1-4.7-11-4.7-17C163.7,108.7,178.6,93.8,196.9,93.8 M196.9,91.7c-19.5,0-35.2,15.8-35.2,35.2c0,6.6,1.8,12.8,5,18.1
					c0.1,0.2,0.2,0.4,0.4,0.6c0.1,0.2,0.2,0.3,0.3,0.5c2.9,2.6,15.1,4.5,29.6,4.5c14.5,0,26.7-1.9,29.6-4.5c0,0,0,0,0,0
					c0.2-0.3,0.4-0.7,0.6-1c3.2-5.3,5-11.5,5-18.1c0-8.4-3-16.2-7.9-22.2l-8.7-7.7C210.1,93.7,203.7,91.7,196.9,91.7L196.9,91.7z"/>
			</g>
			<path class="st3" d="M226.1,150.4c-2.9,2.5-14.9,4.4-29.2,4.4c-14.3,0-26.3-1.9-29.2-4.4"/>
			<path class="st4" d="M214.9,107.9c0.3,0.6,0.4,1.3,0.4,1.9c0,1.5-0.7,3.1-2.1,4l-1,0.6l-8.9,5.9l-0.5-3l-0.7-4.1l-0.6-3.3l0,0
				l0,0l5.8-3.8l0.6-0.4c1.4-0.9,3.2-0.9,4.6-0.2"/>
			<path class="st5" d="M214.9,107.9l0.3-0.1c1.1,2.2,0.5,4.8-1.4,6c-0.5,0.3-1,0.5-1.6,0.6c-1.8,0.3-3.8-0.6-4.9-2.4
				c-1.3-2-1.2-4.4,0.2-5.9c0.2-0.3,0.5-0.5,0.9-0.8c1.3-0.9,3-0.9,4.4-0.1l-0.1,0.3"/>
			<g>
				<path d="M211.8,110.7c-0.6,0.4-1.3,0.1-1.7-0.5c-0.4-0.6-0.3-1.4,0.3-1.8c0.4-0.3,0.9-0.2,1.3,0c0.1,0.1,0.3,0.2,0.4,0.4
					c0,0,0,0.1,0.1,0.1C212.5,109.5,212.4,110.3,211.8,110.7z"/>
			</g>
			<path class="st3" d="M199.8,149.3c1.9-6.2,3.1-14.5,3.1-23.5c0-14.6-3.1-27.1-7.5-32.5"/>
			<line class="st6" x1="217.4" y1="133.9" x2="203" y2="134.8"/>
			<line class="st3" x1="217.1" y1="138.7" x2="203" y2="139.6"/>
		</g>
		<path class="st3" d="M215.5,148.4c0.8-2.1,1.7-7.3,2.2-13.9c0.4-6.1,0.4-13.3-0.5-20.2c-0.3-2.3-0.8-4.6-1.3-6.8"/>
		<path class="st3" d="M213.9,101.7c-0.8-1.9-1.8-3.7-2.9-5.3"/>
	</g>
	<path class="st7" d="M277.7,86.8c-23,0.5-42.2-17.5-43.1-40.6c-0.1-2.1,0-4.2,0.2-6.3l-23.4,69.1c-0.4,0.6,0.2,0.5,0.4,0.4
		L277.7,86.8"/>
	<g>
		<path d="M276.9,4.5c21.5,0,39,16.8,39.8,38.3c0.4,10.7-3.3,20.8-10.5,28.7c-7.2,7.8-17.1,12.4-27.7,12.8c-0.2,0-0.3,0-0.5,0
			l-0.4,0c-0.3,0-0.6,0-0.8,0c-21.5,0-39-16.8-39.9-38.3c-0.1-2,0-4,0.2-5.9c1-9.4,5.4-18.2,12.3-24.7c7-6.6,16.1-10.4,25.8-10.8
			C275.8,4.5,276.4,4.5,276.9,4.5L276.9,4.5 M276.9,2.1c-0.6,0-1.2,0-1.7,0C254,3,237,19.4,234.8,39.9c-0.2,2.1-0.3,4.2-0.2,6.3
			c0.9,22.8,19.7,40.6,42.3,40.6c0.3,0,0.6,0,0.9,0c0.3,0,0.6,0,0.9,0c23.3-0.9,41.5-20.6,40.6-44C318.2,20,299.5,2.1,276.9,2.1
			L276.9,2.1z"/>
	</g>
	<g>
		<path d="M298.9,51L298.9,51c2.2,0,4.3,0.7,6,2.1c1.7,1.3,2.8,3.8,3.1,6.9c0.3,3.3-0.5,6.1-1.2,6.8c-1.3,1.4-5.2,3.4-9.1,3.4
			c-2,0-3.6-0.5-4.9-1.5c-4.3-3.3-5.1-9.6-1.8-13.9C293,52.4,295.8,51,298.9,51 M298.9,48.6c-3.7,0-7.3,1.6-9.7,4.8
			c-4.2,5.4-3.2,13.1,2.2,17.2c1.8,1.4,4.1,2,6.3,2c4.4,0,9-2.1,10.9-4.1c2.5-2.7,3.2-13.1-2.2-17.2
			C304.2,49.4,301.5,48.6,298.9,48.6L298.9,48.6z"/>
	</g>
</g>
</svg>
