<?xml version="1.0" encoding="utf-8"?>
<!-- Generator: Adobe Illustrator 25.2.1, SVG Export Plug-In . SVG Version: 6.00 Build 0)  -->
<svg version="1.1" id="Layer_1" xmlns="http://www.w3.org/2000/svg" xmlns:xlink="http://www.w3.org/1999/xlink" x="0px" y="0px"
	 viewBox="0 0 652.6 507.9" style="enable-background:new 0 0 652.6 507.9;" xml:space="preserve">
<style type="text/css">
	.st0{fill:url(#SVGID_1_);}
	.st1{fill:#1C4646;}
	.st2{font-family:'OpenSans-Regular';}
	.st3{font-size:24px;}
	.st4{fill:#8FD4C2;}
	.st5{fill:#BFC0BE;}
	.st6{fill:#40595B;}
	.st7{fill:#131517;}
</style>
<linearGradient id="SVGID_1_" gradientUnits="userSpaceOnUse" x1="394.9532" y1="56.4002" x2="389.7003" y2="432.9682">
	<stop  offset="0" style="stop-color:#1C4646"/>
	<stop  offset="1" style="stop-color:#8FD4C2"/>
</linearGradient>
<path class="st0" d="M415,496.1h-45.5c-3.6,0-6.6-3-6.6-6.6V15.6c0-3.6,3-6.6,6.6-6.6H415c3.6,0,6.6,3,6.6,6.6v473.9
	C421.6,493.1,418.6,496.1,415,496.1z"/>
<g>
	<g>
		<circle class="st1" cx="493.7" cy="35.3" r="26.2"/>
	</g>
	<text transform="matrix(1 0 0 1 543.935 42.2926)" class="st2 st3">#1c4646</text>
</g>
<g>
	<g>
		<circle class="st4" cx="493.7" cy="469.9" r="26.2"/>
	</g>
	<text transform="matrix(1 0 0 1 543.9352 476.9215)" class="st2 st3">#8fd4c2</text>
</g>
<g>
	<g>
		<circle class="st5" cx="100" cy="81.2" r="72.1"/>
	</g>
	<text transform="matrix(1 0 0 1 195.1459 88.1891)" class="st2 st3">#bfc0be</text>
</g>
<g>
	<g>
		<circle class="st6" cx="100" cy="252.6" r="72.1"/>
	</g>
	<text transform="matrix(1 0 0 1 195.1464 259.6073)" class="st2 st3">#40595b</text>
</g>
<g>
	<g>
		<circle class="st7" cx="100" cy="424" r="72.1"/>
	</g>
	<text transform="matrix(1 0 0 1 195.1461 431.0255)" class="st2 st3">#131517</text>
</g>
</svg>
