<?xml version="1.0" encoding="utf-8"?>
<!-- Generator: Adobe Illustrator 25.2.1, SVG Export Plug-In . SVG Version: 6.00 Build 0)  -->
<svg version="1.1" id="Layer_1" xmlns="http://www.w3.org/2000/svg" xmlns:xlink="http://www.w3.org/1999/xlink" x="0px" y="0px"
	 viewBox="0 0 1153 1153" style="enable-background:new 0 0 1153 1153;" xml:space="preserve">
<style type="text/css">
	.st0{display:none;}
	.st1{display:inline;fill:#C46200;}
	.st2{display:inline;fill:#FDFDFD;}
	.st3{fill:#919191;}
	.st4{display:inline;fill:#EFAB00;}
	.st5{fill:#FDFDFD;}
</style>
<g id="BRONZE" class="st0">
	<polygon class="st1" points="56.6,1141.7 56.6,-11.3 1209.6,-11.3 	"/>
	<path class="st2" d="M490.1,514.7c0.2,0.1,0.3,0.2,0.5,0.3c-0.1-0.2-0.2-0.3-0.3-0.5c0-1.8-1.1-3.1-1.9-4.5
		c-18.5-34.7-37-69.3-55.5-104c-1.4-2.5-2.3-4.2,0.9-6.7c39.5-30.2,57.9-70.1,53.8-119.9c-2.5-30.7-15.1-57.3-36.6-79.1
		c-27.5-28-61.1-41.3-100.4-39.7c-33.2,1.3-61.9,13.6-85.5,36.6c-30.2,29.5-43.7,65.7-39.7,108c3.6,38.7,21.7,69.6,52.5,93.1
		c3.7,2.8,4,4.7,1.9,8.7c-18.5,34.3-36.8,68.7-55.1,103.1c-0.7,1.3-2,2.6-1.6,4.3c2,0.6,3.5-0.4,5-0.8c15.1-4.6,30.2-9.1,45.2-13.9
		c3.1-1,4.6-0.4,5.4,2.8c1.3,5.2,3,10.4,4.6,15.6c3.4,11.3,6.8,22.6,10.4,34.8c21.1-39.6,41.8-78.2,62.8-117.6
		c21.1,39.5,41.8,78.2,62.8,117.6c5.2-17.2,10.1-33.5,14.9-49.8c1-3.5,2.2-4.6,5.9-3.3c8.2,2.8,16.6,5.3,25,7.7
		C473.3,509.9,481.5,513.1,490.1,514.7z"/>
</g>
<path class="st3" d="M1325.8-37.5c0.1,0.2,0.3,0.4,0.4,0.6c-0.2-0.1-0.4-0.3-0.6-0.4L1325.8-37.5z"/>
<g id="GOLD" class="st0">
	<polygon class="st4" points="56.6,1141.7 56.6,-11.3 1209.6,-11.3 	"/>
	<path class="st2" d="M490.1,514.7c0.2,0.1,0.3,0.2,0.5,0.3c-0.1-0.2-0.2-0.3-0.3-0.5c0-1.8-1.1-3.1-1.9-4.5
		c-18.5-34.7-37-69.3-55.5-104c-1.4-2.5-2.3-4.2,0.9-6.7c39.5-30.2,57.9-70.1,53.8-119.9c-2.5-30.7-15.1-57.3-36.6-79.1
		c-27.5-28-61.1-41.3-100.4-39.7c-33.2,1.3-61.9,13.6-85.5,36.6c-30.2,29.5-43.7,65.7-39.7,108c3.6,38.7,21.7,69.6,52.5,93.1
		c3.7,2.8,4,4.7,1.9,8.7c-18.5,34.3-36.8,68.7-55.1,103.1c-0.7,1.3-2,2.6-1.6,4.3c2,0.6,3.5-0.4,5-0.8c15.1-4.6,30.2-9.1,45.2-13.9
		c3.1-1,4.6-0.4,5.4,2.8c1.3,5.2,3,10.4,4.6,15.6c3.4,11.3,6.8,22.6,10.4,34.8c21.1-39.6,41.8-78.2,62.8-117.6
		c21.1,39.5,41.8,78.2,62.8,117.6c5.2-17.2,10.1-33.5,14.9-49.8c1-3.5,2.2-4.6,5.9-3.3c8.2,2.8,16.6,5.3,25,7.7
		C473.3,509.9,481.5,513.1,490.1,514.7z"/>
</g>
<path class="st3" d="M1269.2-26.2c0.1,0.2,0.3,0.4,0.4,0.6c-0.2-0.1-0.4-0.3-0.6-0.4L1269.2-26.2z"/>
<polygon class="st3" points="1153,0 1153,1153 0,1153 "/>
<path class="st5" d="M962.7,931.9c0.1,0.1,0.3,0.2,0.4,0.3c-0.1-0.1-0.2-0.3-0.3-0.4c0-1.4-0.9-2.5-1.5-3.6
	c-14.9-28-29.9-56.1-44.9-84.1c-1.1-2-1.9-3.4,0.7-5.4c32-24.4,46.9-56.7,43.5-97c-2.1-24.9-12.2-46.3-29.6-64
	c-22.2-22.6-49.4-33.4-81.2-32.1c-26.8,1.1-50.1,11-69.2,29.6c-24.4,23.8-35.3,53.2-32.1,87.3c2.9,31.3,17.5,56.3,42.4,75.3
	c3,2.3,3.2,3.8,1.5,7c-15,27.8-29.8,55.6-44.6,83.4c-0.6,1.1-1.6,2.1-1.3,3.5c1.6,0.5,2.8-0.3,4-0.7c12.2-3.7,24.4-7.4,36.6-11.2
	c2.5-0.8,3.7-0.4,4.4,2.3c1.1,4.2,2.5,8.4,3.7,12.6c2.7,9.1,5.5,18.3,8.4,28.1c17.1-32,33.8-63.3,50.8-95.1
	c17.1,32,33.8,63.2,50.8,95.1c4.2-13.9,8.2-27.1,12-40.3c0.8-2.8,1.8-3.7,4.8-2.7c6.7,2.3,13.4,4.3,20.2,6.2
	C949.1,928,955.7,930.6,962.7,931.9z"/>
</svg>
