<?xml version="1.0" encoding="utf-8"?>
<!-- Generator: Adobe Illustrator 24.0.3, SVG Export Plug-In . SVG Version: 6.00 Build 0)  -->
<svg version="1.1" id="Layer_1" xmlns="http://www.w3.org/2000/svg" xmlns:xlink="http://www.w3.org/1999/xlink" x="0px" y="0px"
	 viewBox="0 0 779 305" style="enable-background:new 0 0 779 305;" xml:space="preserve">
<style type="text/css">
	.st0{fill:none;stroke:#CC1F3D;stroke-width:5.3483;stroke-linecap:round;stroke-miterlimit:10;}
	.st1{fill:none;stroke:#CC1F3D;stroke-width:5.3483;stroke-linecap:round;stroke-miterlimit:10;stroke-dasharray:10.6746,10.6746;}
	.st2{fill:#FFFFFF;stroke:#FFC310;stroke-width:6.8414;stroke-miterlimit:10;}
	.st3{fill:#CC1F3D;}
	.st4{fill:#015563;}
</style>
<g>
	<g>
		<g>
			<path class="st0" d="M82.7,28.9c-1,1.4-2.1,2.7-3.6,3.9"/>
			<path class="st1" d="M69.5,37.1c-1.7,0.3-3.6,0.5-5.6,0.5c-20.9,0-35.6,26.4-12.4,37.2c7.8,3.7,16.8,2.1,25.4,1
				c14.4-1.9,28.6-6.8,44.3-2c14.5,4.4,36.1,17.7,33.2,51.6c-1.5,17.7-14,32.5-32,39.7c-18.2,7.3-38.6,7.8-57.5,2.5
				c-4.6-1.3-9.4-3.1-12.3-6.8c-2.1-2.6-2.9-6.6-0.9-9.3c2.7-3.6,9.2-2.3,11.3,1.6c2.1,4,0.7,9.1-2.3,12.5
				c-9.3,10.6-23.7,10.3-36.1,14.3C9,185,2.5,201.2,5.2,216.4c2.4,13.4,14.7,22.7,27.7,25c19.4,3.5,33.7-9.1,51.3-14.5
				c17.9-5.5,47.5-3,47.5,21.5c0,14.6-12.9,23.3-26.3,24.8c-4.6,0.5-9.7,1.1-13.9,3.2"/>
			<path class="st0" d="M87.2,279.5c-1.1,1.2-2,2.8-2.7,4.6"/>
		</g>
	</g>
	<circle class="st2" cx="84.4" cy="11.3" r="6.9"/>
	<polygon class="st3" points="82.1,291 86,297.9 90,304.7 82.1,304.7 74.2,304.7 78.1,297.9 	"/>
</g>
<g>
	<path class="st4" d="M240.9,126.9c-15,0-24.4-3-24.4-22.2V74.3h-9V60.5h9V29.8h15v30.7h11.8v13.8h-11.8v29.9c0,6.9,2.5,8.5,9.3,8.5
		c0.8,0,2.7-0.2,2.7-0.2v14.2C243.4,126.7,241.5,126.9,240.9,126.9z"/>
	<path class="st4" d="M288.4,127.8c-19.4,0-33.4-13.7-33.4-35.1c0-17.6,12.6-34.2,33-34.2c20.5,0,34,15.7,34,33.5
		C322.1,111.9,308.4,127.8,288.4,127.8z M288.1,72.4c-11.2,0-17.8,9.1-17.8,20.3c0,13.1,6.6,21.2,17.6,21.2
		c13.4,0,18.9-9.1,18.9-20.9C306.9,80.3,299.6,72.4,288.1,72.4z"/>
	<path class="st4" d="M418.9,125.9V84.1c0-8-4.9-11.6-11.5-11.6c-8,0-14.5,6.3-14.5,14.5v39h-15V84.1c0-8-5.2-11.6-11.8-11.6
		c-8,0-14.2,6.3-14.2,14.6v38.9h-15V60.5h15v6.3c3.8-4.7,10.4-8.2,17.3-8.2c10.4,0,16.4,3.6,20.6,10.1c5-6.9,14.3-10.1,21.1-10.1
		c17.2,0,22.8,10.9,22.8,24.1v43.3H418.9z"/>
	<path class="st4" d="M478.4,137.6c-3,8.7-7.6,16.5-20.8,16.5c-3.8,0-6.6-0.2-10.5-1.4v-13.5c2,0.8,4.4,1.4,6.5,1.4
		c9.6,0,10.5-6.6,12.9-13.4l-22.8-66.7h16.2l14.5,42.8l0.9,3.8c0-0.3,0.6-2.5,1.1-3.9l14.3-42.6h15.9L478.4,137.6z"/>
	<path class="st4" d="M240.9,288.2c-15,0-24.4-3-24.4-22.2v-30.4h-9v-13.8h9v-30.7h15v30.7h11.8v13.8h-11.8v29.9
		c0,6.9,2.5,8.5,9.3,8.5c0.8,0,2.7-0.2,2.7-0.2V288C243.4,288,241.5,288.2,240.9,288.2z"/>
	<path class="st4" d="M299.3,287.2v-4.7c-6,4.6-12.6,6.6-20.5,6.6c-16.5,0-24.6-9.9-24.6-22c0-15.4,15.4-23.9,35.6-23.9h9.8
		c0-7.9-3.3-10.7-13.1-10.7c-8.2,0-14.5,1.1-20.1,3.6l-5.2-11.2c6.1-3.6,16.4-5,23.6-5c18.3,0,29.4,5.4,29.4,19.5v47.8H299.3z
		 M299.3,255.3h-4.2c-17,0-25.5,3.5-25.5,11.8c0,6.3,7.1,8.8,13.4,8.8c6.6,0,10.4-1.1,16.4-5.2V255.3z"/>
	<path class="st4" d="M373.9,287.2l-20.3-28.3l-7.1,6.1v22.2h-15V172.4h15v74.4l26-25h20.6l-28.5,26.8l28.6,38.7H373.9z"/>
	<path class="st4" d="M413.4,256.4c0.5,10.5,7.9,18.9,19.4,18.9c10.2,0,15.9-3.3,21.9-7.9l9.1,9.4c-8.2,7.1-17.3,12.3-31.2,12.3
		c-19.2,0-34.2-13.2-34.2-35.3c0-19.2,13.8-34,33.5-34c19.7,0,32.9,15.3,32.9,36.5H413.4z M431.3,233.3c-8.5,0-15.6,4.6-17.3,11.8
		h34.6C446.3,237.5,439.7,233.3,431.3,233.3z"/>
	<path class="st4" d="M561.3,287.2v-41.9c0-8-4.9-11.6-11.5-11.6c-8,0-14.5,6.3-14.5,14.5v39h-15v-41.9c0-8-5.2-11.6-11.8-11.6
		c-8,0-14.2,6.3-14.2,14.6v38.9h-15v-65.5h15v6.3c3.8-4.7,10.4-8.2,17.3-8.2c10.4,0,16.4,3.6,20.6,10.1c5-6.9,14.3-10.1,21.1-10.1
		c17.2,0,22.8,10.9,22.8,24.1v43.3H561.3z"/>
	<path class="st4" d="M635.5,287.2v-7.9c-3.6,5.5-10.2,9.8-18.6,9.8c-15.6,0-24.1-8.5-24.1-24.7v-42.6h15v39.8
		c0,7.4,4.2,13.7,12.4,13.7c10.4,0,15.3-10.2,15.3-18.3v-35.3h15v65.5H635.5z"/>
	<path class="st4" d="M708,237.3c-3.5-2.5-6.6-3.3-9.4-3.3c-8.3,0-14.3,7.4-14.3,20v33.2h-15v-65.5h15v7.9
		c4.7-6.5,10.7-9.8,17.6-9.8c5.2,0,8.8,1.6,12.9,4.9L708,237.3z"/>
	<path class="st4" d="M763.7,287.2v-4.7c-6,4.6-12.6,6.6-20.5,6.6c-16.5,0-24.6-9.9-24.6-22c0-15.4,15.4-23.9,35.6-23.9h9.8
		c0-7.9-3.3-10.7-13.1-10.7c-8.2,0-14.5,1.1-20.1,3.6l-5.2-11.2c6.1-3.6,16.4-5,23.6-5c18.3,0,29.4,5.4,29.4,19.5v47.8H763.7z
		 M763.7,255.3h-4.2c-17,0-25.5,3.5-25.5,11.8c0,6.3,7.1,8.8,13.4,8.8c6.6,0,10.4-1.1,16.4-5.2V255.3z"/>
</g>
</svg>
